%FSLAX45Y45*%
G04 Gerber Fmt 4.5, Leading zero omitted, Abs format (unit mm)*
G04 Created by KiCad (PCBNEW (6.0.6)) date 2022-07-17 20:06:46*
%MOMM*%
%LPD*%
G01*
G04 APERTURE LIST*
%TA.AperFunction,Profile*%
%ADD10C,0.050000*%
%TD*%
%ADD11C,0.200000*%
%ADD12C,0.210000*%
G04 APERTURE END LIST*
D10*
X12500000Y-10800000D02*
X12500000Y-11900000D01*
X21500000Y-10800000D02*
G75*
G03*
X12500000Y-10800000I-4500000J-9025604D01*
G01*
X12500000Y-11900000D02*
X21500000Y-11900000D01*
X21500000Y-11900000D02*
X21500000Y-10800000D01*
D11*
D12*
X14395000Y-11495000D02*
X14605000Y-11705000D01*
X14605000Y-11495000D02*
X14395000Y-11705000D01*
X19395000Y-11495000D02*
X19605000Y-11705000D01*
X19605000Y-11495000D02*
X19395000Y-11705000D01*
D11*
X12755119Y-12212976D02*
X12755119Y-12012976D01*
X12802738Y-12012976D01*
X12831309Y-12022500D01*
X12850357Y-12041548D01*
X12859881Y-12060595D01*
X12869405Y-12098690D01*
X12869405Y-12127262D01*
X12859881Y-12165357D01*
X12850357Y-12184405D01*
X12831309Y-12203452D01*
X12802738Y-12212976D01*
X12755119Y-12212976D01*
X12955119Y-12212976D02*
X12955119Y-12079643D01*
X12955119Y-12117738D02*
X12964643Y-12098690D01*
X12974167Y-12089167D01*
X12993214Y-12079643D01*
X13012262Y-12079643D01*
X13078928Y-12212976D02*
X13078928Y-12079643D01*
X13078928Y-12012976D02*
X13069405Y-12022500D01*
X13078928Y-12032024D01*
X13088452Y-12022500D01*
X13078928Y-12012976D01*
X13078928Y-12032024D01*
X13202738Y-12212976D02*
X13183690Y-12203452D01*
X13174167Y-12184405D01*
X13174167Y-12012976D01*
X13307500Y-12212976D02*
X13288452Y-12203452D01*
X13278928Y-12184405D01*
X13278928Y-12012976D01*
X13536071Y-12212976D02*
X13536071Y-12012976D01*
X13602738Y-12155833D01*
X13669405Y-12012976D01*
X13669405Y-12212976D01*
X13850357Y-12212976D02*
X13850357Y-12108214D01*
X13840833Y-12089167D01*
X13821786Y-12079643D01*
X13783690Y-12079643D01*
X13764643Y-12089167D01*
X13850357Y-12203452D02*
X13831309Y-12212976D01*
X13783690Y-12212976D01*
X13764643Y-12203452D01*
X13755119Y-12184405D01*
X13755119Y-12165357D01*
X13764643Y-12146309D01*
X13783690Y-12136786D01*
X13831309Y-12136786D01*
X13850357Y-12127262D01*
X13945595Y-12079643D02*
X13945595Y-12279643D01*
X13945595Y-12089167D02*
X13964643Y-12079643D01*
X14002738Y-12079643D01*
X14021786Y-12089167D01*
X14031309Y-12098690D01*
X14040833Y-12117738D01*
X14040833Y-12174881D01*
X14031309Y-12193928D01*
X14021786Y-12203452D01*
X14002738Y-12212976D01*
X13964643Y-12212976D01*
X13945595Y-12203452D01*
X14126548Y-12193928D02*
X14136071Y-12203452D01*
X14126548Y-12212976D01*
X14117024Y-12203452D01*
X14126548Y-12193928D01*
X14126548Y-12212976D01*
X14126548Y-12089167D02*
X14136071Y-12098690D01*
X14126548Y-12108214D01*
X14117024Y-12098690D01*
X14126548Y-12089167D01*
X14126548Y-12108214D01*
X12297500Y-12442500D02*
X12497500Y-12642500D01*
X12497500Y-12442500D02*
X12297500Y-12642500D01*
X12745595Y-12452024D02*
X12755119Y-12442500D01*
X12774167Y-12432976D01*
X12821786Y-12432976D01*
X12840833Y-12442500D01*
X12850357Y-12452024D01*
X12859881Y-12471071D01*
X12859881Y-12490119D01*
X12850357Y-12518690D01*
X12736071Y-12632976D01*
X12859881Y-12632976D01*
X12945595Y-12613928D02*
X12955119Y-12623452D01*
X12945595Y-12632976D01*
X12936071Y-12623452D01*
X12945595Y-12613928D01*
X12945595Y-12632976D01*
X13145595Y-12632976D02*
X13031309Y-12632976D01*
X13088452Y-12632976D02*
X13088452Y-12432976D01*
X13069405Y-12461548D01*
X13050357Y-12480595D01*
X13031309Y-12490119D01*
X13269405Y-12432976D02*
X13288452Y-12432976D01*
X13307500Y-12442500D01*
X13317024Y-12452024D01*
X13326548Y-12471071D01*
X13336071Y-12509167D01*
X13336071Y-12556786D01*
X13326548Y-12594881D01*
X13317024Y-12613928D01*
X13307500Y-12623452D01*
X13288452Y-12632976D01*
X13269405Y-12632976D01*
X13250357Y-12623452D01*
X13240833Y-12613928D01*
X13231309Y-12594881D01*
X13221786Y-12556786D01*
X13221786Y-12509167D01*
X13231309Y-12471071D01*
X13240833Y-12452024D01*
X13250357Y-12442500D01*
X13269405Y-12432976D01*
X13459881Y-12432976D02*
X13478928Y-12432976D01*
X13497976Y-12442500D01*
X13507500Y-12452024D01*
X13517024Y-12471071D01*
X13526548Y-12509167D01*
X13526548Y-12556786D01*
X13517024Y-12594881D01*
X13507500Y-12613928D01*
X13497976Y-12623452D01*
X13478928Y-12632976D01*
X13459881Y-12632976D01*
X13440833Y-12623452D01*
X13431309Y-12613928D01*
X13421786Y-12594881D01*
X13412262Y-12556786D01*
X13412262Y-12509167D01*
X13421786Y-12471071D01*
X13431309Y-12452024D01*
X13440833Y-12442500D01*
X13459881Y-12432976D01*
X13612262Y-12632976D02*
X13612262Y-12499643D01*
X13612262Y-12518690D02*
X13621786Y-12509167D01*
X13640833Y-12499643D01*
X13669405Y-12499643D01*
X13688452Y-12509167D01*
X13697976Y-12528214D01*
X13697976Y-12632976D01*
X13697976Y-12528214D02*
X13707500Y-12509167D01*
X13726548Y-12499643D01*
X13755119Y-12499643D01*
X13774167Y-12509167D01*
X13783690Y-12528214D01*
X13783690Y-12632976D01*
X13878928Y-12632976D02*
X13878928Y-12499643D01*
X13878928Y-12518690D02*
X13888452Y-12509167D01*
X13907500Y-12499643D01*
X13936071Y-12499643D01*
X13955119Y-12509167D01*
X13964643Y-12528214D01*
X13964643Y-12632976D01*
X13964643Y-12528214D02*
X13974167Y-12509167D01*
X13993214Y-12499643D01*
X14021786Y-12499643D01*
X14040833Y-12509167D01*
X14050357Y-12528214D01*
X14050357Y-12632976D01*
X14440833Y-12423452D02*
X14269405Y-12680595D01*
X14697976Y-12432976D02*
X14717024Y-12432976D01*
X14736071Y-12442500D01*
X14745595Y-12452024D01*
X14755119Y-12471071D01*
X14764643Y-12509167D01*
X14764643Y-12556786D01*
X14755119Y-12594881D01*
X14745595Y-12613928D01*
X14736071Y-12623452D01*
X14717024Y-12632976D01*
X14697976Y-12632976D01*
X14678928Y-12623452D01*
X14669405Y-12613928D01*
X14659881Y-12594881D01*
X14650357Y-12556786D01*
X14650357Y-12509167D01*
X14659881Y-12471071D01*
X14669405Y-12452024D01*
X14678928Y-12442500D01*
X14697976Y-12432976D01*
X14850357Y-12613928D02*
X14859881Y-12623452D01*
X14850357Y-12632976D01*
X14840833Y-12623452D01*
X14850357Y-12613928D01*
X14850357Y-12632976D01*
X14983690Y-12432976D02*
X15002738Y-12432976D01*
X15021786Y-12442500D01*
X15031309Y-12452024D01*
X15040833Y-12471071D01*
X15050357Y-12509167D01*
X15050357Y-12556786D01*
X15040833Y-12594881D01*
X15031309Y-12613928D01*
X15021786Y-12623452D01*
X15002738Y-12632976D01*
X14983690Y-12632976D01*
X14964643Y-12623452D01*
X14955119Y-12613928D01*
X14945595Y-12594881D01*
X14936071Y-12556786D01*
X14936071Y-12509167D01*
X14945595Y-12471071D01*
X14955119Y-12452024D01*
X14964643Y-12442500D01*
X14983690Y-12432976D01*
X15164643Y-12518690D02*
X15145595Y-12509167D01*
X15136071Y-12499643D01*
X15126548Y-12480595D01*
X15126548Y-12471071D01*
X15136071Y-12452024D01*
X15145595Y-12442500D01*
X15164643Y-12432976D01*
X15202738Y-12432976D01*
X15221786Y-12442500D01*
X15231309Y-12452024D01*
X15240833Y-12471071D01*
X15240833Y-12480595D01*
X15231309Y-12499643D01*
X15221786Y-12509167D01*
X15202738Y-12518690D01*
X15164643Y-12518690D01*
X15145595Y-12528214D01*
X15136071Y-12537738D01*
X15126548Y-12556786D01*
X15126548Y-12594881D01*
X15136071Y-12613928D01*
X15145595Y-12623452D01*
X15164643Y-12632976D01*
X15202738Y-12632976D01*
X15221786Y-12623452D01*
X15231309Y-12613928D01*
X15240833Y-12594881D01*
X15240833Y-12556786D01*
X15231309Y-12537738D01*
X15221786Y-12528214D01*
X15202738Y-12518690D01*
X15317024Y-12452024D02*
X15326548Y-12442500D01*
X15345595Y-12432976D01*
X15393214Y-12432976D01*
X15412262Y-12442500D01*
X15421786Y-12452024D01*
X15431309Y-12471071D01*
X15431309Y-12490119D01*
X15421786Y-12518690D01*
X15307500Y-12632976D01*
X15431309Y-12632976D01*
X15497976Y-12432976D02*
X15631309Y-12432976D01*
X15545595Y-12632976D01*
X15697976Y-12432976D02*
X15697976Y-12471071D01*
X15774167Y-12432976D02*
X15774167Y-12471071D01*
X16069405Y-12709167D02*
X16059881Y-12699643D01*
X16040833Y-12671071D01*
X16031309Y-12652024D01*
X16021786Y-12623452D01*
X16012262Y-12575833D01*
X16012262Y-12537738D01*
X16021786Y-12490119D01*
X16031309Y-12461548D01*
X16040833Y-12442500D01*
X16059881Y-12413928D01*
X16069405Y-12404405D01*
X16136071Y-12452024D02*
X16145595Y-12442500D01*
X16164643Y-12432976D01*
X16212262Y-12432976D01*
X16231309Y-12442500D01*
X16240833Y-12452024D01*
X16250357Y-12471071D01*
X16250357Y-12490119D01*
X16240833Y-12518690D01*
X16126548Y-12632976D01*
X16250357Y-12632976D01*
X16488452Y-12632976D02*
X16488452Y-12432976D01*
X16574167Y-12632976D02*
X16574167Y-12528214D01*
X16564643Y-12509167D01*
X16545595Y-12499643D01*
X16517024Y-12499643D01*
X16497976Y-12509167D01*
X16488452Y-12518690D01*
X16697976Y-12632976D02*
X16678928Y-12623452D01*
X16669405Y-12613928D01*
X16659881Y-12594881D01*
X16659881Y-12537738D01*
X16669405Y-12518690D01*
X16678928Y-12509167D01*
X16697976Y-12499643D01*
X16726548Y-12499643D01*
X16745595Y-12509167D01*
X16755119Y-12518690D01*
X16764643Y-12537738D01*
X16764643Y-12594881D01*
X16755119Y-12613928D01*
X16745595Y-12623452D01*
X16726548Y-12632976D01*
X16697976Y-12632976D01*
X16878929Y-12632976D02*
X16859881Y-12623452D01*
X16850357Y-12604405D01*
X16850357Y-12432976D01*
X17031310Y-12623452D02*
X17012262Y-12632976D01*
X16974167Y-12632976D01*
X16955119Y-12623452D01*
X16945595Y-12604405D01*
X16945595Y-12528214D01*
X16955119Y-12509167D01*
X16974167Y-12499643D01*
X17012262Y-12499643D01*
X17031310Y-12509167D01*
X17040833Y-12528214D01*
X17040833Y-12547262D01*
X16945595Y-12566309D01*
X17117024Y-12623452D02*
X17136071Y-12632976D01*
X17174167Y-12632976D01*
X17193214Y-12623452D01*
X17202738Y-12604405D01*
X17202738Y-12594881D01*
X17193214Y-12575833D01*
X17174167Y-12566309D01*
X17145595Y-12566309D01*
X17126548Y-12556786D01*
X17117024Y-12537738D01*
X17117024Y-12528214D01*
X17126548Y-12509167D01*
X17145595Y-12499643D01*
X17174167Y-12499643D01*
X17193214Y-12509167D01*
X17269405Y-12709167D02*
X17278929Y-12699643D01*
X17297976Y-12671071D01*
X17307500Y-12652024D01*
X17317024Y-12623452D01*
X17326548Y-12575833D01*
X17326548Y-12537738D01*
X17317024Y-12490119D01*
X17307500Y-12461548D01*
X17297976Y-12442500D01*
X17278929Y-12413928D01*
X17269405Y-12404405D01*
X17631310Y-12709167D02*
X17621786Y-12699643D01*
X17602738Y-12671071D01*
X17593214Y-12652024D01*
X17583690Y-12623452D01*
X17574167Y-12575833D01*
X17574167Y-12537738D01*
X17583690Y-12490119D01*
X17593214Y-12461548D01*
X17602738Y-12442500D01*
X17621786Y-12413928D01*
X17631310Y-12404405D01*
X17707500Y-12499643D02*
X17707500Y-12632976D01*
X17707500Y-12518690D02*
X17717024Y-12509167D01*
X17736071Y-12499643D01*
X17764643Y-12499643D01*
X17783690Y-12509167D01*
X17793214Y-12528214D01*
X17793214Y-12632976D01*
X17917024Y-12632976D02*
X17897976Y-12623452D01*
X17888452Y-12613928D01*
X17878929Y-12594881D01*
X17878929Y-12537738D01*
X17888452Y-12518690D01*
X17897976Y-12509167D01*
X17917024Y-12499643D01*
X17945595Y-12499643D01*
X17964643Y-12509167D01*
X17974167Y-12518690D01*
X17983690Y-12537738D01*
X17983690Y-12594881D01*
X17974167Y-12613928D01*
X17964643Y-12623452D01*
X17945595Y-12632976D01*
X17917024Y-12632976D01*
X18040833Y-12499643D02*
X18117024Y-12499643D01*
X18069405Y-12432976D02*
X18069405Y-12604405D01*
X18078929Y-12623452D01*
X18097976Y-12632976D01*
X18117024Y-12632976D01*
X18336071Y-12499643D02*
X18336071Y-12699643D01*
X18336071Y-12509167D02*
X18355119Y-12499643D01*
X18393214Y-12499643D01*
X18412262Y-12509167D01*
X18421786Y-12518690D01*
X18431310Y-12537738D01*
X18431310Y-12594881D01*
X18421786Y-12613928D01*
X18412262Y-12623452D01*
X18393214Y-12632976D01*
X18355119Y-12632976D01*
X18336071Y-12623452D01*
X18545595Y-12632976D02*
X18526548Y-12623452D01*
X18517024Y-12604405D01*
X18517024Y-12432976D01*
X18707500Y-12632976D02*
X18707500Y-12528214D01*
X18697976Y-12509167D01*
X18678929Y-12499643D01*
X18640833Y-12499643D01*
X18621786Y-12509167D01*
X18707500Y-12623452D02*
X18688452Y-12632976D01*
X18640833Y-12632976D01*
X18621786Y-12623452D01*
X18612262Y-12604405D01*
X18612262Y-12585357D01*
X18621786Y-12566309D01*
X18640833Y-12556786D01*
X18688452Y-12556786D01*
X18707500Y-12547262D01*
X18774167Y-12499643D02*
X18850357Y-12499643D01*
X18802738Y-12432976D02*
X18802738Y-12604405D01*
X18812262Y-12623452D01*
X18831310Y-12632976D01*
X18850357Y-12632976D01*
X18993214Y-12623452D02*
X18974167Y-12632976D01*
X18936071Y-12632976D01*
X18917024Y-12623452D01*
X18907500Y-12604405D01*
X18907500Y-12528214D01*
X18917024Y-12509167D01*
X18936071Y-12499643D01*
X18974167Y-12499643D01*
X18993214Y-12509167D01*
X19002738Y-12528214D01*
X19002738Y-12547262D01*
X18907500Y-12566309D01*
X19174167Y-12632976D02*
X19174167Y-12432976D01*
X19174167Y-12623452D02*
X19155119Y-12632976D01*
X19117024Y-12632976D01*
X19097976Y-12623452D01*
X19088452Y-12613928D01*
X19078929Y-12594881D01*
X19078929Y-12537738D01*
X19088452Y-12518690D01*
X19097976Y-12509167D01*
X19117024Y-12499643D01*
X19155119Y-12499643D01*
X19174167Y-12509167D01*
X19250357Y-12709167D02*
X19259881Y-12699643D01*
X19278929Y-12671071D01*
X19288452Y-12652024D01*
X19297976Y-12623452D01*
X19307500Y-12575833D01*
X19307500Y-12537738D01*
X19297976Y-12490119D01*
X19288452Y-12461548D01*
X19278929Y-12442500D01*
X19259881Y-12413928D01*
X19250357Y-12404405D01*
M02*
