%TF.GenerationSoftware,KiCad,Pcbnew,(6.0.6)*%
%TF.CreationDate,2022-07-17T20:06:38+03:00*%
%TF.ProjectId,Sensor,53656e73-6f72-42e6-9b69-6361645f7063,rev?*%
%TF.SameCoordinates,Original*%
%TF.FileFunction,Legend,Top*%
%TF.FilePolarity,Positive*%
%FSLAX46Y46*%
G04 Gerber Fmt 4.6, Leading zero omitted, Abs format (unit mm)*
G04 Created by KiCad (PCBNEW (6.0.6)) date 2022-07-17 20:06:38*
%MOMM*%
%LPD*%
G01*
G04 APERTURE LIST*
G04 Aperture macros list*
%AMRoundRect*
0 Rectangle with rounded corners*
0 $1 Rounding radius*
0 $2 $3 $4 $5 $6 $7 $8 $9 X,Y pos of 4 corners*
0 Add a 4 corners polygon primitive as box body*
4,1,4,$2,$3,$4,$5,$6,$7,$8,$9,$2,$3,0*
0 Add four circle primitives for the rounded corners*
1,1,$1+$1,$2,$3*
1,1,$1+$1,$4,$5*
1,1,$1+$1,$6,$7*
1,1,$1+$1,$8,$9*
0 Add four rect primitives between the rounded corners*
20,1,$1+$1,$2,$3,$4,$5,0*
20,1,$1+$1,$4,$5,$6,$7,0*
20,1,$1+$1,$6,$7,$8,$9,0*
20,1,$1+$1,$8,$9,$2,$3,0*%
G04 Aperture macros list end*
%ADD10C,0.150000*%
%ADD11C,0.120000*%
%ADD12C,0.127000*%
%ADD13C,0.200000*%
%ADD14RoundRect,0.250000X-0.475000X0.250000X-0.475000X-0.250000X0.475000X-0.250000X0.475000X0.250000X0*%
%ADD15RoundRect,0.225000X0.250000X-0.225000X0.250000X0.225000X-0.250000X0.225000X-0.250000X-0.225000X0*%
%ADD16R,0.450000X0.600000*%
%ADD17R,3.600000X1.500000*%
%ADD18RoundRect,0.200000X0.200000X0.275000X-0.200000X0.275000X-0.200000X-0.275000X0.200000X-0.275000X0*%
%ADD19RoundRect,0.020000X0.180000X-0.575000X0.180000X0.575000X-0.180000X0.575000X-0.180000X-0.575000X0*%
%ADD20C,2.100000*%
%ADD21RoundRect,0.250000X-0.325000X-0.450000X0.325000X-0.450000X0.325000X0.450000X-0.325000X0.450000X0*%
%ADD22RoundRect,0.200000X-0.200000X-0.275000X0.200000X-0.275000X0.200000X0.275000X-0.200000X0.275000X0*%
%ADD23RoundRect,0.250000X-0.350000X-0.625000X0.350000X-0.625000X0.350000X0.625000X-0.350000X0.625000X0*%
%ADD24O,1.200000X1.750000*%
G04 APERTURE END LIST*
D10*
X165404761Y-111227142D02*
X165452380Y-111084285D01*
X165452380Y-110846190D01*
X165404761Y-110750952D01*
X165357142Y-110703333D01*
X165261904Y-110655714D01*
X165166666Y-110655714D01*
X165071428Y-110703333D01*
X165023809Y-110750952D01*
X164976190Y-110846190D01*
X164928571Y-111036666D01*
X164880952Y-111131904D01*
X164833333Y-111179523D01*
X164738095Y-111227142D01*
X164642857Y-111227142D01*
X164547619Y-111179523D01*
X164500000Y-111131904D01*
X164452380Y-111036666D01*
X164452380Y-110798571D01*
X164500000Y-110655714D01*
X164452380Y-110322380D02*
X165452380Y-110084285D01*
X164738095Y-109893809D01*
X165452380Y-109703333D01*
X164452380Y-109465238D01*
X160452380Y-111560476D02*
X160452380Y-110941428D01*
X160833333Y-111274761D01*
X160833333Y-111131904D01*
X160880952Y-111036666D01*
X160928571Y-110989047D01*
X161023809Y-110941428D01*
X161261904Y-110941428D01*
X161357142Y-110989047D01*
X161404761Y-111036666D01*
X161452380Y-111131904D01*
X161452380Y-111417619D01*
X161404761Y-111512857D01*
X161357142Y-111560476D01*
X160785714Y-110608095D02*
X161452380Y-110370000D01*
X160785714Y-110131904D01*
X160452380Y-109846190D02*
X160452380Y-109227142D01*
X160833333Y-109560476D01*
X160833333Y-109417619D01*
X160880952Y-109322380D01*
X160928571Y-109274761D01*
X161023809Y-109227142D01*
X161261904Y-109227142D01*
X161357142Y-109274761D01*
X161404761Y-109322380D01*
X161452380Y-109417619D01*
X161452380Y-109703333D01*
X161404761Y-109798571D01*
X161357142Y-109846190D01*
X171452380Y-110084285D02*
X171452380Y-110655714D01*
X171452380Y-110370000D02*
X170452380Y-110370000D01*
X170595238Y-110465238D01*
X170690476Y-110560476D01*
X170738095Y-110655714D01*
X176785714Y-110179523D02*
X177452380Y-110179523D01*
X176404761Y-110417619D02*
X177119047Y-110655714D01*
X177119047Y-110036666D01*
X172547619Y-110655714D02*
X172500000Y-110608095D01*
X172452380Y-110512857D01*
X172452380Y-110274761D01*
X172500000Y-110179523D01*
X172547619Y-110131904D01*
X172642857Y-110084285D01*
X172738095Y-110084285D01*
X172880952Y-110131904D01*
X173452380Y-110703333D01*
X173452380Y-110084285D01*
X178500000Y-111131904D02*
X178452380Y-111227142D01*
X178452380Y-111370000D01*
X178500000Y-111512857D01*
X178595238Y-111608095D01*
X178690476Y-111655714D01*
X178880952Y-111703333D01*
X179023809Y-111703333D01*
X179214285Y-111655714D01*
X179309523Y-111608095D01*
X179404761Y-111512857D01*
X179452380Y-111370000D01*
X179452380Y-111274761D01*
X179404761Y-111131904D01*
X179357142Y-111084285D01*
X179023809Y-111084285D01*
X179023809Y-111274761D01*
X179452380Y-110655714D02*
X178452380Y-110655714D01*
X179452380Y-110084285D01*
X178452380Y-110084285D01*
X179452380Y-109608095D02*
X178452380Y-109608095D01*
X178452380Y-109370000D01*
X178500000Y-109227142D01*
X178595238Y-109131904D01*
X178690476Y-109084285D01*
X178880952Y-109036666D01*
X179023809Y-109036666D01*
X179214285Y-109084285D01*
X179309523Y-109131904D01*
X179404761Y-109227142D01*
X179452380Y-109370000D01*
X179452380Y-109608095D01*
X162500000Y-111131904D02*
X162452380Y-111227142D01*
X162452380Y-111370000D01*
X162500000Y-111512857D01*
X162595238Y-111608095D01*
X162690476Y-111655714D01*
X162880952Y-111703333D01*
X163023809Y-111703333D01*
X163214285Y-111655714D01*
X163309523Y-111608095D01*
X163404761Y-111512857D01*
X163452380Y-111370000D01*
X163452380Y-111274761D01*
X163404761Y-111131904D01*
X163357142Y-111084285D01*
X163023809Y-111084285D01*
X163023809Y-111274761D01*
X163452380Y-110655714D02*
X162452380Y-110655714D01*
X163452380Y-110084285D01*
X162452380Y-110084285D01*
X163452380Y-109608095D02*
X162452380Y-109608095D01*
X162452380Y-109370000D01*
X162500000Y-109227142D01*
X162595238Y-109131904D01*
X162690476Y-109084285D01*
X162880952Y-109036666D01*
X163023809Y-109036666D01*
X163214285Y-109084285D01*
X163309523Y-109131904D01*
X163404761Y-109227142D01*
X163452380Y-109370000D01*
X163452380Y-109608095D01*
X166928571Y-110298571D02*
X166976190Y-110155714D01*
X167023809Y-110108095D01*
X167119047Y-110060476D01*
X167261904Y-110060476D01*
X167357142Y-110108095D01*
X167404761Y-110155714D01*
X167452380Y-110250952D01*
X167452380Y-110631904D01*
X166452380Y-110631904D01*
X166452380Y-110298571D01*
X166500000Y-110203333D01*
X166547619Y-110155714D01*
X166642857Y-110108095D01*
X166738095Y-110108095D01*
X166833333Y-110155714D01*
X166880952Y-110203333D01*
X166928571Y-110298571D01*
X166928571Y-110631904D01*
X169166666Y-110608095D02*
X169166666Y-110131904D01*
X169452380Y-110703333D02*
X168452380Y-110370000D01*
X169452380Y-110036666D01*
X165380952Y-115652380D02*
X165380952Y-116366666D01*
X165333333Y-116509523D01*
X165238095Y-116604761D01*
X165095238Y-116652380D01*
X165000000Y-116652380D01*
X166333333Y-116652380D02*
X165857142Y-116652380D01*
X165857142Y-115652380D01*
X167238095Y-116557142D02*
X167190476Y-116604761D01*
X167047619Y-116652380D01*
X166952380Y-116652380D01*
X166809523Y-116604761D01*
X166714285Y-116509523D01*
X166666666Y-116414285D01*
X166619047Y-116223809D01*
X166619047Y-116080952D01*
X166666666Y-115890476D01*
X166714285Y-115795238D01*
X166809523Y-115700000D01*
X166952380Y-115652380D01*
X167047619Y-115652380D01*
X167190476Y-115700000D01*
X167238095Y-115747619D01*
X167952380Y-115652380D02*
X167952380Y-116366666D01*
X167904761Y-116509523D01*
X167809523Y-116604761D01*
X167666666Y-116652380D01*
X167571428Y-116652380D01*
X168904761Y-116652380D02*
X168428571Y-116652380D01*
X168428571Y-115652380D01*
X169809523Y-116557142D02*
X169761904Y-116604761D01*
X169619047Y-116652380D01*
X169523809Y-116652380D01*
X169380952Y-116604761D01*
X169285714Y-116509523D01*
X169238095Y-116414285D01*
X169190476Y-116223809D01*
X169190476Y-116080952D01*
X169238095Y-115890476D01*
X169285714Y-115795238D01*
X169380952Y-115700000D01*
X169523809Y-115652380D01*
X169619047Y-115652380D01*
X169761904Y-115700000D01*
X169809523Y-115747619D01*
X170523809Y-115652380D02*
X170523809Y-116366666D01*
X170476190Y-116509523D01*
X170380952Y-116604761D01*
X170238095Y-116652380D01*
X170142857Y-116652380D01*
X171476190Y-116652380D02*
X171000000Y-116652380D01*
X171000000Y-115652380D01*
X172380952Y-116557142D02*
X172333333Y-116604761D01*
X172190476Y-116652380D01*
X172095238Y-116652380D01*
X171952380Y-116604761D01*
X171857142Y-116509523D01*
X171809523Y-116414285D01*
X171761904Y-116223809D01*
X171761904Y-116080952D01*
X171809523Y-115890476D01*
X171857142Y-115795238D01*
X171952380Y-115700000D01*
X172095238Y-115652380D01*
X172190476Y-115652380D01*
X172333333Y-115700000D01*
X172380952Y-115747619D01*
X173095238Y-115652380D02*
X173095238Y-116366666D01*
X173047619Y-116509523D01*
X172952380Y-116604761D01*
X172809523Y-116652380D01*
X172714285Y-116652380D01*
X174047619Y-116652380D02*
X173571428Y-116652380D01*
X173571428Y-115652380D01*
X174952380Y-116557142D02*
X174904761Y-116604761D01*
X174761904Y-116652380D01*
X174666666Y-116652380D01*
X174523809Y-116604761D01*
X174428571Y-116509523D01*
X174380952Y-116414285D01*
X174333333Y-116223809D01*
X174333333Y-116080952D01*
X174380952Y-115890476D01*
X174428571Y-115795238D01*
X174523809Y-115700000D01*
X174666666Y-115652380D01*
X174761904Y-115652380D01*
X174904761Y-115700000D01*
X174952380Y-115747619D01*
X174452380Y-110703333D02*
X174452380Y-110084285D01*
X174833333Y-110417619D01*
X174833333Y-110274761D01*
X174880952Y-110179523D01*
X174928571Y-110131904D01*
X175023809Y-110084285D01*
X175261904Y-110084285D01*
X175357142Y-110131904D01*
X175404761Y-110179523D01*
X175452380Y-110274761D01*
X175452380Y-110560476D01*
X175404761Y-110655714D01*
X175357142Y-110703333D01*
X151867142Y-106901666D02*
X151914761Y-106949285D01*
X151962380Y-107092142D01*
X151962380Y-107187380D01*
X151914761Y-107330238D01*
X151819523Y-107425476D01*
X151724285Y-107473095D01*
X151533809Y-107520714D01*
X151390952Y-107520714D01*
X151200476Y-107473095D01*
X151105238Y-107425476D01*
X151010000Y-107330238D01*
X150962380Y-107187380D01*
X150962380Y-107092142D01*
X151010000Y-106949285D01*
X151057619Y-106901666D01*
X151962380Y-105949285D02*
X151962380Y-106520714D01*
X151962380Y-106235000D02*
X150962380Y-106235000D01*
X151105238Y-106330238D01*
X151200476Y-106425476D01*
X151248095Y-106520714D01*
X148797142Y-109276666D02*
X148844761Y-109324285D01*
X148892380Y-109467142D01*
X148892380Y-109562380D01*
X148844761Y-109705238D01*
X148749523Y-109800476D01*
X148654285Y-109848095D01*
X148463809Y-109895714D01*
X148320952Y-109895714D01*
X148130476Y-109848095D01*
X148035238Y-109800476D01*
X147940000Y-109705238D01*
X147892380Y-109562380D01*
X147892380Y-109467142D01*
X147940000Y-109324285D01*
X147987619Y-109276666D01*
X147987619Y-108895714D02*
X147940000Y-108848095D01*
X147892380Y-108752857D01*
X147892380Y-108514761D01*
X147940000Y-108419523D01*
X147987619Y-108371904D01*
X148082857Y-108324285D01*
X148178095Y-108324285D01*
X148320952Y-108371904D01*
X148892380Y-108943333D01*
X148892380Y-108324285D01*
X147472380Y-115128095D02*
X146472380Y-115128095D01*
X146472380Y-114890000D01*
X146520000Y-114747142D01*
X146615238Y-114651904D01*
X146710476Y-114604285D01*
X146900952Y-114556666D01*
X147043809Y-114556666D01*
X147234285Y-114604285D01*
X147329523Y-114651904D01*
X147424761Y-114747142D01*
X147472380Y-114890000D01*
X147472380Y-115128095D01*
X147472380Y-113604285D02*
X147472380Y-114175714D01*
X147472380Y-113890000D02*
X146472380Y-113890000D01*
X146615238Y-113985238D01*
X146710476Y-114080476D01*
X146758095Y-114175714D01*
X149213333Y-117632380D02*
X148737142Y-117632380D01*
X148737142Y-116632380D01*
X150070476Y-117632380D02*
X149499047Y-117632380D01*
X149784761Y-117632380D02*
X149784761Y-116632380D01*
X149689523Y-116775238D01*
X149594285Y-116870476D01*
X149499047Y-116918095D01*
X155747142Y-118892380D02*
X155413809Y-118416190D01*
X155175714Y-118892380D02*
X155175714Y-117892380D01*
X155556666Y-117892380D01*
X155651904Y-117940000D01*
X155699523Y-117987619D01*
X155747142Y-118082857D01*
X155747142Y-118225714D01*
X155699523Y-118320952D01*
X155651904Y-118368571D01*
X155556666Y-118416190D01*
X155175714Y-118416190D01*
X156699523Y-118892380D02*
X156128095Y-118892380D01*
X156413809Y-118892380D02*
X156413809Y-117892380D01*
X156318571Y-118035238D01*
X156223333Y-118130476D01*
X156128095Y-118178095D01*
X157032857Y-117892380D02*
X157651904Y-117892380D01*
X157318571Y-118273333D01*
X157461428Y-118273333D01*
X157556666Y-118320952D01*
X157604285Y-118368571D01*
X157651904Y-118463809D01*
X157651904Y-118701904D01*
X157604285Y-118797142D01*
X157556666Y-118844761D01*
X157461428Y-118892380D01*
X157175714Y-118892380D01*
X157080476Y-118844761D01*
X157032857Y-118797142D01*
X154559523Y-114822380D02*
X155077619Y-114822380D01*
X155138571Y-114791904D01*
X155169047Y-114761428D01*
X155199523Y-114700476D01*
X155199523Y-114578571D01*
X155169047Y-114517619D01*
X155138571Y-114487142D01*
X155077619Y-114456666D01*
X154559523Y-114456666D01*
X155199523Y-113816666D02*
X155199523Y-114182380D01*
X155199523Y-113999523D02*
X154559523Y-113999523D01*
X154650952Y-114060476D01*
X154711904Y-114121428D01*
X154742380Y-114182380D01*
X155199523Y-113511904D02*
X155199523Y-113390000D01*
X155169047Y-113329047D01*
X155138571Y-113298571D01*
X155047142Y-113237619D01*
X154925238Y-113207142D01*
X154681428Y-113207142D01*
X154620476Y-113237619D01*
X154590000Y-113268095D01*
X154559523Y-113329047D01*
X154559523Y-113450952D01*
X154590000Y-113511904D01*
X154620476Y-113542380D01*
X154681428Y-113572857D01*
X154833809Y-113572857D01*
X154894761Y-113542380D01*
X154925238Y-113511904D01*
X154955714Y-113450952D01*
X154955714Y-113329047D01*
X154925238Y-113268095D01*
X154894761Y-113237619D01*
X154833809Y-113207142D01*
X156107142Y-107346666D02*
X156154761Y-107394285D01*
X156202380Y-107537142D01*
X156202380Y-107632380D01*
X156154761Y-107775238D01*
X156059523Y-107870476D01*
X155964285Y-107918095D01*
X155773809Y-107965714D01*
X155630952Y-107965714D01*
X155440476Y-107918095D01*
X155345238Y-107870476D01*
X155250000Y-107775238D01*
X155202380Y-107632380D01*
X155202380Y-107537142D01*
X155250000Y-107394285D01*
X155297619Y-107346666D01*
X155202380Y-107013333D02*
X155202380Y-106394285D01*
X155583333Y-106727619D01*
X155583333Y-106584761D01*
X155630952Y-106489523D01*
X155678571Y-106441904D01*
X155773809Y-106394285D01*
X156011904Y-106394285D01*
X156107142Y-106441904D01*
X156154761Y-106489523D01*
X156202380Y-106584761D01*
X156202380Y-106870476D01*
X156154761Y-106965714D01*
X156107142Y-107013333D01*
X176203333Y-103312380D02*
X175870000Y-102836190D01*
X175631904Y-103312380D02*
X175631904Y-102312380D01*
X176012857Y-102312380D01*
X176108095Y-102360000D01*
X176155714Y-102407619D01*
X176203333Y-102502857D01*
X176203333Y-102645714D01*
X176155714Y-102740952D01*
X176108095Y-102788571D01*
X176012857Y-102836190D01*
X175631904Y-102836190D01*
X176774761Y-102740952D02*
X176679523Y-102693333D01*
X176631904Y-102645714D01*
X176584285Y-102550476D01*
X176584285Y-102502857D01*
X176631904Y-102407619D01*
X176679523Y-102360000D01*
X176774761Y-102312380D01*
X176965238Y-102312380D01*
X177060476Y-102360000D01*
X177108095Y-102407619D01*
X177155714Y-102502857D01*
X177155714Y-102550476D01*
X177108095Y-102645714D01*
X177060476Y-102693333D01*
X176965238Y-102740952D01*
X176774761Y-102740952D01*
X176679523Y-102788571D01*
X176631904Y-102836190D01*
X176584285Y-102931428D01*
X176584285Y-103121904D01*
X176631904Y-103217142D01*
X176679523Y-103264761D01*
X176774761Y-103312380D01*
X176965238Y-103312380D01*
X177060476Y-103264761D01*
X177108095Y-103217142D01*
X177155714Y-103121904D01*
X177155714Y-102931428D01*
X177108095Y-102836190D01*
X177060476Y-102788571D01*
X176965238Y-102740952D01*
X131261904Y-111802380D02*
X131261904Y-110802380D01*
X131500000Y-110802380D01*
X131642857Y-110850000D01*
X131738095Y-110945238D01*
X131785714Y-111040476D01*
X131833333Y-111230952D01*
X131833333Y-111373809D01*
X131785714Y-111564285D01*
X131738095Y-111659523D01*
X131642857Y-111754761D01*
X131500000Y-111802380D01*
X131261904Y-111802380D01*
X132214285Y-110897619D02*
X132261904Y-110850000D01*
X132357142Y-110802380D01*
X132595238Y-110802380D01*
X132690476Y-110850000D01*
X132738095Y-110897619D01*
X132785714Y-110992857D01*
X132785714Y-111088095D01*
X132738095Y-111230952D01*
X132166666Y-111802380D01*
X132785714Y-111802380D01*
X173963333Y-107712380D02*
X173630000Y-107236190D01*
X173391904Y-107712380D02*
X173391904Y-106712380D01*
X173772857Y-106712380D01*
X173868095Y-106760000D01*
X173915714Y-106807619D01*
X173963333Y-106902857D01*
X173963333Y-107045714D01*
X173915714Y-107140952D01*
X173868095Y-107188571D01*
X173772857Y-107236190D01*
X173391904Y-107236190D01*
X174296666Y-106712380D02*
X174963333Y-106712380D01*
X174534761Y-107712380D01*
X163483333Y-103552380D02*
X163150000Y-103076190D01*
X162911904Y-103552380D02*
X162911904Y-102552380D01*
X163292857Y-102552380D01*
X163388095Y-102600000D01*
X163435714Y-102647619D01*
X163483333Y-102742857D01*
X163483333Y-102885714D01*
X163435714Y-102980952D01*
X163388095Y-103028571D01*
X163292857Y-103076190D01*
X162911904Y-103076190D01*
X164340476Y-102552380D02*
X164150000Y-102552380D01*
X164054761Y-102600000D01*
X164007142Y-102647619D01*
X163911904Y-102790476D01*
X163864285Y-102980952D01*
X163864285Y-103361904D01*
X163911904Y-103457142D01*
X163959523Y-103504761D01*
X164054761Y-103552380D01*
X164245238Y-103552380D01*
X164340476Y-103504761D01*
X164388095Y-103457142D01*
X164435714Y-103361904D01*
X164435714Y-103123809D01*
X164388095Y-103028571D01*
X164340476Y-102980952D01*
X164245238Y-102933333D01*
X164054761Y-102933333D01*
X163959523Y-102980952D01*
X163911904Y-103028571D01*
X163864285Y-103123809D01*
X145627142Y-111916666D02*
X145674761Y-111964285D01*
X145722380Y-112107142D01*
X145722380Y-112202380D01*
X145674761Y-112345238D01*
X145579523Y-112440476D01*
X145484285Y-112488095D01*
X145293809Y-112535714D01*
X145150952Y-112535714D01*
X144960476Y-112488095D01*
X144865238Y-112440476D01*
X144770000Y-112345238D01*
X144722380Y-112202380D01*
X144722380Y-112107142D01*
X144770000Y-111964285D01*
X144817619Y-111916666D01*
X145055714Y-111059523D02*
X145722380Y-111059523D01*
X144674761Y-111297619D02*
X145389047Y-111535714D01*
X145389047Y-110916666D01*
X181836666Y-113012380D02*
X181836666Y-113726666D01*
X181789047Y-113869523D01*
X181693809Y-113964761D01*
X181550952Y-114012380D01*
X181455714Y-114012380D01*
X182836666Y-114012380D02*
X182265238Y-114012380D01*
X182550952Y-114012380D02*
X182550952Y-113012380D01*
X182455714Y-113155238D01*
X182360476Y-113250476D01*
X182265238Y-113298095D01*
X160543333Y-103322380D02*
X160210000Y-102846190D01*
X159971904Y-103322380D02*
X159971904Y-102322380D01*
X160352857Y-102322380D01*
X160448095Y-102370000D01*
X160495714Y-102417619D01*
X160543333Y-102512857D01*
X160543333Y-102655714D01*
X160495714Y-102750952D01*
X160448095Y-102798571D01*
X160352857Y-102846190D01*
X159971904Y-102846190D01*
X160876666Y-102322380D02*
X161495714Y-102322380D01*
X161162380Y-102703333D01*
X161305238Y-102703333D01*
X161400476Y-102750952D01*
X161448095Y-102798571D01*
X161495714Y-102893809D01*
X161495714Y-103131904D01*
X161448095Y-103227142D01*
X161400476Y-103274761D01*
X161305238Y-103322380D01*
X161019523Y-103322380D01*
X160924285Y-103274761D01*
X160876666Y-103227142D01*
X173323333Y-106012380D02*
X172990000Y-105536190D01*
X172751904Y-106012380D02*
X172751904Y-105012380D01*
X173132857Y-105012380D01*
X173228095Y-105060000D01*
X173275714Y-105107619D01*
X173323333Y-105202857D01*
X173323333Y-105345714D01*
X173275714Y-105440952D01*
X173228095Y-105488571D01*
X173132857Y-105536190D01*
X172751904Y-105536190D01*
X173799523Y-106012380D02*
X173990000Y-106012380D01*
X174085238Y-105964761D01*
X174132857Y-105917142D01*
X174228095Y-105774285D01*
X174275714Y-105583809D01*
X174275714Y-105202857D01*
X174228095Y-105107619D01*
X174180476Y-105060000D01*
X174085238Y-105012380D01*
X173894761Y-105012380D01*
X173799523Y-105060000D01*
X173751904Y-105107619D01*
X173704285Y-105202857D01*
X173704285Y-105440952D01*
X173751904Y-105536190D01*
X173799523Y-105583809D01*
X173894761Y-105631428D01*
X174085238Y-105631428D01*
X174180476Y-105583809D01*
X174228095Y-105536190D01*
X174275714Y-105440952D01*
X182747142Y-106252380D02*
X182413809Y-105776190D01*
X182175714Y-106252380D02*
X182175714Y-105252380D01*
X182556666Y-105252380D01*
X182651904Y-105300000D01*
X182699523Y-105347619D01*
X182747142Y-105442857D01*
X182747142Y-105585714D01*
X182699523Y-105680952D01*
X182651904Y-105728571D01*
X182556666Y-105776190D01*
X182175714Y-105776190D01*
X183699523Y-106252380D02*
X183128095Y-106252380D01*
X183413809Y-106252380D02*
X183413809Y-105252380D01*
X183318571Y-105395238D01*
X183223333Y-105490476D01*
X183128095Y-105538095D01*
X184651904Y-106252380D02*
X184080476Y-106252380D01*
X184366190Y-106252380D02*
X184366190Y-105252380D01*
X184270952Y-105395238D01*
X184175714Y-105490476D01*
X184080476Y-105538095D01*
X178747142Y-103042380D02*
X178413809Y-102566190D01*
X178175714Y-103042380D02*
X178175714Y-102042380D01*
X178556666Y-102042380D01*
X178651904Y-102090000D01*
X178699523Y-102137619D01*
X178747142Y-102232857D01*
X178747142Y-102375714D01*
X178699523Y-102470952D01*
X178651904Y-102518571D01*
X178556666Y-102566190D01*
X178175714Y-102566190D01*
X179699523Y-103042380D02*
X179128095Y-103042380D01*
X179413809Y-103042380D02*
X179413809Y-102042380D01*
X179318571Y-102185238D01*
X179223333Y-102280476D01*
X179128095Y-102328095D01*
X180318571Y-102042380D02*
X180413809Y-102042380D01*
X180509047Y-102090000D01*
X180556666Y-102137619D01*
X180604285Y-102232857D01*
X180651904Y-102423333D01*
X180651904Y-102661428D01*
X180604285Y-102851904D01*
X180556666Y-102947142D01*
X180509047Y-102994761D01*
X180413809Y-103042380D01*
X180318571Y-103042380D01*
X180223333Y-102994761D01*
X180175714Y-102947142D01*
X180128095Y-102851904D01*
X180080476Y-102661428D01*
X180080476Y-102423333D01*
X180128095Y-102232857D01*
X180175714Y-102137619D01*
X180223333Y-102090000D01*
X180318571Y-102042380D01*
X166563333Y-106252380D02*
X166230000Y-105776190D01*
X165991904Y-106252380D02*
X165991904Y-105252380D01*
X166372857Y-105252380D01*
X166468095Y-105300000D01*
X166515714Y-105347619D01*
X166563333Y-105442857D01*
X166563333Y-105585714D01*
X166515714Y-105680952D01*
X166468095Y-105728571D01*
X166372857Y-105776190D01*
X165991904Y-105776190D01*
X167468095Y-105252380D02*
X166991904Y-105252380D01*
X166944285Y-105728571D01*
X166991904Y-105680952D01*
X167087142Y-105633333D01*
X167325238Y-105633333D01*
X167420476Y-105680952D01*
X167468095Y-105728571D01*
X167515714Y-105823809D01*
X167515714Y-106061904D01*
X167468095Y-106157142D01*
X167420476Y-106204761D01*
X167325238Y-106252380D01*
X167087142Y-106252380D01*
X166991904Y-106204761D01*
X166944285Y-106157142D01*
X166573333Y-107842380D02*
X166240000Y-107366190D01*
X166001904Y-107842380D02*
X166001904Y-106842380D01*
X166382857Y-106842380D01*
X166478095Y-106890000D01*
X166525714Y-106937619D01*
X166573333Y-107032857D01*
X166573333Y-107175714D01*
X166525714Y-107270952D01*
X166478095Y-107318571D01*
X166382857Y-107366190D01*
X166001904Y-107366190D01*
X167430476Y-107175714D02*
X167430476Y-107842380D01*
X167192380Y-106794761D02*
X166954285Y-107509047D01*
X167573333Y-107509047D01*
X157483333Y-107902380D02*
X157150000Y-107426190D01*
X156911904Y-107902380D02*
X156911904Y-106902380D01*
X157292857Y-106902380D01*
X157388095Y-106950000D01*
X157435714Y-106997619D01*
X157483333Y-107092857D01*
X157483333Y-107235714D01*
X157435714Y-107330952D01*
X157388095Y-107378571D01*
X157292857Y-107426190D01*
X156911904Y-107426190D01*
X158435714Y-107902380D02*
X157864285Y-107902380D01*
X158150000Y-107902380D02*
X158150000Y-106902380D01*
X158054761Y-107045238D01*
X157959523Y-107140476D01*
X157864285Y-107188095D01*
X205961904Y-111852380D02*
X205961904Y-110852380D01*
X206200000Y-110852380D01*
X206342857Y-110900000D01*
X206438095Y-110995238D01*
X206485714Y-111090476D01*
X206533333Y-111280952D01*
X206533333Y-111423809D01*
X206485714Y-111614285D01*
X206438095Y-111709523D01*
X206342857Y-111804761D01*
X206200000Y-111852380D01*
X205961904Y-111852380D01*
X206866666Y-110852380D02*
X207485714Y-110852380D01*
X207152380Y-111233333D01*
X207295238Y-111233333D01*
X207390476Y-111280952D01*
X207438095Y-111328571D01*
X207485714Y-111423809D01*
X207485714Y-111661904D01*
X207438095Y-111757142D01*
X207390476Y-111804761D01*
X207295238Y-111852380D01*
X207009523Y-111852380D01*
X206914285Y-111804761D01*
X206866666Y-111757142D01*
X157213333Y-106552380D02*
X156880000Y-106076190D01*
X156641904Y-106552380D02*
X156641904Y-105552380D01*
X157022857Y-105552380D01*
X157118095Y-105600000D01*
X157165714Y-105647619D01*
X157213333Y-105742857D01*
X157213333Y-105885714D01*
X157165714Y-105980952D01*
X157118095Y-106028571D01*
X157022857Y-106076190D01*
X156641904Y-106076190D01*
X157594285Y-105647619D02*
X157641904Y-105600000D01*
X157737142Y-105552380D01*
X157975238Y-105552380D01*
X158070476Y-105600000D01*
X158118095Y-105647619D01*
X158165714Y-105742857D01*
X158165714Y-105838095D01*
X158118095Y-105980952D01*
X157546666Y-106552380D01*
X158165714Y-106552380D01*
X183187142Y-107592380D02*
X182853809Y-107116190D01*
X182615714Y-107592380D02*
X182615714Y-106592380D01*
X182996666Y-106592380D01*
X183091904Y-106640000D01*
X183139523Y-106687619D01*
X183187142Y-106782857D01*
X183187142Y-106925714D01*
X183139523Y-107020952D01*
X183091904Y-107068571D01*
X182996666Y-107116190D01*
X182615714Y-107116190D01*
X184139523Y-107592380D02*
X183568095Y-107592380D01*
X183853809Y-107592380D02*
X183853809Y-106592380D01*
X183758571Y-106735238D01*
X183663333Y-106830476D01*
X183568095Y-106878095D01*
X184520476Y-106687619D02*
X184568095Y-106640000D01*
X184663333Y-106592380D01*
X184901428Y-106592380D01*
X184996666Y-106640000D01*
X185044285Y-106687619D01*
X185091904Y-106782857D01*
X185091904Y-106878095D01*
X185044285Y-107020952D01*
X184472857Y-107592380D01*
X185091904Y-107592380D01*
X154547142Y-107316666D02*
X154594761Y-107364285D01*
X154642380Y-107507142D01*
X154642380Y-107602380D01*
X154594761Y-107745238D01*
X154499523Y-107840476D01*
X154404285Y-107888095D01*
X154213809Y-107935714D01*
X154070952Y-107935714D01*
X153880476Y-107888095D01*
X153785238Y-107840476D01*
X153690000Y-107745238D01*
X153642380Y-107602380D01*
X153642380Y-107507142D01*
X153690000Y-107364285D01*
X153737619Y-107316666D01*
X153642380Y-106411904D02*
X153642380Y-106888095D01*
X154118571Y-106935714D01*
X154070952Y-106888095D01*
X154023333Y-106792857D01*
X154023333Y-106554761D01*
X154070952Y-106459523D01*
X154118571Y-106411904D01*
X154213809Y-106364285D01*
X154451904Y-106364285D01*
X154547142Y-106411904D01*
X154594761Y-106459523D01*
X154642380Y-106554761D01*
X154642380Y-106792857D01*
X154594761Y-106888095D01*
X154547142Y-106935714D01*
D11*
X150795000Y-109068748D02*
X150795000Y-109591252D01*
X152265000Y-109068748D02*
X152265000Y-109591252D01*
X148030000Y-111890580D02*
X148030000Y-111609420D01*
X149050000Y-111890580D02*
X149050000Y-111609420D01*
X149390000Y-113580000D02*
X147690000Y-113580000D01*
X149390000Y-113580000D02*
X149390000Y-116130000D01*
X147690000Y-113580000D02*
X147690000Y-116130000D01*
X149980000Y-116465000D02*
X151005000Y-116465000D01*
X149980000Y-116465000D02*
X149980000Y-115440000D01*
X154200000Y-111695000D02*
X153175000Y-111695000D01*
X149980000Y-111695000D02*
X151005000Y-111695000D01*
X149980000Y-111695000D02*
X149980000Y-112720000D01*
X154200000Y-111695000D02*
X154200000Y-112720000D01*
X154200000Y-116465000D02*
X153175000Y-116465000D01*
X154200000Y-116465000D02*
X154200000Y-115440000D01*
X156957258Y-117742500D02*
X156482742Y-117742500D01*
X156957258Y-116697500D02*
X156482742Y-116697500D01*
D12*
X157810000Y-113505000D02*
X157810000Y-114755000D01*
X155470000Y-114755000D02*
X155470000Y-113505000D01*
D13*
X156090000Y-116230000D02*
G75*
G03*
X156090000Y-116230000I-100000J0D01*
G01*
D11*
X156260000Y-109750580D02*
X156260000Y-109469420D01*
X155240000Y-109750580D02*
X155240000Y-109469420D01*
X176657258Y-104542500D02*
X176182742Y-104542500D01*
X176657258Y-103497500D02*
X176182742Y-103497500D01*
X133000000Y-112040000D02*
X130140000Y-112040000D01*
X130140000Y-112040000D02*
X130140000Y-113960000D01*
X130140000Y-113960000D02*
X133000000Y-113960000D01*
X176667258Y-106417500D02*
X176192742Y-106417500D01*
X176667258Y-107462500D02*
X176192742Y-107462500D01*
X163382742Y-103867500D02*
X163857258Y-103867500D01*
X163382742Y-104912500D02*
X163857258Y-104912500D01*
X147210000Y-111890580D02*
X147210000Y-111609420D01*
X146190000Y-111890580D02*
X146190000Y-111609420D01*
X160200000Y-117100000D02*
X160200000Y-119360000D01*
X179300000Y-117100000D02*
X179300000Y-115500000D01*
X178500000Y-115000000D02*
X178500000Y-119360000D01*
X160700000Y-115500000D02*
X159700000Y-115500000D01*
X180140000Y-113140000D02*
X179860000Y-113140000D01*
X159700000Y-115500000D02*
X159700000Y-117100000D01*
X159700000Y-117100000D02*
X160700000Y-117100000D01*
X158940000Y-113140000D02*
X159860000Y-113140000D01*
X158940000Y-111540000D02*
X158940000Y-119360000D01*
X179300000Y-115500000D02*
X180300000Y-115500000D01*
X180300000Y-115500000D02*
X180300000Y-117100000D01*
X161500000Y-115000000D02*
X178500000Y-115000000D01*
X181060000Y-111540000D02*
X180140000Y-111540000D01*
X159860000Y-111540000D02*
X158940000Y-111540000D01*
X160700000Y-117100000D02*
X160700000Y-115500000D01*
X159860000Y-113140000D02*
X159860000Y-111540000D01*
X181060000Y-119360000D02*
X181060000Y-111540000D01*
X160700000Y-117100000D02*
X160700000Y-119360000D01*
X160140000Y-113140000D02*
X159860000Y-113140000D01*
X161500000Y-119360000D02*
X161500000Y-115000000D01*
X180140000Y-111540000D02*
X180140000Y-113140000D01*
X158940000Y-119360000D02*
X181060000Y-119360000D01*
X180300000Y-117100000D02*
X179300000Y-117100000D01*
X160140000Y-113140000D02*
X160140000Y-111925000D01*
X181060000Y-113140000D02*
X180140000Y-113140000D01*
X160897258Y-104912500D02*
X160422742Y-104912500D01*
X160897258Y-103867500D02*
X160422742Y-103867500D01*
X176667258Y-104957500D02*
X176192742Y-104957500D01*
X176667258Y-106002500D02*
X176192742Y-106002500D01*
X179152742Y-106002500D02*
X179627258Y-106002500D01*
X179152742Y-104957500D02*
X179627258Y-104957500D01*
X179152742Y-103497500D02*
X179627258Y-103497500D01*
X179152742Y-104542500D02*
X179627258Y-104542500D01*
X163382742Y-105337500D02*
X163857258Y-105337500D01*
X163382742Y-106382500D02*
X163857258Y-106382500D01*
X163382742Y-107842500D02*
X163857258Y-107842500D01*
X163382742Y-106797500D02*
X163857258Y-106797500D01*
X160897258Y-106797500D02*
X160422742Y-106797500D01*
X160897258Y-107842500D02*
X160422742Y-107842500D01*
X206140000Y-113960000D02*
X209000000Y-113960000D01*
X206140000Y-112040000D02*
X206140000Y-113960000D01*
X209000000Y-112040000D02*
X206140000Y-112040000D01*
X160897258Y-106382500D02*
X160422742Y-106382500D01*
X160897258Y-105337500D02*
X160422742Y-105337500D01*
X179152742Y-106417500D02*
X179627258Y-106417500D01*
X179152742Y-107462500D02*
X179627258Y-107462500D01*
X153680000Y-109750580D02*
X153680000Y-109469420D01*
X154700000Y-109750580D02*
X154700000Y-109469420D01*
%LPC*%
D14*
X151530000Y-108380000D03*
X151530000Y-110280000D03*
D15*
X148540000Y-112525000D03*
X148540000Y-110975000D03*
D16*
X148540000Y-114030000D03*
X148540000Y-116130000D03*
D17*
X152090000Y-112555000D03*
X152090000Y-115605000D03*
D18*
X157545000Y-117220000D03*
X155895000Y-117220000D03*
D19*
X155990000Y-115090000D03*
X156640000Y-115090000D03*
X157290000Y-115090000D03*
X157290000Y-113170000D03*
X155990000Y-113170000D03*
D20*
X145000000Y-116000000D03*
X195000000Y-116000000D03*
D15*
X155750000Y-110385000D03*
X155750000Y-108835000D03*
D18*
X177245000Y-104020000D03*
X175595000Y-104020000D03*
D21*
X130975000Y-113000000D03*
X133025000Y-113000000D03*
D18*
X177255000Y-106940000D03*
X175605000Y-106940000D03*
D22*
X162795000Y-104390000D03*
X164445000Y-104390000D03*
D15*
X146700000Y-112525000D03*
X146700000Y-110975000D03*
D23*
X161000000Y-113000000D03*
D24*
X163000000Y-113000000D03*
X165000000Y-113000000D03*
X167000000Y-113000000D03*
X169000000Y-113000000D03*
X171000000Y-113000000D03*
X173000000Y-113000000D03*
X175000000Y-113000000D03*
X177000000Y-113000000D03*
X179000000Y-113000000D03*
D18*
X161485000Y-104390000D03*
X159835000Y-104390000D03*
X177255000Y-105480000D03*
X175605000Y-105480000D03*
D22*
X178565000Y-105480000D03*
X180215000Y-105480000D03*
X178565000Y-104020000D03*
X180215000Y-104020000D03*
X162795000Y-105860000D03*
X164445000Y-105860000D03*
X162795000Y-107320000D03*
X164445000Y-107320000D03*
D18*
X161485000Y-107320000D03*
X159835000Y-107320000D03*
D21*
X206975000Y-113000000D03*
X209025000Y-113000000D03*
D18*
X161485000Y-105860000D03*
X159835000Y-105860000D03*
D22*
X178565000Y-106940000D03*
X180215000Y-106940000D03*
D15*
X154190000Y-110385000D03*
X154190000Y-108835000D03*
M02*
