%TF.GenerationSoftware,KiCad,Pcbnew,(6.0.6)*%
%TF.CreationDate,2022-07-17T20:06:37+03:00*%
%TF.ProjectId,Sensor,53656e73-6f72-42e6-9b69-6361645f7063,rev?*%
%TF.SameCoordinates,Original*%
%TF.FileFunction,Copper,L1,Top*%
%TF.FilePolarity,Positive*%
%FSLAX46Y46*%
G04 Gerber Fmt 4.6, Leading zero omitted, Abs format (unit mm)*
G04 Created by KiCad (PCBNEW (6.0.6)) date 2022-07-17 20:06:37*
%MOMM*%
%LPD*%
G01*
G04 APERTURE LIST*
G04 Aperture macros list*
%AMRoundRect*
0 Rectangle with rounded corners*
0 $1 Rounding radius*
0 $2 $3 $4 $5 $6 $7 $8 $9 X,Y pos of 4 corners*
0 Add a 4 corners polygon primitive as box body*
4,1,4,$2,$3,$4,$5,$6,$7,$8,$9,$2,$3,0*
0 Add four circle primitives for the rounded corners*
1,1,$1+$1,$2,$3*
1,1,$1+$1,$4,$5*
1,1,$1+$1,$6,$7*
1,1,$1+$1,$8,$9*
0 Add four rect primitives between the rounded corners*
20,1,$1+$1,$2,$3,$4,$5,0*
20,1,$1+$1,$4,$5,$6,$7,0*
20,1,$1+$1,$6,$7,$8,$9,0*
20,1,$1+$1,$8,$9,$2,$3,0*%
G04 Aperture macros list end*
%TA.AperFunction,SMDPad,CuDef*%
%ADD10RoundRect,0.250000X-0.475000X0.250000X-0.475000X-0.250000X0.475000X-0.250000X0.475000X0.250000X0*%
%TD*%
%TA.AperFunction,SMDPad,CuDef*%
%ADD11RoundRect,0.225000X0.250000X-0.225000X0.250000X0.225000X-0.250000X0.225000X-0.250000X-0.225000X0*%
%TD*%
%TA.AperFunction,SMDPad,CuDef*%
%ADD12R,0.450000X0.600000*%
%TD*%
%TA.AperFunction,SMDPad,CuDef*%
%ADD13R,3.600000X1.500000*%
%TD*%
%TA.AperFunction,SMDPad,CuDef*%
%ADD14RoundRect,0.200000X0.200000X0.275000X-0.200000X0.275000X-0.200000X-0.275000X0.200000X-0.275000X0*%
%TD*%
%TA.AperFunction,SMDPad,CuDef*%
%ADD15RoundRect,0.020000X0.180000X-0.575000X0.180000X0.575000X-0.180000X0.575000X-0.180000X-0.575000X0*%
%TD*%
%TA.AperFunction,SMDPad,CuDef*%
%ADD16RoundRect,0.250000X-0.325000X-0.450000X0.325000X-0.450000X0.325000X0.450000X-0.325000X0.450000X0*%
%TD*%
%TA.AperFunction,SMDPad,CuDef*%
%ADD17RoundRect,0.200000X-0.200000X-0.275000X0.200000X-0.275000X0.200000X0.275000X-0.200000X0.275000X0*%
%TD*%
%TA.AperFunction,ComponentPad*%
%ADD18RoundRect,0.250000X-0.350000X-0.625000X0.350000X-0.625000X0.350000X0.625000X-0.350000X0.625000X0*%
%TD*%
%TA.AperFunction,ComponentPad*%
%ADD19O,1.200000X1.750000*%
%TD*%
%TA.AperFunction,ViaPad*%
%ADD20C,0.800000*%
%TD*%
%TA.AperFunction,Conductor*%
%ADD21C,0.300000*%
%TD*%
%TA.AperFunction,Conductor*%
%ADD22C,0.800000*%
%TD*%
%TA.AperFunction,Conductor*%
%ADD23C,0.350000*%
%TD*%
%TA.AperFunction,Conductor*%
%ADD24C,1.000000*%
%TD*%
G04 APERTURE END LIST*
D10*
X151530000Y-108380000D03*
X151530000Y-110280000D03*
D11*
X148540000Y-112525000D03*
X148540000Y-110975000D03*
D12*
X148540000Y-114030000D03*
X148540000Y-116130000D03*
D13*
X152090000Y-112555000D03*
X152090000Y-115605000D03*
D14*
X157545000Y-117220000D03*
X155895000Y-117220000D03*
D15*
X155990000Y-115090000D03*
X156640000Y-115090000D03*
X157290000Y-115090000D03*
X157290000Y-113170000D03*
X155990000Y-113170000D03*
D11*
X155750000Y-110385000D03*
X155750000Y-108835000D03*
D14*
X177245000Y-104020000D03*
X175595000Y-104020000D03*
D16*
X130975000Y-113000000D03*
X133025000Y-113000000D03*
D14*
X177255000Y-106940000D03*
X175605000Y-106940000D03*
D17*
X162795000Y-104390000D03*
X164445000Y-104390000D03*
D11*
X146700000Y-112525000D03*
X146700000Y-110975000D03*
D18*
X161000000Y-113000000D03*
D19*
X163000000Y-113000000D03*
X165000000Y-113000000D03*
X167000000Y-113000000D03*
X169000000Y-113000000D03*
X171000000Y-113000000D03*
X173000000Y-113000000D03*
X175000000Y-113000000D03*
X177000000Y-113000000D03*
X179000000Y-113000000D03*
D14*
X161485000Y-104390000D03*
X159835000Y-104390000D03*
X177255000Y-105480000D03*
X175605000Y-105480000D03*
D17*
X178565000Y-105480000D03*
X180215000Y-105480000D03*
X178565000Y-104020000D03*
X180215000Y-104020000D03*
X162795000Y-105860000D03*
X164445000Y-105860000D03*
X162795000Y-107320000D03*
X164445000Y-107320000D03*
D14*
X161485000Y-107320000D03*
X159835000Y-107320000D03*
D16*
X206975000Y-113000000D03*
X209025000Y-113000000D03*
D14*
X161485000Y-105860000D03*
X159835000Y-105860000D03*
D17*
X178565000Y-106940000D03*
X180215000Y-106940000D03*
D11*
X154190000Y-110385000D03*
X154190000Y-108835000D03*
D20*
X173510000Y-103800000D03*
X160762244Y-103782859D03*
X168440000Y-102530000D03*
X181310000Y-101670000D03*
X188082000Y-110440000D03*
X144870000Y-109740000D03*
X141116666Y-109740000D03*
X184920000Y-113460000D03*
X185650000Y-102880000D03*
X142420000Y-105060000D03*
X208630000Y-117380000D03*
X157830000Y-101670000D03*
X131290000Y-115430000D03*
X135560000Y-117380000D03*
X199300000Y-107670000D03*
X198528000Y-110440000D03*
X154760000Y-101680000D03*
X182920000Y-113460000D03*
X149990000Y-103030000D03*
X127020000Y-115430000D03*
X127020000Y-117380000D03*
X203920000Y-107710000D03*
X212900000Y-115430000D03*
X153020000Y-108840000D03*
X135560000Y-115430000D03*
X178200000Y-101660000D03*
X200090000Y-115430000D03*
X182920000Y-111460000D03*
X195046000Y-110440000D03*
X190760000Y-107670000D03*
X184920000Y-111460000D03*
X145530000Y-106720000D03*
X170440000Y-102530000D03*
X150320000Y-117250000D03*
X202010000Y-110440000D03*
X184920000Y-115460000D03*
X164080000Y-101980000D03*
X154730000Y-117250000D03*
X133610000Y-109740000D03*
X186920000Y-115460000D03*
X156940000Y-108840000D03*
X182920000Y-115460000D03*
X208630000Y-115430000D03*
X134990000Y-107730000D03*
X188920000Y-113460000D03*
X169860000Y-108880000D03*
X173430000Y-100960000D03*
X195030000Y-107670000D03*
X137363333Y-109740000D03*
X170390000Y-100980000D03*
X185160000Y-105170000D03*
X204360000Y-115430000D03*
X140940000Y-106700000D03*
X200090000Y-117380000D03*
X139830000Y-117380000D03*
X204360000Y-117380000D03*
X168440000Y-104530000D03*
X165570000Y-100980000D03*
X186920000Y-113460000D03*
X139830000Y-115430000D03*
X208100000Y-110500000D03*
X196640000Y-105060000D03*
X170440000Y-104530000D03*
X192430000Y-105170000D03*
X188795000Y-105170000D03*
X212900000Y-117380000D03*
X205492000Y-110440000D03*
X165580000Y-108610000D03*
X148520000Y-104050000D03*
X151790000Y-117250000D03*
X131290000Y-117380000D03*
X149400000Y-110120000D03*
X153260000Y-117250000D03*
X186490000Y-107670000D03*
X150140000Y-108380000D03*
X189110000Y-103010000D03*
X191564000Y-110440000D03*
X127900000Y-111060000D03*
X181925000Y-107325000D03*
X181620000Y-105540000D03*
X182565000Y-104725000D03*
X174745000Y-106025000D03*
X174650000Y-104820000D03*
X171680000Y-106940000D03*
X166862500Y-103847500D03*
X165480000Y-105110000D03*
X165480000Y-107010000D03*
X158444526Y-105065474D03*
X158795000Y-106025000D03*
X158745000Y-107325000D03*
X158430000Y-113110000D03*
X127950000Y-109260000D03*
X212110000Y-109300000D03*
X174560000Y-108630000D03*
X171490000Y-109240000D03*
D21*
X176500000Y-103090000D02*
X177245000Y-103835000D01*
D22*
X162660000Y-115620000D02*
X179880000Y-115620000D01*
D21*
X160877859Y-103782859D02*
X161485000Y-104390000D01*
D22*
X179880000Y-115620000D02*
X181440000Y-114060000D01*
D21*
X174220000Y-103090000D02*
X176500000Y-103090000D01*
D22*
X181440000Y-114060000D02*
X181440000Y-112200000D01*
D21*
X173510000Y-103800000D02*
X174220000Y-103090000D01*
X160762244Y-103782859D02*
X160877859Y-103782859D01*
X177245000Y-103835000D02*
X177245000Y-104020000D01*
D22*
X177890000Y-108650000D02*
X177890000Y-104130000D01*
X161000000Y-113960000D02*
X162660000Y-115620000D01*
X161000000Y-113000000D02*
X161000000Y-113960000D01*
X181440000Y-112200000D02*
X177890000Y-108650000D01*
X148540000Y-112525000D02*
X146700000Y-112525000D01*
X146700000Y-112525000D02*
X133500000Y-112525000D01*
X133500000Y-112525000D02*
X133025000Y-113000000D01*
X148540000Y-114030000D02*
X148540000Y-112525000D01*
D21*
X180215000Y-106940000D02*
X181540000Y-106940000D01*
X181540000Y-106940000D02*
X181925000Y-107325000D01*
X180215000Y-105480000D02*
X181560000Y-105480000D01*
X181560000Y-105480000D02*
X181620000Y-105540000D01*
X181860000Y-104020000D02*
X182565000Y-104725000D01*
X180215000Y-104020000D02*
X181860000Y-104020000D01*
X175605000Y-105480000D02*
X175290000Y-105480000D01*
X175290000Y-105480000D02*
X174745000Y-106025000D01*
X175595000Y-104020000D02*
X175450000Y-104020000D01*
X175450000Y-104020000D02*
X174650000Y-104820000D01*
X175605000Y-106940000D02*
X171680000Y-106940000D01*
X164445000Y-104390000D02*
X164987500Y-103847500D01*
X164987500Y-103847500D02*
X166862500Y-103847500D01*
X164730000Y-105860000D02*
X165480000Y-105110000D01*
X164445000Y-105860000D02*
X164730000Y-105860000D01*
X164445000Y-107320000D02*
X165170000Y-107320000D01*
X165170000Y-107320000D02*
X165480000Y-107010000D01*
X159835000Y-104390000D02*
X159120000Y-104390000D01*
X159120000Y-104390000D02*
X158444526Y-105065474D01*
X159835000Y-105860000D02*
X158960000Y-105860000D01*
X158960000Y-105860000D02*
X158795000Y-106025000D01*
X159835000Y-107320000D02*
X158750000Y-107320000D01*
X158750000Y-107320000D02*
X158745000Y-107325000D01*
X157290000Y-113170000D02*
X158370000Y-113170000D01*
X158370000Y-113170000D02*
X158430000Y-113110000D01*
D23*
X157580000Y-115380000D02*
X157580000Y-117185000D01*
D24*
X192220000Y-113000000D02*
X188000000Y-117220000D01*
X188000000Y-117220000D02*
X157545000Y-117220000D01*
D23*
X157290000Y-115090000D02*
X157580000Y-115380000D01*
D24*
X206975000Y-113000000D02*
X192220000Y-113000000D01*
X130975000Y-112285000D02*
X127950000Y-109260000D01*
X130975000Y-113000000D02*
X130975000Y-112285000D01*
X209025000Y-113000000D02*
X209025000Y-112385000D01*
X209025000Y-112385000D02*
X212110000Y-109300000D01*
D21*
X169000000Y-113000000D02*
X169000000Y-112850000D01*
X173220000Y-108630000D02*
X174560000Y-108630000D01*
X169000000Y-112850000D02*
X173220000Y-108630000D01*
X170760000Y-109240000D02*
X167000000Y-113000000D01*
X171490000Y-109240000D02*
X170760000Y-109240000D01*
%TA.AperFunction,Conductor*%
G36*
X156789500Y-115702554D02*
G01*
X156795645Y-115749231D01*
X156840000Y-115844350D01*
X156840000Y-115940000D01*
X156320000Y-116650000D01*
X156320000Y-118270000D01*
X149750000Y-118270000D01*
X149750000Y-116715500D01*
X154024000Y-116715500D01*
X154027346Y-116715140D01*
X154027351Y-116715140D01*
X154085573Y-116708881D01*
X154085580Y-116708880D01*
X154088937Y-116708519D01*
X154092238Y-116707801D01*
X154139277Y-116697569D01*
X154139292Y-116697565D01*
X154141279Y-116697133D01*
X154143242Y-116696570D01*
X154143250Y-116696568D01*
X154171916Y-116688347D01*
X154171919Y-116688346D01*
X154179488Y-116686175D01*
X154195425Y-116676854D01*
X154271380Y-116632433D01*
X154271384Y-116632430D01*
X154276401Y-116629496D01*
X154330057Y-116583003D01*
X154372238Y-116538267D01*
X154376320Y-116530239D01*
X154376322Y-116530236D01*
X154420484Y-116443381D01*
X154420485Y-116443377D01*
X154423123Y-116438190D01*
X154443125Y-116370069D01*
X154446164Y-116348937D01*
X154454858Y-116288463D01*
X154455500Y-116284000D01*
X154455500Y-116141500D01*
X154475502Y-116073379D01*
X154529158Y-116026886D01*
X154581500Y-116015500D01*
X156013500Y-116015500D01*
X156016846Y-116015140D01*
X156016851Y-116015140D01*
X156075073Y-116008881D01*
X156075080Y-116008880D01*
X156078437Y-116008519D01*
X156081738Y-116007801D01*
X156128777Y-115997569D01*
X156128792Y-115997565D01*
X156130779Y-115997133D01*
X156132742Y-115996570D01*
X156132750Y-115996568D01*
X156154319Y-115990382D01*
X156189054Y-115985500D01*
X156207554Y-115985500D01*
X156254231Y-115979355D01*
X156356667Y-115931588D01*
X156436588Y-115851667D01*
X156484355Y-115749231D01*
X156490500Y-115702554D01*
X156490500Y-114480000D01*
X156789500Y-114480000D01*
X156789500Y-115702554D01*
G37*
%TD.AperFunction*%
%TA.AperFunction,Conductor*%
G36*
X162831408Y-103910395D02*
G01*
X162878260Y-103963738D01*
X162890000Y-104016848D01*
X162890000Y-108132547D01*
X162878581Y-108184962D01*
X161658870Y-110851307D01*
X161600000Y-110980000D01*
X159590000Y-110990000D01*
X159883169Y-110530000D01*
X161400000Y-108150000D01*
X161400000Y-104025157D01*
X161420002Y-103957036D01*
X161473658Y-103910543D01*
X161525154Y-103899160D01*
X162763155Y-103890851D01*
X162831408Y-103910395D01*
G37*
%TD.AperFunction*%
%TA.AperFunction,Conductor*%
G36*
X170988733Y-97909290D02*
G01*
X172960999Y-97948112D01*
X172963393Y-97948184D01*
X174934439Y-98025809D01*
X174936867Y-98025929D01*
X175901722Y-98082964D01*
X176905964Y-98142328D01*
X176908438Y-98142498D01*
X178071587Y-98234257D01*
X178874960Y-98297634D01*
X178877394Y-98297850D01*
X180840356Y-98491646D01*
X180842798Y-98491911D01*
X182801691Y-98724314D01*
X182804139Y-98724629D01*
X184758037Y-98995533D01*
X184760382Y-98995882D01*
X186708622Y-99305195D01*
X186710975Y-99305592D01*
X188652676Y-99653173D01*
X188655054Y-99653622D01*
X190589640Y-100039368D01*
X190592003Y-100039863D01*
X192518600Y-100463604D01*
X192520926Y-100464140D01*
X194280031Y-100887500D01*
X194438734Y-100925695D01*
X194441119Y-100926294D01*
X195120762Y-101104082D01*
X196349458Y-101425498D01*
X196351850Y-101426149D01*
X198249986Y-101962810D01*
X198252364Y-101963507D01*
X200139628Y-102537438D01*
X200141941Y-102538167D01*
X200572818Y-102678521D01*
X202017496Y-103149112D01*
X202019846Y-103149903D01*
X203883004Y-103797638D01*
X203885338Y-103798475D01*
X204299653Y-103951717D01*
X205735438Y-104482769D01*
X205737657Y-104483614D01*
X207573980Y-105204205D01*
X207576266Y-105205129D01*
X209283164Y-105914007D01*
X209397955Y-105961680D01*
X209400233Y-105962653D01*
X211206700Y-106754915D01*
X211208893Y-106755903D01*
X211758596Y-107010000D01*
X212999415Y-107583563D01*
X213001656Y-107584625D01*
X214428609Y-108278630D01*
X214481120Y-108326412D01*
X214499500Y-108391940D01*
X214499500Y-118373500D01*
X214479498Y-118441621D01*
X214425842Y-118488114D01*
X214373500Y-118499500D01*
X125626500Y-118499500D01*
X125558379Y-118479498D01*
X125511886Y-118425842D01*
X125500500Y-118373500D01*
X125500500Y-116054288D01*
X143445404Y-116054288D01*
X143445985Y-116059308D01*
X143445985Y-116059312D01*
X143464186Y-116216621D01*
X143474081Y-116302140D01*
X143475460Y-116307011D01*
X143475460Y-116307014D01*
X143490293Y-116359432D01*
X143542017Y-116542219D01*
X143580811Y-116625414D01*
X143632888Y-116737093D01*
X143647462Y-116768348D01*
X143787706Y-116974710D01*
X143959138Y-117155994D01*
X144157349Y-117307538D01*
X144377239Y-117425443D01*
X144613152Y-117506674D01*
X144741099Y-117528774D01*
X144855107Y-117548467D01*
X144855113Y-117548468D01*
X144859017Y-117549142D01*
X144862978Y-117549322D01*
X144862979Y-117549322D01*
X144887503Y-117550436D01*
X144887522Y-117550436D01*
X144888922Y-117550500D01*
X145062691Y-117550500D01*
X145065199Y-117550298D01*
X145065204Y-117550298D01*
X145243661Y-117535940D01*
X145243666Y-117535939D01*
X145248702Y-117535534D01*
X145253610Y-117534329D01*
X145253613Y-117534328D01*
X145486092Y-117477225D01*
X145491006Y-117476018D01*
X145495658Y-117474043D01*
X145495662Y-117474042D01*
X145716022Y-117380505D01*
X145716023Y-117380505D01*
X145720677Y-117378529D01*
X145931808Y-117245573D01*
X146029923Y-117159073D01*
X146115168Y-117083920D01*
X146115171Y-117083917D01*
X146118965Y-117080572D01*
X146277334Y-116887770D01*
X146402840Y-116672128D01*
X146492255Y-116439195D01*
X146494025Y-116430727D01*
X146540839Y-116206636D01*
X146543278Y-116194961D01*
X146543713Y-116185397D01*
X146551931Y-116004405D01*
X146554596Y-115945712D01*
X146548374Y-115891930D01*
X146526501Y-115702890D01*
X146525919Y-115697860D01*
X146457983Y-115457781D01*
X146384744Y-115300718D01*
X146354675Y-115236234D01*
X146354673Y-115236230D01*
X146352538Y-115231652D01*
X146212294Y-115025290D01*
X146040862Y-114844006D01*
X146005327Y-114816837D01*
X145846677Y-114695540D01*
X145846676Y-114695539D01*
X145842651Y-114692462D01*
X145622761Y-114574557D01*
X145386848Y-114493326D01*
X145256418Y-114470797D01*
X145144893Y-114451533D01*
X145144887Y-114451532D01*
X145140983Y-114450858D01*
X145137022Y-114450678D01*
X145137021Y-114450678D01*
X145112497Y-114449564D01*
X145112478Y-114449564D01*
X145111078Y-114449500D01*
X144937309Y-114449500D01*
X144934801Y-114449702D01*
X144934796Y-114449702D01*
X144756339Y-114464060D01*
X144756334Y-114464061D01*
X144751298Y-114464466D01*
X144746390Y-114465671D01*
X144746387Y-114465672D01*
X144618331Y-114497126D01*
X144508994Y-114523982D01*
X144504342Y-114525957D01*
X144504338Y-114525958D01*
X144283978Y-114619495D01*
X144279323Y-114621471D01*
X144068192Y-114754427D01*
X144064398Y-114757772D01*
X143884832Y-114916080D01*
X143884829Y-114916083D01*
X143881035Y-114919428D01*
X143722666Y-115112230D01*
X143597160Y-115327872D01*
X143507745Y-115560805D01*
X143456722Y-115805039D01*
X143445404Y-116054288D01*
X125500500Y-116054288D01*
X125500500Y-109333653D01*
X126947040Y-109333653D01*
X126957868Y-109395061D01*
X126980893Y-109525636D01*
X126982336Y-109533821D01*
X127057160Y-109722805D01*
X127060659Y-109728152D01*
X127161556Y-109882339D01*
X127168455Y-109892882D01*
X127172917Y-109897838D01*
X127174097Y-109899018D01*
X129862595Y-112587515D01*
X129896621Y-112649827D01*
X129899500Y-112676610D01*
X129899500Y-113499866D01*
X129899837Y-113503112D01*
X129899837Y-113503116D01*
X129909515Y-113596383D01*
X129910359Y-113604519D01*
X129912540Y-113611055D01*
X129912540Y-113611057D01*
X129937877Y-113687001D01*
X129965744Y-113770529D01*
X130057834Y-113919345D01*
X130181689Y-114042984D01*
X130330666Y-114134814D01*
X130337614Y-114137119D01*
X130337615Y-114137119D01*
X130490241Y-114187744D01*
X130490243Y-114187745D01*
X130496772Y-114189910D01*
X130600134Y-114200500D01*
X131349866Y-114200500D01*
X131353112Y-114200163D01*
X131353116Y-114200163D01*
X131447661Y-114190353D01*
X131447665Y-114190352D01*
X131454519Y-114189641D01*
X131461055Y-114187460D01*
X131461057Y-114187460D01*
X131613581Y-114136574D01*
X131620529Y-114134256D01*
X131769345Y-114042166D01*
X131801691Y-114009764D01*
X131887812Y-113923492D01*
X131887813Y-113923491D01*
X131892984Y-113918311D01*
X131896825Y-113912079D01*
X131901188Y-113906555D01*
X131959105Y-113865492D01*
X132030028Y-113862260D01*
X132091439Y-113897885D01*
X132099021Y-113907715D01*
X132099437Y-113907385D01*
X132103980Y-113913117D01*
X132107834Y-113919345D01*
X132231689Y-114042984D01*
X132380666Y-114134814D01*
X132387614Y-114137119D01*
X132387615Y-114137119D01*
X132540241Y-114187744D01*
X132540243Y-114187745D01*
X132546772Y-114189910D01*
X132650134Y-114200500D01*
X133399866Y-114200500D01*
X133403112Y-114200163D01*
X133403116Y-114200163D01*
X133497661Y-114190353D01*
X133497665Y-114190352D01*
X133504519Y-114189641D01*
X133511055Y-114187460D01*
X133511057Y-114187460D01*
X133663581Y-114136574D01*
X133670529Y-114134256D01*
X133819345Y-114042166D01*
X133851691Y-114009764D01*
X133937813Y-113923491D01*
X133942984Y-113918311D01*
X133948359Y-113909592D01*
X133977534Y-113862260D01*
X134034814Y-113769334D01*
X134042836Y-113745148D01*
X134087744Y-113609759D01*
X134087745Y-113609757D01*
X134089910Y-113603228D01*
X134096526Y-113538657D01*
X134123368Y-113472930D01*
X134181483Y-113432148D01*
X134221870Y-113425500D01*
X146161644Y-113425500D01*
X146201312Y-113431907D01*
X146301876Y-113465263D01*
X146308712Y-113465963D01*
X146308715Y-113465964D01*
X146358797Y-113471095D01*
X146401793Y-113475500D01*
X146697700Y-113475500D01*
X146998206Y-113475499D01*
X147001450Y-113475162D01*
X147001458Y-113475162D01*
X147045880Y-113470553D01*
X147099372Y-113465003D01*
X147198367Y-113431976D01*
X147238243Y-113425500D01*
X147513500Y-113425500D01*
X147581621Y-113445502D01*
X147628114Y-113499158D01*
X147639500Y-113551500D01*
X147639500Y-114077192D01*
X147645556Y-114134814D01*
X147653057Y-114206179D01*
X147654326Y-114218256D01*
X147712821Y-114398284D01*
X147716124Y-114404006D01*
X147716125Y-114404007D01*
X147767196Y-114492465D01*
X147807467Y-114562216D01*
X147811885Y-114567123D01*
X147811886Y-114567124D01*
X147922587Y-114690069D01*
X147934129Y-114702888D01*
X148087270Y-114814151D01*
X148260197Y-114891144D01*
X148266659Y-114892518D01*
X148272941Y-114894559D01*
X148272109Y-114897121D01*
X148324059Y-114925160D01*
X148358387Y-114987306D01*
X148353667Y-115058146D01*
X148311397Y-115115188D01*
X148287586Y-115129372D01*
X148188537Y-115174445D01*
X148184439Y-115176310D01*
X148063038Y-115254156D01*
X148009229Y-115300718D01*
X148006274Y-115304126D01*
X148006272Y-115304128D01*
X147985684Y-115327872D01*
X147914748Y-115409681D01*
X147854978Y-115540559D01*
X147834976Y-115608680D01*
X147814500Y-115751095D01*
X147814500Y-116284000D01*
X147814501Y-116284007D01*
X147814501Y-116477376D01*
X147814870Y-116480770D01*
X147814870Y-116480776D01*
X147815896Y-116490217D01*
X147821149Y-116538580D01*
X147871474Y-116672824D01*
X147876854Y-116680003D01*
X147876856Y-116680006D01*
X147914895Y-116730760D01*
X147957454Y-116787546D01*
X147964635Y-116792928D01*
X148064994Y-116868144D01*
X148064997Y-116868146D01*
X148072176Y-116873526D01*
X148125879Y-116893658D01*
X148199025Y-116921079D01*
X148199027Y-116921079D01*
X148206420Y-116923851D01*
X148214270Y-116924704D01*
X148214271Y-116924704D01*
X148264217Y-116930130D01*
X148267623Y-116930500D01*
X148539960Y-116930500D01*
X148812376Y-116930499D01*
X148815770Y-116930130D01*
X148815776Y-116930130D01*
X148865721Y-116924705D01*
X148865724Y-116924704D01*
X148873580Y-116923851D01*
X148880982Y-116921076D01*
X148888662Y-116919250D01*
X148889049Y-116920876D01*
X148918696Y-116915500D01*
X149750000Y-116915500D01*
X149750000Y-118270000D01*
X156320000Y-118270000D01*
X156320000Y-117944674D01*
X156329173Y-117941235D01*
X156344767Y-117932697D01*
X156445009Y-117857570D01*
X156457570Y-117845009D01*
X156500735Y-117787414D01*
X156557594Y-117744899D01*
X156628412Y-117739873D01*
X156690706Y-117773933D01*
X156709337Y-117797708D01*
X156789703Y-117930408D01*
X156909592Y-118050297D01*
X157054617Y-118138127D01*
X157061864Y-118140398D01*
X157061866Y-118140399D01*
X157127106Y-118160844D01*
X157216406Y-118188829D01*
X157289007Y-118195500D01*
X157308863Y-118195500D01*
X157334629Y-118198163D01*
X157435144Y-118219162D01*
X157435149Y-118219163D01*
X157439880Y-118220151D01*
X157444762Y-118220407D01*
X157444871Y-118220413D01*
X157444887Y-118220413D01*
X157446539Y-118220500D01*
X187983830Y-118220500D01*
X187987349Y-118220549D01*
X188067271Y-118222782D01*
X188067274Y-118222782D01*
X188073653Y-118222960D01*
X188079938Y-118221852D01*
X188079948Y-118221851D01*
X188133066Y-118212484D01*
X188142208Y-118211215D01*
X188202216Y-118205120D01*
X188229693Y-118196509D01*
X188245479Y-118192662D01*
X188249703Y-118191917D01*
X188267535Y-118188773D01*
X188267541Y-118188771D01*
X188273821Y-118187664D01*
X188329898Y-118165462D01*
X188338601Y-118162380D01*
X188390085Y-118146246D01*
X188390089Y-118146244D01*
X188396172Y-118144338D01*
X188421342Y-118130385D01*
X188436049Y-118123433D01*
X188437303Y-118122937D01*
X188462805Y-118112840D01*
X188513277Y-118079812D01*
X188521181Y-118075044D01*
X188568363Y-118048891D01*
X188568366Y-118048889D01*
X188573944Y-118045797D01*
X188595797Y-118027067D01*
X188608800Y-118017304D01*
X188628835Y-118004193D01*
X188632882Y-118001545D01*
X188636475Y-117998310D01*
X188636479Y-117998307D01*
X188636604Y-117998194D01*
X188637838Y-117997083D01*
X188676750Y-117958171D01*
X188683848Y-117951598D01*
X188686340Y-117949462D01*
X188728271Y-117913523D01*
X188747182Y-117889143D01*
X188757647Y-117877274D01*
X190580633Y-116054288D01*
X193445404Y-116054288D01*
X193445985Y-116059308D01*
X193445985Y-116059312D01*
X193464186Y-116216621D01*
X193474081Y-116302140D01*
X193475460Y-116307011D01*
X193475460Y-116307014D01*
X193490293Y-116359432D01*
X193542017Y-116542219D01*
X193580811Y-116625414D01*
X193632888Y-116737093D01*
X193647462Y-116768348D01*
X193787706Y-116974710D01*
X193959138Y-117155994D01*
X194157349Y-117307538D01*
X194377239Y-117425443D01*
X194613152Y-117506674D01*
X194741099Y-117528774D01*
X194855107Y-117548467D01*
X194855113Y-117548468D01*
X194859017Y-117549142D01*
X194862978Y-117549322D01*
X194862979Y-117549322D01*
X194887503Y-117550436D01*
X194887522Y-117550436D01*
X194888922Y-117550500D01*
X195062691Y-117550500D01*
X195065199Y-117550298D01*
X195065204Y-117550298D01*
X195243661Y-117535940D01*
X195243666Y-117535939D01*
X195248702Y-117535534D01*
X195253610Y-117534329D01*
X195253613Y-117534328D01*
X195486092Y-117477225D01*
X195491006Y-117476018D01*
X195495658Y-117474043D01*
X195495662Y-117474042D01*
X195716022Y-117380505D01*
X195716023Y-117380505D01*
X195720677Y-117378529D01*
X195931808Y-117245573D01*
X196029923Y-117159073D01*
X196115168Y-117083920D01*
X196115171Y-117083917D01*
X196118965Y-117080572D01*
X196277334Y-116887770D01*
X196402840Y-116672128D01*
X196492255Y-116439195D01*
X196494025Y-116430727D01*
X196540839Y-116206636D01*
X196543278Y-116194961D01*
X196543713Y-116185397D01*
X196551931Y-116004405D01*
X196554596Y-115945712D01*
X196548374Y-115891930D01*
X196526501Y-115702890D01*
X196525919Y-115697860D01*
X196457983Y-115457781D01*
X196384744Y-115300718D01*
X196354675Y-115236234D01*
X196354673Y-115236230D01*
X196352538Y-115231652D01*
X196212294Y-115025290D01*
X196040862Y-114844006D01*
X196005327Y-114816837D01*
X195846677Y-114695540D01*
X195846676Y-114695539D01*
X195842651Y-114692462D01*
X195622761Y-114574557D01*
X195386848Y-114493326D01*
X195256418Y-114470797D01*
X195144893Y-114451533D01*
X195144887Y-114451532D01*
X195140983Y-114450858D01*
X195137022Y-114450678D01*
X195137021Y-114450678D01*
X195112497Y-114449564D01*
X195112478Y-114449564D01*
X195111078Y-114449500D01*
X194937309Y-114449500D01*
X194934801Y-114449702D01*
X194934796Y-114449702D01*
X194756339Y-114464060D01*
X194756334Y-114464061D01*
X194751298Y-114464466D01*
X194746390Y-114465671D01*
X194746387Y-114465672D01*
X194618331Y-114497126D01*
X194508994Y-114523982D01*
X194504342Y-114525957D01*
X194504338Y-114525958D01*
X194283978Y-114619495D01*
X194279323Y-114621471D01*
X194068192Y-114754427D01*
X194064398Y-114757772D01*
X193884832Y-114916080D01*
X193884829Y-114916083D01*
X193881035Y-114919428D01*
X193722666Y-115112230D01*
X193597160Y-115327872D01*
X193507745Y-115560805D01*
X193456722Y-115805039D01*
X193445404Y-116054288D01*
X190580633Y-116054288D01*
X190643480Y-115991441D01*
X192597515Y-114037405D01*
X192659827Y-114003379D01*
X192686610Y-114000500D01*
X206087004Y-114000500D01*
X206155125Y-114020502D01*
X206176021Y-114037326D01*
X206181689Y-114042984D01*
X206330666Y-114134814D01*
X206337614Y-114137119D01*
X206337615Y-114137119D01*
X206490241Y-114187744D01*
X206490243Y-114187745D01*
X206496772Y-114189910D01*
X206600134Y-114200500D01*
X207349866Y-114200500D01*
X207353112Y-114200163D01*
X207353116Y-114200163D01*
X207447661Y-114190353D01*
X207447665Y-114190352D01*
X207454519Y-114189641D01*
X207461055Y-114187460D01*
X207461057Y-114187460D01*
X207613581Y-114136574D01*
X207620529Y-114134256D01*
X207769345Y-114042166D01*
X207801691Y-114009764D01*
X207887812Y-113923492D01*
X207887813Y-113923491D01*
X207892984Y-113918311D01*
X207896825Y-113912079D01*
X207901188Y-113906555D01*
X207959105Y-113865492D01*
X208030028Y-113862260D01*
X208091439Y-113897885D01*
X208099021Y-113907715D01*
X208099437Y-113907385D01*
X208103980Y-113913117D01*
X208107834Y-113919345D01*
X208231689Y-114042984D01*
X208380666Y-114134814D01*
X208387614Y-114137119D01*
X208387615Y-114137119D01*
X208540241Y-114187744D01*
X208540243Y-114187745D01*
X208546772Y-114189910D01*
X208650134Y-114200500D01*
X209399866Y-114200500D01*
X209403112Y-114200163D01*
X209403116Y-114200163D01*
X209497661Y-114190353D01*
X209497665Y-114190352D01*
X209504519Y-114189641D01*
X209511055Y-114187460D01*
X209511057Y-114187460D01*
X209663581Y-114136574D01*
X209670529Y-114134256D01*
X209819345Y-114042166D01*
X209851691Y-114009764D01*
X209937813Y-113923491D01*
X209942984Y-113918311D01*
X209948359Y-113909592D01*
X209977534Y-113862260D01*
X210034814Y-113769334D01*
X210042836Y-113745148D01*
X210087744Y-113609759D01*
X210087745Y-113609757D01*
X210089910Y-113603228D01*
X210100500Y-113499866D01*
X210100500Y-112776611D01*
X210120502Y-112708490D01*
X210137405Y-112687516D01*
X212851123Y-109973797D01*
X212853381Y-109971539D01*
X212859027Y-109964617D01*
X212945539Y-109858543D01*
X212949573Y-109853597D01*
X213026062Y-109707289D01*
X213040782Y-109679132D01*
X213043742Y-109673470D01*
X213099766Y-109478087D01*
X213109697Y-109349028D01*
X213114871Y-109281789D01*
X213114871Y-109281785D01*
X213115360Y-109275429D01*
X213089885Y-109073776D01*
X213024383Y-108881363D01*
X212964914Y-108780000D01*
X212924757Y-108711554D01*
X212924755Y-108711551D01*
X212921528Y-108706051D01*
X212847140Y-108623435D01*
X212789796Y-108559748D01*
X212789793Y-108559745D01*
X212785523Y-108555003D01*
X212621923Y-108434387D01*
X212614652Y-108431027D01*
X212443200Y-108351805D01*
X212443201Y-108351805D01*
X212437411Y-108349130D01*
X212312989Y-108319947D01*
X212245733Y-108304172D01*
X212245730Y-108304172D01*
X212239524Y-108302716D01*
X212197949Y-108301555D01*
X212042729Y-108297218D01*
X212042726Y-108297218D01*
X212036347Y-108297040D01*
X211836179Y-108332336D01*
X211647195Y-108407159D01*
X211594344Y-108441744D01*
X211481167Y-108515805D01*
X211481164Y-108515808D01*
X211477118Y-108518455D01*
X211472162Y-108522917D01*
X211470982Y-108524097D01*
X208328986Y-111666094D01*
X208326464Y-111668547D01*
X208269051Y-111722840D01*
X208263720Y-111727881D01*
X208238317Y-111764160D01*
X208229120Y-111777295D01*
X208223550Y-111784660D01*
X208189834Y-111826000D01*
X208185427Y-111831403D01*
X208182472Y-111837055D01*
X208182469Y-111837060D01*
X208172092Y-111856910D01*
X208163643Y-111870807D01*
X208147137Y-111894379D01*
X208144605Y-111900230D01*
X208144599Y-111900241D01*
X208123181Y-111949736D01*
X208119205Y-111958072D01*
X208094215Y-112005872D01*
X208094212Y-112005880D01*
X208091258Y-112011530D01*
X208089500Y-112017662D01*
X208087128Y-112023592D01*
X208085110Y-112022785D01*
X208052446Y-112074336D01*
X207988056Y-112104243D01*
X207917718Y-112094590D01*
X207880306Y-112068816D01*
X207876439Y-112064955D01*
X207768311Y-111957016D01*
X207758237Y-111950806D01*
X207712320Y-111922503D01*
X207619334Y-111865186D01*
X207594383Y-111856910D01*
X207459759Y-111812256D01*
X207459757Y-111812255D01*
X207453228Y-111810090D01*
X207349866Y-111799500D01*
X206600134Y-111799500D01*
X206596888Y-111799837D01*
X206596884Y-111799837D01*
X206502339Y-111809647D01*
X206502335Y-111809648D01*
X206495481Y-111810359D01*
X206488945Y-111812540D01*
X206488943Y-111812540D01*
X206391939Y-111844903D01*
X206329471Y-111865744D01*
X206180655Y-111957834D01*
X206175482Y-111963016D01*
X206169745Y-111967563D01*
X206168842Y-111966424D01*
X206113694Y-111996598D01*
X206086806Y-111999500D01*
X192236148Y-111999500D01*
X192232630Y-111999451D01*
X192152729Y-111997219D01*
X192152726Y-111997219D01*
X192146347Y-111997041D01*
X192140057Y-111998150D01*
X192140058Y-111998150D01*
X192086944Y-112007515D01*
X192077798Y-112008784D01*
X192024130Y-112014235D01*
X192024126Y-112014236D01*
X192017784Y-112014880D01*
X191990317Y-112023488D01*
X191974518Y-112027339D01*
X191946178Y-112032336D01*
X191940245Y-112034685D01*
X191890099Y-112054539D01*
X191881396Y-112057621D01*
X191829919Y-112073753D01*
X191829917Y-112073754D01*
X191823828Y-112075662D01*
X191818249Y-112078754D01*
X191818243Y-112078757D01*
X191798648Y-112089619D01*
X191783956Y-112096564D01*
X191757195Y-112107160D01*
X191751857Y-112110653D01*
X191706728Y-112140184D01*
X191698823Y-112144952D01*
X191651644Y-112171104D01*
X191651634Y-112171111D01*
X191646056Y-112174203D01*
X191624196Y-112192939D01*
X191611204Y-112202694D01*
X191587117Y-112218456D01*
X191582162Y-112222917D01*
X191543250Y-112261829D01*
X191536152Y-112268402D01*
X191491729Y-112306477D01*
X191487822Y-112311514D01*
X191487820Y-112311516D01*
X191472818Y-112330857D01*
X191462353Y-112342726D01*
X189527920Y-114277160D01*
X187622485Y-116182595D01*
X187560173Y-116216621D01*
X187533390Y-116219500D01*
X180858189Y-116219500D01*
X180790068Y-116199498D01*
X180743575Y-116145842D01*
X180733471Y-116075568D01*
X180762965Y-116010988D01*
X180769094Y-116004405D01*
X182019621Y-114753878D01*
X182034649Y-114741041D01*
X182045871Y-114732888D01*
X182091229Y-114682513D01*
X182095770Y-114677729D01*
X182110119Y-114663380D01*
X182122901Y-114647596D01*
X182127185Y-114642580D01*
X182168112Y-114597126D01*
X182172533Y-114592216D01*
X182179466Y-114580209D01*
X182190661Y-114563920D01*
X182195229Y-114558279D01*
X182195229Y-114558278D01*
X182199383Y-114553149D01*
X182202381Y-114547266D01*
X182230151Y-114492766D01*
X182233297Y-114486971D01*
X182263879Y-114434000D01*
X182263879Y-114433999D01*
X182267179Y-114428284D01*
X182271464Y-114415097D01*
X182279027Y-114396840D01*
X182282323Y-114390371D01*
X182282324Y-114390367D01*
X182285320Y-114384488D01*
X182302862Y-114319020D01*
X182304729Y-114312719D01*
X182325674Y-114248256D01*
X182327123Y-114234467D01*
X182330726Y-114215029D01*
X182332569Y-114208149D01*
X182334312Y-114201646D01*
X182335041Y-114187744D01*
X182337858Y-114133989D01*
X182338375Y-114127415D01*
X182340156Y-114110466D01*
X182340156Y-114110464D01*
X182340500Y-114107192D01*
X182340500Y-114086867D01*
X182340673Y-114080273D01*
X182343874Y-114019204D01*
X182343874Y-114019199D01*
X182344219Y-114012612D01*
X182342051Y-113998923D01*
X182340500Y-113979213D01*
X182340500Y-112280787D01*
X182342051Y-112261076D01*
X182343187Y-112253904D01*
X182344219Y-112247388D01*
X182342999Y-112224097D01*
X182340673Y-112179727D01*
X182340500Y-112173133D01*
X182340500Y-112152808D01*
X182339931Y-112147390D01*
X182338375Y-112132585D01*
X182337858Y-112126011D01*
X182334658Y-112064955D01*
X182334658Y-112064954D01*
X182334312Y-112058354D01*
X182330726Y-112044971D01*
X182327123Y-112025533D01*
X182326364Y-112018312D01*
X182325674Y-112011744D01*
X182304729Y-111947281D01*
X182302860Y-111940973D01*
X182301537Y-111936034D01*
X182285320Y-111875512D01*
X182282308Y-111869600D01*
X182279027Y-111863160D01*
X182271464Y-111844903D01*
X182270233Y-111841116D01*
X182267179Y-111831716D01*
X182261682Y-111822195D01*
X182233297Y-111773029D01*
X182230151Y-111767234D01*
X182202381Y-111712734D01*
X182202379Y-111712731D01*
X182199383Y-111706851D01*
X182190661Y-111696080D01*
X182179466Y-111679791D01*
X182172533Y-111667784D01*
X182146288Y-111638636D01*
X182127185Y-111617420D01*
X182122901Y-111612404D01*
X182112195Y-111599184D01*
X182110119Y-111596620D01*
X182095770Y-111582271D01*
X182091229Y-111577487D01*
X182050286Y-111532015D01*
X182050284Y-111532014D01*
X182045871Y-111527112D01*
X182034649Y-111518959D01*
X182019621Y-111506122D01*
X178827405Y-108313906D01*
X178793379Y-108251594D01*
X178790500Y-108224811D01*
X178790500Y-108032022D01*
X178810502Y-107963901D01*
X178864158Y-107917408D01*
X178889502Y-107909205D01*
X178893594Y-107908829D01*
X179012040Y-107871710D01*
X179048134Y-107860399D01*
X179048136Y-107860398D01*
X179055383Y-107858127D01*
X179200408Y-107770297D01*
X179300905Y-107669800D01*
X179363217Y-107635774D01*
X179434032Y-107640839D01*
X179479095Y-107669800D01*
X179579592Y-107770297D01*
X179724617Y-107858127D01*
X179731864Y-107860398D01*
X179731866Y-107860399D01*
X179757573Y-107868455D01*
X179886406Y-107908829D01*
X179959007Y-107915500D01*
X179961905Y-107915500D01*
X180215664Y-107915499D01*
X180470992Y-107915499D01*
X180473850Y-107915236D01*
X180473859Y-107915236D01*
X180509243Y-107911985D01*
X180543594Y-107908829D01*
X180621116Y-107884535D01*
X180698134Y-107860399D01*
X180698136Y-107860398D01*
X180705383Y-107858127D01*
X180850408Y-107770297D01*
X180919339Y-107701366D01*
X180981651Y-107667340D01*
X181052466Y-107672405D01*
X181109302Y-107714952D01*
X181117553Y-107727461D01*
X181124982Y-107740329D01*
X181192467Y-107857216D01*
X181196885Y-107862123D01*
X181196886Y-107862124D01*
X181314088Y-107992289D01*
X181319129Y-107997888D01*
X181324468Y-108001767D01*
X181456625Y-108097784D01*
X181472270Y-108109151D01*
X181645197Y-108186144D01*
X181743212Y-108206978D01*
X181823897Y-108224128D01*
X181823901Y-108224128D01*
X181830354Y-108225500D01*
X182019646Y-108225500D01*
X182026099Y-108224128D01*
X182026103Y-108224128D01*
X182106788Y-108206978D01*
X182204803Y-108186144D01*
X182377730Y-108109151D01*
X182393376Y-108097784D01*
X182525532Y-108001767D01*
X182530871Y-107997888D01*
X182535913Y-107992289D01*
X182653114Y-107862124D01*
X182653115Y-107862123D01*
X182657533Y-107857216D01*
X182708548Y-107768856D01*
X182748875Y-107699007D01*
X182748876Y-107699006D01*
X182752179Y-107693284D01*
X182810674Y-107513256D01*
X182814988Y-107472216D01*
X182829770Y-107331565D01*
X182830460Y-107325000D01*
X182810674Y-107136744D01*
X182752179Y-106956716D01*
X182657533Y-106792784D01*
X182623422Y-106754900D01*
X182535286Y-106657015D01*
X182535284Y-106657014D01*
X182530871Y-106652112D01*
X182418415Y-106570408D01*
X182383072Y-106544730D01*
X182383071Y-106544729D01*
X182377730Y-106540849D01*
X182204803Y-106463856D01*
X182205825Y-106461561D01*
X182156564Y-106427876D01*
X182128928Y-106362479D01*
X182141036Y-106292523D01*
X182180046Y-106246182D01*
X182220532Y-106216767D01*
X182225871Y-106212888D01*
X182277230Y-106155849D01*
X182348114Y-106077124D01*
X182348115Y-106077123D01*
X182352533Y-106072216D01*
X182447179Y-105908284D01*
X182505674Y-105728256D01*
X182506079Y-105724407D01*
X182539328Y-105662827D01*
X182601478Y-105628507D01*
X182628843Y-105625500D01*
X182659646Y-105625500D01*
X182666099Y-105624128D01*
X182666103Y-105624128D01*
X182767392Y-105602598D01*
X182844803Y-105586144D01*
X183017730Y-105509151D01*
X183040258Y-105492784D01*
X183165532Y-105401767D01*
X183170871Y-105397888D01*
X183211995Y-105352216D01*
X183293114Y-105262124D01*
X183293115Y-105262123D01*
X183297533Y-105257216D01*
X183307768Y-105239488D01*
X183388875Y-105099007D01*
X183388876Y-105099006D01*
X183392179Y-105093284D01*
X183450674Y-104913256D01*
X183455122Y-104870940D01*
X183469770Y-104731565D01*
X183470460Y-104725000D01*
X183455249Y-104580270D01*
X183451364Y-104543307D01*
X183451364Y-104543305D01*
X183450674Y-104536744D01*
X183392179Y-104356716D01*
X183297533Y-104192784D01*
X183272493Y-104164974D01*
X183175286Y-104057015D01*
X183175284Y-104057014D01*
X183170871Y-104052112D01*
X183091621Y-103994534D01*
X183023072Y-103944730D01*
X183023071Y-103944729D01*
X183017730Y-103940849D01*
X182844803Y-103863856D01*
X182742975Y-103842212D01*
X182666103Y-103825872D01*
X182666099Y-103825872D01*
X182659646Y-103824500D01*
X182636636Y-103824500D01*
X182568515Y-103804498D01*
X182547541Y-103787595D01*
X182377248Y-103617302D01*
X182369407Y-103608685D01*
X182365202Y-103602060D01*
X182314183Y-103554150D01*
X182311342Y-103551396D01*
X182291035Y-103531089D01*
X182287904Y-103528660D01*
X182287898Y-103528655D01*
X182287623Y-103528442D01*
X182278610Y-103520745D01*
X182245393Y-103489552D01*
X182236071Y-103484427D01*
X182226934Y-103479404D01*
X182210410Y-103468550D01*
X182200027Y-103460496D01*
X182200026Y-103460495D01*
X182193764Y-103455638D01*
X182151952Y-103437545D01*
X182141307Y-103432330D01*
X182101368Y-103410373D01*
X182093689Y-103408402D01*
X182093688Y-103408401D01*
X182080959Y-103405133D01*
X182062250Y-103398727D01*
X182050200Y-103393512D01*
X182050195Y-103393510D01*
X182042926Y-103390365D01*
X181997930Y-103383238D01*
X181986310Y-103380831D01*
X181949860Y-103371472D01*
X181949855Y-103371471D01*
X181942177Y-103369500D01*
X181921116Y-103369500D01*
X181901404Y-103367949D01*
X181900098Y-103367742D01*
X181880595Y-103364653D01*
X181872704Y-103365399D01*
X181835235Y-103368941D01*
X181823377Y-103369500D01*
X181077429Y-103369500D01*
X181009308Y-103349498D01*
X180978276Y-103321247D01*
X180974232Y-103316090D01*
X180970297Y-103309592D01*
X180850408Y-103189703D01*
X180705383Y-103101873D01*
X180698136Y-103099602D01*
X180698134Y-103099601D01*
X180632894Y-103079156D01*
X180543594Y-103051171D01*
X180470993Y-103044500D01*
X180468095Y-103044500D01*
X180214336Y-103044501D01*
X179959008Y-103044501D01*
X179956150Y-103044764D01*
X179956141Y-103044764D01*
X179920757Y-103048015D01*
X179886406Y-103051171D01*
X179880028Y-103053170D01*
X179880027Y-103053170D01*
X179731866Y-103099601D01*
X179731864Y-103099602D01*
X179724617Y-103101873D01*
X179579592Y-103189703D01*
X179479095Y-103290200D01*
X179416783Y-103324226D01*
X179345968Y-103319161D01*
X179300905Y-103290200D01*
X179200408Y-103189703D01*
X179055383Y-103101873D01*
X179048136Y-103099602D01*
X179048134Y-103099601D01*
X178982894Y-103079156D01*
X178893594Y-103051171D01*
X178820993Y-103044500D01*
X178818095Y-103044500D01*
X178514427Y-103044501D01*
X178514003Y-103044501D01*
X178514000Y-103044500D01*
X177426636Y-103044500D01*
X177358515Y-103024498D01*
X177337541Y-103007595D01*
X177017248Y-102687302D01*
X177009407Y-102678685D01*
X177005202Y-102672060D01*
X176954183Y-102624150D01*
X176951342Y-102621396D01*
X176931035Y-102601089D01*
X176927904Y-102598660D01*
X176927898Y-102598655D01*
X176927623Y-102598442D01*
X176918610Y-102590745D01*
X176885393Y-102559552D01*
X176876071Y-102554427D01*
X176866934Y-102549404D01*
X176850410Y-102538550D01*
X176840027Y-102530496D01*
X176840026Y-102530495D01*
X176833764Y-102525638D01*
X176791952Y-102507545D01*
X176781307Y-102502330D01*
X176741368Y-102480373D01*
X176733689Y-102478402D01*
X176733688Y-102478401D01*
X176720959Y-102475133D01*
X176702250Y-102468727D01*
X176690200Y-102463512D01*
X176690195Y-102463510D01*
X176682926Y-102460365D01*
X176637930Y-102453238D01*
X176626310Y-102450831D01*
X176589860Y-102441472D01*
X176589855Y-102441471D01*
X176582177Y-102439500D01*
X176561116Y-102439500D01*
X176541404Y-102437949D01*
X176536928Y-102437240D01*
X176520595Y-102434653D01*
X176512704Y-102435399D01*
X176475235Y-102438941D01*
X176463377Y-102439500D01*
X174301001Y-102439500D01*
X174289360Y-102438951D01*
X174281704Y-102437240D01*
X174213355Y-102439388D01*
X174211756Y-102439438D01*
X174207799Y-102439500D01*
X174179075Y-102439500D01*
X174174812Y-102440038D01*
X174162983Y-102440970D01*
X174117431Y-102442402D01*
X174097193Y-102448281D01*
X174077840Y-102452289D01*
X174074227Y-102452745D01*
X174064808Y-102453935D01*
X174064806Y-102453935D01*
X174056942Y-102454929D01*
X174049570Y-102457848D01*
X174049569Y-102457848D01*
X174014584Y-102471699D01*
X174003354Y-102475544D01*
X173967212Y-102486044D01*
X173959602Y-102488255D01*
X173952783Y-102492288D01*
X173952778Y-102492290D01*
X173941467Y-102498980D01*
X173923708Y-102507680D01*
X173911504Y-102512512D01*
X173904129Y-102515432D01*
X173897715Y-102520092D01*
X173867273Y-102542209D01*
X173857353Y-102548725D01*
X173818135Y-102571919D01*
X173803242Y-102586812D01*
X173788208Y-102599653D01*
X173771163Y-102612037D01*
X173766110Y-102618145D01*
X173742121Y-102647143D01*
X173734131Y-102655923D01*
X173527459Y-102862595D01*
X173465147Y-102896621D01*
X173438364Y-102899500D01*
X173415354Y-102899500D01*
X173408901Y-102900872D01*
X173408897Y-102900872D01*
X173328212Y-102918022D01*
X173230197Y-102938856D01*
X173057270Y-103015849D01*
X173051929Y-103019729D01*
X173051928Y-103019730D01*
X172986550Y-103067230D01*
X172904129Y-103127112D01*
X172899716Y-103132014D01*
X172899714Y-103132015D01*
X172787644Y-103256481D01*
X172777467Y-103267784D01*
X172774164Y-103273505D01*
X172692761Y-103414500D01*
X172682821Y-103431716D01*
X172624326Y-103611744D01*
X172623636Y-103618305D01*
X172623636Y-103618307D01*
X172609277Y-103754929D01*
X172604540Y-103800000D01*
X172605230Y-103806565D01*
X172617100Y-103919500D01*
X172624326Y-103988256D01*
X172682821Y-104168284D01*
X172686124Y-104174006D01*
X172686125Y-104174007D01*
X172706616Y-104209499D01*
X172777467Y-104332216D01*
X172781885Y-104337123D01*
X172781886Y-104337124D01*
X172831825Y-104392586D01*
X172904129Y-104472888D01*
X172909468Y-104476767D01*
X173048507Y-104577784D01*
X173057270Y-104584151D01*
X173230197Y-104661144D01*
X173328212Y-104681978D01*
X173408897Y-104699128D01*
X173408901Y-104699128D01*
X173415354Y-104700500D01*
X173604646Y-104700500D01*
X173607431Y-104699908D01*
X173675897Y-104712429D01*
X173727744Y-104760930D01*
X173743892Y-104820068D01*
X173744540Y-104820000D01*
X173745230Y-104826565D01*
X173753652Y-104906693D01*
X173764326Y-105008256D01*
X173822821Y-105188284D01*
X173917467Y-105352216D01*
X173921885Y-105357123D01*
X173921886Y-105357124D01*
X173963545Y-105403391D01*
X173994263Y-105467398D01*
X173985498Y-105537852D01*
X173979029Y-105550700D01*
X173917821Y-105656716D01*
X173859326Y-105836744D01*
X173858636Y-105843305D01*
X173858636Y-105843307D01*
X173846093Y-105962654D01*
X173839540Y-106025000D01*
X173840230Y-106031565D01*
X173852712Y-106150330D01*
X173839940Y-106220168D01*
X173791437Y-106272015D01*
X173727402Y-106289500D01*
X172357625Y-106289500D01*
X172283564Y-106265436D01*
X172138072Y-106159730D01*
X172138071Y-106159729D01*
X172132730Y-106155849D01*
X171959803Y-106078856D01*
X171861788Y-106058022D01*
X171781103Y-106040872D01*
X171781099Y-106040872D01*
X171774646Y-106039500D01*
X171585354Y-106039500D01*
X171578901Y-106040872D01*
X171578897Y-106040872D01*
X171498212Y-106058022D01*
X171400197Y-106078856D01*
X171227270Y-106155849D01*
X171074129Y-106267112D01*
X171069716Y-106272014D01*
X171069714Y-106272015D01*
X171006686Y-106342015D01*
X170947467Y-106407784D01*
X170944164Y-106413505D01*
X170861193Y-106557216D01*
X170852821Y-106571716D01*
X170794326Y-106751744D01*
X170793636Y-106758305D01*
X170793636Y-106758307D01*
X170789411Y-106798505D01*
X170774540Y-106940000D01*
X170794326Y-107128256D01*
X170852821Y-107308284D01*
X170947467Y-107472216D01*
X170951885Y-107477123D01*
X170951886Y-107477124D01*
X171056973Y-107593834D01*
X171074129Y-107612888D01*
X171079468Y-107616767D01*
X171214609Y-107714952D01*
X171227270Y-107724151D01*
X171400197Y-107801144D01*
X171498212Y-107821978D01*
X171578897Y-107839128D01*
X171578901Y-107839128D01*
X171585354Y-107840500D01*
X171774646Y-107840500D01*
X171781099Y-107839128D01*
X171781103Y-107839128D01*
X171861788Y-107821978D01*
X171959803Y-107801144D01*
X172132730Y-107724151D01*
X172145392Y-107714952D01*
X172283564Y-107614564D01*
X172357625Y-107590500D01*
X174088011Y-107590500D01*
X174156132Y-107610502D01*
X174202625Y-107664158D01*
X174212729Y-107734432D01*
X174183235Y-107799012D01*
X174139264Y-107831604D01*
X174107270Y-107845849D01*
X174101929Y-107849729D01*
X174101928Y-107849730D01*
X174021071Y-107908476D01*
X173986827Y-107933356D01*
X173956436Y-107955436D01*
X173882375Y-107979500D01*
X173300999Y-107979500D01*
X173289359Y-107978951D01*
X173281703Y-107977240D01*
X173273780Y-107977489D01*
X173211769Y-107979438D01*
X173207811Y-107979500D01*
X173179075Y-107979500D01*
X173175140Y-107979997D01*
X173174807Y-107980039D01*
X173162972Y-107980971D01*
X173117430Y-107982403D01*
X173109813Y-107984616D01*
X173097208Y-107988278D01*
X173077844Y-107992289D01*
X173075665Y-107992564D01*
X173064806Y-107993935D01*
X173064801Y-107993936D01*
X173056942Y-107994929D01*
X173014574Y-108011703D01*
X173003361Y-108015542D01*
X172974570Y-108023907D01*
X172959601Y-108028256D01*
X172941466Y-108038981D01*
X172923712Y-108047678D01*
X172919109Y-108049501D01*
X172911498Y-108052514D01*
X172911496Y-108052515D01*
X172904129Y-108055432D01*
X172886459Y-108068270D01*
X172867269Y-108082212D01*
X172857352Y-108088726D01*
X172818135Y-108111919D01*
X172803242Y-108126812D01*
X172788208Y-108139653D01*
X172771163Y-108152037D01*
X172766110Y-108158145D01*
X172742121Y-108187143D01*
X172734131Y-108195923D01*
X172316295Y-108613759D01*
X172253983Y-108647785D01*
X172183168Y-108642720D01*
X172133565Y-108608976D01*
X172095871Y-108567112D01*
X172090529Y-108563231D01*
X172090527Y-108563229D01*
X171948072Y-108459730D01*
X171948071Y-108459729D01*
X171942730Y-108455849D01*
X171769803Y-108378856D01*
X171670948Y-108357844D01*
X171591103Y-108340872D01*
X171591099Y-108340872D01*
X171584646Y-108339500D01*
X171395354Y-108339500D01*
X171388901Y-108340872D01*
X171388897Y-108340872D01*
X171309052Y-108357844D01*
X171210197Y-108378856D01*
X171037270Y-108455849D01*
X171031929Y-108459729D01*
X171031928Y-108459730D01*
X170889355Y-108563315D01*
X170819252Y-108587317D01*
X170751770Y-108589438D01*
X170747812Y-108589500D01*
X170719075Y-108589500D01*
X170714804Y-108590039D01*
X170702976Y-108590971D01*
X170657431Y-108592403D01*
X170649817Y-108594615D01*
X170649812Y-108594616D01*
X170637208Y-108598278D01*
X170617844Y-108602289D01*
X170596942Y-108604929D01*
X170589571Y-108607848D01*
X170589569Y-108607848D01*
X170554580Y-108621702D01*
X170543369Y-108625541D01*
X170499602Y-108638256D01*
X170483489Y-108647785D01*
X170481467Y-108648981D01*
X170463719Y-108657676D01*
X170444129Y-108665432D01*
X170407262Y-108692218D01*
X170397354Y-108698725D01*
X170364958Y-108717883D01*
X170364953Y-108717887D01*
X170358135Y-108721919D01*
X170343242Y-108736812D01*
X170328208Y-108749653D01*
X170311163Y-108762037D01*
X170306110Y-108768145D01*
X170282121Y-108797143D01*
X170274131Y-108805923D01*
X167441826Y-111638228D01*
X167379514Y-111672254D01*
X167311398Y-111668161D01*
X167267491Y-111652914D01*
X167267489Y-111652913D01*
X167261826Y-111650947D01*
X167255891Y-111650086D01*
X167255889Y-111650086D01*
X167059944Y-111621675D01*
X167059941Y-111621675D01*
X167054004Y-111620814D01*
X166844233Y-111630523D01*
X166741006Y-111655401D01*
X166645915Y-111678318D01*
X166645913Y-111678319D01*
X166640082Y-111679724D01*
X166634624Y-111682206D01*
X166634620Y-111682207D01*
X166525759Y-111731703D01*
X166448919Y-111766640D01*
X166277640Y-111888137D01*
X166132425Y-112039831D01*
X166129174Y-112044866D01*
X166105892Y-112080923D01*
X166052136Y-112127301D01*
X165981841Y-112137254D01*
X165917323Y-112107622D01*
X165900954Y-112090408D01*
X165804282Y-111967338D01*
X165804278Y-111967333D01*
X165800576Y-111962621D01*
X165795334Y-111958072D01*
X165646502Y-111828921D01*
X165646497Y-111828917D01*
X165641971Y-111824990D01*
X165460201Y-111719834D01*
X165312509Y-111668547D01*
X165267491Y-111652914D01*
X165267489Y-111652914D01*
X165261826Y-111650947D01*
X165255891Y-111650086D01*
X165255889Y-111650086D01*
X165059944Y-111621675D01*
X165059941Y-111621675D01*
X165054004Y-111620814D01*
X164844233Y-111630523D01*
X164741006Y-111655401D01*
X164645915Y-111678318D01*
X164645913Y-111678319D01*
X164640082Y-111679724D01*
X164634624Y-111682206D01*
X164634620Y-111682207D01*
X164525759Y-111731703D01*
X164448919Y-111766640D01*
X164277640Y-111888137D01*
X164132425Y-112039831D01*
X164129174Y-112044866D01*
X164029780Y-112198800D01*
X164018515Y-112216246D01*
X164016275Y-112221805D01*
X164016271Y-112221812D01*
X164002956Y-112254852D01*
X163958941Y-112310558D01*
X163891796Y-112333625D01*
X163822839Y-112316728D01*
X163776971Y-112270754D01*
X163735429Y-112198801D01*
X163727707Y-112188172D01*
X163609949Y-112057389D01*
X163600195Y-112048607D01*
X163457821Y-111945165D01*
X163446449Y-111938599D01*
X163416551Y-111925288D01*
X163402573Y-111923414D01*
X163400000Y-111927502D01*
X163400000Y-114063966D01*
X163403973Y-114077497D01*
X163408753Y-114078184D01*
X163446444Y-114061402D01*
X163457819Y-114054835D01*
X163600195Y-113951393D01*
X163609949Y-113942611D01*
X163727707Y-113811828D01*
X163735429Y-113801199D01*
X163777334Y-113728618D01*
X163828717Y-113679625D01*
X163898430Y-113666189D01*
X163964341Y-113692576D01*
X163998469Y-113733926D01*
X164004090Y-113744840D01*
X164065245Y-113863579D01*
X164069705Y-113872239D01*
X164101815Y-113913117D01*
X164195718Y-114032662D01*
X164195722Y-114032667D01*
X164199424Y-114037379D01*
X164203954Y-114041310D01*
X164203955Y-114041311D01*
X164353498Y-114171079D01*
X164353503Y-114171083D01*
X164358029Y-114175010D01*
X164539799Y-114280166D01*
X164563318Y-114288333D01*
X164732509Y-114347086D01*
X164732511Y-114347086D01*
X164738174Y-114349053D01*
X164744109Y-114349914D01*
X164744111Y-114349914D01*
X164940056Y-114378325D01*
X164940059Y-114378325D01*
X164945996Y-114379186D01*
X165155767Y-114369477D01*
X165287547Y-114337718D01*
X165354085Y-114321682D01*
X165354087Y-114321681D01*
X165359918Y-114320276D01*
X165365376Y-114317794D01*
X165365380Y-114317793D01*
X165513953Y-114250241D01*
X165551081Y-114233360D01*
X165722360Y-114111863D01*
X165867575Y-113960169D01*
X165891258Y-113923491D01*
X165894108Y-113919077D01*
X165947864Y-113872699D01*
X166018159Y-113862746D01*
X166082677Y-113892378D01*
X166099046Y-113909592D01*
X166195718Y-114032662D01*
X166195722Y-114032667D01*
X166199424Y-114037379D01*
X166203954Y-114041310D01*
X166203955Y-114041311D01*
X166353498Y-114171079D01*
X166353503Y-114171083D01*
X166358029Y-114175010D01*
X166539799Y-114280166D01*
X166563318Y-114288333D01*
X166732509Y-114347086D01*
X166732511Y-114347086D01*
X166738174Y-114349053D01*
X166744109Y-114349914D01*
X166744111Y-114349914D01*
X166940056Y-114378325D01*
X166940059Y-114378325D01*
X166945996Y-114379186D01*
X167155767Y-114369477D01*
X167287547Y-114337718D01*
X167354085Y-114321682D01*
X167354087Y-114321681D01*
X167359918Y-114320276D01*
X167365376Y-114317794D01*
X167365380Y-114317793D01*
X167513953Y-114250241D01*
X167551081Y-114233360D01*
X167722360Y-114111863D01*
X167867575Y-113960169D01*
X167891258Y-113923491D01*
X167894108Y-113919077D01*
X167947864Y-113872699D01*
X168018159Y-113862746D01*
X168082677Y-113892378D01*
X168099046Y-113909592D01*
X168195718Y-114032662D01*
X168195722Y-114032667D01*
X168199424Y-114037379D01*
X168203954Y-114041310D01*
X168203955Y-114041311D01*
X168353498Y-114171079D01*
X168353503Y-114171083D01*
X168358029Y-114175010D01*
X168539799Y-114280166D01*
X168563318Y-114288333D01*
X168732509Y-114347086D01*
X168732511Y-114347086D01*
X168738174Y-114349053D01*
X168744109Y-114349914D01*
X168744111Y-114349914D01*
X168940056Y-114378325D01*
X168940059Y-114378325D01*
X168945996Y-114379186D01*
X169155767Y-114369477D01*
X169287547Y-114337718D01*
X169354085Y-114321682D01*
X169354087Y-114321681D01*
X169359918Y-114320276D01*
X169365376Y-114317794D01*
X169365380Y-114317793D01*
X169513953Y-114250241D01*
X169551081Y-114233360D01*
X169722360Y-114111863D01*
X169867575Y-113960169D01*
X169891258Y-113923491D01*
X169894108Y-113919077D01*
X169947864Y-113872699D01*
X170018159Y-113862746D01*
X170082677Y-113892378D01*
X170099046Y-113909592D01*
X170195718Y-114032662D01*
X170195722Y-114032667D01*
X170199424Y-114037379D01*
X170203954Y-114041310D01*
X170203955Y-114041311D01*
X170353498Y-114171079D01*
X170353503Y-114171083D01*
X170358029Y-114175010D01*
X170539799Y-114280166D01*
X170563318Y-114288333D01*
X170732509Y-114347086D01*
X170732511Y-114347086D01*
X170738174Y-114349053D01*
X170744109Y-114349914D01*
X170744111Y-114349914D01*
X170940056Y-114378325D01*
X170940059Y-114378325D01*
X170945996Y-114379186D01*
X171155767Y-114369477D01*
X171287547Y-114337718D01*
X171354085Y-114321682D01*
X171354087Y-114321681D01*
X171359918Y-114320276D01*
X171365376Y-114317794D01*
X171365380Y-114317793D01*
X171513953Y-114250241D01*
X171551081Y-114233360D01*
X171722360Y-114111863D01*
X171867575Y-113960169D01*
X171891258Y-113923491D01*
X171894108Y-113919077D01*
X171947864Y-113872699D01*
X172018159Y-113862746D01*
X172082677Y-113892378D01*
X172099046Y-113909592D01*
X172195718Y-114032662D01*
X172195722Y-114032667D01*
X172199424Y-114037379D01*
X172203954Y-114041310D01*
X172203955Y-114041311D01*
X172353498Y-114171079D01*
X172353503Y-114171083D01*
X172358029Y-114175010D01*
X172539799Y-114280166D01*
X172563318Y-114288333D01*
X172732509Y-114347086D01*
X172732511Y-114347086D01*
X172738174Y-114349053D01*
X172744109Y-114349914D01*
X172744111Y-114349914D01*
X172940056Y-114378325D01*
X172940059Y-114378325D01*
X172945996Y-114379186D01*
X173155767Y-114369477D01*
X173287547Y-114337718D01*
X173354085Y-114321682D01*
X173354087Y-114321681D01*
X173359918Y-114320276D01*
X173365376Y-114317794D01*
X173365380Y-114317793D01*
X173513953Y-114250241D01*
X173551081Y-114233360D01*
X173722360Y-114111863D01*
X173867575Y-113960169D01*
X173891258Y-113923491D01*
X173894108Y-113919077D01*
X173947864Y-113872699D01*
X174018159Y-113862746D01*
X174082677Y-113892378D01*
X174099046Y-113909592D01*
X174195718Y-114032662D01*
X174195722Y-114032667D01*
X174199424Y-114037379D01*
X174203954Y-114041310D01*
X174203955Y-114041311D01*
X174353498Y-114171079D01*
X174353503Y-114171083D01*
X174358029Y-114175010D01*
X174539799Y-114280166D01*
X174563318Y-114288333D01*
X174732509Y-114347086D01*
X174732511Y-114347086D01*
X174738174Y-114349053D01*
X174744109Y-114349914D01*
X174744111Y-114349914D01*
X174940056Y-114378325D01*
X174940059Y-114378325D01*
X174945996Y-114379186D01*
X175155767Y-114369477D01*
X175287547Y-114337718D01*
X175354085Y-114321682D01*
X175354087Y-114321681D01*
X175359918Y-114320276D01*
X175365376Y-114317794D01*
X175365380Y-114317793D01*
X175513953Y-114250241D01*
X175551081Y-114233360D01*
X175722360Y-114111863D01*
X175867575Y-113960169D01*
X175891258Y-113923491D01*
X175894108Y-113919077D01*
X175947864Y-113872699D01*
X176018159Y-113862746D01*
X176082677Y-113892378D01*
X176099046Y-113909592D01*
X176195718Y-114032662D01*
X176195722Y-114032667D01*
X176199424Y-114037379D01*
X176203954Y-114041310D01*
X176203955Y-114041311D01*
X176353498Y-114171079D01*
X176353503Y-114171083D01*
X176358029Y-114175010D01*
X176539799Y-114280166D01*
X176563318Y-114288333D01*
X176732509Y-114347086D01*
X176732511Y-114347086D01*
X176738174Y-114349053D01*
X176744109Y-114349914D01*
X176744111Y-114349914D01*
X176940056Y-114378325D01*
X176940059Y-114378325D01*
X176945996Y-114379186D01*
X177155767Y-114369477D01*
X177287547Y-114337718D01*
X177354085Y-114321682D01*
X177354087Y-114321681D01*
X177359918Y-114320276D01*
X177365376Y-114317794D01*
X177365380Y-114317793D01*
X177513953Y-114250241D01*
X177551081Y-114233360D01*
X177722360Y-114111863D01*
X177867575Y-113960169D01*
X177912708Y-113890270D01*
X177978233Y-113788791D01*
X177978234Y-113788788D01*
X177981485Y-113783754D01*
X177983725Y-113778195D01*
X177983729Y-113778188D01*
X177997044Y-113745148D01*
X178041059Y-113689442D01*
X178108204Y-113666375D01*
X178177161Y-113683272D01*
X178223029Y-113729246D01*
X178264571Y-113801199D01*
X178272293Y-113811828D01*
X178390051Y-113942611D01*
X178399805Y-113951393D01*
X178542179Y-114054835D01*
X178553551Y-114061401D01*
X178583449Y-114074712D01*
X178597427Y-114076586D01*
X178600000Y-114072498D01*
X178600000Y-114063966D01*
X179400000Y-114063966D01*
X179403973Y-114077497D01*
X179408753Y-114078184D01*
X179446444Y-114061402D01*
X179457819Y-114054835D01*
X179600195Y-113951393D01*
X179609949Y-113942611D01*
X179727707Y-113811828D01*
X179735429Y-113801200D01*
X179823416Y-113648800D01*
X179828760Y-113636798D01*
X179883140Y-113469434D01*
X179885872Y-113456581D01*
X179889926Y-113418016D01*
X179887246Y-113403364D01*
X179874926Y-113400000D01*
X179418115Y-113400000D01*
X179402876Y-113404475D01*
X179401671Y-113405865D01*
X179400000Y-113413548D01*
X179400000Y-114063966D01*
X178600000Y-114063966D01*
X178600000Y-112581885D01*
X179400000Y-112581885D01*
X179404475Y-112597124D01*
X179405865Y-112598329D01*
X179413548Y-112600000D01*
X179873704Y-112600000D01*
X179887996Y-112595803D01*
X179890054Y-112583202D01*
X179885872Y-112543419D01*
X179883140Y-112530566D01*
X179828760Y-112363202D01*
X179823416Y-112351200D01*
X179735429Y-112198800D01*
X179727707Y-112188172D01*
X179609949Y-112057389D01*
X179600195Y-112048607D01*
X179457821Y-111945165D01*
X179446449Y-111938599D01*
X179416551Y-111925288D01*
X179402573Y-111923414D01*
X179400000Y-111927502D01*
X179400000Y-112581885D01*
X178600000Y-112581885D01*
X178600000Y-111936034D01*
X178596027Y-111922503D01*
X178591247Y-111921816D01*
X178553556Y-111938598D01*
X178542181Y-111945165D01*
X178399805Y-112048607D01*
X178390051Y-112057389D01*
X178272293Y-112188172D01*
X178264571Y-112198801D01*
X178222666Y-112271382D01*
X178171283Y-112320375D01*
X178101570Y-112333811D01*
X178035659Y-112307424D01*
X178001531Y-112266074D01*
X177992502Y-112248542D01*
X177966593Y-112198237D01*
X177933041Y-112133092D01*
X177933039Y-112133089D01*
X177930295Y-112127761D01*
X177875775Y-112058354D01*
X177804282Y-111967338D01*
X177804278Y-111967333D01*
X177800576Y-111962621D01*
X177795334Y-111958072D01*
X177646502Y-111828921D01*
X177646497Y-111828917D01*
X177641971Y-111824990D01*
X177460201Y-111719834D01*
X177312509Y-111668547D01*
X177267491Y-111652914D01*
X177267489Y-111652914D01*
X177261826Y-111650947D01*
X177255891Y-111650086D01*
X177255889Y-111650086D01*
X177059944Y-111621675D01*
X177059941Y-111621675D01*
X177054004Y-111620814D01*
X176844233Y-111630523D01*
X176741006Y-111655401D01*
X176645915Y-111678318D01*
X176645913Y-111678319D01*
X176640082Y-111679724D01*
X176634624Y-111682206D01*
X176634620Y-111682207D01*
X176525759Y-111731703D01*
X176448919Y-111766640D01*
X176277640Y-111888137D01*
X176132425Y-112039831D01*
X176129174Y-112044866D01*
X176105892Y-112080923D01*
X176052136Y-112127301D01*
X175981841Y-112137254D01*
X175917323Y-112107622D01*
X175900954Y-112090408D01*
X175804282Y-111967338D01*
X175804278Y-111967333D01*
X175800576Y-111962621D01*
X175795334Y-111958072D01*
X175646502Y-111828921D01*
X175646497Y-111828917D01*
X175641971Y-111824990D01*
X175460201Y-111719834D01*
X175312509Y-111668547D01*
X175267491Y-111652914D01*
X175267489Y-111652914D01*
X175261826Y-111650947D01*
X175255891Y-111650086D01*
X175255889Y-111650086D01*
X175059944Y-111621675D01*
X175059941Y-111621675D01*
X175054004Y-111620814D01*
X174844233Y-111630523D01*
X174741006Y-111655401D01*
X174645915Y-111678318D01*
X174645913Y-111678319D01*
X174640082Y-111679724D01*
X174634624Y-111682206D01*
X174634620Y-111682207D01*
X174525759Y-111731703D01*
X174448919Y-111766640D01*
X174277640Y-111888137D01*
X174132425Y-112039831D01*
X174129174Y-112044866D01*
X174105892Y-112080923D01*
X174052136Y-112127301D01*
X173981841Y-112137254D01*
X173917323Y-112107622D01*
X173900954Y-112090408D01*
X173804282Y-111967338D01*
X173804278Y-111967333D01*
X173800576Y-111962621D01*
X173795334Y-111958072D01*
X173646502Y-111828921D01*
X173646497Y-111828917D01*
X173641971Y-111824990D01*
X173460201Y-111719834D01*
X173312509Y-111668547D01*
X173267491Y-111652914D01*
X173267489Y-111652914D01*
X173261826Y-111650947D01*
X173255891Y-111650086D01*
X173255889Y-111650086D01*
X173059944Y-111621675D01*
X173059941Y-111621675D01*
X173054004Y-111620814D01*
X172844233Y-111630523D01*
X172741006Y-111655401D01*
X172645915Y-111678318D01*
X172645913Y-111678319D01*
X172640082Y-111679724D01*
X172634624Y-111682206D01*
X172634620Y-111682207D01*
X172525759Y-111731703D01*
X172448919Y-111766640D01*
X172277640Y-111888137D01*
X172132425Y-112039831D01*
X172129174Y-112044866D01*
X172105892Y-112080923D01*
X172052136Y-112127301D01*
X171981841Y-112137254D01*
X171917323Y-112107622D01*
X171900954Y-112090408D01*
X171804282Y-111967338D01*
X171804278Y-111967333D01*
X171800576Y-111962621D01*
X171795334Y-111958072D01*
X171646502Y-111828921D01*
X171646497Y-111828917D01*
X171641971Y-111824990D01*
X171460201Y-111719834D01*
X171345742Y-111680087D01*
X171287953Y-111638846D01*
X171261634Y-111572908D01*
X171275142Y-111503208D01*
X171297981Y-111471965D01*
X173452541Y-109317405D01*
X173514853Y-109283379D01*
X173541636Y-109280500D01*
X173882375Y-109280500D01*
X173956436Y-109304564D01*
X174107270Y-109414151D01*
X174280197Y-109491144D01*
X174378212Y-109511978D01*
X174458897Y-109529128D01*
X174458901Y-109529128D01*
X174465354Y-109530500D01*
X174654646Y-109530500D01*
X174661099Y-109529128D01*
X174661103Y-109529128D01*
X174741788Y-109511978D01*
X174839803Y-109491144D01*
X175012730Y-109414151D01*
X175102365Y-109349028D01*
X175160532Y-109306767D01*
X175165871Y-109302888D01*
X175177395Y-109290090D01*
X175288114Y-109167124D01*
X175288115Y-109167123D01*
X175292533Y-109162216D01*
X175375632Y-109018284D01*
X175383875Y-109004007D01*
X175383876Y-109004006D01*
X175387179Y-108998284D01*
X175445674Y-108818256D01*
X175447925Y-108796844D01*
X175464770Y-108636565D01*
X175465460Y-108630000D01*
X175461741Y-108594616D01*
X175446364Y-108448307D01*
X175446364Y-108448305D01*
X175445674Y-108441744D01*
X175387179Y-108261716D01*
X175296410Y-108104499D01*
X175279672Y-108035505D01*
X175302892Y-107968413D01*
X175358699Y-107924526D01*
X175405529Y-107915500D01*
X175836145Y-107915499D01*
X175860992Y-107915499D01*
X175863850Y-107915236D01*
X175863859Y-107915236D01*
X175899243Y-107911985D01*
X175933594Y-107908829D01*
X176011116Y-107884535D01*
X176088134Y-107860399D01*
X176088136Y-107860398D01*
X176095383Y-107858127D01*
X176240408Y-107770297D01*
X176340905Y-107669800D01*
X176403217Y-107635774D01*
X176474032Y-107640839D01*
X176519095Y-107669800D01*
X176619592Y-107770297D01*
X176764617Y-107858127D01*
X176771864Y-107860398D01*
X176771866Y-107860399D01*
X176797573Y-107868455D01*
X176901180Y-107900924D01*
X176960201Y-107940380D01*
X176988521Y-108005484D01*
X176989500Y-108021157D01*
X176989500Y-108569213D01*
X176987949Y-108588923D01*
X176985781Y-108602612D01*
X176986126Y-108609200D01*
X176986126Y-108609204D01*
X176989327Y-108670280D01*
X176989500Y-108676874D01*
X176989500Y-108697192D01*
X176989843Y-108700459D01*
X176989844Y-108700470D01*
X176991624Y-108717400D01*
X176992141Y-108723966D01*
X176992814Y-108736812D01*
X176995285Y-108783973D01*
X176995687Y-108791646D01*
X176998386Y-108801717D01*
X176999274Y-108805031D01*
X177002878Y-108824479D01*
X177004326Y-108838256D01*
X177006366Y-108844533D01*
X177006366Y-108844535D01*
X177025265Y-108902701D01*
X177027138Y-108909025D01*
X177042970Y-108968109D01*
X177042972Y-108968115D01*
X177044680Y-108974488D01*
X177047676Y-108980367D01*
X177047677Y-108980371D01*
X177050973Y-108986840D01*
X177058536Y-109005097D01*
X177062821Y-109018284D01*
X177066121Y-109023999D01*
X177066121Y-109024000D01*
X177096703Y-109076971D01*
X177099849Y-109082766D01*
X177127407Y-109136850D01*
X177130617Y-109143149D01*
X177134771Y-109148278D01*
X177134771Y-109148279D01*
X177139339Y-109153920D01*
X177150534Y-109170209D01*
X177157467Y-109182216D01*
X177161888Y-109187126D01*
X177202815Y-109232580D01*
X177207099Y-109237596D01*
X177212733Y-109244553D01*
X177219881Y-109253380D01*
X177234230Y-109267729D01*
X177238771Y-109272513D01*
X177269614Y-109306767D01*
X177284129Y-109322888D01*
X177295351Y-109331041D01*
X177310379Y-109343878D01*
X180502595Y-112536094D01*
X180536621Y-112598406D01*
X180539500Y-112625189D01*
X180539500Y-113634811D01*
X180519498Y-113702932D01*
X180502595Y-113723906D01*
X179543906Y-114682595D01*
X179481594Y-114716621D01*
X179454811Y-114719500D01*
X163085190Y-114719500D01*
X163017069Y-114699498D01*
X162996095Y-114682595D01*
X162583961Y-114270461D01*
X162549935Y-114208149D01*
X162555000Y-114137334D01*
X162581349Y-114102136D01*
X162600000Y-114072498D01*
X162600000Y-111936034D01*
X162596027Y-111922503D01*
X162591247Y-111921816D01*
X162553556Y-111938598D01*
X162542181Y-111945165D01*
X162399805Y-112048607D01*
X162390051Y-112057389D01*
X162325136Y-112129484D01*
X162264690Y-112166723D01*
X162193706Y-112165371D01*
X162134721Y-112125857D01*
X162106464Y-112060726D01*
X162105500Y-112045173D01*
X162105500Y-111117586D01*
X162116919Y-111065171D01*
X162903720Y-109345186D01*
X163338268Y-108395244D01*
X163339370Y-108391940D01*
X163369112Y-108302716D01*
X163372496Y-108292565D01*
X163383915Y-108240150D01*
X163384639Y-108233427D01*
X163411814Y-108167839D01*
X163428297Y-108151576D01*
X163430408Y-108150297D01*
X163530905Y-108049800D01*
X163593217Y-108015774D01*
X163664032Y-108020839D01*
X163709095Y-108049800D01*
X163809592Y-108150297D01*
X163954617Y-108238127D01*
X163961864Y-108240398D01*
X163961866Y-108240399D01*
X164008870Y-108255129D01*
X164116406Y-108288829D01*
X164189007Y-108295500D01*
X164191905Y-108295500D01*
X164445664Y-108295499D01*
X164700992Y-108295499D01*
X164703850Y-108295236D01*
X164703859Y-108295236D01*
X164739243Y-108291985D01*
X164773594Y-108288829D01*
X164794843Y-108282170D01*
X164928134Y-108240399D01*
X164928136Y-108240398D01*
X164935383Y-108238127D01*
X165080408Y-108150297D01*
X165200297Y-108030408D01*
X165205581Y-108021683D01*
X165206983Y-108020401D01*
X165208920Y-108017931D01*
X165209332Y-108018254D01*
X165257980Y-107973778D01*
X165278197Y-107965962D01*
X165287854Y-107963156D01*
X165292792Y-107961721D01*
X165312156Y-107957711D01*
X165333058Y-107955071D01*
X165340429Y-107952152D01*
X165340431Y-107952152D01*
X165375420Y-107938298D01*
X165386631Y-107934459D01*
X165430398Y-107921744D01*
X165432943Y-107920239D01*
X165479972Y-107910500D01*
X165574646Y-107910500D01*
X165581099Y-107909128D01*
X165581103Y-107909128D01*
X165661788Y-107891978D01*
X165759803Y-107871144D01*
X165932730Y-107794151D01*
X165965563Y-107770297D01*
X166080532Y-107686767D01*
X166085871Y-107682888D01*
X166126743Y-107637496D01*
X166208114Y-107547124D01*
X166208115Y-107547123D01*
X166212533Y-107542216D01*
X166250114Y-107477124D01*
X166303875Y-107384007D01*
X166303876Y-107384006D01*
X166307179Y-107378284D01*
X166365674Y-107198256D01*
X166385460Y-107010000D01*
X166365674Y-106821744D01*
X166307179Y-106641716D01*
X166262017Y-106563492D01*
X166215836Y-106483505D01*
X166212533Y-106477784D01*
X166154656Y-106413505D01*
X166090286Y-106342015D01*
X166090284Y-106342014D01*
X166085871Y-106337112D01*
X166024499Y-106292523D01*
X165938072Y-106229730D01*
X165938071Y-106229729D01*
X165932730Y-106225849D01*
X165818761Y-106175106D01*
X165764665Y-106129126D01*
X165744016Y-106061199D01*
X165763369Y-105992891D01*
X165818761Y-105944894D01*
X165888133Y-105914007D01*
X165932730Y-105894151D01*
X165962444Y-105872563D01*
X166080532Y-105786767D01*
X166085871Y-105782888D01*
X166204628Y-105650996D01*
X166208114Y-105647124D01*
X166208115Y-105647123D01*
X166212533Y-105642216D01*
X166265370Y-105550700D01*
X166303875Y-105484007D01*
X166303876Y-105484006D01*
X166307179Y-105478284D01*
X166365674Y-105298256D01*
X166369988Y-105257216D01*
X166384770Y-105116565D01*
X166385460Y-105110000D01*
X166365674Y-104921744D01*
X166335469Y-104828783D01*
X166333441Y-104757816D01*
X166370104Y-104697018D01*
X166433816Y-104665692D01*
X166506550Y-104674741D01*
X166582697Y-104708644D01*
X166659647Y-104725000D01*
X166761397Y-104746628D01*
X166761401Y-104746628D01*
X166767854Y-104748000D01*
X166957146Y-104748000D01*
X166963599Y-104746628D01*
X166963603Y-104746628D01*
X167065353Y-104725000D01*
X167142303Y-104708644D01*
X167315230Y-104631651D01*
X167376912Y-104586837D01*
X167463032Y-104524267D01*
X167468371Y-104520388D01*
X167488530Y-104498000D01*
X167590614Y-104384624D01*
X167590615Y-104384623D01*
X167595033Y-104379716D01*
X167625760Y-104326495D01*
X167686375Y-104221507D01*
X167686376Y-104221506D01*
X167689679Y-104215784D01*
X167748174Y-104035756D01*
X167752507Y-103994534D01*
X167767270Y-103854065D01*
X167767960Y-103847500D01*
X167751600Y-103691837D01*
X167748864Y-103665807D01*
X167748864Y-103665805D01*
X167748174Y-103659244D01*
X167689679Y-103479216D01*
X167655814Y-103420559D01*
X167598336Y-103321005D01*
X167595033Y-103315284D01*
X167584154Y-103303202D01*
X167472786Y-103179515D01*
X167472784Y-103179514D01*
X167468371Y-103174612D01*
X167315230Y-103063349D01*
X167142303Y-102986356D01*
X167044288Y-102965522D01*
X166963603Y-102948372D01*
X166963599Y-102948372D01*
X166957146Y-102947000D01*
X166767854Y-102947000D01*
X166761401Y-102948372D01*
X166761397Y-102948372D01*
X166680712Y-102965522D01*
X166582697Y-102986356D01*
X166409770Y-103063349D01*
X166404429Y-103067229D01*
X166404428Y-103067230D01*
X166258936Y-103172936D01*
X166184875Y-103197000D01*
X165068500Y-103197000D01*
X165056860Y-103196451D01*
X165049204Y-103194740D01*
X165041281Y-103194989D01*
X164979270Y-103196938D01*
X164975312Y-103197000D01*
X164946575Y-103197000D01*
X164942304Y-103197539D01*
X164930476Y-103198471D01*
X164884931Y-103199903D01*
X164877317Y-103202115D01*
X164877312Y-103202116D01*
X164864708Y-103205778D01*
X164845344Y-103209789D01*
X164824442Y-103212429D01*
X164817071Y-103215348D01*
X164817069Y-103215348D01*
X164782080Y-103229202D01*
X164770869Y-103233041D01*
X164727102Y-103245756D01*
X164708967Y-103256481D01*
X164691219Y-103265176D01*
X164671629Y-103272932D01*
X164634762Y-103299718D01*
X164624854Y-103306225D01*
X164592458Y-103325383D01*
X164592453Y-103325387D01*
X164585635Y-103329419D01*
X164570742Y-103344312D01*
X164555708Y-103357153D01*
X164538663Y-103369537D01*
X164533609Y-103375646D01*
X164528600Y-103380350D01*
X164465250Y-103412401D01*
X164442347Y-103414500D01*
X164203711Y-103414501D01*
X164189008Y-103414501D01*
X164186150Y-103414764D01*
X164186141Y-103414764D01*
X164150757Y-103418015D01*
X164116406Y-103421171D01*
X164110028Y-103423170D01*
X164110027Y-103423170D01*
X163961866Y-103469601D01*
X163961864Y-103469602D01*
X163954617Y-103471873D01*
X163809592Y-103559703D01*
X163709095Y-103660200D01*
X163646783Y-103694226D01*
X163575968Y-103689161D01*
X163530905Y-103660200D01*
X163430408Y-103559703D01*
X163285383Y-103471873D01*
X163278136Y-103469602D01*
X163278134Y-103469601D01*
X163175846Y-103437546D01*
X163123594Y-103421171D01*
X163050993Y-103414500D01*
X162953584Y-103414500D01*
X162918901Y-103409632D01*
X162902311Y-103404882D01*
X162759762Y-103385362D01*
X162755257Y-103385392D01*
X162755253Y-103385392D01*
X161650449Y-103392807D01*
X161582195Y-103373263D01*
X161540484Y-103329810D01*
X161540259Y-103329419D01*
X161494777Y-103250643D01*
X161477441Y-103231389D01*
X161372530Y-103114874D01*
X161372528Y-103114873D01*
X161368115Y-103109971D01*
X161289935Y-103053170D01*
X161220316Y-103002589D01*
X161220315Y-103002588D01*
X161214974Y-102998708D01*
X161042047Y-102921715D01*
X160937533Y-102899500D01*
X160863347Y-102883731D01*
X160863343Y-102883731D01*
X160856890Y-102882359D01*
X160667598Y-102882359D01*
X160661145Y-102883731D01*
X160661141Y-102883731D01*
X160586955Y-102899500D01*
X160482441Y-102921715D01*
X160309514Y-102998708D01*
X160304173Y-103002588D01*
X160304172Y-103002589D01*
X160234553Y-103053170D01*
X160156373Y-103109971D01*
X160151960Y-103114873D01*
X160151958Y-103114874D01*
X160047047Y-103231389D01*
X160029711Y-103250643D01*
X160026408Y-103256364D01*
X159971481Y-103351500D01*
X159920098Y-103400493D01*
X159862362Y-103414500D01*
X159592583Y-103414501D01*
X159579008Y-103414501D01*
X159576150Y-103414764D01*
X159576141Y-103414764D01*
X159540757Y-103418015D01*
X159506406Y-103421171D01*
X159500028Y-103423170D01*
X159500027Y-103423170D01*
X159351866Y-103469601D01*
X159351864Y-103469602D01*
X159344617Y-103471873D01*
X159199592Y-103559703D01*
X159079703Y-103679592D01*
X159072285Y-103691840D01*
X159019892Y-103739744D01*
X158999669Y-103747563D01*
X158997191Y-103748283D01*
X158977844Y-103752289D01*
X158975665Y-103752564D01*
X158964806Y-103753935D01*
X158964801Y-103753936D01*
X158956942Y-103754929D01*
X158914574Y-103771703D01*
X158903361Y-103775542D01*
X158867211Y-103786045D01*
X158859601Y-103788256D01*
X158841466Y-103798981D01*
X158823712Y-103807678D01*
X158818083Y-103809907D01*
X158811498Y-103812514D01*
X158811496Y-103812515D01*
X158804129Y-103815432D01*
X158775633Y-103836135D01*
X158767269Y-103842212D01*
X158757352Y-103848726D01*
X158718135Y-103871919D01*
X158703242Y-103886812D01*
X158688208Y-103899653D01*
X158671163Y-103912037D01*
X158666110Y-103918145D01*
X158642121Y-103947143D01*
X158634131Y-103955923D01*
X158461985Y-104128069D01*
X158399673Y-104162095D01*
X158372890Y-104164974D01*
X158349880Y-104164974D01*
X158343427Y-104166346D01*
X158343423Y-104166346D01*
X158262738Y-104183496D01*
X158164723Y-104204330D01*
X157991796Y-104281323D01*
X157986455Y-104285203D01*
X157986454Y-104285204D01*
X157914992Y-104337124D01*
X157838655Y-104392586D01*
X157834242Y-104397488D01*
X157834240Y-104397489D01*
X157716412Y-104528350D01*
X157711993Y-104533258D01*
X157708690Y-104538979D01*
X157639711Y-104658455D01*
X157617347Y-104697190D01*
X157558852Y-104877218D01*
X157558162Y-104883779D01*
X157558162Y-104883781D01*
X157554172Y-104921744D01*
X157539066Y-105065474D01*
X157539756Y-105072039D01*
X157551974Y-105188284D01*
X157558852Y-105253730D01*
X157617347Y-105433758D01*
X157711993Y-105597690D01*
X157716411Y-105602597D01*
X157716412Y-105602598D01*
X157756504Y-105647124D01*
X157838655Y-105738362D01*
X157855066Y-105750286D01*
X157898419Y-105806506D01*
X157906315Y-105865391D01*
X157896093Y-105962654D01*
X157889540Y-106025000D01*
X157890230Y-106031565D01*
X157906925Y-106190408D01*
X157909326Y-106213256D01*
X157967821Y-106393284D01*
X157971124Y-106399006D01*
X157971125Y-106399007D01*
X157987793Y-106427876D01*
X158062467Y-106557216D01*
X158066887Y-106562125D01*
X158066890Y-106562129D01*
X158067610Y-106562929D01*
X158067880Y-106563492D01*
X158070768Y-106567467D01*
X158070041Y-106567995D01*
X158098324Y-106626938D01*
X158089557Y-106697391D01*
X158067606Y-106731546D01*
X158012467Y-106792784D01*
X157917821Y-106956716D01*
X157859326Y-107136744D01*
X157839540Y-107325000D01*
X157840230Y-107331565D01*
X157855013Y-107472216D01*
X157859326Y-107513256D01*
X157917821Y-107693284D01*
X157921124Y-107699006D01*
X157921125Y-107699007D01*
X157961452Y-107768856D01*
X158012467Y-107857216D01*
X158016885Y-107862123D01*
X158016886Y-107862124D01*
X158134088Y-107992289D01*
X158139129Y-107997888D01*
X158144468Y-108001767D01*
X158276625Y-108097784D01*
X158292270Y-108109151D01*
X158465197Y-108186144D01*
X158563212Y-108206978D01*
X158643897Y-108224128D01*
X158643901Y-108224128D01*
X158650354Y-108225500D01*
X158839646Y-108225500D01*
X158846099Y-108224128D01*
X158846103Y-108224128D01*
X159018345Y-108187517D01*
X159018348Y-108187516D01*
X159024803Y-108186144D01*
X159099471Y-108152899D01*
X159169838Y-108143464D01*
X159215991Y-108160229D01*
X159344617Y-108238127D01*
X159351864Y-108240398D01*
X159351866Y-108240399D01*
X159398870Y-108255129D01*
X159506406Y-108288829D01*
X159579007Y-108295500D01*
X159581905Y-108295500D01*
X159835664Y-108295499D01*
X160090992Y-108295499D01*
X160093850Y-108295236D01*
X160093859Y-108295236D01*
X160129243Y-108291985D01*
X160163594Y-108288829D01*
X160184843Y-108282170D01*
X160318134Y-108240399D01*
X160318136Y-108240398D01*
X160325383Y-108238127D01*
X160470408Y-108150297D01*
X160566021Y-108054684D01*
X160628333Y-108020658D01*
X160699148Y-108025723D01*
X160755984Y-108068270D01*
X160780795Y-108134790D01*
X160765704Y-108204164D01*
X160761373Y-108211495D01*
X159660924Y-109938168D01*
X159643046Y-109966219D01*
X159589567Y-110012915D01*
X159536791Y-110024500D01*
X156810422Y-110024500D01*
X156742301Y-110004498D01*
X156695808Y-109950842D01*
X156690898Y-109938376D01*
X156669915Y-109875481D01*
X156661463Y-109850148D01*
X156572440Y-109706289D01*
X156452711Y-109586769D01*
X156446480Y-109582928D01*
X156446476Y-109582925D01*
X156439146Y-109578407D01*
X156391651Y-109525636D01*
X156380226Y-109455565D01*
X156404897Y-109394966D01*
X156456491Y-109326995D01*
X156464852Y-109312156D01*
X156488731Y-109251844D01*
X156490018Y-109237801D01*
X156485124Y-109235000D01*
X155022715Y-109235000D01*
X155009716Y-109238817D01*
X154938720Y-109238817D01*
X154930423Y-109235283D01*
X154928019Y-109235000D01*
X153462715Y-109235000D01*
X153449184Y-109238973D01*
X153448382Y-109244553D01*
X153475148Y-109312156D01*
X153483509Y-109326995D01*
X153535175Y-109395061D01*
X153560429Y-109461414D01*
X153545801Y-109530887D01*
X153501116Y-109578384D01*
X153486289Y-109587560D01*
X153366769Y-109707289D01*
X153362929Y-109713519D01*
X153362928Y-109713520D01*
X153360866Y-109716866D01*
X153277997Y-109851303D01*
X153262562Y-109897838D01*
X153249185Y-109938168D01*
X153208754Y-109996528D01*
X153143190Y-110023764D01*
X153129592Y-110024500D01*
X152873706Y-110024500D01*
X152805585Y-110004498D01*
X152759092Y-109950842D01*
X152748379Y-109911505D01*
X152746961Y-109897838D01*
X152744641Y-109875481D01*
X152738508Y-109857096D01*
X152691574Y-109716419D01*
X152689256Y-109709471D01*
X152597166Y-109560655D01*
X152576226Y-109539751D01*
X152478491Y-109442187D01*
X152473311Y-109437016D01*
X152324334Y-109345186D01*
X152317386Y-109342881D01*
X152317383Y-109342880D01*
X152304949Y-109338756D01*
X152246589Y-109298326D01*
X152219352Y-109232761D01*
X152231885Y-109162880D01*
X152278047Y-109114346D01*
X152277536Y-109113673D01*
X152281673Y-109110533D01*
X152282758Y-109109392D01*
X152284380Y-109108478D01*
X152390725Y-109027757D01*
X152402757Y-109015725D01*
X152483475Y-108909383D01*
X152491837Y-108894544D01*
X152530519Y-108796844D01*
X152531806Y-108782801D01*
X152526912Y-108780000D01*
X150540927Y-108780000D01*
X150527396Y-108783973D01*
X150526594Y-108789553D01*
X150568163Y-108894544D01*
X150576525Y-108909383D01*
X150657243Y-109015725D01*
X150669275Y-109027757D01*
X150775622Y-109108480D01*
X150777376Y-109109468D01*
X150778656Y-109110782D01*
X150782464Y-109113673D01*
X150782029Y-109114247D01*
X150826903Y-109160336D01*
X150841067Y-109229905D01*
X150815370Y-109296088D01*
X150755396Y-109338762D01*
X150741424Y-109343423D01*
X150741414Y-109343428D01*
X150734471Y-109345744D01*
X150585655Y-109437834D01*
X150462016Y-109561689D01*
X150370186Y-109710666D01*
X150367881Y-109717614D01*
X150367881Y-109717615D01*
X150324654Y-109847939D01*
X150315090Y-109876772D01*
X150309764Y-109928759D01*
X150307011Y-109955624D01*
X150280170Y-110021351D01*
X150221458Y-110062333D01*
X150163667Y-110081567D01*
X150042627Y-110159354D01*
X149988971Y-110205847D01*
X149986031Y-110209240D01*
X149900650Y-110307774D01*
X149900648Y-110307777D01*
X149894748Y-110314586D01*
X149834978Y-110445464D01*
X149814976Y-110513585D01*
X149814338Y-110518025D01*
X149814337Y-110518028D01*
X149806549Y-110572199D01*
X149794500Y-110656000D01*
X149794500Y-111704775D01*
X149793763Y-111718383D01*
X149789500Y-111757623D01*
X149789501Y-113352376D01*
X149789870Y-113355770D01*
X149789870Y-113355776D01*
X149793763Y-113391614D01*
X149794500Y-113405220D01*
X149794500Y-113484000D01*
X149806052Y-113591449D01*
X149817438Y-113643791D01*
X149831336Y-113685549D01*
X149848561Y-113737300D01*
X149851567Y-113746333D01*
X149929354Y-113867373D01*
X149932303Y-113870776D01*
X149932305Y-113870779D01*
X149955793Y-113897885D01*
X149975847Y-113921029D01*
X149979240Y-113923969D01*
X150077774Y-114009350D01*
X150077777Y-114009352D01*
X150084586Y-114015252D01*
X150092783Y-114018996D01*
X150092784Y-114018996D01*
X150096082Y-114020502D01*
X150215464Y-114075022D01*
X150283585Y-114095024D01*
X150312962Y-114099248D01*
X150344498Y-114103782D01*
X150409079Y-114133275D01*
X150447463Y-114193001D01*
X150447463Y-114263998D01*
X150409080Y-114323724D01*
X150344499Y-114353217D01*
X150326567Y-114354500D01*
X150127321Y-114354500D01*
X150123984Y-114354858D01*
X150123977Y-114354858D01*
X150036644Y-114364218D01*
X150020202Y-114365980D01*
X150016919Y-114366692D01*
X150016918Y-114366692D01*
X149971297Y-114376584D01*
X149971294Y-114376585D01*
X149968014Y-114377296D01*
X149865761Y-114411214D01*
X149862698Y-114412608D01*
X149862695Y-114412609D01*
X149534781Y-114561828D01*
X149464493Y-114571837D01*
X149399952Y-114542257D01*
X149361649Y-114482479D01*
X149361745Y-114411483D01*
X149365599Y-114401021D01*
X149367179Y-114398284D01*
X149373999Y-114377296D01*
X149413779Y-114254865D01*
X149425674Y-114218256D01*
X149426944Y-114206179D01*
X149434444Y-114134814D01*
X149440500Y-114077192D01*
X149440500Y-113109292D01*
X149451556Y-113059422D01*
X149452003Y-113058697D01*
X149505263Y-112898124D01*
X149515500Y-112798207D01*
X149515499Y-112251794D01*
X149512626Y-112224097D01*
X149508022Y-112179727D01*
X149505003Y-112150628D01*
X149451463Y-111990148D01*
X149362440Y-111846289D01*
X149354130Y-111837993D01*
X149250805Y-111734849D01*
X149242711Y-111726769D01*
X149236480Y-111722928D01*
X149236476Y-111722925D01*
X149229146Y-111718407D01*
X149181651Y-111665636D01*
X149170226Y-111595565D01*
X149194897Y-111534966D01*
X149246491Y-111466995D01*
X149254852Y-111452156D01*
X149278731Y-111391844D01*
X149280018Y-111377801D01*
X149275124Y-111375000D01*
X147812715Y-111375000D01*
X147799184Y-111378973D01*
X147798382Y-111384553D01*
X147825132Y-111452117D01*
X147831611Y-111522818D01*
X147798838Y-111585797D01*
X147737218Y-111621061D01*
X147707980Y-111624500D01*
X147532020Y-111624500D01*
X147463899Y-111604498D01*
X147417406Y-111550842D01*
X147407302Y-111480568D01*
X147414868Y-111452117D01*
X147438731Y-111391844D01*
X147440018Y-111377801D01*
X147435124Y-111375000D01*
X145972715Y-111375000D01*
X145959184Y-111378973D01*
X145958382Y-111384553D01*
X145985132Y-111452117D01*
X145991611Y-111522818D01*
X145958838Y-111585797D01*
X145897218Y-111621061D01*
X145867980Y-111624500D01*
X133580787Y-111624500D01*
X133561076Y-111622949D01*
X133553904Y-111621813D01*
X133547388Y-111620781D01*
X133540801Y-111621126D01*
X133540796Y-111621126D01*
X133479727Y-111624327D01*
X133473133Y-111624500D01*
X133452808Y-111624500D01*
X133449536Y-111624844D01*
X133449534Y-111624844D01*
X133432585Y-111626625D01*
X133426011Y-111627142D01*
X133364955Y-111630342D01*
X133364954Y-111630342D01*
X133358354Y-111630688D01*
X133346540Y-111633854D01*
X133344971Y-111634274D01*
X133325533Y-111637877D01*
X133311744Y-111639326D01*
X133247281Y-111660271D01*
X133240980Y-111662138D01*
X133175512Y-111679680D01*
X133169633Y-111682676D01*
X133169629Y-111682677D01*
X133163160Y-111685973D01*
X133144903Y-111693536D01*
X133131716Y-111697821D01*
X133126001Y-111701121D01*
X133126000Y-111701121D01*
X133073029Y-111731703D01*
X133067234Y-111734849D01*
X133012734Y-111762619D01*
X133012731Y-111762621D01*
X133006851Y-111765617D01*
X133001226Y-111770172D01*
X132999680Y-111771424D01*
X132998272Y-111772011D01*
X132996184Y-111773367D01*
X132995936Y-111772985D01*
X132934151Y-111798746D01*
X132920390Y-111799500D01*
X132650134Y-111799500D01*
X132646888Y-111799837D01*
X132646884Y-111799837D01*
X132552339Y-111809647D01*
X132552335Y-111809648D01*
X132545481Y-111810359D01*
X132538945Y-111812540D01*
X132538943Y-111812540D01*
X132441939Y-111844903D01*
X132379471Y-111865744D01*
X132230655Y-111957834D01*
X132153124Y-112035501D01*
X132144972Y-112043667D01*
X132082690Y-112077746D01*
X132011870Y-112072743D01*
X131954997Y-112030246D01*
X131938647Y-112001033D01*
X131925306Y-111967338D01*
X131920460Y-111955096D01*
X131917380Y-111946399D01*
X131901246Y-111894915D01*
X131901244Y-111894911D01*
X131899338Y-111888828D01*
X131885385Y-111863657D01*
X131878433Y-111848951D01*
X131870191Y-111828132D01*
X131870189Y-111828128D01*
X131867840Y-111822195D01*
X131834809Y-111771718D01*
X131830041Y-111763814D01*
X131828504Y-111761040D01*
X131800797Y-111711056D01*
X131787961Y-111696080D01*
X131782068Y-111689204D01*
X131772307Y-111676203D01*
X131759198Y-111656171D01*
X131759197Y-111656169D01*
X131756545Y-111652117D01*
X131752083Y-111647162D01*
X131713171Y-111608250D01*
X131706598Y-111601152D01*
X131693437Y-111585797D01*
X131668523Y-111556729D01*
X131644143Y-111537818D01*
X131632274Y-111527353D01*
X130677120Y-110572199D01*
X145959982Y-110572199D01*
X145964876Y-110575000D01*
X146281885Y-110575000D01*
X146297124Y-110570525D01*
X146298329Y-110569135D01*
X146300000Y-110561452D01*
X146300000Y-110556885D01*
X147100000Y-110556885D01*
X147104475Y-110572124D01*
X147105865Y-110573329D01*
X147113548Y-110575000D01*
X147427285Y-110575000D01*
X147436824Y-110572199D01*
X147799982Y-110572199D01*
X147804876Y-110575000D01*
X148121885Y-110575000D01*
X148137124Y-110570525D01*
X148138329Y-110569135D01*
X148140000Y-110561452D01*
X148140000Y-110556885D01*
X148940000Y-110556885D01*
X148944475Y-110572124D01*
X148945865Y-110573329D01*
X148953548Y-110575000D01*
X149267285Y-110575000D01*
X149280816Y-110571027D01*
X149281618Y-110565447D01*
X149254852Y-110497844D01*
X149246491Y-110483005D01*
X149169913Y-110382119D01*
X149157881Y-110370087D01*
X149056995Y-110293509D01*
X149042156Y-110285148D01*
X148956844Y-110251371D01*
X148942800Y-110250084D01*
X148940000Y-110254977D01*
X148940000Y-110556885D01*
X148140000Y-110556885D01*
X148140000Y-110262817D01*
X148136027Y-110249286D01*
X148130447Y-110248484D01*
X148037844Y-110285148D01*
X148023005Y-110293509D01*
X147922119Y-110370087D01*
X147910087Y-110382119D01*
X147833509Y-110483005D01*
X147825148Y-110497844D01*
X147801269Y-110558156D01*
X147799982Y-110572199D01*
X147436824Y-110572199D01*
X147440816Y-110571027D01*
X147441618Y-110565447D01*
X147414852Y-110497844D01*
X147406491Y-110483005D01*
X147329913Y-110382119D01*
X147317881Y-110370087D01*
X147216995Y-110293509D01*
X147202156Y-110285148D01*
X147116844Y-110251371D01*
X147102800Y-110250084D01*
X147100000Y-110254977D01*
X147100000Y-110556885D01*
X146300000Y-110556885D01*
X146300000Y-110262817D01*
X146296027Y-110249286D01*
X146290447Y-110248484D01*
X146197844Y-110285148D01*
X146183005Y-110293509D01*
X146082119Y-110370087D01*
X146070087Y-110382119D01*
X145993509Y-110483005D01*
X145985148Y-110497844D01*
X145961269Y-110558156D01*
X145959982Y-110572199D01*
X130677120Y-110572199D01*
X128623797Y-108518877D01*
X128621539Y-108516619D01*
X128518031Y-108432199D01*
X153449982Y-108432199D01*
X153454876Y-108435000D01*
X153771885Y-108435000D01*
X153787124Y-108430525D01*
X153788329Y-108429135D01*
X153790000Y-108421452D01*
X153790000Y-108416885D01*
X154590000Y-108416885D01*
X154594475Y-108432124D01*
X154595865Y-108433329D01*
X154603548Y-108435000D01*
X154917285Y-108435000D01*
X154930284Y-108431183D01*
X155001280Y-108431183D01*
X155009577Y-108434717D01*
X155011981Y-108435000D01*
X155331885Y-108435000D01*
X155347124Y-108430525D01*
X155348329Y-108429135D01*
X155350000Y-108421452D01*
X155350000Y-108416885D01*
X156150000Y-108416885D01*
X156154475Y-108432124D01*
X156155865Y-108433329D01*
X156163548Y-108435000D01*
X156477285Y-108435000D01*
X156490816Y-108431027D01*
X156491618Y-108425447D01*
X156464852Y-108357844D01*
X156456491Y-108343005D01*
X156379913Y-108242119D01*
X156367881Y-108230087D01*
X156266995Y-108153509D01*
X156252156Y-108145148D01*
X156166844Y-108111371D01*
X156152800Y-108110084D01*
X156150000Y-108114977D01*
X156150000Y-108416885D01*
X155350000Y-108416885D01*
X155350000Y-108122817D01*
X155346027Y-108109286D01*
X155340447Y-108108484D01*
X155247844Y-108145148D01*
X155233005Y-108153509D01*
X155132119Y-108230087D01*
X155120087Y-108242119D01*
X155070362Y-108307628D01*
X155013244Y-108349795D01*
X154942396Y-108354387D01*
X154880312Y-108319947D01*
X154869638Y-108307628D01*
X154819913Y-108242119D01*
X154807881Y-108230087D01*
X154706995Y-108153509D01*
X154692156Y-108145148D01*
X154606844Y-108111371D01*
X154592800Y-108110084D01*
X154590000Y-108114977D01*
X154590000Y-108416885D01*
X153790000Y-108416885D01*
X153790000Y-108122817D01*
X153786027Y-108109286D01*
X153780447Y-108108484D01*
X153687844Y-108145148D01*
X153673005Y-108153509D01*
X153572119Y-108230087D01*
X153560087Y-108242119D01*
X153483509Y-108343005D01*
X153475148Y-108357844D01*
X153451269Y-108418156D01*
X153449982Y-108432199D01*
X128518031Y-108432199D01*
X128503597Y-108420427D01*
X128424080Y-108378856D01*
X128329132Y-108329218D01*
X128323470Y-108326258D01*
X128301461Y-108319947D01*
X128246445Y-108304172D01*
X128128087Y-108270234D01*
X128037294Y-108263248D01*
X127931789Y-108255129D01*
X127931785Y-108255129D01*
X127925429Y-108254640D01*
X127884521Y-108259808D01*
X127730106Y-108279315D01*
X127730103Y-108279316D01*
X127723776Y-108280115D01*
X127717738Y-108282170D01*
X127717740Y-108282170D01*
X127537398Y-108343563D01*
X127537394Y-108343565D01*
X127531363Y-108345618D01*
X127516417Y-108354387D01*
X127361555Y-108445243D01*
X127361552Y-108445245D01*
X127356052Y-108448472D01*
X127205003Y-108584478D01*
X127201215Y-108589616D01*
X127201214Y-108589617D01*
X127102151Y-108723983D01*
X127084387Y-108748077D01*
X126999130Y-108932589D01*
X126997674Y-108938798D01*
X126957394Y-109110533D01*
X126952716Y-109130476D01*
X126952538Y-109136850D01*
X126947341Y-109322888D01*
X126947040Y-109333653D01*
X125500500Y-109333653D01*
X125500500Y-108391940D01*
X125520502Y-108323819D01*
X125571391Y-108278630D01*
X126191167Y-107977199D01*
X150528194Y-107977199D01*
X150533088Y-107980000D01*
X151111885Y-107980000D01*
X151127124Y-107975525D01*
X151128329Y-107974135D01*
X151130000Y-107966452D01*
X151130000Y-107961885D01*
X151930000Y-107961885D01*
X151934475Y-107977124D01*
X151935865Y-107978329D01*
X151943548Y-107980000D01*
X152519073Y-107980000D01*
X152532604Y-107976027D01*
X152533406Y-107970447D01*
X152491837Y-107865456D01*
X152483475Y-107850617D01*
X152402757Y-107744275D01*
X152390725Y-107732243D01*
X152284380Y-107651522D01*
X152269549Y-107643165D01*
X152144953Y-107593834D01*
X152129388Y-107589881D01*
X152051498Y-107580456D01*
X152043943Y-107580000D01*
X151948115Y-107580000D01*
X151932876Y-107584475D01*
X151931671Y-107585865D01*
X151930000Y-107593548D01*
X151930000Y-107961885D01*
X151130000Y-107961885D01*
X151130000Y-107598115D01*
X151125525Y-107582876D01*
X151124135Y-107581671D01*
X151116452Y-107580000D01*
X151016057Y-107580000D01*
X151008502Y-107580456D01*
X150930612Y-107589881D01*
X150915047Y-107593834D01*
X150790451Y-107643165D01*
X150775620Y-107651522D01*
X150669275Y-107732243D01*
X150657243Y-107744275D01*
X150576525Y-107850617D01*
X150568163Y-107865456D01*
X150529481Y-107963156D01*
X150528194Y-107977199D01*
X126191167Y-107977199D01*
X126998344Y-107584625D01*
X127000585Y-107583563D01*
X128241404Y-107010000D01*
X128791107Y-106755903D01*
X128793300Y-106754915D01*
X130599767Y-105962653D01*
X130602045Y-105961680D01*
X130716836Y-105914007D01*
X132423734Y-105205129D01*
X132426020Y-105204205D01*
X134262343Y-104483614D01*
X134264562Y-104482769D01*
X135700347Y-103951717D01*
X136114662Y-103798475D01*
X136116996Y-103797638D01*
X137980154Y-103149903D01*
X137982504Y-103149112D01*
X139427182Y-102678521D01*
X139858059Y-102538167D01*
X139860372Y-102537438D01*
X141747636Y-101963507D01*
X141750014Y-101962810D01*
X143648150Y-101426149D01*
X143650542Y-101425498D01*
X144879238Y-101104082D01*
X145558881Y-100926294D01*
X145561266Y-100925695D01*
X145719969Y-100887500D01*
X147479074Y-100464140D01*
X147481400Y-100463604D01*
X149407997Y-100039863D01*
X149410360Y-100039368D01*
X151344946Y-99653622D01*
X151347324Y-99653173D01*
X153289025Y-99305592D01*
X153291378Y-99305195D01*
X155239618Y-98995882D01*
X155241963Y-98995533D01*
X157195861Y-98724629D01*
X157198309Y-98724314D01*
X159157202Y-98491911D01*
X159159644Y-98491646D01*
X161122606Y-98297850D01*
X161125040Y-98297634D01*
X161928413Y-98234257D01*
X163091562Y-98142498D01*
X163094036Y-98142328D01*
X164098278Y-98082964D01*
X165063133Y-98025929D01*
X165065561Y-98025809D01*
X167036607Y-97948184D01*
X167039001Y-97948112D01*
X169011267Y-97909290D01*
X169013748Y-97909266D01*
X170986252Y-97909266D01*
X170988733Y-97909290D01*
G37*
%TD.AperFunction*%
%TA.AperFunction,Conductor*%
G36*
X156852082Y-116122731D02*
G01*
X156850333Y-116125036D01*
X156889877Y-116165640D01*
X156904500Y-116224557D01*
X156904500Y-116342605D01*
X156884498Y-116410726D01*
X156867595Y-116431700D01*
X156789703Y-116509592D01*
X156759998Y-116558642D01*
X156709337Y-116642292D01*
X156656939Y-116690199D01*
X156586960Y-116702172D01*
X156521616Y-116674411D01*
X156500735Y-116652586D01*
X156457570Y-116594991D01*
X156445009Y-116582430D01*
X156396251Y-116545888D01*
X156758303Y-116051548D01*
X156852082Y-116122731D01*
G37*
%TD.AperFunction*%
%TA.AperFunction,Conductor*%
G36*
X178582121Y-103570002D02*
G01*
X178628614Y-103623658D01*
X178640000Y-103676000D01*
X178640000Y-107284000D01*
X178619998Y-107352121D01*
X178566342Y-107398614D01*
X178514000Y-107410000D01*
X177276000Y-107410000D01*
X177207879Y-107389998D01*
X177161386Y-107336342D01*
X177150000Y-107284000D01*
X177150000Y-103676000D01*
X177170002Y-103607879D01*
X177223658Y-103561386D01*
X177276000Y-103550000D01*
X178514000Y-103550000D01*
X178582121Y-103570002D01*
G37*
%TD.AperFunction*%
%TA.AperFunction,Conductor*%
G36*
X156081621Y-114880002D02*
G01*
X156128114Y-114933658D01*
X156139500Y-114986000D01*
X156139500Y-115584000D01*
X156119498Y-115652121D01*
X156065842Y-115698614D01*
X156013500Y-115710000D01*
X154150000Y-115710000D01*
X154150000Y-116284000D01*
X154129998Y-116352121D01*
X154076342Y-116398614D01*
X154024000Y-116410000D01*
X148446000Y-116410000D01*
X148377879Y-116389998D01*
X148331386Y-116336342D01*
X148320000Y-116284000D01*
X148320000Y-115751095D01*
X148340002Y-115682974D01*
X148393811Y-115636412D01*
X150075133Y-114871316D01*
X150127321Y-114860000D01*
X156013500Y-114860000D01*
X156081621Y-114880002D01*
G37*
%TD.AperFunction*%
%TA.AperFunction,Conductor*%
G36*
X159590000Y-110990000D02*
G01*
X161600000Y-110980000D01*
X161600000Y-113744840D01*
X161579998Y-113812961D01*
X161526342Y-113859454D01*
X161474843Y-113870837D01*
X160361996Y-113878281D01*
X160293743Y-113858735D01*
X160272891Y-113842205D01*
X160024721Y-113598614D01*
X158610000Y-112210000D01*
X156200000Y-112210000D01*
X156200000Y-113484000D01*
X156179998Y-113552121D01*
X156126342Y-113598614D01*
X156074000Y-113610000D01*
X150426000Y-113610000D01*
X150357879Y-113589998D01*
X150311386Y-113536342D01*
X150300000Y-113484000D01*
X150300000Y-110656000D01*
X150320002Y-110587879D01*
X150373658Y-110541386D01*
X150426000Y-110530000D01*
X159883169Y-110530000D01*
X159590000Y-110990000D01*
G37*
%TD.AperFunction*%
M02*
