M48
; DRILL file {KiCad (6.0.6)} date Sun Jul 17 20:06:44 2022
; FORMAT={-:-/ absolute / metric / decimal}
; #@! TF.CreationDate,2022-07-17T20:06:44+03:00
; #@! TF.GenerationSoftware,Kicad,Pcbnew,(6.0.6)
; #@! TF.FileFunction,Plated,1,2,PTH
FMAT,2
METRIC
; #@! TA.AperFunction,Plated,PTH,ViaDrill
T1C0.400
; #@! TA.AperFunction,Plated,PTH,ComponentDrill
T2C0.750
%
G90
G05
T1
X127.02Y-115.43
X127.02Y-117.38
X127.9Y-111.06
X127.95Y-109.26
X131.29Y-115.43
X131.29Y-117.38
X133.61Y-109.74
X134.99Y-107.73
X135.56Y-115.43
X135.56Y-117.38
X137.363Y-109.74
X139.83Y-115.43
X139.83Y-117.38
X140.94Y-106.7
X141.117Y-109.74
X142.42Y-105.06
X144.87Y-109.74
X145.53Y-106.72
X148.52Y-104.05
X149.4Y-110.12
X149.99Y-103.03
X150.14Y-108.38
X150.32Y-117.25
X151.79Y-117.25
X153.02Y-108.84
X153.26Y-117.25
X154.73Y-117.25
X154.76Y-101.68
X156.94Y-108.84
X157.83Y-101.67
X158.43Y-113.11
X158.445Y-105.065
X158.745Y-107.325
X158.795Y-106.025
X160.762Y-103.783
X164.08Y-101.98
X165.48Y-105.11
X165.48Y-107.01
X165.57Y-100.98
X165.58Y-108.61
X166.862Y-103.847
X168.44Y-102.53
X168.44Y-104.53
X169.86Y-108.88
X170.39Y-100.98
X170.44Y-102.53
X170.44Y-104.53
X171.49Y-109.24
X171.68Y-106.94
X173.43Y-100.96
X173.51Y-103.8
X174.56Y-108.63
X174.65Y-104.82
X174.745Y-106.025
X178.2Y-101.66
X181.31Y-101.67
X181.62Y-105.54
X181.925Y-107.325
X182.565Y-104.725
X182.92Y-111.46
X182.92Y-113.46
X182.92Y-115.46
X184.92Y-111.46
X184.92Y-113.46
X184.92Y-115.46
X185.16Y-105.17
X185.65Y-102.88
X186.49Y-107.67
X186.92Y-113.46
X186.92Y-115.46
X188.082Y-110.44
X188.795Y-105.17
X188.92Y-113.46
X189.11Y-103.01
X190.76Y-107.67
X191.564Y-110.44
X192.43Y-105.17
X195.03Y-107.67
X195.046Y-110.44
X196.64Y-105.06
X198.528Y-110.44
X199.3Y-107.67
X200.09Y-115.43
X200.09Y-117.38
X202.01Y-110.44
X203.92Y-107.71
X204.36Y-115.43
X204.36Y-117.38
X205.492Y-110.44
X208.1Y-110.5
X208.63Y-115.43
X208.63Y-117.38
X212.11Y-109.3
X212.9Y-115.43
X212.9Y-117.38
T2
X161.0Y-113.0
X163.0Y-113.0
X165.0Y-113.0
X167.0Y-113.0
X169.0Y-113.0
X171.0Y-113.0
X173.0Y-113.0
X175.0Y-113.0
X177.0Y-113.0
X179.0Y-113.0
T0
M30
