%TF.GenerationSoftware,KiCad,Pcbnew,(6.0.6)*%
%TF.CreationDate,2022-07-17T20:06:38+03:00*%
%TF.ProjectId,Sensor,53656e73-6f72-42e6-9b69-6361645f7063,rev?*%
%TF.SameCoordinates,Original*%
%TF.FileFunction,Soldermask,Bot*%
%TF.FilePolarity,Negative*%
%FSLAX46Y46*%
G04 Gerber Fmt 4.6, Leading zero omitted, Abs format (unit mm)*
G04 Created by KiCad (PCBNEW (6.0.6)) date 2022-07-17 20:06:38*
%MOMM*%
%LPD*%
G01*
G04 APERTURE LIST*
G04 Aperture macros list*
%AMRoundRect*
0 Rectangle with rounded corners*
0 $1 Rounding radius*
0 $2 $3 $4 $5 $6 $7 $8 $9 X,Y pos of 4 corners*
0 Add a 4 corners polygon primitive as box body*
4,1,4,$2,$3,$4,$5,$6,$7,$8,$9,$2,$3,0*
0 Add four circle primitives for the rounded corners*
1,1,$1+$1,$2,$3*
1,1,$1+$1,$4,$5*
1,1,$1+$1,$6,$7*
1,1,$1+$1,$8,$9*
0 Add four rect primitives between the rounded corners*
20,1,$1+$1,$2,$3,$4,$5,0*
20,1,$1+$1,$4,$5,$6,$7,0*
20,1,$1+$1,$6,$7,$8,$9,0*
20,1,$1+$1,$8,$9,$2,$3,0*%
G04 Aperture macros list end*
%ADD10C,2.100000*%
%ADD11RoundRect,0.250000X-0.350000X-0.625000X0.350000X-0.625000X0.350000X0.625000X-0.350000X0.625000X0*%
%ADD12O,1.200000X1.750000*%
%ADD13RoundRect,0.197500X-0.632500X0.197500X-0.632500X-0.197500X0.632500X-0.197500X0.632500X0.197500X0*%
%ADD14RoundRect,0.200000X0.275000X-0.200000X0.275000X0.200000X-0.275000X0.200000X-0.275000X-0.200000X0*%
%ADD15RoundRect,0.100000X0.637500X0.100000X-0.637500X0.100000X-0.637500X-0.100000X0.637500X-0.100000X0*%
G04 APERTURE END LIST*
D10*
X145000000Y-116000000D03*
X195000000Y-116000000D03*
D11*
X161000000Y-113000000D03*
D12*
X163000000Y-113000000D03*
X165000000Y-113000000D03*
X167000000Y-113000000D03*
X169000000Y-113000000D03*
X171000000Y-113000000D03*
X173000000Y-113000000D03*
X175000000Y-113000000D03*
X177000000Y-113000000D03*
X179000000Y-113000000D03*
D13*
X126442625Y-109269025D03*
X130442625Y-109269025D03*
X130442625Y-111069025D03*
X126442625Y-111069025D03*
X133558491Y-105950842D03*
X137558491Y-105950842D03*
X137558491Y-107750842D03*
X133558491Y-107750842D03*
X140936478Y-103265474D03*
X144936478Y-103265474D03*
X144936478Y-105065474D03*
X140936478Y-105065474D03*
X148520435Y-101233359D03*
X152520435Y-101233359D03*
X152520435Y-103033359D03*
X148520435Y-103033359D03*
X156252643Y-99869962D03*
X160252643Y-99869962D03*
X160252643Y-101669962D03*
X156252643Y-101669962D03*
X164074255Y-99185660D03*
X168074255Y-99185660D03*
X168074255Y-100985660D03*
X164074255Y-100985660D03*
X187479565Y-101233359D03*
X191479565Y-101233359D03*
X191479565Y-103033359D03*
X187479565Y-103033359D03*
X195063522Y-103265474D03*
X199063522Y-103265474D03*
X199063522Y-105065474D03*
X195063522Y-105065474D03*
X202441509Y-105950842D03*
X206441509Y-105950842D03*
X206441509Y-107750842D03*
X202441509Y-107750842D03*
X209557375Y-109269025D03*
X213557375Y-109269025D03*
X213557375Y-111069025D03*
X209557375Y-111069025D03*
X171925745Y-99185660D03*
X175925745Y-99185660D03*
X175925745Y-100985660D03*
X171925745Y-100985660D03*
X179747357Y-99869962D03*
X183747357Y-99869962D03*
X183747357Y-101669962D03*
X179747357Y-101669962D03*
D14*
X180900000Y-109825000D03*
X180900000Y-108175000D03*
D15*
X166862500Y-104725000D03*
X166862500Y-105375000D03*
X166862500Y-106025000D03*
X166862500Y-106675000D03*
X166862500Y-107325000D03*
X166862500Y-107975000D03*
X166862500Y-108625000D03*
X166862500Y-109275000D03*
X161137500Y-109275000D03*
X161137500Y-108625000D03*
X161137500Y-107975000D03*
X161137500Y-107325000D03*
X161137500Y-106675000D03*
X161137500Y-106025000D03*
X161137500Y-105375000D03*
X161137500Y-104725000D03*
X178862500Y-104725000D03*
X178862500Y-105375000D03*
X178862500Y-106025000D03*
X178862500Y-106675000D03*
X178862500Y-107325000D03*
X178862500Y-107975000D03*
X178862500Y-108625000D03*
X178862500Y-109275000D03*
X173137500Y-109275000D03*
X173137500Y-108625000D03*
X173137500Y-107975000D03*
X173137500Y-107325000D03*
X173137500Y-106675000D03*
X173137500Y-106025000D03*
X173137500Y-105375000D03*
X173137500Y-104725000D03*
D14*
X168770000Y-109075000D03*
X168770000Y-107425000D03*
M02*
