%TF.GenerationSoftware,KiCad,Pcbnew,(6.0.6)*%
%TF.CreationDate,2022-07-17T20:06:38+03:00*%
%TF.ProjectId,Sensor,53656e73-6f72-42e6-9b69-6361645f7063,rev?*%
%TF.SameCoordinates,Original*%
%TF.FileFunction,Copper,L2,Bot*%
%TF.FilePolarity,Positive*%
%FSLAX46Y46*%
G04 Gerber Fmt 4.6, Leading zero omitted, Abs format (unit mm)*
G04 Created by KiCad (PCBNEW (6.0.6)) date 2022-07-17 20:06:38*
%MOMM*%
%LPD*%
G01*
G04 APERTURE LIST*
G04 Aperture macros list*
%AMRoundRect*
0 Rectangle with rounded corners*
0 $1 Rounding radius*
0 $2 $3 $4 $5 $6 $7 $8 $9 X,Y pos of 4 corners*
0 Add a 4 corners polygon primitive as box body*
4,1,4,$2,$3,$4,$5,$6,$7,$8,$9,$2,$3,0*
0 Add four circle primitives for the rounded corners*
1,1,$1+$1,$2,$3*
1,1,$1+$1,$4,$5*
1,1,$1+$1,$6,$7*
1,1,$1+$1,$8,$9*
0 Add four rect primitives between the rounded corners*
20,1,$1+$1,$2,$3,$4,$5,0*
20,1,$1+$1,$4,$5,$6,$7,0*
20,1,$1+$1,$6,$7,$8,$9,0*
20,1,$1+$1,$8,$9,$2,$3,0*%
G04 Aperture macros list end*
%TA.AperFunction,ComponentPad*%
%ADD10RoundRect,0.250000X-0.350000X-0.625000X0.350000X-0.625000X0.350000X0.625000X-0.350000X0.625000X0*%
%TD*%
%TA.AperFunction,ComponentPad*%
%ADD11O,1.200000X1.750000*%
%TD*%
%TA.AperFunction,SMDPad,CuDef*%
%ADD12RoundRect,0.197500X-0.632500X0.197500X-0.632500X-0.197500X0.632500X-0.197500X0.632500X0.197500X0*%
%TD*%
%TA.AperFunction,SMDPad,CuDef*%
%ADD13RoundRect,0.200000X0.275000X-0.200000X0.275000X0.200000X-0.275000X0.200000X-0.275000X-0.200000X0*%
%TD*%
%TA.AperFunction,SMDPad,CuDef*%
%ADD14RoundRect,0.100000X0.637500X0.100000X-0.637500X0.100000X-0.637500X-0.100000X0.637500X-0.100000X0*%
%TD*%
%TA.AperFunction,ViaPad*%
%ADD15C,0.800000*%
%TD*%
%TA.AperFunction,Conductor*%
%ADD16C,0.300000*%
%TD*%
%TA.AperFunction,Conductor*%
%ADD17C,0.800000*%
%TD*%
%TA.AperFunction,Conductor*%
%ADD18C,1.000000*%
%TD*%
G04 APERTURE END LIST*
D10*
X161000000Y-113000000D03*
D11*
X163000000Y-113000000D03*
X165000000Y-113000000D03*
X167000000Y-113000000D03*
X169000000Y-113000000D03*
X171000000Y-113000000D03*
X173000000Y-113000000D03*
X175000000Y-113000000D03*
X177000000Y-113000000D03*
X179000000Y-113000000D03*
D12*
X126442625Y-109269025D03*
X130442625Y-109269025D03*
X130442625Y-111069025D03*
X126442625Y-111069025D03*
X133558491Y-105950842D03*
X137558491Y-105950842D03*
X137558491Y-107750842D03*
X133558491Y-107750842D03*
X140936478Y-103265474D03*
X144936478Y-103265474D03*
X144936478Y-105065474D03*
X140936478Y-105065474D03*
X148520435Y-101233359D03*
X152520435Y-101233359D03*
X152520435Y-103033359D03*
X148520435Y-103033359D03*
X156252643Y-99869962D03*
X160252643Y-99869962D03*
X160252643Y-101669962D03*
X156252643Y-101669962D03*
X164074255Y-99185660D03*
X168074255Y-99185660D03*
X168074255Y-100985660D03*
X164074255Y-100985660D03*
X187479565Y-101233359D03*
X191479565Y-101233359D03*
X191479565Y-103033359D03*
X187479565Y-103033359D03*
X195063522Y-103265474D03*
X199063522Y-103265474D03*
X199063522Y-105065474D03*
X195063522Y-105065474D03*
X202441509Y-105950842D03*
X206441509Y-105950842D03*
X206441509Y-107750842D03*
X202441509Y-107750842D03*
X209557375Y-109269025D03*
X213557375Y-109269025D03*
X213557375Y-111069025D03*
X209557375Y-111069025D03*
X171925745Y-99185660D03*
X175925745Y-99185660D03*
X175925745Y-100985660D03*
X171925745Y-100985660D03*
X179747357Y-99869962D03*
X183747357Y-99869962D03*
X183747357Y-101669962D03*
X179747357Y-101669962D03*
D13*
X180900000Y-109825000D03*
X180900000Y-108175000D03*
D14*
X166862500Y-104725000D03*
X166862500Y-105375000D03*
X166862500Y-106025000D03*
X166862500Y-106675000D03*
X166862500Y-107325000D03*
X166862500Y-107975000D03*
X166862500Y-108625000D03*
X166862500Y-109275000D03*
X161137500Y-109275000D03*
X161137500Y-108625000D03*
X161137500Y-107975000D03*
X161137500Y-107325000D03*
X161137500Y-106675000D03*
X161137500Y-106025000D03*
X161137500Y-105375000D03*
X161137500Y-104725000D03*
X178862500Y-104725000D03*
X178862500Y-105375000D03*
X178862500Y-106025000D03*
X178862500Y-106675000D03*
X178862500Y-107325000D03*
X178862500Y-107975000D03*
X178862500Y-108625000D03*
X178862500Y-109275000D03*
X173137500Y-109275000D03*
X173137500Y-108625000D03*
X173137500Y-107975000D03*
X173137500Y-107325000D03*
X173137500Y-106675000D03*
X173137500Y-106025000D03*
X173137500Y-105375000D03*
X173137500Y-104725000D03*
D13*
X168770000Y-109075000D03*
X168770000Y-107425000D03*
D15*
X173510000Y-103800000D03*
X160762244Y-103782859D03*
X168440000Y-102530000D03*
X181310000Y-101670000D03*
X188082000Y-110440000D03*
X144870000Y-109740000D03*
X141116666Y-109740000D03*
X184920000Y-113460000D03*
X185650000Y-102880000D03*
X142420000Y-105060000D03*
X208630000Y-117380000D03*
X157830000Y-101670000D03*
X131290000Y-115430000D03*
X135560000Y-117380000D03*
X199300000Y-107670000D03*
X198528000Y-110440000D03*
X154760000Y-101680000D03*
X182920000Y-113460000D03*
X149990000Y-103030000D03*
X127020000Y-115430000D03*
X127020000Y-117380000D03*
X203920000Y-107710000D03*
X212900000Y-115430000D03*
X153020000Y-108840000D03*
X135560000Y-115430000D03*
X178200000Y-101660000D03*
X200090000Y-115430000D03*
X182920000Y-111460000D03*
X195046000Y-110440000D03*
X190760000Y-107670000D03*
X184920000Y-111460000D03*
X145530000Y-106720000D03*
X170440000Y-102530000D03*
X150320000Y-117250000D03*
X202010000Y-110440000D03*
X184920000Y-115460000D03*
X164080000Y-101980000D03*
X154730000Y-117250000D03*
X133610000Y-109740000D03*
X186920000Y-115460000D03*
X156940000Y-108840000D03*
X182920000Y-115460000D03*
X208630000Y-115430000D03*
X134990000Y-107730000D03*
X188920000Y-113460000D03*
X169860000Y-108880000D03*
X173430000Y-100960000D03*
X195030000Y-107670000D03*
X137363333Y-109740000D03*
X170390000Y-100980000D03*
X185160000Y-105170000D03*
X204360000Y-115430000D03*
X140940000Y-106700000D03*
X200090000Y-117380000D03*
X139830000Y-117380000D03*
X204360000Y-117380000D03*
X168440000Y-104530000D03*
X165570000Y-100980000D03*
X186920000Y-113460000D03*
X139830000Y-115430000D03*
X208100000Y-110500000D03*
X196640000Y-105060000D03*
X170440000Y-104530000D03*
X192430000Y-105170000D03*
X188795000Y-105170000D03*
X212900000Y-117380000D03*
X205492000Y-110440000D03*
X165580000Y-108610000D03*
X148520000Y-104050000D03*
X151790000Y-117250000D03*
X131290000Y-117380000D03*
X149400000Y-110120000D03*
X153260000Y-117250000D03*
X186490000Y-107670000D03*
X150140000Y-108380000D03*
X189110000Y-103010000D03*
X191564000Y-110440000D03*
X127900000Y-111060000D03*
X181925000Y-107325000D03*
X181620000Y-105540000D03*
X182565000Y-104725000D03*
X174745000Y-106025000D03*
X174650000Y-104820000D03*
X171680000Y-106940000D03*
X166862500Y-103847500D03*
X165480000Y-105110000D03*
X165480000Y-107010000D03*
X158444526Y-105065474D03*
X158795000Y-106025000D03*
X158745000Y-107325000D03*
X158430000Y-113110000D03*
X127950000Y-109260000D03*
X212110000Y-109300000D03*
X174560000Y-108630000D03*
X171490000Y-109240000D03*
D16*
X161137500Y-104725000D02*
X161137500Y-104158115D01*
X173137500Y-104725000D02*
X173137500Y-104172500D01*
X173137500Y-104172500D02*
X173510000Y-103800000D01*
X161137500Y-104158115D02*
X160762244Y-103782859D01*
X168570000Y-109275000D02*
X168770000Y-109075000D01*
D17*
X179747357Y-101669962D02*
X181309962Y-101669962D01*
X149986641Y-103033359D02*
X149990000Y-103030000D01*
X126442625Y-111069025D02*
X127890975Y-111069025D01*
X202441509Y-107750842D02*
X203879158Y-107750842D01*
X208100000Y-110500000D02*
X208669025Y-111069025D01*
X157829962Y-101669962D02*
X157830000Y-101670000D01*
X171925745Y-100985660D02*
X173404340Y-100985660D01*
X127890975Y-111069025D02*
X127900000Y-111060000D01*
X164074255Y-100985660D02*
X165564340Y-100985660D01*
X134969158Y-107750842D02*
X134990000Y-107730000D01*
D16*
X178862500Y-109275000D02*
X180350000Y-109275000D01*
D17*
X173404340Y-100985660D02*
X173430000Y-100960000D01*
X181309962Y-101669962D02*
X181310000Y-101670000D01*
X140936478Y-105065474D02*
X142414526Y-105065474D01*
X196634526Y-105065474D02*
X196640000Y-105060000D01*
X189086641Y-103033359D02*
X189110000Y-103010000D01*
X156252643Y-101669962D02*
X157829962Y-101669962D01*
X195063522Y-105065474D02*
X196634526Y-105065474D01*
X133558491Y-107750842D02*
X134969158Y-107750842D01*
X165564340Y-100985660D02*
X165570000Y-100980000D01*
X203879158Y-107750842D02*
X203920000Y-107710000D01*
X142414526Y-105065474D02*
X142420000Y-105060000D01*
D16*
X180350000Y-109275000D02*
X180900000Y-109825000D01*
D17*
X187479565Y-103033359D02*
X189086641Y-103033359D01*
X208669025Y-111069025D02*
X209557375Y-111069025D01*
X148520435Y-103033359D02*
X149986641Y-103033359D01*
D16*
X166862500Y-109275000D02*
X168570000Y-109275000D01*
X186640000Y-112040000D02*
X212420000Y-112040000D01*
X181925000Y-107325000D02*
X186640000Y-112040000D01*
X178862500Y-107325000D02*
X181925000Y-107325000D01*
X213390975Y-111069025D02*
X213557375Y-111069025D01*
X212420000Y-112040000D02*
X213390975Y-111069025D01*
X181620000Y-105540000D02*
X185030000Y-108950000D01*
X185030000Y-108950000D02*
X205242351Y-108950000D01*
X181455000Y-105375000D02*
X181620000Y-105540000D01*
X178862500Y-105375000D02*
X181455000Y-105375000D01*
X205242351Y-108950000D02*
X206441509Y-107750842D01*
X178862500Y-104725000D02*
X182565000Y-104725000D01*
X197838996Y-106290000D02*
X199063522Y-105065474D01*
X182565000Y-104725000D02*
X184130000Y-106290000D01*
X184130000Y-106290000D02*
X197838996Y-106290000D01*
X175125000Y-106025000D02*
X174745000Y-106025000D01*
X177270000Y-103880000D02*
X175125000Y-106025000D01*
X191479565Y-103033359D02*
X190632924Y-103880000D01*
X174745000Y-106025000D02*
X173137500Y-106025000D01*
X190632924Y-103880000D02*
X177270000Y-103880000D01*
X183747357Y-101669962D02*
X182377319Y-103040000D01*
X176430000Y-103040000D02*
X174650000Y-104820000D01*
X182377319Y-103040000D02*
X176430000Y-103040000D01*
X174095000Y-105375000D02*
X173137500Y-105375000D01*
X174650000Y-104820000D02*
X174095000Y-105375000D01*
X171680000Y-106940000D02*
X171350000Y-106610000D01*
X174904340Y-100985660D02*
X175925745Y-100985660D01*
X173137500Y-107325000D02*
X172065000Y-107325000D01*
X171350000Y-106610000D02*
X171350000Y-104540000D01*
X171350000Y-104540000D02*
X174904340Y-100985660D01*
X172065000Y-107325000D02*
X171680000Y-106940000D01*
X166862500Y-103847500D02*
X166862500Y-102197415D01*
X166862500Y-104725000D02*
X166862500Y-103847500D01*
X166862500Y-102197415D02*
X168074255Y-100985660D01*
X165480000Y-105110000D02*
X162039962Y-101669962D01*
X166862500Y-105375000D02*
X165745000Y-105375000D01*
X162039962Y-101669962D02*
X160252643Y-101669962D01*
X165745000Y-105375000D02*
X165480000Y-105110000D01*
X166862500Y-107325000D02*
X165795000Y-107325000D01*
X161503359Y-103033359D02*
X152520435Y-103033359D01*
X165480000Y-107010000D02*
X161503359Y-103033359D01*
X165795000Y-107325000D02*
X165480000Y-107010000D01*
X158444526Y-105065474D02*
X144936478Y-105065474D01*
X159585474Y-105065474D02*
X158444526Y-105065474D01*
X161137500Y-105375000D02*
X159895000Y-105375000D01*
X159585474Y-105065474D02*
X159895000Y-105375000D01*
X137558491Y-107750842D02*
X147489158Y-107750842D01*
X147489158Y-107750842D02*
X149215000Y-106025000D01*
X158795000Y-106025000D02*
X161137500Y-106025000D01*
X149215000Y-106025000D02*
X158795000Y-106025000D01*
X158745000Y-107325000D02*
X149795000Y-107325000D01*
X149795000Y-107325000D02*
X146050975Y-111069025D01*
X161137500Y-107325000D02*
X158745000Y-107325000D01*
X146050975Y-111069025D02*
X130442625Y-111069025D01*
X163420000Y-111420000D02*
X165000000Y-113000000D01*
X160120000Y-111420000D02*
X163420000Y-111420000D01*
X158430000Y-113110000D02*
X160120000Y-111420000D01*
D18*
X132369158Y-105950842D02*
X130442625Y-107877375D01*
X133558491Y-105950842D02*
X132369158Y-105950842D01*
X130442625Y-107877375D02*
X130442625Y-109269025D01*
X139394526Y-103265474D02*
X140936478Y-103265474D01*
X137558491Y-105101509D02*
X139394526Y-103265474D01*
X137558491Y-105950842D02*
X137558491Y-105101509D01*
X146796641Y-101233359D02*
X148520435Y-101233359D01*
X144936478Y-103093522D02*
X146796641Y-101233359D01*
D17*
X144936478Y-103265474D02*
X144936478Y-103093522D01*
D18*
X161160038Y-99869962D02*
X160252643Y-99869962D01*
X161844340Y-99185660D02*
X161160038Y-99869962D01*
X164074255Y-99185660D02*
X161844340Y-99185660D01*
X168074255Y-99185660D02*
X171925745Y-99185660D01*
X175925745Y-99185660D02*
X179063055Y-99185660D01*
X179063055Y-99185660D02*
X179747357Y-99869962D01*
X127950000Y-109260000D02*
X126451650Y-109260000D01*
D17*
X126451650Y-109260000D02*
X126442625Y-109269025D01*
D18*
X193031407Y-101233359D02*
X195063522Y-103265474D01*
X191479565Y-101233359D02*
X193031407Y-101233359D01*
X200515474Y-103265474D02*
X202441509Y-105191509D01*
X202441509Y-105191509D02*
X202441509Y-105950842D01*
X199063522Y-103265474D02*
X200515474Y-103265474D01*
X213557375Y-109269025D02*
X212140975Y-109269025D01*
D17*
X212140975Y-109269025D02*
X212110000Y-109300000D01*
D16*
X163375000Y-108625000D02*
X166080000Y-111330000D01*
X169000000Y-112850000D02*
X169000000Y-113000000D01*
X174560000Y-108630000D02*
X173142500Y-108630000D01*
X167480000Y-111330000D02*
X169000000Y-112850000D01*
X161137500Y-108625000D02*
X163375000Y-108625000D01*
X173142500Y-108630000D02*
X173137500Y-108625000D01*
X166080000Y-111330000D02*
X167480000Y-111330000D01*
X171000000Y-112920000D02*
X171000000Y-113000000D01*
X168550000Y-110470000D02*
X171000000Y-112920000D01*
X161137500Y-106675000D02*
X162425000Y-106675000D01*
X162425000Y-106675000D02*
X166220000Y-110470000D01*
X166220000Y-110470000D02*
X168550000Y-110470000D01*
X168805000Y-106025000D02*
X170640000Y-107860000D01*
X173000000Y-112200000D02*
X173000000Y-113000000D01*
X170640000Y-107860000D02*
X170640000Y-109840000D01*
X170640000Y-109840000D02*
X173000000Y-112200000D01*
X166862500Y-106025000D02*
X168805000Y-106025000D01*
X175290000Y-108960661D02*
X175290000Y-112710000D01*
X173137500Y-106675000D02*
X173861396Y-106675000D01*
X175310000Y-108123604D02*
X175310000Y-108940661D01*
X175290000Y-112710000D02*
X175000000Y-113000000D01*
X173861396Y-106675000D02*
X175310000Y-108123604D01*
X175310000Y-108940661D02*
X175290000Y-108960661D01*
X177010000Y-112990000D02*
X177000000Y-113000000D01*
X178065000Y-105965000D02*
X177400000Y-106630000D01*
X178972500Y-105965000D02*
X178065000Y-105965000D01*
X177290000Y-106690000D02*
X177010000Y-106970000D01*
X177010000Y-106970000D02*
X177010000Y-112990000D01*
X171525000Y-109275000D02*
X173137500Y-109275000D01*
X163145000Y-109275000D02*
X166870000Y-113000000D01*
X171490000Y-109240000D02*
X171525000Y-109275000D01*
X161137500Y-109275000D02*
X163145000Y-109275000D01*
X166870000Y-113000000D02*
X167000000Y-113000000D01*
X166862500Y-107975000D02*
X168220000Y-107975000D01*
X168220000Y-107975000D02*
X168770000Y-107425000D01*
X180700000Y-107975000D02*
X180900000Y-108175000D01*
X178862500Y-107975000D02*
X180700000Y-107975000D01*
D18*
X187479565Y-101233359D02*
X187013359Y-101233359D01*
X185649962Y-99869962D02*
X183747357Y-99869962D01*
X187013359Y-101233359D02*
X185649962Y-99869962D01*
X154220038Y-99869962D02*
X156252643Y-99869962D01*
X152856641Y-101233359D02*
X154220038Y-99869962D01*
X152520435Y-101233359D02*
X152856641Y-101233359D01*
X209557375Y-107927375D02*
X209557375Y-109269025D01*
X207580842Y-105950842D02*
X209557375Y-107927375D01*
X206441509Y-105950842D02*
X207580842Y-105950842D01*
%TA.AperFunction,Conductor*%
G36*
X170990701Y-97709300D02*
G01*
X172966903Y-97748199D01*
X172969297Y-97748271D01*
X174944276Y-97826051D01*
X174946704Y-97826171D01*
X175913480Y-97883320D01*
X176919730Y-97942802D01*
X176922204Y-97942972D01*
X178087860Y-98034929D01*
X178892651Y-98098418D01*
X178895085Y-98098634D01*
X180862006Y-98292820D01*
X180864438Y-98293084D01*
X182827175Y-98525944D01*
X182829598Y-98526256D01*
X184787452Y-98797708D01*
X184789797Y-98798057D01*
X184916766Y-98818215D01*
X184921842Y-98819021D01*
X184985984Y-98849457D01*
X185023488Y-98909739D01*
X185022448Y-98980728D01*
X184983193Y-99039885D01*
X184918187Y-99068429D01*
X184902085Y-99069462D01*
X183702202Y-99069462D01*
X183568885Y-99084416D01*
X183562232Y-99086733D01*
X183562231Y-99086733D01*
X183505548Y-99106472D01*
X183399284Y-99143477D01*
X183393306Y-99147213D01*
X183393305Y-99147213D01*
X183380339Y-99155315D01*
X183313568Y-99174462D01*
X183067719Y-99174462D01*
X183006819Y-99181078D01*
X182999423Y-99183850D01*
X182999421Y-99183851D01*
X182881653Y-99227999D01*
X182881650Y-99228000D01*
X182873246Y-99231151D01*
X182759097Y-99316702D01*
X182673546Y-99430851D01*
X182670395Y-99439255D01*
X182670394Y-99439258D01*
X182663788Y-99456881D01*
X182623473Y-99564424D01*
X182616857Y-99625324D01*
X182616857Y-100114600D01*
X182623473Y-100175500D01*
X182626245Y-100182896D01*
X182626246Y-100182898D01*
X182669976Y-100299549D01*
X182673546Y-100309073D01*
X182759097Y-100423222D01*
X182766274Y-100428601D01*
X182771276Y-100432350D01*
X182873246Y-100508773D01*
X182881650Y-100511924D01*
X182881653Y-100511925D01*
X182999421Y-100556073D01*
X182999423Y-100556074D01*
X183006819Y-100558846D01*
X183067719Y-100565462D01*
X183311663Y-100565462D01*
X183376899Y-100584661D01*
X183376945Y-100584568D01*
X183377475Y-100584831D01*
X183379915Y-100585549D01*
X183389174Y-100591516D01*
X183395794Y-100593925D01*
X183395797Y-100593927D01*
X183551318Y-100650532D01*
X183551321Y-100650533D01*
X183557935Y-100652940D01*
X183602835Y-100658612D01*
X183692712Y-100669966D01*
X183692715Y-100669966D01*
X183696640Y-100670462D01*
X185266194Y-100670462D01*
X185334315Y-100690464D01*
X185355289Y-100707367D01*
X186440840Y-101792918D01*
X186441769Y-101793856D01*
X186504218Y-101857627D01*
X186510138Y-101861442D01*
X186510144Y-101861447D01*
X186540250Y-101880849D01*
X186550604Y-101888289D01*
X186584093Y-101915023D01*
X186590431Y-101918087D01*
X186590436Y-101918090D01*
X186613912Y-101929438D01*
X186627332Y-101936969D01*
X186649250Y-101951095D01*
X186649258Y-101951099D01*
X186655176Y-101954913D01*
X186661796Y-101957323D01*
X186661797Y-101957323D01*
X186695447Y-101969571D01*
X186707191Y-101974532D01*
X186739440Y-101990122D01*
X186739446Y-101990124D01*
X186745782Y-101993187D01*
X186752637Y-101994770D01*
X186752641Y-101994771D01*
X186778069Y-102000641D01*
X186792819Y-102005011D01*
X186817314Y-102013927D01*
X186817319Y-102013928D01*
X186823937Y-102016337D01*
X186866471Y-102021710D01*
X186878987Y-102023940D01*
X186920770Y-102033586D01*
X186927808Y-102033610D01*
X186927813Y-102033611D01*
X186960952Y-102033726D01*
X186961819Y-102033755D01*
X186962642Y-102033859D01*
X186998938Y-102033859D01*
X186999377Y-102033860D01*
X187096868Y-102034200D01*
X187096871Y-102034200D01*
X187100360Y-102034212D01*
X187101548Y-102033946D01*
X187103161Y-102033859D01*
X187524720Y-102033859D01*
X187658037Y-102018905D01*
X187665412Y-102016337D01*
X187757608Y-101984231D01*
X187827638Y-101959844D01*
X187841636Y-101951097D01*
X187846583Y-101948006D01*
X187913354Y-101928859D01*
X188159203Y-101928859D01*
X188220103Y-101922243D01*
X188227499Y-101919471D01*
X188227501Y-101919470D01*
X188345269Y-101875322D01*
X188345272Y-101875321D01*
X188353676Y-101872170D01*
X188467825Y-101786619D01*
X188553376Y-101672470D01*
X188573554Y-101618646D01*
X188600676Y-101546295D01*
X188600677Y-101546293D01*
X188603449Y-101538897D01*
X188610065Y-101477997D01*
X188610065Y-100988721D01*
X188603449Y-100927821D01*
X188600676Y-100920423D01*
X188556528Y-100802655D01*
X188556527Y-100802652D01*
X188553376Y-100794248D01*
X188467825Y-100680099D01*
X188353676Y-100594548D01*
X188345272Y-100591397D01*
X188345269Y-100591396D01*
X188227501Y-100547248D01*
X188227499Y-100547247D01*
X188220103Y-100544475D01*
X188159203Y-100537859D01*
X187915259Y-100537859D01*
X187850023Y-100518660D01*
X187849977Y-100518753D01*
X187849447Y-100518490D01*
X187847007Y-100517772D01*
X187837748Y-100511805D01*
X187831128Y-100509396D01*
X187831125Y-100509394D01*
X187675604Y-100452789D01*
X187675601Y-100452788D01*
X187668987Y-100450381D01*
X187583486Y-100439580D01*
X187534210Y-100433355D01*
X187534207Y-100433355D01*
X187530282Y-100432859D01*
X187397127Y-100432859D01*
X187329006Y-100412857D01*
X187308032Y-100395954D01*
X186222481Y-99310403D01*
X186221552Y-99309465D01*
X186159103Y-99245694D01*
X186161331Y-99243512D01*
X186128994Y-99196277D01*
X186126927Y-99125310D01*
X186163555Y-99064492D01*
X186227250Y-99033131D01*
X186268560Y-99032833D01*
X186741924Y-99107987D01*
X186744277Y-99108384D01*
X188689854Y-99456659D01*
X188692232Y-99457108D01*
X190630677Y-99843624D01*
X190633040Y-99844119D01*
X191862820Y-100114600D01*
X192177448Y-100183800D01*
X192239682Y-100217968D01*
X192273564Y-100280359D01*
X192268336Y-100351162D01*
X192225659Y-100407900D01*
X192159082Y-100432558D01*
X192150382Y-100432859D01*
X191434410Y-100432859D01*
X191301093Y-100447813D01*
X191294440Y-100450130D01*
X191294439Y-100450130D01*
X191236763Y-100470215D01*
X191131492Y-100506874D01*
X191125514Y-100510610D01*
X191125513Y-100510610D01*
X191112547Y-100518712D01*
X191045776Y-100537859D01*
X190799927Y-100537859D01*
X190739027Y-100544475D01*
X190731631Y-100547247D01*
X190731629Y-100547248D01*
X190613861Y-100591396D01*
X190613858Y-100591397D01*
X190605454Y-100594548D01*
X190491305Y-100680099D01*
X190405754Y-100794248D01*
X190402603Y-100802652D01*
X190402602Y-100802655D01*
X190358454Y-100920423D01*
X190355681Y-100927821D01*
X190349065Y-100988721D01*
X190349065Y-101477997D01*
X190355681Y-101538897D01*
X190358453Y-101546293D01*
X190358454Y-101546295D01*
X190385577Y-101618646D01*
X190405754Y-101672470D01*
X190491305Y-101786619D01*
X190605454Y-101872170D01*
X190613858Y-101875321D01*
X190613861Y-101875322D01*
X190731629Y-101919470D01*
X190731631Y-101919471D01*
X190739027Y-101922243D01*
X190799927Y-101928859D01*
X191043871Y-101928859D01*
X191109107Y-101948058D01*
X191109153Y-101947965D01*
X191109683Y-101948228D01*
X191112123Y-101948946D01*
X191121382Y-101954913D01*
X191128002Y-101957322D01*
X191128005Y-101957324D01*
X191283526Y-102013929D01*
X191283529Y-102013930D01*
X191290143Y-102016337D01*
X191338993Y-102022508D01*
X191424920Y-102033363D01*
X191424923Y-102033363D01*
X191428848Y-102033859D01*
X192647639Y-102033859D01*
X192715760Y-102053861D01*
X192736734Y-102070764D01*
X193896117Y-103230147D01*
X193930143Y-103292459D01*
X193933022Y-103319242D01*
X193933022Y-103510112D01*
X193939638Y-103571012D01*
X193942410Y-103578408D01*
X193942411Y-103578410D01*
X193983014Y-103686720D01*
X193989711Y-103704585D01*
X194035563Y-103765764D01*
X194069206Y-103810653D01*
X194075262Y-103818734D01*
X194189411Y-103904285D01*
X194197815Y-103907436D01*
X194197818Y-103907437D01*
X194315586Y-103951585D01*
X194315588Y-103951586D01*
X194322984Y-103954358D01*
X194383884Y-103960974D01*
X194634019Y-103960974D01*
X194688858Y-103973534D01*
X194708878Y-103983212D01*
X194795945Y-104025302D01*
X194970933Y-104065701D01*
X194977972Y-104065726D01*
X194977976Y-104065726D01*
X195060409Y-104066013D01*
X195150523Y-104066327D01*
X195157389Y-104064792D01*
X195157392Y-104064792D01*
X195280903Y-104037184D01*
X195325789Y-104027151D01*
X195439506Y-103973154D01*
X195493552Y-103960974D01*
X195743160Y-103960974D01*
X195804060Y-103954358D01*
X195811456Y-103951586D01*
X195811458Y-103951585D01*
X195929226Y-103907437D01*
X195929229Y-103907436D01*
X195937633Y-103904285D01*
X196051782Y-103818734D01*
X196057839Y-103810653D01*
X196091481Y-103765764D01*
X196137333Y-103704585D01*
X196144031Y-103686720D01*
X196184633Y-103578410D01*
X196184634Y-103578408D01*
X196187406Y-103571012D01*
X196194022Y-103510112D01*
X196194022Y-103020836D01*
X196187406Y-102959936D01*
X196183570Y-102949703D01*
X196140485Y-102834770D01*
X196140484Y-102834767D01*
X196137333Y-102826363D01*
X196051782Y-102712214D01*
X195937633Y-102626663D01*
X195929229Y-102623512D01*
X195929226Y-102623511D01*
X195811458Y-102579363D01*
X195811456Y-102579362D01*
X195804060Y-102576590D01*
X195743160Y-102569974D01*
X195552290Y-102569974D01*
X195484169Y-102549972D01*
X195463195Y-102533069D01*
X193716416Y-100786290D01*
X193682390Y-100723978D01*
X193687455Y-100653163D01*
X193730002Y-100596327D01*
X193796522Y-100571516D01*
X193834991Y-100574693D01*
X194404314Y-100711710D01*
X194487443Y-100731717D01*
X194489848Y-100732321D01*
X196401974Y-101232516D01*
X196404367Y-101233167D01*
X198306291Y-101770899D01*
X198308669Y-101771596D01*
X198599108Y-101859921D01*
X199777981Y-102218425D01*
X199837335Y-102257382D01*
X199866205Y-102322243D01*
X199855426Y-102392417D01*
X199808419Y-102445622D01*
X199741321Y-102464974D01*
X199018367Y-102464974D01*
X198885050Y-102479928D01*
X198878397Y-102482245D01*
X198878396Y-102482245D01*
X198810071Y-102506038D01*
X198715449Y-102538989D01*
X198709471Y-102542725D01*
X198709470Y-102542725D01*
X198696504Y-102550827D01*
X198629733Y-102569974D01*
X198383884Y-102569974D01*
X198322984Y-102576590D01*
X198315588Y-102579362D01*
X198315586Y-102579363D01*
X198197818Y-102623511D01*
X198197815Y-102623512D01*
X198189411Y-102626663D01*
X198075262Y-102712214D01*
X197989711Y-102826363D01*
X197986560Y-102834767D01*
X197986559Y-102834770D01*
X197943474Y-102949703D01*
X197939638Y-102959936D01*
X197933022Y-103020836D01*
X197933022Y-103510112D01*
X197939638Y-103571012D01*
X197942410Y-103578408D01*
X197942411Y-103578410D01*
X197983014Y-103686720D01*
X197989711Y-103704585D01*
X198035563Y-103765764D01*
X198069206Y-103810653D01*
X198075262Y-103818734D01*
X198189411Y-103904285D01*
X198197815Y-103907436D01*
X198197818Y-103907437D01*
X198315586Y-103951585D01*
X198315588Y-103951586D01*
X198322984Y-103954358D01*
X198383884Y-103960974D01*
X198627828Y-103960974D01*
X198693064Y-103980173D01*
X198693110Y-103980080D01*
X198693640Y-103980343D01*
X198696080Y-103981061D01*
X198705339Y-103987028D01*
X198711959Y-103989437D01*
X198711962Y-103989439D01*
X198867483Y-104046044D01*
X198867486Y-104046045D01*
X198874100Y-104048452D01*
X198900643Y-104051805D01*
X199008877Y-104065478D01*
X199008880Y-104065478D01*
X199012805Y-104065974D01*
X200131706Y-104065974D01*
X200199827Y-104085976D01*
X200220801Y-104102879D01*
X201402673Y-105284751D01*
X201436699Y-105347063D01*
X201431634Y-105417878D01*
X201414404Y-105449412D01*
X201367698Y-105511731D01*
X201364547Y-105520135D01*
X201364546Y-105520138D01*
X201320398Y-105637906D01*
X201317625Y-105645304D01*
X201316772Y-105653157D01*
X201311714Y-105699719D01*
X201311009Y-105706204D01*
X201311009Y-106195480D01*
X201317625Y-106256380D01*
X201320397Y-106263776D01*
X201320398Y-106263778D01*
X201364211Y-106380650D01*
X201367698Y-106389953D01*
X201419817Y-106459494D01*
X201447522Y-106496460D01*
X201453249Y-106504102D01*
X201460426Y-106509481D01*
X201478149Y-106522764D01*
X201567398Y-106589653D01*
X201575802Y-106592804D01*
X201575805Y-106592805D01*
X201693573Y-106636953D01*
X201693575Y-106636954D01*
X201700971Y-106639726D01*
X201761871Y-106646342D01*
X202006800Y-106646342D01*
X202074311Y-106665955D01*
X202088373Y-106674879D01*
X202118157Y-106685485D01*
X202250923Y-106732761D01*
X202250928Y-106732762D01*
X202257558Y-106735123D01*
X202264544Y-106735956D01*
X202264548Y-106735957D01*
X202386305Y-106750475D01*
X202435885Y-106756387D01*
X202442888Y-106755651D01*
X202442889Y-106755651D01*
X202607484Y-106738352D01*
X202607488Y-106738351D01*
X202614492Y-106737615D01*
X202646370Y-106726763D01*
X202777832Y-106682010D01*
X202777835Y-106682009D01*
X202784502Y-106679739D01*
X202794496Y-106673591D01*
X202808421Y-106665024D01*
X202874443Y-106646342D01*
X203121147Y-106646342D01*
X203182047Y-106639726D01*
X203189443Y-106636954D01*
X203189445Y-106636953D01*
X203307213Y-106592805D01*
X203307216Y-106592804D01*
X203315620Y-106589653D01*
X203404869Y-106522764D01*
X203422592Y-106509481D01*
X203429769Y-106504102D01*
X203435497Y-106496460D01*
X203463201Y-106459494D01*
X203515320Y-106389953D01*
X203518808Y-106380650D01*
X203562620Y-106263778D01*
X203562621Y-106263776D01*
X203565393Y-106256380D01*
X203572009Y-106195480D01*
X203572009Y-105706204D01*
X203571305Y-105699719D01*
X203566246Y-105653157D01*
X203565393Y-105645304D01*
X203562620Y-105637906D01*
X203518472Y-105520138D01*
X203518471Y-105520135D01*
X203515320Y-105511731D01*
X203429769Y-105397582D01*
X203374270Y-105355987D01*
X203322799Y-105317411D01*
X203322797Y-105317410D01*
X203315620Y-105312031D01*
X203307440Y-105308964D01*
X203257376Y-105258790D01*
X203242038Y-105197209D01*
X203242876Y-105117149D01*
X203242950Y-105110102D01*
X203233893Y-105068213D01*
X203231833Y-105055635D01*
X203227840Y-105020033D01*
X203227839Y-105020031D01*
X203227055Y-105013037D01*
X203216159Y-104981750D01*
X203211998Y-104966945D01*
X203206486Y-104941448D01*
X203206485Y-104941445D01*
X203204998Y-104934567D01*
X203186879Y-104895710D01*
X203182095Y-104883927D01*
X203167994Y-104843436D01*
X203150439Y-104815342D01*
X203143098Y-104801822D01*
X203132077Y-104778186D01*
X203132076Y-104778185D01*
X203129100Y-104771802D01*
X203119059Y-104758857D01*
X203102835Y-104737942D01*
X203095540Y-104727485D01*
X203076559Y-104697109D01*
X203076557Y-104697106D01*
X203072825Y-104691134D01*
X203067862Y-104686136D01*
X203044506Y-104662616D01*
X203043924Y-104661994D01*
X203043410Y-104661332D01*
X203017550Y-104635472D01*
X202946279Y-104563702D01*
X202945252Y-104563050D01*
X202944044Y-104561966D01*
X201356020Y-102973942D01*
X201321994Y-102911630D01*
X201327059Y-102840815D01*
X201369606Y-102783979D01*
X201436126Y-102759168D01*
X201484140Y-102765043D01*
X202081309Y-102959566D01*
X202083659Y-102960357D01*
X203950535Y-103609384D01*
X203952869Y-103610221D01*
X204454861Y-103795892D01*
X205806660Y-104295880D01*
X205808879Y-104296725D01*
X207144499Y-104820836D01*
X207364200Y-104907049D01*
X207420306Y-104950553D01*
X207443986Y-105017484D01*
X207427721Y-105086593D01*
X207376676Y-105135937D01*
X207318173Y-105150342D01*
X206396354Y-105150342D01*
X206263037Y-105165296D01*
X206256384Y-105167613D01*
X206256383Y-105167613D01*
X206199698Y-105187353D01*
X206093436Y-105224357D01*
X206087458Y-105228093D01*
X206087457Y-105228093D01*
X206074491Y-105236195D01*
X206007720Y-105255342D01*
X205761871Y-105255342D01*
X205700971Y-105261958D01*
X205693575Y-105264730D01*
X205693573Y-105264731D01*
X205575805Y-105308879D01*
X205575802Y-105308880D01*
X205567398Y-105312031D01*
X205453249Y-105397582D01*
X205367698Y-105511731D01*
X205364547Y-105520135D01*
X205364546Y-105520138D01*
X205320398Y-105637906D01*
X205317625Y-105645304D01*
X205316772Y-105653157D01*
X205311714Y-105699719D01*
X205311009Y-105706204D01*
X205311009Y-106195480D01*
X205317625Y-106256380D01*
X205320397Y-106263776D01*
X205320398Y-106263778D01*
X205364211Y-106380650D01*
X205367698Y-106389953D01*
X205419817Y-106459494D01*
X205447522Y-106496460D01*
X205453249Y-106504102D01*
X205460426Y-106509481D01*
X205478149Y-106522764D01*
X205567398Y-106589653D01*
X205575802Y-106592804D01*
X205575805Y-106592805D01*
X205693573Y-106636953D01*
X205693575Y-106636954D01*
X205700971Y-106639726D01*
X205761871Y-106646342D01*
X206005815Y-106646342D01*
X206071051Y-106665541D01*
X206071097Y-106665448D01*
X206071627Y-106665711D01*
X206074067Y-106666429D01*
X206083326Y-106672396D01*
X206089946Y-106674805D01*
X206089949Y-106674807D01*
X206245470Y-106731412D01*
X206245473Y-106731413D01*
X206252087Y-106733820D01*
X206287963Y-106738352D01*
X206386864Y-106750846D01*
X206386867Y-106750846D01*
X206390792Y-106751342D01*
X207197074Y-106751342D01*
X207265195Y-106771344D01*
X207286169Y-106788247D01*
X207375251Y-106877329D01*
X207409277Y-106939641D01*
X207404212Y-107010456D01*
X207361665Y-107067292D01*
X207295145Y-107092103D01*
X207241929Y-107084406D01*
X207182047Y-107061958D01*
X207136479Y-107057008D01*
X207124544Y-107055711D01*
X207124543Y-107055711D01*
X207121147Y-107055342D01*
X205761871Y-107055342D01*
X205758475Y-107055711D01*
X205758474Y-107055711D01*
X205746539Y-107057008D01*
X205700971Y-107061958D01*
X205693575Y-107064730D01*
X205693573Y-107064731D01*
X205575805Y-107108879D01*
X205575802Y-107108880D01*
X205567398Y-107112031D01*
X205498609Y-107163586D01*
X205465250Y-107188588D01*
X205453249Y-107197582D01*
X205447870Y-107204759D01*
X205444847Y-107208793D01*
X205367698Y-107311731D01*
X205364547Y-107320135D01*
X205364546Y-107320138D01*
X205322248Y-107432971D01*
X205317625Y-107445304D01*
X205311009Y-107506204D01*
X205311009Y-107995480D01*
X205317625Y-108056380D01*
X205320397Y-108063773D01*
X205320397Y-108063775D01*
X205338567Y-108112244D01*
X205343750Y-108183052D01*
X205309680Y-108245568D01*
X205092653Y-108462595D01*
X205030341Y-108496621D01*
X205003558Y-108499500D01*
X203534592Y-108499500D01*
X203466471Y-108479498D01*
X203419978Y-108425842D01*
X203409874Y-108355568D01*
X203433766Y-108297934D01*
X203509497Y-108196888D01*
X203518027Y-108181307D01*
X203524962Y-108162807D01*
X203525992Y-108148740D01*
X203520706Y-108145842D01*
X201369811Y-108145842D01*
X201356280Y-108149815D01*
X201355422Y-108155782D01*
X201364991Y-108181307D01*
X201373521Y-108196888D01*
X201449252Y-108297934D01*
X201474100Y-108364441D01*
X201459047Y-108433823D01*
X201408873Y-108484054D01*
X201348426Y-108499500D01*
X185268793Y-108499500D01*
X185200672Y-108479498D01*
X185179698Y-108462595D01*
X184070047Y-107352944D01*
X201357026Y-107352944D01*
X201362312Y-107355842D01*
X202028394Y-107355842D01*
X202043633Y-107351367D01*
X202044838Y-107349977D01*
X202046509Y-107342294D01*
X202046509Y-107337727D01*
X202836509Y-107337727D01*
X202840984Y-107352966D01*
X202842374Y-107354171D01*
X202850057Y-107355842D01*
X203513207Y-107355842D01*
X203526738Y-107351869D01*
X203527596Y-107345902D01*
X203518027Y-107320377D01*
X203509495Y-107304792D01*
X203434794Y-107205120D01*
X203422231Y-107192557D01*
X203322559Y-107117856D01*
X203306974Y-107109324D01*
X203189333Y-107065223D01*
X203174087Y-107061598D01*
X203124499Y-107056211D01*
X203117685Y-107055842D01*
X202854624Y-107055842D01*
X202839385Y-107060317D01*
X202838180Y-107061707D01*
X202836509Y-107069390D01*
X202836509Y-107337727D01*
X202046509Y-107337727D01*
X202046509Y-107073958D01*
X202042034Y-107058719D01*
X202040644Y-107057514D01*
X202032961Y-107055843D01*
X201765335Y-107055843D01*
X201758517Y-107056212D01*
X201708938Y-107061597D01*
X201693679Y-107065226D01*
X201576044Y-107109324D01*
X201560459Y-107117856D01*
X201460787Y-107192557D01*
X201448224Y-107205120D01*
X201373523Y-107304792D01*
X201364991Y-107320377D01*
X201358056Y-107338877D01*
X201357026Y-107352944D01*
X184070047Y-107352944D01*
X182362382Y-105645279D01*
X182328356Y-105582967D01*
X182326328Y-105554793D01*
X182325490Y-105554784D01*
X182325575Y-105546637D01*
X182346287Y-105478729D01*
X182400424Y-105432799D01*
X182466562Y-105423415D01*
X182469233Y-105424116D01*
X182578503Y-105425832D01*
X182646300Y-105446901D01*
X182665618Y-105462721D01*
X183787247Y-106584350D01*
X183797101Y-106595439D01*
X183811433Y-106613618D01*
X183818128Y-106622110D01*
X183825875Y-106627465D01*
X183825877Y-106627466D01*
X183839604Y-106636953D01*
X183864668Y-106654275D01*
X183866375Y-106655455D01*
X183869587Y-106657750D01*
X183880590Y-106665877D01*
X183899358Y-106679739D01*
X183916816Y-106692634D01*
X183923632Y-106695027D01*
X183929569Y-106699131D01*
X183938549Y-106701971D01*
X183938551Y-106701972D01*
X183952474Y-106706375D01*
X183985519Y-106716826D01*
X183989250Y-106718071D01*
X184035737Y-106734396D01*
X184035739Y-106734396D01*
X184044631Y-106737519D01*
X184051819Y-106737801D01*
X184051878Y-106737812D01*
X184058730Y-106739980D01*
X184065337Y-106740500D01*
X184118016Y-106740500D01*
X184122962Y-106740597D01*
X184179994Y-106742838D01*
X184187100Y-106740954D01*
X184195344Y-106740500D01*
X197804776Y-106740500D01*
X197819585Y-106741373D01*
X197853306Y-106745364D01*
X197862570Y-106743672D01*
X197862571Y-106743672D01*
X197910997Y-106734828D01*
X197914900Y-106734178D01*
X197963641Y-106726850D01*
X197963642Y-106726850D01*
X197972958Y-106725449D01*
X197979471Y-106722321D01*
X197986569Y-106721025D01*
X198038643Y-106693975D01*
X198042133Y-106692232D01*
X198095075Y-106666809D01*
X198100361Y-106661923D01*
X198100409Y-106661890D01*
X198106784Y-106658579D01*
X198111824Y-106654275D01*
X198149051Y-106617048D01*
X198152617Y-106613618D01*
X198172283Y-106595439D01*
X198194552Y-106574854D01*
X198198245Y-106568495D01*
X198203762Y-106562337D01*
X198968220Y-105797879D01*
X199030532Y-105763853D01*
X199057315Y-105760974D01*
X199743160Y-105760974D01*
X199747763Y-105760474D01*
X199774843Y-105757532D01*
X199804060Y-105754358D01*
X199811456Y-105751586D01*
X199811458Y-105751585D01*
X199929226Y-105707437D01*
X199929229Y-105707436D01*
X199937633Y-105704285D01*
X200051782Y-105618734D01*
X200057432Y-105611196D01*
X200090999Y-105566408D01*
X200137333Y-105504585D01*
X200140575Y-105495939D01*
X200184633Y-105378410D01*
X200184634Y-105378407D01*
X200187406Y-105371012D01*
X200194022Y-105310112D01*
X200194022Y-104820836D01*
X200187406Y-104759936D01*
X200184633Y-104752538D01*
X200140485Y-104634770D01*
X200140484Y-104634767D01*
X200137333Y-104626363D01*
X200057475Y-104519810D01*
X200057161Y-104519391D01*
X200051782Y-104512214D01*
X200035080Y-104499696D01*
X200017929Y-104486842D01*
X199937633Y-104426663D01*
X199929229Y-104423512D01*
X199929226Y-104423511D01*
X199811458Y-104379363D01*
X199811456Y-104379362D01*
X199804060Y-104376590D01*
X199758492Y-104371640D01*
X199746557Y-104370343D01*
X199746556Y-104370343D01*
X199743160Y-104369974D01*
X198383884Y-104369974D01*
X198380488Y-104370343D01*
X198380487Y-104370343D01*
X198368552Y-104371640D01*
X198322984Y-104376590D01*
X198315588Y-104379362D01*
X198315586Y-104379363D01*
X198197818Y-104423511D01*
X198197815Y-104423512D01*
X198189411Y-104426663D01*
X198109115Y-104486842D01*
X198091965Y-104499696D01*
X198075262Y-104512214D01*
X198069883Y-104519391D01*
X198069569Y-104519810D01*
X197989711Y-104626363D01*
X197986560Y-104634767D01*
X197986559Y-104634770D01*
X197942411Y-104752538D01*
X197939638Y-104759936D01*
X197933022Y-104820836D01*
X197933022Y-105310112D01*
X197933391Y-105313508D01*
X197933391Y-105313509D01*
X197937171Y-105348299D01*
X197939638Y-105371012D01*
X197942410Y-105378405D01*
X197942410Y-105378407D01*
X197960580Y-105426876D01*
X197965763Y-105497684D01*
X197931693Y-105560200D01*
X197689298Y-105802595D01*
X197626986Y-105836621D01*
X197600203Y-105839500D01*
X196132693Y-105839500D01*
X196064572Y-105819498D01*
X196018079Y-105765842D01*
X196007975Y-105695568D01*
X196037469Y-105630988D01*
X196043598Y-105624405D01*
X196056807Y-105611196D01*
X196131508Y-105511524D01*
X196140040Y-105495939D01*
X196146975Y-105477439D01*
X196148005Y-105463372D01*
X196142719Y-105460474D01*
X193991824Y-105460474D01*
X193978293Y-105464447D01*
X193977435Y-105470414D01*
X193987004Y-105495939D01*
X193995536Y-105511524D01*
X194070237Y-105611196D01*
X194083446Y-105624405D01*
X194117472Y-105686717D01*
X194112407Y-105757532D01*
X194069860Y-105814368D01*
X194003340Y-105839179D01*
X193994351Y-105839500D01*
X184368793Y-105839500D01*
X184300672Y-105819498D01*
X184279698Y-105802595D01*
X183307382Y-104830279D01*
X183273356Y-104767967D01*
X183271328Y-104739787D01*
X183270490Y-104739778D01*
X183270602Y-104729135D01*
X183270602Y-104729129D01*
X183270645Y-104725000D01*
X183269494Y-104715484D01*
X183265942Y-104686136D01*
X183263696Y-104667576D01*
X193979039Y-104667576D01*
X193984325Y-104670474D01*
X194650407Y-104670474D01*
X194665646Y-104665999D01*
X194666851Y-104664609D01*
X194668522Y-104656926D01*
X194668522Y-104652359D01*
X195458522Y-104652359D01*
X195462997Y-104667598D01*
X195464387Y-104668803D01*
X195472070Y-104670474D01*
X196135220Y-104670474D01*
X196148751Y-104666501D01*
X196149609Y-104660534D01*
X196140040Y-104635009D01*
X196131508Y-104619424D01*
X196056807Y-104519752D01*
X196044244Y-104507189D01*
X195944572Y-104432488D01*
X195928987Y-104423956D01*
X195811346Y-104379855D01*
X195796100Y-104376230D01*
X195746512Y-104370843D01*
X195739698Y-104370474D01*
X195476637Y-104370474D01*
X195461398Y-104374949D01*
X195460193Y-104376339D01*
X195458522Y-104384022D01*
X195458522Y-104652359D01*
X194668522Y-104652359D01*
X194668522Y-104388590D01*
X194664047Y-104373351D01*
X194662657Y-104372146D01*
X194654974Y-104370475D01*
X194387348Y-104370475D01*
X194380530Y-104370844D01*
X194330951Y-104376229D01*
X194315692Y-104379858D01*
X194198057Y-104423956D01*
X194182472Y-104432488D01*
X194082800Y-104507189D01*
X194070237Y-104519752D01*
X193995536Y-104619424D01*
X193987004Y-104635009D01*
X193980069Y-104653509D01*
X193979039Y-104667576D01*
X183263696Y-104667576D01*
X183250276Y-104556680D01*
X183241018Y-104532179D01*
X183229251Y-104501037D01*
X183223883Y-104430244D01*
X183257641Y-104367787D01*
X183319807Y-104333495D01*
X183347117Y-104330500D01*
X190598704Y-104330500D01*
X190613513Y-104331373D01*
X190647234Y-104335364D01*
X190656498Y-104333672D01*
X190656499Y-104333672D01*
X190704925Y-104324828D01*
X190708828Y-104324178D01*
X190757569Y-104316850D01*
X190757570Y-104316850D01*
X190766886Y-104315449D01*
X190773399Y-104312321D01*
X190780497Y-104311025D01*
X190832571Y-104283975D01*
X190836061Y-104282232D01*
X190889003Y-104256809D01*
X190894289Y-104251923D01*
X190894337Y-104251890D01*
X190900712Y-104248579D01*
X190905752Y-104244275D01*
X190942979Y-104207048D01*
X190946545Y-104203618D01*
X190953437Y-104197247D01*
X190988480Y-104164854D01*
X190992173Y-104158495D01*
X190997690Y-104152337D01*
X191384263Y-103765764D01*
X191446575Y-103731738D01*
X191473358Y-103728859D01*
X192159203Y-103728859D01*
X192163806Y-103728359D01*
X192190288Y-103725482D01*
X192220103Y-103722243D01*
X192227499Y-103719471D01*
X192227501Y-103719470D01*
X192345269Y-103675322D01*
X192345272Y-103675321D01*
X192353676Y-103672170D01*
X192467825Y-103586619D01*
X192473475Y-103579081D01*
X192520958Y-103515725D01*
X192553376Y-103472470D01*
X192556618Y-103463824D01*
X192600676Y-103346295D01*
X192600677Y-103346293D01*
X192603449Y-103338897D01*
X192610065Y-103277997D01*
X192610065Y-102788721D01*
X192603449Y-102727821D01*
X192599161Y-102716382D01*
X192556528Y-102602655D01*
X192556527Y-102602652D01*
X192553376Y-102594248D01*
X192486487Y-102504999D01*
X192473204Y-102487276D01*
X192467825Y-102480099D01*
X192353676Y-102394548D01*
X192345272Y-102391397D01*
X192345269Y-102391396D01*
X192227501Y-102347248D01*
X192227499Y-102347247D01*
X192220103Y-102344475D01*
X192168574Y-102338877D01*
X192162600Y-102338228D01*
X192162599Y-102338228D01*
X192159203Y-102337859D01*
X190799927Y-102337859D01*
X190796531Y-102338228D01*
X190796530Y-102338228D01*
X190790556Y-102338877D01*
X190739027Y-102344475D01*
X190731631Y-102347247D01*
X190731629Y-102347248D01*
X190613861Y-102391396D01*
X190613858Y-102391397D01*
X190605454Y-102394548D01*
X190491305Y-102480099D01*
X190485926Y-102487276D01*
X190472643Y-102504999D01*
X190405754Y-102594248D01*
X190402603Y-102602652D01*
X190402602Y-102602655D01*
X190359969Y-102716382D01*
X190355681Y-102727821D01*
X190349065Y-102788721D01*
X190349065Y-103277997D01*
X190349433Y-103281388D01*
X190349434Y-103281399D01*
X190350357Y-103289894D01*
X190337828Y-103359777D01*
X190289506Y-103411791D01*
X190225094Y-103429500D01*
X188579897Y-103429500D01*
X188566309Y-103428765D01*
X188562566Y-103428359D01*
X186393801Y-103428359D01*
X186385866Y-103429500D01*
X182929112Y-103429500D01*
X182860991Y-103409498D01*
X182814498Y-103355842D01*
X182804394Y-103285568D01*
X182833888Y-103220988D01*
X182840017Y-103214405D01*
X183418961Y-102635461D01*
X186395082Y-102635461D01*
X186400368Y-102638359D01*
X187066450Y-102638359D01*
X187081689Y-102633884D01*
X187082894Y-102632494D01*
X187084565Y-102624811D01*
X187084565Y-102620244D01*
X187874565Y-102620244D01*
X187879040Y-102635483D01*
X187880430Y-102636688D01*
X187888113Y-102638359D01*
X188551263Y-102638359D01*
X188564794Y-102634386D01*
X188565652Y-102628419D01*
X188556083Y-102602894D01*
X188547551Y-102587309D01*
X188472850Y-102487637D01*
X188460287Y-102475074D01*
X188360615Y-102400373D01*
X188345030Y-102391841D01*
X188227389Y-102347740D01*
X188212143Y-102344115D01*
X188162555Y-102338728D01*
X188155741Y-102338359D01*
X187892680Y-102338359D01*
X187877441Y-102342834D01*
X187876236Y-102344224D01*
X187874565Y-102351907D01*
X187874565Y-102620244D01*
X187084565Y-102620244D01*
X187084565Y-102356475D01*
X187080090Y-102341236D01*
X187078700Y-102340031D01*
X187071017Y-102338360D01*
X186803391Y-102338360D01*
X186796573Y-102338729D01*
X186746994Y-102344114D01*
X186731735Y-102347743D01*
X186614100Y-102391841D01*
X186598515Y-102400373D01*
X186498843Y-102475074D01*
X186486280Y-102487637D01*
X186411579Y-102587309D01*
X186403047Y-102602894D01*
X186396112Y-102621394D01*
X186395082Y-102635461D01*
X183418961Y-102635461D01*
X183652055Y-102402367D01*
X183714367Y-102368341D01*
X183741150Y-102365462D01*
X184426995Y-102365462D01*
X184487895Y-102358846D01*
X184495291Y-102356074D01*
X184495293Y-102356073D01*
X184613061Y-102311925D01*
X184613065Y-102311923D01*
X184621468Y-102308773D01*
X184735617Y-102223222D01*
X184741267Y-102215684D01*
X184754279Y-102198322D01*
X184821168Y-102109073D01*
X184824410Y-102100427D01*
X184868468Y-101982898D01*
X184868469Y-101982895D01*
X184871241Y-101975500D01*
X184877857Y-101914600D01*
X184877857Y-101425324D01*
X184871241Y-101364424D01*
X184868468Y-101357026D01*
X184824320Y-101239258D01*
X184824319Y-101239255D01*
X184821168Y-101230851D01*
X184754279Y-101141602D01*
X184740996Y-101123879D01*
X184735617Y-101116702D01*
X184621468Y-101031151D01*
X184613064Y-101028000D01*
X184613061Y-101027999D01*
X184495293Y-100983851D01*
X184495291Y-100983850D01*
X184487895Y-100981078D01*
X184442327Y-100976128D01*
X184430392Y-100974831D01*
X184430391Y-100974831D01*
X184426995Y-100974462D01*
X183067719Y-100974462D01*
X183064323Y-100974831D01*
X183064322Y-100974831D01*
X183052387Y-100976128D01*
X183006819Y-100981078D01*
X182999423Y-100983850D01*
X182999421Y-100983851D01*
X182881653Y-101027999D01*
X182881650Y-101028000D01*
X182873246Y-101031151D01*
X182759097Y-101116702D01*
X182753718Y-101123879D01*
X182740435Y-101141602D01*
X182673546Y-101230851D01*
X182670395Y-101239255D01*
X182670394Y-101239258D01*
X182626246Y-101357026D01*
X182623473Y-101364424D01*
X182616857Y-101425324D01*
X182616857Y-101914600D01*
X182617226Y-101917996D01*
X182617226Y-101917997D01*
X182621367Y-101956110D01*
X182623473Y-101975500D01*
X182626245Y-101982893D01*
X182626245Y-101982895D01*
X182644415Y-102031364D01*
X182649598Y-102102172D01*
X182615528Y-102164688D01*
X182227621Y-102552595D01*
X182165309Y-102586621D01*
X182138526Y-102589500D01*
X180566253Y-102589500D01*
X180498132Y-102569498D01*
X180451639Y-102515842D01*
X180441535Y-102445568D01*
X180471029Y-102380988D01*
X180522024Y-102345518D01*
X180612822Y-102311480D01*
X180628407Y-102302948D01*
X180728079Y-102228247D01*
X180740642Y-102215684D01*
X180815343Y-102116012D01*
X180823875Y-102100427D01*
X180830810Y-102081927D01*
X180831840Y-102067860D01*
X180826554Y-102064962D01*
X178675659Y-102064962D01*
X178662128Y-102068935D01*
X178661270Y-102074902D01*
X178670839Y-102100427D01*
X178679371Y-102116012D01*
X178754072Y-102215684D01*
X178766635Y-102228247D01*
X178866307Y-102302948D01*
X178881892Y-102311480D01*
X178972690Y-102345518D01*
X179029455Y-102388159D01*
X179054155Y-102454720D01*
X179038948Y-102524069D01*
X178988662Y-102574188D01*
X178928461Y-102589500D01*
X176464219Y-102589500D01*
X176449410Y-102588627D01*
X176442338Y-102587790D01*
X176415689Y-102584636D01*
X176406426Y-102586328D01*
X176406419Y-102586328D01*
X176357982Y-102595175D01*
X176354083Y-102595825D01*
X176331353Y-102599242D01*
X176305356Y-102603150D01*
X176305355Y-102603150D01*
X176296038Y-102604551D01*
X176289525Y-102607679D01*
X176282427Y-102608975D01*
X176230347Y-102636028D01*
X176226845Y-102637777D01*
X176182413Y-102659113D01*
X176173921Y-102663191D01*
X176168636Y-102668077D01*
X176168589Y-102668108D01*
X176162211Y-102671421D01*
X176157172Y-102675725D01*
X176119945Y-102712952D01*
X176116380Y-102716381D01*
X176074444Y-102755146D01*
X176070751Y-102761505D01*
X176065234Y-102767663D01*
X174750289Y-104082608D01*
X174687977Y-104116634D01*
X174660536Y-104119511D01*
X174568895Y-104119031D01*
X174561508Y-104120805D01*
X174561504Y-104120805D01*
X174465710Y-104143804D01*
X174404032Y-104158612D01*
X174397288Y-104162093D01*
X174397285Y-104162094D01*
X174369254Y-104176562D01*
X174347787Y-104187642D01*
X174278081Y-104201111D01*
X174212158Y-104174756D01*
X174170948Y-104116944D01*
X174167535Y-104046029D01*
X174173091Y-104028679D01*
X174180382Y-104010542D01*
X174191601Y-103982634D01*
X174203518Y-103898902D01*
X174214909Y-103818862D01*
X174214909Y-103818859D01*
X174215490Y-103814778D01*
X174215562Y-103807932D01*
X174215602Y-103804135D01*
X174215602Y-103804129D01*
X174215645Y-103800000D01*
X174195276Y-103631680D01*
X174135345Y-103473077D01*
X174106588Y-103431235D01*
X174043614Y-103339608D01*
X174043613Y-103339607D01*
X174039312Y-103333349D01*
X174033641Y-103328296D01*
X173918392Y-103225612D01*
X173918388Y-103225610D01*
X173912721Y-103220560D01*
X173901097Y-103214405D01*
X173845080Y-103184746D01*
X173762881Y-103141224D01*
X173677118Y-103119682D01*
X173615924Y-103083687D01*
X173583903Y-103020322D01*
X173591223Y-102949703D01*
X173618720Y-102908383D01*
X174889511Y-101637592D01*
X174951823Y-101603566D01*
X175022638Y-101608631D01*
X175039110Y-101616164D01*
X175044452Y-101619088D01*
X175051634Y-101624471D01*
X175118670Y-101649601D01*
X175177809Y-101671771D01*
X175177811Y-101671772D01*
X175185207Y-101674544D01*
X175215022Y-101677783D01*
X175241505Y-101680660D01*
X175246107Y-101681160D01*
X176605383Y-101681160D01*
X176609986Y-101680660D01*
X176636468Y-101677783D01*
X176666283Y-101674544D01*
X176673679Y-101671772D01*
X176673681Y-101671771D01*
X176791449Y-101627623D01*
X176791452Y-101627622D01*
X176799856Y-101624471D01*
X176914005Y-101538920D01*
X176919655Y-101531382D01*
X176994173Y-101431953D01*
X176999556Y-101424771D01*
X177002798Y-101416125D01*
X177046856Y-101298596D01*
X177046857Y-101298593D01*
X177049629Y-101291198D01*
X177051708Y-101272064D01*
X178662874Y-101272064D01*
X178668160Y-101274962D01*
X179334242Y-101274962D01*
X179349481Y-101270487D01*
X179350686Y-101269097D01*
X179352357Y-101261414D01*
X179352357Y-101256847D01*
X180142357Y-101256847D01*
X180146832Y-101272086D01*
X180148222Y-101273291D01*
X180155905Y-101274962D01*
X180819055Y-101274962D01*
X180832586Y-101270989D01*
X180833444Y-101265022D01*
X180823875Y-101239497D01*
X180815343Y-101223912D01*
X180740642Y-101124240D01*
X180728079Y-101111677D01*
X180628407Y-101036976D01*
X180612822Y-101028444D01*
X180495181Y-100984343D01*
X180479935Y-100980718D01*
X180430347Y-100975331D01*
X180423533Y-100974962D01*
X180160472Y-100974962D01*
X180145233Y-100979437D01*
X180144028Y-100980827D01*
X180142357Y-100988510D01*
X180142357Y-101256847D01*
X179352357Y-101256847D01*
X179352357Y-100993078D01*
X179347882Y-100977839D01*
X179346492Y-100976634D01*
X179338809Y-100974963D01*
X179071183Y-100974963D01*
X179064365Y-100975332D01*
X179014786Y-100980717D01*
X178999527Y-100984346D01*
X178881892Y-101028444D01*
X178866307Y-101036976D01*
X178766635Y-101111677D01*
X178754072Y-101124240D01*
X178679371Y-101223912D01*
X178670839Y-101239497D01*
X178663904Y-101257997D01*
X178662874Y-101272064D01*
X177051708Y-101272064D01*
X177056245Y-101230298D01*
X177056245Y-100741022D01*
X177049629Y-100680122D01*
X177046856Y-100672724D01*
X177002708Y-100554956D01*
X177002707Y-100554953D01*
X176999556Y-100546549D01*
X176924200Y-100446003D01*
X176919384Y-100439577D01*
X176914005Y-100432400D01*
X176799856Y-100346849D01*
X176791452Y-100343698D01*
X176791449Y-100343697D01*
X176673681Y-100299549D01*
X176673679Y-100299548D01*
X176666283Y-100296776D01*
X176620715Y-100291826D01*
X176608780Y-100290529D01*
X176608779Y-100290529D01*
X176605383Y-100290160D01*
X175246107Y-100290160D01*
X175242711Y-100290529D01*
X175242710Y-100290529D01*
X175230775Y-100291826D01*
X175185207Y-100296776D01*
X175177811Y-100299548D01*
X175177809Y-100299549D01*
X175060041Y-100343697D01*
X175060038Y-100343698D01*
X175051634Y-100346849D01*
X174937485Y-100432400D01*
X174890187Y-100495508D01*
X174833330Y-100538020D01*
X174808097Y-100544540D01*
X174779689Y-100548811D01*
X174779688Y-100548811D01*
X174770378Y-100550211D01*
X174763868Y-100553337D01*
X174756767Y-100554634D01*
X174748412Y-100558974D01*
X174704703Y-100581678D01*
X174701165Y-100583446D01*
X174666836Y-100599931D01*
X174648261Y-100608851D01*
X174642975Y-100613738D01*
X174642935Y-100613765D01*
X174636552Y-100617080D01*
X174631512Y-100621385D01*
X174594285Y-100658612D01*
X174590720Y-100662041D01*
X174548784Y-100700806D01*
X174545091Y-100707165D01*
X174539574Y-100713323D01*
X171055650Y-104197247D01*
X171044561Y-104207101D01*
X171025291Y-104222293D01*
X171025289Y-104222295D01*
X171017890Y-104228128D01*
X171012535Y-104235875D01*
X171012534Y-104235877D01*
X170984545Y-104276375D01*
X170982243Y-104279597D01*
X170959030Y-104311025D01*
X170947366Y-104326816D01*
X170944973Y-104333632D01*
X170940869Y-104339569D01*
X170925366Y-104388590D01*
X170923182Y-104395495D01*
X170921929Y-104399250D01*
X170912303Y-104426663D01*
X170902481Y-104454631D01*
X170902199Y-104461819D01*
X170902188Y-104461878D01*
X170900020Y-104468730D01*
X170899500Y-104475337D01*
X170899500Y-104528016D01*
X170899403Y-104532962D01*
X170897162Y-104589994D01*
X170899046Y-104597100D01*
X170899500Y-104605347D01*
X170899500Y-106575780D01*
X170898627Y-106590589D01*
X170894636Y-106624310D01*
X170896328Y-106633574D01*
X170896328Y-106633575D01*
X170905172Y-106682001D01*
X170905822Y-106685904D01*
X170912625Y-106731149D01*
X170914551Y-106743962D01*
X170917679Y-106750475D01*
X170918975Y-106757573D01*
X170946025Y-106809647D01*
X170947756Y-106813111D01*
X170964776Y-106848556D01*
X170976114Y-106919543D01*
X170974394Y-106932611D01*
X170992999Y-107101135D01*
X171006869Y-107139035D01*
X171048274Y-107252179D01*
X171051266Y-107260356D01*
X171055502Y-107266659D01*
X171055504Y-107266664D01*
X171093790Y-107323640D01*
X171115182Y-107391337D01*
X171101049Y-107443387D01*
X171170384Y-107442050D01*
X171222023Y-107470414D01*
X171265612Y-107510077D01*
X171265616Y-107510080D01*
X171271233Y-107515191D01*
X171277906Y-107518814D01*
X171277910Y-107518817D01*
X171413558Y-107592467D01*
X171413560Y-107592468D01*
X171420235Y-107596092D01*
X171427584Y-107598020D01*
X171576883Y-107637188D01*
X171576885Y-107637188D01*
X171584233Y-107639116D01*
X171692199Y-107640812D01*
X171761857Y-107663143D01*
X171782363Y-107677315D01*
X171801375Y-107690455D01*
X171804587Y-107692750D01*
X171822276Y-107705815D01*
X171838455Y-107717765D01*
X171851816Y-107727634D01*
X171858632Y-107730027D01*
X171864569Y-107734131D01*
X171873549Y-107736971D01*
X171873551Y-107736972D01*
X171885845Y-107740860D01*
X171920519Y-107751826D01*
X171924250Y-107753071D01*
X171970737Y-107769396D01*
X171970739Y-107769396D01*
X171979631Y-107772519D01*
X171986819Y-107772801D01*
X171986878Y-107772812D01*
X171993730Y-107774980D01*
X171998473Y-107775353D01*
X172060640Y-107807567D01*
X172096010Y-107869126D01*
X172099500Y-107898575D01*
X172099501Y-108009698D01*
X172099501Y-108106518D01*
X172100276Y-108111411D01*
X172100276Y-108111412D01*
X172112715Y-108189953D01*
X172114354Y-108200304D01*
X172118857Y-108209141D01*
X172118858Y-108209145D01*
X172136005Y-108242798D01*
X172149109Y-108312575D01*
X172136005Y-108357202D01*
X172119471Y-108389653D01*
X172114354Y-108399696D01*
X172112804Y-108409485D01*
X172112803Y-108409487D01*
X172109750Y-108428767D01*
X172099500Y-108493481D01*
X172099500Y-108564371D01*
X172079498Y-108632492D01*
X172025842Y-108678985D01*
X171955568Y-108689089D01*
X171901588Y-108667834D01*
X171898391Y-108665612D01*
X171892721Y-108660560D01*
X171858939Y-108642673D01*
X171825080Y-108624746D01*
X171742881Y-108581224D01*
X171578441Y-108539919D01*
X171570843Y-108539879D01*
X171570841Y-108539879D01*
X171493668Y-108539475D01*
X171408895Y-108539031D01*
X171401508Y-108540805D01*
X171401504Y-108540805D01*
X171268509Y-108572735D01*
X171260685Y-108574614D01*
X171245915Y-108578160D01*
X171175007Y-108574614D01*
X171117273Y-108533295D01*
X171091042Y-108467321D01*
X171090500Y-108455642D01*
X171090500Y-107894220D01*
X171091373Y-107879411D01*
X171094257Y-107855043D01*
X171095364Y-107845690D01*
X171093672Y-107836426D01*
X171093672Y-107836422D01*
X171084827Y-107787989D01*
X171084178Y-107784088D01*
X171076851Y-107735355D01*
X171076849Y-107735347D01*
X171075449Y-107726038D01*
X171072323Y-107719528D01*
X171071026Y-107712427D01*
X171043967Y-107660338D01*
X171042212Y-107656824D01*
X171042211Y-107656821D01*
X171023640Y-107618148D01*
X171012184Y-107548085D01*
X171028727Y-107509931D01*
X170973832Y-107518973D01*
X170908661Y-107490808D01*
X170900113Y-107483010D01*
X169147753Y-105730650D01*
X169137899Y-105719561D01*
X169122707Y-105700291D01*
X169122705Y-105700289D01*
X169116872Y-105692890D01*
X169109125Y-105687535D01*
X169109123Y-105687534D01*
X169083614Y-105669904D01*
X169068615Y-105659538D01*
X169065403Y-105657243D01*
X169059785Y-105653093D01*
X169047724Y-105644185D01*
X169025758Y-105627960D01*
X169025757Y-105627959D01*
X169018184Y-105622366D01*
X169011368Y-105619973D01*
X169005431Y-105615869D01*
X168996451Y-105613029D01*
X168996449Y-105613028D01*
X168969780Y-105604594D01*
X168949481Y-105598174D01*
X168945750Y-105596929D01*
X168899263Y-105580604D01*
X168899261Y-105580604D01*
X168890369Y-105577481D01*
X168883181Y-105577199D01*
X168883122Y-105577188D01*
X168876270Y-105575020D01*
X168869663Y-105574500D01*
X168816984Y-105574500D01*
X168812037Y-105574403D01*
X168755006Y-105572162D01*
X168747900Y-105574046D01*
X168739653Y-105574500D01*
X168026500Y-105574500D01*
X167958379Y-105554498D01*
X167911886Y-105500842D01*
X167900500Y-105448501D01*
X167900499Y-105248437D01*
X167900499Y-105243482D01*
X167899724Y-105238588D01*
X167887198Y-105159494D01*
X167887197Y-105159492D01*
X167885646Y-105149696D01*
X167881143Y-105140859D01*
X167881142Y-105140855D01*
X167863995Y-105107202D01*
X167850891Y-105037425D01*
X167863995Y-104992798D01*
X167881144Y-104959140D01*
X167881144Y-104959139D01*
X167885646Y-104950304D01*
X167888139Y-104934567D01*
X167894290Y-104895727D01*
X167900500Y-104856519D01*
X167900499Y-104593482D01*
X167898847Y-104583050D01*
X167887198Y-104509494D01*
X167887197Y-104509490D01*
X167885646Y-104499696D01*
X167876875Y-104482481D01*
X167857618Y-104444689D01*
X167828050Y-104386658D01*
X167738342Y-104296950D01*
X167625304Y-104239354D01*
X167615512Y-104237803D01*
X167606793Y-104234970D01*
X167548187Y-104194896D01*
X167520550Y-104129500D01*
X167528822Y-104068143D01*
X167544101Y-104030134D01*
X167563998Y-103890327D01*
X167567409Y-103866362D01*
X167567409Y-103866359D01*
X167567990Y-103862278D01*
X167568145Y-103847500D01*
X167566340Y-103832580D01*
X167560342Y-103783020D01*
X167547776Y-103679180D01*
X167487845Y-103520577D01*
X167449004Y-103464063D01*
X167396114Y-103387108D01*
X167396113Y-103387107D01*
X167391812Y-103380849D01*
X167355181Y-103348212D01*
X167317625Y-103287962D01*
X167313000Y-103254136D01*
X167313000Y-102436208D01*
X167333002Y-102368087D01*
X167349905Y-102347113D01*
X167978953Y-101718065D01*
X168041265Y-101684039D01*
X168068048Y-101681160D01*
X168753893Y-101681160D01*
X168758496Y-101680660D01*
X168784978Y-101677783D01*
X168814793Y-101674544D01*
X168822189Y-101671772D01*
X168822191Y-101671771D01*
X168939959Y-101627623D01*
X168939962Y-101627622D01*
X168948366Y-101624471D01*
X169062515Y-101538920D01*
X169068165Y-101531382D01*
X169142683Y-101431953D01*
X169148066Y-101424771D01*
X169151308Y-101416125D01*
X169160877Y-101390600D01*
X170839658Y-101390600D01*
X170849227Y-101416125D01*
X170857759Y-101431710D01*
X170932460Y-101531382D01*
X170945023Y-101543945D01*
X171044695Y-101618646D01*
X171060280Y-101627178D01*
X171177921Y-101671279D01*
X171193167Y-101674904D01*
X171242755Y-101680291D01*
X171249569Y-101680660D01*
X171512630Y-101680660D01*
X171527869Y-101676185D01*
X171529074Y-101674795D01*
X171530745Y-101667112D01*
X171530745Y-101662544D01*
X172320745Y-101662544D01*
X172325220Y-101677783D01*
X172326610Y-101678988D01*
X172334293Y-101680659D01*
X172601919Y-101680659D01*
X172608737Y-101680290D01*
X172658316Y-101674905D01*
X172673575Y-101671276D01*
X172791210Y-101627178D01*
X172806795Y-101618646D01*
X172906467Y-101543945D01*
X172919030Y-101531382D01*
X172993731Y-101431710D01*
X173002263Y-101416125D01*
X173009198Y-101397625D01*
X173010228Y-101383558D01*
X173004942Y-101380660D01*
X172338860Y-101380660D01*
X172323621Y-101385135D01*
X172322416Y-101386525D01*
X172320745Y-101394208D01*
X172320745Y-101662544D01*
X171530745Y-101662544D01*
X171530745Y-101398775D01*
X171526270Y-101383536D01*
X171524880Y-101382331D01*
X171517197Y-101380660D01*
X170854047Y-101380660D01*
X170840516Y-101384633D01*
X170839658Y-101390600D01*
X169160877Y-101390600D01*
X169195366Y-101298596D01*
X169195367Y-101298593D01*
X169198139Y-101291198D01*
X169204755Y-101230298D01*
X169204755Y-100741022D01*
X169198139Y-100680122D01*
X169195366Y-100672724D01*
X169163516Y-100587762D01*
X170841262Y-100587762D01*
X170846548Y-100590660D01*
X171512630Y-100590660D01*
X171527869Y-100586185D01*
X171529074Y-100584795D01*
X171530745Y-100577112D01*
X171530745Y-100572545D01*
X172320745Y-100572545D01*
X172325220Y-100587784D01*
X172326610Y-100588989D01*
X172334293Y-100590660D01*
X172997443Y-100590660D01*
X173010974Y-100586687D01*
X173011832Y-100580720D01*
X173002263Y-100555195D01*
X172993731Y-100539610D01*
X172919030Y-100439938D01*
X172906467Y-100427375D01*
X172806795Y-100352674D01*
X172791210Y-100344142D01*
X172673569Y-100300041D01*
X172658323Y-100296416D01*
X172608735Y-100291029D01*
X172601921Y-100290660D01*
X172338860Y-100290660D01*
X172323621Y-100295135D01*
X172322416Y-100296525D01*
X172320745Y-100304208D01*
X172320745Y-100572545D01*
X171530745Y-100572545D01*
X171530745Y-100308776D01*
X171526270Y-100293537D01*
X171524880Y-100292332D01*
X171517197Y-100290661D01*
X171249571Y-100290661D01*
X171242753Y-100291030D01*
X171193174Y-100296415D01*
X171177915Y-100300044D01*
X171060280Y-100344142D01*
X171044695Y-100352674D01*
X170945023Y-100427375D01*
X170932460Y-100439938D01*
X170857759Y-100539610D01*
X170849227Y-100555195D01*
X170842292Y-100573695D01*
X170841262Y-100587762D01*
X169163516Y-100587762D01*
X169151218Y-100554956D01*
X169151217Y-100554953D01*
X169148066Y-100546549D01*
X169072710Y-100446003D01*
X169067894Y-100439577D01*
X169062515Y-100432400D01*
X168948366Y-100346849D01*
X168939962Y-100343698D01*
X168939959Y-100343697D01*
X168822191Y-100299549D01*
X168822189Y-100299548D01*
X168814793Y-100296776D01*
X168769225Y-100291826D01*
X168757290Y-100290529D01*
X168757289Y-100290529D01*
X168753893Y-100290160D01*
X167394617Y-100290160D01*
X167391221Y-100290529D01*
X167391220Y-100290529D01*
X167379285Y-100291826D01*
X167333717Y-100296776D01*
X167326321Y-100299548D01*
X167326319Y-100299549D01*
X167208551Y-100343697D01*
X167208548Y-100343698D01*
X167200144Y-100346849D01*
X167085995Y-100432400D01*
X167080616Y-100439577D01*
X167075800Y-100446003D01*
X167000444Y-100546549D01*
X166997293Y-100554953D01*
X166997292Y-100554956D01*
X166953144Y-100672724D01*
X166950371Y-100680122D01*
X166943755Y-100741022D01*
X166943755Y-101230298D01*
X166944124Y-101233694D01*
X166944124Y-101233695D01*
X166948386Y-101272922D01*
X166950371Y-101291198D01*
X166953143Y-101298591D01*
X166953143Y-101298593D01*
X166971313Y-101347062D01*
X166976496Y-101417870D01*
X166942426Y-101480386D01*
X166568150Y-101854662D01*
X166557061Y-101864516D01*
X166537791Y-101879708D01*
X166537789Y-101879710D01*
X166530390Y-101885543D01*
X166525035Y-101893290D01*
X166525034Y-101893292D01*
X166497045Y-101933790D01*
X166494750Y-101937002D01*
X166485927Y-101948947D01*
X166465917Y-101976039D01*
X166459866Y-101984231D01*
X166457473Y-101991047D01*
X166453369Y-101996984D01*
X166450529Y-102005964D01*
X166450528Y-102005966D01*
X166448010Y-102013929D01*
X166441707Y-102033860D01*
X166435682Y-102052910D01*
X166434429Y-102056665D01*
X166431516Y-102064962D01*
X166414981Y-102112046D01*
X166414699Y-102119234D01*
X166414688Y-102119293D01*
X166412520Y-102126145D01*
X166412000Y-102132752D01*
X166412000Y-102185431D01*
X166411903Y-102190377D01*
X166409662Y-102247409D01*
X166411546Y-102254515D01*
X166412000Y-102262762D01*
X166412000Y-103253579D01*
X166391998Y-103321700D01*
X166368829Y-103348528D01*
X166338104Y-103375331D01*
X166299661Y-103430030D01*
X166247772Y-103503861D01*
X166240613Y-103514047D01*
X166179024Y-103672013D01*
X166178032Y-103679546D01*
X166178032Y-103679547D01*
X166162175Y-103800000D01*
X166156894Y-103840111D01*
X166175499Y-104008635D01*
X166178109Y-104015767D01*
X166198530Y-104071570D01*
X166203156Y-104142415D01*
X166168747Y-104204516D01*
X166117503Y-104230373D01*
X166118922Y-104234739D01*
X166109493Y-104237802D01*
X166099696Y-104239354D01*
X166090859Y-104243857D01*
X166090858Y-104243857D01*
X166090038Y-104244275D01*
X165986658Y-104296950D01*
X165896950Y-104386658D01*
X165892450Y-104395490D01*
X165886617Y-104403518D01*
X165884956Y-104402311D01*
X165844928Y-104444689D01*
X165776012Y-104461752D01*
X165737769Y-104453812D01*
X165732881Y-104451224D01*
X165568441Y-104409919D01*
X165560843Y-104409879D01*
X165560841Y-104409879D01*
X165468028Y-104409393D01*
X165400013Y-104389035D01*
X165379593Y-104372490D01*
X162397703Y-101390600D01*
X162988168Y-101390600D01*
X162997737Y-101416125D01*
X163006269Y-101431710D01*
X163080970Y-101531382D01*
X163093533Y-101543945D01*
X163193205Y-101618646D01*
X163208790Y-101627178D01*
X163326431Y-101671279D01*
X163341677Y-101674904D01*
X163391265Y-101680291D01*
X163398079Y-101680660D01*
X163661140Y-101680660D01*
X163676379Y-101676185D01*
X163677584Y-101674795D01*
X163679255Y-101667112D01*
X163679255Y-101662544D01*
X164469255Y-101662544D01*
X164473730Y-101677783D01*
X164475120Y-101678988D01*
X164482803Y-101680659D01*
X164750429Y-101680659D01*
X164757247Y-101680290D01*
X164806826Y-101674905D01*
X164822085Y-101671276D01*
X164939720Y-101627178D01*
X164955305Y-101618646D01*
X165054977Y-101543945D01*
X165067540Y-101531382D01*
X165142241Y-101431710D01*
X165150773Y-101416125D01*
X165157708Y-101397625D01*
X165158738Y-101383558D01*
X165153452Y-101380660D01*
X164487370Y-101380660D01*
X164472131Y-101385135D01*
X164470926Y-101386525D01*
X164469255Y-101394208D01*
X164469255Y-101662544D01*
X163679255Y-101662544D01*
X163679255Y-101398775D01*
X163674780Y-101383536D01*
X163673390Y-101382331D01*
X163665707Y-101380660D01*
X163002557Y-101380660D01*
X162989026Y-101384633D01*
X162988168Y-101390600D01*
X162397703Y-101390600D01*
X162382715Y-101375612D01*
X162372861Y-101364523D01*
X162357669Y-101345253D01*
X162357667Y-101345251D01*
X162351834Y-101337852D01*
X162344087Y-101332497D01*
X162344085Y-101332496D01*
X162303587Y-101304507D01*
X162300365Y-101302205D01*
X162260720Y-101272922D01*
X162260719Y-101272921D01*
X162253146Y-101267328D01*
X162246330Y-101264935D01*
X162240393Y-101260831D01*
X162231413Y-101257991D01*
X162231411Y-101257990D01*
X162211245Y-101251612D01*
X162184443Y-101243136D01*
X162180712Y-101241891D01*
X162134225Y-101225566D01*
X162134223Y-101225566D01*
X162125331Y-101222443D01*
X162118143Y-101222161D01*
X162118084Y-101222150D01*
X162111232Y-101219982D01*
X162104625Y-101219462D01*
X162051946Y-101219462D01*
X162046999Y-101219365D01*
X161989968Y-101217124D01*
X161982862Y-101219008D01*
X161974615Y-101219462D01*
X161380945Y-101219462D01*
X161312824Y-101199460D01*
X161280119Y-101169028D01*
X161246552Y-101124240D01*
X161240903Y-101116702D01*
X161126754Y-101031151D01*
X161118350Y-101028000D01*
X161118347Y-101027999D01*
X161000579Y-100983851D01*
X161000577Y-100983850D01*
X160993181Y-100981078D01*
X160947613Y-100976128D01*
X160935678Y-100974831D01*
X160935677Y-100974831D01*
X160932281Y-100974462D01*
X159573005Y-100974462D01*
X159569609Y-100974831D01*
X159569608Y-100974831D01*
X159557673Y-100976128D01*
X159512105Y-100981078D01*
X159504709Y-100983850D01*
X159504707Y-100983851D01*
X159386939Y-101027999D01*
X159386936Y-101028000D01*
X159378532Y-101031151D01*
X159264383Y-101116702D01*
X159259004Y-101123879D01*
X159245721Y-101141602D01*
X159178832Y-101230851D01*
X159175681Y-101239255D01*
X159175680Y-101239258D01*
X159131532Y-101357026D01*
X159128759Y-101364424D01*
X159122143Y-101425324D01*
X159122143Y-101914600D01*
X159128759Y-101975500D01*
X159131531Y-101982895D01*
X159131532Y-101982898D01*
X159175591Y-102100427D01*
X159178832Y-102109073D01*
X159245721Y-102198322D01*
X159258734Y-102215684D01*
X159264383Y-102223222D01*
X159378532Y-102308773D01*
X159458838Y-102338877D01*
X159515602Y-102381518D01*
X159540302Y-102448079D01*
X159525095Y-102517428D01*
X159474809Y-102567547D01*
X159414608Y-102582859D01*
X157089254Y-102582859D01*
X157021133Y-102562857D01*
X156974640Y-102509201D01*
X156964536Y-102438927D01*
X156994030Y-102374347D01*
X157045025Y-102338877D01*
X157118108Y-102311480D01*
X157133693Y-102302948D01*
X157233365Y-102228247D01*
X157245928Y-102215684D01*
X157320629Y-102116012D01*
X157329161Y-102100427D01*
X157336096Y-102081927D01*
X157337126Y-102067860D01*
X157331840Y-102064962D01*
X155180945Y-102064962D01*
X155167414Y-102068935D01*
X155166556Y-102074902D01*
X155176125Y-102100427D01*
X155184657Y-102116012D01*
X155259358Y-102215684D01*
X155271921Y-102228247D01*
X155371593Y-102302948D01*
X155387178Y-102311480D01*
X155460261Y-102338877D01*
X155517025Y-102381518D01*
X155541726Y-102448079D01*
X155526519Y-102517428D01*
X155476234Y-102567547D01*
X155416032Y-102582859D01*
X153648737Y-102582859D01*
X153580616Y-102562857D01*
X153547911Y-102532425D01*
X153508695Y-102480099D01*
X153394546Y-102394548D01*
X153386142Y-102391397D01*
X153386139Y-102391396D01*
X153268371Y-102347248D01*
X153268369Y-102347247D01*
X153260973Y-102344475D01*
X153209444Y-102338877D01*
X153203470Y-102338228D01*
X153203469Y-102338228D01*
X153200073Y-102337859D01*
X151840797Y-102337859D01*
X151837401Y-102338228D01*
X151837400Y-102338228D01*
X151831426Y-102338877D01*
X151779897Y-102344475D01*
X151772501Y-102347247D01*
X151772499Y-102347248D01*
X151654731Y-102391396D01*
X151654728Y-102391397D01*
X151646324Y-102394548D01*
X151532175Y-102480099D01*
X151526796Y-102487276D01*
X151513513Y-102504999D01*
X151446624Y-102594248D01*
X151443473Y-102602652D01*
X151443472Y-102602655D01*
X151400839Y-102716382D01*
X151396551Y-102727821D01*
X151389935Y-102788721D01*
X151389935Y-103277997D01*
X151396551Y-103338897D01*
X151399323Y-103346293D01*
X151399324Y-103346295D01*
X151443383Y-103463824D01*
X151446624Y-103472470D01*
X151479042Y-103515725D01*
X151526526Y-103579081D01*
X151532175Y-103586619D01*
X151646324Y-103672170D01*
X151654728Y-103675321D01*
X151654731Y-103675322D01*
X151772499Y-103719470D01*
X151772501Y-103719471D01*
X151779897Y-103722243D01*
X151809712Y-103725482D01*
X151836195Y-103728359D01*
X151840797Y-103728859D01*
X153200073Y-103728859D01*
X153204676Y-103728359D01*
X153231158Y-103725482D01*
X153260973Y-103722243D01*
X153268369Y-103719471D01*
X153268371Y-103719470D01*
X153386139Y-103675322D01*
X153386142Y-103675321D01*
X153394546Y-103672170D01*
X153508695Y-103586619D01*
X153547912Y-103534292D01*
X153604771Y-103491779D01*
X153648737Y-103483859D01*
X159951353Y-103483859D01*
X160019474Y-103503861D01*
X160065967Y-103557517D01*
X160076275Y-103626305D01*
X160057629Y-103767939D01*
X160056638Y-103775470D01*
X160075243Y-103943994D01*
X160099596Y-104010542D01*
X160119882Y-104065974D01*
X160133510Y-104103215D01*
X160137746Y-104109518D01*
X160137748Y-104109523D01*
X160205048Y-104209677D01*
X160226440Y-104277374D01*
X160207836Y-104345890D01*
X160189561Y-104369047D01*
X160171950Y-104386658D01*
X160114354Y-104499696D01*
X160112804Y-104509485D01*
X160112803Y-104509487D01*
X160109714Y-104528990D01*
X160099500Y-104593481D01*
X160099500Y-104633952D01*
X160079498Y-104702073D01*
X160025842Y-104748566D01*
X159955568Y-104758670D01*
X159898749Y-104731334D01*
X159897346Y-104733364D01*
X159888840Y-104727485D01*
X159849089Y-104700012D01*
X159845877Y-104697717D01*
X159835021Y-104689698D01*
X159808994Y-104670474D01*
X159806232Y-104668434D01*
X159806231Y-104668433D01*
X159798658Y-104662840D01*
X159791842Y-104660447D01*
X159785905Y-104656343D01*
X159776925Y-104653503D01*
X159776923Y-104653502D01*
X159755709Y-104646793D01*
X159729955Y-104638648D01*
X159726224Y-104637403D01*
X159679737Y-104621078D01*
X159679735Y-104621078D01*
X159670843Y-104617955D01*
X159663655Y-104617673D01*
X159663596Y-104617662D01*
X159656744Y-104615494D01*
X159650137Y-104614974D01*
X159597458Y-104614974D01*
X159592511Y-104614877D01*
X159535480Y-104612636D01*
X159528374Y-104614520D01*
X159520127Y-104614974D01*
X159039954Y-104614974D01*
X158971833Y-104594972D01*
X158956135Y-104583050D01*
X158899039Y-104532179D01*
X158847247Y-104486034D01*
X158814566Y-104468730D01*
X158745281Y-104432046D01*
X158697407Y-104406698D01*
X158532967Y-104365393D01*
X158525369Y-104365353D01*
X158525367Y-104365353D01*
X158448194Y-104364949D01*
X158363421Y-104364505D01*
X158356034Y-104366279D01*
X158356030Y-104366279D01*
X158223587Y-104398077D01*
X158198558Y-104404086D01*
X158191814Y-104407567D01*
X158191811Y-104407568D01*
X158060512Y-104475337D01*
X158047895Y-104481849D01*
X158042173Y-104486841D01*
X158042171Y-104486842D01*
X157930885Y-104583923D01*
X157866403Y-104613631D01*
X157848056Y-104614974D01*
X146064780Y-104614974D01*
X145996659Y-104594972D01*
X145963954Y-104564540D01*
X145924738Y-104512214D01*
X145810589Y-104426663D01*
X145802185Y-104423512D01*
X145802182Y-104423511D01*
X145684414Y-104379363D01*
X145684412Y-104379362D01*
X145677016Y-104376590D01*
X145631448Y-104371640D01*
X145619513Y-104370343D01*
X145619512Y-104370343D01*
X145616116Y-104369974D01*
X144256840Y-104369974D01*
X144253444Y-104370343D01*
X144253443Y-104370343D01*
X144241508Y-104371640D01*
X144195940Y-104376590D01*
X144188544Y-104379362D01*
X144188542Y-104379363D01*
X144070774Y-104423511D01*
X144070771Y-104423512D01*
X144062367Y-104426663D01*
X143982071Y-104486842D01*
X143964921Y-104499696D01*
X143948218Y-104512214D01*
X143942839Y-104519391D01*
X143942525Y-104519810D01*
X143862667Y-104626363D01*
X143859516Y-104634767D01*
X143859515Y-104634770D01*
X143815367Y-104752538D01*
X143812594Y-104759936D01*
X143805978Y-104820836D01*
X143805978Y-105310112D01*
X143812594Y-105371012D01*
X143815366Y-105378407D01*
X143815367Y-105378410D01*
X143859426Y-105495939D01*
X143862667Y-105504585D01*
X143909001Y-105566408D01*
X143942569Y-105611196D01*
X143948218Y-105618734D01*
X144062367Y-105704285D01*
X144070771Y-105707436D01*
X144070774Y-105707437D01*
X144188542Y-105751585D01*
X144188544Y-105751586D01*
X144195940Y-105754358D01*
X144225157Y-105757532D01*
X144252238Y-105760474D01*
X144256840Y-105760974D01*
X145616116Y-105760974D01*
X145620719Y-105760474D01*
X145647799Y-105757532D01*
X145677016Y-105754358D01*
X145684412Y-105751586D01*
X145684414Y-105751585D01*
X145802182Y-105707437D01*
X145802185Y-105707436D01*
X145810589Y-105704285D01*
X145924738Y-105618734D01*
X145963955Y-105566407D01*
X146020814Y-105523894D01*
X146064780Y-105515974D01*
X148780024Y-105515974D01*
X148848145Y-105535976D01*
X148894638Y-105589632D01*
X148904742Y-105659906D01*
X148875248Y-105724486D01*
X148866769Y-105733243D01*
X148866362Y-105733752D01*
X148859444Y-105740146D01*
X148855751Y-105746505D01*
X148850234Y-105752663D01*
X147339460Y-107263437D01*
X147277148Y-107297463D01*
X147250365Y-107300342D01*
X138686793Y-107300342D01*
X138618672Y-107280340D01*
X138585967Y-107249908D01*
X138584950Y-107248551D01*
X138546751Y-107197582D01*
X138432602Y-107112031D01*
X138424198Y-107108880D01*
X138424195Y-107108879D01*
X138306427Y-107064731D01*
X138306425Y-107064730D01*
X138299029Y-107061958D01*
X138253461Y-107057008D01*
X138241526Y-107055711D01*
X138241525Y-107055711D01*
X138238129Y-107055342D01*
X136878853Y-107055342D01*
X136875457Y-107055711D01*
X136875456Y-107055711D01*
X136863521Y-107057008D01*
X136817953Y-107061958D01*
X136810557Y-107064730D01*
X136810555Y-107064731D01*
X136692787Y-107108879D01*
X136692784Y-107108880D01*
X136684380Y-107112031D01*
X136615591Y-107163586D01*
X136582232Y-107188588D01*
X136570231Y-107197582D01*
X136564852Y-107204759D01*
X136561829Y-107208793D01*
X136484680Y-107311731D01*
X136481529Y-107320135D01*
X136481528Y-107320138D01*
X136439230Y-107432971D01*
X136434607Y-107445304D01*
X136427991Y-107506204D01*
X136427991Y-107995480D01*
X136434607Y-108056380D01*
X136437379Y-108063775D01*
X136437380Y-108063778D01*
X136481439Y-108181307D01*
X136484680Y-108189953D01*
X136506417Y-108218956D01*
X136564582Y-108296564D01*
X136570231Y-108304102D01*
X136577408Y-108309481D01*
X136582560Y-108313342D01*
X136684380Y-108389653D01*
X136692784Y-108392804D01*
X136692787Y-108392805D01*
X136810555Y-108436953D01*
X136810557Y-108436954D01*
X136817953Y-108439726D01*
X136847768Y-108442965D01*
X136874251Y-108445842D01*
X136878853Y-108446342D01*
X138238129Y-108446342D01*
X138242732Y-108445842D01*
X138269214Y-108442965D01*
X138299029Y-108439726D01*
X138306425Y-108436954D01*
X138306427Y-108436953D01*
X138424195Y-108392805D01*
X138424198Y-108392804D01*
X138432602Y-108389653D01*
X138546751Y-108304102D01*
X138585968Y-108251775D01*
X138642827Y-108209262D01*
X138686793Y-108201342D01*
X147454938Y-108201342D01*
X147469747Y-108202215D01*
X147503468Y-108206206D01*
X147512732Y-108204514D01*
X147512733Y-108204514D01*
X147561159Y-108195670D01*
X147565062Y-108195020D01*
X147613803Y-108187692D01*
X147613804Y-108187692D01*
X147623120Y-108186291D01*
X147629633Y-108183163D01*
X147636731Y-108181867D01*
X147688805Y-108154817D01*
X147692295Y-108153074D01*
X147745237Y-108127651D01*
X147750523Y-108122765D01*
X147750571Y-108122732D01*
X147756946Y-108119421D01*
X147761986Y-108115117D01*
X147799213Y-108077890D01*
X147802779Y-108074460D01*
X147830833Y-108048527D01*
X147844714Y-108035696D01*
X147848407Y-108029337D01*
X147853924Y-108023179D01*
X149364698Y-106512405D01*
X149427010Y-106478379D01*
X149453793Y-106475500D01*
X158200454Y-106475500D01*
X158268575Y-106495502D01*
X158285251Y-106508305D01*
X158342318Y-106560231D01*
X158379240Y-106620870D01*
X158377517Y-106691846D01*
X158340347Y-106748373D01*
X158232359Y-106842577D01*
X158231359Y-106843449D01*
X158166877Y-106873157D01*
X158148530Y-106874500D01*
X149829220Y-106874500D01*
X149814411Y-106873627D01*
X149790043Y-106870743D01*
X149780690Y-106869636D01*
X149771426Y-106871328D01*
X149771425Y-106871328D01*
X149722999Y-106880172D01*
X149719096Y-106880822D01*
X149670355Y-106888150D01*
X149670354Y-106888150D01*
X149661038Y-106889551D01*
X149654525Y-106892679D01*
X149647427Y-106893975D01*
X149595353Y-106921025D01*
X149591863Y-106922768D01*
X149538921Y-106948191D01*
X149533635Y-106953077D01*
X149533587Y-106953110D01*
X149527212Y-106956421D01*
X149522172Y-106960725D01*
X149484945Y-106997952D01*
X149481380Y-107001381D01*
X149439444Y-107040146D01*
X149435751Y-107046505D01*
X149430234Y-107052663D01*
X145901277Y-110581620D01*
X145838965Y-110615646D01*
X145812182Y-110618525D01*
X131570927Y-110618525D01*
X131502806Y-110598523D01*
X131470101Y-110568091D01*
X131436534Y-110523303D01*
X131430885Y-110515765D01*
X131316736Y-110430214D01*
X131308332Y-110427063D01*
X131308329Y-110427062D01*
X131190561Y-110382914D01*
X131190559Y-110382913D01*
X131183163Y-110380141D01*
X131135923Y-110375009D01*
X131125660Y-110373894D01*
X131125659Y-110373894D01*
X131122263Y-110373525D01*
X129762987Y-110373525D01*
X129759591Y-110373894D01*
X129759590Y-110373894D01*
X129749327Y-110375009D01*
X129702087Y-110380141D01*
X129694691Y-110382913D01*
X129694689Y-110382914D01*
X129576921Y-110427062D01*
X129576918Y-110427063D01*
X129568514Y-110430214D01*
X129454365Y-110515765D01*
X129448986Y-110522942D01*
X129435703Y-110540665D01*
X129368814Y-110629914D01*
X129365663Y-110638318D01*
X129365662Y-110638321D01*
X129353767Y-110670052D01*
X129318741Y-110763487D01*
X129312125Y-110824387D01*
X129312125Y-111313663D01*
X129318741Y-111374563D01*
X129321513Y-111381959D01*
X129321514Y-111381961D01*
X129365573Y-111499490D01*
X129368814Y-111508136D01*
X129397201Y-111546012D01*
X129448716Y-111614747D01*
X129454365Y-111622285D01*
X129568514Y-111707836D01*
X129576918Y-111710987D01*
X129576921Y-111710988D01*
X129694689Y-111755136D01*
X129694691Y-111755137D01*
X129702087Y-111757909D01*
X129731902Y-111761148D01*
X129758385Y-111764025D01*
X129762987Y-111764525D01*
X131122263Y-111764525D01*
X131126866Y-111764025D01*
X131153348Y-111761148D01*
X131183163Y-111757909D01*
X131190559Y-111755137D01*
X131190561Y-111755136D01*
X131308329Y-111710988D01*
X131308332Y-111710987D01*
X131316736Y-111707836D01*
X131430885Y-111622285D01*
X131470102Y-111569958D01*
X131526961Y-111527445D01*
X131570927Y-111519525D01*
X146016755Y-111519525D01*
X146031564Y-111520398D01*
X146065285Y-111524389D01*
X146074549Y-111522697D01*
X146074550Y-111522697D01*
X146122976Y-111513853D01*
X146126879Y-111513203D01*
X146175620Y-111505875D01*
X146175621Y-111505875D01*
X146184937Y-111504474D01*
X146191450Y-111501346D01*
X146198548Y-111500050D01*
X146250622Y-111473000D01*
X146254112Y-111471257D01*
X146307054Y-111445834D01*
X146312340Y-111440948D01*
X146312388Y-111440915D01*
X146318763Y-111437604D01*
X146323803Y-111433300D01*
X146361030Y-111396073D01*
X146364596Y-111392643D01*
X146399616Y-111360271D01*
X146406531Y-111353879D01*
X146410224Y-111347520D01*
X146415741Y-111341362D01*
X149944698Y-107812405D01*
X150007010Y-107778379D01*
X150033793Y-107775500D01*
X158150454Y-107775500D01*
X158218575Y-107795502D01*
X158235253Y-107808306D01*
X158240920Y-107813463D01*
X158330612Y-107895077D01*
X158330616Y-107895080D01*
X158336233Y-107900191D01*
X158342906Y-107903814D01*
X158342910Y-107903817D01*
X158478558Y-107977467D01*
X158478560Y-107977468D01*
X158485235Y-107981092D01*
X158492584Y-107983020D01*
X158641883Y-108022188D01*
X158641885Y-108022188D01*
X158649233Y-108024116D01*
X158735609Y-108025473D01*
X158811161Y-108026660D01*
X158811164Y-108026660D01*
X158818760Y-108026779D01*
X158826165Y-108025083D01*
X158826166Y-108025083D01*
X158940226Y-107998960D01*
X158984029Y-107988928D01*
X159135498Y-107912747D01*
X159260846Y-107805689D01*
X159325636Y-107776658D01*
X159342677Y-107775500D01*
X159973500Y-107775500D01*
X160041621Y-107795502D01*
X160088114Y-107849158D01*
X160099500Y-107901499D01*
X160099501Y-108009698D01*
X160099501Y-108106518D01*
X160100276Y-108111411D01*
X160100276Y-108111412D01*
X160112715Y-108189953D01*
X160114354Y-108200304D01*
X160118857Y-108209141D01*
X160118858Y-108209145D01*
X160136005Y-108242798D01*
X160149109Y-108312575D01*
X160136005Y-108357202D01*
X160119471Y-108389653D01*
X160114354Y-108399696D01*
X160112804Y-108409485D01*
X160112803Y-108409487D01*
X160109750Y-108428767D01*
X160099500Y-108493481D01*
X160099501Y-108756518D01*
X160100276Y-108761411D01*
X160100276Y-108761412D01*
X160111014Y-108829212D01*
X160114354Y-108850304D01*
X160118857Y-108859141D01*
X160118858Y-108859145D01*
X160136005Y-108892798D01*
X160149109Y-108962575D01*
X160136005Y-109007202D01*
X160119340Y-109039910D01*
X160114354Y-109049696D01*
X160112804Y-109059485D01*
X160112803Y-109059487D01*
X160108751Y-109085074D01*
X160099500Y-109143481D01*
X160099501Y-109406518D01*
X160100276Y-109411409D01*
X160100276Y-109411412D01*
X160111014Y-109479212D01*
X160114354Y-109500304D01*
X160118855Y-109509137D01*
X160118857Y-109509142D01*
X160121161Y-109513663D01*
X160171950Y-109613342D01*
X160261658Y-109703050D01*
X160374696Y-109760646D01*
X160384485Y-109762196D01*
X160384487Y-109762197D01*
X160411849Y-109766530D01*
X160468481Y-109775500D01*
X161137364Y-109775500D01*
X161806518Y-109775499D01*
X161811412Y-109774724D01*
X161890506Y-109762198D01*
X161890508Y-109762197D01*
X161900304Y-109760646D01*
X161942330Y-109739233D01*
X161999532Y-109725500D01*
X162906207Y-109725500D01*
X162974328Y-109745502D01*
X162995302Y-109762405D01*
X164866650Y-111633754D01*
X164900676Y-111696066D01*
X164895611Y-111766882D01*
X164853064Y-111823717D01*
X164803752Y-111846096D01*
X164726655Y-111862483D01*
X164726652Y-111862484D01*
X164720197Y-111863856D01*
X164647611Y-111896174D01*
X164577244Y-111905609D01*
X164512946Y-111875503D01*
X164507266Y-111870163D01*
X163762753Y-111125650D01*
X163752899Y-111114561D01*
X163737707Y-111095291D01*
X163737705Y-111095289D01*
X163731872Y-111087890D01*
X163724125Y-111082535D01*
X163724123Y-111082534D01*
X163687875Y-111057482D01*
X163683615Y-111054538D01*
X163680403Y-111052243D01*
X163640758Y-111022960D01*
X163640757Y-111022959D01*
X163633184Y-111017366D01*
X163626368Y-111014973D01*
X163620431Y-111010869D01*
X163611451Y-111008029D01*
X163611449Y-111008028D01*
X163591283Y-111001650D01*
X163564481Y-110993174D01*
X163560750Y-110991929D01*
X163514263Y-110975604D01*
X163514261Y-110975604D01*
X163505369Y-110972481D01*
X163498181Y-110972199D01*
X163498122Y-110972188D01*
X163491270Y-110970020D01*
X163484663Y-110969500D01*
X163431984Y-110969500D01*
X163427037Y-110969403D01*
X163370006Y-110967162D01*
X163362900Y-110969046D01*
X163354653Y-110969500D01*
X160154220Y-110969500D01*
X160139411Y-110968627D01*
X160115043Y-110965743D01*
X160105690Y-110964636D01*
X160096426Y-110966328D01*
X160096425Y-110966328D01*
X160047999Y-110975172D01*
X160044096Y-110975822D01*
X159995355Y-110983150D01*
X159995354Y-110983150D01*
X159986038Y-110984551D01*
X159979525Y-110987679D01*
X159972427Y-110988975D01*
X159920353Y-111016025D01*
X159916863Y-111017768D01*
X159863921Y-111043191D01*
X159858635Y-111048077D01*
X159858587Y-111048110D01*
X159852212Y-111051421D01*
X159847172Y-111055725D01*
X159809945Y-111092952D01*
X159806380Y-111096381D01*
X159764444Y-111135146D01*
X159760751Y-111141505D01*
X159755234Y-111147663D01*
X158530289Y-112372608D01*
X158467977Y-112406634D01*
X158440536Y-112409511D01*
X158348895Y-112409031D01*
X158341508Y-112410805D01*
X158341504Y-112410805D01*
X158207074Y-112443080D01*
X158184032Y-112448612D01*
X158177288Y-112452093D01*
X158177285Y-112452094D01*
X158044548Y-112520605D01*
X158033369Y-112526375D01*
X158027647Y-112531367D01*
X158027645Y-112531368D01*
X158013831Y-112543419D01*
X157905604Y-112637831D01*
X157808113Y-112776547D01*
X157746524Y-112934513D01*
X157745532Y-112942046D01*
X157745532Y-112942047D01*
X157731471Y-113048857D01*
X157724394Y-113102611D01*
X157742999Y-113271135D01*
X157775754Y-113360642D01*
X157792304Y-113405865D01*
X157801266Y-113430356D01*
X157805502Y-113436659D01*
X157805502Y-113436660D01*
X157816661Y-113453266D01*
X157895830Y-113571083D01*
X157901442Y-113576190D01*
X157901445Y-113576193D01*
X158015612Y-113680077D01*
X158015616Y-113680080D01*
X158021233Y-113685191D01*
X158027906Y-113688814D01*
X158027910Y-113688817D01*
X158163558Y-113762467D01*
X158163560Y-113762468D01*
X158170235Y-113766092D01*
X158177584Y-113768020D01*
X158326883Y-113807188D01*
X158326885Y-113807188D01*
X158334233Y-113809116D01*
X158420609Y-113810473D01*
X158496161Y-113811660D01*
X158496164Y-113811660D01*
X158503760Y-113811779D01*
X158511165Y-113810083D01*
X158511166Y-113810083D01*
X158571586Y-113796245D01*
X158669029Y-113773928D01*
X158820498Y-113697747D01*
X158949423Y-113587634D01*
X159048361Y-113449947D01*
X159056237Y-113430356D01*
X159108766Y-113299687D01*
X159108767Y-113299685D01*
X159111601Y-113292634D01*
X159135490Y-113124778D01*
X159135645Y-113110000D01*
X159135148Y-113105894D01*
X159134922Y-113101789D01*
X159137000Y-113101675D01*
X159147195Y-113039887D01*
X159171604Y-113005499D01*
X159884405Y-112292698D01*
X159946717Y-112258672D01*
X160017532Y-112263737D01*
X160074368Y-112306284D01*
X160099179Y-112372804D01*
X160099500Y-112381793D01*
X160099500Y-113667772D01*
X160110364Y-113757547D01*
X160113344Y-113765075D01*
X160113345Y-113765077D01*
X160131164Y-113810083D01*
X160165887Y-113897783D01*
X160257078Y-114017922D01*
X160377217Y-114109113D01*
X160438698Y-114133455D01*
X160509923Y-114161655D01*
X160509925Y-114161656D01*
X160517453Y-114164636D01*
X160607228Y-114175500D01*
X161392772Y-114175500D01*
X161482547Y-114164636D01*
X161490075Y-114161656D01*
X161490077Y-114161655D01*
X161561302Y-114133455D01*
X161622783Y-114109113D01*
X161742922Y-114017922D01*
X161834113Y-113897783D01*
X161868836Y-113810083D01*
X161886655Y-113765077D01*
X161886656Y-113765075D01*
X161889636Y-113757547D01*
X161900500Y-113667772D01*
X161900500Y-113599080D01*
X161920502Y-113530959D01*
X161974158Y-113484466D01*
X162044432Y-113474362D01*
X162109012Y-113503856D01*
X162146333Y-113560143D01*
X162171240Y-113636798D01*
X162176584Y-113648800D01*
X162264571Y-113801200D01*
X162272293Y-113811828D01*
X162390051Y-113942611D01*
X162399805Y-113951393D01*
X162542179Y-114054835D01*
X162553551Y-114061401D01*
X162583449Y-114074712D01*
X162597427Y-114076586D01*
X162600000Y-114072498D01*
X162600000Y-112726000D01*
X162620002Y-112657879D01*
X162673658Y-112611386D01*
X162726000Y-112600000D01*
X163274000Y-112600000D01*
X163342121Y-112620002D01*
X163388614Y-112673658D01*
X163400000Y-112726000D01*
X163400000Y-114063966D01*
X163403973Y-114077497D01*
X163408753Y-114078184D01*
X163446444Y-114061402D01*
X163457819Y-114054835D01*
X163600195Y-113951393D01*
X163609949Y-113942611D01*
X163727707Y-113811828D01*
X163735429Y-113801200D01*
X163823416Y-113648800D01*
X163828760Y-113636798D01*
X163879904Y-113479395D01*
X163919978Y-113420790D01*
X163985375Y-113393153D01*
X164055331Y-113405260D01*
X164107637Y-113453266D01*
X164119570Y-113479394D01*
X164172821Y-113643284D01*
X164176124Y-113649006D01*
X164176125Y-113649007D01*
X164186959Y-113667772D01*
X164267467Y-113807216D01*
X164271885Y-113812123D01*
X164271886Y-113812124D01*
X164389378Y-113942611D01*
X164394129Y-113947888D01*
X164399468Y-113951767D01*
X164541330Y-114054835D01*
X164547270Y-114059151D01*
X164720197Y-114136144D01*
X164818212Y-114156978D01*
X164898897Y-114174128D01*
X164898901Y-114174128D01*
X164905354Y-114175500D01*
X165094646Y-114175500D01*
X165101099Y-114174128D01*
X165101103Y-114174128D01*
X165181788Y-114156978D01*
X165279803Y-114136144D01*
X165452730Y-114059151D01*
X165458671Y-114054835D01*
X165600532Y-113951767D01*
X165605871Y-113947888D01*
X165610623Y-113942611D01*
X165728114Y-113812124D01*
X165728115Y-113812123D01*
X165732533Y-113807216D01*
X165813041Y-113667772D01*
X165823875Y-113649007D01*
X165823876Y-113649006D01*
X165827179Y-113643284D01*
X165872482Y-113503856D01*
X165880167Y-113480205D01*
X165920241Y-113421599D01*
X165985637Y-113393962D01*
X166055594Y-113406069D01*
X166107900Y-113454075D01*
X166119833Y-113480205D01*
X166127518Y-113503856D01*
X166172821Y-113643284D01*
X166176124Y-113649006D01*
X166176125Y-113649007D01*
X166186959Y-113667772D01*
X166267467Y-113807216D01*
X166271885Y-113812123D01*
X166271886Y-113812124D01*
X166389378Y-113942611D01*
X166394129Y-113947888D01*
X166399468Y-113951767D01*
X166541330Y-114054835D01*
X166547270Y-114059151D01*
X166720197Y-114136144D01*
X166818212Y-114156978D01*
X166898897Y-114174128D01*
X166898901Y-114174128D01*
X166905354Y-114175500D01*
X167094646Y-114175500D01*
X167101099Y-114174128D01*
X167101103Y-114174128D01*
X167181788Y-114156978D01*
X167279803Y-114136144D01*
X167452730Y-114059151D01*
X167458671Y-114054835D01*
X167600532Y-113951767D01*
X167605871Y-113947888D01*
X167610623Y-113942611D01*
X167728114Y-113812124D01*
X167728115Y-113812123D01*
X167732533Y-113807216D01*
X167813041Y-113667772D01*
X167823875Y-113649007D01*
X167823876Y-113649006D01*
X167827179Y-113643284D01*
X167872482Y-113503856D01*
X167880167Y-113480205D01*
X167920241Y-113421599D01*
X167985637Y-113393962D01*
X168055594Y-113406069D01*
X168107900Y-113454075D01*
X168119833Y-113480205D01*
X168127518Y-113503856D01*
X168172821Y-113643284D01*
X168176124Y-113649006D01*
X168176125Y-113649007D01*
X168186959Y-113667772D01*
X168267467Y-113807216D01*
X168271885Y-113812123D01*
X168271886Y-113812124D01*
X168389378Y-113942611D01*
X168394129Y-113947888D01*
X168399468Y-113951767D01*
X168541330Y-114054835D01*
X168547270Y-114059151D01*
X168720197Y-114136144D01*
X168818212Y-114156978D01*
X168898897Y-114174128D01*
X168898901Y-114174128D01*
X168905354Y-114175500D01*
X169094646Y-114175500D01*
X169101099Y-114174128D01*
X169101103Y-114174128D01*
X169181788Y-114156978D01*
X169279803Y-114136144D01*
X169452730Y-114059151D01*
X169458671Y-114054835D01*
X169600532Y-113951767D01*
X169605871Y-113947888D01*
X169610623Y-113942611D01*
X169728114Y-113812124D01*
X169728115Y-113812123D01*
X169732533Y-113807216D01*
X169813041Y-113667772D01*
X169823875Y-113649007D01*
X169823876Y-113649006D01*
X169827179Y-113643284D01*
X169872482Y-113503856D01*
X169880167Y-113480205D01*
X169920241Y-113421599D01*
X169985637Y-113393962D01*
X170055594Y-113406069D01*
X170107900Y-113454075D01*
X170119833Y-113480205D01*
X170127518Y-113503856D01*
X170172821Y-113643284D01*
X170176124Y-113649006D01*
X170176125Y-113649007D01*
X170186959Y-113667772D01*
X170267467Y-113807216D01*
X170271885Y-113812123D01*
X170271886Y-113812124D01*
X170389378Y-113942611D01*
X170394129Y-113947888D01*
X170399468Y-113951767D01*
X170541330Y-114054835D01*
X170547270Y-114059151D01*
X170720197Y-114136144D01*
X170818212Y-114156978D01*
X170898897Y-114174128D01*
X170898901Y-114174128D01*
X170905354Y-114175500D01*
X171094646Y-114175500D01*
X171101099Y-114174128D01*
X171101103Y-114174128D01*
X171181788Y-114156978D01*
X171279803Y-114136144D01*
X171452730Y-114059151D01*
X171458671Y-114054835D01*
X171600532Y-113951767D01*
X171605871Y-113947888D01*
X171610623Y-113942611D01*
X171728114Y-113812124D01*
X171728115Y-113812123D01*
X171732533Y-113807216D01*
X171813041Y-113667772D01*
X171823875Y-113649007D01*
X171823876Y-113649006D01*
X171827179Y-113643284D01*
X171872482Y-113503856D01*
X171880167Y-113480205D01*
X171920241Y-113421599D01*
X171985637Y-113393962D01*
X172055594Y-113406069D01*
X172107900Y-113454075D01*
X172119833Y-113480205D01*
X172127518Y-113503856D01*
X172172821Y-113643284D01*
X172176124Y-113649006D01*
X172176125Y-113649007D01*
X172186959Y-113667772D01*
X172267467Y-113807216D01*
X172271885Y-113812123D01*
X172271886Y-113812124D01*
X172389378Y-113942611D01*
X172394129Y-113947888D01*
X172399468Y-113951767D01*
X172541330Y-114054835D01*
X172547270Y-114059151D01*
X172720197Y-114136144D01*
X172818212Y-114156978D01*
X172898897Y-114174128D01*
X172898901Y-114174128D01*
X172905354Y-114175500D01*
X173094646Y-114175500D01*
X173101099Y-114174128D01*
X173101103Y-114174128D01*
X173181788Y-114156978D01*
X173279803Y-114136144D01*
X173452730Y-114059151D01*
X173458671Y-114054835D01*
X173600532Y-113951767D01*
X173605871Y-113947888D01*
X173610623Y-113942611D01*
X173728114Y-113812124D01*
X173728115Y-113812123D01*
X173732533Y-113807216D01*
X173813041Y-113667772D01*
X173823875Y-113649007D01*
X173823876Y-113649006D01*
X173827179Y-113643284D01*
X173872482Y-113503856D01*
X173880167Y-113480205D01*
X173920241Y-113421599D01*
X173985637Y-113393962D01*
X174055594Y-113406069D01*
X174107900Y-113454075D01*
X174119833Y-113480205D01*
X174127518Y-113503856D01*
X174172821Y-113643284D01*
X174176124Y-113649006D01*
X174176125Y-113649007D01*
X174186959Y-113667772D01*
X174267467Y-113807216D01*
X174271885Y-113812123D01*
X174271886Y-113812124D01*
X174389378Y-113942611D01*
X174394129Y-113947888D01*
X174399468Y-113951767D01*
X174541330Y-114054835D01*
X174547270Y-114059151D01*
X174720197Y-114136144D01*
X174818212Y-114156978D01*
X174898897Y-114174128D01*
X174898901Y-114174128D01*
X174905354Y-114175500D01*
X175094646Y-114175500D01*
X175101099Y-114174128D01*
X175101103Y-114174128D01*
X175181788Y-114156978D01*
X175279803Y-114136144D01*
X175452730Y-114059151D01*
X175458671Y-114054835D01*
X175600532Y-113951767D01*
X175605871Y-113947888D01*
X175610623Y-113942611D01*
X175728114Y-113812124D01*
X175728115Y-113812123D01*
X175732533Y-113807216D01*
X175813041Y-113667772D01*
X175823875Y-113649007D01*
X175823876Y-113649006D01*
X175827179Y-113643284D01*
X175872482Y-113503856D01*
X175880167Y-113480205D01*
X175920241Y-113421599D01*
X175985637Y-113393962D01*
X176055594Y-113406069D01*
X176107900Y-113454075D01*
X176119833Y-113480205D01*
X176127518Y-113503856D01*
X176172821Y-113643284D01*
X176176124Y-113649006D01*
X176176125Y-113649007D01*
X176186959Y-113667772D01*
X176267467Y-113807216D01*
X176271885Y-113812123D01*
X176271886Y-113812124D01*
X176389378Y-113942611D01*
X176394129Y-113947888D01*
X176399468Y-113951767D01*
X176541330Y-114054835D01*
X176547270Y-114059151D01*
X176720197Y-114136144D01*
X176818212Y-114156978D01*
X176898897Y-114174128D01*
X176898901Y-114174128D01*
X176905354Y-114175500D01*
X177094646Y-114175500D01*
X177101099Y-114174128D01*
X177101103Y-114174128D01*
X177181788Y-114156978D01*
X177279803Y-114136144D01*
X177452730Y-114059151D01*
X177458671Y-114054835D01*
X177600532Y-113951767D01*
X177605871Y-113947888D01*
X177610623Y-113942611D01*
X177728114Y-113812124D01*
X177728115Y-113812123D01*
X177732533Y-113807216D01*
X177813041Y-113667772D01*
X177823875Y-113649007D01*
X177823876Y-113649006D01*
X177827179Y-113643284D01*
X177880430Y-113479395D01*
X177920504Y-113420790D01*
X177985900Y-113393153D01*
X178055857Y-113405260D01*
X178108163Y-113453266D01*
X178120096Y-113479395D01*
X178171240Y-113636798D01*
X178176584Y-113648800D01*
X178264571Y-113801200D01*
X178272293Y-113811828D01*
X178390051Y-113942611D01*
X178399805Y-113951393D01*
X178542179Y-114054835D01*
X178553551Y-114061401D01*
X178583449Y-114074712D01*
X178597427Y-114076586D01*
X178600000Y-114072498D01*
X178600000Y-114063966D01*
X179400000Y-114063966D01*
X179403973Y-114077497D01*
X179408753Y-114078184D01*
X179446444Y-114061402D01*
X179457819Y-114054835D01*
X179600195Y-113951393D01*
X179609949Y-113942611D01*
X179727707Y-113811828D01*
X179735429Y-113801200D01*
X179823416Y-113648800D01*
X179828760Y-113636798D01*
X179883140Y-113469434D01*
X179885872Y-113456581D01*
X179889926Y-113418016D01*
X179887246Y-113403364D01*
X179874926Y-113400000D01*
X179418115Y-113400000D01*
X179402876Y-113404475D01*
X179401671Y-113405865D01*
X179400000Y-113413548D01*
X179400000Y-114063966D01*
X178600000Y-114063966D01*
X178600000Y-112581885D01*
X179400000Y-112581885D01*
X179404475Y-112597124D01*
X179405865Y-112598329D01*
X179413548Y-112600000D01*
X179873704Y-112600000D01*
X179887996Y-112595803D01*
X179890054Y-112583202D01*
X179885872Y-112543419D01*
X179883140Y-112530566D01*
X179828760Y-112363202D01*
X179823416Y-112351200D01*
X179735429Y-112198800D01*
X179727707Y-112188172D01*
X179609949Y-112057389D01*
X179600195Y-112048607D01*
X179457821Y-111945165D01*
X179446449Y-111938599D01*
X179416551Y-111925288D01*
X179402573Y-111923414D01*
X179400000Y-111927502D01*
X179400000Y-112581885D01*
X178600000Y-112581885D01*
X178600000Y-111936034D01*
X178596027Y-111922503D01*
X178591247Y-111921816D01*
X178553556Y-111938598D01*
X178542181Y-111945165D01*
X178399805Y-112048607D01*
X178390051Y-112057389D01*
X178272293Y-112188172D01*
X178264571Y-112198800D01*
X178176584Y-112351200D01*
X178171240Y-112363202D01*
X178120096Y-112520605D01*
X178080022Y-112579210D01*
X178014625Y-112606847D01*
X177944669Y-112594740D01*
X177892363Y-112546734D01*
X177880430Y-112520605D01*
X177870932Y-112491373D01*
X177827179Y-112356716D01*
X177815229Y-112336017D01*
X177735836Y-112198505D01*
X177732533Y-112192784D01*
X177676727Y-112130805D01*
X177610286Y-112057015D01*
X177610284Y-112057014D01*
X177605871Y-112052112D01*
X177512439Y-111984230D01*
X177469085Y-111928008D01*
X177460500Y-111882294D01*
X177460500Y-110234940D01*
X180169680Y-110234940D01*
X180178765Y-110259173D01*
X180187303Y-110274767D01*
X180262430Y-110375009D01*
X180274991Y-110387570D01*
X180375237Y-110462701D01*
X180390823Y-110471233D01*
X180483036Y-110505802D01*
X180497102Y-110506832D01*
X180500000Y-110501547D01*
X180500000Y-110494047D01*
X181300000Y-110494047D01*
X181303973Y-110507578D01*
X181309940Y-110508436D01*
X181409177Y-110471233D01*
X181424763Y-110462701D01*
X181525009Y-110387570D01*
X181537570Y-110375009D01*
X181612697Y-110274767D01*
X181621235Y-110259173D01*
X181627687Y-110241964D01*
X181628716Y-110227899D01*
X181623429Y-110225000D01*
X181318115Y-110225000D01*
X181302876Y-110229475D01*
X181301671Y-110230865D01*
X181300000Y-110238548D01*
X181300000Y-110494047D01*
X180500000Y-110494047D01*
X180500000Y-110243115D01*
X180495525Y-110227876D01*
X180494135Y-110226671D01*
X180486452Y-110225000D01*
X180184069Y-110225000D01*
X180170538Y-110228973D01*
X180169680Y-110234940D01*
X177460500Y-110234940D01*
X177460500Y-109492266D01*
X177838905Y-109492266D01*
X177844336Y-109508982D01*
X177892859Y-109604213D01*
X177904370Y-109620056D01*
X177979944Y-109695630D01*
X177995787Y-109707141D01*
X178091018Y-109755664D01*
X178109645Y-109761716D01*
X178188627Y-109774225D01*
X178198473Y-109775000D01*
X178644385Y-109775000D01*
X178659624Y-109770525D01*
X178660829Y-109769135D01*
X178662500Y-109761452D01*
X178662500Y-109756884D01*
X179062500Y-109756884D01*
X179066975Y-109772123D01*
X179068365Y-109773328D01*
X179076048Y-109774999D01*
X179526525Y-109774999D01*
X179536374Y-109774224D01*
X179615351Y-109761717D01*
X179633986Y-109755662D01*
X179729213Y-109707141D01*
X179745056Y-109695630D01*
X179820630Y-109620056D01*
X179832141Y-109604213D01*
X179880664Y-109508982D01*
X179886194Y-109491963D01*
X179884546Y-109479212D01*
X179870572Y-109475000D01*
X179080615Y-109475000D01*
X179065376Y-109479475D01*
X179064171Y-109480865D01*
X179062500Y-109488548D01*
X179062500Y-109756884D01*
X178662500Y-109756884D01*
X178662500Y-109493115D01*
X178658025Y-109477876D01*
X178656635Y-109476671D01*
X178648952Y-109475000D01*
X177853967Y-109475000D01*
X177840731Y-109478887D01*
X177838905Y-109492266D01*
X177460500Y-109492266D01*
X177460500Y-109058037D01*
X177838806Y-109058037D01*
X177840454Y-109070788D01*
X177854428Y-109075000D01*
X178644385Y-109075000D01*
X178659624Y-109070525D01*
X178660829Y-109069135D01*
X178662500Y-109061452D01*
X178662500Y-109056885D01*
X179062500Y-109056885D01*
X179066975Y-109072124D01*
X179068365Y-109073329D01*
X179076048Y-109075000D01*
X179871033Y-109075000D01*
X179884269Y-109071113D01*
X179886095Y-109057734D01*
X179880664Y-109041019D01*
X179863434Y-109007203D01*
X179850330Y-108937427D01*
X179863434Y-108892797D01*
X179880664Y-108858981D01*
X179886194Y-108841963D01*
X179884546Y-108829212D01*
X179870572Y-108825000D01*
X179080615Y-108825000D01*
X179065376Y-108829475D01*
X179064171Y-108830865D01*
X179062500Y-108838548D01*
X179062500Y-109056885D01*
X178662500Y-109056885D01*
X178662500Y-108843115D01*
X178658025Y-108827876D01*
X178656635Y-108826671D01*
X178648952Y-108825000D01*
X177853967Y-108825000D01*
X177840731Y-108828887D01*
X177838905Y-108842266D01*
X177844336Y-108858981D01*
X177861566Y-108892797D01*
X177874670Y-108962573D01*
X177861566Y-109007203D01*
X177844336Y-109041019D01*
X177838806Y-109058037D01*
X177460500Y-109058037D01*
X177460500Y-107208793D01*
X177480502Y-107140672D01*
X177497405Y-107119698D01*
X177551518Y-107065585D01*
X177582528Y-107042867D01*
X177650594Y-107007510D01*
X177720263Y-106993859D01*
X177786255Y-107020042D01*
X177827616Y-107077746D01*
X177833123Y-107139035D01*
X177824500Y-107193481D01*
X177824501Y-107456518D01*
X177825276Y-107461409D01*
X177825276Y-107461412D01*
X177832602Y-107507668D01*
X177839354Y-107550304D01*
X177843856Y-107559140D01*
X177843858Y-107559145D01*
X177861005Y-107592798D01*
X177874109Y-107662575D01*
X177861005Y-107707202D01*
X177847238Y-107734223D01*
X177839354Y-107749696D01*
X177837804Y-107759485D01*
X177837803Y-107759487D01*
X177837173Y-107763465D01*
X177824500Y-107843481D01*
X177824501Y-108106518D01*
X177825276Y-108111411D01*
X177825276Y-108111412D01*
X177837715Y-108189953D01*
X177839354Y-108200304D01*
X177843858Y-108209143D01*
X177843858Y-108209144D01*
X177861285Y-108243346D01*
X177874390Y-108313123D01*
X177861285Y-108357754D01*
X177844337Y-108391016D01*
X177838806Y-108408037D01*
X177840454Y-108420788D01*
X177854428Y-108425000D01*
X177999486Y-108425000D01*
X178056688Y-108438733D01*
X178089875Y-108455642D01*
X178099696Y-108460646D01*
X178109485Y-108462196D01*
X178109487Y-108462197D01*
X178136849Y-108466530D01*
X178193481Y-108475500D01*
X178862364Y-108475500D01*
X179531518Y-108475499D01*
X179536412Y-108474724D01*
X179615506Y-108462198D01*
X179615508Y-108462197D01*
X179625304Y-108460646D01*
X179667330Y-108439233D01*
X179724532Y-108425500D01*
X180022048Y-108425500D01*
X180090169Y-108445502D01*
X180136662Y-108499158D01*
X180140030Y-108507271D01*
X180149786Y-108533295D01*
X180181474Y-108617824D01*
X180186854Y-108625003D01*
X180186856Y-108625006D01*
X180250846Y-108710386D01*
X180267454Y-108732546D01*
X180274635Y-108737928D01*
X180374994Y-108813144D01*
X180374997Y-108813146D01*
X180382176Y-108818526D01*
X180466945Y-108850304D01*
X180509025Y-108866079D01*
X180509027Y-108866079D01*
X180516420Y-108868851D01*
X180524269Y-108869704D01*
X180524270Y-108869704D01*
X180539849Y-108871396D01*
X180572924Y-108874990D01*
X180638485Y-108902231D01*
X180678911Y-108960594D01*
X180681367Y-109031548D01*
X180645071Y-109092566D01*
X180581549Y-109124275D01*
X180572924Y-109125515D01*
X180524378Y-109130789D01*
X180509133Y-109134414D01*
X180390823Y-109178767D01*
X180375237Y-109187299D01*
X180274991Y-109262430D01*
X180262430Y-109274991D01*
X180187303Y-109375233D01*
X180178765Y-109390827D01*
X180172313Y-109408036D01*
X180171284Y-109422101D01*
X180176571Y-109425000D01*
X181615931Y-109425000D01*
X181629462Y-109421027D01*
X181630320Y-109415060D01*
X181621235Y-109390827D01*
X181612697Y-109375233D01*
X181537570Y-109274991D01*
X181525009Y-109262430D01*
X181424763Y-109187299D01*
X181409177Y-109178767D01*
X181290867Y-109134414D01*
X181275622Y-109130789D01*
X181227071Y-109125515D01*
X181161509Y-109098273D01*
X181121083Y-109039910D01*
X181118628Y-108968956D01*
X181154923Y-108907938D01*
X181218445Y-108876229D01*
X181227072Y-108874989D01*
X181233442Y-108874297D01*
X181283580Y-108868851D01*
X181417824Y-108818526D01*
X181425003Y-108813146D01*
X181425006Y-108813144D01*
X181525365Y-108737928D01*
X181532546Y-108732546D01*
X181549154Y-108710386D01*
X181613144Y-108625006D01*
X181613146Y-108625003D01*
X181618526Y-108617824D01*
X181653327Y-108524991D01*
X181666079Y-108490975D01*
X181666079Y-108490973D01*
X181668851Y-108483580D01*
X181669843Y-108474454D01*
X181675131Y-108425774D01*
X181675131Y-108425773D01*
X181675500Y-108422377D01*
X181675499Y-108146572D01*
X181695501Y-108078453D01*
X181749156Y-108031960D01*
X181818594Y-108021738D01*
X181821888Y-108022189D01*
X181829233Y-108024116D01*
X181938503Y-108025832D01*
X182006300Y-108046901D01*
X182025618Y-108062721D01*
X186297247Y-112334350D01*
X186307101Y-112345439D01*
X186320947Y-112363001D01*
X186328128Y-112372110D01*
X186335876Y-112377465D01*
X186335878Y-112377467D01*
X186376400Y-112405474D01*
X186379619Y-112407774D01*
X186392605Y-112417365D01*
X186426817Y-112442634D01*
X186433631Y-112445027D01*
X186439569Y-112449131D01*
X186448546Y-112451970D01*
X186448548Y-112451971D01*
X186495517Y-112466825D01*
X186499266Y-112468076D01*
X186554631Y-112487519D01*
X186561818Y-112487801D01*
X186561880Y-112487813D01*
X186568730Y-112489980D01*
X186575337Y-112490500D01*
X186628016Y-112490500D01*
X186632962Y-112490597D01*
X186689994Y-112492838D01*
X186697100Y-112490954D01*
X186705347Y-112490500D01*
X212385780Y-112490500D01*
X212400589Y-112491373D01*
X212434310Y-112495364D01*
X212443574Y-112493672D01*
X212443575Y-112493672D01*
X212492001Y-112484828D01*
X212495904Y-112484178D01*
X212544645Y-112476850D01*
X212544646Y-112476850D01*
X212553962Y-112475449D01*
X212560475Y-112472321D01*
X212567573Y-112471025D01*
X212619647Y-112443975D01*
X212623137Y-112442232D01*
X212676079Y-112416809D01*
X212681365Y-112411923D01*
X212681413Y-112411890D01*
X212687788Y-112408579D01*
X212692828Y-112404275D01*
X212730055Y-112367048D01*
X212733621Y-112363618D01*
X212734071Y-112363202D01*
X212775556Y-112324854D01*
X212779249Y-112318495D01*
X212784766Y-112312337D01*
X213295673Y-111801430D01*
X213357985Y-111767404D01*
X213384768Y-111764525D01*
X214237013Y-111764525D01*
X214241616Y-111764025D01*
X214268098Y-111761148D01*
X214297913Y-111757909D01*
X214305309Y-111755137D01*
X214305311Y-111755136D01*
X214423079Y-111710988D01*
X214423082Y-111710987D01*
X214431486Y-111707836D01*
X214438666Y-111702455D01*
X214438673Y-111702451D01*
X214497934Y-111658036D01*
X214564440Y-111633187D01*
X214633823Y-111648239D01*
X214684053Y-111698413D01*
X214699500Y-111758861D01*
X214699500Y-118573500D01*
X214679498Y-118641621D01*
X214625842Y-118688114D01*
X214573500Y-118699500D01*
X125426500Y-118699500D01*
X125358379Y-118679498D01*
X125311886Y-118625842D01*
X125300500Y-118573500D01*
X125300500Y-116000000D01*
X143644341Y-116000000D01*
X143664937Y-116235408D01*
X143726097Y-116463663D01*
X143825965Y-116677829D01*
X143961505Y-116871401D01*
X144128599Y-117038495D01*
X144322171Y-117174035D01*
X144327149Y-117176356D01*
X144327152Y-117176358D01*
X144531355Y-117271580D01*
X144536337Y-117273903D01*
X144541645Y-117275325D01*
X144541647Y-117275326D01*
X144759277Y-117333639D01*
X144764592Y-117335063D01*
X144867682Y-117344082D01*
X144938310Y-117350262D01*
X144938317Y-117350262D01*
X144941034Y-117350500D01*
X145058966Y-117350500D01*
X145061683Y-117350262D01*
X145061690Y-117350262D01*
X145132318Y-117344082D01*
X145235408Y-117335063D01*
X145240723Y-117333639D01*
X145458353Y-117275326D01*
X145458355Y-117275325D01*
X145463663Y-117273903D01*
X145468645Y-117271580D01*
X145672848Y-117176358D01*
X145672851Y-117176356D01*
X145677829Y-117174035D01*
X145871401Y-117038495D01*
X146038495Y-116871401D01*
X146041655Y-116866889D01*
X146170878Y-116682339D01*
X146170881Y-116682334D01*
X146174035Y-116677830D01*
X146176358Y-116672848D01*
X146176361Y-116672843D01*
X146271580Y-116468645D01*
X146271581Y-116468644D01*
X146273903Y-116463663D01*
X146335063Y-116235408D01*
X146355659Y-116000000D01*
X193644341Y-116000000D01*
X193664937Y-116235408D01*
X193726097Y-116463663D01*
X193825965Y-116677829D01*
X193961505Y-116871401D01*
X194128599Y-117038495D01*
X194322171Y-117174035D01*
X194327149Y-117176356D01*
X194327152Y-117176358D01*
X194531355Y-117271580D01*
X194536337Y-117273903D01*
X194541645Y-117275325D01*
X194541647Y-117275326D01*
X194759277Y-117333639D01*
X194764592Y-117335063D01*
X194867682Y-117344082D01*
X194938310Y-117350262D01*
X194938317Y-117350262D01*
X194941034Y-117350500D01*
X195058966Y-117350500D01*
X195061683Y-117350262D01*
X195061690Y-117350262D01*
X195132318Y-117344082D01*
X195235408Y-117335063D01*
X195240723Y-117333639D01*
X195458353Y-117275326D01*
X195458355Y-117275325D01*
X195463663Y-117273903D01*
X195468645Y-117271580D01*
X195672848Y-117176358D01*
X195672851Y-117176356D01*
X195677829Y-117174035D01*
X195871401Y-117038495D01*
X196038495Y-116871401D01*
X196041655Y-116866889D01*
X196170878Y-116682339D01*
X196170881Y-116682334D01*
X196174035Y-116677830D01*
X196176358Y-116672848D01*
X196176361Y-116672843D01*
X196271580Y-116468645D01*
X196271581Y-116468644D01*
X196273903Y-116463663D01*
X196335063Y-116235408D01*
X196355659Y-116000000D01*
X196335063Y-115764592D01*
X196273903Y-115536337D01*
X196174035Y-115322171D01*
X196038495Y-115128599D01*
X195871401Y-114961505D01*
X195677829Y-114825965D01*
X195672851Y-114823644D01*
X195672848Y-114823642D01*
X195468645Y-114728420D01*
X195468643Y-114728419D01*
X195463663Y-114726097D01*
X195458355Y-114724675D01*
X195458353Y-114724674D01*
X195240723Y-114666361D01*
X195240722Y-114666361D01*
X195235408Y-114664937D01*
X195132318Y-114655918D01*
X195061690Y-114649738D01*
X195061683Y-114649738D01*
X195058966Y-114649500D01*
X194941034Y-114649500D01*
X194938317Y-114649738D01*
X194938310Y-114649738D01*
X194867682Y-114655918D01*
X194764592Y-114664937D01*
X194759278Y-114666361D01*
X194759277Y-114666361D01*
X194541647Y-114724674D01*
X194541645Y-114724675D01*
X194536337Y-114726097D01*
X194531357Y-114728419D01*
X194531355Y-114728420D01*
X194327152Y-114823642D01*
X194327149Y-114823644D01*
X194322171Y-114825965D01*
X194128599Y-114961505D01*
X193961505Y-115128599D01*
X193958348Y-115133107D01*
X193958346Y-115133110D01*
X193829122Y-115317661D01*
X193825965Y-115322170D01*
X193823642Y-115327152D01*
X193823639Y-115327157D01*
X193728420Y-115531355D01*
X193726097Y-115536337D01*
X193664937Y-115764592D01*
X193644341Y-116000000D01*
X146355659Y-116000000D01*
X146335063Y-115764592D01*
X146273903Y-115536337D01*
X146174035Y-115322171D01*
X146038495Y-115128599D01*
X145871401Y-114961505D01*
X145677829Y-114825965D01*
X145672851Y-114823644D01*
X145672848Y-114823642D01*
X145468645Y-114728420D01*
X145468643Y-114728419D01*
X145463663Y-114726097D01*
X145458355Y-114724675D01*
X145458353Y-114724674D01*
X145240723Y-114666361D01*
X145240722Y-114666361D01*
X145235408Y-114664937D01*
X145132318Y-114655918D01*
X145061690Y-114649738D01*
X145061683Y-114649738D01*
X145058966Y-114649500D01*
X144941034Y-114649500D01*
X144938317Y-114649738D01*
X144938310Y-114649738D01*
X144867682Y-114655918D01*
X144764592Y-114664937D01*
X144759278Y-114666361D01*
X144759277Y-114666361D01*
X144541647Y-114724674D01*
X144541645Y-114724675D01*
X144536337Y-114726097D01*
X144531357Y-114728419D01*
X144531355Y-114728420D01*
X144327152Y-114823642D01*
X144327149Y-114823644D01*
X144322171Y-114825965D01*
X144128599Y-114961505D01*
X143961505Y-115128599D01*
X143958348Y-115133107D01*
X143958346Y-115133110D01*
X143829122Y-115317661D01*
X143825965Y-115322170D01*
X143823642Y-115327152D01*
X143823639Y-115327157D01*
X143728420Y-115531355D01*
X143726097Y-115536337D01*
X143664937Y-115764592D01*
X143644341Y-116000000D01*
X125300500Y-116000000D01*
X125300500Y-111758236D01*
X125320502Y-111690115D01*
X125374158Y-111643622D01*
X125444432Y-111633518D01*
X125502065Y-111657410D01*
X125561575Y-111702011D01*
X125577160Y-111710543D01*
X125694801Y-111754644D01*
X125710047Y-111758269D01*
X125759635Y-111763656D01*
X125766449Y-111764025D01*
X126029510Y-111764025D01*
X126044749Y-111759550D01*
X126045954Y-111758160D01*
X126047625Y-111750477D01*
X126047625Y-111745909D01*
X126837625Y-111745909D01*
X126842100Y-111761148D01*
X126843490Y-111762353D01*
X126851173Y-111764024D01*
X127118799Y-111764024D01*
X127125617Y-111763655D01*
X127175196Y-111758270D01*
X127190455Y-111754641D01*
X127308090Y-111710543D01*
X127323675Y-111702011D01*
X127423347Y-111627310D01*
X127435910Y-111614747D01*
X127510611Y-111515075D01*
X127519143Y-111499490D01*
X127526078Y-111480990D01*
X127527108Y-111466923D01*
X127521822Y-111464025D01*
X126855740Y-111464025D01*
X126840501Y-111468500D01*
X126839296Y-111469890D01*
X126837625Y-111477573D01*
X126837625Y-111745909D01*
X126047625Y-111745909D01*
X126047625Y-110655910D01*
X126837625Y-110655910D01*
X126842100Y-110671149D01*
X126843490Y-110672354D01*
X126851173Y-110674025D01*
X127514323Y-110674025D01*
X127527854Y-110670052D01*
X127528712Y-110664085D01*
X127519143Y-110638560D01*
X127510611Y-110622975D01*
X127435910Y-110523303D01*
X127423347Y-110510740D01*
X127323675Y-110436039D01*
X127308090Y-110427507D01*
X127190449Y-110383406D01*
X127175203Y-110379781D01*
X127125615Y-110374394D01*
X127118801Y-110374025D01*
X126855740Y-110374025D01*
X126840501Y-110378500D01*
X126839296Y-110379890D01*
X126837625Y-110387573D01*
X126837625Y-110655910D01*
X126047625Y-110655910D01*
X126047625Y-110392141D01*
X126043150Y-110376902D01*
X126041760Y-110375697D01*
X126034077Y-110374026D01*
X125766451Y-110374026D01*
X125759633Y-110374395D01*
X125710054Y-110379780D01*
X125694795Y-110383409D01*
X125577160Y-110427507D01*
X125561575Y-110436039D01*
X125502065Y-110480640D01*
X125435559Y-110505488D01*
X125366176Y-110490435D01*
X125315946Y-110440261D01*
X125300500Y-110379814D01*
X125300500Y-109958861D01*
X125320502Y-109890740D01*
X125374158Y-109844247D01*
X125444432Y-109834143D01*
X125502066Y-109858036D01*
X125561327Y-109902451D01*
X125561334Y-109902455D01*
X125568514Y-109907836D01*
X125576918Y-109910987D01*
X125576921Y-109910988D01*
X125694689Y-109955136D01*
X125694691Y-109955137D01*
X125702087Y-109957909D01*
X125762987Y-109964525D01*
X126031375Y-109964525D01*
X126087398Y-109977665D01*
X126087548Y-109977739D01*
X126093467Y-109981554D01*
X126100083Y-109983962D01*
X126100085Y-109983963D01*
X126255611Y-110040570D01*
X126255614Y-110040571D01*
X126262228Y-110042978D01*
X126318958Y-110050144D01*
X126397005Y-110060004D01*
X126397008Y-110060004D01*
X126400933Y-110060500D01*
X127995155Y-110060500D01*
X128128472Y-110045546D01*
X128135353Y-110043150D01*
X128247294Y-110004168D01*
X128298073Y-109986485D01*
X128305965Y-109981554D01*
X128444401Y-109895049D01*
X128450375Y-109891316D01*
X128529025Y-109813213D01*
X128572810Y-109769733D01*
X128572813Y-109769729D01*
X128577807Y-109764770D01*
X128583499Y-109755802D01*
X128621685Y-109695630D01*
X128674037Y-109613136D01*
X128709877Y-109512485D01*
X128731919Y-109450586D01*
X128731920Y-109450581D01*
X128734281Y-109443951D01*
X128735114Y-109436965D01*
X128735115Y-109436961D01*
X128754711Y-109272617D01*
X128755545Y-109265624D01*
X128754809Y-109258620D01*
X128737510Y-109094025D01*
X128737509Y-109094021D01*
X128736773Y-109087017D01*
X128709034Y-109005533D01*
X128681168Y-108923677D01*
X128681167Y-108923674D01*
X128678897Y-108917007D01*
X128662693Y-108890667D01*
X128621986Y-108824500D01*
X128584794Y-108764045D01*
X128579868Y-108759014D01*
X128579865Y-108759011D01*
X128493704Y-108671027D01*
X128459141Y-108635732D01*
X128445932Y-108627219D01*
X128314109Y-108542265D01*
X128308183Y-108538446D01*
X128301563Y-108536037D01*
X128301560Y-108536035D01*
X128146039Y-108479430D01*
X128146036Y-108479429D01*
X128139422Y-108477022D01*
X128075270Y-108468918D01*
X128004645Y-108459996D01*
X128004642Y-108459996D01*
X128000717Y-108459500D01*
X126406495Y-108459500D01*
X126273178Y-108474454D01*
X126266525Y-108476771D01*
X126266524Y-108476771D01*
X126212739Y-108495501D01*
X126103577Y-108533515D01*
X126097603Y-108537248D01*
X126097601Y-108537249D01*
X126070188Y-108554379D01*
X126003418Y-108573525D01*
X125762987Y-108573525D01*
X125702087Y-108580141D01*
X125694691Y-108582913D01*
X125694689Y-108582914D01*
X125576921Y-108627062D01*
X125576918Y-108627063D01*
X125568514Y-108630214D01*
X125561336Y-108635594D01*
X125561327Y-108635599D01*
X125502066Y-108680014D01*
X125435560Y-108704863D01*
X125366177Y-108689811D01*
X125315947Y-108639637D01*
X125300500Y-108579189D01*
X125300500Y-108266822D01*
X125320502Y-108198701D01*
X125371391Y-108153512D01*
X126912644Y-107403917D01*
X126914885Y-107402855D01*
X127871534Y-106960648D01*
X128708980Y-106573543D01*
X128711173Y-106572555D01*
X130521245Y-105778712D01*
X130523523Y-105777739D01*
X130575871Y-105755999D01*
X130958893Y-105596929D01*
X131453541Y-105391501D01*
X131524124Y-105383846D01*
X131587640Y-105415567D01*
X131623924Y-105476591D01*
X131621456Y-105547545D01*
X131590962Y-105596960D01*
X129883066Y-107304856D01*
X129882128Y-107305785D01*
X129818357Y-107368234D01*
X129814542Y-107374154D01*
X129814537Y-107374160D01*
X129795135Y-107404266D01*
X129787695Y-107414620D01*
X129760961Y-107448109D01*
X129750977Y-107468762D01*
X129746543Y-107477934D01*
X129739014Y-107491349D01*
X129721071Y-107519192D01*
X129718661Y-107525812D01*
X129718661Y-107525813D01*
X129706413Y-107559464D01*
X129701453Y-107571206D01*
X129697165Y-107580077D01*
X129682798Y-107609797D01*
X129676420Y-107637425D01*
X129675347Y-107642071D01*
X129670977Y-107656821D01*
X129662057Y-107681330D01*
X129662056Y-107681334D01*
X129659647Y-107687953D01*
X129654273Y-107730493D01*
X129652043Y-107743012D01*
X129642399Y-107784786D01*
X129642374Y-107791827D01*
X129642374Y-107791830D01*
X129642258Y-107824957D01*
X129642229Y-107825830D01*
X129642125Y-107826658D01*
X129642125Y-107863113D01*
X129642124Y-107863553D01*
X129641992Y-107901499D01*
X129641772Y-107964375D01*
X129642038Y-107965563D01*
X129642125Y-107967175D01*
X129642125Y-108516699D01*
X129622123Y-108584820D01*
X129576720Y-108627138D01*
X129568514Y-108630214D01*
X129561337Y-108635593D01*
X129561335Y-108635594D01*
X129518318Y-108667834D01*
X129454365Y-108715765D01*
X129368814Y-108829914D01*
X129365663Y-108838318D01*
X129365662Y-108838321D01*
X129328510Y-108937427D01*
X129318741Y-108963487D01*
X129312125Y-109024387D01*
X129312125Y-109513663D01*
X129318741Y-109574563D01*
X129321513Y-109581959D01*
X129321514Y-109581961D01*
X129364126Y-109695630D01*
X129368814Y-109708136D01*
X129454365Y-109822285D01*
X129568514Y-109907836D01*
X129576918Y-109910987D01*
X129576921Y-109910988D01*
X129694689Y-109955136D01*
X129694691Y-109955137D01*
X129702087Y-109957909D01*
X129762987Y-109964525D01*
X130007916Y-109964525D01*
X130075427Y-109984138D01*
X130089489Y-109993062D01*
X130109515Y-110000193D01*
X130252039Y-110050944D01*
X130252044Y-110050945D01*
X130258674Y-110053306D01*
X130265660Y-110054139D01*
X130265664Y-110054140D01*
X130383597Y-110068202D01*
X130437001Y-110074570D01*
X130444004Y-110073834D01*
X130444005Y-110073834D01*
X130608600Y-110056535D01*
X130608604Y-110056534D01*
X130615608Y-110055798D01*
X130652529Y-110043229D01*
X130778948Y-110000193D01*
X130778951Y-110000192D01*
X130785618Y-109997922D01*
X130795612Y-109991774D01*
X130809537Y-109983207D01*
X130875559Y-109964525D01*
X131122263Y-109964525D01*
X131183163Y-109957909D01*
X131190559Y-109955137D01*
X131190561Y-109955136D01*
X131308329Y-109910988D01*
X131308332Y-109910987D01*
X131316736Y-109907836D01*
X131430885Y-109822285D01*
X131516436Y-109708136D01*
X131521125Y-109695630D01*
X131563736Y-109581961D01*
X131563737Y-109581959D01*
X131566509Y-109574563D01*
X131573125Y-109513663D01*
X131573125Y-109024387D01*
X131566509Y-108963487D01*
X131556740Y-108937427D01*
X131519588Y-108838321D01*
X131519587Y-108838318D01*
X131516436Y-108829914D01*
X131430885Y-108715765D01*
X131366932Y-108667834D01*
X131323915Y-108635594D01*
X131323913Y-108635593D01*
X131316736Y-108630214D01*
X131308540Y-108627141D01*
X131258471Y-108576962D01*
X131243125Y-108516699D01*
X131243125Y-108261143D01*
X131263127Y-108193022D01*
X131280030Y-108172048D01*
X131296296Y-108155782D01*
X132472404Y-108155782D01*
X132481973Y-108181307D01*
X132490505Y-108196892D01*
X132565206Y-108296564D01*
X132577769Y-108309127D01*
X132677441Y-108383828D01*
X132693026Y-108392360D01*
X132810667Y-108436461D01*
X132825913Y-108440086D01*
X132875501Y-108445473D01*
X132882315Y-108445842D01*
X133145376Y-108445842D01*
X133160615Y-108441367D01*
X133161820Y-108439977D01*
X133163491Y-108432294D01*
X133163491Y-108427726D01*
X133953491Y-108427726D01*
X133957966Y-108442965D01*
X133959356Y-108444170D01*
X133967039Y-108445841D01*
X134234665Y-108445841D01*
X134241483Y-108445472D01*
X134291062Y-108440087D01*
X134306321Y-108436458D01*
X134423956Y-108392360D01*
X134439541Y-108383828D01*
X134539213Y-108309127D01*
X134551776Y-108296564D01*
X134626477Y-108196892D01*
X134635009Y-108181307D01*
X134641944Y-108162807D01*
X134642974Y-108148740D01*
X134637688Y-108145842D01*
X133971606Y-108145842D01*
X133956367Y-108150317D01*
X133955162Y-108151707D01*
X133953491Y-108159390D01*
X133953491Y-108427726D01*
X133163491Y-108427726D01*
X133163491Y-108163957D01*
X133159016Y-108148718D01*
X133157626Y-108147513D01*
X133149943Y-108145842D01*
X132486793Y-108145842D01*
X132473262Y-108149815D01*
X132472404Y-108155782D01*
X131296296Y-108155782D01*
X132283633Y-107168445D01*
X132345945Y-107134419D01*
X132416760Y-107139484D01*
X132473596Y-107182031D01*
X132498407Y-107248551D01*
X132484615Y-107311784D01*
X132485123Y-107311974D01*
X132483810Y-107315477D01*
X132483249Y-107318048D01*
X132481971Y-107320383D01*
X132475038Y-107338877D01*
X132474008Y-107352944D01*
X132479294Y-107355842D01*
X133145376Y-107355842D01*
X133160615Y-107351367D01*
X133161820Y-107349977D01*
X133163491Y-107342294D01*
X133163491Y-107337727D01*
X133953491Y-107337727D01*
X133957966Y-107352966D01*
X133959356Y-107354171D01*
X133967039Y-107355842D01*
X134630189Y-107355842D01*
X134643720Y-107351869D01*
X134644578Y-107345902D01*
X134635009Y-107320377D01*
X134626477Y-107304792D01*
X134551776Y-107205120D01*
X134539213Y-107192557D01*
X134439541Y-107117856D01*
X134423956Y-107109324D01*
X134306315Y-107065223D01*
X134291069Y-107061598D01*
X134241481Y-107056211D01*
X134234667Y-107055842D01*
X133971606Y-107055842D01*
X133956367Y-107060317D01*
X133955162Y-107061707D01*
X133953491Y-107069390D01*
X133953491Y-107337727D01*
X133163491Y-107337727D01*
X133163491Y-107073958D01*
X133159016Y-107058719D01*
X133157626Y-107057514D01*
X133149943Y-107055843D01*
X132882317Y-107055843D01*
X132875499Y-107056212D01*
X132825920Y-107061597D01*
X132810661Y-107065226D01*
X132693032Y-107109322D01*
X132690697Y-107110600D01*
X132688117Y-107111164D01*
X132684623Y-107112474D01*
X132684434Y-107111970D01*
X132621339Y-107125768D01*
X132554792Y-107101031D01*
X132512182Y-107044242D01*
X132507039Y-106973432D01*
X132541094Y-106910984D01*
X132663831Y-106788247D01*
X132726143Y-106754221D01*
X132752926Y-106751342D01*
X133603646Y-106751342D01*
X133736963Y-106736388D01*
X133744338Y-106733820D01*
X133847627Y-106697851D01*
X133906564Y-106677327D01*
X133916523Y-106671104D01*
X133925509Y-106665489D01*
X133992280Y-106646342D01*
X134238129Y-106646342D01*
X134299029Y-106639726D01*
X134306425Y-106636954D01*
X134306427Y-106636953D01*
X134424195Y-106592805D01*
X134424198Y-106592804D01*
X134432602Y-106589653D01*
X134521851Y-106522764D01*
X134539574Y-106509481D01*
X134546751Y-106504102D01*
X134552479Y-106496460D01*
X134580183Y-106459494D01*
X134632302Y-106389953D01*
X134635790Y-106380650D01*
X134679602Y-106263778D01*
X134679603Y-106263776D01*
X134682375Y-106256380D01*
X134688991Y-106195480D01*
X134688991Y-105706204D01*
X134688287Y-105699719D01*
X134683228Y-105653157D01*
X134682375Y-105645304D01*
X134679602Y-105637906D01*
X134635454Y-105520138D01*
X134635453Y-105520135D01*
X134632302Y-105511731D01*
X134546751Y-105397582D01*
X134432602Y-105312031D01*
X134424198Y-105308880D01*
X134424195Y-105308879D01*
X134306427Y-105264731D01*
X134306425Y-105264730D01*
X134299029Y-105261958D01*
X134238129Y-105255342D01*
X133994185Y-105255342D01*
X133928949Y-105236143D01*
X133928903Y-105236236D01*
X133928373Y-105235973D01*
X133925933Y-105235255D01*
X133916674Y-105229288D01*
X133910054Y-105226879D01*
X133910051Y-105226877D01*
X133754530Y-105170272D01*
X133754527Y-105170271D01*
X133747913Y-105167864D01*
X133685242Y-105159947D01*
X133613136Y-105150838D01*
X133613133Y-105150838D01*
X133609208Y-105150342D01*
X132681827Y-105150342D01*
X132613706Y-105130340D01*
X132567213Y-105076684D01*
X132557109Y-105006410D01*
X132586603Y-104941830D01*
X132635800Y-104907049D01*
X132855501Y-104820836D01*
X134191121Y-104296725D01*
X134193340Y-104295880D01*
X135545139Y-103795892D01*
X136047131Y-103610221D01*
X136049465Y-103609384D01*
X137916341Y-102960357D01*
X137918691Y-102959566D01*
X138382380Y-102808523D01*
X138453346Y-102806443D01*
X138514171Y-102843060D01*
X138545544Y-102906749D01*
X138537503Y-102977289D01*
X138510500Y-103017422D01*
X136998932Y-104528990D01*
X136997994Y-104529919D01*
X136934223Y-104592368D01*
X136930408Y-104598288D01*
X136930403Y-104598294D01*
X136911001Y-104628400D01*
X136903561Y-104638754D01*
X136888498Y-104657623D01*
X136876827Y-104672243D01*
X136873760Y-104678588D01*
X136862409Y-104702068D01*
X136854880Y-104715483D01*
X136836937Y-104743326D01*
X136834527Y-104749946D01*
X136834527Y-104749947D01*
X136822279Y-104783598D01*
X136817319Y-104795340D01*
X136798664Y-104833931D01*
X136797081Y-104840786D01*
X136797080Y-104840790D01*
X136791213Y-104866205D01*
X136786843Y-104880955D01*
X136777923Y-104905464D01*
X136777922Y-104905468D01*
X136775513Y-104912087D01*
X136770139Y-104954627D01*
X136767909Y-104967146D01*
X136758265Y-105008920D01*
X136758240Y-105015961D01*
X136758240Y-105015964D01*
X136758124Y-105049091D01*
X136758095Y-105049964D01*
X136757991Y-105050792D01*
X136757991Y-105087247D01*
X136757990Y-105087687D01*
X136757732Y-105161692D01*
X136757638Y-105188509D01*
X136757904Y-105189697D01*
X136757991Y-105191309D01*
X136757991Y-105198516D01*
X136737989Y-105266637D01*
X136692586Y-105308955D01*
X136684380Y-105312031D01*
X136677203Y-105317410D01*
X136677201Y-105317411D01*
X136625730Y-105355987D01*
X136570231Y-105397582D01*
X136484680Y-105511731D01*
X136481529Y-105520135D01*
X136481528Y-105520138D01*
X136437380Y-105637906D01*
X136434607Y-105645304D01*
X136433754Y-105653157D01*
X136428696Y-105699719D01*
X136427991Y-105706204D01*
X136427991Y-106195480D01*
X136434607Y-106256380D01*
X136437379Y-106263776D01*
X136437380Y-106263778D01*
X136481193Y-106380650D01*
X136484680Y-106389953D01*
X136536799Y-106459494D01*
X136564504Y-106496460D01*
X136570231Y-106504102D01*
X136577408Y-106509481D01*
X136595131Y-106522764D01*
X136684380Y-106589653D01*
X136692784Y-106592804D01*
X136692787Y-106592805D01*
X136810555Y-106636953D01*
X136810557Y-106636954D01*
X136817953Y-106639726D01*
X136878853Y-106646342D01*
X137123782Y-106646342D01*
X137191293Y-106665955D01*
X137205355Y-106674879D01*
X137235139Y-106685485D01*
X137367905Y-106732761D01*
X137367910Y-106732762D01*
X137374540Y-106735123D01*
X137381526Y-106735956D01*
X137381530Y-106735957D01*
X137503287Y-106750475D01*
X137552867Y-106756387D01*
X137559870Y-106755651D01*
X137559871Y-106755651D01*
X137724466Y-106738352D01*
X137724470Y-106738351D01*
X137731474Y-106737615D01*
X137763352Y-106726763D01*
X137894814Y-106682010D01*
X137894817Y-106682009D01*
X137901484Y-106679739D01*
X137911478Y-106673591D01*
X137925403Y-106665024D01*
X137991425Y-106646342D01*
X138238129Y-106646342D01*
X138299029Y-106639726D01*
X138306425Y-106636954D01*
X138306427Y-106636953D01*
X138424195Y-106592805D01*
X138424198Y-106592804D01*
X138432602Y-106589653D01*
X138521851Y-106522764D01*
X138539574Y-106509481D01*
X138546751Y-106504102D01*
X138552479Y-106496460D01*
X138580183Y-106459494D01*
X138632302Y-106389953D01*
X138635790Y-106380650D01*
X138679602Y-106263778D01*
X138679603Y-106263776D01*
X138682375Y-106256380D01*
X138688991Y-106195480D01*
X138688991Y-105706204D01*
X138688287Y-105699719D01*
X138683228Y-105653157D01*
X138682375Y-105645304D01*
X138679602Y-105637906D01*
X138635454Y-105520138D01*
X138635453Y-105520135D01*
X138632302Y-105511731D01*
X138626922Y-105504552D01*
X138626920Y-105504549D01*
X138601337Y-105470414D01*
X139850391Y-105470414D01*
X139859960Y-105495939D01*
X139868492Y-105511524D01*
X139943193Y-105611196D01*
X139955756Y-105623759D01*
X140055428Y-105698460D01*
X140071013Y-105706992D01*
X140188654Y-105751093D01*
X140203900Y-105754718D01*
X140253488Y-105760105D01*
X140260302Y-105760474D01*
X140523363Y-105760474D01*
X140538602Y-105755999D01*
X140539807Y-105754609D01*
X140541478Y-105746926D01*
X140541478Y-105742358D01*
X141331478Y-105742358D01*
X141335953Y-105757597D01*
X141337343Y-105758802D01*
X141345026Y-105760473D01*
X141612652Y-105760473D01*
X141619470Y-105760104D01*
X141669049Y-105754719D01*
X141684308Y-105751090D01*
X141801943Y-105706992D01*
X141817528Y-105698460D01*
X141917200Y-105623759D01*
X141929763Y-105611196D01*
X142004464Y-105511524D01*
X142012996Y-105495939D01*
X142019931Y-105477439D01*
X142020961Y-105463372D01*
X142015675Y-105460474D01*
X141349593Y-105460474D01*
X141334354Y-105464949D01*
X141333149Y-105466339D01*
X141331478Y-105474022D01*
X141331478Y-105742358D01*
X140541478Y-105742358D01*
X140541478Y-105478589D01*
X140537003Y-105463350D01*
X140535613Y-105462145D01*
X140527930Y-105460474D01*
X139864780Y-105460474D01*
X139851249Y-105464447D01*
X139850391Y-105470414D01*
X138601337Y-105470414D01*
X138561962Y-105417878D01*
X138547040Y-105397967D01*
X138522192Y-105331462D01*
X138537244Y-105262079D01*
X138558771Y-105233307D01*
X139124502Y-104667576D01*
X139851995Y-104667576D01*
X139857281Y-104670474D01*
X140523363Y-104670474D01*
X140538602Y-104665999D01*
X140539807Y-104664609D01*
X140541478Y-104656926D01*
X140541478Y-104652359D01*
X141331478Y-104652359D01*
X141335953Y-104667598D01*
X141337343Y-104668803D01*
X141345026Y-104670474D01*
X142008176Y-104670474D01*
X142021707Y-104666501D01*
X142022565Y-104660534D01*
X142012996Y-104635009D01*
X142004464Y-104619424D01*
X141929763Y-104519752D01*
X141917200Y-104507189D01*
X141817528Y-104432488D01*
X141801943Y-104423956D01*
X141684302Y-104379855D01*
X141669056Y-104376230D01*
X141619468Y-104370843D01*
X141612654Y-104370474D01*
X141349593Y-104370474D01*
X141334354Y-104374949D01*
X141333149Y-104376339D01*
X141331478Y-104384022D01*
X141331478Y-104652359D01*
X140541478Y-104652359D01*
X140541478Y-104388590D01*
X140537003Y-104373351D01*
X140535613Y-104372146D01*
X140527930Y-104370475D01*
X140260304Y-104370475D01*
X140253486Y-104370844D01*
X140203907Y-104376229D01*
X140188648Y-104379858D01*
X140071013Y-104423956D01*
X140055428Y-104432488D01*
X139955756Y-104507189D01*
X139943193Y-104519752D01*
X139868492Y-104619424D01*
X139859960Y-104635009D01*
X139853025Y-104653509D01*
X139851995Y-104667576D01*
X139124502Y-104667576D01*
X139689199Y-104102879D01*
X139751511Y-104068853D01*
X139778294Y-104065974D01*
X140981633Y-104065974D01*
X141114950Y-104051020D01*
X141122325Y-104048452D01*
X141216183Y-104015767D01*
X141284551Y-103991959D01*
X141301990Y-103981062D01*
X141303496Y-103980121D01*
X141370267Y-103960974D01*
X141616116Y-103960974D01*
X141677016Y-103954358D01*
X141684412Y-103951586D01*
X141684414Y-103951585D01*
X141802182Y-103907437D01*
X141802185Y-103907436D01*
X141810589Y-103904285D01*
X141924738Y-103818734D01*
X141930795Y-103810653D01*
X141964437Y-103765764D01*
X142010289Y-103704585D01*
X142016987Y-103686720D01*
X142057589Y-103578410D01*
X142057590Y-103578408D01*
X142060362Y-103571012D01*
X142066978Y-103510112D01*
X142066978Y-103020836D01*
X142060362Y-102959936D01*
X142056526Y-102949703D01*
X142013441Y-102834770D01*
X142013440Y-102834767D01*
X142010289Y-102826363D01*
X141924738Y-102712214D01*
X141810589Y-102626663D01*
X141802185Y-102623512D01*
X141802182Y-102623511D01*
X141684414Y-102579363D01*
X141684412Y-102579362D01*
X141677016Y-102576590D01*
X141616116Y-102569974D01*
X141372172Y-102569974D01*
X141306936Y-102550775D01*
X141306890Y-102550868D01*
X141306360Y-102550605D01*
X141303920Y-102549887D01*
X141294661Y-102543920D01*
X141288041Y-102541511D01*
X141288038Y-102541509D01*
X141132517Y-102484904D01*
X141132514Y-102484903D01*
X141125900Y-102482496D01*
X141064321Y-102474717D01*
X140991123Y-102465470D01*
X140991120Y-102465470D01*
X140987195Y-102464974D01*
X140258679Y-102464974D01*
X140190558Y-102444972D01*
X140144065Y-102391316D01*
X140133961Y-102321042D01*
X140163455Y-102256462D01*
X140222019Y-102218425D01*
X141400892Y-101859921D01*
X141691331Y-101771596D01*
X141693709Y-101770899D01*
X143595633Y-101233167D01*
X143598026Y-101232516D01*
X145510152Y-100732321D01*
X145512557Y-100731717D01*
X145938556Y-100629193D01*
X146009466Y-100632700D01*
X146067223Y-100673988D01*
X146093489Y-100739947D01*
X146079926Y-100809636D01*
X146057133Y-100840790D01*
X145179857Y-101718065D01*
X144364853Y-102533069D01*
X144302541Y-102567095D01*
X144275758Y-102569974D01*
X144256840Y-102569974D01*
X144195940Y-102576590D01*
X144188544Y-102579362D01*
X144188542Y-102579363D01*
X144070774Y-102623511D01*
X144070771Y-102623512D01*
X144062367Y-102626663D01*
X143948218Y-102712214D01*
X143862667Y-102826363D01*
X143859516Y-102834767D01*
X143859515Y-102834770D01*
X143816430Y-102949703D01*
X143812594Y-102959936D01*
X143805978Y-103020836D01*
X143805978Y-103510112D01*
X143812594Y-103571012D01*
X143815366Y-103578408D01*
X143815367Y-103578410D01*
X143855970Y-103686720D01*
X143862667Y-103704585D01*
X143908519Y-103765764D01*
X143942162Y-103810653D01*
X143948218Y-103818734D01*
X144062367Y-103904285D01*
X144070771Y-103907436D01*
X144070774Y-103907437D01*
X144188542Y-103951585D01*
X144188544Y-103951586D01*
X144195940Y-103954358D01*
X144256840Y-103960974D01*
X144814215Y-103960974D01*
X144833060Y-103963305D01*
X144833130Y-103962752D01*
X144840670Y-103963704D01*
X144848037Y-103965555D01*
X144855634Y-103965595D01*
X144855636Y-103965595D01*
X144928073Y-103965974D01*
X145017583Y-103966443D01*
X145025010Y-103964660D01*
X145025865Y-103964455D01*
X145055278Y-103960974D01*
X145616116Y-103960974D01*
X145677016Y-103954358D01*
X145684412Y-103951586D01*
X145684414Y-103951585D01*
X145802182Y-103907437D01*
X145802185Y-103907436D01*
X145810589Y-103904285D01*
X145924738Y-103818734D01*
X145930795Y-103810653D01*
X145964437Y-103765764D01*
X146010289Y-103704585D01*
X146016987Y-103686720D01*
X146057589Y-103578410D01*
X146057590Y-103578408D01*
X146060362Y-103571012D01*
X146066978Y-103510112D01*
X146066978Y-103438299D01*
X147434348Y-103438299D01*
X147443917Y-103463824D01*
X147452449Y-103479409D01*
X147527150Y-103579081D01*
X147539713Y-103591644D01*
X147639385Y-103666345D01*
X147654970Y-103674877D01*
X147772611Y-103718978D01*
X147787857Y-103722603D01*
X147837445Y-103727990D01*
X147844259Y-103728359D01*
X148107320Y-103728359D01*
X148122559Y-103723884D01*
X148123764Y-103722494D01*
X148125435Y-103714811D01*
X148125435Y-103710243D01*
X148915435Y-103710243D01*
X148919910Y-103725482D01*
X148921300Y-103726687D01*
X148928983Y-103728358D01*
X149196609Y-103728358D01*
X149203427Y-103727989D01*
X149253006Y-103722604D01*
X149268265Y-103718975D01*
X149385900Y-103674877D01*
X149401485Y-103666345D01*
X149501157Y-103591644D01*
X149513720Y-103579081D01*
X149588421Y-103479409D01*
X149596953Y-103463824D01*
X149603888Y-103445324D01*
X149604918Y-103431257D01*
X149599632Y-103428359D01*
X148933550Y-103428359D01*
X148918311Y-103432834D01*
X148917106Y-103434224D01*
X148915435Y-103441907D01*
X148915435Y-103710243D01*
X148125435Y-103710243D01*
X148125435Y-103446474D01*
X148120960Y-103431235D01*
X148119570Y-103430030D01*
X148111887Y-103428359D01*
X147448737Y-103428359D01*
X147435206Y-103432332D01*
X147434348Y-103438299D01*
X146066978Y-103438299D01*
X146066978Y-103147290D01*
X146086980Y-103079169D01*
X146103883Y-103058195D01*
X146526617Y-102635461D01*
X147435952Y-102635461D01*
X147441238Y-102638359D01*
X148107320Y-102638359D01*
X148122559Y-102633884D01*
X148123764Y-102632494D01*
X148125435Y-102624811D01*
X148125435Y-102620244D01*
X148915435Y-102620244D01*
X148919910Y-102635483D01*
X148921300Y-102636688D01*
X148928983Y-102638359D01*
X149592133Y-102638359D01*
X149605664Y-102634386D01*
X149606522Y-102628419D01*
X149596953Y-102602894D01*
X149588421Y-102587309D01*
X149513720Y-102487637D01*
X149501157Y-102475074D01*
X149401485Y-102400373D01*
X149385900Y-102391841D01*
X149268259Y-102347740D01*
X149253013Y-102344115D01*
X149203425Y-102338728D01*
X149196611Y-102338359D01*
X148933550Y-102338359D01*
X148918311Y-102342834D01*
X148917106Y-102344224D01*
X148915435Y-102351907D01*
X148915435Y-102620244D01*
X148125435Y-102620244D01*
X148125435Y-102356475D01*
X148120960Y-102341236D01*
X148119570Y-102340031D01*
X148111887Y-102338360D01*
X147844261Y-102338360D01*
X147837443Y-102338729D01*
X147787864Y-102344114D01*
X147772605Y-102347743D01*
X147654970Y-102391841D01*
X147639385Y-102400373D01*
X147539713Y-102475074D01*
X147527150Y-102487637D01*
X147452449Y-102587309D01*
X147443917Y-102602894D01*
X147436982Y-102621394D01*
X147435952Y-102635461D01*
X146526617Y-102635461D01*
X147091314Y-102070764D01*
X147153626Y-102036738D01*
X147180409Y-102033859D01*
X148565590Y-102033859D01*
X148698907Y-102018905D01*
X148706282Y-102016337D01*
X148798478Y-101984231D01*
X148868508Y-101959844D01*
X148882506Y-101951097D01*
X148887453Y-101948006D01*
X148954224Y-101928859D01*
X149200073Y-101928859D01*
X149260973Y-101922243D01*
X149268369Y-101919471D01*
X149268371Y-101919470D01*
X149386139Y-101875322D01*
X149386142Y-101875321D01*
X149394546Y-101872170D01*
X149508695Y-101786619D01*
X149594246Y-101672470D01*
X149614424Y-101618646D01*
X149641546Y-101546295D01*
X149641547Y-101546293D01*
X149644319Y-101538897D01*
X149650935Y-101477997D01*
X149650935Y-100988721D01*
X149644319Y-100927821D01*
X149641546Y-100920423D01*
X149597398Y-100802655D01*
X149597397Y-100802652D01*
X149594246Y-100794248D01*
X149508695Y-100680099D01*
X149394546Y-100594548D01*
X149386142Y-100591397D01*
X149386139Y-100591396D01*
X149268371Y-100547248D01*
X149268369Y-100547247D01*
X149260973Y-100544475D01*
X149200073Y-100537859D01*
X148956129Y-100537859D01*
X148890893Y-100518660D01*
X148890847Y-100518753D01*
X148890317Y-100518490D01*
X148887877Y-100517772D01*
X148878618Y-100511805D01*
X148871998Y-100509396D01*
X148871995Y-100509394D01*
X148716474Y-100452789D01*
X148716471Y-100452788D01*
X148709857Y-100450381D01*
X148624356Y-100439580D01*
X148575080Y-100433355D01*
X148575077Y-100433355D01*
X148571152Y-100432859D01*
X147849618Y-100432859D01*
X147781497Y-100412857D01*
X147735004Y-100359201D01*
X147724900Y-100288927D01*
X147754394Y-100224347D01*
X147814120Y-100185963D01*
X147822552Y-100183800D01*
X148137180Y-100114600D01*
X149366960Y-99844119D01*
X149369323Y-99843624D01*
X151307768Y-99457108D01*
X151310146Y-99456659D01*
X153255723Y-99108384D01*
X153258076Y-99107987D01*
X153499903Y-99069593D01*
X153578404Y-99057130D01*
X153648819Y-99066203D01*
X153703150Y-99111905D01*
X153724147Y-99179725D01*
X153705145Y-99248132D01*
X153687256Y-99270666D01*
X153664001Y-99293921D01*
X153592231Y-99365192D01*
X153591579Y-99366219D01*
X153590495Y-99367427D01*
X152561826Y-100396096D01*
X152499514Y-100430122D01*
X152479767Y-100432804D01*
X152478784Y-100432859D01*
X152475280Y-100432859D01*
X152341963Y-100447813D01*
X152335310Y-100450130D01*
X152335309Y-100450130D01*
X152277633Y-100470215D01*
X152172362Y-100506874D01*
X152166384Y-100510610D01*
X152166383Y-100510610D01*
X152153417Y-100518712D01*
X152086646Y-100537859D01*
X151840797Y-100537859D01*
X151779897Y-100544475D01*
X151772501Y-100547247D01*
X151772499Y-100547248D01*
X151654731Y-100591396D01*
X151654728Y-100591397D01*
X151646324Y-100594548D01*
X151532175Y-100680099D01*
X151446624Y-100794248D01*
X151443473Y-100802652D01*
X151443472Y-100802655D01*
X151399324Y-100920423D01*
X151396551Y-100927821D01*
X151389935Y-100988721D01*
X151389935Y-101477997D01*
X151396551Y-101538897D01*
X151399323Y-101546293D01*
X151399324Y-101546295D01*
X151426447Y-101618646D01*
X151446624Y-101672470D01*
X151532175Y-101786619D01*
X151646324Y-101872170D01*
X151654728Y-101875321D01*
X151654731Y-101875322D01*
X151772499Y-101919470D01*
X151772501Y-101919471D01*
X151779897Y-101922243D01*
X151840797Y-101928859D01*
X152084741Y-101928859D01*
X152149977Y-101948058D01*
X152150023Y-101947965D01*
X152150553Y-101948228D01*
X152152993Y-101948946D01*
X152162252Y-101954913D01*
X152168872Y-101957322D01*
X152168875Y-101957324D01*
X152324396Y-102013929D01*
X152324399Y-102013930D01*
X152331013Y-102016337D01*
X152379863Y-102022508D01*
X152465790Y-102033363D01*
X152465793Y-102033363D01*
X152469718Y-102033859D01*
X152847558Y-102033859D01*
X152848879Y-102033866D01*
X152938048Y-102034800D01*
X152979937Y-102025743D01*
X152992511Y-102023684D01*
X153010142Y-102021706D01*
X153028117Y-102019690D01*
X153028119Y-102019689D01*
X153035113Y-102018905D01*
X153066400Y-102008009D01*
X153081205Y-102003848D01*
X153106702Y-101998336D01*
X153106705Y-101998335D01*
X153113583Y-101996848D01*
X153152440Y-101978729D01*
X153164223Y-101973945D01*
X153204714Y-101959844D01*
X153232808Y-101942289D01*
X153246323Y-101934951D01*
X153276348Y-101920950D01*
X153281614Y-101916865D01*
X153302628Y-101906628D01*
X153386141Y-101875321D01*
X153386142Y-101875320D01*
X153394546Y-101872170D01*
X153401725Y-101866790D01*
X153401728Y-101866788D01*
X153501518Y-101791998D01*
X153508695Y-101786619D01*
X153560074Y-101718065D01*
X153588866Y-101679649D01*
X153588867Y-101679647D01*
X153594246Y-101672470D01*
X153597395Y-101664069D01*
X153597398Y-101664064D01*
X153611433Y-101626625D01*
X153640320Y-101581758D01*
X153950014Y-101272064D01*
X155168160Y-101272064D01*
X155173446Y-101274962D01*
X155839528Y-101274962D01*
X155854767Y-101270487D01*
X155855972Y-101269097D01*
X155857643Y-101261414D01*
X155857643Y-101256847D01*
X156647643Y-101256847D01*
X156652118Y-101272086D01*
X156653508Y-101273291D01*
X156661191Y-101274962D01*
X157324341Y-101274962D01*
X157337872Y-101270989D01*
X157338730Y-101265022D01*
X157329161Y-101239497D01*
X157320629Y-101223912D01*
X157245928Y-101124240D01*
X157233365Y-101111677D01*
X157133693Y-101036976D01*
X157118108Y-101028444D01*
X157000467Y-100984343D01*
X156985221Y-100980718D01*
X156935633Y-100975331D01*
X156928819Y-100974962D01*
X156665758Y-100974962D01*
X156650519Y-100979437D01*
X156649314Y-100980827D01*
X156647643Y-100988510D01*
X156647643Y-101256847D01*
X155857643Y-101256847D01*
X155857643Y-100993078D01*
X155853168Y-100977839D01*
X155851778Y-100976634D01*
X155844095Y-100974963D01*
X155576469Y-100974963D01*
X155569651Y-100975332D01*
X155520072Y-100980717D01*
X155504813Y-100984346D01*
X155387178Y-101028444D01*
X155371593Y-101036976D01*
X155271921Y-101111677D01*
X155259358Y-101124240D01*
X155184657Y-101223912D01*
X155176125Y-101239497D01*
X155169190Y-101257997D01*
X155168160Y-101272064D01*
X153950014Y-101272064D01*
X154514711Y-100707367D01*
X154577023Y-100673341D01*
X154603806Y-100670462D01*
X156297798Y-100670462D01*
X156431115Y-100655508D01*
X156438490Y-100652940D01*
X156546465Y-100615339D01*
X156600716Y-100596447D01*
X156618155Y-100585550D01*
X156619661Y-100584609D01*
X156686432Y-100565462D01*
X156932281Y-100565462D01*
X156993181Y-100558846D01*
X157000577Y-100556074D01*
X157000579Y-100556073D01*
X157118347Y-100511925D01*
X157118350Y-100511924D01*
X157126754Y-100508773D01*
X157228724Y-100432350D01*
X157233726Y-100428601D01*
X157240903Y-100423222D01*
X157326454Y-100309073D01*
X157330025Y-100299549D01*
X157373754Y-100182898D01*
X157373755Y-100182896D01*
X157376527Y-100175500D01*
X157383143Y-100114600D01*
X159122143Y-100114600D01*
X159128759Y-100175500D01*
X159131531Y-100182896D01*
X159131532Y-100182898D01*
X159175262Y-100299549D01*
X159178832Y-100309073D01*
X159264383Y-100423222D01*
X159271560Y-100428601D01*
X159276562Y-100432350D01*
X159378532Y-100508773D01*
X159386936Y-100511924D01*
X159386939Y-100511925D01*
X159504707Y-100556073D01*
X159504709Y-100556074D01*
X159512105Y-100558846D01*
X159573005Y-100565462D01*
X159816949Y-100565462D01*
X159882185Y-100584661D01*
X159882231Y-100584568D01*
X159882761Y-100584831D01*
X159885201Y-100585549D01*
X159894460Y-100591516D01*
X159901080Y-100593925D01*
X159901083Y-100593927D01*
X160056604Y-100650532D01*
X160056607Y-100650533D01*
X160063221Y-100652940D01*
X160108121Y-100658612D01*
X160197998Y-100669966D01*
X160198001Y-100669966D01*
X160201926Y-100670462D01*
X161150955Y-100670462D01*
X161152276Y-100670469D01*
X161241445Y-100671403D01*
X161283334Y-100662346D01*
X161295908Y-100660287D01*
X161310838Y-100658612D01*
X161331514Y-100656293D01*
X161331516Y-100656292D01*
X161338510Y-100655508D01*
X161369797Y-100644612D01*
X161384602Y-100640451D01*
X161410099Y-100634939D01*
X161410102Y-100634938D01*
X161416980Y-100633451D01*
X161455837Y-100615332D01*
X161467620Y-100610548D01*
X161508111Y-100596447D01*
X161522010Y-100587762D01*
X162989772Y-100587762D01*
X162995058Y-100590660D01*
X163661140Y-100590660D01*
X163676379Y-100586185D01*
X163677584Y-100584795D01*
X163679255Y-100577112D01*
X163679255Y-100572545D01*
X164469255Y-100572545D01*
X164473730Y-100587784D01*
X164475120Y-100588989D01*
X164482803Y-100590660D01*
X165145953Y-100590660D01*
X165159484Y-100586687D01*
X165160342Y-100580720D01*
X165150773Y-100555195D01*
X165142241Y-100539610D01*
X165067540Y-100439938D01*
X165054977Y-100427375D01*
X164955305Y-100352674D01*
X164939720Y-100344142D01*
X164822079Y-100300041D01*
X164806833Y-100296416D01*
X164757245Y-100291029D01*
X164750431Y-100290660D01*
X164487370Y-100290660D01*
X164472131Y-100295135D01*
X164470926Y-100296525D01*
X164469255Y-100304208D01*
X164469255Y-100572545D01*
X163679255Y-100572545D01*
X163679255Y-100308776D01*
X163674780Y-100293537D01*
X163673390Y-100292332D01*
X163665707Y-100290661D01*
X163398081Y-100290661D01*
X163391263Y-100291030D01*
X163341684Y-100296415D01*
X163326425Y-100300044D01*
X163208790Y-100344142D01*
X163193205Y-100352674D01*
X163093533Y-100427375D01*
X163080970Y-100439938D01*
X163006269Y-100539610D01*
X162997737Y-100555195D01*
X162990802Y-100573695D01*
X162989772Y-100587762D01*
X161522010Y-100587762D01*
X161536205Y-100578892D01*
X161549720Y-100571554D01*
X161579745Y-100557553D01*
X161600838Y-100541191D01*
X161613605Y-100531288D01*
X161624062Y-100523993D01*
X161654438Y-100505012D01*
X161654441Y-100505010D01*
X161660413Y-100501278D01*
X161688931Y-100472959D01*
X161689553Y-100472377D01*
X161690215Y-100471863D01*
X161716075Y-100446003D01*
X161787845Y-100374732D01*
X161788497Y-100373705D01*
X161789581Y-100372497D01*
X162139013Y-100023065D01*
X162201325Y-99989039D01*
X162228108Y-99986160D01*
X164119410Y-99986160D01*
X164252727Y-99971206D01*
X164260102Y-99968638D01*
X164327706Y-99945096D01*
X164422328Y-99912145D01*
X164439767Y-99901248D01*
X164441273Y-99900307D01*
X164508044Y-99881160D01*
X164753893Y-99881160D01*
X164814793Y-99874544D01*
X164822189Y-99871772D01*
X164822191Y-99871771D01*
X164939959Y-99827623D01*
X164939962Y-99827622D01*
X164948366Y-99824471D01*
X165062515Y-99738920D01*
X165148066Y-99624771D01*
X165198139Y-99491198D01*
X165204755Y-99430298D01*
X166943755Y-99430298D01*
X166950371Y-99491198D01*
X167000444Y-99624771D01*
X167085995Y-99738920D01*
X167200144Y-99824471D01*
X167208548Y-99827622D01*
X167208551Y-99827623D01*
X167326319Y-99871771D01*
X167326321Y-99871772D01*
X167333717Y-99874544D01*
X167394617Y-99881160D01*
X167638561Y-99881160D01*
X167703797Y-99900359D01*
X167703843Y-99900266D01*
X167704373Y-99900529D01*
X167706813Y-99901247D01*
X167716072Y-99907214D01*
X167722692Y-99909623D01*
X167722695Y-99909625D01*
X167878216Y-99966230D01*
X167878219Y-99966231D01*
X167884833Y-99968638D01*
X167911376Y-99971991D01*
X168019610Y-99985664D01*
X168019613Y-99985664D01*
X168023538Y-99986160D01*
X171970900Y-99986160D01*
X172104217Y-99971206D01*
X172111592Y-99968638D01*
X172179196Y-99945096D01*
X172273818Y-99912145D01*
X172291257Y-99901248D01*
X172292763Y-99900307D01*
X172359534Y-99881160D01*
X172605383Y-99881160D01*
X172666283Y-99874544D01*
X172673679Y-99871772D01*
X172673681Y-99871771D01*
X172791449Y-99827623D01*
X172791452Y-99827622D01*
X172799856Y-99824471D01*
X172914005Y-99738920D01*
X172999556Y-99624771D01*
X173049629Y-99491198D01*
X173056245Y-99430298D01*
X174795245Y-99430298D01*
X174801861Y-99491198D01*
X174851934Y-99624771D01*
X174937485Y-99738920D01*
X175051634Y-99824471D01*
X175060038Y-99827622D01*
X175060041Y-99827623D01*
X175177809Y-99871771D01*
X175177811Y-99871772D01*
X175185207Y-99874544D01*
X175246107Y-99881160D01*
X175490051Y-99881160D01*
X175555287Y-99900359D01*
X175555333Y-99900266D01*
X175555863Y-99900529D01*
X175558303Y-99901247D01*
X175567562Y-99907214D01*
X175574182Y-99909623D01*
X175574185Y-99909625D01*
X175729706Y-99966230D01*
X175729709Y-99966231D01*
X175736323Y-99968638D01*
X175762866Y-99971991D01*
X175871100Y-99985664D01*
X175871103Y-99985664D01*
X175875028Y-99986160D01*
X178490857Y-99986160D01*
X178558978Y-100006162D01*
X178605471Y-100059818D01*
X178615914Y-100107827D01*
X178616673Y-100107786D01*
X178616857Y-100111183D01*
X178616857Y-100114600D01*
X178623473Y-100175500D01*
X178626245Y-100182896D01*
X178626246Y-100182898D01*
X178669976Y-100299549D01*
X178673546Y-100309073D01*
X178759097Y-100423222D01*
X178766274Y-100428601D01*
X178771276Y-100432350D01*
X178873246Y-100508773D01*
X178881650Y-100511924D01*
X178881653Y-100511925D01*
X178999421Y-100556073D01*
X178999423Y-100556074D01*
X179006819Y-100558846D01*
X179067719Y-100565462D01*
X179317855Y-100565462D01*
X179372693Y-100578022D01*
X179479779Y-100629789D01*
X179654768Y-100670188D01*
X179661806Y-100670213D01*
X179661810Y-100670213D01*
X179746706Y-100670509D01*
X179834357Y-100670815D01*
X179970196Y-100640451D01*
X180002743Y-100633176D01*
X180002744Y-100633176D01*
X180009623Y-100631638D01*
X180123338Y-100577642D01*
X180177384Y-100565462D01*
X180426995Y-100565462D01*
X180487895Y-100558846D01*
X180495291Y-100556074D01*
X180495293Y-100556073D01*
X180613061Y-100511925D01*
X180613064Y-100511924D01*
X180621468Y-100508773D01*
X180723438Y-100432350D01*
X180728440Y-100428601D01*
X180735617Y-100423222D01*
X180821168Y-100309073D01*
X180824739Y-100299549D01*
X180868468Y-100182898D01*
X180868469Y-100182896D01*
X180871241Y-100175500D01*
X180877857Y-100114600D01*
X180877857Y-99625324D01*
X180871241Y-99564424D01*
X180830926Y-99456881D01*
X180824320Y-99439258D01*
X180824319Y-99439255D01*
X180821168Y-99430851D01*
X180735617Y-99316702D01*
X180621468Y-99231151D01*
X180613064Y-99228000D01*
X180613061Y-99227999D01*
X180495293Y-99183851D01*
X180495291Y-99183850D01*
X180487895Y-99181078D01*
X180426995Y-99174462D01*
X180236125Y-99174462D01*
X180168004Y-99154460D01*
X180147030Y-99137557D01*
X179635574Y-98626101D01*
X179634645Y-98625163D01*
X179594099Y-98583759D01*
X179572196Y-98561392D01*
X179566276Y-98557577D01*
X179566270Y-98557572D01*
X179536164Y-98538170D01*
X179525810Y-98530730D01*
X179497829Y-98508393D01*
X179492321Y-98503996D01*
X179462496Y-98489578D01*
X179449080Y-98482049D01*
X179427164Y-98467925D01*
X179421238Y-98464106D01*
X179407691Y-98459175D01*
X179380966Y-98449448D01*
X179369224Y-98444488D01*
X179336971Y-98428897D01*
X179336972Y-98428897D01*
X179330633Y-98425833D01*
X179323778Y-98424250D01*
X179323774Y-98424249D01*
X179304812Y-98419872D01*
X179298357Y-98418381D01*
X179283609Y-98414012D01*
X179259100Y-98405092D01*
X179259096Y-98405091D01*
X179252477Y-98402682D01*
X179209937Y-98397308D01*
X179197418Y-98395078D01*
X179155644Y-98385434D01*
X179148603Y-98385409D01*
X179148600Y-98385409D01*
X179115473Y-98385293D01*
X179114600Y-98385264D01*
X179113772Y-98385160D01*
X179077317Y-98385160D01*
X179076877Y-98385159D01*
X178979548Y-98384819D01*
X178979545Y-98384819D01*
X178976055Y-98384807D01*
X178974867Y-98385073D01*
X178973255Y-98385160D01*
X175880590Y-98385160D01*
X175747273Y-98400114D01*
X175740620Y-98402431D01*
X175740619Y-98402431D01*
X175694814Y-98418382D01*
X175577672Y-98459175D01*
X175571694Y-98462911D01*
X175571693Y-98462911D01*
X175558727Y-98471013D01*
X175491956Y-98490160D01*
X175246107Y-98490160D01*
X175185207Y-98496776D01*
X175177811Y-98499548D01*
X175177809Y-98499549D01*
X175060041Y-98543697D01*
X175060038Y-98543698D01*
X175051634Y-98546849D01*
X174937485Y-98632400D01*
X174851934Y-98746549D01*
X174848783Y-98754953D01*
X174848782Y-98754956D01*
X174809048Y-98860950D01*
X174801861Y-98880122D01*
X174795245Y-98941022D01*
X174795245Y-99430298D01*
X173056245Y-99430298D01*
X173056245Y-98941022D01*
X173049629Y-98880122D01*
X173042442Y-98860950D01*
X173002708Y-98754956D01*
X173002707Y-98754953D01*
X172999556Y-98746549D01*
X172914005Y-98632400D01*
X172799856Y-98546849D01*
X172791452Y-98543698D01*
X172791449Y-98543697D01*
X172673681Y-98499549D01*
X172673679Y-98499548D01*
X172666283Y-98496776D01*
X172605383Y-98490160D01*
X172361439Y-98490160D01*
X172296203Y-98470961D01*
X172296157Y-98471054D01*
X172295627Y-98470791D01*
X172293187Y-98470073D01*
X172283928Y-98464106D01*
X172277307Y-98461696D01*
X172277305Y-98461695D01*
X172121784Y-98405090D01*
X172121781Y-98405089D01*
X172115167Y-98402682D01*
X172054958Y-98395076D01*
X171980390Y-98385656D01*
X171980387Y-98385656D01*
X171976462Y-98385160D01*
X168029100Y-98385160D01*
X167895783Y-98400114D01*
X167889130Y-98402431D01*
X167889129Y-98402431D01*
X167843324Y-98418382D01*
X167726182Y-98459175D01*
X167720204Y-98462911D01*
X167720203Y-98462911D01*
X167707237Y-98471013D01*
X167640466Y-98490160D01*
X167394617Y-98490160D01*
X167333717Y-98496776D01*
X167326321Y-98499548D01*
X167326319Y-98499549D01*
X167208551Y-98543697D01*
X167208548Y-98543698D01*
X167200144Y-98546849D01*
X167085995Y-98632400D01*
X167000444Y-98746549D01*
X166997293Y-98754953D01*
X166997292Y-98754956D01*
X166957558Y-98860950D01*
X166950371Y-98880122D01*
X166943755Y-98941022D01*
X166943755Y-99430298D01*
X165204755Y-99430298D01*
X165204755Y-98941022D01*
X165198139Y-98880122D01*
X165190952Y-98860950D01*
X165151218Y-98754956D01*
X165151217Y-98754953D01*
X165148066Y-98746549D01*
X165062515Y-98632400D01*
X164948366Y-98546849D01*
X164939962Y-98543698D01*
X164939959Y-98543697D01*
X164822191Y-98499549D01*
X164822189Y-98499548D01*
X164814793Y-98496776D01*
X164753893Y-98490160D01*
X164509949Y-98490160D01*
X164444713Y-98470961D01*
X164444667Y-98471054D01*
X164444137Y-98470791D01*
X164441697Y-98470073D01*
X164432438Y-98464106D01*
X164425817Y-98461696D01*
X164425815Y-98461695D01*
X164270294Y-98405090D01*
X164270291Y-98405089D01*
X164263677Y-98402682D01*
X164203468Y-98395076D01*
X164128900Y-98385656D01*
X164128897Y-98385656D01*
X164124972Y-98385160D01*
X161853423Y-98385160D01*
X161852103Y-98385153D01*
X161850765Y-98385139D01*
X161762933Y-98384219D01*
X161721044Y-98393276D01*
X161708470Y-98395335D01*
X161697998Y-98396510D01*
X161672864Y-98399329D01*
X161672862Y-98399330D01*
X161665868Y-98400114D01*
X161634581Y-98411010D01*
X161619776Y-98415171D01*
X161594284Y-98420682D01*
X161594282Y-98420683D01*
X161587398Y-98422171D01*
X161581013Y-98425148D01*
X161581014Y-98425148D01*
X161548555Y-98440284D01*
X161536744Y-98445080D01*
X161502920Y-98456858D01*
X161502918Y-98456859D01*
X161496267Y-98459175D01*
X161477257Y-98471054D01*
X161468178Y-98476727D01*
X161454659Y-98484067D01*
X161431016Y-98495092D01*
X161424632Y-98498069D01*
X161419063Y-98502389D01*
X161419061Y-98502390D01*
X161390764Y-98524339D01*
X161380312Y-98531632D01*
X161343965Y-98554344D01*
X161338968Y-98559306D01*
X161338967Y-98559307D01*
X161315447Y-98582663D01*
X161314825Y-98583245D01*
X161314163Y-98583759D01*
X161288303Y-98609619D01*
X161216533Y-98680890D01*
X161215881Y-98681917D01*
X161214797Y-98683125D01*
X160865365Y-99032557D01*
X160803053Y-99066583D01*
X160776270Y-99069462D01*
X160207488Y-99069462D01*
X160074171Y-99084416D01*
X160067518Y-99086733D01*
X160067517Y-99086733D01*
X160010834Y-99106472D01*
X159904570Y-99143477D01*
X159898592Y-99147213D01*
X159898591Y-99147213D01*
X159885625Y-99155315D01*
X159818854Y-99174462D01*
X159573005Y-99174462D01*
X159512105Y-99181078D01*
X159504709Y-99183850D01*
X159504707Y-99183851D01*
X159386939Y-99227999D01*
X159386936Y-99228000D01*
X159378532Y-99231151D01*
X159264383Y-99316702D01*
X159178832Y-99430851D01*
X159175681Y-99439255D01*
X159175680Y-99439258D01*
X159169074Y-99456881D01*
X159128759Y-99564424D01*
X159122143Y-99625324D01*
X159122143Y-100114600D01*
X157383143Y-100114600D01*
X157383143Y-99625324D01*
X157376527Y-99564424D01*
X157336212Y-99456881D01*
X157329606Y-99439258D01*
X157329605Y-99439255D01*
X157326454Y-99430851D01*
X157240903Y-99316702D01*
X157126754Y-99231151D01*
X157118350Y-99228000D01*
X157118347Y-99227999D01*
X157000579Y-99183851D01*
X157000577Y-99183850D01*
X156993181Y-99181078D01*
X156932281Y-99174462D01*
X156688337Y-99174462D01*
X156623101Y-99155263D01*
X156623055Y-99155356D01*
X156622525Y-99155093D01*
X156620085Y-99154375D01*
X156610826Y-99148408D01*
X156604206Y-99145999D01*
X156604203Y-99145997D01*
X156448682Y-99089392D01*
X156448679Y-99089391D01*
X156442065Y-99086984D01*
X156378293Y-99078928D01*
X156307288Y-99069958D01*
X156307285Y-99069958D01*
X156303360Y-99069462D01*
X155097915Y-99069462D01*
X155029794Y-99049460D01*
X154983301Y-98995804D01*
X154973197Y-98925530D01*
X155002691Y-98860950D01*
X155062417Y-98822566D01*
X155078158Y-98819021D01*
X155083234Y-98818215D01*
X155210203Y-98798057D01*
X155212548Y-98797708D01*
X157170402Y-98526256D01*
X157172825Y-98525944D01*
X159135562Y-98293084D01*
X159137994Y-98292820D01*
X161104915Y-98098634D01*
X161107349Y-98098418D01*
X161912140Y-98034929D01*
X163077796Y-97942972D01*
X163080270Y-97942802D01*
X164086520Y-97883320D01*
X165053296Y-97826171D01*
X165055724Y-97826051D01*
X167030703Y-97748271D01*
X167033097Y-97748199D01*
X169009299Y-97709300D01*
X169011780Y-97709276D01*
X170988220Y-97709276D01*
X170990701Y-97709300D01*
G37*
%TD.AperFunction*%
%TA.AperFunction,Conductor*%
G36*
X169757891Y-107614994D02*
G01*
X170152595Y-108009698D01*
X170186621Y-108072010D01*
X170189500Y-108098793D01*
X170189500Y-109805780D01*
X170188627Y-109820589D01*
X170184636Y-109854310D01*
X170186328Y-109863574D01*
X170186328Y-109863575D01*
X170195172Y-109912001D01*
X170195822Y-109915904D01*
X170203077Y-109964156D01*
X170204551Y-109973962D01*
X170207679Y-109980475D01*
X170208975Y-109987573D01*
X170236025Y-110039647D01*
X170237768Y-110043137D01*
X170263191Y-110096079D01*
X170268077Y-110101365D01*
X170268110Y-110101413D01*
X170271421Y-110107788D01*
X170275725Y-110112828D01*
X170312952Y-110150055D01*
X170316381Y-110153620D01*
X170355146Y-110195556D01*
X170361505Y-110199249D01*
X170367663Y-110204766D01*
X172231390Y-112068493D01*
X172265416Y-112130805D01*
X172260351Y-112201620D01*
X172251414Y-112220588D01*
X172182698Y-112339609D01*
X172172821Y-112356716D01*
X172153115Y-112417365D01*
X172119833Y-112519795D01*
X172079759Y-112578401D01*
X172014363Y-112606038D01*
X171944406Y-112593931D01*
X171892100Y-112545925D01*
X171880167Y-112519795D01*
X171846885Y-112417365D01*
X171827179Y-112356716D01*
X171815229Y-112336017D01*
X171735836Y-112198505D01*
X171732533Y-112192784D01*
X171676727Y-112130805D01*
X171610286Y-112057015D01*
X171610284Y-112057014D01*
X171605871Y-112052112D01*
X171512439Y-111984230D01*
X171458072Y-111944730D01*
X171458071Y-111944729D01*
X171452730Y-111940849D01*
X171279803Y-111863856D01*
X171181788Y-111843022D01*
X171101103Y-111825872D01*
X171101099Y-111825872D01*
X171094646Y-111824500D01*
X170905354Y-111824500D01*
X170898901Y-111825872D01*
X170898897Y-111825872D01*
X170812775Y-111844178D01*
X170720197Y-111863856D01*
X170714168Y-111866540D01*
X170714166Y-111866541D01*
X170714157Y-111866545D01*
X170705275Y-111870500D01*
X170702966Y-111871528D01*
X170632599Y-111880963D01*
X170568301Y-111850858D01*
X170562620Y-111845517D01*
X168892753Y-110175650D01*
X168882899Y-110164561D01*
X168867707Y-110145291D01*
X168867705Y-110145289D01*
X168861872Y-110137890D01*
X168854125Y-110132535D01*
X168854123Y-110132534D01*
X168825610Y-110112828D01*
X168813615Y-110104538D01*
X168810403Y-110102243D01*
X168803725Y-110097310D01*
X168773497Y-110074983D01*
X168770758Y-110072960D01*
X168770757Y-110072959D01*
X168763184Y-110067366D01*
X168756368Y-110064973D01*
X168750431Y-110060869D01*
X168741451Y-110058029D01*
X168741449Y-110058028D01*
X168719049Y-110050944D01*
X168694481Y-110043174D01*
X168690750Y-110041929D01*
X168644263Y-110025604D01*
X168644261Y-110025604D01*
X168635369Y-110022481D01*
X168628181Y-110022199D01*
X168628122Y-110022188D01*
X168621270Y-110020020D01*
X168614663Y-110019500D01*
X168561984Y-110019500D01*
X168557037Y-110019403D01*
X168500006Y-110017162D01*
X168492900Y-110019046D01*
X168484653Y-110019500D01*
X167588747Y-110019500D01*
X167520626Y-109999498D01*
X167474133Y-109945842D01*
X167464029Y-109875568D01*
X167493523Y-109810988D01*
X167553249Y-109772604D01*
X167569038Y-109769051D01*
X167615351Y-109761717D01*
X167633986Y-109755662D01*
X167729213Y-109707141D01*
X167745056Y-109695630D01*
X167820630Y-109620056D01*
X167832141Y-109604212D01*
X167855553Y-109558265D01*
X167904302Y-109506650D01*
X167973217Y-109489584D01*
X168040418Y-109512485D01*
X168068646Y-109539903D01*
X168132429Y-109625008D01*
X168144991Y-109637570D01*
X168245237Y-109712701D01*
X168260823Y-109721233D01*
X168353036Y-109755802D01*
X168367102Y-109756832D01*
X168370000Y-109751547D01*
X168370000Y-109744047D01*
X169170000Y-109744047D01*
X169173973Y-109757578D01*
X169179940Y-109758436D01*
X169279177Y-109721233D01*
X169294763Y-109712701D01*
X169395009Y-109637570D01*
X169407570Y-109625009D01*
X169482697Y-109524767D01*
X169491235Y-109509173D01*
X169497687Y-109491964D01*
X169498716Y-109477899D01*
X169493429Y-109475000D01*
X169188115Y-109475000D01*
X169172876Y-109479475D01*
X169171671Y-109480865D01*
X169170000Y-109488548D01*
X169170000Y-109744047D01*
X168370000Y-109744047D01*
X168370000Y-108801000D01*
X168390002Y-108732879D01*
X168443658Y-108686386D01*
X168496000Y-108675000D01*
X169485931Y-108675000D01*
X169499462Y-108671027D01*
X169500320Y-108665060D01*
X169491235Y-108640827D01*
X169482697Y-108625233D01*
X169407570Y-108524991D01*
X169395009Y-108512430D01*
X169294763Y-108437299D01*
X169279177Y-108428767D01*
X169160867Y-108384414D01*
X169145622Y-108380789D01*
X169097071Y-108375515D01*
X169031509Y-108348273D01*
X168991083Y-108289910D01*
X168988628Y-108218956D01*
X169024923Y-108157938D01*
X169088445Y-108126229D01*
X169097072Y-108124989D01*
X169103442Y-108124297D01*
X169153580Y-108118851D01*
X169287824Y-108068526D01*
X169295003Y-108063146D01*
X169295006Y-108063144D01*
X169395365Y-107987928D01*
X169402546Y-107982546D01*
X169416165Y-107964375D01*
X169483144Y-107875006D01*
X169483146Y-107875003D01*
X169488526Y-107867824D01*
X169528470Y-107761271D01*
X169536079Y-107740975D01*
X169536079Y-107740973D01*
X169538851Y-107733580D01*
X169539787Y-107724969D01*
X169542193Y-107702817D01*
X169543533Y-107690480D01*
X169570775Y-107624919D01*
X169629138Y-107584493D01*
X169700092Y-107582038D01*
X169757891Y-107614994D01*
G37*
%TD.AperFunction*%
%TA.AperFunction,Conductor*%
G36*
X208460945Y-105355987D02*
G01*
X209151554Y-105642798D01*
X209420783Y-105754609D01*
X209476477Y-105777739D01*
X209478755Y-105778712D01*
X211288827Y-106572555D01*
X211291020Y-106573543D01*
X212128466Y-106960648D01*
X213085115Y-107402855D01*
X213087356Y-107403917D01*
X214628609Y-108153512D01*
X214681120Y-108201294D01*
X214699500Y-108266822D01*
X214699500Y-108579189D01*
X214679498Y-108647310D01*
X214625842Y-108693803D01*
X214555568Y-108703907D01*
X214497934Y-108680014D01*
X214438673Y-108635599D01*
X214438664Y-108635594D01*
X214431486Y-108630214D01*
X214423082Y-108627063D01*
X214423079Y-108627062D01*
X214305311Y-108582914D01*
X214305309Y-108582913D01*
X214297913Y-108580141D01*
X214237013Y-108573525D01*
X213993069Y-108573525D01*
X213927833Y-108554326D01*
X213927787Y-108554419D01*
X213927257Y-108554156D01*
X213924817Y-108553438D01*
X213915558Y-108547471D01*
X213908938Y-108545062D01*
X213908935Y-108545060D01*
X213753414Y-108488455D01*
X213753411Y-108488454D01*
X213746797Y-108486047D01*
X213668373Y-108476140D01*
X213612020Y-108469021D01*
X213612017Y-108469021D01*
X213608092Y-108468525D01*
X212095820Y-108468525D01*
X211962503Y-108483479D01*
X211955850Y-108485796D01*
X211955849Y-108485796D01*
X211947823Y-108488591D01*
X211792902Y-108542540D01*
X211786928Y-108546273D01*
X211786926Y-108546274D01*
X211685872Y-108609420D01*
X211640600Y-108637709D01*
X211607049Y-108671027D01*
X211518165Y-108759292D01*
X211518162Y-108759296D01*
X211513168Y-108764255D01*
X211416938Y-108915889D01*
X211414573Y-108922531D01*
X211359056Y-109078439D01*
X211359055Y-109078444D01*
X211356694Y-109085074D01*
X211355861Y-109092060D01*
X211355860Y-109092064D01*
X211341720Y-109210647D01*
X211335430Y-109263401D01*
X211336166Y-109270404D01*
X211336166Y-109270405D01*
X211353194Y-109432416D01*
X211354202Y-109442008D01*
X211356473Y-109448679D01*
X211409522Y-109604509D01*
X211412078Y-109612018D01*
X211415768Y-109618016D01*
X211415769Y-109618018D01*
X211420070Y-109625009D01*
X211506181Y-109764980D01*
X211511107Y-109770011D01*
X211511110Y-109770014D01*
X211567647Y-109827747D01*
X211631834Y-109893293D01*
X211637759Y-109897112D01*
X211637761Y-109897113D01*
X211757177Y-109974071D01*
X211782792Y-109990579D01*
X211789412Y-109992988D01*
X211789415Y-109992990D01*
X211944936Y-110049595D01*
X211944939Y-110049596D01*
X211951553Y-110052003D01*
X211987429Y-110056535D01*
X212086330Y-110069029D01*
X212086333Y-110069029D01*
X212090258Y-110069525D01*
X213602530Y-110069525D01*
X213735847Y-110054571D01*
X213743222Y-110052003D01*
X213842209Y-110017532D01*
X213905448Y-109995510D01*
X213915407Y-109989287D01*
X213924393Y-109983672D01*
X213991164Y-109964525D01*
X214237013Y-109964525D01*
X214297913Y-109957909D01*
X214305309Y-109955137D01*
X214305311Y-109955136D01*
X214423079Y-109910988D01*
X214423082Y-109910987D01*
X214431486Y-109907836D01*
X214438666Y-109902455D01*
X214438673Y-109902451D01*
X214497934Y-109858036D01*
X214564440Y-109833187D01*
X214633823Y-109848239D01*
X214684053Y-109898413D01*
X214699500Y-109958861D01*
X214699500Y-110379189D01*
X214679498Y-110447310D01*
X214625842Y-110493803D01*
X214555568Y-110503907D01*
X214497934Y-110480014D01*
X214438673Y-110435599D01*
X214438666Y-110435595D01*
X214431486Y-110430214D01*
X214423082Y-110427063D01*
X214423079Y-110427062D01*
X214305311Y-110382914D01*
X214305309Y-110382913D01*
X214297913Y-110380141D01*
X214250673Y-110375009D01*
X214240410Y-110373894D01*
X214240409Y-110373894D01*
X214237013Y-110373525D01*
X212877737Y-110373525D01*
X212874341Y-110373894D01*
X212874340Y-110373894D01*
X212864077Y-110375009D01*
X212816837Y-110380141D01*
X212809441Y-110382913D01*
X212809439Y-110382914D01*
X212691671Y-110427062D01*
X212691668Y-110427063D01*
X212683264Y-110430214D01*
X212569115Y-110515765D01*
X212563736Y-110522942D01*
X212550453Y-110540665D01*
X212483564Y-110629914D01*
X212480413Y-110638318D01*
X212480412Y-110638321D01*
X212468517Y-110670052D01*
X212433491Y-110763487D01*
X212426875Y-110824387D01*
X212426875Y-111313663D01*
X212428425Y-111327935D01*
X212415900Y-111397815D01*
X212392258Y-111430639D01*
X212270302Y-111552595D01*
X212207990Y-111586621D01*
X212181207Y-111589500D01*
X210768446Y-111589500D01*
X210700325Y-111569498D01*
X210653832Y-111515842D01*
X210646080Y-111472671D01*
X210643420Y-111467779D01*
X210636572Y-111464025D01*
X208485677Y-111464025D01*
X208472147Y-111467998D01*
X208470216Y-111481431D01*
X208440723Y-111546012D01*
X208380997Y-111584396D01*
X208345498Y-111589500D01*
X186878793Y-111589500D01*
X186810672Y-111569498D01*
X186789698Y-111552595D01*
X185908230Y-110671127D01*
X208472892Y-110671127D01*
X208478178Y-110674025D01*
X209144260Y-110674025D01*
X209159499Y-110669550D01*
X209160704Y-110668160D01*
X209162375Y-110660477D01*
X209162375Y-110655910D01*
X209952375Y-110655910D01*
X209956850Y-110671149D01*
X209958240Y-110672354D01*
X209965923Y-110674025D01*
X210629073Y-110674025D01*
X210642604Y-110670052D01*
X210643462Y-110664085D01*
X210633893Y-110638560D01*
X210625361Y-110622975D01*
X210550660Y-110523303D01*
X210538097Y-110510740D01*
X210438425Y-110436039D01*
X210422840Y-110427507D01*
X210305199Y-110383406D01*
X210289953Y-110379781D01*
X210240365Y-110374394D01*
X210233551Y-110374025D01*
X209970490Y-110374025D01*
X209955251Y-110378500D01*
X209954046Y-110379890D01*
X209952375Y-110387573D01*
X209952375Y-110655910D01*
X209162375Y-110655910D01*
X209162375Y-110392141D01*
X209157900Y-110376902D01*
X209156510Y-110375697D01*
X209148827Y-110374026D01*
X208881201Y-110374026D01*
X208874383Y-110374395D01*
X208824804Y-110379780D01*
X208809545Y-110383409D01*
X208691910Y-110427507D01*
X208676325Y-110436039D01*
X208576653Y-110510740D01*
X208564090Y-110523303D01*
X208489389Y-110622975D01*
X208480857Y-110638560D01*
X208473922Y-110657060D01*
X208472892Y-110671127D01*
X185908230Y-110671127D01*
X184849863Y-109612760D01*
X184815837Y-109550448D01*
X184820902Y-109479633D01*
X184863449Y-109422797D01*
X184929969Y-109397986D01*
X184957753Y-109399671D01*
X184958730Y-109399980D01*
X184965337Y-109400500D01*
X185018016Y-109400500D01*
X185022962Y-109400597D01*
X185079994Y-109402838D01*
X185087100Y-109400954D01*
X185095344Y-109400500D01*
X205208131Y-109400500D01*
X205222940Y-109401373D01*
X205231973Y-109402442D01*
X205256661Y-109405364D01*
X205265925Y-109403672D01*
X205265926Y-109403672D01*
X205314352Y-109394828D01*
X205318255Y-109394178D01*
X205366996Y-109386850D01*
X205366997Y-109386850D01*
X205376313Y-109385449D01*
X205382826Y-109382321D01*
X205389924Y-109381025D01*
X205441998Y-109353975D01*
X205445488Y-109352232D01*
X205498430Y-109326809D01*
X205503716Y-109321923D01*
X205503764Y-109321890D01*
X205510139Y-109318579D01*
X205515179Y-109314275D01*
X205552406Y-109277048D01*
X205555972Y-109273618D01*
X205590989Y-109241249D01*
X205597907Y-109234854D01*
X205601600Y-109228495D01*
X205607110Y-109222344D01*
X206346209Y-108483246D01*
X206408521Y-108449221D01*
X206435304Y-108446342D01*
X207121147Y-108446342D01*
X207125750Y-108445842D01*
X207152232Y-108442965D01*
X207182047Y-108439726D01*
X207189443Y-108436954D01*
X207189445Y-108436953D01*
X207307213Y-108392805D01*
X207307216Y-108392804D01*
X207315620Y-108389653D01*
X207417440Y-108313342D01*
X207422592Y-108309481D01*
X207429769Y-108304102D01*
X207435419Y-108296564D01*
X207493583Y-108218956D01*
X207515320Y-108189953D01*
X207518562Y-108181307D01*
X207562620Y-108063778D01*
X207562621Y-108063775D01*
X207565393Y-108056380D01*
X207572009Y-107995480D01*
X207572009Y-107506204D01*
X207565393Y-107445304D01*
X207542945Y-107385422D01*
X207537762Y-107314617D01*
X207571683Y-107252248D01*
X207633939Y-107218119D01*
X207704763Y-107223066D01*
X207750022Y-107252100D01*
X208719970Y-108222048D01*
X208753996Y-108284360D01*
X208756875Y-108311143D01*
X208756875Y-108516699D01*
X208736873Y-108584820D01*
X208691470Y-108627138D01*
X208683264Y-108630214D01*
X208676087Y-108635593D01*
X208676085Y-108635594D01*
X208633068Y-108667834D01*
X208569115Y-108715765D01*
X208483564Y-108829914D01*
X208480413Y-108838318D01*
X208480412Y-108838321D01*
X208443260Y-108937427D01*
X208433491Y-108963487D01*
X208426875Y-109024387D01*
X208426875Y-109513663D01*
X208433491Y-109574563D01*
X208436263Y-109581959D01*
X208436264Y-109581961D01*
X208478876Y-109695630D01*
X208483564Y-109708136D01*
X208569115Y-109822285D01*
X208683264Y-109907836D01*
X208691668Y-109910987D01*
X208691671Y-109910988D01*
X208809439Y-109955136D01*
X208809441Y-109955137D01*
X208816837Y-109957909D01*
X208877737Y-109964525D01*
X209122666Y-109964525D01*
X209190177Y-109984138D01*
X209204239Y-109993062D01*
X209224265Y-110000193D01*
X209366789Y-110050944D01*
X209366794Y-110050945D01*
X209373424Y-110053306D01*
X209380410Y-110054139D01*
X209380414Y-110054140D01*
X209498347Y-110068202D01*
X209551751Y-110074570D01*
X209558754Y-110073834D01*
X209558755Y-110073834D01*
X209723350Y-110056535D01*
X209723354Y-110056534D01*
X209730358Y-110055798D01*
X209767279Y-110043229D01*
X209893698Y-110000193D01*
X209893701Y-110000192D01*
X209900368Y-109997922D01*
X209910362Y-109991774D01*
X209924287Y-109983207D01*
X209990309Y-109964525D01*
X210237013Y-109964525D01*
X210297913Y-109957909D01*
X210305309Y-109955137D01*
X210305311Y-109955136D01*
X210423079Y-109910988D01*
X210423082Y-109910987D01*
X210431486Y-109907836D01*
X210545635Y-109822285D01*
X210631186Y-109708136D01*
X210635875Y-109695630D01*
X210678486Y-109581961D01*
X210678487Y-109581959D01*
X210681259Y-109574563D01*
X210687875Y-109513663D01*
X210687875Y-109024387D01*
X210681259Y-108963487D01*
X210671490Y-108937427D01*
X210634338Y-108838321D01*
X210634337Y-108838318D01*
X210631186Y-108829914D01*
X210545635Y-108715765D01*
X210481682Y-108667834D01*
X210438665Y-108635594D01*
X210438663Y-108635593D01*
X210431486Y-108630214D01*
X210423290Y-108627141D01*
X210373221Y-108576962D01*
X210357875Y-108516699D01*
X210357875Y-107936458D01*
X210357882Y-107935138D01*
X210358081Y-107916159D01*
X210358816Y-107845968D01*
X210357221Y-107838591D01*
X210349758Y-107804069D01*
X210347698Y-107791489D01*
X210343706Y-107755898D01*
X210343705Y-107755895D01*
X210342921Y-107748903D01*
X210340509Y-107741975D01*
X210332029Y-107717622D01*
X210327867Y-107702817D01*
X210322353Y-107677315D01*
X210320865Y-107670433D01*
X210302748Y-107631581D01*
X210297954Y-107619776D01*
X210286601Y-107587172D01*
X210283860Y-107579302D01*
X210266308Y-107551213D01*
X210258967Y-107537693D01*
X210247943Y-107514052D01*
X210247943Y-107514051D01*
X210244966Y-107507668D01*
X210218697Y-107473802D01*
X210211412Y-107463361D01*
X210188691Y-107427000D01*
X210160351Y-107398462D01*
X210159791Y-107397863D01*
X210159276Y-107397199D01*
X210133557Y-107371480D01*
X210104574Y-107342294D01*
X210064604Y-107302044D01*
X210064602Y-107302042D01*
X210062145Y-107299568D01*
X210061118Y-107298916D01*
X210059906Y-107297829D01*
X208323524Y-105561446D01*
X208289498Y-105499134D01*
X208294563Y-105428318D01*
X208337110Y-105371483D01*
X208403630Y-105346672D01*
X208460945Y-105355987D01*
G37*
%TD.AperFunction*%
%TA.AperFunction,Conductor*%
G36*
X162384011Y-104551567D02*
G01*
X162390594Y-104557697D01*
X164738478Y-106905581D01*
X164772504Y-106967893D01*
X164775327Y-106995521D01*
X164774394Y-107002611D01*
X164792999Y-107171135D01*
X164802989Y-107198434D01*
X164847527Y-107320138D01*
X164851266Y-107330356D01*
X164945830Y-107471083D01*
X164951442Y-107476190D01*
X164951445Y-107476193D01*
X165065612Y-107580077D01*
X165065616Y-107580080D01*
X165071233Y-107585191D01*
X165077906Y-107588814D01*
X165077910Y-107588817D01*
X165213558Y-107662467D01*
X165213560Y-107662468D01*
X165220235Y-107666092D01*
X165227584Y-107668020D01*
X165376883Y-107707188D01*
X165376885Y-107707188D01*
X165384233Y-107709116D01*
X165477904Y-107710587D01*
X165524208Y-107711315D01*
X165576641Y-107728125D01*
X165578193Y-107724958D01*
X165581816Y-107727634D01*
X165588632Y-107730027D01*
X165594569Y-107734131D01*
X165603549Y-107736971D01*
X165603551Y-107736972D01*
X165615845Y-107740860D01*
X165650519Y-107751826D01*
X165654250Y-107753071D01*
X165700737Y-107769396D01*
X165700739Y-107769396D01*
X165709631Y-107772519D01*
X165716821Y-107772801D01*
X165716875Y-107772812D01*
X165723730Y-107774980D01*
X165724794Y-107775064D01*
X165785637Y-107806589D01*
X165821009Y-107868147D01*
X165824500Y-107897600D01*
X165824501Y-108009698D01*
X165824501Y-108106518D01*
X165825276Y-108111411D01*
X165825276Y-108111412D01*
X165837715Y-108189953D01*
X165839354Y-108200304D01*
X165843858Y-108209143D01*
X165843858Y-108209144D01*
X165861285Y-108243346D01*
X165874390Y-108313123D01*
X165861285Y-108357754D01*
X165844337Y-108391016D01*
X165838806Y-108408037D01*
X165840454Y-108420788D01*
X165854428Y-108425000D01*
X165999486Y-108425000D01*
X166056688Y-108438733D01*
X166089875Y-108455642D01*
X166099696Y-108460646D01*
X166109485Y-108462196D01*
X166109487Y-108462197D01*
X166136849Y-108466530D01*
X166193481Y-108475500D01*
X166204527Y-108475500D01*
X166936502Y-108475499D01*
X167004621Y-108495501D01*
X167051114Y-108549157D01*
X167062500Y-108601499D01*
X167062500Y-109349000D01*
X167042498Y-109417121D01*
X166988842Y-109463614D01*
X166936500Y-109475000D01*
X166788500Y-109475000D01*
X166720379Y-109454998D01*
X166673886Y-109401342D01*
X166662500Y-109349000D01*
X166662500Y-108843115D01*
X166658025Y-108827876D01*
X166656635Y-108826671D01*
X166648952Y-108825000D01*
X165853967Y-108825000D01*
X165840731Y-108828887D01*
X165838905Y-108842266D01*
X165844336Y-108858981D01*
X165861566Y-108892797D01*
X165874670Y-108962573D01*
X165861566Y-109007203D01*
X165844336Y-109041019D01*
X165838284Y-109059645D01*
X165825775Y-109138628D01*
X165825328Y-109144305D01*
X165800045Y-109210647D01*
X165742908Y-109252789D01*
X165672058Y-109257350D01*
X165610621Y-109223518D01*
X162767753Y-106380650D01*
X162757899Y-106369561D01*
X162742707Y-106350291D01*
X162742705Y-106350289D01*
X162736872Y-106342890D01*
X162729125Y-106337535D01*
X162729123Y-106337534D01*
X162698321Y-106316246D01*
X162688615Y-106309538D01*
X162685403Y-106307243D01*
X162645758Y-106277960D01*
X162645757Y-106277959D01*
X162638184Y-106272366D01*
X162631368Y-106269973D01*
X162625431Y-106265869D01*
X162616451Y-106263029D01*
X162616449Y-106263028D01*
X162589208Y-106254413D01*
X162569481Y-106248174D01*
X162565750Y-106246929D01*
X162519263Y-106230604D01*
X162519261Y-106230604D01*
X162510369Y-106227481D01*
X162503181Y-106227199D01*
X162503122Y-106227188D01*
X162496270Y-106225020D01*
X162489663Y-106224500D01*
X162436984Y-106224500D01*
X162432037Y-106224403D01*
X162375006Y-106222162D01*
X162367900Y-106224046D01*
X162359653Y-106224500D01*
X162301500Y-106224500D01*
X162233379Y-106204498D01*
X162186886Y-106150842D01*
X162175500Y-106098501D01*
X162175499Y-105898437D01*
X162175499Y-105893482D01*
X162170253Y-105860356D01*
X162162198Y-105809494D01*
X162162197Y-105809492D01*
X162160646Y-105799696D01*
X162156143Y-105790859D01*
X162156142Y-105790855D01*
X162138995Y-105757202D01*
X162125891Y-105687425D01*
X162138995Y-105642798D01*
X162156144Y-105609140D01*
X162156144Y-105609139D01*
X162160646Y-105600304D01*
X162162337Y-105589632D01*
X162167856Y-105554784D01*
X162175500Y-105506519D01*
X162175499Y-105243482D01*
X162174724Y-105238588D01*
X162162198Y-105159494D01*
X162162197Y-105159492D01*
X162160646Y-105149696D01*
X162156143Y-105140859D01*
X162156142Y-105140855D01*
X162138995Y-105107202D01*
X162125891Y-105037425D01*
X162138995Y-104992798D01*
X162156144Y-104959140D01*
X162156144Y-104959139D01*
X162160646Y-104950304D01*
X162163139Y-104934567D01*
X162169290Y-104895727D01*
X162175500Y-104856519D01*
X162175499Y-104646792D01*
X162195501Y-104578672D01*
X162249156Y-104532179D01*
X162319430Y-104522074D01*
X162384011Y-104551567D01*
G37*
%TD.AperFunction*%
M02*
