%TF.GenerationSoftware,KiCad,Pcbnew,(6.0.6)*%
%TF.CreationDate,2022-07-17T19:58:46+03:00*%
%TF.ProjectId,Kontroller ESP,4b6f6e74-726f-46c6-9c65-72204553502e,rev?*%
%TF.SameCoordinates,Original*%
%TF.FileFunction,Soldermask,Bot*%
%TF.FilePolarity,Negative*%
%FSLAX46Y46*%
G04 Gerber Fmt 4.6, Leading zero omitted, Abs format (unit mm)*
G04 Created by KiCad (PCBNEW (6.0.6)) date 2022-07-17 19:58:46*
%MOMM*%
%LPD*%
G01*
G04 APERTURE LIST*
%ADD10O,0.890000X1.550000*%
%ADD11O,1.250000X0.950000*%
%ADD12C,0.900000*%
%ADD13C,4.400000*%
%ADD14C,0.700000*%
%ADD15R,1.350000X1.350000*%
%ADD16O,1.350000X1.350000*%
%ADD17R,1.700000X1.700000*%
%ADD18O,1.700000X1.700000*%
G04 APERTURE END LIST*
D10*
X160450000Y-130500000D03*
D11*
X166450000Y-127800000D03*
X161450000Y-127800000D03*
D10*
X167450000Y-130500000D03*
D12*
X155760000Y-130130000D03*
X152760000Y-130130000D03*
D13*
X133000000Y-89000000D03*
D14*
X133000000Y-90650000D03*
X133000000Y-87350000D03*
X134650000Y-89000000D03*
X131833274Y-90166726D03*
X131350000Y-89000000D03*
X134166726Y-87833274D03*
X131833274Y-87833274D03*
X134166726Y-90166726D03*
D15*
X171060000Y-114290000D03*
D16*
X171060000Y-112290000D03*
X171060000Y-110290000D03*
X171060000Y-108290000D03*
D15*
X174060000Y-114290000D03*
D16*
X174060000Y-112290000D03*
X174060000Y-110290000D03*
X174060000Y-108290000D03*
D15*
X132000000Y-97000000D03*
D16*
X132000000Y-99000000D03*
X132000000Y-101000000D03*
X132000000Y-103000000D03*
D15*
X156000000Y-89000000D03*
D16*
X154000000Y-89000000D03*
X152000000Y-89000000D03*
X150000000Y-89000000D03*
X148000000Y-89000000D03*
X146000000Y-89000000D03*
X144000000Y-89000000D03*
X142000000Y-89000000D03*
X140000000Y-89000000D03*
X138000000Y-89000000D03*
D15*
X132000000Y-107000000D03*
D16*
X132000000Y-109000000D03*
X132000000Y-111000000D03*
X132000000Y-113000000D03*
D17*
X140140000Y-130100000D03*
D18*
X137600000Y-130100000D03*
D14*
X134166726Y-127833274D03*
X134650000Y-129000000D03*
X131350000Y-129000000D03*
D13*
X133000000Y-129000000D03*
D14*
X133000000Y-127350000D03*
X131833274Y-130166726D03*
X133000000Y-130650000D03*
X131833274Y-127833274D03*
X134166726Y-130166726D03*
D15*
X135000000Y-101000000D03*
D16*
X135000000Y-103000000D03*
D14*
X171833274Y-130166726D03*
X173000000Y-127350000D03*
X174650000Y-129000000D03*
X171350000Y-129000000D03*
X173000000Y-130650000D03*
X174166726Y-130166726D03*
D13*
X173000000Y-129000000D03*
D14*
X171833274Y-127833274D03*
X174166726Y-127833274D03*
X171833274Y-87833274D03*
X174650000Y-89000000D03*
X171833274Y-90166726D03*
X174166726Y-90166726D03*
X173000000Y-87350000D03*
D13*
X173000000Y-89000000D03*
D14*
X173000000Y-90650000D03*
X171350000Y-89000000D03*
X174166726Y-87833274D03*
D15*
X135000000Y-111000000D03*
D16*
X135000000Y-113000000D03*
D17*
X173760000Y-99495000D03*
D18*
X173760000Y-102035000D03*
X173760000Y-104575000D03*
D17*
X140135000Y-126480000D03*
D18*
X137595000Y-126480000D03*
D15*
X132000000Y-93560000D03*
D16*
X134000000Y-93560000D03*
X136000000Y-93560000D03*
X138000000Y-93560000D03*
M02*
