%FSLAX45Y45*%
G04 Gerber Fmt 4.5, Leading zero omitted, Abs format (unit mm)*
G04 Created by KiCad (PCBNEW (6.0.6)) date 2022-07-17 19:59:00*
%MOMM*%
%LPD*%
G01*
G04 APERTURE LIST*
%TA.AperFunction,Profile*%
%ADD10C,0.050000*%
%TD*%
%ADD11C,0.200000*%
%ADD12C,0.090000*%
G04 APERTURE END LIST*
D10*
X17300000Y-8600000D02*
X13300000Y-8600000D01*
X13300000Y-8600000D02*
G75*
G03*
X13000000Y-8900000I0J-300000D01*
G01*
X17600000Y-8900000D02*
G75*
G03*
X17300000Y-8600000I-300000J0D01*
G01*
X17600000Y-8900000D02*
X17600000Y-12900000D01*
X13000000Y-8900000D02*
X13000000Y-12900000D01*
X17300000Y-13200000D02*
G75*
G03*
X17600000Y-12900000I0J300000D01*
G01*
X13000000Y-12900000D02*
G75*
G03*
X13300000Y-13200000I300000J0D01*
G01*
X13300000Y-13200000D02*
X17300000Y-13200000D01*
D11*
D12*
X15231000Y-12968000D02*
X15321000Y-13058000D01*
X15321000Y-12968000D02*
X15231000Y-13058000D01*
X15531000Y-12968000D02*
X15621000Y-13058000D01*
X15621000Y-12968000D02*
X15531000Y-13058000D01*
D11*
X13255119Y-13512976D02*
X13255119Y-13312976D01*
X13302738Y-13312976D01*
X13331309Y-13322500D01*
X13350357Y-13341548D01*
X13359881Y-13360595D01*
X13369405Y-13398690D01*
X13369405Y-13427262D01*
X13359881Y-13465357D01*
X13350357Y-13484405D01*
X13331309Y-13503452D01*
X13302738Y-13512976D01*
X13255119Y-13512976D01*
X13455119Y-13512976D02*
X13455119Y-13379643D01*
X13455119Y-13417738D02*
X13464643Y-13398690D01*
X13474167Y-13389167D01*
X13493214Y-13379643D01*
X13512262Y-13379643D01*
X13578928Y-13512976D02*
X13578928Y-13379643D01*
X13578928Y-13312976D02*
X13569405Y-13322500D01*
X13578928Y-13332024D01*
X13588452Y-13322500D01*
X13578928Y-13312976D01*
X13578928Y-13332024D01*
X13702738Y-13512976D02*
X13683690Y-13503452D01*
X13674167Y-13484405D01*
X13674167Y-13312976D01*
X13807500Y-13512976D02*
X13788452Y-13503452D01*
X13778928Y-13484405D01*
X13778928Y-13312976D01*
X14036071Y-13512976D02*
X14036071Y-13312976D01*
X14102738Y-13455833D01*
X14169405Y-13312976D01*
X14169405Y-13512976D01*
X14350357Y-13512976D02*
X14350357Y-13408214D01*
X14340833Y-13389167D01*
X14321786Y-13379643D01*
X14283690Y-13379643D01*
X14264643Y-13389167D01*
X14350357Y-13503452D02*
X14331309Y-13512976D01*
X14283690Y-13512976D01*
X14264643Y-13503452D01*
X14255119Y-13484405D01*
X14255119Y-13465357D01*
X14264643Y-13446309D01*
X14283690Y-13436786D01*
X14331309Y-13436786D01*
X14350357Y-13427262D01*
X14445595Y-13379643D02*
X14445595Y-13579643D01*
X14445595Y-13389167D02*
X14464643Y-13379643D01*
X14502738Y-13379643D01*
X14521786Y-13389167D01*
X14531309Y-13398690D01*
X14540833Y-13417738D01*
X14540833Y-13474881D01*
X14531309Y-13493928D01*
X14521786Y-13503452D01*
X14502738Y-13512976D01*
X14464643Y-13512976D01*
X14445595Y-13503452D01*
X14626548Y-13493928D02*
X14636071Y-13503452D01*
X14626548Y-13512976D01*
X14617024Y-13503452D01*
X14626548Y-13493928D01*
X14626548Y-13512976D01*
X14626548Y-13389167D02*
X14636071Y-13398690D01*
X14626548Y-13408214D01*
X14617024Y-13398690D01*
X14626548Y-13389167D01*
X14626548Y-13408214D01*
D12*
X12907500Y-13797500D02*
X12997500Y-13887500D01*
X12997500Y-13797500D02*
X12907500Y-13887500D01*
D11*
X13293214Y-13732976D02*
X13312262Y-13732976D01*
X13331309Y-13742500D01*
X13340833Y-13752024D01*
X13350357Y-13771071D01*
X13359881Y-13809167D01*
X13359881Y-13856786D01*
X13350357Y-13894881D01*
X13340833Y-13913928D01*
X13331309Y-13923452D01*
X13312262Y-13932976D01*
X13293214Y-13932976D01*
X13274167Y-13923452D01*
X13264643Y-13913928D01*
X13255119Y-13894881D01*
X13245595Y-13856786D01*
X13245595Y-13809167D01*
X13255119Y-13771071D01*
X13264643Y-13752024D01*
X13274167Y-13742500D01*
X13293214Y-13732976D01*
X13445595Y-13913928D02*
X13455119Y-13923452D01*
X13445595Y-13932976D01*
X13436071Y-13923452D01*
X13445595Y-13913928D01*
X13445595Y-13932976D01*
X13550357Y-13932976D02*
X13588452Y-13932976D01*
X13607500Y-13923452D01*
X13617024Y-13913928D01*
X13636071Y-13885357D01*
X13645595Y-13847262D01*
X13645595Y-13771071D01*
X13636071Y-13752024D01*
X13626548Y-13742500D01*
X13607500Y-13732976D01*
X13569405Y-13732976D01*
X13550357Y-13742500D01*
X13540833Y-13752024D01*
X13531309Y-13771071D01*
X13531309Y-13818690D01*
X13540833Y-13837738D01*
X13550357Y-13847262D01*
X13569405Y-13856786D01*
X13607500Y-13856786D01*
X13626548Y-13847262D01*
X13636071Y-13837738D01*
X13645595Y-13818690D01*
X13769405Y-13732976D02*
X13788452Y-13732976D01*
X13807500Y-13742500D01*
X13817024Y-13752024D01*
X13826548Y-13771071D01*
X13836071Y-13809167D01*
X13836071Y-13856786D01*
X13826548Y-13894881D01*
X13817024Y-13913928D01*
X13807500Y-13923452D01*
X13788452Y-13932976D01*
X13769405Y-13932976D01*
X13750357Y-13923452D01*
X13740833Y-13913928D01*
X13731309Y-13894881D01*
X13721786Y-13856786D01*
X13721786Y-13809167D01*
X13731309Y-13771071D01*
X13740833Y-13752024D01*
X13750357Y-13742500D01*
X13769405Y-13732976D01*
X13959881Y-13732976D02*
X13978928Y-13732976D01*
X13997976Y-13742500D01*
X14007500Y-13752024D01*
X14017024Y-13771071D01*
X14026548Y-13809167D01*
X14026548Y-13856786D01*
X14017024Y-13894881D01*
X14007500Y-13913928D01*
X13997976Y-13923452D01*
X13978928Y-13932976D01*
X13959881Y-13932976D01*
X13940833Y-13923452D01*
X13931309Y-13913928D01*
X13921786Y-13894881D01*
X13912262Y-13856786D01*
X13912262Y-13809167D01*
X13921786Y-13771071D01*
X13931309Y-13752024D01*
X13940833Y-13742500D01*
X13959881Y-13732976D01*
X14112262Y-13932976D02*
X14112262Y-13799643D01*
X14112262Y-13818690D02*
X14121786Y-13809167D01*
X14140833Y-13799643D01*
X14169405Y-13799643D01*
X14188452Y-13809167D01*
X14197976Y-13828214D01*
X14197976Y-13932976D01*
X14197976Y-13828214D02*
X14207500Y-13809167D01*
X14226548Y-13799643D01*
X14255119Y-13799643D01*
X14274167Y-13809167D01*
X14283690Y-13828214D01*
X14283690Y-13932976D01*
X14378928Y-13932976D02*
X14378928Y-13799643D01*
X14378928Y-13818690D02*
X14388452Y-13809167D01*
X14407500Y-13799643D01*
X14436071Y-13799643D01*
X14455119Y-13809167D01*
X14464643Y-13828214D01*
X14464643Y-13932976D01*
X14464643Y-13828214D02*
X14474167Y-13809167D01*
X14493214Y-13799643D01*
X14521786Y-13799643D01*
X14540833Y-13809167D01*
X14550357Y-13828214D01*
X14550357Y-13932976D01*
X14940833Y-13723452D02*
X14769405Y-13980595D01*
X15197976Y-13732976D02*
X15217024Y-13732976D01*
X15236071Y-13742500D01*
X15245595Y-13752024D01*
X15255119Y-13771071D01*
X15264643Y-13809167D01*
X15264643Y-13856786D01*
X15255119Y-13894881D01*
X15245595Y-13913928D01*
X15236071Y-13923452D01*
X15217024Y-13932976D01*
X15197976Y-13932976D01*
X15178928Y-13923452D01*
X15169405Y-13913928D01*
X15159881Y-13894881D01*
X15150357Y-13856786D01*
X15150357Y-13809167D01*
X15159881Y-13771071D01*
X15169405Y-13752024D01*
X15178928Y-13742500D01*
X15197976Y-13732976D01*
X15350357Y-13913928D02*
X15359881Y-13923452D01*
X15350357Y-13932976D01*
X15340833Y-13923452D01*
X15350357Y-13913928D01*
X15350357Y-13932976D01*
X15483690Y-13732976D02*
X15502738Y-13732976D01*
X15521786Y-13742500D01*
X15531309Y-13752024D01*
X15540833Y-13771071D01*
X15550357Y-13809167D01*
X15550357Y-13856786D01*
X15540833Y-13894881D01*
X15531309Y-13913928D01*
X15521786Y-13923452D01*
X15502738Y-13932976D01*
X15483690Y-13932976D01*
X15464643Y-13923452D01*
X15455119Y-13913928D01*
X15445595Y-13894881D01*
X15436071Y-13856786D01*
X15436071Y-13809167D01*
X15445595Y-13771071D01*
X15455119Y-13752024D01*
X15464643Y-13742500D01*
X15483690Y-13732976D01*
X15617024Y-13732976D02*
X15740833Y-13732976D01*
X15674167Y-13809167D01*
X15702738Y-13809167D01*
X15721786Y-13818690D01*
X15731309Y-13828214D01*
X15740833Y-13847262D01*
X15740833Y-13894881D01*
X15731309Y-13913928D01*
X15721786Y-13923452D01*
X15702738Y-13932976D01*
X15645595Y-13932976D01*
X15626548Y-13923452D01*
X15617024Y-13913928D01*
X15921786Y-13732976D02*
X15826548Y-13732976D01*
X15817024Y-13828214D01*
X15826548Y-13818690D01*
X15845595Y-13809167D01*
X15893214Y-13809167D01*
X15912262Y-13818690D01*
X15921786Y-13828214D01*
X15931309Y-13847262D01*
X15931309Y-13894881D01*
X15921786Y-13913928D01*
X15912262Y-13923452D01*
X15893214Y-13932976D01*
X15845595Y-13932976D01*
X15826548Y-13923452D01*
X15817024Y-13913928D01*
X16102738Y-13799643D02*
X16102738Y-13932976D01*
X16055119Y-13723452D02*
X16007500Y-13866309D01*
X16131309Y-13866309D01*
X16197976Y-13732976D02*
X16197976Y-13771071D01*
X16274167Y-13732976D02*
X16274167Y-13771071D01*
X16569405Y-14009167D02*
X16559881Y-13999643D01*
X16540833Y-13971071D01*
X16531309Y-13952024D01*
X16521786Y-13923452D01*
X16512262Y-13875833D01*
X16512262Y-13837738D01*
X16521786Y-13790119D01*
X16531309Y-13761548D01*
X16540833Y-13742500D01*
X16559881Y-13713928D01*
X16569405Y-13704405D01*
X16636071Y-13752024D02*
X16645595Y-13742500D01*
X16664643Y-13732976D01*
X16712262Y-13732976D01*
X16731309Y-13742500D01*
X16740833Y-13752024D01*
X16750357Y-13771071D01*
X16750357Y-13790119D01*
X16740833Y-13818690D01*
X16626548Y-13932976D01*
X16750357Y-13932976D01*
X16988452Y-13932976D02*
X16988452Y-13732976D01*
X17074167Y-13932976D02*
X17074167Y-13828214D01*
X17064643Y-13809167D01*
X17045595Y-13799643D01*
X17017024Y-13799643D01*
X16997976Y-13809167D01*
X16988452Y-13818690D01*
X17197976Y-13932976D02*
X17178929Y-13923452D01*
X17169405Y-13913928D01*
X17159881Y-13894881D01*
X17159881Y-13837738D01*
X17169405Y-13818690D01*
X17178929Y-13809167D01*
X17197976Y-13799643D01*
X17226548Y-13799643D01*
X17245595Y-13809167D01*
X17255119Y-13818690D01*
X17264643Y-13837738D01*
X17264643Y-13894881D01*
X17255119Y-13913928D01*
X17245595Y-13923452D01*
X17226548Y-13932976D01*
X17197976Y-13932976D01*
X17378929Y-13932976D02*
X17359881Y-13923452D01*
X17350357Y-13904405D01*
X17350357Y-13732976D01*
X17531310Y-13923452D02*
X17512262Y-13932976D01*
X17474167Y-13932976D01*
X17455119Y-13923452D01*
X17445595Y-13904405D01*
X17445595Y-13828214D01*
X17455119Y-13809167D01*
X17474167Y-13799643D01*
X17512262Y-13799643D01*
X17531310Y-13809167D01*
X17540833Y-13828214D01*
X17540833Y-13847262D01*
X17445595Y-13866309D01*
X17617024Y-13923452D02*
X17636071Y-13932976D01*
X17674167Y-13932976D01*
X17693214Y-13923452D01*
X17702738Y-13904405D01*
X17702738Y-13894881D01*
X17693214Y-13875833D01*
X17674167Y-13866309D01*
X17645595Y-13866309D01*
X17626548Y-13856786D01*
X17617024Y-13837738D01*
X17617024Y-13828214D01*
X17626548Y-13809167D01*
X17645595Y-13799643D01*
X17674167Y-13799643D01*
X17693214Y-13809167D01*
X17769405Y-14009167D02*
X17778929Y-13999643D01*
X17797976Y-13971071D01*
X17807500Y-13952024D01*
X17817024Y-13923452D01*
X17826548Y-13875833D01*
X17826548Y-13837738D01*
X17817024Y-13790119D01*
X17807500Y-13761548D01*
X17797976Y-13742500D01*
X17778929Y-13713928D01*
X17769405Y-13704405D01*
X18131310Y-14009167D02*
X18121786Y-13999643D01*
X18102738Y-13971071D01*
X18093214Y-13952024D01*
X18083690Y-13923452D01*
X18074167Y-13875833D01*
X18074167Y-13837738D01*
X18083690Y-13790119D01*
X18093214Y-13761548D01*
X18102738Y-13742500D01*
X18121786Y-13713928D01*
X18131310Y-13704405D01*
X18207500Y-13799643D02*
X18207500Y-13932976D01*
X18207500Y-13818690D02*
X18217024Y-13809167D01*
X18236071Y-13799643D01*
X18264643Y-13799643D01*
X18283690Y-13809167D01*
X18293214Y-13828214D01*
X18293214Y-13932976D01*
X18417024Y-13932976D02*
X18397976Y-13923452D01*
X18388452Y-13913928D01*
X18378929Y-13894881D01*
X18378929Y-13837738D01*
X18388452Y-13818690D01*
X18397976Y-13809167D01*
X18417024Y-13799643D01*
X18445595Y-13799643D01*
X18464643Y-13809167D01*
X18474167Y-13818690D01*
X18483690Y-13837738D01*
X18483690Y-13894881D01*
X18474167Y-13913928D01*
X18464643Y-13923452D01*
X18445595Y-13932976D01*
X18417024Y-13932976D01*
X18540833Y-13799643D02*
X18617024Y-13799643D01*
X18569405Y-13732976D02*
X18569405Y-13904405D01*
X18578929Y-13923452D01*
X18597976Y-13932976D01*
X18617024Y-13932976D01*
X18836071Y-13799643D02*
X18836071Y-13999643D01*
X18836071Y-13809167D02*
X18855119Y-13799643D01*
X18893214Y-13799643D01*
X18912262Y-13809167D01*
X18921786Y-13818690D01*
X18931310Y-13837738D01*
X18931310Y-13894881D01*
X18921786Y-13913928D01*
X18912262Y-13923452D01*
X18893214Y-13932976D01*
X18855119Y-13932976D01*
X18836071Y-13923452D01*
X19045595Y-13932976D02*
X19026548Y-13923452D01*
X19017024Y-13904405D01*
X19017024Y-13732976D01*
X19207500Y-13932976D02*
X19207500Y-13828214D01*
X19197976Y-13809167D01*
X19178929Y-13799643D01*
X19140833Y-13799643D01*
X19121786Y-13809167D01*
X19207500Y-13923452D02*
X19188452Y-13932976D01*
X19140833Y-13932976D01*
X19121786Y-13923452D01*
X19112262Y-13904405D01*
X19112262Y-13885357D01*
X19121786Y-13866309D01*
X19140833Y-13856786D01*
X19188452Y-13856786D01*
X19207500Y-13847262D01*
X19274167Y-13799643D02*
X19350357Y-13799643D01*
X19302738Y-13732976D02*
X19302738Y-13904405D01*
X19312262Y-13923452D01*
X19331310Y-13932976D01*
X19350357Y-13932976D01*
X19493214Y-13923452D02*
X19474167Y-13932976D01*
X19436071Y-13932976D01*
X19417024Y-13923452D01*
X19407500Y-13904405D01*
X19407500Y-13828214D01*
X19417024Y-13809167D01*
X19436071Y-13799643D01*
X19474167Y-13799643D01*
X19493214Y-13809167D01*
X19502738Y-13828214D01*
X19502738Y-13847262D01*
X19407500Y-13866309D01*
X19674167Y-13932976D02*
X19674167Y-13732976D01*
X19674167Y-13923452D02*
X19655119Y-13932976D01*
X19617024Y-13932976D01*
X19597976Y-13923452D01*
X19588452Y-13913928D01*
X19578929Y-13894881D01*
X19578929Y-13837738D01*
X19588452Y-13818690D01*
X19597976Y-13809167D01*
X19617024Y-13799643D01*
X19655119Y-13799643D01*
X19674167Y-13809167D01*
X19750357Y-14009167D02*
X19759881Y-13999643D01*
X19778929Y-13971071D01*
X19788452Y-13952024D01*
X19797976Y-13923452D01*
X19807500Y-13875833D01*
X19807500Y-13837738D01*
X19797976Y-13790119D01*
X19788452Y-13761548D01*
X19778929Y-13742500D01*
X19759881Y-13713928D01*
X19750357Y-13704405D01*
M02*
