%TF.GenerationSoftware,KiCad,Pcbnew,(6.0.6)*%
%TF.CreationDate,2022-07-17T19:58:46+03:00*%
%TF.ProjectId,Kontroller ESP,4b6f6e74-726f-46c6-9c65-72204553502e,rev?*%
%TF.SameCoordinates,Original*%
%TF.FileFunction,Soldermask,Top*%
%TF.FilePolarity,Negative*%
%FSLAX46Y46*%
G04 Gerber Fmt 4.6, Leading zero omitted, Abs format (unit mm)*
G04 Created by KiCad (PCBNEW (6.0.6)) date 2022-07-17 19:58:46*
%MOMM*%
%LPD*%
G01*
G04 APERTURE LIST*
G04 Aperture macros list*
%AMRoundRect*
0 Rectangle with rounded corners*
0 $1 Rounding radius*
0 $2 $3 $4 $5 $6 $7 $8 $9 X,Y pos of 4 corners*
0 Add a 4 corners polygon primitive as box body*
4,1,4,$2,$3,$4,$5,$6,$7,$8,$9,$2,$3,0*
0 Add four circle primitives for the rounded corners*
1,1,$1+$1,$2,$3*
1,1,$1+$1,$4,$5*
1,1,$1+$1,$6,$7*
1,1,$1+$1,$8,$9*
0 Add four rect primitives between the rounded corners*
20,1,$1+$1,$2,$3,$4,$5,0*
20,1,$1+$1,$4,$5,$6,$7,0*
20,1,$1+$1,$6,$7,$8,$9,0*
20,1,$1+$1,$8,$9,$2,$3,0*%
G04 Aperture macros list end*
%ADD10R,0.400000X1.350000*%
%ADD11O,0.890000X1.550000*%
%ADD12R,1.500000X1.550000*%
%ADD13O,1.250000X0.950000*%
%ADD14R,0.800000X1.550000*%
%ADD15R,5.300000X5.300000*%
%ADD16RoundRect,0.062500X-0.337500X0.062500X-0.337500X-0.062500X0.337500X-0.062500X0.337500X0.062500X0*%
%ADD17RoundRect,0.062500X-0.062500X0.337500X-0.062500X-0.337500X0.062500X-0.337500X0.062500X0.337500X0*%
%ADD18RoundRect,0.135000X-0.135000X-0.185000X0.135000X-0.185000X0.135000X0.185000X-0.135000X0.185000X0*%
%ADD19R,2.300000X1.500000*%
%ADD20R,2.300000X1.000000*%
%ADD21RoundRect,0.250000X0.650000X-0.325000X0.650000X0.325000X-0.650000X0.325000X-0.650000X-0.325000X0*%
%ADD22RoundRect,0.150000X0.675000X0.150000X-0.675000X0.150000X-0.675000X-0.150000X0.675000X-0.150000X0*%
%ADD23RoundRect,0.135000X0.185000X-0.135000X0.185000X0.135000X-0.185000X0.135000X-0.185000X-0.135000X0*%
%ADD24R,0.700000X0.700000*%
%ADD25R,0.900000X1.600000*%
%ADD26R,0.500000X0.250000*%
%ADD27R,0.700000X1.500000*%
%ADD28R,1.000000X0.800000*%
%ADD29C,0.900000*%
%ADD30C,4.400000*%
%ADD31C,0.700000*%
%ADD32R,0.900000X0.254000*%
%ADD33R,0.254000X0.900000*%
%ADD34R,3.100000X3.100000*%
%ADD35RoundRect,0.218750X0.218750X0.256250X-0.218750X0.256250X-0.218750X-0.256250X0.218750X-0.256250X0*%
%ADD36RoundRect,0.140000X0.170000X-0.140000X0.170000X0.140000X-0.170000X0.140000X-0.170000X-0.140000X0*%
%ADD37RoundRect,0.200000X0.200000X0.275000X-0.200000X0.275000X-0.200000X-0.275000X0.200000X-0.275000X0*%
%ADD38R,1.350000X1.350000*%
%ADD39O,1.350000X1.350000*%
%ADD40RoundRect,0.135000X0.135000X0.185000X-0.135000X0.185000X-0.135000X-0.185000X0.135000X-0.185000X0*%
%ADD41RoundRect,0.140000X0.140000X0.170000X-0.140000X0.170000X-0.140000X-0.170000X0.140000X-0.170000X0*%
%ADD42RoundRect,0.250000X-0.325000X-0.650000X0.325000X-0.650000X0.325000X0.650000X-0.325000X0.650000X0*%
%ADD43R,1.700000X1.700000*%
%ADD44O,1.700000X1.700000*%
%ADD45RoundRect,0.140000X-0.140000X-0.170000X0.140000X-0.170000X0.140000X0.170000X-0.140000X0.170000X0*%
%ADD46RoundRect,0.147500X0.172500X-0.147500X0.172500X0.147500X-0.172500X0.147500X-0.172500X-0.147500X0*%
%ADD47RoundRect,0.135000X-0.185000X0.135000X-0.185000X-0.135000X0.185000X-0.135000X0.185000X0.135000X0*%
%ADD48R,5.700000X1.600000*%
%ADD49RoundRect,0.150000X0.512500X0.150000X-0.512500X0.150000X-0.512500X-0.150000X0.512500X-0.150000X0*%
%ADD50RoundRect,0.250000X-0.650000X0.325000X-0.650000X-0.325000X0.650000X-0.325000X0.650000X0.325000X0*%
%ADD51RoundRect,0.225000X0.250000X-0.225000X0.250000X0.225000X-0.250000X0.225000X-0.250000X-0.225000X0*%
%ADD52RoundRect,0.200000X-0.200000X-0.275000X0.200000X-0.275000X0.200000X0.275000X-0.200000X0.275000X0*%
%ADD53R,0.350000X0.580000*%
%ADD54R,0.580000X0.350000*%
%ADD55RoundRect,0.200000X0.275000X-0.200000X0.275000X0.200000X-0.275000X0.200000X-0.275000X-0.200000X0*%
%ADD56RoundRect,0.150000X0.587500X0.150000X-0.587500X0.150000X-0.587500X-0.150000X0.587500X-0.150000X0*%
%ADD57RoundRect,0.225000X-0.250000X0.225000X-0.250000X-0.225000X0.250000X-0.225000X0.250000X0.225000X0*%
%ADD58R,1.600000X2.180000*%
%ADD59RoundRect,0.150000X-0.512500X-0.150000X0.512500X-0.150000X0.512500X0.150000X-0.512500X0.150000X0*%
%ADD60R,0.600000X0.450000*%
%ADD61C,1.000000*%
G04 APERTURE END LIST*
D10*
X162650000Y-127800000D03*
X163300000Y-127800000D03*
X163950000Y-127800000D03*
X164600000Y-127800000D03*
X165250000Y-127800000D03*
D11*
X160450000Y-130500000D03*
D12*
X164950000Y-130500000D03*
D13*
X166450000Y-127800000D03*
D14*
X161250000Y-130500000D03*
X166650000Y-130500000D03*
D13*
X161450000Y-127800000D03*
D11*
X167450000Y-130500000D03*
D12*
X162950000Y-130500000D03*
D15*
X160370000Y-103470000D03*
D16*
X163820000Y-100720000D03*
X163820000Y-101220000D03*
X163820000Y-101720000D03*
X163820000Y-102220000D03*
X163820000Y-102720000D03*
X163820000Y-103220000D03*
X163820000Y-103720000D03*
X163820000Y-104220000D03*
X163820000Y-104720000D03*
X163820000Y-105220000D03*
X163820000Y-105720000D03*
X163820000Y-106220000D03*
D17*
X163120000Y-106920000D03*
X162620000Y-106920000D03*
X162120000Y-106920000D03*
X161620000Y-106920000D03*
X161120000Y-106920000D03*
X160620000Y-106920000D03*
X160120000Y-106920000D03*
X159620000Y-106920000D03*
X159120000Y-106920000D03*
X158620000Y-106920000D03*
X158120000Y-106920000D03*
X157620000Y-106920000D03*
D16*
X156920000Y-106220000D03*
X156920000Y-105720000D03*
X156920000Y-105220000D03*
X156920000Y-104720000D03*
X156920000Y-104220000D03*
X156920000Y-103720000D03*
X156920000Y-103220000D03*
X156920000Y-102720000D03*
X156920000Y-102220000D03*
X156920000Y-101720000D03*
X156920000Y-101220000D03*
X156920000Y-100720000D03*
D17*
X157620000Y-100020000D03*
X158120000Y-100020000D03*
X158620000Y-100020000D03*
X159120000Y-100020000D03*
X159620000Y-100020000D03*
X160120000Y-100020000D03*
X160620000Y-100020000D03*
X161120000Y-100020000D03*
X161620000Y-100020000D03*
X162120000Y-100020000D03*
X162620000Y-100020000D03*
X163120000Y-100020000D03*
D18*
X162620000Y-96140000D03*
X163640000Y-96140000D03*
D19*
X162610000Y-87080000D03*
D20*
X162610000Y-92330000D03*
D21*
X145640000Y-119825000D03*
X145640000Y-116875000D03*
D22*
X148595000Y-131105000D03*
X148595000Y-129835000D03*
X148595000Y-128565000D03*
X148595000Y-127295000D03*
X143345000Y-127295000D03*
X143345000Y-128565000D03*
X143345000Y-129835000D03*
X143345000Y-131105000D03*
D23*
X162840000Y-116600000D03*
X162840000Y-115580000D03*
D24*
X164985000Y-110670000D03*
X166815000Y-110670000D03*
X166815000Y-109570000D03*
X164985000Y-109570000D03*
D25*
X140100000Y-111920000D03*
D26*
X141050000Y-111170000D03*
X141050000Y-111670000D03*
X141050000Y-112170000D03*
X141050000Y-112670000D03*
X139150000Y-112670000D03*
X139150000Y-112170000D03*
X139150000Y-111670000D03*
X139150000Y-111170000D03*
D27*
X156510000Y-128370000D03*
X155010000Y-128370000D03*
X152010000Y-128370000D03*
D28*
X150610000Y-129020000D03*
X150610000Y-131230000D03*
D29*
X155760000Y-130130000D03*
X152760000Y-130130000D03*
D28*
X157910000Y-129020000D03*
X157910000Y-131230000D03*
D30*
X133000000Y-89000000D03*
D31*
X133000000Y-90650000D03*
X133000000Y-87350000D03*
X134650000Y-89000000D03*
X131833274Y-90166726D03*
X131350000Y-89000000D03*
X134166726Y-87833274D03*
X131833274Y-87833274D03*
X134166726Y-90166726D03*
D32*
X169720000Y-119060000D03*
X169720000Y-119560000D03*
X169720000Y-120060000D03*
X169720000Y-120560000D03*
X169720000Y-121060000D03*
X169720000Y-121560000D03*
X169720000Y-122060000D03*
D33*
X170810000Y-123150000D03*
X171310000Y-123150000D03*
X171810000Y-123150000D03*
X172310000Y-123150000D03*
X172810000Y-123150000D03*
X173310000Y-123150000D03*
X173810000Y-123150000D03*
D32*
X174900000Y-122060000D03*
X174900000Y-121560000D03*
X174900000Y-121060000D03*
X174900000Y-120560000D03*
X174900000Y-120060000D03*
X174900000Y-119560000D03*
X174900000Y-119060000D03*
D33*
X173810000Y-117970000D03*
X173310000Y-117970000D03*
X172810000Y-117970000D03*
X172310000Y-117970000D03*
X171810000Y-117970000D03*
X171310000Y-117970000D03*
X170810000Y-117970000D03*
D34*
X172310000Y-120560000D03*
D35*
X150287500Y-113650000D03*
X148712500Y-113650000D03*
D36*
X143100000Y-110900000D03*
X143100000Y-109940000D03*
D37*
X137645000Y-91230000D03*
X135995000Y-91230000D03*
D36*
X164950000Y-98730000D03*
X164950000Y-97770000D03*
D38*
X171060000Y-114290000D03*
D39*
X171060000Y-112290000D03*
X171060000Y-110290000D03*
X171060000Y-108290000D03*
D40*
X144880000Y-97050000D03*
X143860000Y-97050000D03*
D38*
X174060000Y-114290000D03*
D39*
X174060000Y-112290000D03*
X174060000Y-110290000D03*
X174060000Y-108290000D03*
D25*
X140110000Y-101910000D03*
D26*
X141060000Y-101160000D03*
X141060000Y-101660000D03*
X141060000Y-102160000D03*
X141060000Y-102660000D03*
X139160000Y-102660000D03*
X139160000Y-102160000D03*
X139160000Y-101660000D03*
X139160000Y-101160000D03*
D37*
X169535000Y-125800000D03*
X167885000Y-125800000D03*
D38*
X132000000Y-97000000D03*
D39*
X132000000Y-99000000D03*
X132000000Y-101000000D03*
X132000000Y-103000000D03*
D38*
X156000000Y-89000000D03*
D39*
X154000000Y-89000000D03*
X152000000Y-89000000D03*
X150000000Y-89000000D03*
X148000000Y-89000000D03*
X146000000Y-89000000D03*
X144000000Y-89000000D03*
X142000000Y-89000000D03*
X140000000Y-89000000D03*
X138000000Y-89000000D03*
D36*
X168910000Y-124350000D03*
X168910000Y-123390000D03*
D41*
X154070000Y-114510000D03*
X153110000Y-114510000D03*
D42*
X138625000Y-107920000D03*
X141575000Y-107920000D03*
D38*
X132000000Y-107000000D03*
D39*
X132000000Y-109000000D03*
X132000000Y-111000000D03*
X132000000Y-113000000D03*
D43*
X140140000Y-130100000D03*
D44*
X137600000Y-130100000D03*
D45*
X146240000Y-102090000D03*
X147200000Y-102090000D03*
D46*
X162610000Y-95705000D03*
X162610000Y-94735000D03*
D31*
X134166726Y-127833274D03*
X134650000Y-129000000D03*
X131350000Y-129000000D03*
D30*
X133000000Y-129000000D03*
D31*
X133000000Y-127350000D03*
X131833274Y-130166726D03*
X133000000Y-130650000D03*
X131833274Y-127833274D03*
X134166726Y-130166726D03*
D47*
X167990000Y-115900000D03*
X167990000Y-116920000D03*
D48*
X137850000Y-123350000D03*
X137850000Y-118650000D03*
D18*
X148550000Y-98300000D03*
X149570000Y-98300000D03*
D49*
X165447500Y-123270000D03*
X165447500Y-122320000D03*
X165447500Y-121370000D03*
X163172500Y-121370000D03*
X163172500Y-122320000D03*
X163172500Y-123270000D03*
D21*
X143330000Y-119825000D03*
X143330000Y-116875000D03*
D37*
X147235000Y-113650000D03*
X145585000Y-113650000D03*
D38*
X135000000Y-101000000D03*
D39*
X135000000Y-103000000D03*
D47*
X150510000Y-126790000D03*
X150510000Y-127810000D03*
D18*
X151600000Y-101760000D03*
X152620000Y-101760000D03*
D31*
X171833274Y-130166726D03*
X173000000Y-127350000D03*
X174650000Y-129000000D03*
X171350000Y-129000000D03*
X173000000Y-130650000D03*
X174166726Y-130166726D03*
D30*
X173000000Y-129000000D03*
D31*
X171833274Y-127833274D03*
X174166726Y-127833274D03*
D50*
X143330000Y-121875000D03*
X143330000Y-124825000D03*
D51*
X169810000Y-97695000D03*
X169810000Y-96145000D03*
D36*
X149750000Y-120860000D03*
X149750000Y-119900000D03*
D52*
X172175000Y-125380000D03*
X173825000Y-125380000D03*
X143245000Y-98560000D03*
X144895000Y-98560000D03*
D53*
X150180000Y-99615000D03*
X149680000Y-99615000D03*
X149180000Y-99615000D03*
X148680000Y-99615000D03*
D54*
X148505000Y-100290000D03*
X148505000Y-100790000D03*
X148505000Y-101290000D03*
D53*
X148680000Y-101965000D03*
X149180000Y-101965000D03*
X149680000Y-101965000D03*
X150180000Y-101965000D03*
D54*
X150355000Y-101290000D03*
X150355000Y-100790000D03*
X150355000Y-100290000D03*
D37*
X153195000Y-124300000D03*
X151545000Y-124300000D03*
D55*
X169530000Y-128955000D03*
X169530000Y-127305000D03*
D21*
X147950000Y-119825000D03*
X147950000Y-116875000D03*
D36*
X146740000Y-101070000D03*
X146740000Y-100110000D03*
D31*
X171833274Y-87833274D03*
X174650000Y-89000000D03*
X171833274Y-90166726D03*
X174166726Y-90166726D03*
X173000000Y-87350000D03*
D30*
X173000000Y-89000000D03*
D31*
X173000000Y-90650000D03*
X171350000Y-89000000D03*
X174166726Y-87833274D03*
D38*
X135000000Y-111000000D03*
D39*
X135000000Y-113000000D03*
D21*
X166920000Y-99855000D03*
X166920000Y-96905000D03*
D56*
X166357500Y-118820000D03*
X166357500Y-116920000D03*
X164482500Y-117870000D03*
D57*
X153390000Y-121305000D03*
X153390000Y-122855000D03*
D58*
X157700000Y-123680000D03*
X157700000Y-114500000D03*
D36*
X143110000Y-100890000D03*
X143110000Y-99930000D03*
D47*
X169000000Y-98840000D03*
X169000000Y-99860000D03*
D40*
X163630000Y-94350000D03*
X162610000Y-94350000D03*
D59*
X146552500Y-122400000D03*
X146552500Y-123350000D03*
X146552500Y-124300000D03*
X148827500Y-124300000D03*
X148827500Y-123350000D03*
X148827500Y-122400000D03*
D43*
X173760000Y-99495000D03*
D44*
X173760000Y-102035000D03*
X173760000Y-104575000D03*
D42*
X138635000Y-97910000D03*
X141585000Y-97910000D03*
D43*
X140135000Y-126480000D03*
D44*
X137595000Y-126480000D03*
D56*
X166347500Y-115310000D03*
X166347500Y-113410000D03*
X164472500Y-114360000D03*
D55*
X140440000Y-93565000D03*
X140440000Y-91915000D03*
D60*
X153400000Y-126190000D03*
X155500000Y-126190000D03*
D45*
X139620000Y-109720000D03*
X140580000Y-109720000D03*
D38*
X132000000Y-93560000D03*
D39*
X134000000Y-93560000D03*
X136000000Y-93560000D03*
X138000000Y-93560000D03*
D45*
X139630000Y-99710000D03*
X140590000Y-99710000D03*
D55*
X151940000Y-122915000D03*
X151940000Y-121265000D03*
D61*
X146450000Y-98560000D03*
D23*
X150800000Y-120860000D03*
X150800000Y-119840000D03*
M02*
