%TF.GenerationSoftware,KiCad,Pcbnew,(6.0.6)*%
%TF.CreationDate,2022-07-17T19:58:46+03:00*%
%TF.ProjectId,Kontroller ESP,4b6f6e74-726f-46c6-9c65-72204553502e,rev?*%
%TF.SameCoordinates,Original*%
%TF.FileFunction,Legend,Bot*%
%TF.FilePolarity,Positive*%
%FSLAX46Y46*%
G04 Gerber Fmt 4.6, Leading zero omitted, Abs format (unit mm)*
G04 Created by KiCad (PCBNEW (6.0.6)) date 2022-07-17 19:58:46*
%MOMM*%
%LPD*%
G01*
G04 APERTURE LIST*
%ADD10C,0.150000*%
%ADD11O,0.890000X1.550000*%
%ADD12O,1.250000X0.950000*%
%ADD13C,0.900000*%
%ADD14C,4.400000*%
%ADD15C,0.700000*%
%ADD16R,1.350000X1.350000*%
%ADD17O,1.350000X1.350000*%
%ADD18R,1.700000X1.700000*%
%ADD19O,1.700000X1.700000*%
G04 APERTURE END LIST*
D10*
X130472380Y-125929047D02*
X131186666Y-125929047D01*
X131329523Y-125976666D01*
X131424761Y-126071904D01*
X131472380Y-126214761D01*
X131472380Y-126310000D01*
X131472380Y-124976666D02*
X131472380Y-125452857D01*
X130472380Y-125452857D01*
X131377142Y-124071904D02*
X131424761Y-124119523D01*
X131472380Y-124262380D01*
X131472380Y-124357619D01*
X131424761Y-124500476D01*
X131329523Y-124595714D01*
X131234285Y-124643333D01*
X131043809Y-124690952D01*
X130900952Y-124690952D01*
X130710476Y-124643333D01*
X130615238Y-124595714D01*
X130520000Y-124500476D01*
X130472380Y-124357619D01*
X130472380Y-124262380D01*
X130520000Y-124119523D01*
X130567619Y-124071904D01*
X130472380Y-123357619D02*
X131186666Y-123357619D01*
X131329523Y-123405238D01*
X131424761Y-123500476D01*
X131472380Y-123643333D01*
X131472380Y-123738571D01*
X131472380Y-122405238D02*
X131472380Y-122881428D01*
X130472380Y-122881428D01*
X131377142Y-121500476D02*
X131424761Y-121548095D01*
X131472380Y-121690952D01*
X131472380Y-121786190D01*
X131424761Y-121929047D01*
X131329523Y-122024285D01*
X131234285Y-122071904D01*
X131043809Y-122119523D01*
X130900952Y-122119523D01*
X130710476Y-122071904D01*
X130615238Y-122024285D01*
X130520000Y-121929047D01*
X130472380Y-121786190D01*
X130472380Y-121690952D01*
X130520000Y-121548095D01*
X130567619Y-121500476D01*
X130472380Y-120786190D02*
X131186666Y-120786190D01*
X131329523Y-120833809D01*
X131424761Y-120929047D01*
X131472380Y-121071904D01*
X131472380Y-121167142D01*
X131472380Y-119833809D02*
X131472380Y-120310000D01*
X130472380Y-120310000D01*
X131377142Y-118929047D02*
X131424761Y-118976666D01*
X131472380Y-119119523D01*
X131472380Y-119214761D01*
X131424761Y-119357619D01*
X131329523Y-119452857D01*
X131234285Y-119500476D01*
X131043809Y-119548095D01*
X130900952Y-119548095D01*
X130710476Y-119500476D01*
X130615238Y-119452857D01*
X130520000Y-119357619D01*
X130472380Y-119214761D01*
X130472380Y-119119523D01*
X130520000Y-118976666D01*
X130567619Y-118929047D01*
X130472380Y-118214761D02*
X131186666Y-118214761D01*
X131329523Y-118262380D01*
X131424761Y-118357619D01*
X131472380Y-118500476D01*
X131472380Y-118595714D01*
X131472380Y-117262380D02*
X131472380Y-117738571D01*
X130472380Y-117738571D01*
X131377142Y-116357619D02*
X131424761Y-116405238D01*
X131472380Y-116548095D01*
X131472380Y-116643333D01*
X131424761Y-116786190D01*
X131329523Y-116881428D01*
X131234285Y-116929047D01*
X131043809Y-116976666D01*
X130900952Y-116976666D01*
X130710476Y-116929047D01*
X130615238Y-116881428D01*
X130520000Y-116786190D01*
X130472380Y-116643333D01*
X130472380Y-116548095D01*
X130520000Y-116405238D01*
X130567619Y-116357619D01*
%LPC*%
D11*
X160450000Y-130500000D03*
D12*
X166450000Y-127800000D03*
X161450000Y-127800000D03*
D11*
X167450000Y-130500000D03*
D13*
X155760000Y-130130000D03*
X152760000Y-130130000D03*
D14*
X133000000Y-89000000D03*
D15*
X133000000Y-90650000D03*
X133000000Y-87350000D03*
X134650000Y-89000000D03*
X131833274Y-90166726D03*
X131350000Y-89000000D03*
X134166726Y-87833274D03*
X131833274Y-87833274D03*
X134166726Y-90166726D03*
D16*
X171060000Y-114290000D03*
D17*
X171060000Y-112290000D03*
X171060000Y-110290000D03*
X171060000Y-108290000D03*
D16*
X174060000Y-114290000D03*
D17*
X174060000Y-112290000D03*
X174060000Y-110290000D03*
X174060000Y-108290000D03*
D16*
X132000000Y-97000000D03*
D17*
X132000000Y-99000000D03*
X132000000Y-101000000D03*
X132000000Y-103000000D03*
D16*
X156000000Y-89000000D03*
D17*
X154000000Y-89000000D03*
X152000000Y-89000000D03*
X150000000Y-89000000D03*
X148000000Y-89000000D03*
X146000000Y-89000000D03*
X144000000Y-89000000D03*
X142000000Y-89000000D03*
X140000000Y-89000000D03*
X138000000Y-89000000D03*
D16*
X132000000Y-107000000D03*
D17*
X132000000Y-109000000D03*
X132000000Y-111000000D03*
X132000000Y-113000000D03*
D18*
X140140000Y-130100000D03*
D19*
X137600000Y-130100000D03*
D15*
X134166726Y-127833274D03*
X134650000Y-129000000D03*
X131350000Y-129000000D03*
D14*
X133000000Y-129000000D03*
D15*
X133000000Y-127350000D03*
X131833274Y-130166726D03*
X133000000Y-130650000D03*
X131833274Y-127833274D03*
X134166726Y-130166726D03*
D16*
X135000000Y-101000000D03*
D17*
X135000000Y-103000000D03*
D15*
X171833274Y-130166726D03*
X173000000Y-127350000D03*
X174650000Y-129000000D03*
X171350000Y-129000000D03*
X173000000Y-130650000D03*
X174166726Y-130166726D03*
D14*
X173000000Y-129000000D03*
D15*
X171833274Y-127833274D03*
X174166726Y-127833274D03*
X171833274Y-87833274D03*
X174650000Y-89000000D03*
X171833274Y-90166726D03*
X174166726Y-90166726D03*
X173000000Y-87350000D03*
D14*
X173000000Y-89000000D03*
D15*
X173000000Y-90650000D03*
X171350000Y-89000000D03*
X174166726Y-87833274D03*
D16*
X135000000Y-111000000D03*
D17*
X135000000Y-113000000D03*
D18*
X173760000Y-99495000D03*
D19*
X173760000Y-102035000D03*
X173760000Y-104575000D03*
D18*
X140135000Y-126480000D03*
D19*
X137595000Y-126480000D03*
D16*
X132000000Y-93560000D03*
D17*
X134000000Y-93560000D03*
X136000000Y-93560000D03*
X138000000Y-93560000D03*
M02*
