%TF.GenerationSoftware,KiCad,Pcbnew,(6.0.6)*%
%TF.CreationDate,2022-07-17T19:58:46+03:00*%
%TF.ProjectId,Kontroller ESP,4b6f6e74-726f-46c6-9c65-72204553502e,rev?*%
%TF.SameCoordinates,Original*%
%TF.FileFunction,Copper,L3,Inr*%
%TF.FilePolarity,Positive*%
%FSLAX46Y46*%
G04 Gerber Fmt 4.6, Leading zero omitted, Abs format (unit mm)*
G04 Created by KiCad (PCBNEW (6.0.6)) date 2022-07-17 19:58:46*
%MOMM*%
%LPD*%
G01*
G04 APERTURE LIST*
%TA.AperFunction,ComponentPad*%
%ADD10O,0.890000X1.550000*%
%TD*%
%TA.AperFunction,ComponentPad*%
%ADD11O,1.250000X0.950000*%
%TD*%
%TA.AperFunction,ComponentPad*%
%ADD12C,4.400000*%
%TD*%
%TA.AperFunction,ComponentPad*%
%ADD13C,0.700000*%
%TD*%
%TA.AperFunction,ComponentPad*%
%ADD14R,1.350000X1.350000*%
%TD*%
%TA.AperFunction,ComponentPad*%
%ADD15O,1.350000X1.350000*%
%TD*%
%TA.AperFunction,ComponentPad*%
%ADD16R,1.700000X1.700000*%
%TD*%
%TA.AperFunction,ComponentPad*%
%ADD17O,1.700000X1.700000*%
%TD*%
%TA.AperFunction,ViaPad*%
%ADD18C,0.800000*%
%TD*%
%TA.AperFunction,ViaPad*%
%ADD19C,0.500000*%
%TD*%
G04 APERTURE END LIST*
D10*
X160450000Y-130500000D03*
D11*
X166450000Y-127800000D03*
X161450000Y-127800000D03*
D10*
X167450000Y-130500000D03*
D12*
X133000000Y-89000000D03*
D13*
X133000000Y-90650000D03*
X133000000Y-87350000D03*
X134650000Y-89000000D03*
X131833274Y-90166726D03*
X131350000Y-89000000D03*
X134166726Y-87833274D03*
X131833274Y-87833274D03*
X134166726Y-90166726D03*
D14*
X171060000Y-114290000D03*
D15*
X171060000Y-112290000D03*
X171060000Y-110290000D03*
X171060000Y-108290000D03*
D14*
X174060000Y-114290000D03*
D15*
X174060000Y-112290000D03*
X174060000Y-110290000D03*
X174060000Y-108290000D03*
D14*
X132000000Y-97000000D03*
D15*
X132000000Y-99000000D03*
X132000000Y-101000000D03*
X132000000Y-103000000D03*
D14*
X156000000Y-89000000D03*
D15*
X154000000Y-89000000D03*
X152000000Y-89000000D03*
X150000000Y-89000000D03*
X148000000Y-89000000D03*
X146000000Y-89000000D03*
X144000000Y-89000000D03*
X142000000Y-89000000D03*
X140000000Y-89000000D03*
X138000000Y-89000000D03*
D14*
X132000000Y-107000000D03*
D15*
X132000000Y-109000000D03*
X132000000Y-111000000D03*
X132000000Y-113000000D03*
D16*
X140140000Y-130100000D03*
D17*
X137600000Y-130100000D03*
D13*
X134166726Y-127833274D03*
X134650000Y-129000000D03*
X131350000Y-129000000D03*
D12*
X133000000Y-129000000D03*
D13*
X133000000Y-127350000D03*
X131833274Y-130166726D03*
X133000000Y-130650000D03*
X131833274Y-127833274D03*
X134166726Y-130166726D03*
D14*
X135000000Y-101000000D03*
D15*
X135000000Y-103000000D03*
D13*
X171833274Y-130166726D03*
X173000000Y-127350000D03*
X174650000Y-129000000D03*
X171350000Y-129000000D03*
X173000000Y-130650000D03*
X174166726Y-130166726D03*
D12*
X173000000Y-129000000D03*
D13*
X171833274Y-127833274D03*
X174166726Y-127833274D03*
X171833274Y-87833274D03*
X174650000Y-89000000D03*
X171833274Y-90166726D03*
X174166726Y-90166726D03*
X173000000Y-87350000D03*
D12*
X173000000Y-89000000D03*
D13*
X173000000Y-90650000D03*
X171350000Y-89000000D03*
X174166726Y-87833274D03*
D14*
X135000000Y-111000000D03*
D15*
X135000000Y-113000000D03*
D16*
X173760000Y-99495000D03*
D17*
X173760000Y-102035000D03*
X173760000Y-104575000D03*
D16*
X140135000Y-126480000D03*
D17*
X137595000Y-126480000D03*
D14*
X132000000Y-93560000D03*
D15*
X134000000Y-93560000D03*
X136000000Y-93560000D03*
X138000000Y-93560000D03*
D18*
X163430000Y-93450000D03*
X161860000Y-93450000D03*
X164010000Y-111690000D03*
X153410000Y-118170000D03*
X153400000Y-119210000D03*
X144530000Y-113630000D03*
X156220000Y-108000000D03*
X156500000Y-86860000D03*
X156590000Y-91560000D03*
X174950000Y-96810000D03*
X174950000Y-94500000D03*
X172070000Y-96780000D03*
X173540000Y-95640000D03*
X172070000Y-94500000D03*
X168310000Y-94500000D03*
X166130000Y-94500000D03*
X160550000Y-95750000D03*
X159630000Y-94800000D03*
X164310000Y-120290000D03*
X169620000Y-93450000D03*
D19*
X161420000Y-104520000D03*
D18*
X172710000Y-93450000D03*
X157920000Y-90955552D03*
D19*
X141300000Y-100040000D03*
D18*
X167560000Y-93450000D03*
X169820000Y-95080000D03*
D19*
X141290000Y-109310000D03*
X139280000Y-113540000D03*
X141280000Y-114540000D03*
X158270000Y-104520000D03*
X140620000Y-108930000D03*
D18*
X158870000Y-93450000D03*
D19*
X158270000Y-102420000D03*
D18*
X171680000Y-93450000D03*
D19*
X159320000Y-104520000D03*
X140290000Y-103530000D03*
X139980000Y-100470000D03*
X139290000Y-104530000D03*
X148350000Y-121110000D03*
D18*
X154060000Y-128350000D03*
D19*
X140280000Y-114540000D03*
X145570000Y-121110000D03*
D18*
X165500000Y-93450000D03*
X161680000Y-94410000D03*
D19*
X140630000Y-98930000D03*
X171310000Y-119560000D03*
D18*
X159820000Y-93440000D03*
D19*
X141290000Y-110040000D03*
D18*
X145310000Y-102070000D03*
D19*
X161420000Y-105570000D03*
X142280000Y-114540000D03*
X142290000Y-104530000D03*
D18*
X163630000Y-95170000D03*
D19*
X144870000Y-121800000D03*
X142030000Y-100040000D03*
X160370000Y-105570000D03*
X159320000Y-105570000D03*
D18*
X144010000Y-99490000D03*
D19*
X161420000Y-102420000D03*
D18*
X154210000Y-124290000D03*
D19*
X160370000Y-101370000D03*
X159320000Y-101370000D03*
D18*
X169540000Y-129980000D03*
X164520000Y-95770000D03*
D19*
X139970000Y-110470000D03*
X173310000Y-119560000D03*
X146960000Y-121110000D03*
D18*
X145824570Y-101109202D03*
X160850000Y-93450000D03*
D19*
X144870000Y-121110000D03*
X139280000Y-114540000D03*
D18*
X157920000Y-89871664D03*
D19*
X142020000Y-110040000D03*
X162470000Y-104520000D03*
X171310000Y-121560000D03*
X159320000Y-102420000D03*
D18*
X147720000Y-97940000D03*
X168590000Y-93450000D03*
D19*
X162470000Y-102420000D03*
D18*
X157920000Y-88787776D03*
D19*
X172310000Y-120560000D03*
D18*
X163410000Y-97130000D03*
D19*
X158270000Y-103470000D03*
X140280000Y-113540000D03*
D18*
X163410000Y-98170000D03*
D19*
X141280000Y-113540000D03*
D18*
X166530000Y-93450000D03*
D19*
X140290000Y-104530000D03*
D18*
X157920000Y-93180000D03*
X164520000Y-96830000D03*
D19*
X142020000Y-109310000D03*
X173310000Y-121560000D03*
X139290000Y-103530000D03*
D18*
X161710000Y-95340000D03*
X173740000Y-93450000D03*
X164520000Y-94470000D03*
X170650000Y-93450000D03*
D19*
X161420000Y-103470000D03*
X142030000Y-99310000D03*
D18*
X161740000Y-96340000D03*
D19*
X142280000Y-113540000D03*
D18*
X161850000Y-97330000D03*
X164470000Y-93450000D03*
D19*
X142290000Y-103530000D03*
D18*
X150110000Y-130100000D03*
D19*
X141290000Y-103530000D03*
X162470000Y-103470000D03*
X160370000Y-102420000D03*
X147660000Y-121110000D03*
D18*
X167960000Y-124350000D03*
D19*
X160370000Y-103470000D03*
D18*
X166920000Y-95720000D03*
X151350000Y-113650000D03*
D19*
X146260000Y-121110000D03*
X141300000Y-99310000D03*
X161420000Y-101370000D03*
D18*
X152170000Y-114490000D03*
X156270000Y-123670000D03*
D19*
X140690000Y-110480000D03*
D18*
X157920000Y-92039440D03*
X168360000Y-119690000D03*
X167800000Y-109560000D03*
X165250000Y-126490000D03*
D19*
X159320000Y-103470000D03*
D18*
X174770000Y-93450000D03*
X157920000Y-87703888D03*
D19*
X141290000Y-104530000D03*
X140700000Y-100480000D03*
X160370000Y-104520000D03*
D18*
X157920000Y-86620000D03*
D19*
X147930000Y-102090000D03*
D18*
X151940000Y-120250000D03*
D19*
X166180000Y-100920000D03*
X142470000Y-111420000D03*
D18*
X140515000Y-116930000D03*
D19*
X165010000Y-103090000D03*
X167640000Y-100910000D03*
X147350000Y-115810000D03*
D18*
X139300000Y-116930000D03*
X168570000Y-122140000D03*
X164000000Y-110660000D03*
D19*
X164600000Y-99470000D03*
X165030000Y-101720000D03*
X165320000Y-99470000D03*
X148390000Y-115810000D03*
D18*
X138660000Y-91240000D03*
X174830000Y-125380000D03*
X153400000Y-120260000D03*
D19*
X166910000Y-100920000D03*
X142480000Y-101410000D03*
D18*
X153500000Y-101820000D03*
X140430000Y-90920000D03*
D19*
X141770000Y-101410000D03*
D18*
X164520000Y-107080000D03*
X145800000Y-100110002D03*
X157370000Y-108020000D03*
X136870000Y-116930000D03*
X135655000Y-116930000D03*
X138085000Y-116930000D03*
D19*
X169790000Y-99850000D03*
X146260000Y-115810000D03*
D18*
X167980000Y-123340000D03*
D19*
X142780000Y-115810000D03*
X145200000Y-115810000D03*
X161870000Y-98420000D03*
X141760000Y-111420000D03*
X154170000Y-103620000D03*
X161870000Y-99120000D03*
X163740000Y-99540000D03*
X143830000Y-115810000D03*
X147370000Y-125570000D03*
X138560000Y-109900000D03*
X138570000Y-99960000D03*
X138930000Y-109290000D03*
X150800000Y-119000000D03*
X138210000Y-109280000D03*
X138940000Y-99350000D03*
X138220000Y-99340000D03*
X155150000Y-114490000D03*
X151400000Y-105640000D03*
D18*
X162650000Y-125790000D03*
X158520000Y-126190000D03*
D19*
X151790000Y-103890000D03*
X153130000Y-103630000D03*
D18*
X162870000Y-109100000D03*
X158790000Y-109300000D03*
D19*
X153600000Y-100790000D03*
D18*
X149280000Y-97060000D03*
D19*
X156760000Y-98290000D03*
D18*
X164470000Y-113420000D03*
D19*
X158581233Y-98288767D03*
X169810000Y-98840000D03*
D18*
X173420000Y-116540000D03*
D19*
X167450922Y-113979078D03*
X149750000Y-119000000D03*
X141180000Y-123700000D03*
X145450000Y-123000000D03*
X141880000Y-123000000D03*
X145450000Y-123700000D03*
X141880000Y-123700000D03*
X144750000Y-123000000D03*
X141180000Y-123000000D03*
X144750000Y-123700000D03*
X157680000Y-98290000D03*
D18*
X159800000Y-108350000D03*
X158580000Y-108320000D03*
%TA.AperFunction,Conductor*%
G36*
X158362100Y-86320502D02*
G01*
X158408593Y-86374158D01*
X158419979Y-86426506D01*
X158419662Y-93030031D01*
X158433189Y-93030039D01*
X158433191Y-93030039D01*
X174772043Y-93039118D01*
X175573570Y-93039563D01*
X175641680Y-93059603D01*
X175688143Y-93113284D01*
X175699500Y-93165563D01*
X175699500Y-125009304D01*
X175679498Y-125077425D01*
X175625842Y-125123918D01*
X175555568Y-125134022D01*
X175490988Y-125104528D01*
X175463899Y-125065687D01*
X175461550Y-125066915D01*
X175458029Y-125060180D01*
X175455345Y-125053077D01*
X175429744Y-125015828D01*
X175363614Y-124919608D01*
X175363613Y-124919607D01*
X175359312Y-124913349D01*
X175347514Y-124902837D01*
X175238392Y-124805612D01*
X175238388Y-124805610D01*
X175232721Y-124800560D01*
X175082881Y-124721224D01*
X174918441Y-124679919D01*
X174910843Y-124679879D01*
X174910841Y-124679879D01*
X174833668Y-124679475D01*
X174748895Y-124679031D01*
X174741508Y-124680805D01*
X174741504Y-124680805D01*
X174598162Y-124715220D01*
X174584032Y-124718612D01*
X174577288Y-124722093D01*
X174577285Y-124722094D01*
X174572089Y-124724776D01*
X174433369Y-124796375D01*
X174305604Y-124907831D01*
X174301237Y-124914045D01*
X174214942Y-125036831D01*
X174208113Y-125046547D01*
X174146524Y-125204513D01*
X174145532Y-125212046D01*
X174145532Y-125212047D01*
X174129154Y-125336456D01*
X174124394Y-125372611D01*
X174142999Y-125541135D01*
X174172609Y-125622047D01*
X174197307Y-125689537D01*
X174201266Y-125700356D01*
X174205502Y-125706659D01*
X174205502Y-125706660D01*
X174215367Y-125721340D01*
X174295830Y-125841083D01*
X174301442Y-125846190D01*
X174301445Y-125846193D01*
X174415612Y-125950077D01*
X174415616Y-125950080D01*
X174421233Y-125955191D01*
X174427906Y-125958814D01*
X174427910Y-125958817D01*
X174563558Y-126032467D01*
X174563560Y-126032468D01*
X174570235Y-126036092D01*
X174577584Y-126038020D01*
X174726883Y-126077188D01*
X174726885Y-126077188D01*
X174734233Y-126079116D01*
X174820609Y-126080473D01*
X174896161Y-126081660D01*
X174896164Y-126081660D01*
X174903760Y-126081779D01*
X174911165Y-126080083D01*
X174911166Y-126080083D01*
X174987069Y-126062699D01*
X175069029Y-126043928D01*
X175220498Y-125967747D01*
X175321207Y-125881733D01*
X175343651Y-125862564D01*
X175343652Y-125862563D01*
X175349423Y-125857634D01*
X175448361Y-125719947D01*
X175456594Y-125699468D01*
X175500559Y-125643725D01*
X175567684Y-125620600D01*
X175636655Y-125637437D01*
X175685575Y-125688889D01*
X175699500Y-125746466D01*
X175699500Y-128476554D01*
X175679498Y-128544675D01*
X175625842Y-128591168D01*
X175555568Y-128601272D01*
X175490988Y-128571778D01*
X175452604Y-128512052D01*
X175449732Y-128500164D01*
X175426990Y-128380947D01*
X175425019Y-128373270D01*
X175330263Y-128081642D01*
X175327348Y-128074279D01*
X175196786Y-127796821D01*
X175192974Y-127789888D01*
X175040719Y-127549971D01*
X175030113Y-127540674D01*
X175020840Y-127544845D01*
X171550650Y-131015035D01*
X171544037Y-131027146D01*
X171552864Y-131038764D01*
X171654576Y-131112662D01*
X171661256Y-131116902D01*
X171929985Y-131264637D01*
X171937120Y-131267994D01*
X172222247Y-131380884D01*
X172229773Y-131383329D01*
X172495120Y-131451459D01*
X172556126Y-131487773D01*
X172587815Y-131551306D01*
X172580125Y-131621885D01*
X172535498Y-131677102D01*
X172463785Y-131699500D01*
X167910088Y-131699500D01*
X167841967Y-131679498D01*
X167795474Y-131625842D01*
X167785370Y-131555568D01*
X167814864Y-131490988D01*
X167835406Y-131472018D01*
X167845560Y-131464546D01*
X167961891Y-131378936D01*
X168074444Y-131246452D01*
X168153500Y-131091629D01*
X168168707Y-131029487D01*
X168178145Y-130990914D01*
X168194820Y-130922772D01*
X168195500Y-130911810D01*
X168195500Y-130126470D01*
X168180444Y-129997330D01*
X168177489Y-129989187D01*
X168123627Y-129840802D01*
X168121130Y-129833923D01*
X168025815Y-129688544D01*
X167899612Y-129568991D01*
X167838292Y-129533374D01*
X167755624Y-129485356D01*
X167755621Y-129485355D01*
X167749291Y-129481678D01*
X167742283Y-129479556D01*
X167742282Y-129479555D01*
X167708793Y-129469412D01*
X167582915Y-129431287D01*
X167575606Y-129430834D01*
X167575603Y-129430833D01*
X167502245Y-129426282D01*
X167409410Y-129420523D01*
X167402195Y-129421763D01*
X167402192Y-129421763D01*
X167245298Y-129448723D01*
X167238082Y-129449963D01*
X167078121Y-129518027D01*
X166938109Y-129621064D01*
X166825556Y-129753548D01*
X166746500Y-129908371D01*
X166744761Y-129915477D01*
X166744760Y-129915480D01*
X166744056Y-129918358D01*
X166705180Y-130077228D01*
X166704500Y-130088190D01*
X166704500Y-130873530D01*
X166712558Y-130942647D01*
X166718621Y-130994646D01*
X166719556Y-131002670D01*
X166722052Y-131009547D01*
X166722053Y-131009550D01*
X166763289Y-131123153D01*
X166778870Y-131166077D01*
X166874185Y-131311456D01*
X167000388Y-131431009D01*
X167058128Y-131464547D01*
X167106985Y-131516057D01*
X167120239Y-131585806D01*
X167093679Y-131651647D01*
X167035740Y-131692678D01*
X166994841Y-131699500D01*
X160910088Y-131699500D01*
X160841967Y-131679498D01*
X160795474Y-131625842D01*
X160785370Y-131555568D01*
X160814864Y-131490988D01*
X160835406Y-131472018D01*
X160845560Y-131464546D01*
X160961891Y-131378936D01*
X161074444Y-131246452D01*
X161153500Y-131091629D01*
X161168707Y-131029487D01*
X161178145Y-130990914D01*
X161194820Y-130922772D01*
X161195500Y-130911810D01*
X161195500Y-130126470D01*
X161180444Y-129997330D01*
X161177489Y-129989187D01*
X161123627Y-129840802D01*
X161121130Y-129833923D01*
X161025815Y-129688544D01*
X160899612Y-129568991D01*
X160838292Y-129533374D01*
X160755624Y-129485356D01*
X160755621Y-129485355D01*
X160749291Y-129481678D01*
X160742283Y-129479556D01*
X160742282Y-129479555D01*
X160708793Y-129469412D01*
X160582915Y-129431287D01*
X160575606Y-129430834D01*
X160575603Y-129430833D01*
X160502245Y-129426282D01*
X160409410Y-129420523D01*
X160402195Y-129421763D01*
X160402192Y-129421763D01*
X160245298Y-129448723D01*
X160238082Y-129449963D01*
X160078121Y-129518027D01*
X159938109Y-129621064D01*
X159825556Y-129753548D01*
X159746500Y-129908371D01*
X159744761Y-129915477D01*
X159744760Y-129915480D01*
X159744056Y-129918358D01*
X159705180Y-130077228D01*
X159704500Y-130088190D01*
X159704500Y-130873530D01*
X159712558Y-130942647D01*
X159718621Y-130994646D01*
X159719556Y-131002670D01*
X159722052Y-131009547D01*
X159722053Y-131009550D01*
X159763289Y-131123153D01*
X159778870Y-131166077D01*
X159874185Y-131311456D01*
X160000388Y-131431009D01*
X160058128Y-131464547D01*
X160106985Y-131516057D01*
X160120239Y-131585806D01*
X160093679Y-131651647D01*
X160035740Y-131692678D01*
X159994841Y-131699500D01*
X133536215Y-131699500D01*
X133468094Y-131679498D01*
X133421601Y-131625842D01*
X133411497Y-131555568D01*
X133440991Y-131490988D01*
X133504880Y-131451459D01*
X133770227Y-131383329D01*
X133777753Y-131380884D01*
X134062880Y-131267994D01*
X134070015Y-131264637D01*
X134338744Y-131116902D01*
X134345424Y-131112662D01*
X134447507Y-131038495D01*
X134455930Y-131027572D01*
X134449026Y-131014711D01*
X133942840Y-130508525D01*
X136521922Y-130508525D01*
X136597386Y-130672218D01*
X136603137Y-130682179D01*
X136718455Y-130845350D01*
X136725921Y-130854092D01*
X136869047Y-130993520D01*
X136877981Y-131000754D01*
X137044112Y-131111760D01*
X137054224Y-131117251D01*
X137183355Y-131172729D01*
X137197355Y-131174420D01*
X137200000Y-131170092D01*
X137200000Y-131160640D01*
X138000000Y-131160640D01*
X138003973Y-131174171D01*
X138010669Y-131175133D01*
X138064283Y-131156934D01*
X138074786Y-131152258D01*
X138249124Y-131054625D01*
X138258596Y-131048115D01*
X138412219Y-130920348D01*
X138420348Y-130912219D01*
X138548115Y-130758596D01*
X138554625Y-130749124D01*
X138652258Y-130574786D01*
X138656934Y-130564283D01*
X138721160Y-130375081D01*
X138723845Y-130363898D01*
X138738804Y-130260724D01*
X138768374Y-130196178D01*
X138828146Y-130157866D01*
X138899142Y-130157950D01*
X138958823Y-130196405D01*
X138988239Y-130261021D01*
X138989500Y-130278804D01*
X138989500Y-130994646D01*
X138992618Y-131020846D01*
X138996456Y-131029486D01*
X138996456Y-131029487D01*
X139026954Y-131098148D01*
X139038061Y-131123153D01*
X139117287Y-131202241D01*
X139127924Y-131206944D01*
X139127926Y-131206945D01*
X139187462Y-131233265D01*
X139219673Y-131247506D01*
X139245354Y-131250500D01*
X141034646Y-131250500D01*
X141038350Y-131250059D01*
X141038353Y-131250059D01*
X141045746Y-131249179D01*
X141060846Y-131247382D01*
X141163153Y-131201939D01*
X141242241Y-131122713D01*
X141247084Y-131111760D01*
X141283675Y-131028992D01*
X141287506Y-131020327D01*
X141290500Y-130994646D01*
X141290500Y-130170862D01*
X152005497Y-130170862D01*
X152006737Y-130178078D01*
X152006737Y-130178080D01*
X152030788Y-130318047D01*
X152035134Y-130343340D01*
X152103654Y-130504373D01*
X152207383Y-130645324D01*
X152212961Y-130650063D01*
X152212964Y-130650066D01*
X152335176Y-130753893D01*
X152335180Y-130753896D01*
X152340755Y-130758632D01*
X152421572Y-130799899D01*
X152437687Y-130808128D01*
X152496616Y-130838219D01*
X152503721Y-130839958D01*
X152503725Y-130839959D01*
X152561484Y-130854092D01*
X152666606Y-130879815D01*
X152672206Y-130880162D01*
X152672210Y-130880163D01*
X152675709Y-130880380D01*
X152675718Y-130880380D01*
X152677648Y-130880500D01*
X152803822Y-130880500D01*
X152895369Y-130869827D01*
X152926556Y-130866191D01*
X152926558Y-130866191D01*
X152933828Y-130865343D01*
X152940705Y-130862847D01*
X152940708Y-130862846D01*
X153091452Y-130808128D01*
X153098331Y-130805631D01*
X153244685Y-130709677D01*
X153365040Y-130582628D01*
X153452939Y-130431298D01*
X153503667Y-130263807D01*
X153509433Y-130170862D01*
X155005497Y-130170862D01*
X155006737Y-130178078D01*
X155006737Y-130178080D01*
X155030788Y-130318047D01*
X155035134Y-130343340D01*
X155103654Y-130504373D01*
X155207383Y-130645324D01*
X155212961Y-130650063D01*
X155212964Y-130650066D01*
X155335176Y-130753893D01*
X155335180Y-130753896D01*
X155340755Y-130758632D01*
X155421572Y-130799899D01*
X155437687Y-130808128D01*
X155496616Y-130838219D01*
X155503721Y-130839958D01*
X155503725Y-130839959D01*
X155561484Y-130854092D01*
X155666606Y-130879815D01*
X155672206Y-130880162D01*
X155672210Y-130880163D01*
X155675709Y-130880380D01*
X155675718Y-130880380D01*
X155677648Y-130880500D01*
X155803822Y-130880500D01*
X155895369Y-130869827D01*
X155926556Y-130866191D01*
X155926558Y-130866191D01*
X155933828Y-130865343D01*
X155940705Y-130862847D01*
X155940708Y-130862846D01*
X156091452Y-130808128D01*
X156098331Y-130805631D01*
X156244685Y-130709677D01*
X156365040Y-130582628D01*
X156452939Y-130431298D01*
X156503667Y-130263807D01*
X156514503Y-130089138D01*
X156512457Y-130077228D01*
X156486106Y-129923875D01*
X156486105Y-129923873D01*
X156484866Y-129916660D01*
X156416346Y-129755627D01*
X156312617Y-129614676D01*
X156307039Y-129609937D01*
X156307036Y-129609934D01*
X156184824Y-129506107D01*
X156184820Y-129506104D01*
X156179245Y-129501368D01*
X156095062Y-129458382D01*
X156029900Y-129425108D01*
X156029898Y-129425107D01*
X156023384Y-129421781D01*
X156016279Y-129420042D01*
X156016275Y-129420041D01*
X155922741Y-129397154D01*
X155853394Y-129380185D01*
X155847794Y-129379838D01*
X155847790Y-129379837D01*
X155844291Y-129379620D01*
X155844282Y-129379620D01*
X155842352Y-129379500D01*
X155716178Y-129379500D01*
X155624631Y-129390173D01*
X155593444Y-129393809D01*
X155593442Y-129393809D01*
X155586172Y-129394657D01*
X155579295Y-129397153D01*
X155579292Y-129397154D01*
X155479407Y-129433411D01*
X155421669Y-129454369D01*
X155275315Y-129550323D01*
X155154960Y-129677372D01*
X155067061Y-129828702D01*
X155016333Y-129996193D01*
X155005497Y-130170862D01*
X153509433Y-130170862D01*
X153514503Y-130089138D01*
X153512457Y-130077228D01*
X153486106Y-129923875D01*
X153486105Y-129923873D01*
X153484866Y-129916660D01*
X153416346Y-129755627D01*
X153312617Y-129614676D01*
X153307039Y-129609937D01*
X153307036Y-129609934D01*
X153184824Y-129506107D01*
X153184820Y-129506104D01*
X153179245Y-129501368D01*
X153095062Y-129458382D01*
X153029900Y-129425108D01*
X153029898Y-129425107D01*
X153023384Y-129421781D01*
X153016279Y-129420042D01*
X153016275Y-129420041D01*
X152922741Y-129397154D01*
X152853394Y-129380185D01*
X152847794Y-129379838D01*
X152847790Y-129379837D01*
X152844291Y-129379620D01*
X152844282Y-129379620D01*
X152842352Y-129379500D01*
X152716178Y-129379500D01*
X152624631Y-129390173D01*
X152593444Y-129393809D01*
X152593442Y-129393809D01*
X152586172Y-129394657D01*
X152579295Y-129397153D01*
X152579292Y-129397154D01*
X152479407Y-129433411D01*
X152421669Y-129454369D01*
X152275315Y-129550323D01*
X152154960Y-129677372D01*
X152067061Y-129828702D01*
X152016333Y-129996193D01*
X152005497Y-130170862D01*
X141290500Y-130170862D01*
X141290500Y-129205354D01*
X141287382Y-129179154D01*
X141241939Y-129076847D01*
X141168923Y-129003958D01*
X170495306Y-129003958D01*
X170514560Y-129309990D01*
X170515553Y-129317853D01*
X170573010Y-129619053D01*
X170574981Y-129626730D01*
X170669737Y-129918358D01*
X170672652Y-129925721D01*
X170803214Y-130203179D01*
X170807026Y-130210112D01*
X170959281Y-130450029D01*
X170969887Y-130459326D01*
X170979160Y-130455155D01*
X172421503Y-129012812D01*
X172429117Y-128998868D01*
X172428986Y-128997035D01*
X172424735Y-128990420D01*
X170981801Y-127547486D01*
X170969421Y-127540726D01*
X170961281Y-127546819D01*
X170807026Y-127789888D01*
X170803214Y-127796821D01*
X170672652Y-128074279D01*
X170669737Y-128081642D01*
X170574981Y-128373270D01*
X170573010Y-128380947D01*
X170515553Y-128682147D01*
X170514560Y-128690010D01*
X170495306Y-128996042D01*
X170495306Y-129003958D01*
X141168923Y-129003958D01*
X141162713Y-128997759D01*
X141152076Y-128993056D01*
X141152074Y-128993055D01*
X141092538Y-128966735D01*
X141060327Y-128952494D01*
X141034646Y-128949500D01*
X139245354Y-128949500D01*
X139241650Y-128949941D01*
X139241647Y-128949941D01*
X139234254Y-128950821D01*
X139219154Y-128952618D01*
X139210514Y-128956456D01*
X139210513Y-128956456D01*
X139134049Y-128990420D01*
X139116847Y-128998061D01*
X139108628Y-129006294D01*
X139108627Y-129006295D01*
X139095005Y-129019941D01*
X139037759Y-129077287D01*
X138992494Y-129179673D01*
X138989500Y-129205354D01*
X138989500Y-129904568D01*
X138969498Y-129972689D01*
X138915842Y-130019182D01*
X138845568Y-130029286D01*
X138780988Y-129999792D01*
X138742604Y-129940066D01*
X138738029Y-129916097D01*
X138736117Y-129895285D01*
X138734020Y-129883971D01*
X138679785Y-129691670D01*
X138675663Y-129680931D01*
X138587292Y-129501733D01*
X138581282Y-129491925D01*
X138461731Y-129331827D01*
X138454041Y-129323287D01*
X138307315Y-129187654D01*
X138298190Y-129180653D01*
X138129209Y-129074034D01*
X138118962Y-129068813D01*
X138016828Y-129028066D01*
X138002786Y-129026741D01*
X138000000Y-129031580D01*
X138000000Y-131160640D01*
X137200000Y-131160640D01*
X137200000Y-130518115D01*
X137195525Y-130502876D01*
X137194135Y-130501671D01*
X137186452Y-130500000D01*
X136536107Y-130500000D01*
X136522576Y-130503973D01*
X136521922Y-130508525D01*
X133942840Y-130508525D01*
X132435447Y-129001132D01*
X133570883Y-129001132D01*
X133571014Y-129002965D01*
X133575265Y-129009580D01*
X135018199Y-130452514D01*
X135030579Y-130459274D01*
X135038719Y-130453181D01*
X135192974Y-130210112D01*
X135196786Y-130203179D01*
X135327348Y-129925721D01*
X135330263Y-129918358D01*
X135402252Y-129696799D01*
X136525109Y-129696799D01*
X136531841Y-129700000D01*
X137181885Y-129700000D01*
X137197124Y-129695525D01*
X137198329Y-129694135D01*
X137200000Y-129686452D01*
X137200000Y-129039833D01*
X137196027Y-129026302D01*
X137189944Y-129025428D01*
X137108210Y-129055581D01*
X137097828Y-129060533D01*
X136926119Y-129162688D01*
X136916807Y-129169453D01*
X136766587Y-129301194D01*
X136758670Y-129309537D01*
X136634975Y-129466443D01*
X136628704Y-129476100D01*
X136535681Y-129652909D01*
X136531272Y-129663551D01*
X136525327Y-129682699D01*
X136525109Y-129696799D01*
X135402252Y-129696799D01*
X135425019Y-129626730D01*
X135426990Y-129619053D01*
X135484447Y-129317853D01*
X135485440Y-129309990D01*
X135504694Y-129003958D01*
X135504694Y-128996042D01*
X135485440Y-128690010D01*
X135484447Y-128682147D01*
X135426990Y-128380947D01*
X135425019Y-128373270D01*
X135330263Y-128081642D01*
X135327348Y-128074279D01*
X135196786Y-127796821D01*
X135195538Y-127794552D01*
X160519612Y-127794552D01*
X160537798Y-127967581D01*
X160593867Y-128132281D01*
X160685031Y-128280467D01*
X160806760Y-128404772D01*
X160953004Y-128499020D01*
X160959627Y-128501431D01*
X160959630Y-128501432D01*
X161109870Y-128556115D01*
X161109875Y-128556116D01*
X161116493Y-128558525D01*
X161250863Y-128575500D01*
X161643746Y-128575500D01*
X161772898Y-128561013D01*
X161786964Y-128556115D01*
X161846077Y-128535530D01*
X161937203Y-128503796D01*
X162084748Y-128411600D01*
X162208201Y-128289006D01*
X162301425Y-128142108D01*
X162359788Y-127978207D01*
X162360621Y-127971221D01*
X162360622Y-127971217D01*
X162379554Y-127812441D01*
X162380388Y-127805448D01*
X162379243Y-127794552D01*
X165519612Y-127794552D01*
X165537798Y-127967581D01*
X165593867Y-128132281D01*
X165685031Y-128280467D01*
X165806760Y-128404772D01*
X165953004Y-128499020D01*
X165959627Y-128501431D01*
X165959630Y-128501432D01*
X166109870Y-128556115D01*
X166109875Y-128556116D01*
X166116493Y-128558525D01*
X166250863Y-128575500D01*
X166643746Y-128575500D01*
X166772898Y-128561013D01*
X166786964Y-128556115D01*
X166846077Y-128535530D01*
X166937203Y-128503796D01*
X167084748Y-128411600D01*
X167208201Y-128289006D01*
X167301425Y-128142108D01*
X167359788Y-127978207D01*
X167360621Y-127971221D01*
X167360622Y-127971217D01*
X167379554Y-127812441D01*
X167380388Y-127805448D01*
X167362202Y-127632419D01*
X167359932Y-127625750D01*
X167308403Y-127474386D01*
X167308402Y-127474383D01*
X167306133Y-127467719D01*
X167214969Y-127319533D01*
X167093240Y-127195228D01*
X166946996Y-127100980D01*
X166940373Y-127098569D01*
X166940370Y-127098568D01*
X166790130Y-127043885D01*
X166790125Y-127043884D01*
X166783507Y-127041475D01*
X166649137Y-127024500D01*
X166256254Y-127024500D01*
X166127102Y-127038987D01*
X166120449Y-127041304D01*
X166120448Y-127041304D01*
X166060504Y-127062179D01*
X165962797Y-127096204D01*
X165815252Y-127188400D01*
X165691799Y-127310994D01*
X165598575Y-127457892D01*
X165569079Y-127540726D01*
X165557336Y-127573705D01*
X165540212Y-127621793D01*
X165539379Y-127628779D01*
X165539378Y-127628783D01*
X165524699Y-127751893D01*
X165519612Y-127794552D01*
X162379243Y-127794552D01*
X162362202Y-127632419D01*
X162359932Y-127625750D01*
X162308403Y-127474386D01*
X162308402Y-127474383D01*
X162306133Y-127467719D01*
X162214969Y-127319533D01*
X162093240Y-127195228D01*
X161946996Y-127100980D01*
X161940373Y-127098569D01*
X161940370Y-127098568D01*
X161790130Y-127043885D01*
X161790125Y-127043884D01*
X161783507Y-127041475D01*
X161649137Y-127024500D01*
X161256254Y-127024500D01*
X161127102Y-127038987D01*
X161120449Y-127041304D01*
X161120448Y-127041304D01*
X161060504Y-127062179D01*
X160962797Y-127096204D01*
X160815252Y-127188400D01*
X160691799Y-127310994D01*
X160598575Y-127457892D01*
X160569079Y-127540726D01*
X160557336Y-127573705D01*
X160540212Y-127621793D01*
X160539379Y-127628779D01*
X160539378Y-127628783D01*
X160524699Y-127751893D01*
X160519612Y-127794552D01*
X135195538Y-127794552D01*
X135192974Y-127789888D01*
X135040719Y-127549971D01*
X135030113Y-127540674D01*
X135020840Y-127544845D01*
X133578497Y-128987188D01*
X133570883Y-129001132D01*
X132435447Y-129001132D01*
X130981801Y-127547486D01*
X130969421Y-127540726D01*
X130961281Y-127546819D01*
X130807026Y-127789888D01*
X130803214Y-127796821D01*
X130672652Y-128074279D01*
X130669737Y-128081642D01*
X130574981Y-128373270D01*
X130573010Y-128380947D01*
X130550268Y-128500164D01*
X130517856Y-128563330D01*
X130456439Y-128598945D01*
X130385516Y-128595702D01*
X130327606Y-128554630D01*
X130301094Y-128488770D01*
X130300500Y-128476554D01*
X130300500Y-126972428D01*
X131544070Y-126972428D01*
X131550974Y-126985289D01*
X132987188Y-128421503D01*
X133001132Y-128429117D01*
X133002965Y-128428986D01*
X133009580Y-128424735D01*
X134449350Y-126984965D01*
X134455963Y-126972854D01*
X134447136Y-126961236D01*
X134347058Y-126888525D01*
X136516922Y-126888525D01*
X136592386Y-127052218D01*
X136598137Y-127062179D01*
X136713455Y-127225350D01*
X136720921Y-127234092D01*
X136864047Y-127373520D01*
X136872981Y-127380754D01*
X137039112Y-127491760D01*
X137049224Y-127497251D01*
X137178355Y-127552729D01*
X137192355Y-127554420D01*
X137195000Y-127550092D01*
X137195000Y-127540640D01*
X137995000Y-127540640D01*
X137998973Y-127554171D01*
X138005669Y-127555133D01*
X138059283Y-127536934D01*
X138069786Y-127532258D01*
X138244124Y-127434625D01*
X138253596Y-127428115D01*
X138407219Y-127300348D01*
X138415348Y-127292219D01*
X138543115Y-127138596D01*
X138549625Y-127129124D01*
X138647258Y-126954786D01*
X138651934Y-126944283D01*
X138716160Y-126755081D01*
X138718845Y-126743898D01*
X138733804Y-126640724D01*
X138763374Y-126576178D01*
X138823146Y-126537866D01*
X138894142Y-126537950D01*
X138953823Y-126576405D01*
X138983239Y-126641021D01*
X138984500Y-126658804D01*
X138984500Y-127374646D01*
X138987618Y-127400846D01*
X138991456Y-127409486D01*
X138991456Y-127409487D01*
X139017322Y-127467719D01*
X139033061Y-127503153D01*
X139112287Y-127582241D01*
X139122924Y-127586944D01*
X139122926Y-127586945D01*
X139182462Y-127613265D01*
X139214673Y-127627506D01*
X139240354Y-127630500D01*
X141029646Y-127630500D01*
X141033350Y-127630059D01*
X141033353Y-127630059D01*
X141040746Y-127629179D01*
X141055846Y-127627382D01*
X141158153Y-127581939D01*
X141237241Y-127502713D01*
X141242084Y-127491760D01*
X141278675Y-127408992D01*
X141282506Y-127400327D01*
X141285500Y-127374646D01*
X141285500Y-126972428D01*
X171544070Y-126972428D01*
X171550974Y-126985289D01*
X172987188Y-128421503D01*
X173001132Y-128429117D01*
X173002965Y-128428986D01*
X173009580Y-128424735D01*
X174449350Y-126984965D01*
X174455963Y-126972854D01*
X174447136Y-126961236D01*
X174345424Y-126887338D01*
X174338744Y-126883098D01*
X174070015Y-126735363D01*
X174062880Y-126732006D01*
X173777753Y-126619116D01*
X173770227Y-126616671D01*
X173473219Y-126540412D01*
X173465448Y-126538929D01*
X173161218Y-126500497D01*
X173153328Y-126500000D01*
X172846672Y-126500000D01*
X172838782Y-126500497D01*
X172534552Y-126538929D01*
X172526781Y-126540412D01*
X172229773Y-126616671D01*
X172222247Y-126619116D01*
X171937120Y-126732006D01*
X171929985Y-126735363D01*
X171661256Y-126883098D01*
X171654576Y-126887338D01*
X171552493Y-126961505D01*
X171544070Y-126972428D01*
X141285500Y-126972428D01*
X141285500Y-126182611D01*
X157814394Y-126182611D01*
X157832999Y-126351135D01*
X157865754Y-126440642D01*
X157884468Y-126491779D01*
X157891266Y-126510356D01*
X157895502Y-126516659D01*
X157895502Y-126516660D01*
X157908574Y-126536113D01*
X157985830Y-126651083D01*
X157991442Y-126656190D01*
X157991445Y-126656193D01*
X158105612Y-126760077D01*
X158105616Y-126760080D01*
X158111233Y-126765191D01*
X158117906Y-126768814D01*
X158117910Y-126768817D01*
X158253558Y-126842467D01*
X158253560Y-126842468D01*
X158260235Y-126846092D01*
X158267584Y-126848020D01*
X158416883Y-126887188D01*
X158416885Y-126887188D01*
X158424233Y-126889116D01*
X158510609Y-126890473D01*
X158586161Y-126891660D01*
X158586164Y-126891660D01*
X158593760Y-126891779D01*
X158601165Y-126890083D01*
X158601166Y-126890083D01*
X158661586Y-126876245D01*
X158759029Y-126853928D01*
X158910498Y-126777747D01*
X159039423Y-126667634D01*
X159138361Y-126529947D01*
X159146237Y-126510356D01*
X159198766Y-126379687D01*
X159198767Y-126379685D01*
X159201601Y-126372634D01*
X159215843Y-126272564D01*
X159224909Y-126208862D01*
X159224909Y-126208859D01*
X159225490Y-126204778D01*
X159225645Y-126190000D01*
X159223840Y-126175080D01*
X159212534Y-126081660D01*
X159205276Y-126021680D01*
X159145345Y-125863077D01*
X159090042Y-125782611D01*
X161944394Y-125782611D01*
X161962999Y-125951135D01*
X161992924Y-126032909D01*
X162010765Y-126081660D01*
X162021266Y-126110356D01*
X162025502Y-126116659D01*
X162025502Y-126116660D01*
X162038574Y-126136113D01*
X162115830Y-126251083D01*
X162121442Y-126256190D01*
X162121445Y-126256193D01*
X162235612Y-126360077D01*
X162235616Y-126360080D01*
X162241233Y-126365191D01*
X162247906Y-126368814D01*
X162247910Y-126368817D01*
X162383558Y-126442467D01*
X162383560Y-126442468D01*
X162390235Y-126446092D01*
X162397584Y-126448020D01*
X162546883Y-126487188D01*
X162546885Y-126487188D01*
X162554233Y-126489116D01*
X162640609Y-126490473D01*
X162716161Y-126491660D01*
X162716164Y-126491660D01*
X162723760Y-126491779D01*
X162731165Y-126490083D01*
X162731166Y-126490083D01*
X162791586Y-126476245D01*
X162889029Y-126453928D01*
X163040498Y-126377747D01*
X163169423Y-126267634D01*
X163268361Y-126129947D01*
X163277855Y-126106330D01*
X163328766Y-125979687D01*
X163328767Y-125979685D01*
X163331601Y-125972634D01*
X163348186Y-125856100D01*
X163354909Y-125808862D01*
X163354909Y-125808859D01*
X163355490Y-125804778D01*
X163355645Y-125790000D01*
X163353840Y-125775080D01*
X163347914Y-125726113D01*
X163335276Y-125621680D01*
X163275345Y-125463077D01*
X163236626Y-125406741D01*
X163183614Y-125329608D01*
X163183613Y-125329607D01*
X163179312Y-125323349D01*
X163167514Y-125312837D01*
X163058392Y-125215612D01*
X163058388Y-125215610D01*
X163052721Y-125210560D01*
X163041301Y-125204513D01*
X162980560Y-125172353D01*
X162902881Y-125131224D01*
X162738441Y-125089919D01*
X162730843Y-125089879D01*
X162730841Y-125089879D01*
X162653668Y-125089475D01*
X162568895Y-125089031D01*
X162561508Y-125090805D01*
X162561504Y-125090805D01*
X162423583Y-125123918D01*
X162404032Y-125128612D01*
X162397288Y-125132093D01*
X162397285Y-125132094D01*
X162296857Y-125183929D01*
X162253369Y-125206375D01*
X162247647Y-125211367D01*
X162247645Y-125211368D01*
X162246867Y-125212047D01*
X162125604Y-125317831D01*
X162121237Y-125324045D01*
X162033549Y-125448813D01*
X162028113Y-125456547D01*
X161966524Y-125614513D01*
X161965532Y-125622046D01*
X161965532Y-125622047D01*
X161951372Y-125729608D01*
X161944394Y-125782611D01*
X159090042Y-125782611D01*
X159049312Y-125723349D01*
X159043119Y-125717831D01*
X158928392Y-125615612D01*
X158928388Y-125615610D01*
X158922721Y-125610560D01*
X158772881Y-125531224D01*
X158608441Y-125489919D01*
X158600843Y-125489879D01*
X158600841Y-125489879D01*
X158523668Y-125489475D01*
X158438895Y-125489031D01*
X158431508Y-125490805D01*
X158431504Y-125490805D01*
X158288162Y-125525220D01*
X158274032Y-125528612D01*
X158267288Y-125532093D01*
X158267285Y-125532094D01*
X158164096Y-125585354D01*
X158123369Y-125606375D01*
X158117647Y-125611367D01*
X158117645Y-125611368D01*
X158097181Y-125629220D01*
X157995604Y-125717831D01*
X157898113Y-125856547D01*
X157836524Y-126014513D01*
X157835532Y-126022046D01*
X157835532Y-126022047D01*
X157821946Y-126125250D01*
X157814394Y-126182611D01*
X141285500Y-126182611D01*
X141285500Y-125585354D01*
X141283673Y-125570000D01*
X146814750Y-125570000D01*
X146833670Y-125713709D01*
X146889139Y-125847625D01*
X146977379Y-125962621D01*
X147092375Y-126050861D01*
X147226291Y-126106330D01*
X147370000Y-126125250D01*
X147513709Y-126106330D01*
X147647625Y-126050861D01*
X147762621Y-125962621D01*
X147850861Y-125847625D01*
X147906330Y-125713709D01*
X147925250Y-125570000D01*
X147906330Y-125426291D01*
X147850861Y-125292375D01*
X147762621Y-125177379D01*
X147647625Y-125089139D01*
X147513709Y-125033670D01*
X147370000Y-125014750D01*
X147226291Y-125033670D01*
X147092375Y-125089139D01*
X146977379Y-125177379D01*
X146889139Y-125292375D01*
X146833670Y-125426291D01*
X146814750Y-125570000D01*
X141283673Y-125570000D01*
X141282382Y-125559154D01*
X141270363Y-125532094D01*
X141241663Y-125467482D01*
X141236939Y-125456847D01*
X141157713Y-125377759D01*
X141147076Y-125373056D01*
X141147074Y-125373055D01*
X141087538Y-125346735D01*
X141055327Y-125332494D01*
X141029646Y-125329500D01*
X139240354Y-125329500D01*
X139236650Y-125329941D01*
X139236647Y-125329941D01*
X139229254Y-125330821D01*
X139214154Y-125332618D01*
X139205514Y-125336456D01*
X139205513Y-125336456D01*
X139123117Y-125373055D01*
X139111847Y-125378061D01*
X139032759Y-125457287D01*
X139028056Y-125467924D01*
X139028055Y-125467926D01*
X139017514Y-125491770D01*
X138987494Y-125559673D01*
X138984500Y-125585354D01*
X138984500Y-126284568D01*
X138964498Y-126352689D01*
X138910842Y-126399182D01*
X138840568Y-126409286D01*
X138775988Y-126379792D01*
X138737604Y-126320066D01*
X138733029Y-126296097D01*
X138731117Y-126275285D01*
X138729020Y-126263971D01*
X138674785Y-126071670D01*
X138670663Y-126060931D01*
X138582292Y-125881733D01*
X138576282Y-125871925D01*
X138456731Y-125711827D01*
X138449041Y-125703287D01*
X138302315Y-125567654D01*
X138293190Y-125560653D01*
X138124209Y-125454034D01*
X138113962Y-125448813D01*
X138011828Y-125408066D01*
X137997786Y-125406741D01*
X137995000Y-125411580D01*
X137995000Y-127540640D01*
X137195000Y-127540640D01*
X137195000Y-126898115D01*
X137190525Y-126882876D01*
X137189135Y-126881671D01*
X137181452Y-126880000D01*
X136531107Y-126880000D01*
X136517576Y-126883973D01*
X136516922Y-126888525D01*
X134347058Y-126888525D01*
X134345424Y-126887338D01*
X134338744Y-126883098D01*
X134070015Y-126735363D01*
X134062880Y-126732006D01*
X133777753Y-126619116D01*
X133770227Y-126616671D01*
X133473219Y-126540412D01*
X133465448Y-126538929D01*
X133161218Y-126500497D01*
X133153328Y-126500000D01*
X132846672Y-126500000D01*
X132838782Y-126500497D01*
X132534552Y-126538929D01*
X132526781Y-126540412D01*
X132229773Y-126616671D01*
X132222247Y-126619116D01*
X131937120Y-126732006D01*
X131929985Y-126735363D01*
X131661256Y-126883098D01*
X131654576Y-126887338D01*
X131552493Y-126961505D01*
X131544070Y-126972428D01*
X130300500Y-126972428D01*
X130300500Y-126076799D01*
X136520109Y-126076799D01*
X136526841Y-126080000D01*
X137176885Y-126080000D01*
X137192124Y-126075525D01*
X137193329Y-126074135D01*
X137195000Y-126066452D01*
X137195000Y-125419833D01*
X137191027Y-125406302D01*
X137184944Y-125405428D01*
X137103210Y-125435581D01*
X137092828Y-125440533D01*
X136921119Y-125542688D01*
X136911807Y-125549453D01*
X136761587Y-125681194D01*
X136753670Y-125689537D01*
X136629975Y-125846443D01*
X136623704Y-125856100D01*
X136530681Y-126032909D01*
X136526272Y-126043551D01*
X136520327Y-126062699D01*
X136520109Y-126076799D01*
X130300500Y-126076799D01*
X130300500Y-123700000D01*
X140624750Y-123700000D01*
X140643670Y-123843709D01*
X140699139Y-123977625D01*
X140787379Y-124092621D01*
X140902375Y-124180861D01*
X141036291Y-124236330D01*
X141180000Y-124255250D01*
X141323709Y-124236330D01*
X141457625Y-124180861D01*
X141464175Y-124175835D01*
X141467000Y-124174204D01*
X141535996Y-124157466D01*
X141593000Y-124174204D01*
X141595825Y-124175835D01*
X141602375Y-124180861D01*
X141736291Y-124236330D01*
X141880000Y-124255250D01*
X142023709Y-124236330D01*
X142157625Y-124180861D01*
X142272621Y-124092621D01*
X142360861Y-123977625D01*
X142416330Y-123843709D01*
X142435250Y-123700000D01*
X144194750Y-123700000D01*
X144213670Y-123843709D01*
X144269139Y-123977625D01*
X144357379Y-124092621D01*
X144472375Y-124180861D01*
X144606291Y-124236330D01*
X144750000Y-124255250D01*
X144893709Y-124236330D01*
X145027625Y-124180861D01*
X145034175Y-124175835D01*
X145037000Y-124174204D01*
X145105996Y-124157466D01*
X145163000Y-124174204D01*
X145165825Y-124175835D01*
X145172375Y-124180861D01*
X145306291Y-124236330D01*
X145450000Y-124255250D01*
X145593709Y-124236330D01*
X145727625Y-124180861D01*
X145842621Y-124092621D01*
X145930861Y-123977625D01*
X145986330Y-123843709D01*
X146005250Y-123700000D01*
X145986330Y-123556291D01*
X145930861Y-123422375D01*
X145925835Y-123415825D01*
X145924204Y-123413000D01*
X145907466Y-123344004D01*
X145910811Y-123332611D01*
X167274394Y-123332611D01*
X167292999Y-123501135D01*
X167351266Y-123660356D01*
X167355502Y-123666659D01*
X167355502Y-123666660D01*
X167368574Y-123686113D01*
X167445830Y-123801083D01*
X167451442Y-123806190D01*
X167451445Y-123806193D01*
X167565612Y-123910077D01*
X167565616Y-123910080D01*
X167571233Y-123915191D01*
X167577906Y-123918814D01*
X167577910Y-123918817D01*
X167713558Y-123992467D01*
X167713560Y-123992468D01*
X167720235Y-123996092D01*
X167727584Y-123998020D01*
X167876883Y-124037188D01*
X167876885Y-124037188D01*
X167884233Y-124039116D01*
X167970609Y-124040473D01*
X168046161Y-124041660D01*
X168046164Y-124041660D01*
X168053760Y-124041779D01*
X168061165Y-124040083D01*
X168061166Y-124040083D01*
X168121586Y-124026245D01*
X168219029Y-124003928D01*
X168370498Y-123927747D01*
X168499423Y-123817634D01*
X168598361Y-123679947D01*
X168606237Y-123660356D01*
X168658766Y-123529687D01*
X168658767Y-123529685D01*
X168661601Y-123522634D01*
X168685490Y-123354778D01*
X168685645Y-123340000D01*
X168683840Y-123325080D01*
X168666188Y-123179220D01*
X168665276Y-123171680D01*
X168651612Y-123135520D01*
X168608030Y-123020181D01*
X168608028Y-123020177D01*
X168605345Y-123013077D01*
X168603815Y-123010850D01*
X168590388Y-122943260D01*
X168616400Y-122877200D01*
X168673997Y-122835689D01*
X168687755Y-122831703D01*
X168698299Y-122829288D01*
X168809029Y-122803928D01*
X168960498Y-122727747D01*
X169063331Y-122639919D01*
X169083651Y-122622564D01*
X169083652Y-122622563D01*
X169089423Y-122617634D01*
X169188361Y-122479947D01*
X169251601Y-122322634D01*
X169275490Y-122154778D01*
X169275645Y-122140000D01*
X169273840Y-122125080D01*
X169256188Y-121979220D01*
X169255276Y-121971680D01*
X169195345Y-121813077D01*
X169099312Y-121673349D01*
X169087514Y-121662837D01*
X168978392Y-121565612D01*
X168978388Y-121565610D01*
X168972721Y-121560560D01*
X168822881Y-121481224D01*
X168658441Y-121439919D01*
X168650843Y-121439879D01*
X168650841Y-121439879D01*
X168573668Y-121439475D01*
X168488895Y-121439031D01*
X168481508Y-121440805D01*
X168481504Y-121440805D01*
X168338162Y-121475220D01*
X168324032Y-121478612D01*
X168317288Y-121482093D01*
X168317285Y-121482094D01*
X168312089Y-121484776D01*
X168173369Y-121556375D01*
X168045604Y-121667831D01*
X167948113Y-121806547D01*
X167886524Y-121964513D01*
X167864394Y-122132611D01*
X167882999Y-122301135D01*
X167941266Y-122460356D01*
X167945504Y-122466663D01*
X167946116Y-122467864D01*
X167959220Y-122537641D01*
X167932520Y-122603425D01*
X167874493Y-122644332D01*
X167863264Y-122647585D01*
X167747159Y-122675460D01*
X167734032Y-122678612D01*
X167727288Y-122682093D01*
X167727285Y-122682094D01*
X167632224Y-122731159D01*
X167583369Y-122756375D01*
X167455604Y-122867831D01*
X167358113Y-123006547D01*
X167296524Y-123164513D01*
X167295532Y-123172046D01*
X167295532Y-123172047D01*
X167280399Y-123287000D01*
X167274394Y-123332611D01*
X145910811Y-123332611D01*
X145924204Y-123287000D01*
X145925835Y-123284175D01*
X145930861Y-123277625D01*
X145986330Y-123143709D01*
X146005250Y-123000000D01*
X145986330Y-122856291D01*
X145930861Y-122722375D01*
X145842621Y-122607379D01*
X145727625Y-122519139D01*
X145593709Y-122463670D01*
X145450000Y-122444750D01*
X145306291Y-122463670D01*
X145172375Y-122519139D01*
X145165825Y-122524165D01*
X145163000Y-122525796D01*
X145094004Y-122542534D01*
X145037000Y-122525796D01*
X145034175Y-122524165D01*
X145027625Y-122519139D01*
X144893709Y-122463670D01*
X144750000Y-122444750D01*
X144606291Y-122463670D01*
X144472375Y-122519139D01*
X144357379Y-122607379D01*
X144269139Y-122722375D01*
X144213670Y-122856291D01*
X144194750Y-123000000D01*
X144213670Y-123143709D01*
X144269139Y-123277625D01*
X144274165Y-123284175D01*
X144275796Y-123287000D01*
X144292534Y-123355996D01*
X144275796Y-123413000D01*
X144274165Y-123415825D01*
X144269139Y-123422375D01*
X144213670Y-123556291D01*
X144194750Y-123700000D01*
X142435250Y-123700000D01*
X142416330Y-123556291D01*
X142360861Y-123422375D01*
X142355835Y-123415825D01*
X142354204Y-123413000D01*
X142337466Y-123344004D01*
X142354204Y-123287000D01*
X142355835Y-123284175D01*
X142360861Y-123277625D01*
X142416330Y-123143709D01*
X142435250Y-123000000D01*
X142416330Y-122856291D01*
X142360861Y-122722375D01*
X142272621Y-122607379D01*
X142157625Y-122519139D01*
X142023709Y-122463670D01*
X141880000Y-122444750D01*
X141736291Y-122463670D01*
X141602375Y-122519139D01*
X141595825Y-122524165D01*
X141593000Y-122525796D01*
X141524004Y-122542534D01*
X141467000Y-122525796D01*
X141464175Y-122524165D01*
X141457625Y-122519139D01*
X141323709Y-122463670D01*
X141180000Y-122444750D01*
X141036291Y-122463670D01*
X140902375Y-122519139D01*
X140787379Y-122607379D01*
X140699139Y-122722375D01*
X140643670Y-122856291D01*
X140624750Y-123000000D01*
X140643670Y-123143709D01*
X140699139Y-123277625D01*
X140704165Y-123284175D01*
X140705796Y-123287000D01*
X140722534Y-123355996D01*
X140705796Y-123413000D01*
X140704165Y-123415825D01*
X140699139Y-123422375D01*
X140643670Y-123556291D01*
X140624750Y-123700000D01*
X130300500Y-123700000D01*
X130300500Y-120242611D01*
X151234394Y-120242611D01*
X151252999Y-120411135D01*
X151255609Y-120418266D01*
X151300428Y-120540739D01*
X151311266Y-120570356D01*
X151315502Y-120576659D01*
X151315502Y-120576660D01*
X151325001Y-120590796D01*
X151405830Y-120711083D01*
X151411442Y-120716190D01*
X151411445Y-120716193D01*
X151525612Y-120820077D01*
X151525616Y-120820080D01*
X151531233Y-120825191D01*
X151537906Y-120828814D01*
X151537910Y-120828817D01*
X151673558Y-120902467D01*
X151673560Y-120902468D01*
X151680235Y-120906092D01*
X151687584Y-120908020D01*
X151836883Y-120947188D01*
X151836885Y-120947188D01*
X151844233Y-120949116D01*
X151930609Y-120950473D01*
X152006161Y-120951660D01*
X152006164Y-120951660D01*
X152013760Y-120951779D01*
X152021165Y-120950083D01*
X152021166Y-120950083D01*
X152081586Y-120936245D01*
X152179029Y-120913928D01*
X152330498Y-120837747D01*
X152409713Y-120770090D01*
X152453651Y-120732564D01*
X152453652Y-120732563D01*
X152459423Y-120727634D01*
X152558361Y-120589947D01*
X152558797Y-120588864D01*
X152607199Y-120540739D01*
X152676617Y-120525846D01*
X152743065Y-120550848D01*
X152771849Y-120581224D01*
X152861594Y-120714780D01*
X152861597Y-120714783D01*
X152865830Y-120721083D01*
X152871442Y-120726190D01*
X152871445Y-120726193D01*
X152985612Y-120830077D01*
X152985616Y-120830080D01*
X152991233Y-120835191D01*
X152997906Y-120838814D01*
X152997910Y-120838817D01*
X153133558Y-120912467D01*
X153133560Y-120912468D01*
X153140235Y-120916092D01*
X153147584Y-120918020D01*
X153296883Y-120957188D01*
X153296885Y-120957188D01*
X153304233Y-120959116D01*
X153390609Y-120960473D01*
X153466161Y-120961660D01*
X153466164Y-120961660D01*
X153473760Y-120961779D01*
X153481165Y-120960083D01*
X153481166Y-120960083D01*
X153541586Y-120946245D01*
X153639029Y-120923928D01*
X153790498Y-120847747D01*
X153919423Y-120737634D01*
X154018361Y-120599947D01*
X154026237Y-120580356D01*
X154078766Y-120449687D01*
X154078767Y-120449685D01*
X154081601Y-120442634D01*
X154105490Y-120274778D01*
X154105645Y-120260000D01*
X154085276Y-120091680D01*
X154025345Y-119933077D01*
X153937499Y-119805261D01*
X153915399Y-119737792D01*
X153933284Y-119669085D01*
X153939016Y-119660368D01*
X153988075Y-119592094D01*
X154018361Y-119549947D01*
X154026237Y-119530356D01*
X154078766Y-119399687D01*
X154078767Y-119399685D01*
X154081601Y-119392634D01*
X154105490Y-119224778D01*
X154105645Y-119210000D01*
X154103840Y-119195080D01*
X154086188Y-119049220D01*
X154085276Y-119041680D01*
X154025345Y-118883077D01*
X153945899Y-118767483D01*
X153923800Y-118700016D01*
X153941685Y-118631309D01*
X153947418Y-118622592D01*
X154023927Y-118516119D01*
X154023930Y-118516113D01*
X154028361Y-118509947D01*
X154036237Y-118490356D01*
X154088766Y-118359687D01*
X154088767Y-118359685D01*
X154091601Y-118352634D01*
X154115490Y-118184778D01*
X154115645Y-118170000D01*
X154113840Y-118155080D01*
X154096188Y-118009220D01*
X154095276Y-118001680D01*
X154035345Y-117843077D01*
X153939312Y-117703349D01*
X153927514Y-117692837D01*
X153818392Y-117595612D01*
X153818388Y-117595610D01*
X153812721Y-117590560D01*
X153804283Y-117586092D01*
X153681645Y-117521159D01*
X153662881Y-117511224D01*
X153498441Y-117469919D01*
X153490843Y-117469879D01*
X153490841Y-117469879D01*
X153413668Y-117469475D01*
X153328895Y-117469031D01*
X153321508Y-117470805D01*
X153321504Y-117470805D01*
X153199582Y-117500077D01*
X153164032Y-117508612D01*
X153157288Y-117512093D01*
X153157285Y-117512094D01*
X153020117Y-117582892D01*
X153013369Y-117586375D01*
X153007647Y-117591367D01*
X153007645Y-117591368D01*
X152961321Y-117631779D01*
X152885604Y-117697831D01*
X152788113Y-117836547D01*
X152726524Y-117994513D01*
X152704394Y-118162611D01*
X152722999Y-118331135D01*
X152781266Y-118490356D01*
X152785502Y-118496659D01*
X152785502Y-118496660D01*
X152798484Y-118515979D01*
X152856525Y-118602353D01*
X152864091Y-118613613D01*
X152885483Y-118681310D01*
X152866879Y-118749826D01*
X152862601Y-118756333D01*
X152778113Y-118876547D01*
X152716524Y-119034513D01*
X152715532Y-119042046D01*
X152715532Y-119042047D01*
X152701144Y-119151340D01*
X152694394Y-119202611D01*
X152712999Y-119371135D01*
X152771266Y-119530356D01*
X152775502Y-119536659D01*
X152775502Y-119536660D01*
X152862414Y-119665999D01*
X152883806Y-119733696D01*
X152865202Y-119802212D01*
X152860922Y-119808721D01*
X152778113Y-119926547D01*
X152776452Y-119925379D01*
X152733926Y-119968558D01*
X152664669Y-119984178D01*
X152597962Y-119959875D01*
X152566017Y-119922615D01*
X152565345Y-119923077D01*
X152473614Y-119789608D01*
X152473613Y-119789607D01*
X152469312Y-119783349D01*
X152457514Y-119772837D01*
X152348392Y-119675612D01*
X152348388Y-119675610D01*
X152342721Y-119670560D01*
X152192881Y-119591224D01*
X152028441Y-119549919D01*
X152020843Y-119549879D01*
X152020841Y-119549879D01*
X151943668Y-119549475D01*
X151858895Y-119549031D01*
X151851508Y-119550805D01*
X151851504Y-119550805D01*
X151708162Y-119585220D01*
X151694032Y-119588612D01*
X151687288Y-119592093D01*
X151687285Y-119592094D01*
X151682089Y-119594776D01*
X151543369Y-119666375D01*
X151415604Y-119777831D01*
X151318113Y-119916547D01*
X151256524Y-120074513D01*
X151255532Y-120082046D01*
X151255532Y-120082047D01*
X151255208Y-120084513D01*
X151234394Y-120242611D01*
X130300500Y-120242611D01*
X130300500Y-119000000D01*
X149194750Y-119000000D01*
X149213670Y-119143709D01*
X149269139Y-119277625D01*
X149357379Y-119392621D01*
X149472375Y-119480861D01*
X149606291Y-119536330D01*
X149750000Y-119555250D01*
X149893709Y-119536330D01*
X150027625Y-119480861D01*
X150142621Y-119392621D01*
X150175039Y-119350373D01*
X150232376Y-119308507D01*
X150303247Y-119304286D01*
X150365150Y-119339051D01*
X150374958Y-119350370D01*
X150407379Y-119392621D01*
X150522375Y-119480861D01*
X150656291Y-119536330D01*
X150800000Y-119555250D01*
X150943709Y-119536330D01*
X151077625Y-119480861D01*
X151192621Y-119392621D01*
X151280861Y-119277625D01*
X151336330Y-119143709D01*
X151355250Y-119000000D01*
X151336330Y-118856291D01*
X151280861Y-118722375D01*
X151192621Y-118607379D01*
X151077625Y-118519139D01*
X150943709Y-118463670D01*
X150800000Y-118444750D01*
X150656291Y-118463670D01*
X150522375Y-118519139D01*
X150407379Y-118607379D01*
X150374962Y-118649626D01*
X150317624Y-118691493D01*
X150246753Y-118695714D01*
X150184850Y-118660949D01*
X150175038Y-118649626D01*
X150142621Y-118607379D01*
X150027625Y-118519139D01*
X149893709Y-118463670D01*
X149750000Y-118444750D01*
X149606291Y-118463670D01*
X149472375Y-118519139D01*
X149357379Y-118607379D01*
X149269139Y-118722375D01*
X149213670Y-118856291D01*
X149194750Y-119000000D01*
X130300500Y-119000000D01*
X130300500Y-116922611D01*
X134949394Y-116922611D01*
X134967999Y-117091135D01*
X134978448Y-117119687D01*
X135023084Y-117241660D01*
X135026266Y-117250356D01*
X135030502Y-117256659D01*
X135030502Y-117256660D01*
X135043574Y-117276113D01*
X135120830Y-117391083D01*
X135126442Y-117396190D01*
X135126445Y-117396193D01*
X135240612Y-117500077D01*
X135240616Y-117500080D01*
X135246233Y-117505191D01*
X135252906Y-117508814D01*
X135252910Y-117508817D01*
X135388558Y-117582467D01*
X135388560Y-117582468D01*
X135395235Y-117586092D01*
X135402584Y-117588020D01*
X135551883Y-117627188D01*
X135551885Y-117627188D01*
X135559233Y-117629116D01*
X135645609Y-117630473D01*
X135721161Y-117631660D01*
X135721164Y-117631660D01*
X135728760Y-117631779D01*
X135736165Y-117630083D01*
X135736166Y-117630083D01*
X135796586Y-117616245D01*
X135894029Y-117593928D01*
X136045498Y-117517747D01*
X136174423Y-117407634D01*
X136174677Y-117407932D01*
X136231551Y-117373706D01*
X136302517Y-117375799D01*
X136348270Y-117402402D01*
X136389257Y-117439698D01*
X136455612Y-117500077D01*
X136455616Y-117500080D01*
X136461233Y-117505191D01*
X136467906Y-117508814D01*
X136467910Y-117508817D01*
X136603558Y-117582467D01*
X136603560Y-117582468D01*
X136610235Y-117586092D01*
X136617584Y-117588020D01*
X136766883Y-117627188D01*
X136766885Y-117627188D01*
X136774233Y-117629116D01*
X136860609Y-117630473D01*
X136936161Y-117631660D01*
X136936164Y-117631660D01*
X136943760Y-117631779D01*
X136951165Y-117630083D01*
X136951166Y-117630083D01*
X137011586Y-117616245D01*
X137109029Y-117593928D01*
X137260498Y-117517747D01*
X137389423Y-117407634D01*
X137389677Y-117407932D01*
X137446551Y-117373706D01*
X137517517Y-117375799D01*
X137563270Y-117402402D01*
X137604257Y-117439698D01*
X137670612Y-117500077D01*
X137670616Y-117500080D01*
X137676233Y-117505191D01*
X137682906Y-117508814D01*
X137682910Y-117508817D01*
X137818558Y-117582467D01*
X137818560Y-117582468D01*
X137825235Y-117586092D01*
X137832584Y-117588020D01*
X137981883Y-117627188D01*
X137981885Y-117627188D01*
X137989233Y-117629116D01*
X138075609Y-117630473D01*
X138151161Y-117631660D01*
X138151164Y-117631660D01*
X138158760Y-117631779D01*
X138166165Y-117630083D01*
X138166166Y-117630083D01*
X138226586Y-117616245D01*
X138324029Y-117593928D01*
X138475498Y-117517747D01*
X138604423Y-117407634D01*
X138604677Y-117407932D01*
X138661551Y-117373706D01*
X138732517Y-117375799D01*
X138778270Y-117402402D01*
X138819257Y-117439698D01*
X138885612Y-117500077D01*
X138885616Y-117500080D01*
X138891233Y-117505191D01*
X138897906Y-117508814D01*
X138897910Y-117508817D01*
X139033558Y-117582467D01*
X139033560Y-117582468D01*
X139040235Y-117586092D01*
X139047584Y-117588020D01*
X139196883Y-117627188D01*
X139196885Y-117627188D01*
X139204233Y-117629116D01*
X139290609Y-117630473D01*
X139366161Y-117631660D01*
X139366164Y-117631660D01*
X139373760Y-117631779D01*
X139381165Y-117630083D01*
X139381166Y-117630083D01*
X139441586Y-117616245D01*
X139539029Y-117593928D01*
X139690498Y-117517747D01*
X139819423Y-117407634D01*
X139819677Y-117407932D01*
X139876551Y-117373706D01*
X139947517Y-117375799D01*
X139993270Y-117402402D01*
X140034257Y-117439698D01*
X140100612Y-117500077D01*
X140100616Y-117500080D01*
X140106233Y-117505191D01*
X140112906Y-117508814D01*
X140112910Y-117508817D01*
X140248558Y-117582467D01*
X140248560Y-117582468D01*
X140255235Y-117586092D01*
X140262584Y-117588020D01*
X140411883Y-117627188D01*
X140411885Y-117627188D01*
X140419233Y-117629116D01*
X140505609Y-117630473D01*
X140581161Y-117631660D01*
X140581164Y-117631660D01*
X140588760Y-117631779D01*
X140596165Y-117630083D01*
X140596166Y-117630083D01*
X140656586Y-117616245D01*
X140754029Y-117593928D01*
X140905498Y-117517747D01*
X140984713Y-117450090D01*
X141028651Y-117412564D01*
X141028652Y-117412563D01*
X141034423Y-117407634D01*
X141133361Y-117269947D01*
X141141237Y-117250356D01*
X141193766Y-117119687D01*
X141193767Y-117119685D01*
X141196601Y-117112634D01*
X141212477Y-117001083D01*
X141219909Y-116948862D01*
X141219909Y-116948859D01*
X141220490Y-116944778D01*
X141220645Y-116930000D01*
X141218840Y-116915080D01*
X141201188Y-116769220D01*
X141200276Y-116761680D01*
X141140345Y-116603077D01*
X141091915Y-116532611D01*
X172714394Y-116532611D01*
X172732999Y-116701135D01*
X172791266Y-116860356D01*
X172795502Y-116866659D01*
X172795502Y-116866660D01*
X172808574Y-116886113D01*
X172885830Y-117001083D01*
X172891442Y-117006190D01*
X172891445Y-117006193D01*
X173005612Y-117110077D01*
X173005616Y-117110080D01*
X173011233Y-117115191D01*
X173017906Y-117118814D01*
X173017910Y-117118817D01*
X173153558Y-117192467D01*
X173153560Y-117192468D01*
X173160235Y-117196092D01*
X173167584Y-117198020D01*
X173316883Y-117237188D01*
X173316885Y-117237188D01*
X173324233Y-117239116D01*
X173410609Y-117240473D01*
X173486161Y-117241660D01*
X173486164Y-117241660D01*
X173493760Y-117241779D01*
X173501165Y-117240083D01*
X173501166Y-117240083D01*
X173561586Y-117226245D01*
X173659029Y-117203928D01*
X173810498Y-117127747D01*
X173939423Y-117017634D01*
X174038361Y-116879947D01*
X174046237Y-116860356D01*
X174098766Y-116729687D01*
X174098767Y-116729685D01*
X174101601Y-116722634D01*
X174125490Y-116554778D01*
X174125645Y-116540000D01*
X174123840Y-116525080D01*
X174118864Y-116483968D01*
X174105276Y-116371680D01*
X174045345Y-116213077D01*
X173981926Y-116120802D01*
X173953614Y-116079608D01*
X173953613Y-116079607D01*
X173949312Y-116073349D01*
X173937514Y-116062837D01*
X173828392Y-115965612D01*
X173828388Y-115965610D01*
X173822721Y-115960560D01*
X173794316Y-115945520D01*
X173755080Y-115924746D01*
X173672881Y-115881224D01*
X173508441Y-115839919D01*
X173500843Y-115839879D01*
X173500841Y-115839879D01*
X173423668Y-115839475D01*
X173338895Y-115839031D01*
X173331508Y-115840805D01*
X173331504Y-115840805D01*
X173188162Y-115875220D01*
X173174032Y-115878612D01*
X173167288Y-115882093D01*
X173167285Y-115882094D01*
X173044400Y-115945520D01*
X173023369Y-115956375D01*
X173017647Y-115961367D01*
X173017645Y-115961368D01*
X172981231Y-115993134D01*
X172895604Y-116067831D01*
X172877087Y-116094178D01*
X172805473Y-116196075D01*
X172798113Y-116206547D01*
X172736524Y-116364513D01*
X172735532Y-116372046D01*
X172735532Y-116372047D01*
X172720798Y-116483968D01*
X172714394Y-116532611D01*
X141091915Y-116532611D01*
X141086739Y-116525080D01*
X141048614Y-116469608D01*
X141048613Y-116469607D01*
X141044312Y-116463349D01*
X141038119Y-116457831D01*
X140923392Y-116355612D01*
X140923388Y-116355610D01*
X140917721Y-116350560D01*
X140767881Y-116271224D01*
X140603441Y-116229919D01*
X140595843Y-116229879D01*
X140595841Y-116229879D01*
X140518668Y-116229475D01*
X140433895Y-116229031D01*
X140426508Y-116230805D01*
X140426504Y-116230805D01*
X140283162Y-116265220D01*
X140269032Y-116268612D01*
X140262288Y-116272093D01*
X140262285Y-116272094D01*
X140125117Y-116342892D01*
X140118369Y-116346375D01*
X140112647Y-116351367D01*
X140112645Y-116351368D01*
X140096732Y-116365250D01*
X139990604Y-116457831D01*
X139988576Y-116455507D01*
X139940123Y-116485339D01*
X139869140Y-116483968D01*
X139823147Y-116457856D01*
X139726425Y-116371680D01*
X139702721Y-116350560D01*
X139552881Y-116271224D01*
X139388441Y-116229919D01*
X139380843Y-116229879D01*
X139380841Y-116229879D01*
X139303668Y-116229475D01*
X139218895Y-116229031D01*
X139211508Y-116230805D01*
X139211504Y-116230805D01*
X139068162Y-116265220D01*
X139054032Y-116268612D01*
X139047288Y-116272093D01*
X139047285Y-116272094D01*
X138910117Y-116342892D01*
X138903369Y-116346375D01*
X138897647Y-116351367D01*
X138897645Y-116351368D01*
X138881732Y-116365250D01*
X138775604Y-116457831D01*
X138773576Y-116455507D01*
X138725123Y-116485339D01*
X138654140Y-116483968D01*
X138608147Y-116457856D01*
X138511425Y-116371680D01*
X138487721Y-116350560D01*
X138337881Y-116271224D01*
X138173441Y-116229919D01*
X138165843Y-116229879D01*
X138165841Y-116229879D01*
X138088668Y-116229475D01*
X138003895Y-116229031D01*
X137996508Y-116230805D01*
X137996504Y-116230805D01*
X137853162Y-116265220D01*
X137839032Y-116268612D01*
X137832288Y-116272093D01*
X137832285Y-116272094D01*
X137695117Y-116342892D01*
X137688369Y-116346375D01*
X137682647Y-116351367D01*
X137682645Y-116351368D01*
X137666732Y-116365250D01*
X137560604Y-116457831D01*
X137558576Y-116455507D01*
X137510123Y-116485339D01*
X137439140Y-116483968D01*
X137393147Y-116457856D01*
X137296425Y-116371680D01*
X137272721Y-116350560D01*
X137122881Y-116271224D01*
X136958441Y-116229919D01*
X136950843Y-116229879D01*
X136950841Y-116229879D01*
X136873668Y-116229475D01*
X136788895Y-116229031D01*
X136781508Y-116230805D01*
X136781504Y-116230805D01*
X136638162Y-116265220D01*
X136624032Y-116268612D01*
X136617288Y-116272093D01*
X136617285Y-116272094D01*
X136480117Y-116342892D01*
X136473369Y-116346375D01*
X136467647Y-116351367D01*
X136467645Y-116351368D01*
X136451732Y-116365250D01*
X136345604Y-116457831D01*
X136343576Y-116455507D01*
X136295123Y-116485339D01*
X136224140Y-116483968D01*
X136178147Y-116457856D01*
X136081425Y-116371680D01*
X136057721Y-116350560D01*
X135907881Y-116271224D01*
X135743441Y-116229919D01*
X135735843Y-116229879D01*
X135735841Y-116229879D01*
X135658668Y-116229475D01*
X135573895Y-116229031D01*
X135566508Y-116230805D01*
X135566504Y-116230805D01*
X135423162Y-116265220D01*
X135409032Y-116268612D01*
X135402288Y-116272093D01*
X135402285Y-116272094D01*
X135265117Y-116342892D01*
X135258369Y-116346375D01*
X135252647Y-116351367D01*
X135252645Y-116351368D01*
X135236732Y-116365250D01*
X135130604Y-116457831D01*
X135126237Y-116464045D01*
X135047140Y-116576589D01*
X135033113Y-116596547D01*
X134971524Y-116754513D01*
X134970532Y-116762046D01*
X134970532Y-116762047D01*
X134955011Y-116879947D01*
X134949394Y-116922611D01*
X130300500Y-116922611D01*
X130300500Y-115810000D01*
X142224750Y-115810000D01*
X142243670Y-115953709D01*
X142299139Y-116087625D01*
X142387379Y-116202621D01*
X142502375Y-116290861D01*
X142636291Y-116346330D01*
X142780000Y-116365250D01*
X142923709Y-116346330D01*
X143057625Y-116290861D01*
X143172621Y-116202621D01*
X143205039Y-116160373D01*
X143262376Y-116118507D01*
X143333247Y-116114286D01*
X143395150Y-116149051D01*
X143404958Y-116160370D01*
X143437379Y-116202621D01*
X143552375Y-116290861D01*
X143686291Y-116346330D01*
X143830000Y-116365250D01*
X143973709Y-116346330D01*
X144107625Y-116290861D01*
X144222621Y-116202621D01*
X144310861Y-116087625D01*
X144366330Y-115953709D01*
X144385250Y-115810000D01*
X144644750Y-115810000D01*
X144663670Y-115953709D01*
X144719139Y-116087625D01*
X144807379Y-116202621D01*
X144922375Y-116290861D01*
X145056291Y-116346330D01*
X145200000Y-116365250D01*
X145343709Y-116346330D01*
X145477625Y-116290861D01*
X145592621Y-116202621D01*
X145630040Y-116153856D01*
X145687375Y-116111991D01*
X145758246Y-116107769D01*
X145820149Y-116142533D01*
X145829951Y-116153844D01*
X145867379Y-116202621D01*
X145982375Y-116290861D01*
X146116291Y-116346330D01*
X146260000Y-116365250D01*
X146403709Y-116346330D01*
X146537625Y-116290861D01*
X146652621Y-116202621D01*
X146705038Y-116134310D01*
X146762376Y-116092443D01*
X146833247Y-116088221D01*
X146895149Y-116122985D01*
X146904961Y-116134308D01*
X146957379Y-116202621D01*
X147072375Y-116290861D01*
X147206291Y-116346330D01*
X147350000Y-116365250D01*
X147493709Y-116346330D01*
X147627625Y-116290861D01*
X147742621Y-116202621D01*
X147770039Y-116166889D01*
X147827376Y-116125023D01*
X147898247Y-116120802D01*
X147960150Y-116155567D01*
X147969958Y-116166885D01*
X147997379Y-116202621D01*
X148112375Y-116290861D01*
X148246291Y-116346330D01*
X148390000Y-116365250D01*
X148533709Y-116346330D01*
X148667625Y-116290861D01*
X148782621Y-116202621D01*
X148870861Y-116087625D01*
X148926330Y-115953709D01*
X148945250Y-115810000D01*
X148926330Y-115666291D01*
X148870861Y-115532375D01*
X148782621Y-115417379D01*
X148667625Y-115329139D01*
X148533709Y-115273670D01*
X148390000Y-115254750D01*
X148246291Y-115273670D01*
X148112375Y-115329139D01*
X147997379Y-115417379D01*
X147969961Y-115453111D01*
X147912624Y-115494977D01*
X147841753Y-115499198D01*
X147779850Y-115464433D01*
X147770042Y-115453115D01*
X147742621Y-115417379D01*
X147627625Y-115329139D01*
X147493709Y-115273670D01*
X147350000Y-115254750D01*
X147206291Y-115273670D01*
X147072375Y-115329139D01*
X146957379Y-115417379D01*
X146929962Y-115453110D01*
X146904962Y-115485690D01*
X146847624Y-115527557D01*
X146776753Y-115531779D01*
X146714851Y-115497015D01*
X146705038Y-115485690D01*
X146680039Y-115453110D01*
X146652621Y-115417379D01*
X146537625Y-115329139D01*
X146403709Y-115273670D01*
X146260000Y-115254750D01*
X146116291Y-115273670D01*
X145982375Y-115329139D01*
X145867379Y-115417379D01*
X145829960Y-115466144D01*
X145772625Y-115508009D01*
X145701754Y-115512231D01*
X145639851Y-115477467D01*
X145630049Y-115466156D01*
X145592621Y-115417379D01*
X145477625Y-115329139D01*
X145343709Y-115273670D01*
X145200000Y-115254750D01*
X145056291Y-115273670D01*
X144922375Y-115329139D01*
X144807379Y-115417379D01*
X144719139Y-115532375D01*
X144663670Y-115666291D01*
X144644750Y-115810000D01*
X144385250Y-115810000D01*
X144366330Y-115666291D01*
X144310861Y-115532375D01*
X144222621Y-115417379D01*
X144107625Y-115329139D01*
X143973709Y-115273670D01*
X143830000Y-115254750D01*
X143686291Y-115273670D01*
X143552375Y-115329139D01*
X143437379Y-115417379D01*
X143404962Y-115459626D01*
X143347624Y-115501493D01*
X143276753Y-115505714D01*
X143214850Y-115470949D01*
X143205038Y-115459626D01*
X143172621Y-115417379D01*
X143057625Y-115329139D01*
X142923709Y-115273670D01*
X142780000Y-115254750D01*
X142636291Y-115273670D01*
X142502375Y-115329139D01*
X142387379Y-115417379D01*
X142299139Y-115532375D01*
X142243670Y-115666291D01*
X142224750Y-115810000D01*
X130300500Y-115810000D01*
X130300500Y-114490000D01*
X154594750Y-114490000D01*
X154613670Y-114633709D01*
X154669139Y-114767625D01*
X154757379Y-114882621D01*
X154872375Y-114970861D01*
X155006291Y-115026330D01*
X155150000Y-115045250D01*
X155293709Y-115026330D01*
X155427625Y-114970861D01*
X155542621Y-114882621D01*
X155630861Y-114767625D01*
X155686330Y-114633709D01*
X155705250Y-114490000D01*
X155686330Y-114346291D01*
X155630861Y-114212375D01*
X155542621Y-114097379D01*
X155427625Y-114009139D01*
X155293709Y-113953670D01*
X155150000Y-113934750D01*
X155006291Y-113953670D01*
X154872375Y-114009139D01*
X154757379Y-114097379D01*
X154669139Y-114212375D01*
X154613670Y-114346291D01*
X154594750Y-114490000D01*
X130300500Y-114490000D01*
X130300500Y-113407214D01*
X131113418Y-113407214D01*
X131114091Y-113409322D01*
X131173664Y-113525239D01*
X131180311Y-113535552D01*
X131291421Y-113675738D01*
X131299944Y-113684564D01*
X131436170Y-113800502D01*
X131446242Y-113807502D01*
X131584185Y-113884596D01*
X131597936Y-113887729D01*
X131599220Y-113886049D01*
X131600000Y-113881844D01*
X131600000Y-113872209D01*
X132400000Y-113872209D01*
X132403973Y-113885740D01*
X132407443Y-113886239D01*
X132409158Y-113885698D01*
X132519458Y-113829982D01*
X132529817Y-113823407D01*
X132670777Y-113713278D01*
X132679659Y-113704820D01*
X132796543Y-113569409D01*
X132803617Y-113559381D01*
X132885209Y-113415754D01*
X132888438Y-113402023D01*
X132886951Y-113400870D01*
X132882349Y-113400000D01*
X132418115Y-113400000D01*
X132402876Y-113404475D01*
X132401671Y-113405865D01*
X132400000Y-113413548D01*
X132400000Y-113872209D01*
X131600000Y-113872209D01*
X131600000Y-113418115D01*
X131595525Y-113402876D01*
X131594135Y-113401671D01*
X131586452Y-113400000D01*
X131127415Y-113400000D01*
X131113884Y-113403973D01*
X131113418Y-113407214D01*
X130300500Y-113407214D01*
X130300500Y-112986314D01*
X134019876Y-112986314D01*
X134021025Y-113000000D01*
X134035268Y-113169608D01*
X134035884Y-113176948D01*
X134037583Y-113182872D01*
X134077283Y-113321325D01*
X134088614Y-113360843D01*
X134091433Y-113366328D01*
X134173242Y-113525511D01*
X134173245Y-113525516D01*
X134176060Y-113530993D01*
X134294889Y-113680918D01*
X134299583Y-113684913D01*
X134333334Y-113713637D01*
X134440575Y-113804907D01*
X134445953Y-113807913D01*
X134445955Y-113807914D01*
X134509733Y-113843558D01*
X134607570Y-113898237D01*
X134789512Y-113957354D01*
X134979472Y-113980005D01*
X134985607Y-113979533D01*
X134985609Y-113979533D01*
X135164071Y-113965801D01*
X135164075Y-113965800D01*
X135170213Y-113965328D01*
X135354472Y-113913882D01*
X135525228Y-113827627D01*
X135530630Y-113823407D01*
X135620875Y-113752900D01*
X135675979Y-113709848D01*
X135683226Y-113701453D01*
X135751280Y-113622611D01*
X143824394Y-113622611D01*
X143842999Y-113791135D01*
X143862183Y-113843558D01*
X143877786Y-113886193D01*
X143901266Y-113950356D01*
X143905502Y-113956659D01*
X143905502Y-113956660D01*
X143915064Y-113970890D01*
X143995830Y-114091083D01*
X144001442Y-114096190D01*
X144001445Y-114096193D01*
X144115612Y-114200077D01*
X144115616Y-114200080D01*
X144121233Y-114205191D01*
X144127906Y-114208814D01*
X144127910Y-114208817D01*
X144263558Y-114282467D01*
X144263560Y-114282468D01*
X144270235Y-114286092D01*
X144277584Y-114288020D01*
X144426883Y-114327188D01*
X144426885Y-114327188D01*
X144434233Y-114329116D01*
X144520609Y-114330473D01*
X144596161Y-114331660D01*
X144596164Y-114331660D01*
X144603760Y-114331779D01*
X144611165Y-114330083D01*
X144611166Y-114330083D01*
X144671586Y-114316245D01*
X144769029Y-114293928D01*
X144920498Y-114217747D01*
X145031681Y-114122787D01*
X145043651Y-114112564D01*
X145043652Y-114112563D01*
X145049423Y-114107634D01*
X145148361Y-113969947D01*
X145153130Y-113958083D01*
X145208766Y-113819687D01*
X145208767Y-113819685D01*
X145211601Y-113812634D01*
X145220990Y-113746660D01*
X145234909Y-113648862D01*
X145234909Y-113648859D01*
X145235490Y-113644778D01*
X145235645Y-113630000D01*
X145233840Y-113615080D01*
X145225256Y-113544154D01*
X145215276Y-113461680D01*
X145196734Y-113412611D01*
X163764394Y-113412611D01*
X163782999Y-113581135D01*
X163804780Y-113640653D01*
X163830102Y-113709848D01*
X163841266Y-113740356D01*
X163845502Y-113746659D01*
X163845502Y-113746660D01*
X163858574Y-113766113D01*
X163935830Y-113881083D01*
X163941442Y-113886190D01*
X163941445Y-113886193D01*
X164055612Y-113990077D01*
X164055616Y-113990080D01*
X164061233Y-113995191D01*
X164067906Y-113998814D01*
X164067910Y-113998817D01*
X164203558Y-114072467D01*
X164203560Y-114072468D01*
X164210235Y-114076092D01*
X164217584Y-114078020D01*
X164366883Y-114117188D01*
X164366885Y-114117188D01*
X164374233Y-114119116D01*
X164460609Y-114120473D01*
X164536161Y-114121660D01*
X164536164Y-114121660D01*
X164543760Y-114121779D01*
X164551165Y-114120083D01*
X164551166Y-114120083D01*
X164611586Y-114106245D01*
X164709029Y-114083928D01*
X164860498Y-114007747D01*
X164894065Y-113979078D01*
X166895672Y-113979078D01*
X166914592Y-114122787D01*
X166970061Y-114256703D01*
X167058301Y-114371699D01*
X167173297Y-114459939D01*
X167307213Y-114515408D01*
X167450922Y-114534328D01*
X167594631Y-114515408D01*
X167728547Y-114459939D01*
X167843543Y-114371699D01*
X167931783Y-114256703D01*
X167987252Y-114122787D01*
X168006172Y-113979078D01*
X167987252Y-113835369D01*
X167931783Y-113701453D01*
X167843543Y-113586457D01*
X167728547Y-113498217D01*
X167594631Y-113442748D01*
X167450922Y-113423828D01*
X167307213Y-113442748D01*
X167173297Y-113498217D01*
X167058301Y-113586457D01*
X166970061Y-113701453D01*
X166914592Y-113835369D01*
X166895672Y-113979078D01*
X164894065Y-113979078D01*
X164989423Y-113897634D01*
X165088361Y-113759947D01*
X165096237Y-113740356D01*
X165148766Y-113609687D01*
X165148767Y-113609685D01*
X165151601Y-113602634D01*
X165165746Y-113503246D01*
X165174909Y-113438862D01*
X165174909Y-113438859D01*
X165175490Y-113434778D01*
X165175645Y-113420000D01*
X165173935Y-113405865D01*
X165163120Y-113316501D01*
X165155276Y-113251680D01*
X165095345Y-113093077D01*
X165063682Y-113047007D01*
X165003614Y-112959608D01*
X165003613Y-112959607D01*
X164999312Y-112953349D01*
X164987514Y-112942837D01*
X164878392Y-112845612D01*
X164878388Y-112845610D01*
X164872721Y-112840560D01*
X164844890Y-112825824D01*
X164788941Y-112796201D01*
X164722881Y-112761224D01*
X164558441Y-112719919D01*
X164550843Y-112719879D01*
X164550841Y-112719879D01*
X164473668Y-112719475D01*
X164388895Y-112719031D01*
X164381508Y-112720805D01*
X164381504Y-112720805D01*
X164238162Y-112755220D01*
X164224032Y-112758612D01*
X164217288Y-112762093D01*
X164217285Y-112762094D01*
X164103171Y-112820993D01*
X164073369Y-112836375D01*
X163945604Y-112947831D01*
X163848113Y-113086547D01*
X163786524Y-113244513D01*
X163785532Y-113252046D01*
X163785532Y-113252047D01*
X163765521Y-113404054D01*
X163764394Y-113412611D01*
X145196734Y-113412611D01*
X145155345Y-113303077D01*
X145120021Y-113251680D01*
X145063614Y-113169608D01*
X145063613Y-113169607D01*
X145059312Y-113163349D01*
X145046495Y-113151929D01*
X144938392Y-113055612D01*
X144938388Y-113055610D01*
X144932721Y-113050560D01*
X144782881Y-112971224D01*
X144618441Y-112929919D01*
X144610843Y-112929879D01*
X144610841Y-112929879D01*
X144533668Y-112929475D01*
X144448895Y-112929031D01*
X144441508Y-112930805D01*
X144441504Y-112930805D01*
X144298162Y-112965220D01*
X144284032Y-112968612D01*
X144277288Y-112972093D01*
X144277285Y-112972094D01*
X144140117Y-113042892D01*
X144133369Y-113046375D01*
X144005604Y-113157831D01*
X143908113Y-113296547D01*
X143846524Y-113454513D01*
X143845532Y-113462046D01*
X143845532Y-113462047D01*
X143828015Y-113595108D01*
X143824394Y-113622611D01*
X135751280Y-113622611D01*
X135796958Y-113569692D01*
X135796959Y-113569691D01*
X135800982Y-113565030D01*
X135812547Y-113544673D01*
X135863728Y-113454577D01*
X135895476Y-113398691D01*
X135955861Y-113217166D01*
X135971537Y-113093077D01*
X135979396Y-113030872D01*
X135979397Y-113030863D01*
X135979838Y-113027369D01*
X135980220Y-113000000D01*
X135961552Y-112809608D01*
X135906259Y-112626467D01*
X135883745Y-112584124D01*
X135819342Y-112463001D01*
X135819341Y-112462999D01*
X135816446Y-112457555D01*
X135731930Y-112353928D01*
X135699430Y-112314078D01*
X135699427Y-112314075D01*
X135695535Y-112309303D01*
X135679207Y-112295795D01*
X135561700Y-112198585D01*
X135521961Y-112139751D01*
X135520339Y-112068773D01*
X135557349Y-112008185D01*
X135621239Y-111977225D01*
X135642015Y-111975500D01*
X135719646Y-111975500D01*
X135723350Y-111975059D01*
X135723353Y-111975059D01*
X135730805Y-111974172D01*
X135745846Y-111972382D01*
X135779558Y-111957408D01*
X135837518Y-111931663D01*
X135848153Y-111926939D01*
X135861188Y-111913882D01*
X135919023Y-111855945D01*
X135927241Y-111847713D01*
X135934895Y-111830402D01*
X135968675Y-111753992D01*
X135972506Y-111745327D01*
X135975500Y-111719646D01*
X135975500Y-111420000D01*
X141204750Y-111420000D01*
X141223670Y-111563709D01*
X141279139Y-111697625D01*
X141367379Y-111812621D01*
X141482375Y-111900861D01*
X141616291Y-111956330D01*
X141760000Y-111975250D01*
X141903709Y-111956330D01*
X142037625Y-111900861D01*
X142044179Y-111895832D01*
X142051327Y-111891705D01*
X142053029Y-111894652D01*
X142104502Y-111874746D01*
X142174052Y-111889003D01*
X142178560Y-111891900D01*
X142178673Y-111891705D01*
X142185821Y-111895832D01*
X142192375Y-111900861D01*
X142326291Y-111956330D01*
X142470000Y-111975250D01*
X142613709Y-111956330D01*
X142747625Y-111900861D01*
X142862621Y-111812621D01*
X142950861Y-111697625D01*
X143006330Y-111563709D01*
X143025250Y-111420000D01*
X143006330Y-111276291D01*
X142950861Y-111142375D01*
X142862621Y-111027379D01*
X142747625Y-110939139D01*
X142613709Y-110883670D01*
X142470000Y-110864750D01*
X142326291Y-110883670D01*
X142192375Y-110939139D01*
X142185822Y-110944167D01*
X142178673Y-110948295D01*
X142176971Y-110945348D01*
X142125498Y-110965254D01*
X142055948Y-110950997D01*
X142051440Y-110948100D01*
X142051327Y-110948295D01*
X142044178Y-110944167D01*
X142037625Y-110939139D01*
X141903709Y-110883670D01*
X141760000Y-110864750D01*
X141616291Y-110883670D01*
X141482375Y-110939139D01*
X141367379Y-111027379D01*
X141279139Y-111142375D01*
X141223670Y-111276291D01*
X141204750Y-111420000D01*
X135975500Y-111420000D01*
X135975500Y-110652611D01*
X163294394Y-110652611D01*
X163312999Y-110821135D01*
X163345754Y-110910642D01*
X163365917Y-110965738D01*
X163371266Y-110980356D01*
X163375502Y-110986659D01*
X163375504Y-110986664D01*
X163460431Y-111113050D01*
X163481823Y-111180747D01*
X163463219Y-111249263D01*
X163458936Y-111255776D01*
X163392690Y-111350035D01*
X163388113Y-111356547D01*
X163326524Y-111514513D01*
X163325532Y-111522046D01*
X163325532Y-111522047D01*
X163315879Y-111595374D01*
X163304394Y-111682611D01*
X163322999Y-111851135D01*
X163381266Y-112010356D01*
X163385502Y-112016659D01*
X163385502Y-112016660D01*
X163398574Y-112036113D01*
X163475830Y-112151083D01*
X163481442Y-112156190D01*
X163481445Y-112156193D01*
X163595612Y-112260077D01*
X163595616Y-112260080D01*
X163601233Y-112265191D01*
X163607906Y-112268814D01*
X163607910Y-112268817D01*
X163743558Y-112342467D01*
X163743560Y-112342468D01*
X163750235Y-112346092D01*
X163757584Y-112348020D01*
X163906883Y-112387188D01*
X163906885Y-112387188D01*
X163914233Y-112389116D01*
X164000609Y-112390473D01*
X164076161Y-112391660D01*
X164076164Y-112391660D01*
X164083760Y-112391779D01*
X164091165Y-112390083D01*
X164091166Y-112390083D01*
X164151586Y-112376245D01*
X164249029Y-112353928D01*
X164400498Y-112277747D01*
X164402176Y-112276314D01*
X170079876Y-112276314D01*
X170080392Y-112282458D01*
X170094718Y-112453058D01*
X170095884Y-112466948D01*
X170097583Y-112472872D01*
X170139690Y-112619719D01*
X170148614Y-112650843D01*
X170151433Y-112656328D01*
X170233242Y-112815511D01*
X170233245Y-112815516D01*
X170236060Y-112820993D01*
X170354889Y-112970918D01*
X170359583Y-112974913D01*
X170497801Y-113092546D01*
X170536714Y-113151929D01*
X170537345Y-113222923D01*
X170499493Y-113282988D01*
X170435177Y-113313053D01*
X170416138Y-113314500D01*
X170340354Y-113314500D01*
X170336650Y-113314941D01*
X170336647Y-113314941D01*
X170329254Y-113315821D01*
X170314154Y-113317618D01*
X170211847Y-113363061D01*
X170132759Y-113442287D01*
X170128056Y-113452924D01*
X170128055Y-113452926D01*
X170124185Y-113461680D01*
X170087494Y-113544673D01*
X170084500Y-113570354D01*
X170084500Y-115009646D01*
X170087618Y-115035846D01*
X170133061Y-115138153D01*
X170212287Y-115217241D01*
X170222924Y-115221944D01*
X170222926Y-115221945D01*
X170282462Y-115248265D01*
X170314673Y-115262506D01*
X170340354Y-115265500D01*
X171779646Y-115265500D01*
X171783350Y-115265059D01*
X171783353Y-115265059D01*
X171790746Y-115264179D01*
X171805846Y-115262382D01*
X171820602Y-115255828D01*
X171897518Y-115221663D01*
X171908153Y-115216939D01*
X171987241Y-115137713D01*
X172032506Y-115035327D01*
X172035500Y-115009646D01*
X172035500Y-113570354D01*
X172034867Y-113565030D01*
X172033499Y-113553541D01*
X172032382Y-113544154D01*
X172014212Y-113503246D01*
X171991663Y-113452482D01*
X171986939Y-113441847D01*
X171975726Y-113430653D01*
X171915945Y-113370977D01*
X171907713Y-113362759D01*
X171897076Y-113358056D01*
X171897074Y-113358055D01*
X171837538Y-113331735D01*
X171805327Y-113317494D01*
X171779646Y-113314500D01*
X171699173Y-113314500D01*
X171631052Y-113294498D01*
X171584559Y-113240842D01*
X171574455Y-113170568D01*
X171603949Y-113105988D01*
X171621600Y-113089210D01*
X171624661Y-113086819D01*
X171735979Y-112999848D01*
X171747662Y-112986314D01*
X171856958Y-112859692D01*
X171856959Y-112859691D01*
X171860982Y-112855030D01*
X171955476Y-112688691D01*
X172015861Y-112507166D01*
X172030759Y-112389235D01*
X172039396Y-112320872D01*
X172039397Y-112320863D01*
X172039838Y-112317369D01*
X172040220Y-112290000D01*
X172038878Y-112276314D01*
X173079876Y-112276314D01*
X173080392Y-112282458D01*
X173094718Y-112453058D01*
X173095884Y-112466948D01*
X173097583Y-112472872D01*
X173139690Y-112619719D01*
X173148614Y-112650843D01*
X173151433Y-112656328D01*
X173233242Y-112815511D01*
X173233245Y-112815516D01*
X173236060Y-112820993D01*
X173354889Y-112970918D01*
X173359583Y-112974913D01*
X173497801Y-113092546D01*
X173536714Y-113151929D01*
X173537345Y-113222923D01*
X173499493Y-113282988D01*
X173435177Y-113313053D01*
X173416138Y-113314500D01*
X173340354Y-113314500D01*
X173336650Y-113314941D01*
X173336647Y-113314941D01*
X173329254Y-113315821D01*
X173314154Y-113317618D01*
X173211847Y-113363061D01*
X173132759Y-113442287D01*
X173128056Y-113452924D01*
X173128055Y-113452926D01*
X173124185Y-113461680D01*
X173087494Y-113544673D01*
X173084500Y-113570354D01*
X173084500Y-115009646D01*
X173087618Y-115035846D01*
X173133061Y-115138153D01*
X173212287Y-115217241D01*
X173222924Y-115221944D01*
X173222926Y-115221945D01*
X173282462Y-115248265D01*
X173314673Y-115262506D01*
X173340354Y-115265500D01*
X174779646Y-115265500D01*
X174783350Y-115265059D01*
X174783353Y-115265059D01*
X174790746Y-115264179D01*
X174805846Y-115262382D01*
X174820602Y-115255828D01*
X174897518Y-115221663D01*
X174908153Y-115216939D01*
X174987241Y-115137713D01*
X175032506Y-115035327D01*
X175035500Y-115009646D01*
X175035500Y-113570354D01*
X175034867Y-113565030D01*
X175033499Y-113553541D01*
X175032382Y-113544154D01*
X175014212Y-113503246D01*
X174991663Y-113452482D01*
X174986939Y-113441847D01*
X174975726Y-113430653D01*
X174915945Y-113370977D01*
X174907713Y-113362759D01*
X174897076Y-113358056D01*
X174897074Y-113358055D01*
X174837538Y-113331735D01*
X174805327Y-113317494D01*
X174779646Y-113314500D01*
X174699173Y-113314500D01*
X174631052Y-113294498D01*
X174584559Y-113240842D01*
X174574455Y-113170568D01*
X174603949Y-113105988D01*
X174621600Y-113089210D01*
X174624661Y-113086819D01*
X174735979Y-112999848D01*
X174747662Y-112986314D01*
X174856958Y-112859692D01*
X174856959Y-112859691D01*
X174860982Y-112855030D01*
X174955476Y-112688691D01*
X175015861Y-112507166D01*
X175030759Y-112389235D01*
X175039396Y-112320872D01*
X175039397Y-112320863D01*
X175039838Y-112317369D01*
X175040220Y-112290000D01*
X175021552Y-112099608D01*
X174966259Y-111916467D01*
X174931521Y-111851135D01*
X174879342Y-111753001D01*
X174879341Y-111752999D01*
X174876446Y-111747555D01*
X174817337Y-111675080D01*
X174759430Y-111604078D01*
X174759427Y-111604075D01*
X174755535Y-111599303D01*
X174721734Y-111571340D01*
X174612879Y-111481288D01*
X174608132Y-111477361D01*
X174472555Y-111404054D01*
X174464575Y-111399739D01*
X174414166Y-111349744D01*
X174398789Y-111280433D01*
X174423326Y-111213811D01*
X174467694Y-111176438D01*
X174579455Y-111119984D01*
X174589818Y-111113407D01*
X174730777Y-111003278D01*
X174739659Y-110994820D01*
X174856543Y-110859409D01*
X174863617Y-110849381D01*
X174945209Y-110705754D01*
X174948438Y-110692023D01*
X174946951Y-110690870D01*
X174942349Y-110690000D01*
X173187415Y-110690000D01*
X173173884Y-110693973D01*
X173173418Y-110697214D01*
X173174091Y-110699322D01*
X173233664Y-110815239D01*
X173240311Y-110825552D01*
X173351421Y-110965738D01*
X173359944Y-110974564D01*
X173496170Y-111090502D01*
X173506242Y-111097502D01*
X173655229Y-111180767D01*
X173704935Y-111231460D01*
X173719344Y-111300979D01*
X173693880Y-111367252D01*
X173652135Y-111402416D01*
X173528732Y-111466930D01*
X173528728Y-111466932D01*
X173523268Y-111469787D01*
X173518468Y-111473647D01*
X173518467Y-111473647D01*
X173399011Y-111569692D01*
X173374176Y-111589660D01*
X173251207Y-111736208D01*
X173248237Y-111741611D01*
X173248236Y-111741612D01*
X173203032Y-111823838D01*
X173159045Y-111903850D01*
X173157184Y-111909717D01*
X173157183Y-111909719D01*
X173136316Y-111975500D01*
X173101200Y-112086201D01*
X173079876Y-112276314D01*
X172038878Y-112276314D01*
X172021552Y-112099608D01*
X171966259Y-111916467D01*
X171931521Y-111851135D01*
X171879342Y-111753001D01*
X171879341Y-111752999D01*
X171876446Y-111747555D01*
X171817337Y-111675080D01*
X171759430Y-111604078D01*
X171759427Y-111604075D01*
X171755535Y-111599303D01*
X171721734Y-111571340D01*
X171612879Y-111481288D01*
X171608132Y-111477361D01*
X171465107Y-111400027D01*
X171414701Y-111350035D01*
X171399324Y-111280724D01*
X171423860Y-111214102D01*
X171468228Y-111176728D01*
X171579734Y-111120402D01*
X171585228Y-111117627D01*
X171590630Y-111113407D01*
X171700741Y-111027379D01*
X171735979Y-110999848D01*
X171741977Y-110992900D01*
X171856958Y-110859692D01*
X171856959Y-110859691D01*
X171860982Y-110855030D01*
X171955476Y-110688691D01*
X172015861Y-110507166D01*
X172031817Y-110380861D01*
X172039396Y-110320872D01*
X172039397Y-110320863D01*
X172039838Y-110317369D01*
X172040220Y-110290000D01*
X172021552Y-110099608D01*
X171966259Y-109916467D01*
X171951067Y-109887896D01*
X173172921Y-109887896D01*
X173174797Y-109889309D01*
X173178594Y-109890000D01*
X173641885Y-109890000D01*
X173657124Y-109885525D01*
X173658329Y-109884135D01*
X173660000Y-109876452D01*
X173660000Y-109871885D01*
X174460000Y-109871885D01*
X174464475Y-109887124D01*
X174465865Y-109888329D01*
X174473548Y-109890000D01*
X174933505Y-109890000D01*
X174947036Y-109886027D01*
X174947436Y-109883244D01*
X174946492Y-109880356D01*
X174878922Y-109753274D01*
X174872135Y-109743058D01*
X174759074Y-109604432D01*
X174750430Y-109595728D01*
X174612601Y-109481706D01*
X174602430Y-109474846D01*
X174464536Y-109400287D01*
X174460606Y-109405582D01*
X174460000Y-109408981D01*
X174460000Y-109871885D01*
X173660000Y-109871885D01*
X173660000Y-109416983D01*
X173655525Y-109401743D01*
X173654675Y-109401007D01*
X173652655Y-109402709D01*
X173529003Y-109467353D01*
X173518738Y-109474069D01*
X173379327Y-109586159D01*
X173370568Y-109594737D01*
X173255580Y-109731774D01*
X173248655Y-109741888D01*
X173175958Y-109874124D01*
X173172921Y-109887896D01*
X171951067Y-109887896D01*
X171946240Y-109878817D01*
X171879342Y-109753001D01*
X171879341Y-109752999D01*
X171876446Y-109747555D01*
X171813257Y-109670077D01*
X171759430Y-109604078D01*
X171759427Y-109604075D01*
X171755535Y-109599303D01*
X171719742Y-109569692D01*
X171612879Y-109481288D01*
X171608132Y-109477361D01*
X171465107Y-109400027D01*
X171414701Y-109350035D01*
X171399324Y-109280724D01*
X171423860Y-109214102D01*
X171468228Y-109176728D01*
X171532068Y-109144480D01*
X171585228Y-109117627D01*
X171590630Y-109113407D01*
X171672766Y-109049235D01*
X171735979Y-108999848D01*
X171747662Y-108986314D01*
X171856958Y-108859692D01*
X171856959Y-108859691D01*
X171860982Y-108855030D01*
X171950634Y-108697214D01*
X173173418Y-108697214D01*
X173174091Y-108699322D01*
X173233664Y-108815239D01*
X173240311Y-108825552D01*
X173351421Y-108965738D01*
X173359944Y-108974564D01*
X173496170Y-109090502D01*
X173506242Y-109097502D01*
X173655499Y-109180919D01*
X173659220Y-109176049D01*
X173660000Y-109171844D01*
X173660000Y-109162209D01*
X174460000Y-109162209D01*
X174464475Y-109177448D01*
X174465363Y-109178218D01*
X174467151Y-109176712D01*
X174579458Y-109119982D01*
X174589817Y-109113407D01*
X174730777Y-109003278D01*
X174739659Y-108994820D01*
X174856543Y-108859409D01*
X174863617Y-108849381D01*
X174945209Y-108705754D01*
X174948438Y-108692023D01*
X174946951Y-108690870D01*
X174942349Y-108690000D01*
X174478115Y-108690000D01*
X174462876Y-108694475D01*
X174461671Y-108695865D01*
X174460000Y-108703548D01*
X174460000Y-109162209D01*
X173660000Y-109162209D01*
X173660000Y-108708115D01*
X173655525Y-108692876D01*
X173654135Y-108691671D01*
X173646452Y-108690000D01*
X173187415Y-108690000D01*
X173173884Y-108693973D01*
X173173418Y-108697214D01*
X171950634Y-108697214D01*
X171955476Y-108688691D01*
X172015861Y-108507166D01*
X172024159Y-108441481D01*
X172039396Y-108320872D01*
X172039397Y-108320863D01*
X172039838Y-108317369D01*
X172040220Y-108290000D01*
X172021552Y-108099608D01*
X171966259Y-107916467D01*
X171951068Y-107887896D01*
X173172921Y-107887896D01*
X173174797Y-107889309D01*
X173178594Y-107890000D01*
X173641885Y-107890000D01*
X173657124Y-107885525D01*
X173658329Y-107884135D01*
X173660000Y-107876452D01*
X173660000Y-107871885D01*
X174460000Y-107871885D01*
X174464475Y-107887124D01*
X174465865Y-107888329D01*
X174473548Y-107890000D01*
X174933505Y-107890000D01*
X174947036Y-107886027D01*
X174947436Y-107883244D01*
X174946492Y-107880356D01*
X174878922Y-107753274D01*
X174872135Y-107743058D01*
X174759074Y-107604432D01*
X174750430Y-107595728D01*
X174612601Y-107481706D01*
X174602430Y-107474846D01*
X174475935Y-107406450D01*
X174462144Y-107403510D01*
X174460606Y-107405582D01*
X174460000Y-107408981D01*
X174460000Y-107871885D01*
X173660000Y-107871885D01*
X173660000Y-107416983D01*
X173656027Y-107403452D01*
X173653015Y-107403019D01*
X173650516Y-107403826D01*
X173529007Y-107467350D01*
X173518738Y-107474069D01*
X173379327Y-107586159D01*
X173370568Y-107594737D01*
X173255580Y-107731774D01*
X173248655Y-107741888D01*
X173175958Y-107874124D01*
X173172921Y-107887896D01*
X171951068Y-107887896D01*
X171945716Y-107877831D01*
X171879342Y-107753001D01*
X171879341Y-107752999D01*
X171876446Y-107747555D01*
X171814139Y-107671159D01*
X171759430Y-107604078D01*
X171759427Y-107604075D01*
X171755535Y-107599303D01*
X171677544Y-107534783D01*
X171612879Y-107481288D01*
X171608132Y-107477361D01*
X171540071Y-107440560D01*
X171445276Y-107389304D01*
X171445273Y-107389303D01*
X171439851Y-107386371D01*
X171296814Y-107342094D01*
X171262988Y-107331623D01*
X171262985Y-107331622D01*
X171257101Y-107329801D01*
X171250976Y-107329157D01*
X171250975Y-107329157D01*
X171072971Y-107310448D01*
X171072970Y-107310448D01*
X171066843Y-107309804D01*
X170965013Y-107319071D01*
X170882466Y-107326583D01*
X170882465Y-107326583D01*
X170876325Y-107327142D01*
X170692803Y-107381156D01*
X170687338Y-107384013D01*
X170528728Y-107466932D01*
X170528724Y-107466935D01*
X170523268Y-107469787D01*
X170518468Y-107473647D01*
X170518467Y-107473647D01*
X170434594Y-107541083D01*
X170374176Y-107589660D01*
X170251207Y-107736208D01*
X170248237Y-107741611D01*
X170248236Y-107741612D01*
X170226154Y-107781779D01*
X170159045Y-107903850D01*
X170157184Y-107909717D01*
X170157183Y-107909719D01*
X170154232Y-107919023D01*
X170101200Y-108086201D01*
X170079876Y-108276314D01*
X170080392Y-108282458D01*
X170093569Y-108439375D01*
X170095884Y-108466948D01*
X170099937Y-108481083D01*
X170145607Y-108640356D01*
X170148614Y-108650843D01*
X170151433Y-108656328D01*
X170233242Y-108815511D01*
X170233245Y-108815516D01*
X170236060Y-108820993D01*
X170354889Y-108970918D01*
X170359583Y-108974913D01*
X170444506Y-109047188D01*
X170500575Y-109094907D01*
X170505953Y-109097913D01*
X170505955Y-109097914D01*
X170546193Y-109120402D01*
X170648266Y-109177448D01*
X170654700Y-109181044D01*
X170704406Y-109231737D01*
X170718814Y-109301256D01*
X170693351Y-109367529D01*
X170651605Y-109402694D01*
X170523268Y-109469787D01*
X170518468Y-109473647D01*
X170518467Y-109473647D01*
X170403363Y-109566193D01*
X170374176Y-109589660D01*
X170251207Y-109736208D01*
X170248237Y-109741611D01*
X170248236Y-109741612D01*
X170218070Y-109796484D01*
X170159045Y-109903850D01*
X170157184Y-109909717D01*
X170157183Y-109909719D01*
X170103951Y-110077529D01*
X170101200Y-110086201D01*
X170079876Y-110276314D01*
X170080392Y-110282458D01*
X170094902Y-110455250D01*
X170095884Y-110466948D01*
X170097583Y-110472872D01*
X170139690Y-110619719D01*
X170148614Y-110650843D01*
X170151433Y-110656328D01*
X170233242Y-110815511D01*
X170233245Y-110815516D01*
X170236060Y-110820993D01*
X170354889Y-110970918D01*
X170359583Y-110974913D01*
X170393334Y-111003637D01*
X170500575Y-111094907D01*
X170505953Y-111097913D01*
X170505955Y-111097914D01*
X170573784Y-111135822D01*
X170654169Y-111180747D01*
X170654700Y-111181044D01*
X170704406Y-111231737D01*
X170718814Y-111301256D01*
X170693351Y-111367529D01*
X170651605Y-111402694D01*
X170523268Y-111469787D01*
X170518468Y-111473647D01*
X170518467Y-111473647D01*
X170399011Y-111569692D01*
X170374176Y-111589660D01*
X170251207Y-111736208D01*
X170248237Y-111741611D01*
X170248236Y-111741612D01*
X170203032Y-111823838D01*
X170159045Y-111903850D01*
X170157184Y-111909717D01*
X170157183Y-111909719D01*
X170136316Y-111975500D01*
X170101200Y-112086201D01*
X170079876Y-112276314D01*
X164402176Y-112276314D01*
X164493184Y-112198585D01*
X164523651Y-112172564D01*
X164523652Y-112172563D01*
X164529423Y-112167634D01*
X164628361Y-112029947D01*
X164631194Y-112022900D01*
X164688766Y-111879687D01*
X164688767Y-111879685D01*
X164691601Y-111872634D01*
X164701808Y-111800914D01*
X164714909Y-111708862D01*
X164714909Y-111708859D01*
X164715490Y-111704778D01*
X164715645Y-111690000D01*
X164715030Y-111684913D01*
X164704194Y-111595374D01*
X164695276Y-111521680D01*
X164635345Y-111363077D01*
X164592666Y-111300979D01*
X164549636Y-111238370D01*
X164527536Y-111170901D01*
X164545421Y-111102194D01*
X164551153Y-111093477D01*
X164598656Y-111027369D01*
X164618361Y-110999947D01*
X164623701Y-110986664D01*
X164678766Y-110849687D01*
X164678767Y-110849685D01*
X164681601Y-110842634D01*
X164705490Y-110674778D01*
X164705645Y-110660000D01*
X164703840Y-110645080D01*
X164686188Y-110499220D01*
X164685276Y-110491680D01*
X164625345Y-110333077D01*
X164612127Y-110313845D01*
X164533614Y-110199608D01*
X164533613Y-110199607D01*
X164529312Y-110193349D01*
X164523119Y-110187831D01*
X164408392Y-110085612D01*
X164408388Y-110085610D01*
X164402721Y-110080560D01*
X164387988Y-110072759D01*
X164309732Y-110031325D01*
X164252881Y-110001224D01*
X164088441Y-109959919D01*
X164080843Y-109959879D01*
X164080841Y-109959879D01*
X164003668Y-109959475D01*
X163918895Y-109959031D01*
X163911508Y-109960805D01*
X163911504Y-109960805D01*
X163786887Y-109990724D01*
X163754032Y-109998612D01*
X163747288Y-110002093D01*
X163747285Y-110002094D01*
X163618942Y-110068337D01*
X163603369Y-110076375D01*
X163597647Y-110081367D01*
X163597645Y-110081368D01*
X163526276Y-110143627D01*
X163475604Y-110187831D01*
X163471237Y-110194045D01*
X163392994Y-110305374D01*
X163378113Y-110326547D01*
X163316524Y-110484513D01*
X163315532Y-110492046D01*
X163315532Y-110492047D01*
X163297836Y-110626467D01*
X163294394Y-110652611D01*
X135975500Y-110652611D01*
X135975500Y-110280354D01*
X135972382Y-110254154D01*
X135945374Y-110193349D01*
X135931663Y-110162482D01*
X135926939Y-110151847D01*
X135847713Y-110072759D01*
X135837076Y-110068056D01*
X135837074Y-110068055D01*
X135777538Y-110041735D01*
X135745327Y-110027494D01*
X135719646Y-110024500D01*
X134280354Y-110024500D01*
X134276650Y-110024941D01*
X134276647Y-110024941D01*
X134269254Y-110025821D01*
X134254154Y-110027618D01*
X134245514Y-110031456D01*
X134245513Y-110031456D01*
X134163117Y-110068055D01*
X134151847Y-110073061D01*
X134143628Y-110081294D01*
X134143627Y-110081295D01*
X134125346Y-110099608D01*
X134072759Y-110152287D01*
X134068056Y-110162924D01*
X134068055Y-110162926D01*
X134051838Y-110199608D01*
X134027494Y-110254673D01*
X134024500Y-110280354D01*
X134024500Y-111719646D01*
X134027618Y-111745846D01*
X134031456Y-111754486D01*
X134031456Y-111754487D01*
X134057278Y-111812621D01*
X134073061Y-111848153D01*
X134081294Y-111856372D01*
X134081295Y-111856373D01*
X134097585Y-111872634D01*
X134152287Y-111927241D01*
X134162924Y-111931944D01*
X134162926Y-111931945D01*
X134210934Y-111953169D01*
X134254673Y-111972506D01*
X134280354Y-111975500D01*
X134359553Y-111975500D01*
X134427674Y-111995502D01*
X134474167Y-112049158D01*
X134484271Y-112119432D01*
X134454777Y-112184012D01*
X134438505Y-112199697D01*
X134350831Y-112270189D01*
X134314176Y-112299660D01*
X134191207Y-112446208D01*
X134188237Y-112451611D01*
X134188236Y-112451612D01*
X134157695Y-112507166D01*
X134099045Y-112613850D01*
X134097184Y-112619717D01*
X134097183Y-112619719D01*
X134043062Y-112790331D01*
X134041200Y-112796201D01*
X134019876Y-112986314D01*
X130300500Y-112986314D01*
X130300500Y-110986314D01*
X131019876Y-110986314D01*
X131021021Y-110999947D01*
X131032583Y-111137634D01*
X131035884Y-111176948D01*
X131037583Y-111182872D01*
X131085600Y-111350330D01*
X131088614Y-111360843D01*
X131091433Y-111366328D01*
X131173242Y-111525511D01*
X131173245Y-111525516D01*
X131176060Y-111530993D01*
X131294889Y-111680918D01*
X131299583Y-111684913D01*
X131367572Y-111742776D01*
X131440575Y-111804907D01*
X131445953Y-111807913D01*
X131445955Y-111807914D01*
X131595220Y-111891335D01*
X131644926Y-111942028D01*
X131659334Y-112011548D01*
X131633871Y-112077821D01*
X131592126Y-112112984D01*
X131469006Y-112177350D01*
X131458741Y-112184067D01*
X131319327Y-112296159D01*
X131310568Y-112304737D01*
X131195580Y-112441774D01*
X131188655Y-112451888D01*
X131115958Y-112584124D01*
X131112921Y-112597896D01*
X131114797Y-112599309D01*
X131118594Y-112600000D01*
X132873505Y-112600000D01*
X132887036Y-112596027D01*
X132887436Y-112593244D01*
X132886492Y-112590356D01*
X132818922Y-112463274D01*
X132812135Y-112453058D01*
X132699074Y-112314432D01*
X132690430Y-112305728D01*
X132552601Y-112191706D01*
X132542430Y-112184846D01*
X132404568Y-112110304D01*
X132354159Y-112060309D01*
X132338782Y-111990998D01*
X132363318Y-111924376D01*
X132407686Y-111887002D01*
X132485464Y-111847713D01*
X132525228Y-111827627D01*
X132554309Y-111804907D01*
X132641918Y-111736459D01*
X132675979Y-111709848D01*
X132680356Y-111704778D01*
X132796958Y-111569692D01*
X132796959Y-111569691D01*
X132800982Y-111565030D01*
X132806385Y-111555520D01*
X132878719Y-111428188D01*
X132895476Y-111398691D01*
X132955861Y-111217166D01*
X132968436Y-111117627D01*
X132979396Y-111030872D01*
X132979397Y-111030863D01*
X132979838Y-111027369D01*
X132980220Y-111000000D01*
X132961552Y-110809608D01*
X132906259Y-110626467D01*
X132896682Y-110608455D01*
X132819342Y-110463001D01*
X132819341Y-110462999D01*
X132816446Y-110457555D01*
X132720718Y-110340180D01*
X132699430Y-110314078D01*
X132699427Y-110314075D01*
X132695535Y-110309303D01*
X132681446Y-110297647D01*
X132552879Y-110191288D01*
X132548132Y-110187361D01*
X132405107Y-110110027D01*
X132354701Y-110060035D01*
X132339324Y-109990724D01*
X132363860Y-109924102D01*
X132408228Y-109886728D01*
X132519734Y-109830402D01*
X132525228Y-109827627D01*
X132542897Y-109813823D01*
X132617124Y-109755830D01*
X132675979Y-109709848D01*
X132695143Y-109687647D01*
X132796958Y-109569692D01*
X132796959Y-109569691D01*
X132800982Y-109565030D01*
X132895476Y-109398691D01*
X132934959Y-109280000D01*
X137654750Y-109280000D01*
X137673670Y-109423709D01*
X137729139Y-109557625D01*
X137817379Y-109672621D01*
X137932375Y-109760861D01*
X137940009Y-109764023D01*
X137943904Y-109766272D01*
X137992897Y-109817655D01*
X138004380Y-109883554D01*
X138005828Y-109883554D01*
X138005828Y-109891812D01*
X138004750Y-109900000D01*
X138023670Y-110043709D01*
X138079139Y-110177625D01*
X138167379Y-110292621D01*
X138282375Y-110380861D01*
X138416291Y-110436330D01*
X138560000Y-110455250D01*
X138703709Y-110436330D01*
X138837625Y-110380861D01*
X138952621Y-110292621D01*
X139040861Y-110177625D01*
X139096330Y-110043709D01*
X139115250Y-109900000D01*
X139114349Y-109893158D01*
X139134174Y-109825640D01*
X139191952Y-109777353D01*
X139199994Y-109774022D01*
X139199995Y-109774021D01*
X139207625Y-109770861D01*
X139214452Y-109765623D01*
X139316071Y-109687647D01*
X139322621Y-109682621D01*
X139410861Y-109567625D01*
X139466330Y-109433709D01*
X139485250Y-109290000D01*
X139466330Y-109146291D01*
X139410861Y-109012375D01*
X139322621Y-108897379D01*
X139207625Y-108809139D01*
X139073709Y-108753670D01*
X138930000Y-108734750D01*
X138786291Y-108753670D01*
X138778659Y-108756831D01*
X138778660Y-108756831D01*
X138660003Y-108805979D01*
X138660000Y-108805981D01*
X138652375Y-108809139D01*
X138645825Y-108814165D01*
X138639635Y-108817739D01*
X138570640Y-108834477D01*
X138499930Y-108808581D01*
X138494179Y-108804168D01*
X138494178Y-108804168D01*
X138487625Y-108799139D01*
X138353709Y-108743670D01*
X138210000Y-108724750D01*
X138066291Y-108743670D01*
X137932375Y-108799139D01*
X137817379Y-108887379D01*
X137729139Y-109002375D01*
X137673670Y-109136291D01*
X137654750Y-109280000D01*
X132934959Y-109280000D01*
X132955861Y-109217166D01*
X132964815Y-109146291D01*
X132979396Y-109030872D01*
X132979397Y-109030863D01*
X132979838Y-109027369D01*
X132980220Y-109000000D01*
X132961552Y-108809608D01*
X132906259Y-108626467D01*
X132852365Y-108525108D01*
X132819342Y-108463001D01*
X132819341Y-108462999D01*
X132816446Y-108457555D01*
X132728727Y-108350000D01*
X132699430Y-108314078D01*
X132699427Y-108314075D01*
X132695535Y-108309303D01*
X132679207Y-108295795D01*
X132561700Y-108198585D01*
X132521961Y-108139751D01*
X132520339Y-108068773D01*
X132557349Y-108008185D01*
X132589488Y-107992611D01*
X155514394Y-107992611D01*
X155532999Y-108161135D01*
X155543277Y-108189220D01*
X155585423Y-108304388D01*
X155591266Y-108320356D01*
X155685830Y-108461083D01*
X155691442Y-108466190D01*
X155691445Y-108466193D01*
X155805612Y-108570077D01*
X155805616Y-108570080D01*
X155811233Y-108575191D01*
X155817906Y-108578814D01*
X155817910Y-108578817D01*
X155953558Y-108652467D01*
X155953560Y-108652468D01*
X155960235Y-108656092D01*
X155967584Y-108658020D01*
X156116883Y-108697188D01*
X156116885Y-108697188D01*
X156124233Y-108699116D01*
X156210609Y-108700473D01*
X156286161Y-108701660D01*
X156286164Y-108701660D01*
X156293760Y-108701779D01*
X156301165Y-108700083D01*
X156301166Y-108700083D01*
X156376462Y-108682838D01*
X156459029Y-108663928D01*
X156610498Y-108587747D01*
X156702730Y-108508973D01*
X156767517Y-108479943D01*
X156837717Y-108490548D01*
X156869359Y-108511592D01*
X156955612Y-108590077D01*
X156955616Y-108590080D01*
X156961233Y-108595191D01*
X156967906Y-108598814D01*
X156967910Y-108598817D01*
X157103558Y-108672467D01*
X157103560Y-108672468D01*
X157110235Y-108676092D01*
X157117584Y-108678020D01*
X157266883Y-108717188D01*
X157266885Y-108717188D01*
X157274233Y-108719116D01*
X157360609Y-108720473D01*
X157436161Y-108721660D01*
X157436164Y-108721660D01*
X157443760Y-108721779D01*
X157451165Y-108720083D01*
X157451166Y-108720083D01*
X157531086Y-108701779D01*
X157609029Y-108683928D01*
X157760498Y-108607747D01*
X157766272Y-108602816D01*
X157772602Y-108598610D01*
X157774398Y-108601314D01*
X157825768Y-108578275D01*
X157895971Y-108588855D01*
X157949310Y-108635712D01*
X157950027Y-108636971D01*
X157951266Y-108640356D01*
X158045830Y-108781083D01*
X158125416Y-108853501D01*
X158162338Y-108914139D01*
X158160615Y-108985115D01*
X158158012Y-108992454D01*
X158106524Y-109124513D01*
X158105532Y-109132046D01*
X158105532Y-109132047D01*
X158085816Y-109281812D01*
X158084394Y-109292611D01*
X158102999Y-109461135D01*
X158135518Y-109549996D01*
X158155439Y-109604432D01*
X158161266Y-109620356D01*
X158165502Y-109626659D01*
X158165502Y-109626660D01*
X158178574Y-109646113D01*
X158255830Y-109761083D01*
X158261442Y-109766190D01*
X158261445Y-109766193D01*
X158375612Y-109870077D01*
X158375616Y-109870080D01*
X158381233Y-109875191D01*
X158387906Y-109878814D01*
X158387910Y-109878817D01*
X158523558Y-109952467D01*
X158523560Y-109952468D01*
X158530235Y-109956092D01*
X158537584Y-109958020D01*
X158686883Y-109997188D01*
X158686885Y-109997188D01*
X158694233Y-109999116D01*
X158780609Y-110000473D01*
X158856161Y-110001660D01*
X158856164Y-110001660D01*
X158863760Y-110001779D01*
X158871165Y-110000083D01*
X158871166Y-110000083D01*
X158958832Y-109980005D01*
X159029029Y-109963928D01*
X159180498Y-109887747D01*
X159309423Y-109777634D01*
X159408361Y-109639947D01*
X159416237Y-109620356D01*
X159468766Y-109489687D01*
X159468767Y-109489685D01*
X159471601Y-109482634D01*
X159483218Y-109401007D01*
X159494909Y-109318862D01*
X159494909Y-109318859D01*
X159495490Y-109314778D01*
X159495645Y-109300000D01*
X159494216Y-109288188D01*
X159479724Y-109168434D01*
X159491397Y-109098404D01*
X159496648Y-109092611D01*
X162164394Y-109092611D01*
X162182999Y-109261135D01*
X162201120Y-109310653D01*
X162234803Y-109402694D01*
X162241266Y-109420356D01*
X162245502Y-109426659D01*
X162245502Y-109426660D01*
X162255367Y-109441340D01*
X162335830Y-109561083D01*
X162341442Y-109566190D01*
X162341445Y-109566193D01*
X162455612Y-109670077D01*
X162455616Y-109670080D01*
X162461233Y-109675191D01*
X162467906Y-109678814D01*
X162467910Y-109678817D01*
X162603558Y-109752467D01*
X162603560Y-109752468D01*
X162610235Y-109756092D01*
X162617584Y-109758020D01*
X162766883Y-109797188D01*
X162766885Y-109797188D01*
X162774233Y-109799116D01*
X162860609Y-109800473D01*
X162936161Y-109801660D01*
X162936164Y-109801660D01*
X162943760Y-109801779D01*
X162951165Y-109800083D01*
X162951166Y-109800083D01*
X163011586Y-109786245D01*
X163109029Y-109763928D01*
X163260498Y-109687747D01*
X163369807Y-109594388D01*
X163383651Y-109582564D01*
X163383652Y-109582563D01*
X163389423Y-109577634D01*
X163488361Y-109439947D01*
X163498181Y-109415520D01*
X163548766Y-109289687D01*
X163548767Y-109289685D01*
X163551601Y-109282634D01*
X163562809Y-109203882D01*
X163574909Y-109118862D01*
X163574909Y-109118859D01*
X163575490Y-109114778D01*
X163575645Y-109100000D01*
X163574546Y-109090914D01*
X163567346Y-109031421D01*
X163555276Y-108931680D01*
X163495345Y-108773077D01*
X163469744Y-108735828D01*
X163403614Y-108639608D01*
X163403613Y-108639607D01*
X163399312Y-108633349D01*
X163371372Y-108608455D01*
X163278392Y-108525612D01*
X163278388Y-108525610D01*
X163272721Y-108520560D01*
X163255784Y-108511592D01*
X163170039Y-108466193D01*
X163122881Y-108441224D01*
X162958441Y-108399919D01*
X162950843Y-108399879D01*
X162950841Y-108399879D01*
X162873668Y-108399475D01*
X162788895Y-108399031D01*
X162781508Y-108400805D01*
X162781504Y-108400805D01*
X162638162Y-108435220D01*
X162624032Y-108438612D01*
X162617288Y-108442093D01*
X162617285Y-108442094D01*
X162523408Y-108490548D01*
X162473369Y-108516375D01*
X162345604Y-108627831D01*
X162314233Y-108672467D01*
X162254942Y-108756831D01*
X162248113Y-108766547D01*
X162186524Y-108924513D01*
X162185532Y-108932046D01*
X162185532Y-108932047D01*
X162169770Y-109051779D01*
X162164394Y-109092611D01*
X159496648Y-109092611D01*
X159539079Y-109045802D01*
X159607630Y-109027329D01*
X159636782Y-109031421D01*
X159704233Y-109049116D01*
X159790609Y-109050473D01*
X159866161Y-109051660D01*
X159866164Y-109051660D01*
X159873760Y-109051779D01*
X159881165Y-109050083D01*
X159881166Y-109050083D01*
X159995728Y-109023845D01*
X160039029Y-109013928D01*
X160190498Y-108937747D01*
X160281888Y-108859692D01*
X160313651Y-108832564D01*
X160313652Y-108832563D01*
X160319423Y-108827634D01*
X160418361Y-108689947D01*
X160434081Y-108650843D01*
X160478766Y-108539687D01*
X160478767Y-108539685D01*
X160481601Y-108532634D01*
X160494610Y-108441224D01*
X160504909Y-108368862D01*
X160504909Y-108368859D01*
X160505490Y-108364778D01*
X160505645Y-108350000D01*
X160485276Y-108181680D01*
X160425345Y-108023077D01*
X160387865Y-107968544D01*
X160333614Y-107889608D01*
X160333613Y-107889607D01*
X160329312Y-107883349D01*
X160318958Y-107874124D01*
X160208392Y-107775612D01*
X160208388Y-107775610D01*
X160202721Y-107770560D01*
X160188245Y-107762895D01*
X160113562Y-107723353D01*
X160052881Y-107691224D01*
X159888441Y-107649919D01*
X159880843Y-107649879D01*
X159880841Y-107649879D01*
X159803668Y-107649475D01*
X159718895Y-107649031D01*
X159711508Y-107650805D01*
X159711504Y-107650805D01*
X159568162Y-107685220D01*
X159554032Y-107688612D01*
X159547288Y-107692093D01*
X159547285Y-107692094D01*
X159410117Y-107762892D01*
X159403369Y-107766375D01*
X159397647Y-107771367D01*
X159397645Y-107771368D01*
X159388627Y-107779235D01*
X159300895Y-107855769D01*
X159287571Y-107867392D01*
X159223089Y-107897100D01*
X159152782Y-107887230D01*
X159111747Y-107856892D01*
X159109312Y-107853349D01*
X159028984Y-107781779D01*
X158988392Y-107745612D01*
X158988388Y-107745610D01*
X158982721Y-107740560D01*
X158974502Y-107736208D01*
X158851645Y-107671159D01*
X158832881Y-107661224D01*
X158668441Y-107619919D01*
X158660843Y-107619879D01*
X158660841Y-107619879D01*
X158583668Y-107619475D01*
X158498895Y-107619031D01*
X158491508Y-107620805D01*
X158491504Y-107620805D01*
X158370240Y-107649919D01*
X158334032Y-107658612D01*
X158327288Y-107662093D01*
X158327285Y-107662094D01*
X158190117Y-107732892D01*
X158183369Y-107736375D01*
X158177856Y-107741184D01*
X158110385Y-107762895D01*
X158041772Y-107744651D01*
X157996665Y-107696571D01*
X157995345Y-107693077D01*
X157930896Y-107599303D01*
X157903614Y-107559608D01*
X157903613Y-107559607D01*
X157899312Y-107553349D01*
X157893119Y-107547831D01*
X157778392Y-107445612D01*
X157778388Y-107445610D01*
X157772721Y-107440560D01*
X157745436Y-107426113D01*
X157675915Y-107389304D01*
X157622881Y-107361224D01*
X157458441Y-107319919D01*
X157450843Y-107319879D01*
X157450841Y-107319879D01*
X157373668Y-107319475D01*
X157288895Y-107319031D01*
X157281508Y-107320805D01*
X157281504Y-107320805D01*
X157138162Y-107355220D01*
X157124032Y-107358612D01*
X157117288Y-107362093D01*
X157117285Y-107362094D01*
X156993251Y-107426113D01*
X156973369Y-107436375D01*
X156967647Y-107441367D01*
X156967645Y-107441368D01*
X156888871Y-107510087D01*
X156824389Y-107539795D01*
X156754082Y-107529925D01*
X156722228Y-107509218D01*
X156622721Y-107420560D01*
X156615966Y-107416983D01*
X156548300Y-107381156D01*
X156472881Y-107341224D01*
X156308441Y-107299919D01*
X156300843Y-107299879D01*
X156300841Y-107299879D01*
X156223668Y-107299475D01*
X156138895Y-107299031D01*
X156131508Y-107300805D01*
X156131504Y-107300805D01*
X155988162Y-107335220D01*
X155974032Y-107338612D01*
X155967288Y-107342093D01*
X155967285Y-107342094D01*
X155830117Y-107412892D01*
X155823369Y-107416375D01*
X155817647Y-107421367D01*
X155817645Y-107421368D01*
X155812206Y-107426113D01*
X155695604Y-107527831D01*
X155682699Y-107546193D01*
X155603154Y-107659375D01*
X155598113Y-107666547D01*
X155536524Y-107824513D01*
X155535532Y-107832046D01*
X155535532Y-107832047D01*
X155516420Y-107977225D01*
X155514394Y-107992611D01*
X132589488Y-107992611D01*
X132621239Y-107977225D01*
X132642015Y-107975500D01*
X132719646Y-107975500D01*
X132723350Y-107975059D01*
X132723353Y-107975059D01*
X132730746Y-107974179D01*
X132745846Y-107972382D01*
X132848153Y-107926939D01*
X132864039Y-107911026D01*
X132919023Y-107855945D01*
X132927241Y-107847713D01*
X132940628Y-107817434D01*
X132968675Y-107753992D01*
X132972506Y-107745327D01*
X132975500Y-107719646D01*
X132975500Y-107072611D01*
X163814394Y-107072611D01*
X163832999Y-107241135D01*
X163858333Y-107310363D01*
X163887222Y-107389304D01*
X163891266Y-107400356D01*
X163895502Y-107406659D01*
X163895502Y-107406660D01*
X163904842Y-107420560D01*
X163985830Y-107541083D01*
X163991442Y-107546190D01*
X163991445Y-107546193D01*
X164105612Y-107650077D01*
X164105616Y-107650080D01*
X164111233Y-107655191D01*
X164117906Y-107658814D01*
X164117910Y-107658817D01*
X164253558Y-107732467D01*
X164253560Y-107732468D01*
X164260235Y-107736092D01*
X164267584Y-107738020D01*
X164416883Y-107777188D01*
X164416885Y-107777188D01*
X164424233Y-107779116D01*
X164510609Y-107780473D01*
X164586161Y-107781660D01*
X164586164Y-107781660D01*
X164593760Y-107781779D01*
X164601165Y-107780083D01*
X164601166Y-107780083D01*
X164712925Y-107754487D01*
X164759029Y-107743928D01*
X164910498Y-107667747D01*
X165039423Y-107557634D01*
X165138361Y-107419947D01*
X165146237Y-107400356D01*
X165198766Y-107269687D01*
X165198767Y-107269685D01*
X165201601Y-107262634D01*
X165225490Y-107094778D01*
X165225645Y-107080000D01*
X165223840Y-107065080D01*
X165206188Y-106919220D01*
X165205276Y-106911680D01*
X165145345Y-106753077D01*
X165049312Y-106613349D01*
X165037514Y-106602837D01*
X164928392Y-106505612D01*
X164928388Y-106505610D01*
X164922721Y-106500560D01*
X164772881Y-106421224D01*
X164608441Y-106379919D01*
X164600843Y-106379879D01*
X164600841Y-106379879D01*
X164523668Y-106379475D01*
X164438895Y-106379031D01*
X164431508Y-106380805D01*
X164431504Y-106380805D01*
X164288162Y-106415220D01*
X164274032Y-106418612D01*
X164267288Y-106422093D01*
X164267285Y-106422094D01*
X164262089Y-106424776D01*
X164123369Y-106496375D01*
X163995604Y-106607831D01*
X163898113Y-106746547D01*
X163836524Y-106904513D01*
X163814394Y-107072611D01*
X132975500Y-107072611D01*
X132975500Y-106280354D01*
X132972382Y-106254154D01*
X132926939Y-106151847D01*
X132899065Y-106124021D01*
X132855945Y-106080977D01*
X132847713Y-106072759D01*
X132837076Y-106068056D01*
X132837074Y-106068055D01*
X132756924Y-106032621D01*
X132745327Y-106027494D01*
X132719646Y-106024500D01*
X131280354Y-106024500D01*
X131276650Y-106024941D01*
X131276647Y-106024941D01*
X131269254Y-106025821D01*
X131254154Y-106027618D01*
X131245514Y-106031456D01*
X131245513Y-106031456D01*
X131231575Y-106037647D01*
X131151847Y-106073061D01*
X131072759Y-106152287D01*
X131068056Y-106162924D01*
X131068055Y-106162926D01*
X131053765Y-106195250D01*
X131027494Y-106254673D01*
X131024500Y-106280354D01*
X131024500Y-107719646D01*
X131027618Y-107745846D01*
X131031456Y-107754486D01*
X131031456Y-107754487D01*
X131065907Y-107832047D01*
X131073061Y-107848153D01*
X131081294Y-107856372D01*
X131081295Y-107856373D01*
X131105320Y-107880356D01*
X131152287Y-107927241D01*
X131162924Y-107931944D01*
X131162926Y-107931945D01*
X131222462Y-107958265D01*
X131254673Y-107972506D01*
X131280354Y-107975500D01*
X131359553Y-107975500D01*
X131427674Y-107995502D01*
X131474167Y-108049158D01*
X131484271Y-108119432D01*
X131454777Y-108184012D01*
X131438505Y-108199697D01*
X131350831Y-108270189D01*
X131314176Y-108299660D01*
X131191207Y-108446208D01*
X131188237Y-108451611D01*
X131188236Y-108451612D01*
X131157695Y-108507166D01*
X131099045Y-108613850D01*
X131097184Y-108619717D01*
X131097183Y-108619719D01*
X131053689Y-108756831D01*
X131041200Y-108796201D01*
X131019876Y-108986314D01*
X131021025Y-109000000D01*
X131033310Y-109146291D01*
X131035884Y-109176948D01*
X131037583Y-109182872D01*
X131085515Y-109350035D01*
X131088614Y-109360843D01*
X131091433Y-109366328D01*
X131173242Y-109525511D01*
X131173245Y-109525516D01*
X131176060Y-109530993D01*
X131294889Y-109680918D01*
X131299583Y-109684913D01*
X131433771Y-109799116D01*
X131440575Y-109804907D01*
X131591596Y-109889309D01*
X131594700Y-109891044D01*
X131644406Y-109941737D01*
X131658814Y-110011256D01*
X131633351Y-110077529D01*
X131591605Y-110112694D01*
X131463268Y-110179787D01*
X131458468Y-110183647D01*
X131458467Y-110183647D01*
X131342798Y-110276647D01*
X131314176Y-110299660D01*
X131191207Y-110446208D01*
X131188237Y-110451611D01*
X131188236Y-110451612D01*
X131157695Y-110507166D01*
X131099045Y-110613850D01*
X131097184Y-110619717D01*
X131097183Y-110619719D01*
X131073603Y-110694054D01*
X131041200Y-110796201D01*
X131019876Y-110986314D01*
X130300500Y-110986314D01*
X130300500Y-105640000D01*
X150844750Y-105640000D01*
X150863670Y-105783709D01*
X150919139Y-105917625D01*
X151007379Y-106032621D01*
X151122375Y-106120861D01*
X151256291Y-106176330D01*
X151400000Y-106195250D01*
X151543709Y-106176330D01*
X151677625Y-106120861D01*
X151792621Y-106032621D01*
X151880861Y-105917625D01*
X151936330Y-105783709D01*
X151955250Y-105640000D01*
X151936330Y-105496291D01*
X151880861Y-105362375D01*
X151792621Y-105247379D01*
X151677625Y-105159139D01*
X151543709Y-105103670D01*
X151400000Y-105084750D01*
X151256291Y-105103670D01*
X151122375Y-105159139D01*
X151007379Y-105247379D01*
X150919139Y-105362375D01*
X150863670Y-105496291D01*
X150844750Y-105640000D01*
X130300500Y-105640000D01*
X130300500Y-104983525D01*
X172681922Y-104983525D01*
X172757386Y-105147218D01*
X172763137Y-105157179D01*
X172878455Y-105320350D01*
X172885921Y-105329092D01*
X173029047Y-105468520D01*
X173037981Y-105475754D01*
X173204112Y-105586760D01*
X173214224Y-105592251D01*
X173343355Y-105647729D01*
X173357355Y-105649420D01*
X173360000Y-105645092D01*
X173360000Y-105635640D01*
X174160000Y-105635640D01*
X174163973Y-105649171D01*
X174170669Y-105650133D01*
X174224283Y-105631934D01*
X174234786Y-105627258D01*
X174409124Y-105529625D01*
X174418596Y-105523115D01*
X174572219Y-105395348D01*
X174580348Y-105387219D01*
X174708115Y-105233596D01*
X174714625Y-105224124D01*
X174812258Y-105049786D01*
X174816934Y-105039283D01*
X174832931Y-104992157D01*
X174833518Y-104978064D01*
X174827488Y-104975000D01*
X174178115Y-104975000D01*
X174162876Y-104979475D01*
X174161671Y-104980865D01*
X174160000Y-104988548D01*
X174160000Y-105635640D01*
X173360000Y-105635640D01*
X173360000Y-104993115D01*
X173355525Y-104977876D01*
X173354135Y-104976671D01*
X173346452Y-104975000D01*
X172696107Y-104975000D01*
X172682576Y-104978973D01*
X172681922Y-104983525D01*
X130300500Y-104983525D01*
X130300500Y-103407214D01*
X131113418Y-103407214D01*
X131114091Y-103409322D01*
X131173664Y-103525239D01*
X131180311Y-103535552D01*
X131291421Y-103675738D01*
X131299944Y-103684564D01*
X131436170Y-103800502D01*
X131446242Y-103807502D01*
X131584185Y-103884596D01*
X131597936Y-103887729D01*
X131599220Y-103886049D01*
X131600000Y-103881844D01*
X131600000Y-103872209D01*
X132400000Y-103872209D01*
X132403973Y-103885740D01*
X132407443Y-103886239D01*
X132409158Y-103885698D01*
X132519458Y-103829982D01*
X132529817Y-103823407D01*
X132670777Y-103713278D01*
X132679659Y-103704820D01*
X132796543Y-103569409D01*
X132803617Y-103559381D01*
X132885209Y-103415754D01*
X132888438Y-103402023D01*
X132886951Y-103400870D01*
X132882349Y-103400000D01*
X132418115Y-103400000D01*
X132402876Y-103404475D01*
X132401671Y-103405865D01*
X132400000Y-103413548D01*
X132400000Y-103872209D01*
X131600000Y-103872209D01*
X131600000Y-103418115D01*
X131595525Y-103402876D01*
X131594135Y-103401671D01*
X131586452Y-103400000D01*
X131127415Y-103400000D01*
X131113884Y-103403973D01*
X131113418Y-103407214D01*
X130300500Y-103407214D01*
X130300500Y-102986314D01*
X134019876Y-102986314D01*
X134020392Y-102992458D01*
X134032444Y-103135979D01*
X134035884Y-103176948D01*
X134049094Y-103223018D01*
X134086186Y-103352375D01*
X134088614Y-103360843D01*
X134091433Y-103366328D01*
X134173242Y-103525511D01*
X134173245Y-103525516D01*
X134176060Y-103530993D01*
X134294889Y-103680918D01*
X134299583Y-103684913D01*
X134432797Y-103798287D01*
X134440575Y-103804907D01*
X134445953Y-103807913D01*
X134445955Y-103807914D01*
X134486193Y-103830402D01*
X134607570Y-103898237D01*
X134789512Y-103957354D01*
X134979472Y-103980005D01*
X134985607Y-103979533D01*
X134985609Y-103979533D01*
X135164071Y-103965801D01*
X135164075Y-103965800D01*
X135170213Y-103965328D01*
X135354472Y-103913882D01*
X135401750Y-103890000D01*
X151234750Y-103890000D01*
X151253670Y-104033709D01*
X151309139Y-104167625D01*
X151397379Y-104282621D01*
X151512375Y-104370861D01*
X151646291Y-104426330D01*
X151790000Y-104445250D01*
X151933709Y-104426330D01*
X152067625Y-104370861D01*
X152182621Y-104282621D01*
X152270861Y-104167625D01*
X152326330Y-104033709D01*
X152345250Y-103890000D01*
X152326330Y-103746291D01*
X152278161Y-103630000D01*
X152574750Y-103630000D01*
X152593670Y-103773709D01*
X152649139Y-103907625D01*
X152737379Y-104022621D01*
X152852375Y-104110861D01*
X152986291Y-104166330D01*
X153130000Y-104185250D01*
X153273709Y-104166330D01*
X153407625Y-104110861D01*
X153522621Y-104022621D01*
X153553875Y-103981890D01*
X153611214Y-103940023D01*
X153682085Y-103935802D01*
X153743987Y-103970567D01*
X153753798Y-103981890D01*
X153777379Y-104012621D01*
X153892375Y-104100861D01*
X154026291Y-104156330D01*
X154170000Y-104175250D01*
X154313709Y-104156330D01*
X154447625Y-104100861D01*
X154562621Y-104012621D01*
X154650861Y-103897625D01*
X154706330Y-103763709D01*
X154725250Y-103620000D01*
X154706330Y-103476291D01*
X154650861Y-103342375D01*
X154562621Y-103227379D01*
X154447625Y-103139139D01*
X154328991Y-103090000D01*
X164454750Y-103090000D01*
X164473670Y-103233709D01*
X164529139Y-103367625D01*
X164617379Y-103482621D01*
X164732375Y-103570861D01*
X164866291Y-103626330D01*
X165010000Y-103645250D01*
X165153709Y-103626330D01*
X165287625Y-103570861D01*
X165402621Y-103482621D01*
X165490861Y-103367625D01*
X165546330Y-103233709D01*
X165565250Y-103090000D01*
X165546330Y-102946291D01*
X165490861Y-102812375D01*
X165402621Y-102697379D01*
X165287625Y-102609139D01*
X165153709Y-102553670D01*
X165010000Y-102534750D01*
X164866291Y-102553670D01*
X164732375Y-102609139D01*
X164617379Y-102697379D01*
X164529139Y-102812375D01*
X164473670Y-102946291D01*
X164454750Y-103090000D01*
X154328991Y-103090000D01*
X154313709Y-103083670D01*
X154170000Y-103064750D01*
X154026291Y-103083670D01*
X153892375Y-103139139D01*
X153777379Y-103227379D01*
X153746126Y-103268109D01*
X153746125Y-103268110D01*
X153688786Y-103309977D01*
X153617915Y-103314198D01*
X153556013Y-103279433D01*
X153546201Y-103268109D01*
X153539004Y-103258729D01*
X153522621Y-103237379D01*
X153407625Y-103149139D01*
X153273709Y-103093670D01*
X153130000Y-103074750D01*
X152986291Y-103093670D01*
X152852375Y-103149139D01*
X152737379Y-103237379D01*
X152649139Y-103352375D01*
X152593670Y-103486291D01*
X152574750Y-103630000D01*
X152278161Y-103630000D01*
X152270861Y-103612375D01*
X152182621Y-103497379D01*
X152067625Y-103409139D01*
X151933709Y-103353670D01*
X151790000Y-103334750D01*
X151646291Y-103353670D01*
X151512375Y-103409139D01*
X151397379Y-103497379D01*
X151309139Y-103612375D01*
X151253670Y-103746291D01*
X151234750Y-103890000D01*
X135401750Y-103890000D01*
X135525228Y-103827627D01*
X135530630Y-103823407D01*
X135671129Y-103713637D01*
X135675979Y-103709848D01*
X135697503Y-103684913D01*
X135796958Y-103569692D01*
X135796959Y-103569691D01*
X135800982Y-103565030D01*
X135813035Y-103543814D01*
X135851518Y-103476071D01*
X135895476Y-103398691D01*
X135955861Y-103217166D01*
X135966671Y-103131600D01*
X135979396Y-103030872D01*
X135979397Y-103030863D01*
X135979838Y-103027369D01*
X135980220Y-103000000D01*
X135961552Y-102809608D01*
X135906259Y-102626467D01*
X135901454Y-102617430D01*
X135819342Y-102463001D01*
X135819341Y-102462999D01*
X135816446Y-102457555D01*
X135765583Y-102395191D01*
X135699430Y-102314078D01*
X135699427Y-102314075D01*
X135695535Y-102309303D01*
X135690016Y-102304737D01*
X135561700Y-102198585D01*
X135521961Y-102139751D01*
X135520824Y-102090000D01*
X147374750Y-102090000D01*
X147393670Y-102233709D01*
X147449139Y-102367625D01*
X147537379Y-102482621D01*
X147652375Y-102570861D01*
X147786291Y-102626330D01*
X147930000Y-102645250D01*
X148073709Y-102626330D01*
X148207625Y-102570861D01*
X148322621Y-102482621D01*
X148410861Y-102367625D01*
X148466330Y-102233709D01*
X148485250Y-102090000D01*
X148466330Y-101946291D01*
X148410959Y-101812611D01*
X152794394Y-101812611D01*
X152812999Y-101981135D01*
X152834468Y-102039801D01*
X152862956Y-102117647D01*
X152871266Y-102140356D01*
X152875502Y-102146659D01*
X152875502Y-102146660D01*
X152888574Y-102166113D01*
X152965830Y-102281083D01*
X152971442Y-102286190D01*
X152971445Y-102286193D01*
X153085612Y-102390077D01*
X153085616Y-102390080D01*
X153091233Y-102395191D01*
X153097906Y-102398814D01*
X153097910Y-102398817D01*
X153233558Y-102472467D01*
X153233560Y-102472468D01*
X153240235Y-102476092D01*
X153247584Y-102478020D01*
X153396883Y-102517188D01*
X153396885Y-102517188D01*
X153404233Y-102519116D01*
X153490609Y-102520473D01*
X153566161Y-102521660D01*
X153566164Y-102521660D01*
X153573760Y-102521779D01*
X153581165Y-102520083D01*
X153581166Y-102520083D01*
X153671111Y-102499483D01*
X153739029Y-102483928D01*
X153890498Y-102407747D01*
X154004710Y-102310200D01*
X154013651Y-102302564D01*
X154013652Y-102302563D01*
X154019423Y-102297634D01*
X154118361Y-102159947D01*
X154126480Y-102139751D01*
X154178766Y-102009687D01*
X154178767Y-102009685D01*
X154181601Y-102002634D01*
X154191661Y-101931945D01*
X154204909Y-101838862D01*
X154204909Y-101838859D01*
X154205490Y-101834778D01*
X154205565Y-101827627D01*
X154205602Y-101824135D01*
X154205602Y-101824129D01*
X154205645Y-101820000D01*
X154204183Y-101807914D01*
X154196671Y-101745846D01*
X154193543Y-101720000D01*
X164474750Y-101720000D01*
X164493670Y-101863709D01*
X164549139Y-101997625D01*
X164637379Y-102112621D01*
X164752375Y-102200861D01*
X164886291Y-102256330D01*
X165030000Y-102275250D01*
X165173709Y-102256330D01*
X165307625Y-102200861D01*
X165422621Y-102112621D01*
X165505391Y-102004754D01*
X172604967Y-102004754D01*
X172605345Y-102010520D01*
X172616720Y-102184067D01*
X172618796Y-102215749D01*
X172620217Y-102221345D01*
X172620218Y-102221350D01*
X172667558Y-102407747D01*
X172670845Y-102420690D01*
X172673262Y-102425933D01*
X172723427Y-102534750D01*
X172759369Y-102612714D01*
X172881405Y-102785391D01*
X173032865Y-102932937D01*
X173037661Y-102936142D01*
X173037664Y-102936144D01*
X173133232Y-103000000D01*
X173208677Y-103050411D01*
X173213985Y-103052692D01*
X173213986Y-103052692D01*
X173397650Y-103131600D01*
X173397653Y-103131601D01*
X173402953Y-103133878D01*
X173408582Y-103135152D01*
X173408583Y-103135152D01*
X173603550Y-103179269D01*
X173603553Y-103179269D01*
X173609186Y-103180544D01*
X173614958Y-103180771D01*
X173620687Y-103181525D01*
X173620417Y-103183578D01*
X173678983Y-103203295D01*
X173723341Y-103258729D01*
X173730687Y-103329344D01*
X173698690Y-103392722D01*
X173637507Y-103428739D01*
X173628105Y-103430726D01*
X173466780Y-103458447D01*
X173455660Y-103461427D01*
X173268207Y-103530582D01*
X173257829Y-103535532D01*
X173086119Y-103637688D01*
X173076807Y-103644453D01*
X172926587Y-103776194D01*
X172918670Y-103784537D01*
X172794975Y-103941443D01*
X172788704Y-103951100D01*
X172695681Y-104127909D01*
X172691272Y-104138551D01*
X172685327Y-104157699D01*
X172685109Y-104171799D01*
X172691841Y-104175000D01*
X174824019Y-104175000D01*
X174837550Y-104171027D01*
X174838615Y-104163621D01*
X174835663Y-104155931D01*
X174747292Y-103976733D01*
X174741282Y-103966925D01*
X174621731Y-103806827D01*
X174614041Y-103798287D01*
X174467315Y-103662654D01*
X174458190Y-103655653D01*
X174289209Y-103549034D01*
X174278965Y-103543814D01*
X174093385Y-103469775D01*
X174082347Y-103466505D01*
X173883753Y-103427003D01*
X173820843Y-103394096D01*
X173785711Y-103332401D01*
X173789511Y-103261506D01*
X173831036Y-103203920D01*
X173890253Y-103178728D01*
X174024015Y-103159333D01*
X174024019Y-103159332D01*
X174029730Y-103158504D01*
X174108987Y-103131600D01*
X174224483Y-103092395D01*
X174224488Y-103092393D01*
X174229955Y-103090537D01*
X174276001Y-103064750D01*
X174409395Y-102990046D01*
X174409399Y-102990043D01*
X174414442Y-102987219D01*
X174577012Y-102852012D01*
X174712219Y-102689442D01*
X174715043Y-102684399D01*
X174715046Y-102684395D01*
X174812713Y-102509998D01*
X174812714Y-102509996D01*
X174815537Y-102504955D01*
X174817393Y-102499488D01*
X174817395Y-102499483D01*
X174864744Y-102359996D01*
X174883504Y-102304730D01*
X174887847Y-102274783D01*
X174913314Y-102099140D01*
X174913314Y-102099138D01*
X174913846Y-102095470D01*
X174915429Y-102035000D01*
X174896081Y-101824440D01*
X174892679Y-101812375D01*
X174865474Y-101715914D01*
X174838686Y-101620931D01*
X174831313Y-101605979D01*
X174747719Y-101436469D01*
X174745165Y-101431290D01*
X174618651Y-101261867D01*
X174486820Y-101140004D01*
X174467622Y-101122257D01*
X174467620Y-101122255D01*
X174463381Y-101118337D01*
X174284554Y-101005505D01*
X174088160Y-100927152D01*
X174082503Y-100926027D01*
X174082497Y-100926025D01*
X173926916Y-100895079D01*
X173864006Y-100862172D01*
X173828874Y-100800477D01*
X173832674Y-100729582D01*
X173874199Y-100671996D01*
X173940266Y-100646002D01*
X173951497Y-100645500D01*
X174654646Y-100645500D01*
X174658350Y-100645059D01*
X174658353Y-100645059D01*
X174665746Y-100644179D01*
X174680846Y-100642382D01*
X174728926Y-100621026D01*
X174772518Y-100601663D01*
X174783153Y-100596939D01*
X174862241Y-100517713D01*
X174867499Y-100505822D01*
X174903675Y-100423992D01*
X174907506Y-100415327D01*
X174910500Y-100389646D01*
X174910500Y-98600354D01*
X174907382Y-98574154D01*
X174861939Y-98471847D01*
X174782713Y-98392759D01*
X174772076Y-98388056D01*
X174772074Y-98388055D01*
X174699519Y-98355979D01*
X174680327Y-98347494D01*
X174654646Y-98344500D01*
X172865354Y-98344500D01*
X172861650Y-98344941D01*
X172861647Y-98344941D01*
X172854254Y-98345821D01*
X172839154Y-98347618D01*
X172830514Y-98351456D01*
X172830513Y-98351456D01*
X172748117Y-98388055D01*
X172736847Y-98393061D01*
X172728628Y-98401294D01*
X172728627Y-98401295D01*
X172701781Y-98428188D01*
X172657759Y-98472287D01*
X172612494Y-98574673D01*
X172609500Y-98600354D01*
X172609500Y-100389646D01*
X172612618Y-100415846D01*
X172616456Y-100424486D01*
X172616456Y-100424487D01*
X172648846Y-100497408D01*
X172658061Y-100518153D01*
X172666294Y-100526372D01*
X172666295Y-100526373D01*
X172697835Y-100557858D01*
X172737287Y-100597241D01*
X172747924Y-100601944D01*
X172747926Y-100601945D01*
X172791087Y-100621026D01*
X172839673Y-100642506D01*
X172865354Y-100645500D01*
X173574988Y-100645500D01*
X173643109Y-100665502D01*
X173689602Y-100719158D01*
X173699706Y-100789432D01*
X173670212Y-100854012D01*
X173610486Y-100892396D01*
X173596326Y-100895680D01*
X173466650Y-100917962D01*
X173466649Y-100917962D01*
X173460953Y-100918941D01*
X173262575Y-100992127D01*
X173257614Y-100995079D01*
X173257613Y-100995079D01*
X173148499Y-101059995D01*
X173080856Y-101100238D01*
X172921881Y-101239655D01*
X172790976Y-101405708D01*
X172788287Y-101410819D01*
X172788285Y-101410822D01*
X172759649Y-101465250D01*
X172692523Y-101592836D01*
X172629820Y-101794773D01*
X172604967Y-102004754D01*
X165505391Y-102004754D01*
X165510861Y-101997625D01*
X165566330Y-101863709D01*
X165585250Y-101720000D01*
X165566330Y-101576291D01*
X165510861Y-101442375D01*
X165422621Y-101327379D01*
X165307625Y-101239139D01*
X165173709Y-101183670D01*
X165030000Y-101164750D01*
X164886291Y-101183670D01*
X164752375Y-101239139D01*
X164637379Y-101327379D01*
X164549139Y-101442375D01*
X164493670Y-101576291D01*
X164474750Y-101720000D01*
X154193543Y-101720000D01*
X154185276Y-101651680D01*
X154125345Y-101493077D01*
X154093957Y-101447408D01*
X154033614Y-101359608D01*
X154033613Y-101359607D01*
X154029312Y-101353349D01*
X154017129Y-101342494D01*
X153979575Y-101282245D01*
X153980556Y-101211256D01*
X154000985Y-101171721D01*
X154080861Y-101067625D01*
X154136330Y-100933709D01*
X154138135Y-100920000D01*
X165624750Y-100920000D01*
X165643670Y-101063709D01*
X165699139Y-101197625D01*
X165787379Y-101312621D01*
X165902375Y-101400861D01*
X166036291Y-101456330D01*
X166180000Y-101475250D01*
X166323709Y-101456330D01*
X166457625Y-101400861D01*
X166464179Y-101395832D01*
X166468298Y-101392672D01*
X166534519Y-101367073D01*
X166604068Y-101381339D01*
X166621702Y-101392672D01*
X166625821Y-101395832D01*
X166632375Y-101400861D01*
X166766291Y-101456330D01*
X166910000Y-101475250D01*
X167053709Y-101456330D01*
X167187625Y-101400861D01*
X167204813Y-101387672D01*
X167271034Y-101362072D01*
X167340582Y-101376337D01*
X167351241Y-101383188D01*
X167355823Y-101385834D01*
X167362375Y-101390861D01*
X167496291Y-101446330D01*
X167640000Y-101465250D01*
X167783709Y-101446330D01*
X167917625Y-101390861D01*
X168032621Y-101302621D01*
X168120861Y-101187625D01*
X168176330Y-101053709D01*
X168195250Y-100910000D01*
X168176330Y-100766291D01*
X168120861Y-100632375D01*
X168032621Y-100517379D01*
X167917625Y-100429139D01*
X167783709Y-100373670D01*
X167640000Y-100354750D01*
X167496291Y-100373670D01*
X167362375Y-100429139D01*
X167349343Y-100439139D01*
X167345187Y-100442328D01*
X167278966Y-100467928D01*
X167209418Y-100453663D01*
X167198759Y-100446812D01*
X167194177Y-100444166D01*
X167187625Y-100439139D01*
X167053709Y-100383670D01*
X166910000Y-100364750D01*
X166766291Y-100383670D01*
X166632375Y-100439139D01*
X166625824Y-100444166D01*
X166625822Y-100444167D01*
X166621702Y-100447328D01*
X166555481Y-100472927D01*
X166485932Y-100458661D01*
X166468298Y-100447328D01*
X166464178Y-100444167D01*
X166464176Y-100444166D01*
X166457625Y-100439139D01*
X166323709Y-100383670D01*
X166180000Y-100364750D01*
X166036291Y-100383670D01*
X165902375Y-100439139D01*
X165787379Y-100527379D01*
X165699139Y-100642375D01*
X165643670Y-100776291D01*
X165624750Y-100920000D01*
X154138135Y-100920000D01*
X154155250Y-100790000D01*
X154136330Y-100646291D01*
X154080861Y-100512375D01*
X153992621Y-100397379D01*
X153877625Y-100309139D01*
X153743709Y-100253670D01*
X153600000Y-100234750D01*
X153456291Y-100253670D01*
X153322375Y-100309139D01*
X153207379Y-100397379D01*
X153119139Y-100512375D01*
X153063670Y-100646291D01*
X153044750Y-100790000D01*
X153063670Y-100933709D01*
X153119139Y-101067625D01*
X153124169Y-101074180D01*
X153127637Y-101080187D01*
X153144376Y-101149182D01*
X153121157Y-101216274D01*
X153101348Y-101238138D01*
X152975604Y-101347831D01*
X152962604Y-101366328D01*
X152886053Y-101475250D01*
X152878113Y-101486547D01*
X152816524Y-101644513D01*
X152815532Y-101652046D01*
X152815532Y-101652047D01*
X152795934Y-101800914D01*
X152794394Y-101812611D01*
X148410959Y-101812611D01*
X148410861Y-101812375D01*
X148322621Y-101697379D01*
X148207625Y-101609139D01*
X148073709Y-101553670D01*
X147930000Y-101534750D01*
X147786291Y-101553670D01*
X147652375Y-101609139D01*
X147537379Y-101697379D01*
X147449139Y-101812375D01*
X147393670Y-101946291D01*
X147374750Y-102090000D01*
X135520824Y-102090000D01*
X135520339Y-102068773D01*
X135557349Y-102008185D01*
X135621239Y-101977225D01*
X135642015Y-101975500D01*
X135719646Y-101975500D01*
X135723350Y-101975059D01*
X135723353Y-101975059D01*
X135730746Y-101974179D01*
X135745846Y-101972382D01*
X135761903Y-101965250D01*
X135837518Y-101931663D01*
X135848153Y-101926939D01*
X135861188Y-101913882D01*
X135890366Y-101884652D01*
X135927241Y-101847713D01*
X135934784Y-101830653D01*
X135968675Y-101753992D01*
X135972506Y-101745327D01*
X135975500Y-101719646D01*
X135975500Y-101410000D01*
X141214750Y-101410000D01*
X141233670Y-101553709D01*
X141289139Y-101687625D01*
X141377379Y-101802621D01*
X141492375Y-101890861D01*
X141626291Y-101946330D01*
X141770000Y-101965250D01*
X141913709Y-101946330D01*
X142047625Y-101890861D01*
X142054179Y-101885832D01*
X142061327Y-101881705D01*
X142063029Y-101884652D01*
X142114502Y-101864746D01*
X142184052Y-101879003D01*
X142188560Y-101881900D01*
X142188673Y-101881705D01*
X142195821Y-101885832D01*
X142202375Y-101890861D01*
X142336291Y-101946330D01*
X142480000Y-101965250D01*
X142623709Y-101946330D01*
X142757625Y-101890861D01*
X142872621Y-101802621D01*
X142960861Y-101687625D01*
X143016330Y-101553709D01*
X143035250Y-101410000D01*
X143016330Y-101266291D01*
X142960861Y-101132375D01*
X142872621Y-101017379D01*
X142757625Y-100929139D01*
X142623709Y-100873670D01*
X142480000Y-100854750D01*
X142336291Y-100873670D01*
X142202375Y-100929139D01*
X142195822Y-100934167D01*
X142188673Y-100938295D01*
X142186971Y-100935348D01*
X142135498Y-100955254D01*
X142065948Y-100940997D01*
X142061440Y-100938100D01*
X142061327Y-100938295D01*
X142054178Y-100934167D01*
X142047625Y-100929139D01*
X141913709Y-100873670D01*
X141770000Y-100854750D01*
X141626291Y-100873670D01*
X141492375Y-100929139D01*
X141377379Y-101017379D01*
X141289139Y-101132375D01*
X141233670Y-101266291D01*
X141214750Y-101410000D01*
X135975500Y-101410000D01*
X135975500Y-100280354D01*
X135972382Y-100254154D01*
X135961652Y-100229996D01*
X135931663Y-100162482D01*
X135926939Y-100151847D01*
X135895033Y-100119996D01*
X135855945Y-100080977D01*
X135847713Y-100072759D01*
X135837076Y-100068056D01*
X135837074Y-100068055D01*
X135777538Y-100041735D01*
X135745327Y-100027494D01*
X135719646Y-100024500D01*
X134280354Y-100024500D01*
X134276650Y-100024941D01*
X134276647Y-100024941D01*
X134269254Y-100025821D01*
X134254154Y-100027618D01*
X134245514Y-100031456D01*
X134245513Y-100031456D01*
X134163117Y-100068055D01*
X134151847Y-100073061D01*
X134143628Y-100081294D01*
X134143627Y-100081295D01*
X134122346Y-100102613D01*
X134072759Y-100152287D01*
X134068056Y-100162924D01*
X134068055Y-100162926D01*
X134041735Y-100222462D01*
X134027494Y-100254673D01*
X134024500Y-100280354D01*
X134024500Y-101719646D01*
X134027618Y-101745846D01*
X134031456Y-101754486D01*
X134031456Y-101754487D01*
X134062528Y-101824440D01*
X134073061Y-101848153D01*
X134081294Y-101856372D01*
X134081295Y-101856373D01*
X134106867Y-101881900D01*
X134152287Y-101927241D01*
X134162924Y-101931944D01*
X134162926Y-101931945D01*
X134220400Y-101957354D01*
X134254673Y-101972506D01*
X134280354Y-101975500D01*
X134359553Y-101975500D01*
X134427674Y-101995502D01*
X134474167Y-102049158D01*
X134484271Y-102119432D01*
X134454777Y-102184012D01*
X134438505Y-102199697D01*
X134330926Y-102286193D01*
X134314176Y-102299660D01*
X134191207Y-102446208D01*
X134188237Y-102451611D01*
X134188236Y-102451612D01*
X134156138Y-102509998D01*
X134099045Y-102613850D01*
X134097184Y-102619717D01*
X134097183Y-102619719D01*
X134072548Y-102697379D01*
X134041200Y-102796201D01*
X134019876Y-102986314D01*
X130300500Y-102986314D01*
X130300500Y-100986314D01*
X131019876Y-100986314D01*
X131020392Y-100992458D01*
X131034860Y-101164750D01*
X131035884Y-101176948D01*
X131047416Y-101217166D01*
X131086665Y-101354045D01*
X131088614Y-101360843D01*
X131091433Y-101366328D01*
X131173242Y-101525511D01*
X131173245Y-101525516D01*
X131176060Y-101530993D01*
X131294889Y-101680918D01*
X131299583Y-101684913D01*
X131435409Y-101800510D01*
X131440575Y-101804907D01*
X131445953Y-101807913D01*
X131445955Y-101807914D01*
X131595220Y-101891335D01*
X131644926Y-101942028D01*
X131659334Y-102011548D01*
X131633871Y-102077821D01*
X131592126Y-102112984D01*
X131469006Y-102177350D01*
X131458741Y-102184067D01*
X131319327Y-102296159D01*
X131310568Y-102304737D01*
X131195580Y-102441774D01*
X131188655Y-102451888D01*
X131115958Y-102584124D01*
X131112921Y-102597896D01*
X131114797Y-102599309D01*
X131118594Y-102600000D01*
X132873505Y-102600000D01*
X132887036Y-102596027D01*
X132887436Y-102593244D01*
X132886492Y-102590356D01*
X132818922Y-102463274D01*
X132812135Y-102453058D01*
X132699074Y-102314432D01*
X132690430Y-102305728D01*
X132552599Y-102191705D01*
X132542430Y-102184846D01*
X132404568Y-102110304D01*
X132354159Y-102060309D01*
X132338782Y-101990998D01*
X132363318Y-101924376D01*
X132407686Y-101887002D01*
X132511071Y-101834778D01*
X132525228Y-101827627D01*
X132550802Y-101807647D01*
X132663438Y-101719646D01*
X132675979Y-101709848D01*
X132691081Y-101692353D01*
X132796958Y-101569692D01*
X132796959Y-101569691D01*
X132800982Y-101565030D01*
X132807436Y-101553670D01*
X132874015Y-101436469D01*
X132895476Y-101398691D01*
X132955861Y-101217166D01*
X132966573Y-101132375D01*
X132979396Y-101030872D01*
X132979397Y-101030863D01*
X132979838Y-101027369D01*
X132980220Y-101000000D01*
X132961552Y-100809608D01*
X132906259Y-100626467D01*
X132888233Y-100592566D01*
X132819342Y-100463001D01*
X132819341Y-100462999D01*
X132816446Y-100457555D01*
X132764084Y-100393353D01*
X132699430Y-100314078D01*
X132699427Y-100314075D01*
X132695535Y-100309303D01*
X132664970Y-100284017D01*
X132552879Y-100191288D01*
X132548132Y-100187361D01*
X132405107Y-100110027D01*
X132354701Y-100060035D01*
X132339324Y-99990724D01*
X132363860Y-99924102D01*
X132408228Y-99886728D01*
X132497146Y-99841812D01*
X132525228Y-99827627D01*
X132554309Y-99804907D01*
X132671129Y-99713637D01*
X132675979Y-99709848D01*
X132685637Y-99698660D01*
X132796958Y-99569692D01*
X132796959Y-99569691D01*
X132800982Y-99565030D01*
X132895476Y-99398691D01*
X132915000Y-99340000D01*
X137664750Y-99340000D01*
X137683670Y-99483709D01*
X137739139Y-99617625D01*
X137827379Y-99732621D01*
X137942375Y-99820861D01*
X137950009Y-99824023D01*
X137953904Y-99826272D01*
X138002897Y-99877655D01*
X138014380Y-99943554D01*
X138015828Y-99943554D01*
X138015828Y-99951812D01*
X138014750Y-99960000D01*
X138033670Y-100103709D01*
X138089139Y-100237625D01*
X138177379Y-100352621D01*
X138292375Y-100440861D01*
X138300004Y-100444021D01*
X138300359Y-100444168D01*
X138426291Y-100496330D01*
X138570000Y-100515250D01*
X138713709Y-100496330D01*
X138839641Y-100444168D01*
X138839996Y-100444021D01*
X138847625Y-100440861D01*
X138962621Y-100352621D01*
X139050861Y-100237625D01*
X139106330Y-100103709D01*
X139106474Y-100102613D01*
X145094394Y-100102613D01*
X145112999Y-100271137D01*
X145140421Y-100346071D01*
X145162078Y-100405250D01*
X145171266Y-100430358D01*
X145175502Y-100436661D01*
X145175502Y-100436662D01*
X145190285Y-100458661D01*
X145265830Y-100571085D01*
X145271442Y-100576192D01*
X145271445Y-100576195D01*
X145385612Y-100680079D01*
X145385616Y-100680082D01*
X145391233Y-100685193D01*
X145397906Y-100688816D01*
X145397910Y-100688819D01*
X145533558Y-100762469D01*
X145533560Y-100762470D01*
X145540235Y-100766094D01*
X145547584Y-100768022D01*
X145696883Y-100807190D01*
X145696885Y-100807190D01*
X145704233Y-100809118D01*
X145790609Y-100810475D01*
X145866161Y-100811662D01*
X145866164Y-100811662D01*
X145873760Y-100811781D01*
X145881165Y-100810085D01*
X145881166Y-100810085D01*
X145968862Y-100790000D01*
X146039029Y-100773930D01*
X146190498Y-100697749D01*
X146295047Y-100608455D01*
X146313651Y-100592566D01*
X146313652Y-100592565D01*
X146319423Y-100587636D01*
X146418361Y-100449949D01*
X146428796Y-100423992D01*
X146478766Y-100299689D01*
X146478767Y-100299687D01*
X146481601Y-100292636D01*
X146497112Y-100183647D01*
X146504909Y-100128864D01*
X146504909Y-100128861D01*
X146505490Y-100124780D01*
X146505645Y-100110002D01*
X146504884Y-100103709D01*
X146495540Y-100026501D01*
X146485276Y-99941682D01*
X146425345Y-99783079D01*
X146377619Y-99713637D01*
X146333614Y-99649610D01*
X146333613Y-99649609D01*
X146329312Y-99643351D01*
X146323119Y-99637833D01*
X146208392Y-99535614D01*
X146208388Y-99535612D01*
X146202721Y-99530562D01*
X146193182Y-99525511D01*
X146088339Y-99470000D01*
X146052881Y-99451226D01*
X145888441Y-99409921D01*
X145880843Y-99409881D01*
X145880841Y-99409881D01*
X145803668Y-99409477D01*
X145718895Y-99409033D01*
X145711508Y-99410807D01*
X145711504Y-99410807D01*
X145568162Y-99445222D01*
X145554032Y-99448614D01*
X145547288Y-99452095D01*
X145547285Y-99452096D01*
X145420283Y-99517647D01*
X145403369Y-99526377D01*
X145397647Y-99531369D01*
X145397645Y-99531370D01*
X145378366Y-99548188D01*
X145275604Y-99637833D01*
X145243362Y-99683709D01*
X145193836Y-99754178D01*
X145178113Y-99776549D01*
X145116524Y-99934515D01*
X145115532Y-99942048D01*
X145115532Y-99942049D01*
X145097201Y-100081295D01*
X145094394Y-100102613D01*
X139106474Y-100102613D01*
X139125250Y-99960000D01*
X139124349Y-99953158D01*
X139144174Y-99885640D01*
X139201952Y-99837353D01*
X139209994Y-99834022D01*
X139209995Y-99834021D01*
X139217625Y-99830861D01*
X139226335Y-99824178D01*
X139326071Y-99747647D01*
X139332621Y-99742621D01*
X139420861Y-99627625D01*
X139476330Y-99493709D01*
X139495250Y-99350000D01*
X139476330Y-99206291D01*
X139440588Y-99120000D01*
X161314750Y-99120000D01*
X161333670Y-99263709D01*
X161389139Y-99397625D01*
X161477379Y-99512621D01*
X161592375Y-99600861D01*
X161726291Y-99656330D01*
X161870000Y-99675250D01*
X162013709Y-99656330D01*
X162147625Y-99600861D01*
X162226940Y-99540000D01*
X163184750Y-99540000D01*
X163203670Y-99683709D01*
X163259139Y-99817625D01*
X163347379Y-99932621D01*
X163462375Y-100020861D01*
X163470004Y-100024021D01*
X163472225Y-100024941D01*
X163596291Y-100076330D01*
X163740000Y-100095250D01*
X163883709Y-100076330D01*
X164007775Y-100024941D01*
X164009996Y-100024021D01*
X164017625Y-100020861D01*
X164132621Y-99932621D01*
X164133498Y-99933764D01*
X164188002Y-99904002D01*
X164258817Y-99909067D01*
X164291485Y-99927158D01*
X164322375Y-99950861D01*
X164456291Y-100006330D01*
X164600000Y-100025250D01*
X164743709Y-100006330D01*
X164877625Y-99950861D01*
X164884179Y-99945832D01*
X164891327Y-99941705D01*
X164892130Y-99943095D01*
X164949510Y-99920908D01*
X165019059Y-99935170D01*
X165034132Y-99944857D01*
X165035821Y-99945832D01*
X165042375Y-99950861D01*
X165176291Y-100006330D01*
X165320000Y-100025250D01*
X165463709Y-100006330D01*
X165597625Y-99950861D01*
X165712621Y-99862621D01*
X165722305Y-99850000D01*
X169234750Y-99850000D01*
X169253670Y-99993709D01*
X169309139Y-100127625D01*
X169397379Y-100242621D01*
X169512375Y-100330861D01*
X169646291Y-100386330D01*
X169790000Y-100405250D01*
X169933709Y-100386330D01*
X170067625Y-100330861D01*
X170182621Y-100242621D01*
X170270861Y-100127625D01*
X170326330Y-99993709D01*
X170345250Y-99850000D01*
X170326330Y-99706291D01*
X170270861Y-99572375D01*
X170182621Y-99457379D01*
X170176071Y-99452353D01*
X170170230Y-99446512D01*
X170171233Y-99445509D01*
X170134570Y-99395293D01*
X170130351Y-99324422D01*
X170165118Y-99262520D01*
X170176426Y-99252721D01*
X170202621Y-99232621D01*
X170290861Y-99117625D01*
X170346330Y-98983709D01*
X170365250Y-98840000D01*
X170346330Y-98696291D01*
X170290861Y-98562375D01*
X170202621Y-98447379D01*
X170087625Y-98359139D01*
X169953709Y-98303670D01*
X169810000Y-98284750D01*
X169666291Y-98303670D01*
X169532375Y-98359139D01*
X169417379Y-98447379D01*
X169329139Y-98562375D01*
X169273670Y-98696291D01*
X169254750Y-98840000D01*
X169273670Y-98983709D01*
X169329139Y-99117625D01*
X169417379Y-99232621D01*
X169423929Y-99237647D01*
X169429770Y-99243488D01*
X169428767Y-99244491D01*
X169465430Y-99294707D01*
X169469649Y-99365578D01*
X169434882Y-99427480D01*
X169423574Y-99437279D01*
X169397379Y-99457379D01*
X169309139Y-99572375D01*
X169253670Y-99706291D01*
X169234750Y-99850000D01*
X165722305Y-99850000D01*
X165800861Y-99747625D01*
X165856330Y-99613709D01*
X165875250Y-99470000D01*
X165856330Y-99326291D01*
X165800861Y-99192375D01*
X165712621Y-99077379D01*
X165597625Y-98989139D01*
X165463709Y-98933670D01*
X165320000Y-98914750D01*
X165176291Y-98933670D01*
X165042375Y-98989139D01*
X165035822Y-98994167D01*
X165028673Y-98998295D01*
X165027870Y-98996905D01*
X164970490Y-99019092D01*
X164900941Y-99004830D01*
X164885868Y-98995143D01*
X164884178Y-98994167D01*
X164877625Y-98989139D01*
X164743709Y-98933670D01*
X164600000Y-98914750D01*
X164456291Y-98933670D01*
X164322375Y-98989139D01*
X164207379Y-99077379D01*
X164206502Y-99076236D01*
X164151998Y-99105998D01*
X164081183Y-99100933D01*
X164048515Y-99082842D01*
X164017625Y-99059139D01*
X163883709Y-99003670D01*
X163740000Y-98984750D01*
X163596291Y-99003670D01*
X163462375Y-99059139D01*
X163347379Y-99147379D01*
X163259139Y-99262375D01*
X163203670Y-99396291D01*
X163184750Y-99540000D01*
X162226940Y-99540000D01*
X162262621Y-99512621D01*
X162350861Y-99397625D01*
X162406330Y-99263709D01*
X162425250Y-99120000D01*
X162406330Y-98976291D01*
X162350861Y-98842375D01*
X162345835Y-98835825D01*
X162344204Y-98833000D01*
X162327466Y-98764004D01*
X162344204Y-98707000D01*
X162345835Y-98704175D01*
X162350861Y-98697625D01*
X162406330Y-98563709D01*
X162425250Y-98420000D01*
X162406330Y-98276291D01*
X162350861Y-98142375D01*
X162262621Y-98027379D01*
X162147625Y-97939139D01*
X162013709Y-97883670D01*
X161870000Y-97864750D01*
X161726291Y-97883670D01*
X161592375Y-97939139D01*
X161477379Y-98027379D01*
X161389139Y-98142375D01*
X161333670Y-98276291D01*
X161314750Y-98420000D01*
X161333670Y-98563709D01*
X161389139Y-98697625D01*
X161394165Y-98704175D01*
X161395796Y-98707000D01*
X161412534Y-98775996D01*
X161395796Y-98833000D01*
X161394165Y-98835825D01*
X161389139Y-98842375D01*
X161333670Y-98976291D01*
X161314750Y-99120000D01*
X139440588Y-99120000D01*
X139420861Y-99072375D01*
X139332621Y-98957379D01*
X139217625Y-98869139D01*
X139083709Y-98813670D01*
X138940000Y-98794750D01*
X138796291Y-98813670D01*
X138766101Y-98826175D01*
X138670003Y-98865979D01*
X138670000Y-98865981D01*
X138662375Y-98869139D01*
X138655825Y-98874165D01*
X138649635Y-98877739D01*
X138580640Y-98894477D01*
X138509930Y-98868581D01*
X138504179Y-98864168D01*
X138504178Y-98864168D01*
X138497625Y-98859139D01*
X138363709Y-98803670D01*
X138220000Y-98784750D01*
X138076291Y-98803670D01*
X137942375Y-98859139D01*
X137827379Y-98947379D01*
X137739139Y-99062375D01*
X137683670Y-99196291D01*
X137664750Y-99340000D01*
X132915000Y-99340000D01*
X132955861Y-99217166D01*
X132968436Y-99117625D01*
X132979396Y-99030872D01*
X132979397Y-99030863D01*
X132979838Y-99027369D01*
X132980220Y-99000000D01*
X132961552Y-98809608D01*
X132906259Y-98626467D01*
X132878456Y-98574178D01*
X132819342Y-98463001D01*
X132819341Y-98462999D01*
X132816446Y-98457555D01*
X132729914Y-98351456D01*
X132699430Y-98314078D01*
X132699427Y-98314075D01*
X132695535Y-98309303D01*
X132683879Y-98299660D01*
X132672202Y-98290000D01*
X156204750Y-98290000D01*
X156223670Y-98433709D01*
X156279139Y-98567625D01*
X156367379Y-98682621D01*
X156482375Y-98770861D01*
X156616291Y-98826330D01*
X156760000Y-98845250D01*
X156903709Y-98826330D01*
X157037625Y-98770861D01*
X157045785Y-98764600D01*
X157124134Y-98704480D01*
X157143297Y-98689776D01*
X157209516Y-98664175D01*
X157279065Y-98678439D01*
X157296701Y-98689774D01*
X157315866Y-98704480D01*
X157394216Y-98764600D01*
X157402375Y-98770861D01*
X157536291Y-98826330D01*
X157680000Y-98845250D01*
X157823709Y-98826330D01*
X157957625Y-98770861D01*
X158054716Y-98696360D01*
X158120936Y-98670759D01*
X158190485Y-98685024D01*
X158208123Y-98696359D01*
X158218706Y-98704480D01*
X158296279Y-98764004D01*
X158303608Y-98769628D01*
X158437524Y-98825097D01*
X158581233Y-98844017D01*
X158724942Y-98825097D01*
X158858858Y-98769628D01*
X158973854Y-98681388D01*
X159062094Y-98566392D01*
X159117563Y-98432476D01*
X159136483Y-98288767D01*
X159117563Y-98145058D01*
X159062094Y-98011142D01*
X158973854Y-97896146D01*
X158858858Y-97807906D01*
X158724942Y-97752437D01*
X158581233Y-97733517D01*
X158437524Y-97752437D01*
X158303608Y-97807906D01*
X158241003Y-97855945D01*
X158206517Y-97882407D01*
X158140297Y-97908008D01*
X158070748Y-97893743D01*
X158053109Y-97882407D01*
X157964178Y-97814167D01*
X157964176Y-97814166D01*
X157957625Y-97809139D01*
X157823709Y-97753670D01*
X157680000Y-97734750D01*
X157536291Y-97753670D01*
X157402375Y-97809139D01*
X157395824Y-97814166D01*
X157395822Y-97814167D01*
X157365391Y-97837518D01*
X157301126Y-97886831D01*
X157296704Y-97890224D01*
X157230484Y-97915825D01*
X157160935Y-97901561D01*
X157143296Y-97890224D01*
X157138875Y-97886831D01*
X157074609Y-97837518D01*
X157044178Y-97814167D01*
X157044176Y-97814166D01*
X157037625Y-97809139D01*
X156903709Y-97753670D01*
X156760000Y-97734750D01*
X156616291Y-97753670D01*
X156482375Y-97809139D01*
X156367379Y-97897379D01*
X156279139Y-98012375D01*
X156223670Y-98146291D01*
X156204750Y-98290000D01*
X132672202Y-98290000D01*
X132561700Y-98198585D01*
X132521961Y-98139751D01*
X132520339Y-98068773D01*
X132557349Y-98008185D01*
X132621239Y-97977225D01*
X132642015Y-97975500D01*
X132719646Y-97975500D01*
X132723350Y-97975059D01*
X132723353Y-97975059D01*
X132730746Y-97974179D01*
X132745846Y-97972382D01*
X132848153Y-97926939D01*
X132927241Y-97847713D01*
X132942072Y-97814168D01*
X132958265Y-97777538D01*
X132972506Y-97745327D01*
X132975500Y-97719646D01*
X132975500Y-97052611D01*
X148574394Y-97052611D01*
X148592999Y-97221135D01*
X148651266Y-97380356D01*
X148655502Y-97386659D01*
X148655502Y-97386660D01*
X148668574Y-97406113D01*
X148745830Y-97521083D01*
X148751442Y-97526190D01*
X148751445Y-97526193D01*
X148865612Y-97630077D01*
X148865616Y-97630080D01*
X148871233Y-97635191D01*
X148877906Y-97638814D01*
X148877910Y-97638817D01*
X149013558Y-97712467D01*
X149013560Y-97712468D01*
X149020235Y-97716092D01*
X149027584Y-97718020D01*
X149176883Y-97757188D01*
X149176885Y-97757188D01*
X149184233Y-97759116D01*
X149270609Y-97760473D01*
X149346161Y-97761660D01*
X149346164Y-97761660D01*
X149353760Y-97761779D01*
X149361165Y-97760083D01*
X149361166Y-97760083D01*
X149425594Y-97745327D01*
X149519029Y-97723928D01*
X149670498Y-97647747D01*
X149799423Y-97537634D01*
X149898361Y-97399947D01*
X149906237Y-97380356D01*
X149958766Y-97249687D01*
X149958767Y-97249685D01*
X149961601Y-97242634D01*
X149985490Y-97074778D01*
X149985645Y-97060000D01*
X149983840Y-97045080D01*
X149966188Y-96899220D01*
X149965276Y-96891680D01*
X149905345Y-96733077D01*
X149809312Y-96593349D01*
X149797514Y-96582837D01*
X149688392Y-96485612D01*
X149688388Y-96485610D01*
X149682721Y-96480560D01*
X149532881Y-96401224D01*
X149368441Y-96359919D01*
X149360843Y-96359879D01*
X149360841Y-96359879D01*
X149283668Y-96359475D01*
X149198895Y-96359031D01*
X149191508Y-96360805D01*
X149191504Y-96360805D01*
X149048162Y-96395220D01*
X149034032Y-96398612D01*
X149027288Y-96402093D01*
X149027285Y-96402094D01*
X149022089Y-96404776D01*
X148883369Y-96476375D01*
X148755604Y-96587831D01*
X148658113Y-96726547D01*
X148596524Y-96884513D01*
X148574394Y-97052611D01*
X132975500Y-97052611D01*
X132975500Y-96280354D01*
X132972382Y-96254154D01*
X132926939Y-96151847D01*
X132847713Y-96072759D01*
X132837076Y-96068056D01*
X132837074Y-96068055D01*
X132777538Y-96041735D01*
X132745327Y-96027494D01*
X132719646Y-96024500D01*
X131280354Y-96024500D01*
X131276650Y-96024941D01*
X131276647Y-96024941D01*
X131269254Y-96025821D01*
X131254154Y-96027618D01*
X131151847Y-96073061D01*
X131072759Y-96152287D01*
X131027494Y-96254673D01*
X131024500Y-96280354D01*
X131024500Y-97719646D01*
X131024941Y-97723350D01*
X131024941Y-97723353D01*
X131025211Y-97725623D01*
X131027618Y-97745846D01*
X131031456Y-97754486D01*
X131031456Y-97754487D01*
X131032497Y-97756831D01*
X131073061Y-97848153D01*
X131152287Y-97927241D01*
X131162924Y-97931944D01*
X131162926Y-97931945D01*
X131222462Y-97958265D01*
X131254673Y-97972506D01*
X131280354Y-97975500D01*
X131359553Y-97975500D01*
X131427674Y-97995502D01*
X131474167Y-98049158D01*
X131484271Y-98119432D01*
X131454777Y-98184012D01*
X131438505Y-98199697D01*
X131331380Y-98285828D01*
X131314176Y-98299660D01*
X131191207Y-98446208D01*
X131188237Y-98451611D01*
X131188236Y-98451612D01*
X131177112Y-98471847D01*
X131099045Y-98613850D01*
X131097184Y-98619717D01*
X131097183Y-98619719D01*
X131043062Y-98790331D01*
X131041200Y-98796201D01*
X131019876Y-98986314D01*
X131026904Y-99070004D01*
X131034553Y-99161092D01*
X131035884Y-99176948D01*
X131042110Y-99198660D01*
X131085505Y-99350000D01*
X131088614Y-99360843D01*
X131091433Y-99366328D01*
X131173242Y-99525511D01*
X131173245Y-99525516D01*
X131176060Y-99530993D01*
X131294889Y-99680918D01*
X131299583Y-99684913D01*
X131415574Y-99783629D01*
X131440575Y-99804907D01*
X131445953Y-99807913D01*
X131445955Y-99807914D01*
X131478018Y-99825833D01*
X131588631Y-99887652D01*
X131594700Y-99891044D01*
X131644406Y-99941737D01*
X131658814Y-100011256D01*
X131633351Y-100077529D01*
X131591605Y-100112694D01*
X131463268Y-100179787D01*
X131458468Y-100183647D01*
X131458467Y-100183647D01*
X131322912Y-100292636D01*
X131314176Y-100299660D01*
X131191207Y-100446208D01*
X131188237Y-100451611D01*
X131188236Y-100451612D01*
X131147371Y-100525945D01*
X131099045Y-100613850D01*
X131097184Y-100619717D01*
X131097183Y-100619719D01*
X131091175Y-100638660D01*
X131041200Y-100796201D01*
X131019876Y-100986314D01*
X130300500Y-100986314D01*
X130300500Y-94279646D01*
X131024500Y-94279646D01*
X131027618Y-94305846D01*
X131031456Y-94314486D01*
X131031456Y-94314487D01*
X131062069Y-94383407D01*
X131073061Y-94408153D01*
X131081294Y-94416372D01*
X131081295Y-94416373D01*
X131110714Y-94445740D01*
X131152287Y-94487241D01*
X131162924Y-94491944D01*
X131162926Y-94491945D01*
X131216094Y-94515450D01*
X131254673Y-94532506D01*
X131280354Y-94535500D01*
X132719646Y-94535500D01*
X132723350Y-94535059D01*
X132723353Y-94535059D01*
X132730746Y-94534179D01*
X132745846Y-94532382D01*
X132783966Y-94515450D01*
X132837518Y-94491663D01*
X132848153Y-94486939D01*
X132861188Y-94473882D01*
X132919023Y-94415945D01*
X132927241Y-94407713D01*
X132934895Y-94390402D01*
X132968675Y-94313992D01*
X132972506Y-94305327D01*
X132975500Y-94279646D01*
X132975500Y-94198967D01*
X132995502Y-94130846D01*
X133049158Y-94084353D01*
X133119432Y-94074249D01*
X133184012Y-94103743D01*
X133200246Y-94120703D01*
X133291422Y-94235740D01*
X133299944Y-94244564D01*
X133436170Y-94360502D01*
X133446242Y-94367502D01*
X133584185Y-94444596D01*
X133597936Y-94447729D01*
X133599220Y-94446049D01*
X133600000Y-94441844D01*
X133600000Y-94432209D01*
X134400000Y-94432209D01*
X134403973Y-94445740D01*
X134407443Y-94446239D01*
X134409158Y-94445698D01*
X134519458Y-94389982D01*
X134529817Y-94383407D01*
X134670777Y-94273278D01*
X134679659Y-94264820D01*
X134796544Y-94129407D01*
X134803618Y-94119380D01*
X134891713Y-93964303D01*
X134942752Y-93914952D01*
X135012370Y-93901029D01*
X135078463Y-93926955D01*
X135113335Y-93968944D01*
X135173242Y-94085511D01*
X135173245Y-94085516D01*
X135176060Y-94090993D01*
X135294889Y-94240918D01*
X135299583Y-94244913D01*
X135333334Y-94273637D01*
X135440575Y-94364907D01*
X135445953Y-94367913D01*
X135445955Y-94367914D01*
X135486193Y-94390402D01*
X135607570Y-94458237D01*
X135789512Y-94517354D01*
X135979472Y-94540005D01*
X135985607Y-94539533D01*
X135985609Y-94539533D01*
X136164071Y-94525801D01*
X136164075Y-94525800D01*
X136170213Y-94525328D01*
X136354472Y-94473882D01*
X136525228Y-94387627D01*
X136530630Y-94383407D01*
X136663438Y-94279646D01*
X136675979Y-94269848D01*
X136697503Y-94244913D01*
X136796958Y-94129692D01*
X136796959Y-94129691D01*
X136800982Y-94125030D01*
X136817574Y-94095824D01*
X136891986Y-93964834D01*
X136943025Y-93915484D01*
X137012643Y-93901561D01*
X137078737Y-93927487D01*
X137113608Y-93969476D01*
X137173242Y-94085511D01*
X137173245Y-94085516D01*
X137176060Y-94090993D01*
X137294889Y-94240918D01*
X137299583Y-94244913D01*
X137333334Y-94273637D01*
X137440575Y-94364907D01*
X137445953Y-94367913D01*
X137445955Y-94367914D01*
X137486193Y-94390402D01*
X137607570Y-94458237D01*
X137789512Y-94517354D01*
X137979472Y-94540005D01*
X137985607Y-94539533D01*
X137985609Y-94539533D01*
X138164071Y-94525801D01*
X138164075Y-94525800D01*
X138170213Y-94525328D01*
X138354472Y-94473882D01*
X138525228Y-94387627D01*
X138530630Y-94383407D01*
X138663438Y-94279646D01*
X138675979Y-94269848D01*
X138697503Y-94244913D01*
X138796958Y-94129692D01*
X138796959Y-94129691D01*
X138800982Y-94125030D01*
X138895476Y-93958691D01*
X138955861Y-93777166D01*
X138961311Y-93734027D01*
X138979396Y-93590872D01*
X138979397Y-93590863D01*
X138979838Y-93587369D01*
X138980220Y-93560000D01*
X138961552Y-93369608D01*
X138906259Y-93186467D01*
X138828017Y-93039317D01*
X138819342Y-93023001D01*
X138819341Y-93022999D01*
X138816446Y-93017555D01*
X138735148Y-92917873D01*
X138699430Y-92874078D01*
X138699427Y-92874075D01*
X138695535Y-92869303D01*
X138664970Y-92844017D01*
X138552879Y-92751288D01*
X138548132Y-92747361D01*
X138468040Y-92704055D01*
X138385276Y-92659304D01*
X138385273Y-92659303D01*
X138379851Y-92656371D01*
X138288376Y-92628055D01*
X138202988Y-92601623D01*
X138202985Y-92601622D01*
X138197101Y-92599801D01*
X138190976Y-92599157D01*
X138190975Y-92599157D01*
X138012971Y-92580448D01*
X138012970Y-92580448D01*
X138006843Y-92579804D01*
X137889867Y-92590449D01*
X137822466Y-92596583D01*
X137822465Y-92596583D01*
X137816325Y-92597142D01*
X137632803Y-92651156D01*
X137627338Y-92654013D01*
X137468728Y-92736932D01*
X137468724Y-92736935D01*
X137463268Y-92739787D01*
X137458468Y-92743647D01*
X137458467Y-92743647D01*
X137359099Y-92823541D01*
X137314176Y-92859660D01*
X137191207Y-93006208D01*
X137188237Y-93011610D01*
X137188231Y-93011619D01*
X137109896Y-93154109D01*
X137059551Y-93204168D01*
X136990134Y-93219061D01*
X136923685Y-93194060D01*
X136888231Y-93152562D01*
X136867347Y-93113284D01*
X136828017Y-93039317D01*
X136819342Y-93023001D01*
X136819341Y-93022999D01*
X136816446Y-93017555D01*
X136735148Y-92917873D01*
X136699430Y-92874078D01*
X136699427Y-92874075D01*
X136695535Y-92869303D01*
X136664970Y-92844017D01*
X136552879Y-92751288D01*
X136548132Y-92747361D01*
X136468040Y-92704055D01*
X136385276Y-92659304D01*
X136385273Y-92659303D01*
X136379851Y-92656371D01*
X136288376Y-92628055D01*
X136202988Y-92601623D01*
X136202985Y-92601622D01*
X136197101Y-92599801D01*
X136190976Y-92599157D01*
X136190975Y-92599157D01*
X136012971Y-92580448D01*
X136012970Y-92580448D01*
X136006843Y-92579804D01*
X135889867Y-92590449D01*
X135822466Y-92596583D01*
X135822465Y-92596583D01*
X135816325Y-92597142D01*
X135632803Y-92651156D01*
X135627338Y-92654013D01*
X135468728Y-92736932D01*
X135468724Y-92736935D01*
X135463268Y-92739787D01*
X135458468Y-92743647D01*
X135458467Y-92743647D01*
X135359099Y-92823541D01*
X135314176Y-92859660D01*
X135191207Y-93006208D01*
X135188237Y-93011611D01*
X135188236Y-93011612D01*
X135109609Y-93154634D01*
X135059263Y-93204693D01*
X134989846Y-93219586D01*
X134923397Y-93194585D01*
X134887942Y-93153086D01*
X134818917Y-93023267D01*
X134812135Y-93013058D01*
X134699074Y-92874432D01*
X134690430Y-92865728D01*
X134552601Y-92751706D01*
X134542430Y-92744846D01*
X134415935Y-92676450D01*
X134402144Y-92673510D01*
X134400606Y-92675582D01*
X134400000Y-92678981D01*
X134400000Y-94432209D01*
X133600000Y-94432209D01*
X133600000Y-92686983D01*
X133596027Y-92673452D01*
X133593015Y-92673019D01*
X133590516Y-92673826D01*
X133469007Y-92737350D01*
X133458738Y-92744069D01*
X133319327Y-92856159D01*
X133310568Y-92864737D01*
X133198022Y-92998864D01*
X133138912Y-93038191D01*
X133067925Y-93039317D01*
X133007597Y-93001886D01*
X132977083Y-92937782D01*
X132975500Y-92917873D01*
X132975500Y-92840354D01*
X132972382Y-92814154D01*
X132941252Y-92744069D01*
X132931663Y-92722482D01*
X132926939Y-92711847D01*
X132847713Y-92632759D01*
X132837076Y-92628056D01*
X132837074Y-92628055D01*
X132777286Y-92601623D01*
X132745327Y-92587494D01*
X132719646Y-92584500D01*
X131280354Y-92584500D01*
X131276650Y-92584941D01*
X131276647Y-92584941D01*
X131269254Y-92585821D01*
X131254154Y-92587618D01*
X131245514Y-92591456D01*
X131245513Y-92591456D01*
X131228176Y-92599157D01*
X131151847Y-92633061D01*
X131143628Y-92641294D01*
X131143627Y-92641295D01*
X131125650Y-92659304D01*
X131072759Y-92712287D01*
X131068056Y-92722924D01*
X131068055Y-92722926D01*
X131055332Y-92751706D01*
X131027494Y-92814673D01*
X131024500Y-92840354D01*
X131024500Y-94279646D01*
X130300500Y-94279646D01*
X130300500Y-91027146D01*
X131544037Y-91027146D01*
X131552864Y-91038764D01*
X131654576Y-91112662D01*
X131661256Y-91116902D01*
X131929985Y-91264637D01*
X131937120Y-91267994D01*
X132222247Y-91380884D01*
X132229773Y-91383329D01*
X132526781Y-91459588D01*
X132534552Y-91461071D01*
X132838782Y-91499503D01*
X132846672Y-91500000D01*
X133153328Y-91500000D01*
X133161218Y-91499503D01*
X133465448Y-91461071D01*
X133473219Y-91459588D01*
X133770227Y-91383329D01*
X133777753Y-91380884D01*
X134062880Y-91267994D01*
X134070015Y-91264637D01*
X134128270Y-91232611D01*
X137954394Y-91232611D01*
X137972999Y-91401135D01*
X138031266Y-91560356D01*
X138035502Y-91566659D01*
X138035502Y-91566660D01*
X138044813Y-91580516D01*
X138125830Y-91701083D01*
X138131442Y-91706190D01*
X138131445Y-91706193D01*
X138245612Y-91810077D01*
X138245616Y-91810080D01*
X138251233Y-91815191D01*
X138257906Y-91818814D01*
X138257910Y-91818817D01*
X138393558Y-91892467D01*
X138393560Y-91892468D01*
X138400235Y-91896092D01*
X138407584Y-91898020D01*
X138556883Y-91937188D01*
X138556885Y-91937188D01*
X138564233Y-91939116D01*
X138650609Y-91940473D01*
X138726161Y-91941660D01*
X138726164Y-91941660D01*
X138733760Y-91941779D01*
X138741165Y-91940083D01*
X138741166Y-91940083D01*
X138801586Y-91926245D01*
X138899029Y-91903928D01*
X139050498Y-91827747D01*
X139179423Y-91717634D01*
X139278361Y-91579947D01*
X139286237Y-91560356D01*
X139338766Y-91429687D01*
X139338767Y-91429685D01*
X139341601Y-91422634D01*
X139364087Y-91264637D01*
X139364909Y-91258862D01*
X139364909Y-91258859D01*
X139365490Y-91254778D01*
X139365645Y-91240000D01*
X139363840Y-91225080D01*
X139349875Y-91109687D01*
X139345276Y-91071680D01*
X139285345Y-90913077D01*
X139285025Y-90912611D01*
X139724394Y-90912611D01*
X139742999Y-91081135D01*
X139756088Y-91116902D01*
X139798432Y-91232611D01*
X139801266Y-91240356D01*
X139805502Y-91246659D01*
X139805502Y-91246660D01*
X139817582Y-91264637D01*
X139895830Y-91381083D01*
X139925704Y-91408266D01*
X140015612Y-91490077D01*
X140015616Y-91490080D01*
X140021233Y-91495191D01*
X140027906Y-91498814D01*
X140027910Y-91498817D01*
X140163558Y-91572467D01*
X140163560Y-91572468D01*
X140170235Y-91576092D01*
X140177584Y-91578020D01*
X140326883Y-91617188D01*
X140326885Y-91617188D01*
X140334233Y-91619116D01*
X140420609Y-91620473D01*
X140496161Y-91621660D01*
X140496164Y-91621660D01*
X140503760Y-91621779D01*
X140511165Y-91620083D01*
X140511166Y-91620083D01*
X140571586Y-91606245D01*
X140669029Y-91583928D01*
X140820498Y-91507747D01*
X140949423Y-91397634D01*
X141048361Y-91259947D01*
X141053702Y-91246660D01*
X141108766Y-91109687D01*
X141108767Y-91109685D01*
X141111601Y-91102634D01*
X141135490Y-90934778D01*
X141135645Y-90920000D01*
X141133840Y-90905080D01*
X141131004Y-90881653D01*
X141115276Y-90751680D01*
X141055345Y-90593077D01*
X141044185Y-90576839D01*
X140963614Y-90459608D01*
X140963613Y-90459607D01*
X140959312Y-90453349D01*
X140947514Y-90442837D01*
X140838392Y-90345612D01*
X140838388Y-90345610D01*
X140832721Y-90340560D01*
X140682881Y-90261224D01*
X140518441Y-90219919D01*
X140510843Y-90219879D01*
X140510841Y-90219879D01*
X140433668Y-90219475D01*
X140348895Y-90219031D01*
X140341508Y-90220805D01*
X140341504Y-90220805D01*
X140198162Y-90255220D01*
X140184032Y-90258612D01*
X140177288Y-90262093D01*
X140177285Y-90262094D01*
X140172089Y-90264776D01*
X140033369Y-90336375D01*
X139905604Y-90447831D01*
X139901237Y-90454045D01*
X139813154Y-90579375D01*
X139808113Y-90586547D01*
X139746524Y-90744513D01*
X139745532Y-90752046D01*
X139745532Y-90752047D01*
X139726011Y-90900330D01*
X139724394Y-90912611D01*
X139285025Y-90912611D01*
X139189312Y-90773349D01*
X139173454Y-90759220D01*
X139068392Y-90665612D01*
X139068388Y-90665610D01*
X139062721Y-90660560D01*
X138912881Y-90581224D01*
X138748441Y-90539919D01*
X138740843Y-90539879D01*
X138740841Y-90539879D01*
X138663668Y-90539475D01*
X138578895Y-90539031D01*
X138571508Y-90540805D01*
X138571504Y-90540805D01*
X138428162Y-90575220D01*
X138414032Y-90578612D01*
X138407288Y-90582093D01*
X138407285Y-90582094D01*
X138270117Y-90652892D01*
X138263369Y-90656375D01*
X138135604Y-90767831D01*
X138038113Y-90906547D01*
X137976524Y-91064513D01*
X137975532Y-91072046D01*
X137975532Y-91072047D01*
X137975330Y-91073586D01*
X137954394Y-91232611D01*
X134128270Y-91232611D01*
X134338744Y-91116902D01*
X134345424Y-91112662D01*
X134447507Y-91038495D01*
X134455930Y-91027572D01*
X134449026Y-91014711D01*
X133012812Y-89578497D01*
X132998868Y-89570883D01*
X132997035Y-89571014D01*
X132990420Y-89575265D01*
X131550650Y-91015035D01*
X131544037Y-91027146D01*
X130300500Y-91027146D01*
X130300500Y-89523446D01*
X130320502Y-89455325D01*
X130374158Y-89408832D01*
X130444432Y-89398728D01*
X130509012Y-89428222D01*
X130547396Y-89487948D01*
X130550268Y-89499836D01*
X130573010Y-89619053D01*
X130574981Y-89626730D01*
X130669737Y-89918358D01*
X130672652Y-89925721D01*
X130803214Y-90203179D01*
X130807026Y-90210112D01*
X130959281Y-90450029D01*
X130969887Y-90459326D01*
X130979160Y-90455155D01*
X132433183Y-89001132D01*
X133570883Y-89001132D01*
X133571014Y-89002965D01*
X133575265Y-89009580D01*
X135018199Y-90452514D01*
X135030579Y-90459274D01*
X135038719Y-90453181D01*
X135192974Y-90210112D01*
X135196786Y-90203179D01*
X135327348Y-89925721D01*
X135330263Y-89918358D01*
X135425019Y-89626730D01*
X135426990Y-89619053D01*
X135484447Y-89317853D01*
X135485440Y-89309990D01*
X135504694Y-89003958D01*
X135504694Y-88996042D01*
X135504082Y-88986314D01*
X137019876Y-88986314D01*
X137035884Y-89176948D01*
X137037583Y-89182872D01*
X137082933Y-89341029D01*
X137088614Y-89360843D01*
X137091433Y-89366328D01*
X137173242Y-89525511D01*
X137173245Y-89525516D01*
X137176060Y-89530993D01*
X137294889Y-89680918D01*
X137299583Y-89684913D01*
X137359373Y-89735798D01*
X137440575Y-89804907D01*
X137445953Y-89807913D01*
X137445955Y-89807914D01*
X137498412Y-89837231D01*
X137607570Y-89898237D01*
X137789512Y-89957354D01*
X137979472Y-89980005D01*
X137985607Y-89979533D01*
X137985609Y-89979533D01*
X138164071Y-89965801D01*
X138164075Y-89965800D01*
X138170213Y-89965328D01*
X138354472Y-89913882D01*
X138525228Y-89827627D01*
X138530630Y-89823407D01*
X138668217Y-89715912D01*
X138675979Y-89709848D01*
X138697503Y-89684913D01*
X138796958Y-89569692D01*
X138796959Y-89569691D01*
X138800982Y-89565030D01*
X138817574Y-89535824D01*
X138889715Y-89408832D01*
X138892281Y-89404315D01*
X138943320Y-89354964D01*
X139012938Y-89341042D01*
X139079032Y-89366968D01*
X139113903Y-89408957D01*
X139173664Y-89525239D01*
X139180311Y-89535552D01*
X139291421Y-89675738D01*
X139299944Y-89684564D01*
X139436170Y-89800502D01*
X139446242Y-89807502D01*
X139584185Y-89884596D01*
X139597936Y-89887729D01*
X139599220Y-89886049D01*
X139600000Y-89881844D01*
X139600000Y-89872209D01*
X140400000Y-89872209D01*
X140403973Y-89885740D01*
X140407443Y-89886239D01*
X140409158Y-89885698D01*
X140519458Y-89829982D01*
X140529817Y-89823407D01*
X140670777Y-89713278D01*
X140679659Y-89704820D01*
X140796544Y-89569407D01*
X140803618Y-89559380D01*
X140891713Y-89404303D01*
X140942752Y-89354952D01*
X141012370Y-89341029D01*
X141078463Y-89366955D01*
X141113334Y-89408943D01*
X141113608Y-89409476D01*
X141173242Y-89525511D01*
X141173245Y-89525516D01*
X141176060Y-89530993D01*
X141294889Y-89680918D01*
X141299583Y-89684913D01*
X141359373Y-89735798D01*
X141440575Y-89804907D01*
X141445953Y-89807913D01*
X141445955Y-89807914D01*
X141498412Y-89837231D01*
X141607570Y-89898237D01*
X141789512Y-89957354D01*
X141979472Y-89980005D01*
X141985607Y-89979533D01*
X141985609Y-89979533D01*
X142164071Y-89965801D01*
X142164075Y-89965800D01*
X142170213Y-89965328D01*
X142354472Y-89913882D01*
X142525228Y-89827627D01*
X142530630Y-89823407D01*
X142668217Y-89715912D01*
X142675979Y-89709848D01*
X142697503Y-89684913D01*
X142796958Y-89569692D01*
X142796959Y-89569691D01*
X142800982Y-89565030D01*
X142817574Y-89535824D01*
X142878700Y-89428222D01*
X142891987Y-89404833D01*
X142943025Y-89355484D01*
X143012643Y-89341561D01*
X143078737Y-89367487D01*
X143113608Y-89409476D01*
X143173242Y-89525511D01*
X143173245Y-89525516D01*
X143176060Y-89530993D01*
X143294889Y-89680918D01*
X143299583Y-89684913D01*
X143359373Y-89735798D01*
X143440575Y-89804907D01*
X143445953Y-89807913D01*
X143445955Y-89807914D01*
X143498412Y-89837231D01*
X143607570Y-89898237D01*
X143789512Y-89957354D01*
X143979472Y-89980005D01*
X143985607Y-89979533D01*
X143985609Y-89979533D01*
X144164071Y-89965801D01*
X144164075Y-89965800D01*
X144170213Y-89965328D01*
X144354472Y-89913882D01*
X144525228Y-89827627D01*
X144530630Y-89823407D01*
X144668217Y-89715912D01*
X144675979Y-89709848D01*
X144697503Y-89684913D01*
X144796958Y-89569692D01*
X144796959Y-89569691D01*
X144800982Y-89565030D01*
X144817574Y-89535824D01*
X144878700Y-89428222D01*
X144891987Y-89404833D01*
X144943025Y-89355484D01*
X145012643Y-89341561D01*
X145078737Y-89367487D01*
X145113608Y-89409476D01*
X145173242Y-89525511D01*
X145173245Y-89525516D01*
X145176060Y-89530993D01*
X145294889Y-89680918D01*
X145299583Y-89684913D01*
X145359373Y-89735798D01*
X145440575Y-89804907D01*
X145445953Y-89807913D01*
X145445955Y-89807914D01*
X145498412Y-89837231D01*
X145607570Y-89898237D01*
X145789512Y-89957354D01*
X145979472Y-89980005D01*
X145985607Y-89979533D01*
X145985609Y-89979533D01*
X146164071Y-89965801D01*
X146164075Y-89965800D01*
X146170213Y-89965328D01*
X146354472Y-89913882D01*
X146525228Y-89827627D01*
X146530630Y-89823407D01*
X146668217Y-89715912D01*
X146675979Y-89709848D01*
X146697503Y-89684913D01*
X146796958Y-89569692D01*
X146796959Y-89569691D01*
X146800982Y-89565030D01*
X146817574Y-89535824D01*
X146878700Y-89428222D01*
X146891987Y-89404833D01*
X146943025Y-89355484D01*
X147012643Y-89341561D01*
X147078737Y-89367487D01*
X147113608Y-89409476D01*
X147173242Y-89525511D01*
X147173245Y-89525516D01*
X147176060Y-89530993D01*
X147294889Y-89680918D01*
X147299583Y-89684913D01*
X147359373Y-89735798D01*
X147440575Y-89804907D01*
X147445953Y-89807913D01*
X147445955Y-89807914D01*
X147498412Y-89837231D01*
X147607570Y-89898237D01*
X147789512Y-89957354D01*
X147979472Y-89980005D01*
X147985607Y-89979533D01*
X147985609Y-89979533D01*
X148164071Y-89965801D01*
X148164075Y-89965800D01*
X148170213Y-89965328D01*
X148354472Y-89913882D01*
X148525228Y-89827627D01*
X148530630Y-89823407D01*
X148668217Y-89715912D01*
X148675979Y-89709848D01*
X148697503Y-89684913D01*
X148796958Y-89569692D01*
X148796959Y-89569691D01*
X148800982Y-89565030D01*
X148817574Y-89535824D01*
X148878700Y-89428222D01*
X148891987Y-89404833D01*
X148943025Y-89355484D01*
X149012643Y-89341561D01*
X149078737Y-89367487D01*
X149113608Y-89409476D01*
X149173242Y-89525511D01*
X149173245Y-89525516D01*
X149176060Y-89530993D01*
X149294889Y-89680918D01*
X149299583Y-89684913D01*
X149359373Y-89735798D01*
X149440575Y-89804907D01*
X149445953Y-89807913D01*
X149445955Y-89807914D01*
X149498412Y-89837231D01*
X149607570Y-89898237D01*
X149789512Y-89957354D01*
X149979472Y-89980005D01*
X149985607Y-89979533D01*
X149985609Y-89979533D01*
X150164071Y-89965801D01*
X150164075Y-89965800D01*
X150170213Y-89965328D01*
X150354472Y-89913882D01*
X150525228Y-89827627D01*
X150530630Y-89823407D01*
X150668217Y-89715912D01*
X150675979Y-89709848D01*
X150697503Y-89684913D01*
X150796958Y-89569692D01*
X150796959Y-89569691D01*
X150800982Y-89565030D01*
X150817574Y-89535824D01*
X150878700Y-89428222D01*
X150891987Y-89404833D01*
X150943025Y-89355484D01*
X151012643Y-89341561D01*
X151078737Y-89367487D01*
X151113608Y-89409476D01*
X151173242Y-89525511D01*
X151173245Y-89525516D01*
X151176060Y-89530993D01*
X151294889Y-89680918D01*
X151299583Y-89684913D01*
X151359373Y-89735798D01*
X151440575Y-89804907D01*
X151445953Y-89807913D01*
X151445955Y-89807914D01*
X151498412Y-89837231D01*
X151607570Y-89898237D01*
X151789512Y-89957354D01*
X151979472Y-89980005D01*
X151985607Y-89979533D01*
X151985609Y-89979533D01*
X152164071Y-89965801D01*
X152164075Y-89965800D01*
X152170213Y-89965328D01*
X152354472Y-89913882D01*
X152525228Y-89827627D01*
X152530630Y-89823407D01*
X152668217Y-89715912D01*
X152675979Y-89709848D01*
X152697503Y-89684913D01*
X152796958Y-89569692D01*
X152796959Y-89569691D01*
X152800982Y-89565030D01*
X152817574Y-89535824D01*
X152878700Y-89428222D01*
X152891987Y-89404833D01*
X152943025Y-89355484D01*
X153012643Y-89341561D01*
X153078737Y-89367487D01*
X153113608Y-89409476D01*
X153173242Y-89525511D01*
X153173245Y-89525516D01*
X153176060Y-89530993D01*
X153294889Y-89680918D01*
X153299583Y-89684913D01*
X153359373Y-89735798D01*
X153440575Y-89804907D01*
X153445953Y-89807913D01*
X153445955Y-89807914D01*
X153498412Y-89837231D01*
X153607570Y-89898237D01*
X153789512Y-89957354D01*
X153979472Y-89980005D01*
X153985607Y-89979533D01*
X153985609Y-89979533D01*
X154164071Y-89965801D01*
X154164075Y-89965800D01*
X154170213Y-89965328D01*
X154354472Y-89913882D01*
X154525228Y-89827627D01*
X154530630Y-89823407D01*
X154668217Y-89715912D01*
X154675979Y-89709848D01*
X154697503Y-89684913D01*
X154800982Y-89565030D01*
X154802215Y-89566094D01*
X154851648Y-89526860D01*
X154922292Y-89519796D01*
X154985541Y-89552046D01*
X155021314Y-89613371D01*
X155025000Y-89643624D01*
X155025000Y-89715840D01*
X155025442Y-89723286D01*
X155026994Y-89736336D01*
X155031952Y-89754374D01*
X155068755Y-89837231D01*
X155081713Y-89856085D01*
X155144342Y-89918604D01*
X155163212Y-89931525D01*
X155246125Y-89968180D01*
X155264202Y-89973108D01*
X155276787Y-89974576D01*
X155284088Y-89975000D01*
X155581885Y-89975000D01*
X155597124Y-89970525D01*
X155598329Y-89969135D01*
X155600000Y-89961452D01*
X155600000Y-89956885D01*
X156400000Y-89956885D01*
X156404475Y-89972124D01*
X156405865Y-89973329D01*
X156413548Y-89975000D01*
X156715840Y-89975000D01*
X156723286Y-89974558D01*
X156736336Y-89973006D01*
X156754374Y-89968048D01*
X156837231Y-89931245D01*
X156856085Y-89918287D01*
X156918604Y-89855658D01*
X156931525Y-89836788D01*
X156968180Y-89753875D01*
X156973108Y-89735798D01*
X156974576Y-89723213D01*
X156975000Y-89715912D01*
X156975000Y-89418115D01*
X156970525Y-89402876D01*
X156969135Y-89401671D01*
X156961452Y-89400000D01*
X156418115Y-89400000D01*
X156402876Y-89404475D01*
X156401671Y-89405865D01*
X156400000Y-89413548D01*
X156400000Y-89956885D01*
X155600000Y-89956885D01*
X155600000Y-88581885D01*
X156400000Y-88581885D01*
X156404475Y-88597124D01*
X156405865Y-88598329D01*
X156413548Y-88600000D01*
X156956885Y-88600000D01*
X156972124Y-88595525D01*
X156973329Y-88594135D01*
X156975000Y-88586452D01*
X156975000Y-88284160D01*
X156974558Y-88276714D01*
X156973006Y-88263664D01*
X156968048Y-88245626D01*
X156931245Y-88162769D01*
X156918287Y-88143915D01*
X156855658Y-88081396D01*
X156836788Y-88068475D01*
X156753875Y-88031820D01*
X156735798Y-88026892D01*
X156723213Y-88025424D01*
X156715912Y-88025000D01*
X156418115Y-88025000D01*
X156402876Y-88029475D01*
X156401671Y-88030865D01*
X156400000Y-88038548D01*
X156400000Y-88581885D01*
X155600000Y-88581885D01*
X155600000Y-88043115D01*
X155595525Y-88027876D01*
X155594135Y-88026671D01*
X155586452Y-88025000D01*
X155284160Y-88025000D01*
X155276714Y-88025442D01*
X155263664Y-88026994D01*
X155245626Y-88031952D01*
X155162769Y-88068755D01*
X155143915Y-88081713D01*
X155081396Y-88144342D01*
X155068475Y-88163212D01*
X155031820Y-88246125D01*
X155026892Y-88264202D01*
X155025424Y-88276787D01*
X155025000Y-88284088D01*
X155025000Y-88359418D01*
X155004998Y-88427539D01*
X154951342Y-88474032D01*
X154881068Y-88484136D01*
X154816488Y-88454642D01*
X154801357Y-88439054D01*
X154699430Y-88314078D01*
X154699427Y-88314075D01*
X154695535Y-88309303D01*
X154665143Y-88284160D01*
X154552879Y-88191288D01*
X154548132Y-88187361D01*
X154467781Y-88143915D01*
X154385276Y-88099304D01*
X154385273Y-88099303D01*
X154379851Y-88096371D01*
X154289733Y-88068475D01*
X154202988Y-88041623D01*
X154202985Y-88041622D01*
X154197101Y-88039801D01*
X154190976Y-88039157D01*
X154190975Y-88039157D01*
X154012971Y-88020448D01*
X154012970Y-88020448D01*
X154006843Y-88019804D01*
X153900574Y-88029475D01*
X153822466Y-88036583D01*
X153822465Y-88036583D01*
X153816325Y-88037142D01*
X153632803Y-88091156D01*
X153627338Y-88094013D01*
X153468728Y-88176932D01*
X153468724Y-88176935D01*
X153463268Y-88179787D01*
X153314176Y-88299660D01*
X153191207Y-88446208D01*
X153188237Y-88451610D01*
X153188231Y-88451619D01*
X153109896Y-88594109D01*
X153059551Y-88644168D01*
X152990134Y-88659061D01*
X152923685Y-88634060D01*
X152888231Y-88592562D01*
X152819342Y-88463001D01*
X152819341Y-88462999D01*
X152816446Y-88457555D01*
X152736408Y-88359418D01*
X152699430Y-88314078D01*
X152699427Y-88314075D01*
X152695535Y-88309303D01*
X152665143Y-88284160D01*
X152552879Y-88191288D01*
X152548132Y-88187361D01*
X152467781Y-88143915D01*
X152385276Y-88099304D01*
X152385273Y-88099303D01*
X152379851Y-88096371D01*
X152289733Y-88068475D01*
X152202988Y-88041623D01*
X152202985Y-88041622D01*
X152197101Y-88039801D01*
X152190976Y-88039157D01*
X152190975Y-88039157D01*
X152012971Y-88020448D01*
X152012970Y-88020448D01*
X152006843Y-88019804D01*
X151900574Y-88029475D01*
X151822466Y-88036583D01*
X151822465Y-88036583D01*
X151816325Y-88037142D01*
X151632803Y-88091156D01*
X151627338Y-88094013D01*
X151468728Y-88176932D01*
X151468724Y-88176935D01*
X151463268Y-88179787D01*
X151314176Y-88299660D01*
X151191207Y-88446208D01*
X151188237Y-88451610D01*
X151188231Y-88451619D01*
X151109896Y-88594109D01*
X151059551Y-88644168D01*
X150990134Y-88659061D01*
X150923685Y-88634060D01*
X150888231Y-88592562D01*
X150819342Y-88463001D01*
X150819341Y-88462999D01*
X150816446Y-88457555D01*
X150736408Y-88359418D01*
X150699430Y-88314078D01*
X150699427Y-88314075D01*
X150695535Y-88309303D01*
X150665143Y-88284160D01*
X150552879Y-88191288D01*
X150548132Y-88187361D01*
X150467781Y-88143915D01*
X150385276Y-88099304D01*
X150385273Y-88099303D01*
X150379851Y-88096371D01*
X150289733Y-88068475D01*
X150202988Y-88041623D01*
X150202985Y-88041622D01*
X150197101Y-88039801D01*
X150190976Y-88039157D01*
X150190975Y-88039157D01*
X150012971Y-88020448D01*
X150012970Y-88020448D01*
X150006843Y-88019804D01*
X149900574Y-88029475D01*
X149822466Y-88036583D01*
X149822465Y-88036583D01*
X149816325Y-88037142D01*
X149632803Y-88091156D01*
X149627338Y-88094013D01*
X149468728Y-88176932D01*
X149468724Y-88176935D01*
X149463268Y-88179787D01*
X149314176Y-88299660D01*
X149191207Y-88446208D01*
X149188237Y-88451610D01*
X149188231Y-88451619D01*
X149109896Y-88594109D01*
X149059551Y-88644168D01*
X148990134Y-88659061D01*
X148923685Y-88634060D01*
X148888231Y-88592562D01*
X148819342Y-88463001D01*
X148819341Y-88462999D01*
X148816446Y-88457555D01*
X148736408Y-88359418D01*
X148699430Y-88314078D01*
X148699427Y-88314075D01*
X148695535Y-88309303D01*
X148665143Y-88284160D01*
X148552879Y-88191288D01*
X148548132Y-88187361D01*
X148467781Y-88143915D01*
X148385276Y-88099304D01*
X148385273Y-88099303D01*
X148379851Y-88096371D01*
X148289733Y-88068475D01*
X148202988Y-88041623D01*
X148202985Y-88041622D01*
X148197101Y-88039801D01*
X148190976Y-88039157D01*
X148190975Y-88039157D01*
X148012971Y-88020448D01*
X148012970Y-88020448D01*
X148006843Y-88019804D01*
X147900574Y-88029475D01*
X147822466Y-88036583D01*
X147822465Y-88036583D01*
X147816325Y-88037142D01*
X147632803Y-88091156D01*
X147627338Y-88094013D01*
X147468728Y-88176932D01*
X147468724Y-88176935D01*
X147463268Y-88179787D01*
X147314176Y-88299660D01*
X147191207Y-88446208D01*
X147188237Y-88451610D01*
X147188231Y-88451619D01*
X147109896Y-88594109D01*
X147059551Y-88644168D01*
X146990134Y-88659061D01*
X146923685Y-88634060D01*
X146888231Y-88592562D01*
X146819342Y-88463001D01*
X146819341Y-88462999D01*
X146816446Y-88457555D01*
X146736408Y-88359418D01*
X146699430Y-88314078D01*
X146699427Y-88314075D01*
X146695535Y-88309303D01*
X146665143Y-88284160D01*
X146552879Y-88191288D01*
X146548132Y-88187361D01*
X146467781Y-88143915D01*
X146385276Y-88099304D01*
X146385273Y-88099303D01*
X146379851Y-88096371D01*
X146289733Y-88068475D01*
X146202988Y-88041623D01*
X146202985Y-88041622D01*
X146197101Y-88039801D01*
X146190976Y-88039157D01*
X146190975Y-88039157D01*
X146012971Y-88020448D01*
X146012970Y-88020448D01*
X146006843Y-88019804D01*
X145900574Y-88029475D01*
X145822466Y-88036583D01*
X145822465Y-88036583D01*
X145816325Y-88037142D01*
X145632803Y-88091156D01*
X145627338Y-88094013D01*
X145468728Y-88176932D01*
X145468724Y-88176935D01*
X145463268Y-88179787D01*
X145314176Y-88299660D01*
X145191207Y-88446208D01*
X145188237Y-88451610D01*
X145188231Y-88451619D01*
X145109896Y-88594109D01*
X145059551Y-88644168D01*
X144990134Y-88659061D01*
X144923685Y-88634060D01*
X144888231Y-88592562D01*
X144819342Y-88463001D01*
X144819341Y-88462999D01*
X144816446Y-88457555D01*
X144736408Y-88359418D01*
X144699430Y-88314078D01*
X144699427Y-88314075D01*
X144695535Y-88309303D01*
X144665143Y-88284160D01*
X144552879Y-88191288D01*
X144548132Y-88187361D01*
X144467781Y-88143915D01*
X144385276Y-88099304D01*
X144385273Y-88099303D01*
X144379851Y-88096371D01*
X144289733Y-88068475D01*
X144202988Y-88041623D01*
X144202985Y-88041622D01*
X144197101Y-88039801D01*
X144190976Y-88039157D01*
X144190975Y-88039157D01*
X144012971Y-88020448D01*
X144012970Y-88020448D01*
X144006843Y-88019804D01*
X143900574Y-88029475D01*
X143822466Y-88036583D01*
X143822465Y-88036583D01*
X143816325Y-88037142D01*
X143632803Y-88091156D01*
X143627338Y-88094013D01*
X143468728Y-88176932D01*
X143468724Y-88176935D01*
X143463268Y-88179787D01*
X143314176Y-88299660D01*
X143191207Y-88446208D01*
X143188237Y-88451610D01*
X143188231Y-88451619D01*
X143109896Y-88594109D01*
X143059551Y-88644168D01*
X142990134Y-88659061D01*
X142923685Y-88634060D01*
X142888231Y-88592562D01*
X142819342Y-88463001D01*
X142819341Y-88462999D01*
X142816446Y-88457555D01*
X142736408Y-88359418D01*
X142699430Y-88314078D01*
X142699427Y-88314075D01*
X142695535Y-88309303D01*
X142665143Y-88284160D01*
X142552879Y-88191288D01*
X142548132Y-88187361D01*
X142467781Y-88143915D01*
X142385276Y-88099304D01*
X142385273Y-88099303D01*
X142379851Y-88096371D01*
X142289733Y-88068475D01*
X142202988Y-88041623D01*
X142202985Y-88041622D01*
X142197101Y-88039801D01*
X142190976Y-88039157D01*
X142190975Y-88039157D01*
X142012971Y-88020448D01*
X142012970Y-88020448D01*
X142006843Y-88019804D01*
X141900574Y-88029475D01*
X141822466Y-88036583D01*
X141822465Y-88036583D01*
X141816325Y-88037142D01*
X141632803Y-88091156D01*
X141627338Y-88094013D01*
X141468728Y-88176932D01*
X141468724Y-88176935D01*
X141463268Y-88179787D01*
X141314176Y-88299660D01*
X141191207Y-88446208D01*
X141188237Y-88451611D01*
X141188236Y-88451612D01*
X141109609Y-88594634D01*
X141059263Y-88644693D01*
X140989846Y-88659586D01*
X140923397Y-88634585D01*
X140887942Y-88593086D01*
X140818917Y-88463267D01*
X140812135Y-88453058D01*
X140699074Y-88314432D01*
X140690430Y-88305728D01*
X140552601Y-88191706D01*
X140542430Y-88184846D01*
X140415935Y-88116450D01*
X140402144Y-88113510D01*
X140400606Y-88115582D01*
X140400000Y-88118981D01*
X140400000Y-89872209D01*
X139600000Y-89872209D01*
X139600000Y-88126983D01*
X139596027Y-88113452D01*
X139593015Y-88113019D01*
X139590516Y-88113826D01*
X139469007Y-88177350D01*
X139458738Y-88184069D01*
X139319327Y-88296159D01*
X139310568Y-88304737D01*
X139195580Y-88441774D01*
X139188655Y-88451888D01*
X139110178Y-88594637D01*
X139059833Y-88644695D01*
X138990416Y-88659589D01*
X138923966Y-88634588D01*
X138888512Y-88593090D01*
X138819342Y-88463001D01*
X138819341Y-88462999D01*
X138816446Y-88457555D01*
X138736408Y-88359418D01*
X138699430Y-88314078D01*
X138699427Y-88314075D01*
X138695535Y-88309303D01*
X138665143Y-88284160D01*
X138552879Y-88191288D01*
X138548132Y-88187361D01*
X138467781Y-88143915D01*
X138385276Y-88099304D01*
X138385273Y-88099303D01*
X138379851Y-88096371D01*
X138289733Y-88068475D01*
X138202988Y-88041623D01*
X138202985Y-88041622D01*
X138197101Y-88039801D01*
X138190976Y-88039157D01*
X138190975Y-88039157D01*
X138012971Y-88020448D01*
X138012970Y-88020448D01*
X138006843Y-88019804D01*
X137900574Y-88029475D01*
X137822466Y-88036583D01*
X137822465Y-88036583D01*
X137816325Y-88037142D01*
X137632803Y-88091156D01*
X137627338Y-88094013D01*
X137468728Y-88176932D01*
X137468724Y-88176935D01*
X137463268Y-88179787D01*
X137314176Y-88299660D01*
X137191207Y-88446208D01*
X137099045Y-88613850D01*
X137097184Y-88619717D01*
X137097183Y-88619719D01*
X137084703Y-88659061D01*
X137041200Y-88796201D01*
X137019876Y-88986314D01*
X135504082Y-88986314D01*
X135485440Y-88690010D01*
X135484447Y-88682147D01*
X135426990Y-88380947D01*
X135425019Y-88373270D01*
X135330263Y-88081642D01*
X135327348Y-88074279D01*
X135196786Y-87796821D01*
X135192974Y-87789888D01*
X135040719Y-87549971D01*
X135030113Y-87540674D01*
X135020840Y-87544845D01*
X133578497Y-88987188D01*
X133570883Y-89001132D01*
X132433183Y-89001132D01*
X134449350Y-86984965D01*
X134455963Y-86972854D01*
X134447136Y-86961236D01*
X134345424Y-86887338D01*
X134338744Y-86883098D01*
X134070015Y-86735363D01*
X134062880Y-86732006D01*
X133777753Y-86619116D01*
X133770227Y-86616671D01*
X133504880Y-86548541D01*
X133443874Y-86512227D01*
X133412185Y-86448694D01*
X133419875Y-86378115D01*
X133464502Y-86322898D01*
X133536215Y-86300500D01*
X158293979Y-86300500D01*
X158362100Y-86320502D01*
G37*
%TD.AperFunction*%
%TA.AperFunction,Conductor*%
G36*
X173970342Y-129491469D02*
G01*
X174015405Y-129520430D01*
X174813022Y-130318047D01*
X174847048Y-130380359D01*
X174841983Y-130451174D01*
X174813022Y-130496237D01*
X174496237Y-130813022D01*
X174433925Y-130847048D01*
X174363110Y-130841983D01*
X174318047Y-130813022D01*
X173520430Y-130015405D01*
X173486404Y-129953093D01*
X173491469Y-129882278D01*
X173520430Y-129837215D01*
X173837215Y-129520430D01*
X173899527Y-129486404D01*
X173970342Y-129491469D01*
G37*
%TD.AperFunction*%
%TA.AperFunction,Conductor*%
G36*
X132117722Y-129491469D02*
G01*
X132162785Y-129520430D01*
X132479570Y-129837215D01*
X132513596Y-129899527D01*
X132508531Y-129970342D01*
X132479570Y-130015405D01*
X131681953Y-130813022D01*
X131619641Y-130847048D01*
X131548826Y-130841983D01*
X131503763Y-130813022D01*
X131186978Y-130496237D01*
X131152952Y-130433925D01*
X131158017Y-130363110D01*
X131186978Y-130318047D01*
X131984595Y-129520430D01*
X132046907Y-129486404D01*
X132117722Y-129491469D01*
G37*
%TD.AperFunction*%
%TA.AperFunction,Conductor*%
G36*
X131636890Y-87158017D02*
G01*
X131681953Y-87186978D01*
X132479570Y-87984595D01*
X132513596Y-88046907D01*
X132508531Y-88117722D01*
X132479570Y-88162785D01*
X132162785Y-88479570D01*
X132100473Y-88513596D01*
X132029658Y-88508531D01*
X131984595Y-88479570D01*
X131186978Y-87681953D01*
X131152952Y-87619641D01*
X131158017Y-87548826D01*
X131186978Y-87503763D01*
X131503763Y-87186978D01*
X131566075Y-87152952D01*
X131636890Y-87158017D01*
G37*
%TD.AperFunction*%
M02*
