%TF.GenerationSoftware,KiCad,Pcbnew,(6.0.6)*%
%TF.CreationDate,2022-07-17T19:58:46+03:00*%
%TF.ProjectId,Kontroller ESP,4b6f6e74-726f-46c6-9c65-72204553502e,rev?*%
%TF.SameCoordinates,Original*%
%TF.FileFunction,Legend,Top*%
%TF.FilePolarity,Positive*%
%FSLAX46Y46*%
G04 Gerber Fmt 4.6, Leading zero omitted, Abs format (unit mm)*
G04 Created by KiCad (PCBNEW (6.0.6)) date 2022-07-17 19:58:46*
%MOMM*%
%LPD*%
G01*
G04 APERTURE LIST*
G04 Aperture macros list*
%AMRoundRect*
0 Rectangle with rounded corners*
0 $1 Rounding radius*
0 $2 $3 $4 $5 $6 $7 $8 $9 X,Y pos of 4 corners*
0 Add a 4 corners polygon primitive as box body*
4,1,4,$2,$3,$4,$5,$6,$7,$8,$9,$2,$3,0*
0 Add four circle primitives for the rounded corners*
1,1,$1+$1,$2,$3*
1,1,$1+$1,$4,$5*
1,1,$1+$1,$6,$7*
1,1,$1+$1,$8,$9*
0 Add four rect primitives between the rounded corners*
20,1,$1+$1,$2,$3,$4,$5,0*
20,1,$1+$1,$4,$5,$6,$7,0*
20,1,$1+$1,$6,$7,$8,$9,0*
20,1,$1+$1,$8,$9,$2,$3,0*%
G04 Aperture macros list end*
%ADD10C,0.150000*%
%ADD11C,0.120000*%
%ADD12C,0.120028*%
%ADD13C,0.127000*%
%ADD14C,0.200000*%
%ADD15R,0.400000X1.350000*%
%ADD16O,0.890000X1.550000*%
%ADD17R,1.500000X1.550000*%
%ADD18O,1.250000X0.950000*%
%ADD19R,0.800000X1.550000*%
%ADD20R,5.300000X5.300000*%
%ADD21RoundRect,0.062500X-0.337500X0.062500X-0.337500X-0.062500X0.337500X-0.062500X0.337500X0.062500X0*%
%ADD22RoundRect,0.062500X-0.062500X0.337500X-0.062500X-0.337500X0.062500X-0.337500X0.062500X0.337500X0*%
%ADD23RoundRect,0.135000X-0.135000X-0.185000X0.135000X-0.185000X0.135000X0.185000X-0.135000X0.185000X0*%
%ADD24R,2.300000X1.500000*%
%ADD25R,2.300000X1.000000*%
%ADD26RoundRect,0.250000X0.650000X-0.325000X0.650000X0.325000X-0.650000X0.325000X-0.650000X-0.325000X0*%
%ADD27RoundRect,0.150000X0.675000X0.150000X-0.675000X0.150000X-0.675000X-0.150000X0.675000X-0.150000X0*%
%ADD28RoundRect,0.135000X0.185000X-0.135000X0.185000X0.135000X-0.185000X0.135000X-0.185000X-0.135000X0*%
%ADD29R,0.700000X0.700000*%
%ADD30R,0.900000X1.600000*%
%ADD31R,0.500000X0.250000*%
%ADD32R,0.700000X1.500000*%
%ADD33R,1.000000X0.800000*%
%ADD34C,0.900000*%
%ADD35C,4.400000*%
%ADD36C,0.700000*%
%ADD37R,0.900000X0.254000*%
%ADD38R,0.254000X0.900000*%
%ADD39R,3.100000X3.100000*%
%ADD40RoundRect,0.218750X0.218750X0.256250X-0.218750X0.256250X-0.218750X-0.256250X0.218750X-0.256250X0*%
%ADD41RoundRect,0.140000X0.170000X-0.140000X0.170000X0.140000X-0.170000X0.140000X-0.170000X-0.140000X0*%
%ADD42RoundRect,0.200000X0.200000X0.275000X-0.200000X0.275000X-0.200000X-0.275000X0.200000X-0.275000X0*%
%ADD43R,1.350000X1.350000*%
%ADD44O,1.350000X1.350000*%
%ADD45RoundRect,0.135000X0.135000X0.185000X-0.135000X0.185000X-0.135000X-0.185000X0.135000X-0.185000X0*%
%ADD46RoundRect,0.140000X0.140000X0.170000X-0.140000X0.170000X-0.140000X-0.170000X0.140000X-0.170000X0*%
%ADD47RoundRect,0.250000X-0.325000X-0.650000X0.325000X-0.650000X0.325000X0.650000X-0.325000X0.650000X0*%
%ADD48R,1.700000X1.700000*%
%ADD49O,1.700000X1.700000*%
%ADD50RoundRect,0.140000X-0.140000X-0.170000X0.140000X-0.170000X0.140000X0.170000X-0.140000X0.170000X0*%
%ADD51RoundRect,0.147500X0.172500X-0.147500X0.172500X0.147500X-0.172500X0.147500X-0.172500X-0.147500X0*%
%ADD52RoundRect,0.135000X-0.185000X0.135000X-0.185000X-0.135000X0.185000X-0.135000X0.185000X0.135000X0*%
%ADD53R,5.700000X1.600000*%
%ADD54RoundRect,0.150000X0.512500X0.150000X-0.512500X0.150000X-0.512500X-0.150000X0.512500X-0.150000X0*%
%ADD55RoundRect,0.250000X-0.650000X0.325000X-0.650000X-0.325000X0.650000X-0.325000X0.650000X0.325000X0*%
%ADD56RoundRect,0.225000X0.250000X-0.225000X0.250000X0.225000X-0.250000X0.225000X-0.250000X-0.225000X0*%
%ADD57RoundRect,0.200000X-0.200000X-0.275000X0.200000X-0.275000X0.200000X0.275000X-0.200000X0.275000X0*%
%ADD58R,0.350000X0.580000*%
%ADD59R,0.580000X0.350000*%
%ADD60RoundRect,0.200000X0.275000X-0.200000X0.275000X0.200000X-0.275000X0.200000X-0.275000X-0.200000X0*%
%ADD61RoundRect,0.150000X0.587500X0.150000X-0.587500X0.150000X-0.587500X-0.150000X0.587500X-0.150000X0*%
%ADD62RoundRect,0.225000X-0.250000X0.225000X-0.250000X-0.225000X0.250000X-0.225000X0.250000X0.225000X0*%
%ADD63R,1.600000X2.180000*%
%ADD64RoundRect,0.150000X-0.512500X-0.150000X0.512500X-0.150000X0.512500X0.150000X-0.512500X0.150000X0*%
%ADD65R,0.600000X0.450000*%
%ADD66C,1.000000*%
G04 APERTURE END LIST*
D10*
X130132380Y-112238095D02*
X130132380Y-111619047D01*
X130513333Y-111952380D01*
X130513333Y-111809523D01*
X130560952Y-111714285D01*
X130608571Y-111666666D01*
X130703809Y-111619047D01*
X130941904Y-111619047D01*
X131037142Y-111666666D01*
X131084761Y-111714285D01*
X131132380Y-111809523D01*
X131132380Y-112095238D01*
X131084761Y-112190476D01*
X131037142Y-112238095D01*
X130132380Y-111333333D02*
X131132380Y-111000000D01*
X130132380Y-110666666D01*
X130132380Y-110428571D02*
X130132380Y-109809523D01*
X130513333Y-110142857D01*
X130513333Y-110000000D01*
X130560952Y-109904761D01*
X130608571Y-109857142D01*
X130703809Y-109809523D01*
X130941904Y-109809523D01*
X131037142Y-109857142D01*
X131084761Y-109904761D01*
X131132380Y-110000000D01*
X131132380Y-110285714D01*
X131084761Y-110380952D01*
X131037142Y-110428571D01*
X130202380Y-102238095D02*
X130202380Y-101619047D01*
X130583333Y-101952380D01*
X130583333Y-101809523D01*
X130630952Y-101714285D01*
X130678571Y-101666666D01*
X130773809Y-101619047D01*
X131011904Y-101619047D01*
X131107142Y-101666666D01*
X131154761Y-101714285D01*
X131202380Y-101809523D01*
X131202380Y-102095238D01*
X131154761Y-102190476D01*
X131107142Y-102238095D01*
X130202380Y-101333333D02*
X131202380Y-101000000D01*
X130202380Y-100666666D01*
X130202380Y-100428571D02*
X130202380Y-99809523D01*
X130583333Y-100142857D01*
X130583333Y-100000000D01*
X130630952Y-99904761D01*
X130678571Y-99857142D01*
X130773809Y-99809523D01*
X131011904Y-99809523D01*
X131107142Y-99857142D01*
X131154761Y-99904761D01*
X131202380Y-100000000D01*
X131202380Y-100285714D01*
X131154761Y-100380952D01*
X131107142Y-100428571D01*
D11*
X173010000Y-111300000D02*
X175110000Y-111300000D01*
D10*
X172071904Y-104080000D02*
X171976666Y-104032380D01*
X171833809Y-104032380D01*
X171690952Y-104080000D01*
X171595714Y-104175238D01*
X171548095Y-104270476D01*
X171500476Y-104460952D01*
X171500476Y-104603809D01*
X171548095Y-104794285D01*
X171595714Y-104889523D01*
X171690952Y-104984761D01*
X171833809Y-105032380D01*
X171929047Y-105032380D01*
X172071904Y-104984761D01*
X172119523Y-104937142D01*
X172119523Y-104603809D01*
X171929047Y-104603809D01*
X171524285Y-99894761D02*
X171667142Y-99942380D01*
X171905238Y-99942380D01*
X172000476Y-99894761D01*
X172048095Y-99847142D01*
X172095714Y-99751904D01*
X172095714Y-99656666D01*
X172048095Y-99561428D01*
X172000476Y-99513809D01*
X171905238Y-99466190D01*
X171714761Y-99418571D01*
X171619523Y-99370952D01*
X171571904Y-99323333D01*
X171524285Y-99228095D01*
X171524285Y-99132857D01*
X171571904Y-99037619D01*
X171619523Y-98990000D01*
X171714761Y-98942380D01*
X171952857Y-98942380D01*
X172095714Y-98990000D01*
X155278095Y-86650000D02*
X155182857Y-86602380D01*
X155040000Y-86602380D01*
X154897142Y-86650000D01*
X154801904Y-86745238D01*
X154754285Y-86840476D01*
X154706666Y-87030952D01*
X154706666Y-87173809D01*
X154754285Y-87364285D01*
X154801904Y-87459523D01*
X154897142Y-87554761D01*
X155040000Y-87602380D01*
X155135238Y-87602380D01*
X155278095Y-87554761D01*
X155325714Y-87507142D01*
X155325714Y-87173809D01*
X155135238Y-87173809D01*
X155754285Y-87602380D02*
X155754285Y-86602380D01*
X156325714Y-87602380D01*
X156325714Y-86602380D01*
X156801904Y-87602380D02*
X156801904Y-86602380D01*
X157040000Y-86602380D01*
X157182857Y-86650000D01*
X157278095Y-86745238D01*
X157325714Y-86840476D01*
X157373333Y-87030952D01*
X157373333Y-87173809D01*
X157325714Y-87364285D01*
X157278095Y-87459523D01*
X157182857Y-87554761D01*
X157040000Y-87602380D01*
X156801904Y-87602380D01*
X153952380Y-86602380D02*
X154047619Y-86602380D01*
X154142857Y-86650000D01*
X154190476Y-86697619D01*
X154238095Y-86792857D01*
X154285714Y-86983333D01*
X154285714Y-87221428D01*
X154238095Y-87411904D01*
X154190476Y-87507142D01*
X154142857Y-87554761D01*
X154047619Y-87602380D01*
X153952380Y-87602380D01*
X153857142Y-87554761D01*
X153809523Y-87507142D01*
X153761904Y-87411904D01*
X153714285Y-87221428D01*
X153714285Y-86983333D01*
X153761904Y-86792857D01*
X153809523Y-86697619D01*
X153857142Y-86650000D01*
X153952380Y-86602380D01*
X152285714Y-87602380D02*
X151714285Y-87602380D01*
X152000000Y-87602380D02*
X152000000Y-86602380D01*
X151904761Y-86745238D01*
X151809523Y-86840476D01*
X151714285Y-86888095D01*
X149714285Y-86697619D02*
X149761904Y-86650000D01*
X149857142Y-86602380D01*
X150095238Y-86602380D01*
X150190476Y-86650000D01*
X150238095Y-86697619D01*
X150285714Y-86792857D01*
X150285714Y-86888095D01*
X150238095Y-87030952D01*
X149666666Y-87602380D01*
X150285714Y-87602380D01*
X147666666Y-86602380D02*
X148285714Y-86602380D01*
X147952380Y-86983333D01*
X148095238Y-86983333D01*
X148190476Y-87030952D01*
X148238095Y-87078571D01*
X148285714Y-87173809D01*
X148285714Y-87411904D01*
X148238095Y-87507142D01*
X148190476Y-87554761D01*
X148095238Y-87602380D01*
X147809523Y-87602380D01*
X147714285Y-87554761D01*
X147666666Y-87507142D01*
X145761904Y-87316666D02*
X146238095Y-87316666D01*
X145666666Y-87602380D02*
X146000000Y-86602380D01*
X146333333Y-87602380D01*
X144071428Y-87078571D02*
X144214285Y-87126190D01*
X144261904Y-87173809D01*
X144309523Y-87269047D01*
X144309523Y-87411904D01*
X144261904Y-87507142D01*
X144214285Y-87554761D01*
X144119047Y-87602380D01*
X143738095Y-87602380D01*
X143738095Y-86602380D01*
X144071428Y-86602380D01*
X144166666Y-86650000D01*
X144214285Y-86697619D01*
X144261904Y-86792857D01*
X144261904Y-86888095D01*
X144214285Y-86983333D01*
X144166666Y-87030952D01*
X144071428Y-87078571D01*
X143738095Y-87078571D01*
X135722380Y-89098095D02*
X135722380Y-88479047D01*
X136103333Y-88812380D01*
X136103333Y-88669523D01*
X136150952Y-88574285D01*
X136198571Y-88526666D01*
X136293809Y-88479047D01*
X136531904Y-88479047D01*
X136627142Y-88526666D01*
X136674761Y-88574285D01*
X136722380Y-88669523D01*
X136722380Y-88955238D01*
X136674761Y-89050476D01*
X136627142Y-89098095D01*
X135722380Y-88193333D02*
X136722380Y-87860000D01*
X135722380Y-87526666D01*
X135722380Y-87288571D02*
X135722380Y-86669523D01*
X136103333Y-87002857D01*
X136103333Y-86860000D01*
X136150952Y-86764761D01*
X136198571Y-86717142D01*
X136293809Y-86669523D01*
X136531904Y-86669523D01*
X136627142Y-86717142D01*
X136674761Y-86764761D01*
X136722380Y-86860000D01*
X136722380Y-87145714D01*
X136674761Y-87240952D01*
X136627142Y-87288571D01*
X142309523Y-87507142D02*
X142261904Y-87554761D01*
X142119047Y-87602380D01*
X142023809Y-87602380D01*
X141880952Y-87554761D01*
X141785714Y-87459523D01*
X141738095Y-87364285D01*
X141690476Y-87173809D01*
X141690476Y-87030952D01*
X141738095Y-86840476D01*
X141785714Y-86745238D01*
X141880952Y-86650000D01*
X142023809Y-86602380D01*
X142119047Y-86602380D01*
X142261904Y-86650000D01*
X142309523Y-86697619D01*
X139038095Y-86650000D02*
X138942857Y-86602380D01*
X138800000Y-86602380D01*
X138657142Y-86650000D01*
X138561904Y-86745238D01*
X138514285Y-86840476D01*
X138466666Y-87030952D01*
X138466666Y-87173809D01*
X138514285Y-87364285D01*
X138561904Y-87459523D01*
X138657142Y-87554761D01*
X138800000Y-87602380D01*
X138895238Y-87602380D01*
X139038095Y-87554761D01*
X139085714Y-87507142D01*
X139085714Y-87173809D01*
X138895238Y-87173809D01*
X139514285Y-87602380D02*
X139514285Y-86602380D01*
X140085714Y-87602380D01*
X140085714Y-86602380D01*
X140561904Y-87602380D02*
X140561904Y-86602380D01*
X140800000Y-86602380D01*
X140942857Y-86650000D01*
X141038095Y-86745238D01*
X141085714Y-86840476D01*
X141133333Y-87030952D01*
X141133333Y-87173809D01*
X141085714Y-87364285D01*
X141038095Y-87459523D01*
X140942857Y-87554761D01*
X140800000Y-87602380D01*
X140561904Y-87602380D01*
X133905714Y-109357142D02*
X133858095Y-109404761D01*
X133715238Y-109452380D01*
X133620000Y-109452380D01*
X133477142Y-109404761D01*
X133381904Y-109309523D01*
X133334285Y-109214285D01*
X133286666Y-109023809D01*
X133286666Y-108880952D01*
X133334285Y-108690476D01*
X133381904Y-108595238D01*
X133477142Y-108500000D01*
X133620000Y-108452380D01*
X133715238Y-108452380D01*
X133858095Y-108500000D01*
X133905714Y-108547619D01*
X134334285Y-109452380D02*
X134334285Y-108452380D01*
X134334285Y-108928571D02*
X134905714Y-108928571D01*
X134905714Y-109452380D02*
X134905714Y-108452380D01*
X135715238Y-108928571D02*
X135858095Y-108976190D01*
X135905714Y-109023809D01*
X135953333Y-109119047D01*
X135953333Y-109261904D01*
X135905714Y-109357142D01*
X135858095Y-109404761D01*
X135762857Y-109452380D01*
X135381904Y-109452380D01*
X135381904Y-108452380D01*
X135715238Y-108452380D01*
X135810476Y-108500000D01*
X135858095Y-108547619D01*
X135905714Y-108642857D01*
X135905714Y-108738095D01*
X135858095Y-108833333D01*
X135810476Y-108880952D01*
X135715238Y-108928571D01*
X135381904Y-108928571D01*
X133907142Y-107357142D02*
X133859523Y-107404761D01*
X133716666Y-107452380D01*
X133621428Y-107452380D01*
X133478571Y-107404761D01*
X133383333Y-107309523D01*
X133335714Y-107214285D01*
X133288095Y-107023809D01*
X133288095Y-106880952D01*
X133335714Y-106690476D01*
X133383333Y-106595238D01*
X133478571Y-106500000D01*
X133621428Y-106452380D01*
X133716666Y-106452380D01*
X133859523Y-106500000D01*
X133907142Y-106547619D01*
X134335714Y-107452380D02*
X134335714Y-106452380D01*
X134335714Y-106928571D02*
X134907142Y-106928571D01*
X134907142Y-107452380D02*
X134907142Y-106452380D01*
X135335714Y-107166666D02*
X135811904Y-107166666D01*
X135240476Y-107452380D02*
X135573809Y-106452380D01*
X135907142Y-107452380D01*
X133907142Y-99357142D02*
X133859523Y-99404761D01*
X133716666Y-99452380D01*
X133621428Y-99452380D01*
X133478570Y-99404761D01*
X133383332Y-99309523D01*
X133335713Y-99214285D01*
X133288094Y-99023809D01*
X133288094Y-98880952D01*
X133335713Y-98690476D01*
X133383332Y-98595238D01*
X133478570Y-98500000D01*
X133621428Y-98452380D01*
X133716666Y-98452380D01*
X133859523Y-98500000D01*
X133907142Y-98547619D01*
X134335713Y-99452380D02*
X134335713Y-98452380D01*
X134335713Y-98928571D02*
X134907142Y-98928571D01*
X134907142Y-99452380D02*
X134907142Y-98452380D01*
X135716666Y-98928571D02*
X135859523Y-98976190D01*
X135907142Y-99023809D01*
X135954761Y-99119047D01*
X135954761Y-99261904D01*
X135907142Y-99357142D01*
X135859523Y-99404761D01*
X135764285Y-99452380D01*
X135383332Y-99452380D01*
X135383332Y-98452380D01*
X135716666Y-98452380D01*
X135811904Y-98500000D01*
X135859523Y-98547619D01*
X135907142Y-98642857D01*
X135907142Y-98738095D01*
X135859523Y-98833333D01*
X135811904Y-98880952D01*
X135716666Y-98928571D01*
X135383332Y-98928571D01*
X133907142Y-97357142D02*
X133859523Y-97404761D01*
X133716666Y-97452380D01*
X133621428Y-97452380D01*
X133478571Y-97404761D01*
X133383333Y-97309523D01*
X133335714Y-97214285D01*
X133288095Y-97023809D01*
X133288095Y-96880952D01*
X133335714Y-96690476D01*
X133383333Y-96595238D01*
X133478571Y-96500000D01*
X133621428Y-96452380D01*
X133716666Y-96452380D01*
X133859523Y-96500000D01*
X133907142Y-96547619D01*
X134335714Y-97452380D02*
X134335714Y-96452380D01*
X134335714Y-96928571D02*
X134907142Y-96928571D01*
X134907142Y-97452380D02*
X134907142Y-96452380D01*
X135335714Y-97166666D02*
X135811904Y-97166666D01*
X135240476Y-97452380D02*
X135573809Y-96452380D01*
X135907142Y-97452380D01*
X172821904Y-115552380D02*
X173440952Y-115552380D01*
X173107619Y-115933333D01*
X173250476Y-115933333D01*
X173345714Y-115980952D01*
X173393333Y-116028571D01*
X173440952Y-116123809D01*
X173440952Y-116361904D01*
X173393333Y-116457142D01*
X173345714Y-116504761D01*
X173250476Y-116552380D01*
X172964761Y-116552380D01*
X172869523Y-116504761D01*
X172821904Y-116457142D01*
X173726666Y-115552380D02*
X174060000Y-116552380D01*
X174393333Y-115552380D01*
X174631428Y-115552380D02*
X175250476Y-115552380D01*
X174917142Y-115933333D01*
X175060000Y-115933333D01*
X175155238Y-115980952D01*
X175202857Y-116028571D01*
X175250476Y-116123809D01*
X175250476Y-116361904D01*
X175202857Y-116457142D01*
X175155238Y-116504761D01*
X175060000Y-116552380D01*
X174774285Y-116552380D01*
X174679047Y-116504761D01*
X174631428Y-116457142D01*
X131258095Y-114260000D02*
X131162857Y-114212380D01*
X131020000Y-114212380D01*
X130877142Y-114260000D01*
X130781904Y-114355238D01*
X130734285Y-114450476D01*
X130686666Y-114640952D01*
X130686666Y-114783809D01*
X130734285Y-114974285D01*
X130781904Y-115069523D01*
X130877142Y-115164761D01*
X131020000Y-115212380D01*
X131115238Y-115212380D01*
X131258095Y-115164761D01*
X131305714Y-115117142D01*
X131305714Y-114783809D01*
X131115238Y-114783809D01*
X131734285Y-115212380D02*
X131734285Y-114212380D01*
X132305714Y-115212380D01*
X132305714Y-114212380D01*
X132781904Y-115212380D02*
X132781904Y-114212380D01*
X133020000Y-114212380D01*
X133162857Y-114260000D01*
X133258095Y-114355238D01*
X133305714Y-114450476D01*
X133353333Y-114640952D01*
X133353333Y-114783809D01*
X133305714Y-114974285D01*
X133258095Y-115069523D01*
X133162857Y-115164761D01*
X133020000Y-115212380D01*
X132781904Y-115212380D01*
X141309047Y-127701428D02*
X142070952Y-127701428D01*
X141690000Y-128082380D02*
X141690000Y-127320476D01*
X141319047Y-131341428D02*
X142080952Y-131341428D01*
X141700000Y-131722380D02*
X141700000Y-130960476D01*
X133258095Y-91390000D02*
X133162857Y-91342380D01*
X133020000Y-91342380D01*
X132877142Y-91390000D01*
X132781904Y-91485238D01*
X132734285Y-91580476D01*
X132686666Y-91770952D01*
X132686666Y-91913809D01*
X132734285Y-92104285D01*
X132781904Y-92199523D01*
X132877142Y-92294761D01*
X133020000Y-92342380D01*
X133115238Y-92342380D01*
X133258095Y-92294761D01*
X133305714Y-92247142D01*
X133305714Y-91913809D01*
X133115238Y-91913809D01*
X133734285Y-92342380D02*
X133734285Y-91342380D01*
X134305714Y-92342380D01*
X134305714Y-91342380D01*
X134781904Y-92342380D02*
X134781904Y-91342380D01*
X135020000Y-91342380D01*
X135162857Y-91390000D01*
X135258095Y-91485238D01*
X135305714Y-91580476D01*
X135353333Y-91770952D01*
X135353333Y-91913809D01*
X135305714Y-92104285D01*
X135258095Y-92199523D01*
X135162857Y-92294761D01*
X135020000Y-92342380D01*
X134781904Y-92342380D01*
X173298095Y-106130000D02*
X173202857Y-106082380D01*
X173060000Y-106082380D01*
X172917142Y-106130000D01*
X172821904Y-106225238D01*
X172774285Y-106320476D01*
X172726666Y-106510952D01*
X172726666Y-106653809D01*
X172774285Y-106844285D01*
X172821904Y-106939523D01*
X172917142Y-107034761D01*
X173060000Y-107082380D01*
X173155238Y-107082380D01*
X173298095Y-107034761D01*
X173345714Y-106987142D01*
X173345714Y-106653809D01*
X173155238Y-106653809D01*
X173774285Y-107082380D02*
X173774285Y-106082380D01*
X174345714Y-107082380D01*
X174345714Y-106082380D01*
X174821904Y-107082380D02*
X174821904Y-106082380D01*
X175060000Y-106082380D01*
X175202857Y-106130000D01*
X175298095Y-106225238D01*
X175345714Y-106320476D01*
X175393333Y-106510952D01*
X175393333Y-106653809D01*
X175345714Y-106844285D01*
X175298095Y-106939523D01*
X175202857Y-107034761D01*
X175060000Y-107082380D01*
X174821904Y-107082380D01*
X137465714Y-95764761D02*
X137608571Y-95812380D01*
X137846666Y-95812380D01*
X137941904Y-95764761D01*
X137989523Y-95717142D01*
X138037142Y-95621904D01*
X138037142Y-95526666D01*
X137989523Y-95431428D01*
X137941904Y-95383809D01*
X137846666Y-95336190D01*
X137656190Y-95288571D01*
X137560952Y-95240952D01*
X137513333Y-95193333D01*
X137465714Y-95098095D01*
X137465714Y-95002857D01*
X137513333Y-94907619D01*
X137560952Y-94860000D01*
X137656190Y-94812380D01*
X137894285Y-94812380D01*
X138037142Y-94860000D01*
X138465714Y-95812380D02*
X138465714Y-94812380D01*
X138703809Y-94812380D01*
X138846666Y-94860000D01*
X138941904Y-94955238D01*
X138989523Y-95050476D01*
X139037142Y-95240952D01*
X139037142Y-95383809D01*
X138989523Y-95574285D01*
X138941904Y-95669523D01*
X138846666Y-95764761D01*
X138703809Y-95812380D01*
X138465714Y-95812380D01*
X139418095Y-95526666D02*
X139894285Y-95526666D01*
X139322857Y-95812380D02*
X139656190Y-94812380D01*
X139989523Y-95812380D01*
X168168095Y-109837619D02*
X168215714Y-109790000D01*
X168310952Y-109742380D01*
X168549047Y-109742380D01*
X168644285Y-109790000D01*
X168691904Y-109837619D01*
X168739523Y-109932857D01*
X168739523Y-110028095D01*
X168691904Y-110170952D01*
X168120476Y-110742380D01*
X168739523Y-110742380D01*
X169120476Y-109837619D02*
X169168095Y-109790000D01*
X169263333Y-109742380D01*
X169501428Y-109742380D01*
X169596666Y-109790000D01*
X169644285Y-109837619D01*
X169691904Y-109932857D01*
X169691904Y-110028095D01*
X169644285Y-110170952D01*
X169072857Y-110742380D01*
X169691904Y-110742380D01*
X169219523Y-112742380D02*
X169410000Y-112742380D01*
X169505238Y-112694761D01*
X169552857Y-112647142D01*
X169648095Y-112504285D01*
X169695714Y-112313809D01*
X169695714Y-111932857D01*
X169648095Y-111837619D01*
X169600476Y-111790000D01*
X169505238Y-111742380D01*
X169314761Y-111742380D01*
X169219523Y-111790000D01*
X169171904Y-111837619D01*
X169124285Y-111932857D01*
X169124285Y-112170952D01*
X169171904Y-112266190D01*
X169219523Y-112313809D01*
X169314761Y-112361428D01*
X169505238Y-112361428D01*
X169600476Y-112313809D01*
X169648095Y-112266190D01*
X169695714Y-112170952D01*
X137302380Y-115082857D02*
X136302380Y-115082857D01*
X137016666Y-114749523D01*
X136302380Y-114416190D01*
X137302380Y-114416190D01*
X136302380Y-113749523D02*
X136302380Y-113559047D01*
X136350000Y-113463809D01*
X136445238Y-113368571D01*
X136635714Y-113320952D01*
X136969047Y-113320952D01*
X137159523Y-113368571D01*
X137254761Y-113463809D01*
X137302380Y-113559047D01*
X137302380Y-113749523D01*
X137254761Y-113844761D01*
X137159523Y-113940000D01*
X136969047Y-113987619D01*
X136635714Y-113987619D01*
X136445238Y-113940000D01*
X136350000Y-113844761D01*
X136302380Y-113749523D01*
X136302380Y-113035238D02*
X136302380Y-112463809D01*
X137302380Y-112749523D02*
X136302380Y-112749523D01*
X136302380Y-111940000D02*
X136302380Y-111749523D01*
X136350000Y-111654285D01*
X136445238Y-111559047D01*
X136635714Y-111511428D01*
X136969047Y-111511428D01*
X137159523Y-111559047D01*
X137254761Y-111654285D01*
X137302380Y-111749523D01*
X137302380Y-111940000D01*
X137254761Y-112035238D01*
X137159523Y-112130476D01*
X136969047Y-112178095D01*
X136635714Y-112178095D01*
X136445238Y-112130476D01*
X136350000Y-112035238D01*
X136302380Y-111940000D01*
X137302380Y-110511428D02*
X136826190Y-110844761D01*
X137302380Y-111082857D02*
X136302380Y-111082857D01*
X136302380Y-110701904D01*
X136350000Y-110606666D01*
X136397619Y-110559047D01*
X136492857Y-110511428D01*
X136635714Y-110511428D01*
X136730952Y-110559047D01*
X136778571Y-110606666D01*
X136826190Y-110701904D01*
X136826190Y-111082857D01*
X136778571Y-108987619D02*
X136826190Y-108844761D01*
X136873809Y-108797142D01*
X136969047Y-108749523D01*
X137111904Y-108749523D01*
X137207142Y-108797142D01*
X137254761Y-108844761D01*
X137302380Y-108940000D01*
X137302380Y-109320952D01*
X136302380Y-109320952D01*
X136302380Y-108987619D01*
X136350000Y-108892380D01*
X136397619Y-108844761D01*
X136492857Y-108797142D01*
X136588095Y-108797142D01*
X136683333Y-108844761D01*
X136730952Y-108892380D01*
X136778571Y-108987619D01*
X136778571Y-109320952D01*
X168743333Y-114742380D02*
X168171905Y-114742380D01*
X168457619Y-114742380D02*
X168457619Y-113742380D01*
X168362381Y-113885238D01*
X168267143Y-113980476D01*
X168171905Y-114028095D01*
X169362381Y-113742380D02*
X169457619Y-113742380D01*
X169552857Y-113790000D01*
X169600476Y-113837619D01*
X169648095Y-113932857D01*
X169695714Y-114123333D01*
X169695714Y-114361428D01*
X169648095Y-114551904D01*
X169600476Y-114647142D01*
X169552857Y-114694761D01*
X169457619Y-114742380D01*
X169362381Y-114742380D01*
X169267143Y-114694761D01*
X169219524Y-114647142D01*
X169171905Y-114551904D01*
X169124286Y-114361428D01*
X169124286Y-114123333D01*
X169171905Y-113932857D01*
X169219524Y-113837619D01*
X169267143Y-113790000D01*
X169362381Y-113742380D01*
X134589523Y-95744761D02*
X134732380Y-95792380D01*
X134970476Y-95792380D01*
X135065714Y-95744761D01*
X135113333Y-95697142D01*
X135160952Y-95601904D01*
X135160952Y-95506666D01*
X135113333Y-95411428D01*
X135065714Y-95363809D01*
X134970476Y-95316190D01*
X134780000Y-95268571D01*
X134684761Y-95220952D01*
X134637142Y-95173333D01*
X134589523Y-95078095D01*
X134589523Y-94982857D01*
X134637142Y-94887619D01*
X134684761Y-94840000D01*
X134780000Y-94792380D01*
X135018095Y-94792380D01*
X135160952Y-94840000D01*
X136160952Y-95697142D02*
X136113333Y-95744761D01*
X135970476Y-95792380D01*
X135875238Y-95792380D01*
X135732380Y-95744761D01*
X135637142Y-95649523D01*
X135589523Y-95554285D01*
X135541904Y-95363809D01*
X135541904Y-95220952D01*
X135589523Y-95030476D01*
X135637142Y-94935238D01*
X135732380Y-94840000D01*
X135875238Y-94792380D01*
X135970476Y-94792380D01*
X136113333Y-94840000D01*
X136160952Y-94887619D01*
X137065714Y-95792380D02*
X136589523Y-95792380D01*
X136589523Y-94792380D01*
X131258095Y-104330000D02*
X131162857Y-104282380D01*
X131020000Y-104282380D01*
X130877142Y-104330000D01*
X130781904Y-104425238D01*
X130734285Y-104520476D01*
X130686666Y-104710952D01*
X130686666Y-104853809D01*
X130734285Y-105044285D01*
X130781904Y-105139523D01*
X130877142Y-105234761D01*
X131020000Y-105282380D01*
X131115238Y-105282380D01*
X131258095Y-105234761D01*
X131305714Y-105187142D01*
X131305714Y-104853809D01*
X131115238Y-104853809D01*
X131734285Y-105282380D02*
X131734285Y-104282380D01*
X132305714Y-105282380D01*
X132305714Y-104282380D01*
X132781904Y-105282380D02*
X132781904Y-104282380D01*
X133020000Y-104282380D01*
X133162857Y-104330000D01*
X133258095Y-104425238D01*
X133305714Y-104520476D01*
X133353333Y-104710952D01*
X133353333Y-104853809D01*
X133305714Y-105044285D01*
X133258095Y-105139523D01*
X133162857Y-105234761D01*
X133020000Y-105282380D01*
X132781904Y-105282380D01*
X137302380Y-105011428D02*
X136302380Y-105011428D01*
X137016666Y-104678095D01*
X136302380Y-104344761D01*
X137302380Y-104344761D01*
X136302380Y-103678095D02*
X136302380Y-103487619D01*
X136350000Y-103392380D01*
X136445238Y-103297142D01*
X136635714Y-103249523D01*
X136969047Y-103249523D01*
X137159523Y-103297142D01*
X137254761Y-103392380D01*
X137302380Y-103487619D01*
X137302380Y-103678095D01*
X137254761Y-103773333D01*
X137159523Y-103868571D01*
X136969047Y-103916190D01*
X136635714Y-103916190D01*
X136445238Y-103868571D01*
X136350000Y-103773333D01*
X136302380Y-103678095D01*
X136302380Y-102963809D02*
X136302380Y-102392380D01*
X137302380Y-102678095D02*
X136302380Y-102678095D01*
X136302380Y-101868571D02*
X136302380Y-101678095D01*
X136350000Y-101582857D01*
X136445238Y-101487619D01*
X136635714Y-101440000D01*
X136969047Y-101440000D01*
X137159523Y-101487619D01*
X137254761Y-101582857D01*
X137302380Y-101678095D01*
X137302380Y-101868571D01*
X137254761Y-101963809D01*
X137159523Y-102059047D01*
X136969047Y-102106666D01*
X136635714Y-102106666D01*
X136445238Y-102059047D01*
X136350000Y-101963809D01*
X136302380Y-101868571D01*
X137302380Y-100440000D02*
X136826190Y-100773333D01*
X137302380Y-101011428D02*
X136302380Y-101011428D01*
X136302380Y-100630476D01*
X136350000Y-100535238D01*
X136397619Y-100487619D01*
X136492857Y-100440000D01*
X136635714Y-100440000D01*
X136730952Y-100487619D01*
X136778571Y-100535238D01*
X136826190Y-100630476D01*
X136826190Y-101011428D01*
X137016666Y-99297142D02*
X137016666Y-98820952D01*
X137302380Y-99392380D02*
X136302380Y-99059047D01*
X137302380Y-98725714D01*
X168124286Y-107742380D02*
X168743333Y-107742380D01*
X168410000Y-108123333D01*
X168552857Y-108123333D01*
X168648095Y-108170952D01*
X168695714Y-108218571D01*
X168743333Y-108313809D01*
X168743333Y-108551904D01*
X168695714Y-108647142D01*
X168648095Y-108694761D01*
X168552857Y-108742380D01*
X168267143Y-108742380D01*
X168171905Y-108694761D01*
X168124286Y-108647142D01*
X169600476Y-108075714D02*
X169600476Y-108742380D01*
X169362381Y-107694761D02*
X169124286Y-108409047D01*
X169743333Y-108409047D01*
X163616666Y-125152380D02*
X163616666Y-125866666D01*
X163569047Y-126009523D01*
X163473809Y-126104761D01*
X163330952Y-126152380D01*
X163235714Y-126152380D01*
X164569047Y-125152380D02*
X164092857Y-125152380D01*
X164045238Y-125628571D01*
X164092857Y-125580952D01*
X164188095Y-125533333D01*
X164426190Y-125533333D01*
X164521428Y-125580952D01*
X164569047Y-125628571D01*
X164616666Y-125723809D01*
X164616666Y-125961904D01*
X164569047Y-126057142D01*
X164521428Y-126104761D01*
X164426190Y-126152380D01*
X164188095Y-126152380D01*
X164092857Y-126104761D01*
X164045238Y-126057142D01*
X164622380Y-104231904D02*
X165431904Y-104231904D01*
X165527142Y-104184285D01*
X165574761Y-104136666D01*
X165622380Y-104041428D01*
X165622380Y-103850952D01*
X165574761Y-103755714D01*
X165527142Y-103708095D01*
X165431904Y-103660476D01*
X164622380Y-103660476D01*
X164622380Y-102755714D02*
X164622380Y-102946190D01*
X164670000Y-103041428D01*
X164717619Y-103089047D01*
X164860476Y-103184285D01*
X165050952Y-103231904D01*
X165431904Y-103231904D01*
X165527142Y-103184285D01*
X165574761Y-103136666D01*
X165622380Y-103041428D01*
X165622380Y-102850952D01*
X165574761Y-102755714D01*
X165527142Y-102708095D01*
X165431904Y-102660476D01*
X165193809Y-102660476D01*
X165098571Y-102708095D01*
X165050952Y-102755714D01*
X165003333Y-102850952D01*
X165003333Y-103041428D01*
X165050952Y-103136666D01*
X165098571Y-103184285D01*
X165193809Y-103231904D01*
X165892380Y-96822857D02*
X165416190Y-97156190D01*
X165892380Y-97394285D02*
X164892380Y-97394285D01*
X164892380Y-97013333D01*
X164940000Y-96918095D01*
X164987619Y-96870476D01*
X165082857Y-96822857D01*
X165225714Y-96822857D01*
X165320952Y-96870476D01*
X165368571Y-96918095D01*
X165416190Y-97013333D01*
X165416190Y-97394285D01*
X165892380Y-95870476D02*
X165892380Y-96441904D01*
X165892380Y-96156190D02*
X164892380Y-96156190D01*
X165035238Y-96251428D01*
X165130476Y-96346666D01*
X165178095Y-96441904D01*
X164892380Y-94965714D02*
X164892380Y-95441904D01*
X165368571Y-95489523D01*
X165320952Y-95441904D01*
X165273333Y-95346666D01*
X165273333Y-95108571D01*
X165320952Y-95013333D01*
X165368571Y-94965714D01*
X165463809Y-94918095D01*
X165701904Y-94918095D01*
X165797142Y-94965714D01*
X165844761Y-95013333D01*
X165892380Y-95108571D01*
X165892380Y-95346666D01*
X165844761Y-95441904D01*
X165797142Y-95489523D01*
X160776666Y-90646666D02*
X160776666Y-90170476D01*
X161062380Y-90741904D02*
X160062380Y-90408571D01*
X161062380Y-90075238D01*
X160538571Y-89741904D02*
X160538571Y-89408571D01*
X161062380Y-89265714D02*
X161062380Y-89741904D01*
X160062380Y-89741904D01*
X160062380Y-89265714D01*
X161062380Y-88313333D02*
X161062380Y-88884761D01*
X161062380Y-88599047D02*
X160062380Y-88599047D01*
X160205238Y-88694285D01*
X160300476Y-88789523D01*
X160348095Y-88884761D01*
X145483333Y-115377142D02*
X145435714Y-115424761D01*
X145292857Y-115472380D01*
X145197619Y-115472380D01*
X145054761Y-115424761D01*
X144959523Y-115329523D01*
X144911904Y-115234285D01*
X144864285Y-115043809D01*
X144864285Y-114900952D01*
X144911904Y-114710476D01*
X144959523Y-114615238D01*
X145054761Y-114520000D01*
X145197619Y-114472380D01*
X145292857Y-114472380D01*
X145435714Y-114520000D01*
X145483333Y-114567619D01*
X146054761Y-114900952D02*
X145959523Y-114853333D01*
X145911904Y-114805714D01*
X145864285Y-114710476D01*
X145864285Y-114662857D01*
X145911904Y-114567619D01*
X145959523Y-114520000D01*
X146054761Y-114472380D01*
X146245238Y-114472380D01*
X146340476Y-114520000D01*
X146388095Y-114567619D01*
X146435714Y-114662857D01*
X146435714Y-114710476D01*
X146388095Y-114805714D01*
X146340476Y-114853333D01*
X146245238Y-114900952D01*
X146054761Y-114900952D01*
X145959523Y-114948571D01*
X145911904Y-114996190D01*
X145864285Y-115091428D01*
X145864285Y-115281904D01*
X145911904Y-115377142D01*
X145959523Y-115424761D01*
X146054761Y-115472380D01*
X146245238Y-115472380D01*
X146340476Y-115424761D01*
X146388095Y-115377142D01*
X146435714Y-115281904D01*
X146435714Y-115091428D01*
X146388095Y-114996190D01*
X146340476Y-114948571D01*
X146245238Y-114900952D01*
X143104761Y-126697619D02*
X143009523Y-126650000D01*
X142914285Y-126554761D01*
X142771428Y-126411904D01*
X142676190Y-126364285D01*
X142580952Y-126364285D01*
X142628571Y-126602380D02*
X142533333Y-126554761D01*
X142438095Y-126459523D01*
X142390476Y-126269047D01*
X142390476Y-125935714D01*
X142438095Y-125745238D01*
X142533333Y-125650000D01*
X142628571Y-125602380D01*
X142819047Y-125602380D01*
X142914285Y-125650000D01*
X143009523Y-125745238D01*
X143057142Y-125935714D01*
X143057142Y-126269047D01*
X143009523Y-126459523D01*
X142914285Y-126554761D01*
X142819047Y-126602380D01*
X142628571Y-126602380D01*
X144009523Y-126602380D02*
X143438095Y-126602380D01*
X143723809Y-126602380D02*
X143723809Y-125602380D01*
X143628571Y-125745238D01*
X143533333Y-125840476D01*
X143438095Y-125888095D01*
X163282380Y-119092857D02*
X162806190Y-119426190D01*
X163282380Y-119664285D02*
X162282380Y-119664285D01*
X162282380Y-119283333D01*
X162330000Y-119188095D01*
X162377619Y-119140476D01*
X162472857Y-119092857D01*
X162615714Y-119092857D01*
X162710952Y-119140476D01*
X162758571Y-119188095D01*
X162806190Y-119283333D01*
X162806190Y-119664285D01*
X162377619Y-118711904D02*
X162330000Y-118664285D01*
X162282380Y-118569047D01*
X162282380Y-118330952D01*
X162330000Y-118235714D01*
X162377619Y-118188095D01*
X162472857Y-118140476D01*
X162568095Y-118140476D01*
X162710952Y-118188095D01*
X163282380Y-118759523D01*
X163282380Y-118140476D01*
X162282380Y-117807142D02*
X162282380Y-117188095D01*
X162663333Y-117521428D01*
X162663333Y-117378571D01*
X162710952Y-117283333D01*
X162758571Y-117235714D01*
X162853809Y-117188095D01*
X163091904Y-117188095D01*
X163187142Y-117235714D01*
X163234761Y-117283333D01*
X163282380Y-117378571D01*
X163282380Y-117664285D01*
X163234761Y-117759523D01*
X163187142Y-117807142D01*
X165161904Y-107872380D02*
X165161904Y-106872380D01*
X165400000Y-106872380D01*
X165542857Y-106920000D01*
X165638095Y-107015238D01*
X165685714Y-107110476D01*
X165733333Y-107300952D01*
X165733333Y-107443809D01*
X165685714Y-107634285D01*
X165638095Y-107729523D01*
X165542857Y-107824761D01*
X165400000Y-107872380D01*
X165161904Y-107872380D01*
X166066666Y-106872380D02*
X166685714Y-106872380D01*
X166352380Y-107253333D01*
X166495238Y-107253333D01*
X166590476Y-107300952D01*
X166638095Y-107348571D01*
X166685714Y-107443809D01*
X166685714Y-107681904D01*
X166638095Y-107777142D01*
X166590476Y-107824761D01*
X166495238Y-107872380D01*
X166209523Y-107872380D01*
X166114285Y-107824761D01*
X166066666Y-107777142D01*
X139058095Y-113302380D02*
X139058095Y-114111904D01*
X139105714Y-114207142D01*
X139153333Y-114254761D01*
X139248571Y-114302380D01*
X139439047Y-114302380D01*
X139534285Y-114254761D01*
X139581904Y-114207142D01*
X139629523Y-114111904D01*
X139629523Y-113302380D01*
X140010476Y-113302380D02*
X140677142Y-113302380D01*
X140248571Y-114302380D01*
X157076666Y-128304761D02*
X157219523Y-128352380D01*
X157457619Y-128352380D01*
X157552857Y-128304761D01*
X157600476Y-128257142D01*
X157648095Y-128161904D01*
X157648095Y-128066666D01*
X157600476Y-127971428D01*
X157552857Y-127923809D01*
X157457619Y-127876190D01*
X157267142Y-127828571D01*
X157171904Y-127780952D01*
X157124285Y-127733333D01*
X157076666Y-127638095D01*
X157076666Y-127542857D01*
X157124285Y-127447619D01*
X157171904Y-127400000D01*
X157267142Y-127352380D01*
X157505238Y-127352380D01*
X157648095Y-127400000D01*
X157981428Y-127352380D02*
X158219523Y-128352380D01*
X158410000Y-127638095D01*
X158600476Y-128352380D01*
X158838571Y-127352380D01*
X159743333Y-128352380D02*
X159171904Y-128352380D01*
X159457619Y-128352380D02*
X159457619Y-127352380D01*
X159362380Y-127495238D01*
X159267142Y-127590476D01*
X159171904Y-127638095D01*
D12*
X174377451Y-123297082D02*
X174377451Y-123685743D01*
X174400313Y-123731468D01*
X174423176Y-123754330D01*
X174468900Y-123777193D01*
X174560350Y-123777193D01*
X174606075Y-123754330D01*
X174628937Y-123731468D01*
X174651800Y-123685743D01*
X174651800Y-123297082D01*
X174834699Y-123297082D02*
X175131911Y-123297082D01*
X174971874Y-123479981D01*
X175040461Y-123479981D01*
X175086186Y-123502843D01*
X175109048Y-123525706D01*
X175131911Y-123571431D01*
X175131911Y-123685743D01*
X175109048Y-123731468D01*
X175086186Y-123754330D01*
X175040461Y-123777193D01*
X174903287Y-123777193D01*
X174857562Y-123754330D01*
X174834699Y-123731468D01*
D10*
X148751904Y-112732380D02*
X148751904Y-111732380D01*
X148990000Y-111732380D01*
X149132857Y-111780000D01*
X149228095Y-111875238D01*
X149275714Y-111970476D01*
X149323333Y-112160952D01*
X149323333Y-112303809D01*
X149275714Y-112494285D01*
X149228095Y-112589523D01*
X149132857Y-112684761D01*
X148990000Y-112732380D01*
X148751904Y-112732380D01*
X150275714Y-112732380D02*
X149704285Y-112732380D01*
X149990000Y-112732380D02*
X149990000Y-111732380D01*
X149894761Y-111875238D01*
X149799523Y-111970476D01*
X149704285Y-112018095D01*
X144597142Y-111042857D02*
X144644761Y-111090476D01*
X144692380Y-111233333D01*
X144692380Y-111328571D01*
X144644761Y-111471428D01*
X144549523Y-111566666D01*
X144454285Y-111614285D01*
X144263809Y-111661904D01*
X144120952Y-111661904D01*
X143930476Y-111614285D01*
X143835238Y-111566666D01*
X143740000Y-111471428D01*
X143692380Y-111328571D01*
X143692380Y-111233333D01*
X143740000Y-111090476D01*
X143787619Y-111042857D01*
X143787619Y-110661904D02*
X143740000Y-110614285D01*
X143692380Y-110519047D01*
X143692380Y-110280952D01*
X143740000Y-110185714D01*
X143787619Y-110138095D01*
X143882857Y-110090476D01*
X143978095Y-110090476D01*
X144120952Y-110138095D01*
X144692380Y-110709523D01*
X144692380Y-110090476D01*
X143692380Y-109471428D02*
X143692380Y-109376190D01*
X143740000Y-109280952D01*
X143787619Y-109233333D01*
X143882857Y-109185714D01*
X144073333Y-109138095D01*
X144311428Y-109138095D01*
X144501904Y-109185714D01*
X144597142Y-109233333D01*
X144644761Y-109280952D01*
X144692380Y-109376190D01*
X144692380Y-109471428D01*
X144644761Y-109566666D01*
X144597142Y-109614285D01*
X144501904Y-109661904D01*
X144311428Y-109709523D01*
X144073333Y-109709523D01*
X143882857Y-109661904D01*
X143787619Y-109614285D01*
X143740000Y-109566666D01*
X143692380Y-109471428D01*
X136073333Y-90502380D02*
X135740000Y-90026190D01*
X135501904Y-90502380D02*
X135501904Y-89502380D01*
X135882857Y-89502380D01*
X135978095Y-89550000D01*
X136025714Y-89597619D01*
X136073333Y-89692857D01*
X136073333Y-89835714D01*
X136025714Y-89930952D01*
X135978095Y-89978571D01*
X135882857Y-90026190D01*
X135501904Y-90026190D01*
X137025714Y-90502380D02*
X136454285Y-90502380D01*
X136740000Y-90502380D02*
X136740000Y-89502380D01*
X136644761Y-89645238D01*
X136549523Y-89740476D01*
X136454285Y-89788095D01*
X165627142Y-100772857D02*
X165674761Y-100820476D01*
X165722380Y-100963333D01*
X165722380Y-101058571D01*
X165674761Y-101201428D01*
X165579523Y-101296666D01*
X165484285Y-101344285D01*
X165293809Y-101391904D01*
X165150952Y-101391904D01*
X164960476Y-101344285D01*
X164865238Y-101296666D01*
X164770000Y-101201428D01*
X164722380Y-101058571D01*
X164722380Y-100963333D01*
X164770000Y-100820476D01*
X164817619Y-100772857D01*
X165722380Y-99820476D02*
X165722380Y-100391904D01*
X165722380Y-100106190D02*
X164722380Y-100106190D01*
X164865238Y-100201428D01*
X164960476Y-100296666D01*
X165008095Y-100391904D01*
X165722380Y-98868095D02*
X165722380Y-99439523D01*
X165722380Y-99153809D02*
X164722380Y-99153809D01*
X164865238Y-99249047D01*
X164960476Y-99344285D01*
X165008095Y-99439523D01*
X170230476Y-115572380D02*
X170230476Y-116286666D01*
X170182857Y-116429523D01*
X170087619Y-116524761D01*
X169944761Y-116572380D01*
X169849523Y-116572380D01*
X171230476Y-116572380D02*
X170659047Y-116572380D01*
X170944761Y-116572380D02*
X170944761Y-115572380D01*
X170849523Y-115715238D01*
X170754285Y-115810476D01*
X170659047Y-115858095D01*
X172182857Y-116572380D02*
X171611428Y-116572380D01*
X171897142Y-116572380D02*
X171897142Y-115572380D01*
X171801904Y-115715238D01*
X171706666Y-115810476D01*
X171611428Y-115858095D01*
X144193333Y-96412380D02*
X143860000Y-95936190D01*
X143621904Y-96412380D02*
X143621904Y-95412380D01*
X144002857Y-95412380D01*
X144098095Y-95460000D01*
X144145714Y-95507619D01*
X144193333Y-95602857D01*
X144193333Y-95745714D01*
X144145714Y-95840952D01*
X144098095Y-95888571D01*
X144002857Y-95936190D01*
X143621904Y-95936190D01*
X145098095Y-95412380D02*
X144621904Y-95412380D01*
X144574285Y-95888571D01*
X144621904Y-95840952D01*
X144717142Y-95793333D01*
X144955238Y-95793333D01*
X145050476Y-95840952D01*
X145098095Y-95888571D01*
X145145714Y-95983809D01*
X145145714Y-96221904D01*
X145098095Y-96317142D01*
X145050476Y-96364761D01*
X144955238Y-96412380D01*
X144717142Y-96412380D01*
X144621904Y-96364761D01*
X144574285Y-96317142D01*
X174912380Y-114089523D02*
X175626666Y-114089523D01*
X175769523Y-114137142D01*
X175864761Y-114232380D01*
X175912380Y-114375238D01*
X175912380Y-114470476D01*
X175912380Y-113089523D02*
X175912380Y-113660952D01*
X175912380Y-113375238D02*
X174912380Y-113375238D01*
X175055238Y-113470476D01*
X175150476Y-113565714D01*
X175198095Y-113660952D01*
X174912380Y-112470476D02*
X174912380Y-112375238D01*
X174960000Y-112280000D01*
X175007619Y-112232380D01*
X175102857Y-112184761D01*
X175293333Y-112137142D01*
X175531428Y-112137142D01*
X175721904Y-112184761D01*
X175817142Y-112232380D01*
X175864761Y-112280000D01*
X175912380Y-112375238D01*
X175912380Y-112470476D01*
X175864761Y-112565714D01*
X175817142Y-112613333D01*
X175721904Y-112660952D01*
X175531428Y-112708571D01*
X175293333Y-112708571D01*
X175102857Y-112660952D01*
X175007619Y-112613333D01*
X174960000Y-112565714D01*
X174912380Y-112470476D01*
X139018095Y-103322380D02*
X139018095Y-104131904D01*
X139065714Y-104227142D01*
X139113333Y-104274761D01*
X139208571Y-104322380D01*
X139399047Y-104322380D01*
X139494285Y-104274761D01*
X139541904Y-104227142D01*
X139589523Y-104131904D01*
X139589523Y-103322380D01*
X140541904Y-103322380D02*
X140065714Y-103322380D01*
X140018095Y-103798571D01*
X140065714Y-103750952D01*
X140160952Y-103703333D01*
X140399047Y-103703333D01*
X140494285Y-103750952D01*
X140541904Y-103798571D01*
X140589523Y-103893809D01*
X140589523Y-104131904D01*
X140541904Y-104227142D01*
X140494285Y-104274761D01*
X140399047Y-104322380D01*
X140160952Y-104322380D01*
X140065714Y-104274761D01*
X140018095Y-104227142D01*
X171172380Y-126292857D02*
X170696190Y-126626190D01*
X171172380Y-126864285D02*
X170172380Y-126864285D01*
X170172380Y-126483333D01*
X170220000Y-126388095D01*
X170267619Y-126340476D01*
X170362857Y-126292857D01*
X170505714Y-126292857D01*
X170600952Y-126340476D01*
X170648571Y-126388095D01*
X170696190Y-126483333D01*
X170696190Y-126864285D01*
X171172380Y-125340476D02*
X171172380Y-125911904D01*
X171172380Y-125626190D02*
X170172380Y-125626190D01*
X170315238Y-125721428D01*
X170410476Y-125816666D01*
X170458095Y-125911904D01*
X170600952Y-124769047D02*
X170553333Y-124864285D01*
X170505714Y-124911904D01*
X170410476Y-124959523D01*
X170362857Y-124959523D01*
X170267619Y-124911904D01*
X170220000Y-124864285D01*
X170172380Y-124769047D01*
X170172380Y-124578571D01*
X170220000Y-124483333D01*
X170267619Y-124435714D01*
X170362857Y-124388095D01*
X170410476Y-124388095D01*
X170505714Y-124435714D01*
X170553333Y-124483333D01*
X170600952Y-124578571D01*
X170600952Y-124769047D01*
X170648571Y-124864285D01*
X170696190Y-124911904D01*
X170791428Y-124959523D01*
X170981904Y-124959523D01*
X171077142Y-124911904D01*
X171124761Y-124864285D01*
X171172380Y-124769047D01*
X171172380Y-124578571D01*
X171124761Y-124483333D01*
X171077142Y-124435714D01*
X170981904Y-124388095D01*
X170791428Y-124388095D01*
X170696190Y-124435714D01*
X170648571Y-124483333D01*
X170600952Y-124578571D01*
X131646666Y-94782380D02*
X131646666Y-95496666D01*
X131599047Y-95639523D01*
X131503809Y-95734761D01*
X131360952Y-95782380D01*
X131265714Y-95782380D01*
X132551428Y-94782380D02*
X132360952Y-94782380D01*
X132265714Y-94830000D01*
X132218095Y-94877619D01*
X132122857Y-95020476D01*
X132075238Y-95210952D01*
X132075238Y-95591904D01*
X132122857Y-95687142D01*
X132170476Y-95734761D01*
X132265714Y-95782380D01*
X132456190Y-95782380D01*
X132551428Y-95734761D01*
X132599047Y-95687142D01*
X132646666Y-95591904D01*
X132646666Y-95353809D01*
X132599047Y-95258571D01*
X132551428Y-95210952D01*
X132456190Y-95163333D01*
X132265714Y-95163333D01*
X132170476Y-95210952D01*
X132122857Y-95258571D01*
X132075238Y-95353809D01*
X155666666Y-90262380D02*
X155666666Y-90976666D01*
X155619047Y-91119523D01*
X155523809Y-91214761D01*
X155380952Y-91262380D01*
X155285714Y-91262380D01*
X156571428Y-90595714D02*
X156571428Y-91262380D01*
X156333333Y-90214761D02*
X156095238Y-90929047D01*
X156714285Y-90929047D01*
X168287142Y-124362857D02*
X168334761Y-124410476D01*
X168382380Y-124553333D01*
X168382380Y-124648571D01*
X168334761Y-124791428D01*
X168239523Y-124886666D01*
X168144285Y-124934285D01*
X167953809Y-124981904D01*
X167810952Y-124981904D01*
X167620476Y-124934285D01*
X167525238Y-124886666D01*
X167430000Y-124791428D01*
X167382380Y-124648571D01*
X167382380Y-124553333D01*
X167430000Y-124410476D01*
X167477619Y-124362857D01*
X168382380Y-123410476D02*
X168382380Y-123981904D01*
X168382380Y-123696190D02*
X167382380Y-123696190D01*
X167525238Y-123791428D01*
X167620476Y-123886666D01*
X167668095Y-123981904D01*
X167715714Y-122553333D02*
X168382380Y-122553333D01*
X167334761Y-122791428D02*
X168049047Y-123029523D01*
X168049047Y-122410476D01*
X153423333Y-113937142D02*
X153375714Y-113984761D01*
X153232857Y-114032380D01*
X153137619Y-114032380D01*
X152994761Y-113984761D01*
X152899523Y-113889523D01*
X152851904Y-113794285D01*
X152804285Y-113603809D01*
X152804285Y-113460952D01*
X152851904Y-113270476D01*
X152899523Y-113175238D01*
X152994761Y-113080000D01*
X153137619Y-113032380D01*
X153232857Y-113032380D01*
X153375714Y-113080000D01*
X153423333Y-113127619D01*
X154280476Y-113365714D02*
X154280476Y-114032380D01*
X154042380Y-112984761D02*
X153804285Y-113699047D01*
X154423333Y-113699047D01*
X139457142Y-106427142D02*
X139409523Y-106474761D01*
X139266666Y-106522380D01*
X139171428Y-106522380D01*
X139028571Y-106474761D01*
X138933333Y-106379523D01*
X138885714Y-106284285D01*
X138838095Y-106093809D01*
X138838095Y-105950952D01*
X138885714Y-105760476D01*
X138933333Y-105665238D01*
X139028571Y-105570000D01*
X139171428Y-105522380D01*
X139266666Y-105522380D01*
X139409523Y-105570000D01*
X139457142Y-105617619D01*
X140409523Y-106522380D02*
X139838095Y-106522380D01*
X140123809Y-106522380D02*
X140123809Y-105522380D01*
X140028571Y-105665238D01*
X139933333Y-105760476D01*
X139838095Y-105808095D01*
X141314285Y-105522380D02*
X140838095Y-105522380D01*
X140790476Y-105998571D01*
X140838095Y-105950952D01*
X140933333Y-105903333D01*
X141171428Y-105903333D01*
X141266666Y-105950952D01*
X141314285Y-105998571D01*
X141361904Y-106093809D01*
X141361904Y-106331904D01*
X141314285Y-106427142D01*
X141266666Y-106474761D01*
X141171428Y-106522380D01*
X140933333Y-106522380D01*
X140838095Y-106474761D01*
X140790476Y-106427142D01*
X131636666Y-115462380D02*
X131636666Y-116176666D01*
X131589047Y-116319523D01*
X131493809Y-116414761D01*
X131350952Y-116462380D01*
X131255714Y-116462380D01*
X132160476Y-116462380D02*
X132350952Y-116462380D01*
X132446190Y-116414761D01*
X132493809Y-116367142D01*
X132589047Y-116224285D01*
X132636666Y-116033809D01*
X132636666Y-115652857D01*
X132589047Y-115557619D01*
X132541428Y-115510000D01*
X132446190Y-115462380D01*
X132255714Y-115462380D01*
X132160476Y-115510000D01*
X132112857Y-115557619D01*
X132065238Y-115652857D01*
X132065238Y-115890952D01*
X132112857Y-115986190D01*
X132160476Y-116033809D01*
X132255714Y-116081428D01*
X132446190Y-116081428D01*
X132541428Y-116033809D01*
X132589047Y-115986190D01*
X132636666Y-115890952D01*
X135588571Y-131115714D02*
X135636190Y-130972857D01*
X135683809Y-130925238D01*
X135779047Y-130877619D01*
X135921904Y-130877619D01*
X136017142Y-130925238D01*
X136064761Y-130972857D01*
X136112380Y-131068095D01*
X136112380Y-131449047D01*
X135112380Y-131449047D01*
X135112380Y-131115714D01*
X135160000Y-131020476D01*
X135207619Y-130972857D01*
X135302857Y-130925238D01*
X135398095Y-130925238D01*
X135493333Y-130972857D01*
X135540952Y-131020476D01*
X135588571Y-131115714D01*
X135588571Y-131449047D01*
X135112380Y-130591904D02*
X135112380Y-130020476D01*
X136112380Y-130306190D02*
X135112380Y-130306190D01*
X136112380Y-129163333D02*
X136112380Y-129734761D01*
X136112380Y-129449047D02*
X135112380Y-129449047D01*
X135255238Y-129544285D01*
X135350476Y-129639523D01*
X135398095Y-129734761D01*
X146553333Y-103567142D02*
X146505714Y-103614761D01*
X146362857Y-103662380D01*
X146267619Y-103662380D01*
X146124761Y-103614761D01*
X146029523Y-103519523D01*
X145981904Y-103424285D01*
X145934285Y-103233809D01*
X145934285Y-103090952D01*
X145981904Y-102900476D01*
X146029523Y-102805238D01*
X146124761Y-102710000D01*
X146267619Y-102662380D01*
X146362857Y-102662380D01*
X146505714Y-102710000D01*
X146553333Y-102757619D01*
X146934285Y-102757619D02*
X146981904Y-102710000D01*
X147077142Y-102662380D01*
X147315238Y-102662380D01*
X147410476Y-102710000D01*
X147458095Y-102757619D01*
X147505714Y-102852857D01*
X147505714Y-102948095D01*
X147458095Y-103090952D01*
X146886666Y-103662380D01*
X147505714Y-103662380D01*
X161082380Y-95366666D02*
X161082380Y-95842857D01*
X160082380Y-95842857D01*
X160082380Y-95128571D02*
X160082380Y-94509523D01*
X160463333Y-94842857D01*
X160463333Y-94700000D01*
X160510952Y-94604761D01*
X160558571Y-94557142D01*
X160653809Y-94509523D01*
X160891904Y-94509523D01*
X160987142Y-94557142D01*
X161034761Y-94604761D01*
X161082380Y-94700000D01*
X161082380Y-94985714D01*
X161034761Y-95080952D01*
X160987142Y-95128571D01*
X169612380Y-117052857D02*
X169136190Y-117386190D01*
X169612380Y-117624285D02*
X168612380Y-117624285D01*
X168612380Y-117243333D01*
X168660000Y-117148095D01*
X168707619Y-117100476D01*
X168802857Y-117052857D01*
X168945714Y-117052857D01*
X169040952Y-117100476D01*
X169088571Y-117148095D01*
X169136190Y-117243333D01*
X169136190Y-117624285D01*
X168707619Y-116671904D02*
X168660000Y-116624285D01*
X168612380Y-116529047D01*
X168612380Y-116290952D01*
X168660000Y-116195714D01*
X168707619Y-116148095D01*
X168802857Y-116100476D01*
X168898095Y-116100476D01*
X169040952Y-116148095D01*
X169612380Y-116719523D01*
X169612380Y-116100476D01*
X168612380Y-115481428D02*
X168612380Y-115386190D01*
X168660000Y-115290952D01*
X168707619Y-115243333D01*
X168802857Y-115195714D01*
X168993333Y-115148095D01*
X169231428Y-115148095D01*
X169421904Y-115195714D01*
X169517142Y-115243333D01*
X169564761Y-115290952D01*
X169612380Y-115386190D01*
X169612380Y-115481428D01*
X169564761Y-115576666D01*
X169517142Y-115624285D01*
X169421904Y-115671904D01*
X169231428Y-115719523D01*
X168993333Y-115719523D01*
X168802857Y-115671904D01*
X168707619Y-115624285D01*
X168660000Y-115576666D01*
X168612380Y-115481428D01*
X134302380Y-121166666D02*
X134302380Y-121642857D01*
X133302380Y-121642857D01*
X134302380Y-120309523D02*
X134302380Y-120880952D01*
X134302380Y-120595238D02*
X133302380Y-120595238D01*
X133445238Y-120690476D01*
X133540476Y-120785714D01*
X133588095Y-120880952D01*
X150583333Y-98392380D02*
X150250000Y-97916190D01*
X150011904Y-98392380D02*
X150011904Y-97392380D01*
X150392857Y-97392380D01*
X150488095Y-97440000D01*
X150535714Y-97487619D01*
X150583333Y-97582857D01*
X150583333Y-97725714D01*
X150535714Y-97820952D01*
X150488095Y-97868571D01*
X150392857Y-97916190D01*
X150011904Y-97916190D01*
X151154761Y-97820952D02*
X151059523Y-97773333D01*
X151011904Y-97725714D01*
X150964285Y-97630476D01*
X150964285Y-97582857D01*
X151011904Y-97487619D01*
X151059523Y-97440000D01*
X151154761Y-97392380D01*
X151345238Y-97392380D01*
X151440476Y-97440000D01*
X151488095Y-97487619D01*
X151535714Y-97582857D01*
X151535714Y-97630476D01*
X151488095Y-97725714D01*
X151440476Y-97773333D01*
X151345238Y-97820952D01*
X151154761Y-97820952D01*
X151059523Y-97868571D01*
X151011904Y-97916190D01*
X150964285Y-98011428D01*
X150964285Y-98201904D01*
X151011904Y-98297142D01*
X151059523Y-98344761D01*
X151154761Y-98392380D01*
X151345238Y-98392380D01*
X151440476Y-98344761D01*
X151488095Y-98297142D01*
X151535714Y-98201904D01*
X151535714Y-98011428D01*
X151488095Y-97916190D01*
X151440476Y-97868571D01*
X151345238Y-97820952D01*
X164648095Y-124092380D02*
X164648095Y-124901904D01*
X164695714Y-124997142D01*
X164743333Y-125044761D01*
X164838571Y-125092380D01*
X165029047Y-125092380D01*
X165124285Y-125044761D01*
X165171904Y-124997142D01*
X165219523Y-124901904D01*
X165219523Y-124092380D01*
X166124285Y-124425714D02*
X166124285Y-125092380D01*
X165886190Y-124044761D02*
X165648095Y-124759047D01*
X166267142Y-124759047D01*
X142197142Y-118416666D02*
X142244761Y-118464285D01*
X142292380Y-118607142D01*
X142292380Y-118702380D01*
X142244761Y-118845238D01*
X142149523Y-118940476D01*
X142054285Y-118988095D01*
X141863809Y-119035714D01*
X141720952Y-119035714D01*
X141530476Y-118988095D01*
X141435238Y-118940476D01*
X141340000Y-118845238D01*
X141292380Y-118702380D01*
X141292380Y-118607142D01*
X141340000Y-118464285D01*
X141387619Y-118416666D01*
X141292380Y-118083333D02*
X141292380Y-117416666D01*
X142292380Y-117845238D01*
X146243333Y-112752380D02*
X145910000Y-112276190D01*
X145671904Y-112752380D02*
X145671904Y-111752380D01*
X146052857Y-111752380D01*
X146148095Y-111800000D01*
X146195714Y-111847619D01*
X146243333Y-111942857D01*
X146243333Y-112085714D01*
X146195714Y-112180952D01*
X146148095Y-112228571D01*
X146052857Y-112276190D01*
X145671904Y-112276190D01*
X146576666Y-111752380D02*
X147243333Y-111752380D01*
X146814761Y-112752380D01*
X134656666Y-104412380D02*
X134656666Y-105126666D01*
X134609047Y-105269523D01*
X134513809Y-105364761D01*
X134370952Y-105412380D01*
X134275714Y-105412380D01*
X135037619Y-104412380D02*
X135704285Y-104412380D01*
X135275714Y-105412380D01*
X152062380Y-126966666D02*
X151586190Y-127300000D01*
X152062380Y-127538095D02*
X151062380Y-127538095D01*
X151062380Y-127157142D01*
X151110000Y-127061904D01*
X151157619Y-127014285D01*
X151252857Y-126966666D01*
X151395714Y-126966666D01*
X151490952Y-127014285D01*
X151538571Y-127061904D01*
X151586190Y-127157142D01*
X151586190Y-127538095D01*
X151062380Y-126633333D02*
X151062380Y-126014285D01*
X151443333Y-126347619D01*
X151443333Y-126204761D01*
X151490952Y-126109523D01*
X151538571Y-126061904D01*
X151633809Y-126014285D01*
X151871904Y-126014285D01*
X151967142Y-126061904D01*
X152014761Y-126109523D01*
X152062380Y-126204761D01*
X152062380Y-126490476D01*
X152014761Y-126585714D01*
X151967142Y-126633333D01*
X151567142Y-103332380D02*
X151233809Y-102856190D01*
X150995714Y-103332380D02*
X150995714Y-102332380D01*
X151376666Y-102332380D01*
X151471904Y-102380000D01*
X151519523Y-102427619D01*
X151567142Y-102522857D01*
X151567142Y-102665714D01*
X151519523Y-102760952D01*
X151471904Y-102808571D01*
X151376666Y-102856190D01*
X150995714Y-102856190D01*
X152519523Y-103332380D02*
X151948095Y-103332380D01*
X152233809Y-103332380D02*
X152233809Y-102332380D01*
X152138571Y-102475238D01*
X152043333Y-102570476D01*
X151948095Y-102618095D01*
X153471904Y-103332380D02*
X152900476Y-103332380D01*
X153186190Y-103332380D02*
X153186190Y-102332380D01*
X153090952Y-102475238D01*
X152995714Y-102570476D01*
X152900476Y-102618095D01*
X142117142Y-121946666D02*
X142164761Y-121994285D01*
X142212380Y-122137142D01*
X142212380Y-122232380D01*
X142164761Y-122375238D01*
X142069523Y-122470476D01*
X141974285Y-122518095D01*
X141783809Y-122565714D01*
X141640952Y-122565714D01*
X141450476Y-122518095D01*
X141355238Y-122470476D01*
X141260000Y-122375238D01*
X141212380Y-122232380D01*
X141212380Y-122137142D01*
X141260000Y-121994285D01*
X141307619Y-121946666D01*
X141212380Y-121089523D02*
X141212380Y-121280000D01*
X141260000Y-121375238D01*
X141307619Y-121422857D01*
X141450476Y-121518095D01*
X141640952Y-121565714D01*
X142021904Y-121565714D01*
X142117142Y-121518095D01*
X142164761Y-121470476D01*
X142212380Y-121375238D01*
X142212380Y-121184761D01*
X142164761Y-121089523D01*
X142117142Y-121041904D01*
X142021904Y-120994285D01*
X141783809Y-120994285D01*
X141688571Y-121041904D01*
X141640952Y-121089523D01*
X141593333Y-121184761D01*
X141593333Y-121375238D01*
X141640952Y-121470476D01*
X141688571Y-121518095D01*
X141783809Y-121565714D01*
X171457142Y-97622857D02*
X171504761Y-97670476D01*
X171552380Y-97813333D01*
X171552380Y-97908571D01*
X171504761Y-98051428D01*
X171409523Y-98146666D01*
X171314285Y-98194285D01*
X171123809Y-98241904D01*
X170980952Y-98241904D01*
X170790476Y-98194285D01*
X170695238Y-98146666D01*
X170600000Y-98051428D01*
X170552380Y-97908571D01*
X170552380Y-97813333D01*
X170600000Y-97670476D01*
X170647619Y-97622857D01*
X171552380Y-96670476D02*
X171552380Y-97241904D01*
X171552380Y-96956190D02*
X170552380Y-96956190D01*
X170695238Y-97051428D01*
X170790476Y-97146666D01*
X170838095Y-97241904D01*
X171552380Y-96194285D02*
X171552380Y-96003809D01*
X171504761Y-95908571D01*
X171457142Y-95860952D01*
X171314285Y-95765714D01*
X171123809Y-95718095D01*
X170742857Y-95718095D01*
X170647619Y-95765714D01*
X170600000Y-95813333D01*
X170552380Y-95908571D01*
X170552380Y-96099047D01*
X170600000Y-96194285D01*
X170647619Y-96241904D01*
X170742857Y-96289523D01*
X170980952Y-96289523D01*
X171076190Y-96241904D01*
X171123809Y-96194285D01*
X171171428Y-96099047D01*
X171171428Y-95908571D01*
X171123809Y-95813333D01*
X171076190Y-95765714D01*
X170980952Y-95718095D01*
X150137142Y-118836666D02*
X150184761Y-118884285D01*
X150232380Y-119027142D01*
X150232380Y-119122380D01*
X150184761Y-119265238D01*
X150089523Y-119360476D01*
X149994285Y-119408095D01*
X149803809Y-119455714D01*
X149660952Y-119455714D01*
X149470476Y-119408095D01*
X149375238Y-119360476D01*
X149280000Y-119265238D01*
X149232380Y-119122380D01*
X149232380Y-119027142D01*
X149280000Y-118884285D01*
X149327619Y-118836666D01*
X149232380Y-118503333D02*
X149232380Y-117884285D01*
X149613333Y-118217619D01*
X149613333Y-118074761D01*
X149660952Y-117979523D01*
X149708571Y-117931904D01*
X149803809Y-117884285D01*
X150041904Y-117884285D01*
X150137142Y-117931904D01*
X150184761Y-117979523D01*
X150232380Y-118074761D01*
X150232380Y-118360476D01*
X150184761Y-118455714D01*
X150137142Y-118503333D01*
X175592380Y-126362857D02*
X175116190Y-126696190D01*
X175592380Y-126934285D02*
X174592380Y-126934285D01*
X174592380Y-126553333D01*
X174640000Y-126458095D01*
X174687619Y-126410476D01*
X174782857Y-126362857D01*
X174925714Y-126362857D01*
X175020952Y-126410476D01*
X175068571Y-126458095D01*
X175116190Y-126553333D01*
X175116190Y-126934285D01*
X175592380Y-125410476D02*
X175592380Y-125981904D01*
X175592380Y-125696190D02*
X174592380Y-125696190D01*
X174735238Y-125791428D01*
X174830476Y-125886666D01*
X174878095Y-125981904D01*
X174592380Y-124553333D02*
X174592380Y-124743809D01*
X174640000Y-124839047D01*
X174687619Y-124886666D01*
X174830476Y-124981904D01*
X175020952Y-125029523D01*
X175401904Y-125029523D01*
X175497142Y-124981904D01*
X175544761Y-124934285D01*
X175592380Y-124839047D01*
X175592380Y-124648571D01*
X175544761Y-124553333D01*
X175497142Y-124505714D01*
X175401904Y-124458095D01*
X175163809Y-124458095D01*
X175068571Y-124505714D01*
X175020952Y-124553333D01*
X174973333Y-124648571D01*
X174973333Y-124839047D01*
X175020952Y-124934285D01*
X175068571Y-124981904D01*
X175163809Y-125029523D01*
X143402380Y-97266666D02*
X142926190Y-97600000D01*
X143402380Y-97838095D02*
X142402380Y-97838095D01*
X142402380Y-97457142D01*
X142450000Y-97361904D01*
X142497619Y-97314285D01*
X142592857Y-97266666D01*
X142735714Y-97266666D01*
X142830952Y-97314285D01*
X142878571Y-97361904D01*
X142926190Y-97457142D01*
X142926190Y-97838095D01*
X143402380Y-96790476D02*
X143402380Y-96600000D01*
X143354761Y-96504761D01*
X143307142Y-96457142D01*
X143164285Y-96361904D01*
X142973809Y-96314285D01*
X142592857Y-96314285D01*
X142497619Y-96361904D01*
X142450000Y-96409523D01*
X142402380Y-96504761D01*
X142402380Y-96695238D01*
X142450000Y-96790476D01*
X142497619Y-96838095D01*
X142592857Y-96885714D01*
X142830952Y-96885714D01*
X142926190Y-96838095D01*
X142973809Y-96790476D01*
X143021428Y-96695238D01*
X143021428Y-96504761D01*
X142973809Y-96409523D01*
X142926190Y-96361904D01*
X142830952Y-96314285D01*
X151081820Y-100642684D02*
X151892172Y-100642684D01*
X151987508Y-100595017D01*
X152035176Y-100547349D01*
X152082844Y-100452013D01*
X152082844Y-100261342D01*
X152035176Y-100166006D01*
X151987508Y-100118339D01*
X151892172Y-100070671D01*
X151081820Y-100070671D01*
X151177155Y-99641660D02*
X151129488Y-99593993D01*
X151081820Y-99498657D01*
X151081820Y-99260318D01*
X151129488Y-99164982D01*
X151177155Y-99117315D01*
X151272491Y-99069647D01*
X151367827Y-99069647D01*
X151510830Y-99117315D01*
X152082844Y-99689328D01*
X152082844Y-99069647D01*
X150447142Y-125782380D02*
X150113809Y-125306190D01*
X149875714Y-125782380D02*
X149875714Y-124782380D01*
X150256666Y-124782380D01*
X150351904Y-124830000D01*
X150399523Y-124877619D01*
X150447142Y-124972857D01*
X150447142Y-125115714D01*
X150399523Y-125210952D01*
X150351904Y-125258571D01*
X150256666Y-125306190D01*
X149875714Y-125306190D01*
X151399523Y-125782380D02*
X150828095Y-125782380D01*
X151113809Y-125782380D02*
X151113809Y-124782380D01*
X151018571Y-124925238D01*
X150923333Y-125020476D01*
X150828095Y-125068095D01*
X152018571Y-124782380D02*
X152113809Y-124782380D01*
X152209047Y-124830000D01*
X152256666Y-124877619D01*
X152304285Y-124972857D01*
X152351904Y-125163333D01*
X152351904Y-125401428D01*
X152304285Y-125591904D01*
X152256666Y-125687142D01*
X152209047Y-125734761D01*
X152113809Y-125782380D01*
X152018571Y-125782380D01*
X151923333Y-125734761D01*
X151875714Y-125687142D01*
X151828095Y-125591904D01*
X151780476Y-125401428D01*
X151780476Y-125163333D01*
X151828095Y-124972857D01*
X151875714Y-124877619D01*
X151923333Y-124830000D01*
X152018571Y-124782380D01*
X168957142Y-131562380D02*
X168623809Y-131086190D01*
X168385714Y-131562380D02*
X168385714Y-130562380D01*
X168766666Y-130562380D01*
X168861904Y-130610000D01*
X168909523Y-130657619D01*
X168957142Y-130752857D01*
X168957142Y-130895714D01*
X168909523Y-130990952D01*
X168861904Y-131038571D01*
X168766666Y-131086190D01*
X168385714Y-131086190D01*
X169909523Y-131562380D02*
X169338095Y-131562380D01*
X169623809Y-131562380D02*
X169623809Y-130562380D01*
X169528571Y-130705238D01*
X169433333Y-130800476D01*
X169338095Y-130848095D01*
X170385714Y-131562380D02*
X170576190Y-131562380D01*
X170671428Y-131514761D01*
X170719047Y-131467142D01*
X170814285Y-131324285D01*
X170861904Y-131133809D01*
X170861904Y-130752857D01*
X170814285Y-130657619D01*
X170766666Y-130610000D01*
X170671428Y-130562380D01*
X170480952Y-130562380D01*
X170385714Y-130610000D01*
X170338095Y-130657619D01*
X170290476Y-130752857D01*
X170290476Y-130990952D01*
X170338095Y-131086190D01*
X170385714Y-131133809D01*
X170480952Y-131181428D01*
X170671428Y-131181428D01*
X170766666Y-131133809D01*
X170814285Y-131086190D01*
X170861904Y-130990952D01*
X147773333Y-115377142D02*
X147725714Y-115424761D01*
X147582857Y-115472380D01*
X147487619Y-115472380D01*
X147344761Y-115424761D01*
X147249523Y-115329523D01*
X147201904Y-115234285D01*
X147154285Y-115043809D01*
X147154285Y-114900952D01*
X147201904Y-114710476D01*
X147249523Y-114615238D01*
X147344761Y-114520000D01*
X147487619Y-114472380D01*
X147582857Y-114472380D01*
X147725714Y-114520000D01*
X147773333Y-114567619D01*
X148249523Y-115472380D02*
X148440000Y-115472380D01*
X148535238Y-115424761D01*
X148582857Y-115377142D01*
X148678095Y-115234285D01*
X148725714Y-115043809D01*
X148725714Y-114662857D01*
X148678095Y-114567619D01*
X148630476Y-114520000D01*
X148535238Y-114472380D01*
X148344761Y-114472380D01*
X148249523Y-114520000D01*
X148201904Y-114567619D01*
X148154285Y-114662857D01*
X148154285Y-114900952D01*
X148201904Y-114996190D01*
X148249523Y-115043809D01*
X148344761Y-115091428D01*
X148535238Y-115091428D01*
X148630476Y-115043809D01*
X148678095Y-114996190D01*
X148725714Y-114900952D01*
X145177142Y-100796666D02*
X145224761Y-100844285D01*
X145272380Y-100987142D01*
X145272380Y-101082380D01*
X145224761Y-101225238D01*
X145129523Y-101320476D01*
X145034285Y-101368095D01*
X144843809Y-101415714D01*
X144700952Y-101415714D01*
X144510476Y-101368095D01*
X144415238Y-101320476D01*
X144320000Y-101225238D01*
X144272380Y-101082380D01*
X144272380Y-100987142D01*
X144320000Y-100844285D01*
X144367619Y-100796666D01*
X145272380Y-99844285D02*
X145272380Y-100415714D01*
X145272380Y-100130000D02*
X144272380Y-100130000D01*
X144415238Y-100225238D01*
X144510476Y-100320476D01*
X144558095Y-100415714D01*
X134676666Y-114642380D02*
X134676666Y-115356666D01*
X134629047Y-115499523D01*
X134533809Y-115594761D01*
X134390952Y-115642380D01*
X134295714Y-115642380D01*
X135295714Y-115070952D02*
X135200476Y-115023333D01*
X135152857Y-114975714D01*
X135105238Y-114880476D01*
X135105238Y-114832857D01*
X135152857Y-114737619D01*
X135200476Y-114690000D01*
X135295714Y-114642380D01*
X135486190Y-114642380D01*
X135581428Y-114690000D01*
X135629047Y-114737619D01*
X135676666Y-114832857D01*
X135676666Y-114880476D01*
X135629047Y-114975714D01*
X135581428Y-115023333D01*
X135486190Y-115070952D01*
X135295714Y-115070952D01*
X135200476Y-115118571D01*
X135152857Y-115166190D01*
X135105238Y-115261428D01*
X135105238Y-115451904D01*
X135152857Y-115547142D01*
X135200476Y-115594761D01*
X135295714Y-115642380D01*
X135486190Y-115642380D01*
X135581428Y-115594761D01*
X135629047Y-115547142D01*
X135676666Y-115451904D01*
X135676666Y-115261428D01*
X135629047Y-115166190D01*
X135581428Y-115118571D01*
X135486190Y-115070952D01*
X166277142Y-102407142D02*
X166229523Y-102454761D01*
X166086666Y-102502380D01*
X165991428Y-102502380D01*
X165848571Y-102454761D01*
X165753333Y-102359523D01*
X165705714Y-102264285D01*
X165658095Y-102073809D01*
X165658095Y-101930952D01*
X165705714Y-101740476D01*
X165753333Y-101645238D01*
X165848571Y-101550000D01*
X165991428Y-101502380D01*
X166086666Y-101502380D01*
X166229523Y-101550000D01*
X166277142Y-101597619D01*
X167229523Y-102502380D02*
X166658095Y-102502380D01*
X166943809Y-102502380D02*
X166943809Y-101502380D01*
X166848571Y-101645238D01*
X166753333Y-101740476D01*
X166658095Y-101788095D01*
X167610476Y-101597619D02*
X167658095Y-101550000D01*
X167753333Y-101502380D01*
X167991428Y-101502380D01*
X168086666Y-101550000D01*
X168134285Y-101597619D01*
X168181904Y-101692857D01*
X168181904Y-101788095D01*
X168134285Y-101930952D01*
X167562857Y-102502380D01*
X168181904Y-102502380D01*
X165664761Y-120737619D02*
X165569523Y-120690000D01*
X165474285Y-120594761D01*
X165331428Y-120451904D01*
X165236190Y-120404285D01*
X165140952Y-120404285D01*
X165188571Y-120642380D02*
X165093333Y-120594761D01*
X164998095Y-120499523D01*
X164950476Y-120309047D01*
X164950476Y-119975714D01*
X164998095Y-119785238D01*
X165093333Y-119690000D01*
X165188571Y-119642380D01*
X165379047Y-119642380D01*
X165474285Y-119690000D01*
X165569523Y-119785238D01*
X165617142Y-119975714D01*
X165617142Y-120309047D01*
X165569523Y-120499523D01*
X165474285Y-120594761D01*
X165379047Y-120642380D01*
X165188571Y-120642380D01*
X165950476Y-119642380D02*
X166569523Y-119642380D01*
X166236190Y-120023333D01*
X166379047Y-120023333D01*
X166474285Y-120070952D01*
X166521904Y-120118571D01*
X166569523Y-120213809D01*
X166569523Y-120451904D01*
X166521904Y-120547142D01*
X166474285Y-120594761D01*
X166379047Y-120642380D01*
X166093333Y-120642380D01*
X165998095Y-120594761D01*
X165950476Y-120547142D01*
X155177142Y-122246666D02*
X155224761Y-122294285D01*
X155272380Y-122437142D01*
X155272380Y-122532380D01*
X155224761Y-122675238D01*
X155129523Y-122770476D01*
X155034285Y-122818095D01*
X154843809Y-122865714D01*
X154700952Y-122865714D01*
X154510476Y-122818095D01*
X154415238Y-122770476D01*
X154320000Y-122675238D01*
X154272380Y-122532380D01*
X154272380Y-122437142D01*
X154320000Y-122294285D01*
X154367619Y-122246666D01*
X154272380Y-121341904D02*
X154272380Y-121818095D01*
X154748571Y-121865714D01*
X154700952Y-121818095D01*
X154653333Y-121722857D01*
X154653333Y-121484761D01*
X154700952Y-121389523D01*
X154748571Y-121341904D01*
X154843809Y-121294285D01*
X155081904Y-121294285D01*
X155177142Y-121341904D01*
X155224761Y-121389523D01*
X155272380Y-121484761D01*
X155272380Y-121722857D01*
X155224761Y-121818095D01*
X155177142Y-121865714D01*
X155494761Y-120693333D02*
X155542380Y-120550476D01*
X155542380Y-120312380D01*
X155494761Y-120217142D01*
X155447142Y-120169523D01*
X155351904Y-120121904D01*
X155256666Y-120121904D01*
X155161428Y-120169523D01*
X155113809Y-120217142D01*
X155066190Y-120312380D01*
X155018571Y-120502857D01*
X154970952Y-120598095D01*
X154923333Y-120645714D01*
X154828095Y-120693333D01*
X154732857Y-120693333D01*
X154637619Y-120645714D01*
X154590000Y-120598095D01*
X154542380Y-120502857D01*
X154542380Y-120264761D01*
X154590000Y-120121904D01*
X154542380Y-119788571D02*
X155542380Y-119550476D01*
X154828095Y-119360000D01*
X155542380Y-119169523D01*
X154542380Y-118931428D01*
X154637619Y-118598095D02*
X154590000Y-118550476D01*
X154542380Y-118455238D01*
X154542380Y-118217142D01*
X154590000Y-118121904D01*
X154637619Y-118074285D01*
X154732857Y-118026666D01*
X154828095Y-118026666D01*
X154970952Y-118074285D01*
X155542380Y-118645714D01*
X155542380Y-118026666D01*
X143697142Y-103072857D02*
X143744761Y-103120476D01*
X143792380Y-103263333D01*
X143792380Y-103358571D01*
X143744761Y-103501428D01*
X143649523Y-103596666D01*
X143554285Y-103644285D01*
X143363809Y-103691904D01*
X143220952Y-103691904D01*
X143030476Y-103644285D01*
X142935238Y-103596666D01*
X142840000Y-103501428D01*
X142792380Y-103358571D01*
X142792380Y-103263333D01*
X142840000Y-103120476D01*
X142887619Y-103072857D01*
X142887619Y-102691904D02*
X142840000Y-102644285D01*
X142792380Y-102549047D01*
X142792380Y-102310952D01*
X142840000Y-102215714D01*
X142887619Y-102168095D01*
X142982857Y-102120476D01*
X143078095Y-102120476D01*
X143220952Y-102168095D01*
X143792380Y-102739523D01*
X143792380Y-102120476D01*
X143792380Y-101168095D02*
X143792380Y-101739523D01*
X143792380Y-101453809D02*
X142792380Y-101453809D01*
X142935238Y-101549047D01*
X143030476Y-101644285D01*
X143078095Y-101739523D01*
X169582380Y-102282857D02*
X169106190Y-102616190D01*
X169582380Y-102854285D02*
X168582380Y-102854285D01*
X168582380Y-102473333D01*
X168630000Y-102378095D01*
X168677619Y-102330476D01*
X168772857Y-102282857D01*
X168915714Y-102282857D01*
X169010952Y-102330476D01*
X169058571Y-102378095D01*
X169106190Y-102473333D01*
X169106190Y-102854285D01*
X169582380Y-101330476D02*
X169582380Y-101901904D01*
X169582380Y-101616190D02*
X168582380Y-101616190D01*
X168725238Y-101711428D01*
X168820476Y-101806666D01*
X168868095Y-101901904D01*
X168582380Y-100997142D02*
X168582380Y-100330476D01*
X169582380Y-100759047D01*
X165777142Y-94692380D02*
X165443809Y-94216190D01*
X165205714Y-94692380D02*
X165205714Y-93692380D01*
X165586666Y-93692380D01*
X165681904Y-93740000D01*
X165729523Y-93787619D01*
X165777142Y-93882857D01*
X165777142Y-94025714D01*
X165729523Y-94120952D01*
X165681904Y-94168571D01*
X165586666Y-94216190D01*
X165205714Y-94216190D01*
X166729523Y-94692380D02*
X166158095Y-94692380D01*
X166443809Y-94692380D02*
X166443809Y-93692380D01*
X166348571Y-93835238D01*
X166253333Y-93930476D01*
X166158095Y-93978095D01*
X167586666Y-94025714D02*
X167586666Y-94692380D01*
X167348571Y-93644761D02*
X167110476Y-94359047D01*
X167729523Y-94359047D01*
X144848095Y-124862380D02*
X144848095Y-125671904D01*
X144895714Y-125767142D01*
X144943333Y-125814761D01*
X145038571Y-125862380D01*
X145229047Y-125862380D01*
X145324285Y-125814761D01*
X145371904Y-125767142D01*
X145419523Y-125671904D01*
X145419523Y-124862380D01*
X146419523Y-125862380D02*
X145848095Y-125862380D01*
X146133809Y-125862380D02*
X146133809Y-124862380D01*
X146038571Y-125005238D01*
X145943333Y-125100476D01*
X145848095Y-125148095D01*
X173426666Y-96617380D02*
X173426666Y-97331666D01*
X173379047Y-97474523D01*
X173283809Y-97569761D01*
X173140952Y-97617380D01*
X173045714Y-97617380D01*
X173807619Y-96617380D02*
X174426666Y-96617380D01*
X174093333Y-96998333D01*
X174236190Y-96998333D01*
X174331428Y-97045952D01*
X174379047Y-97093571D01*
X174426666Y-97188809D01*
X174426666Y-97426904D01*
X174379047Y-97522142D01*
X174331428Y-97569761D01*
X174236190Y-97617380D01*
X173950476Y-97617380D01*
X173855238Y-97569761D01*
X173807619Y-97522142D01*
X139917142Y-96767142D02*
X139869523Y-96814761D01*
X139726666Y-96862380D01*
X139631428Y-96862380D01*
X139488571Y-96814761D01*
X139393333Y-96719523D01*
X139345714Y-96624285D01*
X139298095Y-96433809D01*
X139298095Y-96290952D01*
X139345714Y-96100476D01*
X139393333Y-96005238D01*
X139488571Y-95910000D01*
X139631428Y-95862380D01*
X139726666Y-95862380D01*
X139869523Y-95910000D01*
X139917142Y-95957619D01*
X140869523Y-96862380D02*
X140298095Y-96862380D01*
X140583809Y-96862380D02*
X140583809Y-95862380D01*
X140488571Y-96005238D01*
X140393333Y-96100476D01*
X140298095Y-96148095D01*
X141726666Y-95862380D02*
X141536190Y-95862380D01*
X141440952Y-95910000D01*
X141393333Y-95957619D01*
X141298095Y-96100476D01*
X141250476Y-96290952D01*
X141250476Y-96671904D01*
X141298095Y-96767142D01*
X141345714Y-96814761D01*
X141440952Y-96862380D01*
X141631428Y-96862380D01*
X141726666Y-96814761D01*
X141774285Y-96767142D01*
X141821904Y-96671904D01*
X141821904Y-96433809D01*
X141774285Y-96338571D01*
X141726666Y-96290952D01*
X141631428Y-96243333D01*
X141440952Y-96243333D01*
X141345714Y-96290952D01*
X141298095Y-96338571D01*
X141250476Y-96433809D01*
X135052380Y-126783333D02*
X135766666Y-126783333D01*
X135909523Y-126830952D01*
X136004761Y-126926190D01*
X136052380Y-127069047D01*
X136052380Y-127164285D01*
X136052380Y-125783333D02*
X136052380Y-126354761D01*
X136052380Y-126069047D02*
X135052380Y-126069047D01*
X135195238Y-126164285D01*
X135290476Y-126259523D01*
X135338095Y-126354761D01*
X165324761Y-112577619D02*
X165229523Y-112530000D01*
X165134285Y-112434761D01*
X164991428Y-112291904D01*
X164896190Y-112244285D01*
X164800952Y-112244285D01*
X164848571Y-112482380D02*
X164753333Y-112434761D01*
X164658095Y-112339523D01*
X164610476Y-112149047D01*
X164610476Y-111815714D01*
X164658095Y-111625238D01*
X164753333Y-111530000D01*
X164848571Y-111482380D01*
X165039047Y-111482380D01*
X165134285Y-111530000D01*
X165229523Y-111625238D01*
X165277142Y-111815714D01*
X165277142Y-112149047D01*
X165229523Y-112339523D01*
X165134285Y-112434761D01*
X165039047Y-112482380D01*
X164848571Y-112482380D01*
X165658095Y-111577619D02*
X165705714Y-111530000D01*
X165800952Y-111482380D01*
X166039047Y-111482380D01*
X166134285Y-111530000D01*
X166181904Y-111577619D01*
X166229523Y-111672857D01*
X166229523Y-111768095D01*
X166181904Y-111910952D01*
X165610476Y-112482380D01*
X166229523Y-112482380D01*
X142232380Y-92876666D02*
X141756190Y-93210000D01*
X142232380Y-93448095D02*
X141232380Y-93448095D01*
X141232380Y-93067142D01*
X141280000Y-92971904D01*
X141327619Y-92924285D01*
X141422857Y-92876666D01*
X141565714Y-92876666D01*
X141660952Y-92924285D01*
X141708571Y-92971904D01*
X141756190Y-93067142D01*
X141756190Y-93448095D01*
X141327619Y-92495714D02*
X141280000Y-92448095D01*
X141232380Y-92352857D01*
X141232380Y-92114761D01*
X141280000Y-92019523D01*
X141327619Y-91971904D01*
X141422857Y-91924285D01*
X141518095Y-91924285D01*
X141660952Y-91971904D01*
X142232380Y-92543333D01*
X142232380Y-91924285D01*
X156351904Y-126702380D02*
X156351904Y-125702380D01*
X156590000Y-125702380D01*
X156732857Y-125750000D01*
X156828095Y-125845238D01*
X156875714Y-125940476D01*
X156923333Y-126130952D01*
X156923333Y-126273809D01*
X156875714Y-126464285D01*
X156828095Y-126559523D01*
X156732857Y-126654761D01*
X156590000Y-126702380D01*
X156351904Y-126702380D01*
X157304285Y-125797619D02*
X157351904Y-125750000D01*
X157447142Y-125702380D01*
X157685238Y-125702380D01*
X157780476Y-125750000D01*
X157828095Y-125797619D01*
X157875714Y-125892857D01*
X157875714Y-125988095D01*
X157828095Y-126130952D01*
X157256666Y-126702380D01*
X157875714Y-126702380D01*
X142577969Y-109567106D02*
X142577969Y-109634450D01*
X142510625Y-109769137D01*
X142443282Y-109836480D01*
X142308595Y-109903824D01*
X142173908Y-109903824D01*
X142072893Y-109870152D01*
X141904534Y-109769137D01*
X141803519Y-109668122D01*
X141702503Y-109499763D01*
X141668832Y-109398748D01*
X141668832Y-109264061D01*
X141736175Y-109129374D01*
X141803519Y-109062030D01*
X141938206Y-108994687D01*
X142005549Y-108994687D01*
X143318748Y-108961015D02*
X142914687Y-109365076D01*
X143116717Y-109163045D02*
X142409610Y-108455938D01*
X142443282Y-108624297D01*
X142443282Y-108758984D01*
X142409610Y-108860000D01*
X142847343Y-108018206D02*
X143318748Y-107546801D01*
X143722809Y-108556954D01*
X130766666Y-91282380D02*
X130766666Y-91996666D01*
X130719047Y-92139523D01*
X130623809Y-92234761D01*
X130480952Y-92282380D01*
X130385714Y-92282380D01*
X131195238Y-91377619D02*
X131242857Y-91330000D01*
X131338095Y-91282380D01*
X131576190Y-91282380D01*
X131671428Y-91330000D01*
X131719047Y-91377619D01*
X131766666Y-91472857D01*
X131766666Y-91568095D01*
X131719047Y-91710952D01*
X131147619Y-92282380D01*
X131766666Y-92282380D01*
X138417142Y-101012857D02*
X138464761Y-101060476D01*
X138512380Y-101203333D01*
X138512380Y-101298571D01*
X138464761Y-101441428D01*
X138369523Y-101536666D01*
X138274285Y-101584285D01*
X138083809Y-101631904D01*
X137940952Y-101631904D01*
X137750476Y-101584285D01*
X137655238Y-101536666D01*
X137560000Y-101441428D01*
X137512380Y-101298571D01*
X137512380Y-101203333D01*
X137560000Y-101060476D01*
X137607619Y-101012857D01*
X138512380Y-100060476D02*
X138512380Y-100631904D01*
X138512380Y-100346190D02*
X137512380Y-100346190D01*
X137655238Y-100441428D01*
X137750476Y-100536666D01*
X137798095Y-100631904D01*
X137940952Y-99489047D02*
X137893333Y-99584285D01*
X137845714Y-99631904D01*
X137750476Y-99679523D01*
X137702857Y-99679523D01*
X137607619Y-99631904D01*
X137560000Y-99584285D01*
X137512380Y-99489047D01*
X137512380Y-99298571D01*
X137560000Y-99203333D01*
X137607619Y-99155714D01*
X137702857Y-99108095D01*
X137750476Y-99108095D01*
X137845714Y-99155714D01*
X137893333Y-99203333D01*
X137940952Y-99298571D01*
X137940952Y-99489047D01*
X137988571Y-99584285D01*
X138036190Y-99631904D01*
X138131428Y-99679523D01*
X138321904Y-99679523D01*
X138417142Y-99631904D01*
X138464761Y-99584285D01*
X138512380Y-99489047D01*
X138512380Y-99298571D01*
X138464761Y-99203333D01*
X138417142Y-99155714D01*
X138321904Y-99108095D01*
X138131428Y-99108095D01*
X138036190Y-99155714D01*
X137988571Y-99203333D01*
X137940952Y-99298571D01*
X151062380Y-122396666D02*
X150586190Y-122730000D01*
X151062380Y-122968095D02*
X150062380Y-122968095D01*
X150062380Y-122587142D01*
X150110000Y-122491904D01*
X150157619Y-122444285D01*
X150252857Y-122396666D01*
X150395714Y-122396666D01*
X150490952Y-122444285D01*
X150538571Y-122491904D01*
X150586190Y-122587142D01*
X150586190Y-122968095D01*
X150062380Y-121539523D02*
X150062380Y-121730000D01*
X150110000Y-121825238D01*
X150157619Y-121872857D01*
X150300476Y-121968095D01*
X150490952Y-122015714D01*
X150871904Y-122015714D01*
X150967142Y-121968095D01*
X151014761Y-121920476D01*
X151062380Y-121825238D01*
X151062380Y-121634761D01*
X151014761Y-121539523D01*
X150967142Y-121491904D01*
X150871904Y-121444285D01*
X150633809Y-121444285D01*
X150538571Y-121491904D01*
X150490952Y-121539523D01*
X150443333Y-121634761D01*
X150443333Y-121825238D01*
X150490952Y-121920476D01*
X150538571Y-121968095D01*
X150633809Y-122015714D01*
X145208095Y-96772380D02*
X145779523Y-96772380D01*
X145493809Y-97772380D02*
X145493809Y-96772380D01*
X146112857Y-97772380D02*
X146112857Y-96772380D01*
X146493809Y-96772380D01*
X146589047Y-96820000D01*
X146636666Y-96867619D01*
X146684285Y-96962857D01*
X146684285Y-97105714D01*
X146636666Y-97200952D01*
X146589047Y-97248571D01*
X146493809Y-97296190D01*
X146112857Y-97296190D01*
X147636666Y-97772380D02*
X147065238Y-97772380D01*
X147350952Y-97772380D02*
X147350952Y-96772380D01*
X147255714Y-96915238D01*
X147160476Y-97010476D01*
X147065238Y-97058095D01*
X152232380Y-119106666D02*
X151756190Y-119440000D01*
X152232380Y-119678095D02*
X151232380Y-119678095D01*
X151232380Y-119297142D01*
X151280000Y-119201904D01*
X151327619Y-119154285D01*
X151422857Y-119106666D01*
X151565714Y-119106666D01*
X151660952Y-119154285D01*
X151708571Y-119201904D01*
X151756190Y-119297142D01*
X151756190Y-119678095D01*
X151565714Y-118249523D02*
X152232380Y-118249523D01*
X151184761Y-118487619D02*
X151899047Y-118725714D01*
X151899047Y-118106666D01*
D11*
X167710000Y-127540000D02*
X167290000Y-127540000D01*
X160190000Y-131890000D02*
X160190000Y-131490000D01*
X160190000Y-129520000D02*
X160190000Y-127540000D01*
X162640000Y-126860000D02*
X162190000Y-126860000D01*
X162190000Y-127310000D02*
X162190000Y-126860000D01*
X167710000Y-129520000D02*
X167710000Y-127540000D01*
X160190000Y-127540000D02*
X160610000Y-127540000D01*
X167710000Y-131490000D02*
X167710000Y-131890000D01*
X156760000Y-100335000D02*
X156760000Y-99860000D01*
X156760000Y-106605000D02*
X156760000Y-107080000D01*
X163980000Y-100335000D02*
X163980000Y-99860000D01*
X163980000Y-107080000D02*
X163505000Y-107080000D01*
X156760000Y-107080000D02*
X157235000Y-107080000D01*
X163980000Y-106605000D02*
X163980000Y-107080000D01*
X156760000Y-99860000D02*
X157235000Y-99860000D01*
X162976359Y-95760000D02*
X163283641Y-95760000D01*
X162976359Y-96520000D02*
X163283641Y-96520000D01*
X146550000Y-119061252D02*
X146550000Y-117638748D01*
X144730000Y-119061252D02*
X144730000Y-117638748D01*
X145970000Y-126640000D02*
X147920000Y-126640000D01*
X145970000Y-131760000D02*
X144020000Y-131760000D01*
X145970000Y-126640000D02*
X144020000Y-126640000D01*
X145970000Y-131760000D02*
X149420000Y-131760000D01*
X162460000Y-116243641D02*
X162460000Y-115936359D01*
X163220000Y-116243641D02*
X163220000Y-115936359D01*
X164800000Y-111120000D02*
X167000000Y-111120000D01*
X167000000Y-109120000D02*
X164800000Y-109120000D01*
X138600000Y-110800000D02*
X140600000Y-110800000D01*
X140600000Y-113040000D02*
X139600000Y-113040000D01*
X150810000Y-129730000D02*
X150810000Y-130520000D01*
X154160000Y-132820000D02*
X154160000Y-131530000D01*
X157710000Y-130520000D02*
X157710000Y-129730000D01*
X151410000Y-131530000D02*
X157110000Y-131530000D01*
X152860000Y-132820000D02*
X153060000Y-133030000D01*
X154160000Y-132820000D02*
X153960000Y-133030000D01*
X152860000Y-131530000D02*
X152860000Y-132820000D01*
X152660000Y-128680000D02*
X154360000Y-128680000D01*
X153060000Y-133030000D02*
X153960000Y-133030000D01*
X155660000Y-128680000D02*
X155860000Y-128680000D01*
D13*
X174810000Y-123060000D02*
X174810000Y-122310000D01*
X169810000Y-122310000D02*
X169810000Y-123060000D01*
X169810000Y-123060000D02*
X170560000Y-123060000D01*
X170163550Y-118060000D02*
X169810000Y-118413550D01*
X169810000Y-118413550D02*
X169810000Y-118810000D01*
X174060000Y-123060000D02*
X174810000Y-123060000D01*
X170560000Y-118060000D02*
X170163550Y-118060000D01*
X174810000Y-118060000D02*
X174810000Y-118810000D01*
X174060000Y-118060000D02*
X174810000Y-118060000D01*
X169560000Y-118310000D02*
G75*
G03*
X169560000Y-118310000I-250000J0D01*
G01*
D11*
X150985000Y-112915000D02*
X148700000Y-112915000D01*
X150985000Y-114385000D02*
X150985000Y-112915000D01*
X148700000Y-114385000D02*
X150985000Y-114385000D01*
X142740000Y-110527836D02*
X142740000Y-110312164D01*
X143460000Y-110527836D02*
X143460000Y-110312164D01*
X137057258Y-90707500D02*
X136582742Y-90707500D01*
X137057258Y-91752500D02*
X136582742Y-91752500D01*
X164590000Y-98357836D02*
X164590000Y-98142164D01*
X165310000Y-98357836D02*
X165310000Y-98142164D01*
X172120000Y-113290000D02*
X172120000Y-107230000D01*
X172120000Y-115350000D02*
X171060000Y-115350000D01*
X172120000Y-114290000D02*
X172120000Y-115350000D01*
X172120000Y-113290000D02*
X170000000Y-113290000D01*
X170000000Y-113290000D02*
X170000000Y-107230000D01*
X172120000Y-107230000D02*
X170000000Y-107230000D01*
X144523641Y-97430000D02*
X144216359Y-97430000D01*
X144523641Y-96670000D02*
X144216359Y-96670000D01*
X175120000Y-113290000D02*
X173000000Y-113290000D01*
X175120000Y-115350000D02*
X174060000Y-115350000D01*
X173000000Y-113290000D02*
X173000000Y-107230000D01*
X175120000Y-114290000D02*
X175120000Y-115350000D01*
X175120000Y-113290000D02*
X175120000Y-107230000D01*
X175120000Y-107230000D02*
X173000000Y-107230000D01*
X140610000Y-103030000D02*
X139610000Y-103030000D01*
X138610000Y-100790000D02*
X140610000Y-100790000D01*
X168947258Y-125277500D02*
X168472742Y-125277500D01*
X168947258Y-126322500D02*
X168472742Y-126322500D01*
X130940000Y-95940000D02*
X132000000Y-95940000D01*
X133060000Y-98000000D02*
X133060000Y-104060000D01*
X130940000Y-104060000D02*
X133060000Y-104060000D01*
X130940000Y-98000000D02*
X133060000Y-98000000D01*
X130940000Y-98000000D02*
X130940000Y-104060000D01*
X130940000Y-97000000D02*
X130940000Y-95940000D01*
X157060000Y-87940000D02*
X157060000Y-89000000D01*
X156000000Y-87940000D02*
X157060000Y-87940000D01*
X155000000Y-90060000D02*
X136940000Y-90060000D01*
X155000000Y-87940000D02*
X136940000Y-87940000D01*
X136940000Y-87940000D02*
X136940000Y-90060000D01*
X155000000Y-87940000D02*
X155000000Y-90060000D01*
X168550000Y-123977836D02*
X168550000Y-123762164D01*
X169270000Y-123977836D02*
X169270000Y-123762164D01*
X153697836Y-114870000D02*
X153482164Y-114870000D01*
X153697836Y-114150000D02*
X153482164Y-114150000D01*
X139388748Y-107010000D02*
X140811252Y-107010000D01*
X139388748Y-108830000D02*
X140811252Y-108830000D01*
X130940000Y-108000000D02*
X133060000Y-108000000D01*
X130940000Y-105940000D02*
X132000000Y-105940000D01*
X130940000Y-108000000D02*
X130940000Y-114060000D01*
X130940000Y-107000000D02*
X130940000Y-105940000D01*
X130940000Y-114060000D02*
X133060000Y-114060000D01*
X133060000Y-108000000D02*
X133060000Y-114060000D01*
X141470000Y-128770000D02*
X141470000Y-130100000D01*
X138870000Y-128770000D02*
X136270000Y-128770000D01*
X138870000Y-128770000D02*
X138870000Y-131430000D01*
X140140000Y-128770000D02*
X141470000Y-128770000D01*
X138870000Y-131430000D02*
X136270000Y-131430000D01*
X136270000Y-128770000D02*
X136270000Y-131430000D01*
X146612164Y-102450000D02*
X146827836Y-102450000D01*
X146612164Y-101730000D02*
X146827836Y-101730000D01*
X168370000Y-116256359D02*
X168370000Y-116563641D01*
X167610000Y-116256359D02*
X167610000Y-116563641D01*
X140950000Y-124150000D02*
X140950000Y-117850000D01*
X134750000Y-124150000D02*
X134750000Y-117850000D01*
X148906359Y-98680000D02*
X149213641Y-98680000D01*
X148906359Y-97920000D02*
X149213641Y-97920000D01*
X164310000Y-123880000D02*
X166110000Y-123880000D01*
X164310000Y-120760000D02*
X165110000Y-120760000D01*
X164310000Y-123880000D02*
X163510000Y-123880000D01*
X164310000Y-120760000D02*
X163510000Y-120760000D01*
X144240000Y-119061252D02*
X144240000Y-117638748D01*
X142420000Y-119061252D02*
X142420000Y-117638748D01*
X146647258Y-113127500D02*
X146172742Y-113127500D01*
X146647258Y-114172500D02*
X146172742Y-114172500D01*
X136060000Y-102000000D02*
X136060000Y-104060000D01*
X133940000Y-102000000D02*
X133940000Y-104060000D01*
X133940000Y-104060000D02*
X136060000Y-104060000D01*
X133940000Y-99940000D02*
X135000000Y-99940000D01*
X133940000Y-101000000D02*
X133940000Y-99940000D01*
X133940000Y-102000000D02*
X136060000Y-102000000D01*
X150130000Y-127146359D02*
X150130000Y-127453641D01*
X150890000Y-127146359D02*
X150890000Y-127453641D01*
X151956359Y-102140000D02*
X152263641Y-102140000D01*
X151956359Y-101380000D02*
X152263641Y-101380000D01*
X144240000Y-122638748D02*
X144240000Y-124061252D01*
X142420000Y-122638748D02*
X142420000Y-124061252D01*
X170320000Y-97060580D02*
X170320000Y-96779420D01*
X169300000Y-97060580D02*
X169300000Y-96779420D01*
X149390000Y-120487836D02*
X149390000Y-120272164D01*
X150110000Y-120487836D02*
X150110000Y-120272164D01*
X172762742Y-124857500D02*
X173237258Y-124857500D01*
X172762742Y-125902500D02*
X173237258Y-125902500D01*
X143832742Y-98037500D02*
X144307258Y-98037500D01*
X143832742Y-99082500D02*
X144307258Y-99082500D01*
D13*
X148280000Y-99240000D02*
X148130000Y-99240000D01*
X148130000Y-99240000D02*
X148130000Y-99890000D01*
X148130000Y-102340000D02*
X148130000Y-101690000D01*
X150730000Y-101690000D02*
X150730000Y-102340000D01*
X150730000Y-99240000D02*
X150580000Y-99240000D01*
X150730000Y-102340000D02*
X150580000Y-102340000D01*
X148280000Y-102340000D02*
X148130000Y-102340000D01*
X150730000Y-99890000D02*
X150730000Y-99240000D01*
D14*
X150280000Y-98840000D02*
G75*
G03*
X150280000Y-98840000I-100000J0D01*
G01*
D11*
X152607258Y-124822500D02*
X152132742Y-124822500D01*
X152607258Y-123777500D02*
X152132742Y-123777500D01*
X169007500Y-128367258D02*
X169007500Y-127892742D01*
X170052500Y-128367258D02*
X170052500Y-127892742D01*
X147040000Y-119061252D02*
X147040000Y-117638748D01*
X148860000Y-119061252D02*
X148860000Y-117638748D01*
X147100000Y-100697836D02*
X147100000Y-100482164D01*
X146380000Y-100697836D02*
X146380000Y-100482164D01*
X133940000Y-109940000D02*
X135000000Y-109940000D01*
X133940000Y-112000000D02*
X136060000Y-112000000D01*
X133940000Y-112000000D02*
X133940000Y-114060000D01*
X136060000Y-112000000D02*
X136060000Y-114060000D01*
X133940000Y-114060000D02*
X136060000Y-114060000D01*
X133940000Y-111000000D02*
X133940000Y-109940000D01*
X166010000Y-99091252D02*
X166010000Y-97668748D01*
X167830000Y-99091252D02*
X167830000Y-97668748D01*
X165420000Y-116310000D02*
X164770000Y-116310000D01*
X165420000Y-119430000D02*
X164770000Y-119430000D01*
X165420000Y-116310000D02*
X166070000Y-116310000D01*
X165420000Y-119430000D02*
X167095000Y-119430000D01*
X152880000Y-121939420D02*
X152880000Y-122220580D01*
X153900000Y-121939420D02*
X153900000Y-122220580D01*
X155890000Y-122150000D02*
X155890000Y-116030000D01*
X159510000Y-122150000D02*
X155890000Y-122150000D01*
X155890000Y-116030000D02*
X159510000Y-116030000D01*
X159510000Y-116030000D02*
X159510000Y-122150000D01*
X142750000Y-100517836D02*
X142750000Y-100302164D01*
X143470000Y-100517836D02*
X143470000Y-100302164D01*
X168620000Y-99196359D02*
X168620000Y-99503641D01*
X169380000Y-99196359D02*
X169380000Y-99503641D01*
X163273641Y-94730000D02*
X162966359Y-94730000D01*
X163273641Y-93970000D02*
X162966359Y-93970000D01*
X147690000Y-124910000D02*
X146890000Y-124910000D01*
X147690000Y-121790000D02*
X145890000Y-121790000D01*
X147690000Y-121790000D02*
X148490000Y-121790000D01*
X147690000Y-124910000D02*
X148490000Y-124910000D01*
X172430000Y-98165000D02*
X173760000Y-98165000D01*
X172430000Y-100765000D02*
X175090000Y-100765000D01*
X172430000Y-100765000D02*
X172430000Y-105905000D01*
X175090000Y-100765000D02*
X175090000Y-105905000D01*
X172430000Y-99495000D02*
X172430000Y-98165000D01*
X172430000Y-105905000D02*
X175090000Y-105905000D01*
X139398748Y-98820000D02*
X140821252Y-98820000D01*
X139398748Y-97000000D02*
X140821252Y-97000000D01*
X140135000Y-125150000D02*
X141465000Y-125150000D01*
X136265000Y-125150000D02*
X136265000Y-127810000D01*
X138865000Y-125150000D02*
X138865000Y-127810000D01*
X141465000Y-125150000D02*
X141465000Y-126480000D01*
X138865000Y-125150000D02*
X136265000Y-125150000D01*
X138865000Y-127810000D02*
X136265000Y-127810000D01*
X165410000Y-115920000D02*
X164760000Y-115920000D01*
X165410000Y-112800000D02*
X166060000Y-112800000D01*
X165410000Y-112800000D02*
X164760000Y-112800000D01*
X165410000Y-115920000D02*
X167085000Y-115920000D01*
X139917500Y-92977258D02*
X139917500Y-92502742D01*
X140962500Y-92977258D02*
X140962500Y-92502742D01*
X152950000Y-125340000D02*
X152950000Y-127040000D01*
X152950000Y-127040000D02*
X155500000Y-127040000D01*
X152950000Y-125340000D02*
X155500000Y-125340000D01*
X139992164Y-109360000D02*
X140207836Y-109360000D01*
X139992164Y-110080000D02*
X140207836Y-110080000D01*
X130940000Y-94620000D02*
X130940000Y-93560000D01*
X133000000Y-92500000D02*
X139060000Y-92500000D01*
X133000000Y-94620000D02*
X133000000Y-92500000D01*
X133000000Y-94620000D02*
X139060000Y-94620000D01*
X132000000Y-94620000D02*
X130940000Y-94620000D01*
X139060000Y-94620000D02*
X139060000Y-92500000D01*
X140002164Y-100070000D02*
X140217836Y-100070000D01*
X140002164Y-99350000D02*
X140217836Y-99350000D01*
X151417500Y-122327258D02*
X151417500Y-121852742D01*
X152462500Y-122327258D02*
X152462500Y-121852742D01*
X147150000Y-98560000D02*
G75*
G03*
X147150000Y-98560000I-700000J0D01*
G01*
X151180000Y-120503641D02*
X151180000Y-120196359D01*
X150420000Y-120503641D02*
X150420000Y-120196359D01*
%LPC*%
D15*
X162650000Y-127800000D03*
X163300000Y-127800000D03*
X163950000Y-127800000D03*
X164600000Y-127800000D03*
X165250000Y-127800000D03*
D16*
X160450000Y-130500000D03*
D17*
X164950000Y-130500000D03*
D18*
X166450000Y-127800000D03*
D19*
X161250000Y-130500000D03*
X166650000Y-130500000D03*
D18*
X161450000Y-127800000D03*
D16*
X167450000Y-130500000D03*
D17*
X162950000Y-130500000D03*
D20*
X160370000Y-103470000D03*
D21*
X163820000Y-100720000D03*
X163820000Y-101220000D03*
X163820000Y-101720000D03*
X163820000Y-102220000D03*
X163820000Y-102720000D03*
X163820000Y-103220000D03*
X163820000Y-103720000D03*
X163820000Y-104220000D03*
X163820000Y-104720000D03*
X163820000Y-105220000D03*
X163820000Y-105720000D03*
X163820000Y-106220000D03*
D22*
X163120000Y-106920000D03*
X162620000Y-106920000D03*
X162120000Y-106920000D03*
X161620000Y-106920000D03*
X161120000Y-106920000D03*
X160620000Y-106920000D03*
X160120000Y-106920000D03*
X159620000Y-106920000D03*
X159120000Y-106920000D03*
X158620000Y-106920000D03*
X158120000Y-106920000D03*
X157620000Y-106920000D03*
D21*
X156920000Y-106220000D03*
X156920000Y-105720000D03*
X156920000Y-105220000D03*
X156920000Y-104720000D03*
X156920000Y-104220000D03*
X156920000Y-103720000D03*
X156920000Y-103220000D03*
X156920000Y-102720000D03*
X156920000Y-102220000D03*
X156920000Y-101720000D03*
X156920000Y-101220000D03*
X156920000Y-100720000D03*
D22*
X157620000Y-100020000D03*
X158120000Y-100020000D03*
X158620000Y-100020000D03*
X159120000Y-100020000D03*
X159620000Y-100020000D03*
X160120000Y-100020000D03*
X160620000Y-100020000D03*
X161120000Y-100020000D03*
X161620000Y-100020000D03*
X162120000Y-100020000D03*
X162620000Y-100020000D03*
X163120000Y-100020000D03*
D23*
X162620000Y-96140000D03*
X163640000Y-96140000D03*
D24*
X162610000Y-87080000D03*
D25*
X162610000Y-92330000D03*
D26*
X145640000Y-119825000D03*
X145640000Y-116875000D03*
D27*
X148595000Y-131105000D03*
X148595000Y-129835000D03*
X148595000Y-128565000D03*
X148595000Y-127295000D03*
X143345000Y-127295000D03*
X143345000Y-128565000D03*
X143345000Y-129835000D03*
X143345000Y-131105000D03*
D28*
X162840000Y-116600000D03*
X162840000Y-115580000D03*
D29*
X164985000Y-110670000D03*
X166815000Y-110670000D03*
X166815000Y-109570000D03*
X164985000Y-109570000D03*
D30*
X140100000Y-111920000D03*
D31*
X141050000Y-111170000D03*
X141050000Y-111670000D03*
X141050000Y-112170000D03*
X141050000Y-112670000D03*
X139150000Y-112670000D03*
X139150000Y-112170000D03*
X139150000Y-111670000D03*
X139150000Y-111170000D03*
D32*
X156510000Y-128370000D03*
X155010000Y-128370000D03*
X152010000Y-128370000D03*
D33*
X150610000Y-129020000D03*
X150610000Y-131230000D03*
D34*
X155760000Y-130130000D03*
X152760000Y-130130000D03*
D33*
X157910000Y-129020000D03*
X157910000Y-131230000D03*
D35*
X133000000Y-89000000D03*
D36*
X133000000Y-90650000D03*
X133000000Y-87350000D03*
X134650000Y-89000000D03*
X131833274Y-90166726D03*
X131350000Y-89000000D03*
X134166726Y-87833274D03*
X131833274Y-87833274D03*
X134166726Y-90166726D03*
D37*
X169720000Y-119060000D03*
X169720000Y-119560000D03*
X169720000Y-120060000D03*
X169720000Y-120560000D03*
X169720000Y-121060000D03*
X169720000Y-121560000D03*
X169720000Y-122060000D03*
D38*
X170810000Y-123150000D03*
X171310000Y-123150000D03*
X171810000Y-123150000D03*
X172310000Y-123150000D03*
X172810000Y-123150000D03*
X173310000Y-123150000D03*
X173810000Y-123150000D03*
D37*
X174900000Y-122060000D03*
X174900000Y-121560000D03*
X174900000Y-121060000D03*
X174900000Y-120560000D03*
X174900000Y-120060000D03*
X174900000Y-119560000D03*
X174900000Y-119060000D03*
D38*
X173810000Y-117970000D03*
X173310000Y-117970000D03*
X172810000Y-117970000D03*
X172310000Y-117970000D03*
X171810000Y-117970000D03*
X171310000Y-117970000D03*
X170810000Y-117970000D03*
D39*
X172310000Y-120560000D03*
D40*
X150287500Y-113650000D03*
X148712500Y-113650000D03*
D41*
X143100000Y-110900000D03*
X143100000Y-109940000D03*
D42*
X137645000Y-91230000D03*
X135995000Y-91230000D03*
D41*
X164950000Y-98730000D03*
X164950000Y-97770000D03*
D43*
X171060000Y-114290000D03*
D44*
X171060000Y-112290000D03*
X171060000Y-110290000D03*
X171060000Y-108290000D03*
D45*
X144880000Y-97050000D03*
X143860000Y-97050000D03*
D43*
X174060000Y-114290000D03*
D44*
X174060000Y-112290000D03*
X174060000Y-110290000D03*
X174060000Y-108290000D03*
D30*
X140110000Y-101910000D03*
D31*
X141060000Y-101160000D03*
X141060000Y-101660000D03*
X141060000Y-102160000D03*
X141060000Y-102660000D03*
X139160000Y-102660000D03*
X139160000Y-102160000D03*
X139160000Y-101660000D03*
X139160000Y-101160000D03*
D42*
X169535000Y-125800000D03*
X167885000Y-125800000D03*
D43*
X132000000Y-97000000D03*
D44*
X132000000Y-99000000D03*
X132000000Y-101000000D03*
X132000000Y-103000000D03*
D43*
X156000000Y-89000000D03*
D44*
X154000000Y-89000000D03*
X152000000Y-89000000D03*
X150000000Y-89000000D03*
X148000000Y-89000000D03*
X146000000Y-89000000D03*
X144000000Y-89000000D03*
X142000000Y-89000000D03*
X140000000Y-89000000D03*
X138000000Y-89000000D03*
D41*
X168910000Y-124350000D03*
X168910000Y-123390000D03*
D46*
X154070000Y-114510000D03*
X153110000Y-114510000D03*
D47*
X138625000Y-107920000D03*
X141575000Y-107920000D03*
D43*
X132000000Y-107000000D03*
D44*
X132000000Y-109000000D03*
X132000000Y-111000000D03*
X132000000Y-113000000D03*
D48*
X140140000Y-130100000D03*
D49*
X137600000Y-130100000D03*
D50*
X146240000Y-102090000D03*
X147200000Y-102090000D03*
D51*
X162610000Y-95705000D03*
X162610000Y-94735000D03*
D36*
X134166726Y-127833274D03*
X134650000Y-129000000D03*
X131350000Y-129000000D03*
D35*
X133000000Y-129000000D03*
D36*
X133000000Y-127350000D03*
X131833274Y-130166726D03*
X133000000Y-130650000D03*
X131833274Y-127833274D03*
X134166726Y-130166726D03*
D52*
X167990000Y-115900000D03*
X167990000Y-116920000D03*
D53*
X137850000Y-123350000D03*
X137850000Y-118650000D03*
D23*
X148550000Y-98300000D03*
X149570000Y-98300000D03*
D54*
X165447500Y-123270000D03*
X165447500Y-122320000D03*
X165447500Y-121370000D03*
X163172500Y-121370000D03*
X163172500Y-122320000D03*
X163172500Y-123270000D03*
D26*
X143330000Y-119825000D03*
X143330000Y-116875000D03*
D42*
X147235000Y-113650000D03*
X145585000Y-113650000D03*
D43*
X135000000Y-101000000D03*
D44*
X135000000Y-103000000D03*
D52*
X150510000Y-126790000D03*
X150510000Y-127810000D03*
D23*
X151600000Y-101760000D03*
X152620000Y-101760000D03*
D36*
X171833274Y-130166726D03*
X173000000Y-127350000D03*
X174650000Y-129000000D03*
X171350000Y-129000000D03*
X173000000Y-130650000D03*
X174166726Y-130166726D03*
D35*
X173000000Y-129000000D03*
D36*
X171833274Y-127833274D03*
X174166726Y-127833274D03*
D55*
X143330000Y-121875000D03*
X143330000Y-124825000D03*
D56*
X169810000Y-97695000D03*
X169810000Y-96145000D03*
D41*
X149750000Y-120860000D03*
X149750000Y-119900000D03*
D57*
X172175000Y-125380000D03*
X173825000Y-125380000D03*
X143245000Y-98560000D03*
X144895000Y-98560000D03*
D58*
X150180000Y-99615000D03*
X149680000Y-99615000D03*
X149180000Y-99615000D03*
X148680000Y-99615000D03*
D59*
X148505000Y-100290000D03*
X148505000Y-100790000D03*
X148505000Y-101290000D03*
D58*
X148680000Y-101965000D03*
X149180000Y-101965000D03*
X149680000Y-101965000D03*
X150180000Y-101965000D03*
D59*
X150355000Y-101290000D03*
X150355000Y-100790000D03*
X150355000Y-100290000D03*
D42*
X153195000Y-124300000D03*
X151545000Y-124300000D03*
D60*
X169530000Y-128955000D03*
X169530000Y-127305000D03*
D26*
X147950000Y-119825000D03*
X147950000Y-116875000D03*
D41*
X146740000Y-101070000D03*
X146740000Y-100110000D03*
D36*
X171833274Y-87833274D03*
X174650000Y-89000000D03*
X171833274Y-90166726D03*
X174166726Y-90166726D03*
X173000000Y-87350000D03*
D35*
X173000000Y-89000000D03*
D36*
X173000000Y-90650000D03*
X171350000Y-89000000D03*
X174166726Y-87833274D03*
D43*
X135000000Y-111000000D03*
D44*
X135000000Y-113000000D03*
D26*
X166920000Y-99855000D03*
X166920000Y-96905000D03*
D61*
X166357500Y-118820000D03*
X166357500Y-116920000D03*
X164482500Y-117870000D03*
D62*
X153390000Y-121305000D03*
X153390000Y-122855000D03*
D63*
X157700000Y-123680000D03*
X157700000Y-114500000D03*
D41*
X143110000Y-100890000D03*
X143110000Y-99930000D03*
D52*
X169000000Y-98840000D03*
X169000000Y-99860000D03*
D45*
X163630000Y-94350000D03*
X162610000Y-94350000D03*
D64*
X146552500Y-122400000D03*
X146552500Y-123350000D03*
X146552500Y-124300000D03*
X148827500Y-124300000D03*
X148827500Y-123350000D03*
X148827500Y-122400000D03*
D48*
X173760000Y-99495000D03*
D49*
X173760000Y-102035000D03*
X173760000Y-104575000D03*
D47*
X138635000Y-97910000D03*
X141585000Y-97910000D03*
D48*
X140135000Y-126480000D03*
D49*
X137595000Y-126480000D03*
D61*
X166347500Y-115310000D03*
X166347500Y-113410000D03*
X164472500Y-114360000D03*
D60*
X140440000Y-93565000D03*
X140440000Y-91915000D03*
D65*
X153400000Y-126190000D03*
X155500000Y-126190000D03*
D50*
X139620000Y-109720000D03*
X140580000Y-109720000D03*
D43*
X132000000Y-93560000D03*
D44*
X134000000Y-93560000D03*
X136000000Y-93560000D03*
X138000000Y-93560000D03*
D50*
X139630000Y-99710000D03*
X140590000Y-99710000D03*
D60*
X151940000Y-122915000D03*
X151940000Y-121265000D03*
D66*
X146450000Y-98560000D03*
D28*
X150800000Y-120860000D03*
X150800000Y-119840000D03*
M02*
