M48
; DRILL file {KiCad (6.0.6)} date Sun Jul 17 19:58:58 2022
; FORMAT={-:-/ absolute / metric / decimal}
; #@! TF.CreationDate,2022-07-17T19:58:58+03:00
; #@! TF.GenerationSoftware,Kicad,Pcbnew,(6.0.6)
; #@! TF.FileFunction,Plated,1,4,PTH
FMAT,2
METRIC
; #@! TA.AperFunction,Plated,PTH,ViaDrill
T1C0.300
; #@! TA.AperFunction,Plated,PTH,ViaDrill
T2C0.400
; #@! TA.AperFunction,Plated,PTH,ComponentDrill
T3C0.400
; #@! TA.AperFunction,Plated,PTH,ComponentDrill
T4C0.500
; #@! TA.AperFunction,Plated,PTH,ComponentDrill
T5C0.550
; #@! TA.AperFunction,Plated,PTH,ComponentDrill
T6C0.800
; #@! TA.AperFunction,Plated,PTH,ComponentDrill
T7C1.000
; #@! TA.AperFunction,Plated,PTH,ComponentDrill
T8C2.200
%
G90
G05
T1
X138.21Y-109.28
X138.22Y-99.34
X138.56Y-109.9
X138.57Y-99.96
X138.93Y-109.29
X138.94Y-99.35
X139.28Y-113.54
X139.28Y-114.54
X139.29Y-103.53
X139.29Y-104.53
X139.97Y-110.47
X139.98Y-100.47
X140.28Y-113.54
X140.28Y-114.54
X140.29Y-103.53
X140.29Y-104.53
X140.62Y-108.93
X140.63Y-98.93
X140.69Y-110.48
X140.7Y-100.48
X141.18Y-123.0
X141.18Y-123.7
X141.28Y-113.54
X141.28Y-114.54
X141.29Y-103.53
X141.29Y-104.53
X141.29Y-109.31
X141.29Y-110.04
X141.3Y-99.31
X141.3Y-100.04
X141.76Y-111.42
X141.77Y-101.41
X141.88Y-123.0
X141.88Y-123.7
X142.02Y-109.31
X142.02Y-110.04
X142.03Y-99.31
X142.03Y-100.04
X142.28Y-113.54
X142.28Y-114.54
X142.29Y-103.53
X142.29Y-104.53
X142.47Y-111.42
X142.48Y-101.41
X142.78Y-115.81
X143.83Y-115.81
X144.75Y-123.0
X144.75Y-123.7
X144.87Y-121.11
X144.87Y-121.8
X145.2Y-115.81
X145.45Y-123.0
X145.45Y-123.7
X145.57Y-121.11
X146.26Y-115.81
X146.26Y-121.11
X146.96Y-121.11
X147.35Y-115.81
X147.37Y-125.57
X147.66Y-121.11
X147.93Y-102.09
X148.35Y-121.11
X148.39Y-115.81
X149.75Y-119.0
X150.8Y-119.0
X151.4Y-105.64
X151.79Y-103.89
X153.13Y-103.63
X153.6Y-100.79
X154.17Y-103.62
X155.15Y-114.49
X156.76Y-98.29
X157.68Y-98.29
X158.27Y-102.42
X158.27Y-103.47
X158.27Y-104.52
X158.581Y-98.289
X159.32Y-101.37
X159.32Y-102.42
X159.32Y-103.47
X159.32Y-104.52
X159.32Y-105.57
X160.37Y-101.37
X160.37Y-102.42
X160.37Y-103.47
X160.37Y-104.52
X160.37Y-105.57
X161.42Y-101.37
X161.42Y-102.42
X161.42Y-103.47
X161.42Y-104.52
X161.42Y-105.57
X161.87Y-98.42
X161.87Y-99.12
X162.47Y-102.42
X162.47Y-103.47
X162.47Y-104.52
X163.74Y-99.54
X164.6Y-99.47
X165.01Y-103.09
X165.03Y-101.72
X165.32Y-99.47
X166.18Y-100.92
X166.91Y-100.92
X167.451Y-113.979
X167.64Y-100.91
X169.79Y-99.85
X169.81Y-98.84
X171.31Y-119.56
X171.31Y-121.56
X172.31Y-120.56
X173.31Y-119.56
X173.31Y-121.56
T2
X135.655Y-116.93
X136.87Y-116.93
X138.085Y-116.93
X138.66Y-91.24
X139.3Y-116.93
X140.43Y-90.92
X140.515Y-116.93
X144.01Y-99.49
X144.53Y-113.63
X145.31Y-102.07
X145.8Y-100.11
X145.825Y-101.109
X147.72Y-97.94
X149.28Y-97.06
X150.11Y-130.1
X151.35Y-113.65
X151.94Y-120.25
X152.17Y-114.49
X153.4Y-119.21
X153.4Y-120.26
X153.41Y-118.17
X153.5Y-101.82
X154.06Y-128.35
X154.21Y-124.29
X156.22Y-108.0
X156.27Y-123.67
X156.5Y-86.86
X156.59Y-91.56
X157.37Y-108.02
X157.92Y-86.62
X157.92Y-87.704
X157.92Y-88.788
X157.92Y-89.872
X157.92Y-90.956
X157.92Y-92.039
X157.92Y-93.18
X158.52Y-126.19
X158.58Y-108.32
X158.79Y-109.3
X158.87Y-93.45
X159.63Y-94.8
X159.8Y-108.35
X159.82Y-93.44
X160.55Y-95.75
X160.85Y-93.45
X161.68Y-94.41
X161.71Y-95.34
X161.74Y-96.34
X161.85Y-97.33
X161.86Y-93.45
X162.65Y-125.79
X162.87Y-109.1
X163.41Y-97.13
X163.41Y-98.17
X163.43Y-93.45
X163.63Y-95.17
X164.0Y-110.66
X164.01Y-111.69
X164.31Y-120.29
X164.47Y-93.45
X164.47Y-113.42
X164.52Y-94.47
X164.52Y-95.77
X164.52Y-96.83
X164.52Y-107.08
X165.25Y-126.49
X165.5Y-93.45
X166.13Y-94.5
X166.53Y-93.45
X166.92Y-95.72
X167.56Y-93.45
X167.8Y-109.56
X167.96Y-124.35
X167.98Y-123.34
X168.31Y-94.5
X168.36Y-119.69
X168.57Y-122.14
X168.59Y-93.45
X169.54Y-129.98
X169.62Y-93.45
X169.82Y-95.08
X170.65Y-93.45
X171.68Y-93.45
X172.07Y-94.5
X172.07Y-96.78
X172.71Y-93.45
X173.42Y-116.54
X173.54Y-95.64
X173.74Y-93.45
X174.77Y-93.45
X174.83Y-125.38
X174.95Y-94.5
X174.95Y-96.81
T3
X131.35Y-89.0
X131.35Y-129.0
X131.833Y-87.833
X131.833Y-90.167
X131.833Y-127.833
X131.833Y-130.167
X133.0Y-87.35
X133.0Y-90.65
X133.0Y-127.35
X133.0Y-130.65
X134.167Y-87.833
X134.167Y-90.167
X134.167Y-127.833
X134.167Y-130.167
X134.65Y-89.0
X134.65Y-129.0
X171.35Y-89.0
X171.35Y-129.0
X171.833Y-87.833
X171.833Y-90.167
X171.833Y-127.833
X171.833Y-130.167
X173.0Y-87.35
X173.0Y-90.65
X173.0Y-127.35
X173.0Y-130.65
X174.167Y-87.833
X174.167Y-90.167
X174.167Y-127.833
X174.167Y-130.167
X174.65Y-89.0
X174.65Y-129.0
T6
X132.0Y-93.56
X132.0Y-97.0
X132.0Y-99.0
X132.0Y-101.0
X132.0Y-103.0
X132.0Y-107.0
X132.0Y-109.0
X132.0Y-111.0
X132.0Y-113.0
X134.0Y-93.56
X135.0Y-101.0
X135.0Y-103.0
X135.0Y-111.0
X135.0Y-113.0
X136.0Y-93.56
X138.0Y-89.0
X138.0Y-93.56
X140.0Y-89.0
X142.0Y-89.0
X144.0Y-89.0
X146.0Y-89.0
X148.0Y-89.0
X150.0Y-89.0
X152.0Y-89.0
X154.0Y-89.0
X156.0Y-89.0
X171.06Y-108.29
X171.06Y-110.29
X171.06Y-112.29
X171.06Y-114.29
X174.06Y-108.29
X174.06Y-110.29
X174.06Y-112.29
X174.06Y-114.29
T7
X137.595Y-126.48
X137.6Y-130.1
X140.135Y-126.48
X140.14Y-130.1
X173.76Y-99.495
X173.76Y-102.035
X173.76Y-104.575
T8
X133.0Y-89.0
X133.0Y-129.0
X173.0Y-89.0
X173.0Y-129.0
T4
X160.45Y-130.175G85X160.45Y-130.825
G05
X167.45Y-130.175G85X167.45Y-130.825
G05
T5
X161.3Y-127.8G85X161.6Y-127.8
G05
X166.3Y-127.8G85X166.6Y-127.8
G05
T0
M30
