%FSLAX45Y45*%
G04 Gerber Fmt 4.5, Leading zero omitted, Abs format (unit mm)*
G04 Created by KiCad (PCBNEW (6.0.6)) date 2022-07-17 19:59:00*
%MOMM*%
%LPD*%
G01*
G04 APERTURE LIST*
%TA.AperFunction,Profile*%
%ADD10C,0.050000*%
%TD*%
%ADD11C,0.200000*%
%ADD12C,0.030000*%
%ADD13C,0.040000*%
%ADD14C,0.050000*%
%ADD15C,0.055000*%
%ADD16C,0.080000*%
%ADD17C,0.100000*%
%ADD18C,0.220000*%
G04 APERTURE END LIST*
D10*
X17300000Y-8600000D02*
X13300000Y-8600000D01*
X13300000Y-8600000D02*
G75*
G03*
X13000000Y-8900000I0J-300000D01*
G01*
X17600000Y-8900000D02*
G75*
G03*
X17300000Y-8600000I-300000J0D01*
G01*
X17600000Y-8900000D02*
X17600000Y-12900000D01*
X13000000Y-8900000D02*
X13000000Y-12900000D01*
X17300000Y-13200000D02*
G75*
G03*
X17600000Y-12900000I0J300000D01*
G01*
X13000000Y-12900000D02*
G75*
G03*
X13300000Y-13200000I300000J0D01*
G01*
X13300000Y-13200000D02*
X17300000Y-13200000D01*
D11*
D12*
X13806000Y-10913000D02*
X13836000Y-10943000D01*
X13836000Y-10913000D02*
X13806000Y-10943000D01*
X13807000Y-9919000D02*
X13837000Y-9949000D01*
X13837000Y-9919000D02*
X13807000Y-9949000D01*
X13841000Y-10975000D02*
X13871000Y-11005000D01*
X13871000Y-10975000D02*
X13841000Y-11005000D01*
X13842000Y-9981000D02*
X13872000Y-10011000D01*
X13872000Y-9981000D02*
X13842000Y-10011000D01*
X13878000Y-10914000D02*
X13908000Y-10944000D01*
X13908000Y-10914000D02*
X13878000Y-10944000D01*
X13879000Y-9920000D02*
X13909000Y-9950000D01*
X13909000Y-9920000D02*
X13879000Y-9950000D01*
X13913000Y-11339000D02*
X13943000Y-11369000D01*
X13943000Y-11339000D02*
X13913000Y-11369000D01*
X13913000Y-11439000D02*
X13943000Y-11469000D01*
X13943000Y-11439000D02*
X13913000Y-11469000D01*
X13914000Y-10338000D02*
X13944000Y-10368000D01*
X13944000Y-10338000D02*
X13914000Y-10368000D01*
X13914000Y-10438000D02*
X13944000Y-10468000D01*
X13944000Y-10438000D02*
X13914000Y-10468000D01*
X13982000Y-11032000D02*
X14012000Y-11062000D01*
X14012000Y-11032000D02*
X13982000Y-11062000D01*
X13983000Y-10032000D02*
X14013000Y-10062000D01*
X14013000Y-10032000D02*
X13983000Y-10062000D01*
X14013000Y-11339000D02*
X14043000Y-11369000D01*
X14043000Y-11339000D02*
X14013000Y-11369000D01*
X14013000Y-11439000D02*
X14043000Y-11469000D01*
X14043000Y-11439000D02*
X14013000Y-11469000D01*
X14014000Y-10338000D02*
X14044000Y-10368000D01*
X14044000Y-10338000D02*
X14014000Y-10368000D01*
X14014000Y-10438000D02*
X14044000Y-10468000D01*
X14044000Y-10438000D02*
X14014000Y-10468000D01*
X14047000Y-10878000D02*
X14077000Y-10908000D01*
X14077000Y-10878000D02*
X14047000Y-10908000D01*
X14048000Y-9878000D02*
X14078000Y-9908000D01*
X14078000Y-9878000D02*
X14048000Y-9908000D01*
X14054000Y-11033000D02*
X14084000Y-11063000D01*
X14084000Y-11033000D02*
X14054000Y-11063000D01*
X14055000Y-10033000D02*
X14085000Y-10063000D01*
X14085000Y-10033000D02*
X14055000Y-10063000D01*
X14103000Y-12285000D02*
X14133000Y-12315000D01*
X14133000Y-12285000D02*
X14103000Y-12315000D01*
X14103000Y-12355000D02*
X14133000Y-12385000D01*
X14133000Y-12355000D02*
X14103000Y-12385000D01*
X14113000Y-11339000D02*
X14143000Y-11369000D01*
X14143000Y-11339000D02*
X14113000Y-11369000D01*
X14113000Y-11439000D02*
X14143000Y-11469000D01*
X14143000Y-11439000D02*
X14113000Y-11469000D01*
X14114000Y-10338000D02*
X14144000Y-10368000D01*
X14144000Y-10338000D02*
X14114000Y-10368000D01*
X14114000Y-10438000D02*
X14144000Y-10468000D01*
X14144000Y-10438000D02*
X14114000Y-10468000D01*
X14114000Y-10916000D02*
X14144000Y-10946000D01*
X14144000Y-10916000D02*
X14114000Y-10946000D01*
X14114000Y-10989000D02*
X14144000Y-11019000D01*
X14144000Y-10989000D02*
X14114000Y-11019000D01*
X14115000Y-9916000D02*
X14145000Y-9946000D01*
X14145000Y-9916000D02*
X14115000Y-9946000D01*
X14115000Y-9989000D02*
X14145000Y-10019000D01*
X14145000Y-9989000D02*
X14115000Y-10019000D01*
X14161000Y-11127000D02*
X14191000Y-11157000D01*
X14191000Y-11127000D02*
X14161000Y-11157000D01*
X14162000Y-10126000D02*
X14192000Y-10156000D01*
X14192000Y-10126000D02*
X14162000Y-10156000D01*
X14173000Y-12285000D02*
X14203000Y-12315000D01*
X14203000Y-12285000D02*
X14173000Y-12315000D01*
X14173000Y-12355000D02*
X14203000Y-12385000D01*
X14203000Y-12355000D02*
X14173000Y-12385000D01*
X14187000Y-10916000D02*
X14217000Y-10946000D01*
X14217000Y-10916000D02*
X14187000Y-10946000D01*
X14187000Y-10989000D02*
X14217000Y-11019000D01*
X14217000Y-10989000D02*
X14187000Y-11019000D01*
X14188000Y-9916000D02*
X14218000Y-9946000D01*
X14218000Y-9916000D02*
X14188000Y-9946000D01*
X14188000Y-9989000D02*
X14218000Y-10019000D01*
X14218000Y-9989000D02*
X14188000Y-10019000D01*
X14213000Y-11339000D02*
X14243000Y-11369000D01*
X14243000Y-11339000D02*
X14213000Y-11369000D01*
X14213000Y-11439000D02*
X14243000Y-11469000D01*
X14243000Y-11439000D02*
X14213000Y-11469000D01*
X14214000Y-10338000D02*
X14244000Y-10368000D01*
X14244000Y-10338000D02*
X14214000Y-10368000D01*
X14214000Y-10438000D02*
X14244000Y-10468000D01*
X14244000Y-10438000D02*
X14214000Y-10468000D01*
X14232000Y-11127000D02*
X14262000Y-11157000D01*
X14262000Y-11127000D02*
X14232000Y-11157000D01*
X14233000Y-10126000D02*
X14263000Y-10156000D01*
X14263000Y-10126000D02*
X14233000Y-10156000D01*
X14263000Y-11566000D02*
X14293000Y-11596000D01*
X14293000Y-11566000D02*
X14263000Y-11596000D01*
X14368000Y-11566000D02*
X14398000Y-11596000D01*
X14398000Y-11566000D02*
X14368000Y-11596000D01*
X14460000Y-12285000D02*
X14490000Y-12315000D01*
X14490000Y-12285000D02*
X14460000Y-12315000D01*
X14460000Y-12355000D02*
X14490000Y-12385000D01*
X14490000Y-12355000D02*
X14460000Y-12385000D01*
X14472000Y-12096000D02*
X14502000Y-12126000D01*
X14502000Y-12096000D02*
X14472000Y-12126000D01*
X14472000Y-12165000D02*
X14502000Y-12195000D01*
X14502000Y-12165000D02*
X14472000Y-12195000D01*
X14505000Y-11566000D02*
X14535000Y-11596000D01*
X14535000Y-11566000D02*
X14505000Y-11596000D01*
X14530000Y-12285000D02*
X14560000Y-12315000D01*
X14560000Y-12285000D02*
X14530000Y-12315000D01*
X14530000Y-12355000D02*
X14560000Y-12385000D01*
X14560000Y-12355000D02*
X14530000Y-12385000D01*
X14542000Y-12096000D02*
X14572000Y-12126000D01*
X14572000Y-12096000D02*
X14542000Y-12126000D01*
X14611000Y-11566000D02*
X14641000Y-11596000D01*
X14641000Y-11566000D02*
X14611000Y-11596000D01*
X14611000Y-12096000D02*
X14641000Y-12126000D01*
X14641000Y-12096000D02*
X14611000Y-12126000D01*
X14681000Y-12096000D02*
X14711000Y-12126000D01*
X14711000Y-12096000D02*
X14681000Y-12126000D01*
X14720000Y-11566000D02*
X14750000Y-11596000D01*
X14750000Y-11566000D02*
X14720000Y-11596000D01*
X14722000Y-12542000D02*
X14752000Y-12572000D01*
X14752000Y-12542000D02*
X14722000Y-12572000D01*
X14751000Y-12096000D02*
X14781000Y-12126000D01*
X14781000Y-12096000D02*
X14751000Y-12126000D01*
X14778000Y-10194000D02*
X14808000Y-10224000D01*
X14808000Y-10194000D02*
X14778000Y-10224000D01*
X14820000Y-12096000D02*
X14850000Y-12126000D01*
X14850000Y-12096000D02*
X14820000Y-12126000D01*
X14824000Y-11566000D02*
X14854000Y-11596000D01*
X14854000Y-11566000D02*
X14824000Y-11596000D01*
X14960000Y-11885000D02*
X14990000Y-11915000D01*
X14990000Y-11885000D02*
X14960000Y-11915000D01*
X15065000Y-11885000D02*
X15095000Y-11915000D01*
X15095000Y-11885000D02*
X15065000Y-11915000D01*
X15125000Y-10549000D02*
X15155000Y-10579000D01*
X15155000Y-10549000D02*
X15125000Y-10579000D01*
X15164000Y-10374000D02*
X15194000Y-10404000D01*
X15194000Y-10374000D02*
X15164000Y-10404000D01*
X15298000Y-10348000D02*
X15328000Y-10378000D01*
X15328000Y-10348000D02*
X15298000Y-10378000D01*
X15345000Y-10064000D02*
X15375000Y-10094000D01*
X15375000Y-10064000D02*
X15345000Y-10094000D01*
X15402000Y-10347000D02*
X15432000Y-10377000D01*
X15432000Y-10347000D02*
X15402000Y-10377000D01*
X15500000Y-11434000D02*
X15530000Y-11464000D01*
X15530000Y-11434000D02*
X15500000Y-11464000D01*
X15661000Y-9814000D02*
X15691000Y-9844000D01*
X15691000Y-9814000D02*
X15661000Y-9844000D01*
X15753000Y-9814000D02*
X15783000Y-9844000D01*
X15783000Y-9814000D02*
X15753000Y-9844000D01*
X15812000Y-10227000D02*
X15842000Y-10257000D01*
X15842000Y-10227000D02*
X15812000Y-10257000D01*
X15812000Y-10332000D02*
X15842000Y-10362000D01*
X15842000Y-10332000D02*
X15812000Y-10362000D01*
X15812000Y-10437000D02*
X15842000Y-10467000D01*
X15842000Y-10437000D02*
X15812000Y-10467000D01*
X15843123Y-9813877D02*
X15873123Y-9843877D01*
X15873123Y-9813877D02*
X15843123Y-9843877D01*
X15917000Y-10122000D02*
X15947000Y-10152000D01*
X15947000Y-10122000D02*
X15917000Y-10152000D01*
X15917000Y-10227000D02*
X15947000Y-10257000D01*
X15947000Y-10227000D02*
X15917000Y-10257000D01*
X15917000Y-10332000D02*
X15947000Y-10362000D01*
X15947000Y-10332000D02*
X15917000Y-10362000D01*
X15917000Y-10437000D02*
X15947000Y-10467000D01*
X15947000Y-10437000D02*
X15917000Y-10467000D01*
X15917000Y-10542000D02*
X15947000Y-10572000D01*
X15947000Y-10542000D02*
X15917000Y-10572000D01*
X16022000Y-10122000D02*
X16052000Y-10152000D01*
X16052000Y-10122000D02*
X16022000Y-10152000D01*
X16022000Y-10227000D02*
X16052000Y-10257000D01*
X16052000Y-10227000D02*
X16022000Y-10257000D01*
X16022000Y-10332000D02*
X16052000Y-10362000D01*
X16052000Y-10332000D02*
X16022000Y-10362000D01*
X16022000Y-10437000D02*
X16052000Y-10467000D01*
X16052000Y-10437000D02*
X16022000Y-10467000D01*
X16022000Y-10542000D02*
X16052000Y-10572000D01*
X16052000Y-10542000D02*
X16022000Y-10572000D01*
X16127000Y-10122000D02*
X16157000Y-10152000D01*
X16157000Y-10122000D02*
X16127000Y-10152000D01*
X16127000Y-10227000D02*
X16157000Y-10257000D01*
X16157000Y-10227000D02*
X16127000Y-10257000D01*
X16127000Y-10332000D02*
X16157000Y-10362000D01*
X16157000Y-10332000D02*
X16127000Y-10362000D01*
X16127000Y-10437000D02*
X16157000Y-10467000D01*
X16157000Y-10437000D02*
X16127000Y-10467000D01*
X16127000Y-10542000D02*
X16157000Y-10572000D01*
X16157000Y-10542000D02*
X16127000Y-10572000D01*
X16172000Y-9827000D02*
X16202000Y-9857000D01*
X16202000Y-9827000D02*
X16172000Y-9857000D01*
X16172000Y-9897000D02*
X16202000Y-9927000D01*
X16202000Y-9897000D02*
X16172000Y-9927000D01*
X16232000Y-10227000D02*
X16262000Y-10257000D01*
X16262000Y-10227000D02*
X16232000Y-10257000D01*
X16232000Y-10332000D02*
X16262000Y-10362000D01*
X16262000Y-10332000D02*
X16232000Y-10362000D01*
X16232000Y-10437000D02*
X16262000Y-10467000D01*
X16262000Y-10437000D02*
X16232000Y-10467000D01*
X16359000Y-9939000D02*
X16389000Y-9969000D01*
X16389000Y-9939000D02*
X16359000Y-9969000D01*
X16445000Y-9932000D02*
X16475000Y-9962000D01*
X16475000Y-9932000D02*
X16445000Y-9962000D01*
X16486000Y-10294000D02*
X16516000Y-10324000D01*
X16516000Y-10294000D02*
X16486000Y-10324000D01*
X16488000Y-10157000D02*
X16518000Y-10187000D01*
X16518000Y-10157000D02*
X16488000Y-10187000D01*
X16517000Y-9932000D02*
X16547000Y-9962000D01*
X16547000Y-9932000D02*
X16517000Y-9962000D01*
X16603000Y-10077000D02*
X16633000Y-10107000D01*
X16633000Y-10077000D02*
X16603000Y-10107000D01*
X16676000Y-10077000D02*
X16706000Y-10107000D01*
X16706000Y-10077000D02*
X16676000Y-10107000D01*
X16730092Y-11382908D02*
X16760092Y-11412908D01*
X16760092Y-11382908D02*
X16730092Y-11412908D01*
X16749000Y-10076000D02*
X16779000Y-10106000D01*
X16779000Y-10076000D02*
X16749000Y-10106000D01*
X16964000Y-9970000D02*
X16994000Y-10000000D01*
X16994000Y-9970000D02*
X16964000Y-10000000D01*
X16966000Y-9869000D02*
X16996000Y-9899000D01*
X16996000Y-9869000D02*
X16966000Y-9899000D01*
X17116000Y-11941000D02*
X17146000Y-11971000D01*
X17146000Y-11941000D02*
X17116000Y-11971000D01*
X17116000Y-12141000D02*
X17146000Y-12171000D01*
X17146000Y-12141000D02*
X17116000Y-12171000D01*
X17216000Y-12041000D02*
X17246000Y-12071000D01*
X17246000Y-12041000D02*
X17216000Y-12071000D01*
X17316000Y-11941000D02*
X17346000Y-11971000D01*
X17346000Y-11941000D02*
X17316000Y-11971000D01*
X17316000Y-12141000D02*
X17346000Y-12171000D01*
X17346000Y-12141000D02*
X17316000Y-12171000D01*
D13*
X13585500Y-11693000D02*
G75*
G03*
X13585500Y-11693000I-20000J0D01*
G01*
X13707000Y-11693000D02*
G75*
G03*
X13707000Y-11693000I-20000J0D01*
G01*
X13828500Y-11693000D02*
G75*
G03*
X13828500Y-11693000I-20000J0D01*
G01*
X13886000Y-9124000D02*
G75*
G03*
X13886000Y-9124000I-20000J0D01*
G01*
X13950000Y-11693000D02*
G75*
G03*
X13950000Y-11693000I-20000J0D01*
G01*
X14063000Y-9092000D02*
G75*
G03*
X14063000Y-9092000I-20000J0D01*
G01*
X14071500Y-11693000D02*
G75*
G03*
X14071500Y-11693000I-20000J0D01*
G01*
X14421000Y-9949000D02*
G75*
G03*
X14421000Y-9949000I-20000J0D01*
G01*
X14473000Y-11363000D02*
G75*
G03*
X14473000Y-11363000I-20000J0D01*
G01*
X14551000Y-10207000D02*
G75*
G03*
X14551000Y-10207000I-20000J0D01*
G01*
X14600000Y-10011000D02*
G75*
G03*
X14600000Y-10011000I-20000J0D01*
G01*
X14602457Y-10110920D02*
G75*
G03*
X14602457Y-10110920I-20000J0D01*
G01*
X14792000Y-9794000D02*
G75*
G03*
X14792000Y-9794000I-20000J0D01*
G01*
X14948000Y-9706000D02*
G75*
G03*
X14948000Y-9706000I-20000J0D01*
G01*
X15031000Y-13010000D02*
G75*
G03*
X15031000Y-13010000I-20000J0D01*
G01*
X15155000Y-11365000D02*
G75*
G03*
X15155000Y-11365000I-20000J0D01*
G01*
X15214000Y-12025000D02*
G75*
G03*
X15214000Y-12025000I-20000J0D01*
G01*
X15237000Y-11449000D02*
G75*
G03*
X15237000Y-11449000I-20000J0D01*
G01*
X15360000Y-11921000D02*
G75*
G03*
X15360000Y-11921000I-20000J0D01*
G01*
X15360000Y-12026000D02*
G75*
G03*
X15360000Y-12026000I-20000J0D01*
G01*
X15361000Y-11817000D02*
G75*
G03*
X15361000Y-11817000I-20000J0D01*
G01*
X15370000Y-10182000D02*
G75*
G03*
X15370000Y-10182000I-20000J0D01*
G01*
X15426000Y-12835000D02*
G75*
G03*
X15426000Y-12835000I-20000J0D01*
G01*
X15441000Y-12429000D02*
G75*
G03*
X15441000Y-12429000I-20000J0D01*
G01*
X15642000Y-10800000D02*
G75*
G03*
X15642000Y-10800000I-20000J0D01*
G01*
X15647000Y-12367000D02*
G75*
G03*
X15647000Y-12367000I-20000J0D01*
G01*
X15670000Y-8686000D02*
G75*
G03*
X15670000Y-8686000I-20000J0D01*
G01*
X15679000Y-9156000D02*
G75*
G03*
X15679000Y-9156000I-20000J0D01*
G01*
X15757000Y-10802000D02*
G75*
G03*
X15757000Y-10802000I-20000J0D01*
G01*
X15812000Y-8662000D02*
G75*
G03*
X15812000Y-8662000I-20000J0D01*
G01*
X15812000Y-8770389D02*
G75*
G03*
X15812000Y-8770389I-20000J0D01*
G01*
X15812000Y-8878778D02*
G75*
G03*
X15812000Y-8878778I-20000J0D01*
G01*
X15812000Y-8987166D02*
G75*
G03*
X15812000Y-8987166I-20000J0D01*
G01*
X15812000Y-9095555D02*
G75*
G03*
X15812000Y-9095555I-20000J0D01*
G01*
X15812000Y-9203944D02*
G75*
G03*
X15812000Y-9203944I-20000J0D01*
G01*
X15812000Y-9318000D02*
G75*
G03*
X15812000Y-9318000I-20000J0D01*
G01*
X15872000Y-12619000D02*
G75*
G03*
X15872000Y-12619000I-20000J0D01*
G01*
X15878000Y-10832000D02*
G75*
G03*
X15878000Y-10832000I-20000J0D01*
G01*
X15899000Y-10930000D02*
G75*
G03*
X15899000Y-10930000I-20000J0D01*
G01*
X15907000Y-9345000D02*
G75*
G03*
X15907000Y-9345000I-20000J0D01*
G01*
X15983000Y-9480000D02*
G75*
G03*
X15983000Y-9480000I-20000J0D01*
G01*
X16000000Y-10835000D02*
G75*
G03*
X16000000Y-10835000I-20000J0D01*
G01*
X16002000Y-9344000D02*
G75*
G03*
X16002000Y-9344000I-20000J0D01*
G01*
X16075000Y-9575000D02*
G75*
G03*
X16075000Y-9575000I-20000J0D01*
G01*
X16105000Y-9345000D02*
G75*
G03*
X16105000Y-9345000I-20000J0D01*
G01*
X16188000Y-9441000D02*
G75*
G03*
X16188000Y-9441000I-20000J0D01*
G01*
X16191000Y-9534000D02*
G75*
G03*
X16191000Y-9534000I-20000J0D01*
G01*
X16194000Y-9634000D02*
G75*
G03*
X16194000Y-9634000I-20000J0D01*
G01*
X16205000Y-9733000D02*
G75*
G03*
X16205000Y-9733000I-20000J0D01*
G01*
X16206000Y-9345000D02*
G75*
G03*
X16206000Y-9345000I-20000J0D01*
G01*
X16285000Y-12579000D02*
G75*
G03*
X16285000Y-12579000I-20000J0D01*
G01*
X16307000Y-10910000D02*
G75*
G03*
X16307000Y-10910000I-20000J0D01*
G01*
X16361000Y-9713000D02*
G75*
G03*
X16361000Y-9713000I-20000J0D01*
G01*
X16361000Y-9817000D02*
G75*
G03*
X16361000Y-9817000I-20000J0D01*
G01*
X16363000Y-9345000D02*
G75*
G03*
X16363000Y-9345000I-20000J0D01*
G01*
X16383000Y-9517000D02*
G75*
G03*
X16383000Y-9517000I-20000J0D01*
G01*
X16420000Y-11066000D02*
G75*
G03*
X16420000Y-11066000I-20000J0D01*
G01*
X16421000Y-11169000D02*
G75*
G03*
X16421000Y-11169000I-20000J0D01*
G01*
X16451000Y-12029000D02*
G75*
G03*
X16451000Y-12029000I-20000J0D01*
G01*
X16467000Y-9345000D02*
G75*
G03*
X16467000Y-9345000I-20000J0D01*
G01*
X16467000Y-11342000D02*
G75*
G03*
X16467000Y-11342000I-20000J0D01*
G01*
X16472000Y-9447000D02*
G75*
G03*
X16472000Y-9447000I-20000J0D01*
G01*
X16472000Y-9577000D02*
G75*
G03*
X16472000Y-9577000I-20000J0D01*
G01*
X16472000Y-9683000D02*
G75*
G03*
X16472000Y-9683000I-20000J0D01*
G01*
X16472000Y-10708000D02*
G75*
G03*
X16472000Y-10708000I-20000J0D01*
G01*
X16545000Y-12649000D02*
G75*
G03*
X16545000Y-12649000I-20000J0D01*
G01*
X16570000Y-9345000D02*
G75*
G03*
X16570000Y-9345000I-20000J0D01*
G01*
X16633000Y-9450000D02*
G75*
G03*
X16633000Y-9450000I-20000J0D01*
G01*
X16673000Y-9345000D02*
G75*
G03*
X16673000Y-9345000I-20000J0D01*
G01*
X16712000Y-9572000D02*
G75*
G03*
X16712000Y-9572000I-20000J0D01*
G01*
X16776000Y-9345000D02*
G75*
G03*
X16776000Y-9345000I-20000J0D01*
G01*
X16800000Y-10956000D02*
G75*
G03*
X16800000Y-10956000I-20000J0D01*
G01*
X16816000Y-12435000D02*
G75*
G03*
X16816000Y-12435000I-20000J0D01*
G01*
X16818000Y-12334000D02*
G75*
G03*
X16818000Y-12334000I-20000J0D01*
G01*
X16851000Y-9450000D02*
G75*
G03*
X16851000Y-9450000I-20000J0D01*
G01*
X16856000Y-11969000D02*
G75*
G03*
X16856000Y-11969000I-20000J0D01*
G01*
X16877000Y-12214000D02*
G75*
G03*
X16877000Y-12214000I-20000J0D01*
G01*
X16879000Y-9345000D02*
G75*
G03*
X16879000Y-9345000I-20000J0D01*
G01*
X16974000Y-12998000D02*
G75*
G03*
X16974000Y-12998000I-20000J0D01*
G01*
X16982000Y-9345000D02*
G75*
G03*
X16982000Y-9345000I-20000J0D01*
G01*
X17002000Y-9508000D02*
G75*
G03*
X17002000Y-9508000I-20000J0D01*
G01*
X17085000Y-9345000D02*
G75*
G03*
X17085000Y-9345000I-20000J0D01*
G01*
X17188000Y-9345000D02*
G75*
G03*
X17188000Y-9345000I-20000J0D01*
G01*
X17227000Y-9450000D02*
G75*
G03*
X17227000Y-9450000I-20000J0D01*
G01*
X17227000Y-9678000D02*
G75*
G03*
X17227000Y-9678000I-20000J0D01*
G01*
X17291000Y-9345000D02*
G75*
G03*
X17291000Y-9345000I-20000J0D01*
G01*
X17362000Y-11654000D02*
G75*
G03*
X17362000Y-11654000I-20000J0D01*
G01*
X17374000Y-9564000D02*
G75*
G03*
X17374000Y-9564000I-20000J0D01*
G01*
X17394000Y-9345000D02*
G75*
G03*
X17394000Y-9345000I-20000J0D01*
G01*
X17497000Y-9345000D02*
G75*
G03*
X17497000Y-9345000I-20000J0D01*
G01*
X17503000Y-12538000D02*
G75*
G03*
X17503000Y-12538000I-20000J0D01*
G01*
X17515000Y-9450000D02*
G75*
G03*
X17515000Y-9450000I-20000J0D01*
G01*
X17515000Y-9681000D02*
G75*
G03*
X17515000Y-9681000I-20000J0D01*
G01*
X13135000Y-8880000D02*
X13135000Y-8920000D01*
X13115000Y-8900000D02*
X13155000Y-8900000D01*
X13135000Y-12880000D02*
X13135000Y-12920000D01*
X13115000Y-12900000D02*
X13155000Y-12900000D01*
X13183327Y-8763327D02*
X13183327Y-8803327D01*
X13163327Y-8783327D02*
X13203327Y-8783327D01*
X13183327Y-8996673D02*
X13183327Y-9036673D01*
X13163327Y-9016673D02*
X13203327Y-9016673D01*
X13183327Y-12763327D02*
X13183327Y-12803327D01*
X13163327Y-12783327D02*
X13203327Y-12783327D01*
X13183327Y-12996673D02*
X13183327Y-13036673D01*
X13163327Y-13016673D02*
X13203327Y-13016673D01*
X13300000Y-8715000D02*
X13300000Y-8755000D01*
X13280000Y-8735000D02*
X13320000Y-8735000D01*
X13300000Y-9045000D02*
X13300000Y-9085000D01*
X13280000Y-9065000D02*
X13320000Y-9065000D01*
X13300000Y-12715000D02*
X13300000Y-12755000D01*
X13280000Y-12735000D02*
X13320000Y-12735000D01*
X13300000Y-13045000D02*
X13300000Y-13085000D01*
X13280000Y-13065000D02*
X13320000Y-13065000D01*
X13416673Y-8763327D02*
X13416673Y-8803327D01*
X13396673Y-8783327D02*
X13436673Y-8783327D01*
X13416673Y-8996673D02*
X13416673Y-9036673D01*
X13396673Y-9016673D02*
X13436673Y-9016673D01*
X13416673Y-12763327D02*
X13416673Y-12803327D01*
X13396673Y-12783327D02*
X13436673Y-12783327D01*
X13416673Y-12996673D02*
X13416673Y-13036673D01*
X13396673Y-13016673D02*
X13436673Y-13016673D01*
X13465000Y-8880000D02*
X13465000Y-8920000D01*
X13445000Y-8900000D02*
X13485000Y-8900000D01*
X13465000Y-12880000D02*
X13465000Y-12920000D01*
X13445000Y-12900000D02*
X13485000Y-12900000D01*
X17135000Y-8880000D02*
X17135000Y-8920000D01*
X17115000Y-8900000D02*
X17155000Y-8900000D01*
X17135000Y-12880000D02*
X17135000Y-12920000D01*
X17115000Y-12900000D02*
X17155000Y-12900000D01*
X17183327Y-8763327D02*
X17183327Y-8803327D01*
X17163327Y-8783327D02*
X17203327Y-8783327D01*
X17183327Y-8996673D02*
X17183327Y-9036673D01*
X17163327Y-9016673D02*
X17203327Y-9016673D01*
X17183327Y-12763327D02*
X17183327Y-12803327D01*
X17163327Y-12783327D02*
X17203327Y-12783327D01*
X17183327Y-12996673D02*
X17183327Y-13036673D01*
X17163327Y-13016673D02*
X17203327Y-13016673D01*
X17300000Y-8715000D02*
X17300000Y-8755000D01*
X17280000Y-8735000D02*
X17320000Y-8735000D01*
X17300000Y-9045000D02*
X17300000Y-9085000D01*
X17280000Y-9065000D02*
X17320000Y-9065000D01*
X17300000Y-12715000D02*
X17300000Y-12755000D01*
X17280000Y-12735000D02*
X17320000Y-12735000D01*
X17300000Y-13045000D02*
X17300000Y-13085000D01*
X17280000Y-13065000D02*
X17320000Y-13065000D01*
X17416673Y-8763327D02*
X17416673Y-8803327D01*
X17396673Y-8783327D02*
X17436673Y-8783327D01*
X17416673Y-8996673D02*
X17416673Y-9036673D01*
X17396673Y-9016673D02*
X17436673Y-9016673D01*
X17416673Y-12763327D02*
X17416673Y-12803327D01*
X17396673Y-12783327D02*
X17436673Y-12783327D01*
X17416673Y-12996673D02*
X17416673Y-13036673D01*
X17396673Y-13016673D02*
X17436673Y-13016673D01*
X17465000Y-8880000D02*
X17465000Y-8920000D01*
X17445000Y-8900000D02*
X17485000Y-8900000D01*
X17465000Y-12880000D02*
X17465000Y-12920000D01*
X17445000Y-12900000D02*
X17485000Y-12900000D01*
D14*
X16062678Y-13067678D02*
X16062678Y-13032322D01*
X16027322Y-13032322D01*
X16027322Y-13067678D01*
X16062678Y-13067678D01*
D11*
X16020000Y-13017500D02*
X16020000Y-13082500D01*
X16070000Y-13017500D02*
X16070000Y-13082500D01*
X16020000Y-13082500D02*
G75*
G03*
X16070000Y-13082500I25000J0D01*
G01*
X16070000Y-13017500D02*
G75*
G03*
X16020000Y-13017500I-25000J0D01*
G01*
D14*
X16762678Y-13067678D02*
X16762678Y-13032322D01*
X16727322Y-13032322D01*
X16727322Y-13067678D01*
X16762678Y-13067678D01*
D11*
X16720000Y-13017500D02*
X16720000Y-13082500D01*
X16770000Y-13017500D02*
X16770000Y-13082500D01*
X16720000Y-13082500D02*
G75*
G03*
X16770000Y-13082500I25000J0D01*
G01*
X16770000Y-13017500D02*
G75*
G03*
X16720000Y-13017500I-25000J0D01*
G01*
D15*
X16145000Y-12807500D02*
X16172500Y-12780000D01*
X16145000Y-12752500D01*
X16117500Y-12780000D01*
X16145000Y-12807500D01*
D11*
X16130000Y-12807500D02*
X16160000Y-12807500D01*
X16130000Y-12752500D02*
X16160000Y-12752500D01*
X16160000Y-12807500D02*
G75*
G03*
X16160000Y-12752500I0J27500D01*
G01*
X16130000Y-12752500D02*
G75*
G03*
X16130000Y-12807500I0J-27500D01*
G01*
D15*
X16645000Y-12807500D02*
X16672500Y-12780000D01*
X16645000Y-12752500D01*
X16617500Y-12780000D01*
X16645000Y-12807500D01*
D11*
X16630000Y-12807500D02*
X16660000Y-12807500D01*
X16630000Y-12752500D02*
X16660000Y-12752500D01*
X16660000Y-12807500D02*
G75*
G03*
X16660000Y-12752500I0J27500D01*
G01*
X16630000Y-12752500D02*
G75*
G03*
X16630000Y-12807500I0J-27500D01*
G01*
D16*
X13160000Y-9316000D02*
X13240000Y-9396000D01*
X13240000Y-9316000D02*
X13160000Y-9396000D01*
X13240000Y-9356000D02*
G75*
G03*
X13240000Y-9356000I-40000J0D01*
G01*
X13160000Y-9660000D02*
X13240000Y-9740000D01*
X13240000Y-9660000D02*
X13160000Y-9740000D01*
X13240000Y-9700000D02*
G75*
G03*
X13240000Y-9700000I-40000J0D01*
G01*
X13160000Y-9860000D02*
X13240000Y-9940000D01*
X13240000Y-9860000D02*
X13160000Y-9940000D01*
X13240000Y-9900000D02*
G75*
G03*
X13240000Y-9900000I-40000J0D01*
G01*
X13160000Y-10060000D02*
X13240000Y-10140000D01*
X13240000Y-10060000D02*
X13160000Y-10140000D01*
X13240000Y-10100000D02*
G75*
G03*
X13240000Y-10100000I-40000J0D01*
G01*
X13160000Y-10260000D02*
X13240000Y-10340000D01*
X13240000Y-10260000D02*
X13160000Y-10340000D01*
X13240000Y-10300000D02*
G75*
G03*
X13240000Y-10300000I-40000J0D01*
G01*
X13160000Y-10660000D02*
X13240000Y-10740000D01*
X13240000Y-10660000D02*
X13160000Y-10740000D01*
X13240000Y-10700000D02*
G75*
G03*
X13240000Y-10700000I-40000J0D01*
G01*
X13160000Y-10860000D02*
X13240000Y-10940000D01*
X13240000Y-10860000D02*
X13160000Y-10940000D01*
X13240000Y-10900000D02*
G75*
G03*
X13240000Y-10900000I-40000J0D01*
G01*
X13160000Y-11060000D02*
X13240000Y-11140000D01*
X13240000Y-11060000D02*
X13160000Y-11140000D01*
X13240000Y-11100000D02*
G75*
G03*
X13240000Y-11100000I-40000J0D01*
G01*
X13160000Y-11260000D02*
X13240000Y-11340000D01*
X13240000Y-11260000D02*
X13160000Y-11340000D01*
X13240000Y-11300000D02*
G75*
G03*
X13240000Y-11300000I-40000J0D01*
G01*
X13360000Y-9316000D02*
X13440000Y-9396000D01*
X13440000Y-9316000D02*
X13360000Y-9396000D01*
X13440000Y-9356000D02*
G75*
G03*
X13440000Y-9356000I-40000J0D01*
G01*
X13460000Y-10060000D02*
X13540000Y-10140000D01*
X13540000Y-10060000D02*
X13460000Y-10140000D01*
X13540000Y-10100000D02*
G75*
G03*
X13540000Y-10100000I-40000J0D01*
G01*
X13460000Y-10260000D02*
X13540000Y-10340000D01*
X13540000Y-10260000D02*
X13460000Y-10340000D01*
X13540000Y-10300000D02*
G75*
G03*
X13540000Y-10300000I-40000J0D01*
G01*
X13460000Y-11060000D02*
X13540000Y-11140000D01*
X13540000Y-11060000D02*
X13460000Y-11140000D01*
X13540000Y-11100000D02*
G75*
G03*
X13540000Y-11100000I-40000J0D01*
G01*
X13460000Y-11260000D02*
X13540000Y-11340000D01*
X13540000Y-11260000D02*
X13460000Y-11340000D01*
X13540000Y-11300000D02*
G75*
G03*
X13540000Y-11300000I-40000J0D01*
G01*
X13560000Y-9316000D02*
X13640000Y-9396000D01*
X13640000Y-9316000D02*
X13560000Y-9396000D01*
X13640000Y-9356000D02*
G75*
G03*
X13640000Y-9356000I-40000J0D01*
G01*
X13760000Y-8860000D02*
X13840000Y-8940000D01*
X13840000Y-8860000D02*
X13760000Y-8940000D01*
X13840000Y-8900000D02*
G75*
G03*
X13840000Y-8900000I-40000J0D01*
G01*
X13760000Y-9316000D02*
X13840000Y-9396000D01*
X13840000Y-9316000D02*
X13760000Y-9396000D01*
X13840000Y-9356000D02*
G75*
G03*
X13840000Y-9356000I-40000J0D01*
G01*
X13960000Y-8860000D02*
X14040000Y-8940000D01*
X14040000Y-8860000D02*
X13960000Y-8940000D01*
X14040000Y-8900000D02*
G75*
G03*
X14040000Y-8900000I-40000J0D01*
G01*
X14160000Y-8860000D02*
X14240000Y-8940000D01*
X14240000Y-8860000D02*
X14160000Y-8940000D01*
X14240000Y-8900000D02*
G75*
G03*
X14240000Y-8900000I-40000J0D01*
G01*
X14360000Y-8860000D02*
X14440000Y-8940000D01*
X14440000Y-8860000D02*
X14360000Y-8940000D01*
X14440000Y-8900000D02*
G75*
G03*
X14440000Y-8900000I-40000J0D01*
G01*
X14560000Y-8860000D02*
X14640000Y-8940000D01*
X14640000Y-8860000D02*
X14560000Y-8940000D01*
X14640000Y-8900000D02*
G75*
G03*
X14640000Y-8900000I-40000J0D01*
G01*
X14760000Y-8860000D02*
X14840000Y-8940000D01*
X14840000Y-8860000D02*
X14760000Y-8940000D01*
X14840000Y-8900000D02*
G75*
G03*
X14840000Y-8900000I-40000J0D01*
G01*
X14960000Y-8860000D02*
X15040000Y-8940000D01*
X15040000Y-8860000D02*
X14960000Y-8940000D01*
X15040000Y-8900000D02*
G75*
G03*
X15040000Y-8900000I-40000J0D01*
G01*
X15160000Y-8860000D02*
X15240000Y-8940000D01*
X15240000Y-8860000D02*
X15160000Y-8940000D01*
X15240000Y-8900000D02*
G75*
G03*
X15240000Y-8900000I-40000J0D01*
G01*
X15360000Y-8860000D02*
X15440000Y-8940000D01*
X15440000Y-8860000D02*
X15360000Y-8940000D01*
X15440000Y-8900000D02*
G75*
G03*
X15440000Y-8900000I-40000J0D01*
G01*
X15560000Y-8860000D02*
X15640000Y-8940000D01*
X15640000Y-8860000D02*
X15560000Y-8940000D01*
X15640000Y-8900000D02*
G75*
G03*
X15640000Y-8900000I-40000J0D01*
G01*
X17066000Y-10789000D02*
X17146000Y-10869000D01*
X17146000Y-10789000D02*
X17066000Y-10869000D01*
X17146000Y-10829000D02*
G75*
G03*
X17146000Y-10829000I-40000J0D01*
G01*
X17066000Y-10989000D02*
X17146000Y-11069000D01*
X17146000Y-10989000D02*
X17066000Y-11069000D01*
X17146000Y-11029000D02*
G75*
G03*
X17146000Y-11029000I-40000J0D01*
G01*
X17066000Y-11189000D02*
X17146000Y-11269000D01*
X17146000Y-11189000D02*
X17066000Y-11269000D01*
X17146000Y-11229000D02*
G75*
G03*
X17146000Y-11229000I-40000J0D01*
G01*
X17066000Y-11389000D02*
X17146000Y-11469000D01*
X17146000Y-11389000D02*
X17066000Y-11469000D01*
X17146000Y-11429000D02*
G75*
G03*
X17146000Y-11429000I-40000J0D01*
G01*
X17366000Y-10789000D02*
X17446000Y-10869000D01*
X17446000Y-10789000D02*
X17366000Y-10869000D01*
X17446000Y-10829000D02*
G75*
G03*
X17446000Y-10829000I-40000J0D01*
G01*
X17366000Y-10989000D02*
X17446000Y-11069000D01*
X17446000Y-10989000D02*
X17366000Y-11069000D01*
X17446000Y-11029000D02*
G75*
G03*
X17446000Y-11029000I-40000J0D01*
G01*
X17366000Y-11189000D02*
X17446000Y-11269000D01*
X17446000Y-11189000D02*
X17366000Y-11269000D01*
X17446000Y-11229000D02*
G75*
G03*
X17446000Y-11229000I-40000J0D01*
G01*
X17366000Y-11389000D02*
X17446000Y-11469000D01*
X17446000Y-11389000D02*
X17366000Y-11469000D01*
X17446000Y-11429000D02*
G75*
G03*
X17446000Y-11429000I-40000J0D01*
G01*
D17*
X13709500Y-12598000D02*
X13809500Y-12698000D01*
X13809500Y-12598000D02*
X13709500Y-12698000D01*
X13759500Y-12598000D02*
X13759500Y-12698000D01*
X13709500Y-12648000D02*
X13809500Y-12648000D01*
X13710000Y-12960000D02*
X13810000Y-13060000D01*
X13810000Y-12960000D02*
X13710000Y-13060000D01*
X13760000Y-12960000D02*
X13760000Y-13060000D01*
X13710000Y-13010000D02*
X13810000Y-13010000D01*
X13963500Y-12598000D02*
X14063500Y-12698000D01*
X14063500Y-12598000D02*
X13963500Y-12698000D01*
X14013500Y-12598000D02*
X14013500Y-12698000D01*
X13963500Y-12648000D02*
X14063500Y-12648000D01*
X13964000Y-12960000D02*
X14064000Y-13060000D01*
X14064000Y-12960000D02*
X13964000Y-13060000D01*
X14014000Y-12960000D02*
X14014000Y-13060000D01*
X13964000Y-13010000D02*
X14064000Y-13010000D01*
X17326000Y-9899500D02*
X17426000Y-9999500D01*
X17426000Y-9899500D02*
X17326000Y-9999500D01*
X17376000Y-9899500D02*
X17376000Y-9999500D01*
X17326000Y-9949500D02*
X17426000Y-9949500D01*
X17326000Y-10153500D02*
X17426000Y-10253500D01*
X17426000Y-10153500D02*
X17326000Y-10253500D01*
X17376000Y-10153500D02*
X17376000Y-10253500D01*
X17326000Y-10203500D02*
X17426000Y-10203500D01*
X17326000Y-10407500D02*
X17426000Y-10507500D01*
X17426000Y-10407500D02*
X17326000Y-10507500D01*
X17376000Y-10407500D02*
X17376000Y-10507500D01*
X17326000Y-10457500D02*
X17426000Y-10457500D01*
D18*
X13190000Y-8790000D02*
X13410000Y-9010000D01*
X13410000Y-8790000D02*
X13190000Y-9010000D01*
X13377782Y-8977783D02*
X13377782Y-8822218D01*
X13222217Y-8822218D01*
X13222217Y-8977783D01*
X13377782Y-8977783D01*
X13190000Y-12790000D02*
X13410000Y-13010000D01*
X13410000Y-12790000D02*
X13190000Y-13010000D01*
X13377782Y-12977782D02*
X13377782Y-12822217D01*
X13222217Y-12822217D01*
X13222217Y-12977782D01*
X13377782Y-12977782D01*
X17190000Y-8790000D02*
X17410000Y-9010000D01*
X17410000Y-8790000D02*
X17190000Y-9010000D01*
X17377783Y-8977783D02*
X17377783Y-8822218D01*
X17222218Y-8822218D01*
X17222218Y-8977783D01*
X17377783Y-8977783D01*
X17190000Y-12790000D02*
X17410000Y-13010000D01*
X17410000Y-12790000D02*
X17190000Y-13010000D01*
X17377783Y-12977782D02*
X17377783Y-12822217D01*
X17222218Y-12822217D01*
X17222218Y-12977782D01*
X17377783Y-12977782D01*
D11*
X13255119Y-13512976D02*
X13255119Y-13312976D01*
X13302738Y-13312976D01*
X13331309Y-13322500D01*
X13350357Y-13341548D01*
X13359881Y-13360595D01*
X13369405Y-13398690D01*
X13369405Y-13427262D01*
X13359881Y-13465357D01*
X13350357Y-13484405D01*
X13331309Y-13503452D01*
X13302738Y-13512976D01*
X13255119Y-13512976D01*
X13455119Y-13512976D02*
X13455119Y-13379643D01*
X13455119Y-13417738D02*
X13464643Y-13398690D01*
X13474167Y-13389167D01*
X13493214Y-13379643D01*
X13512262Y-13379643D01*
X13578928Y-13512976D02*
X13578928Y-13379643D01*
X13578928Y-13312976D02*
X13569405Y-13322500D01*
X13578928Y-13332024D01*
X13588452Y-13322500D01*
X13578928Y-13312976D01*
X13578928Y-13332024D01*
X13702738Y-13512976D02*
X13683690Y-13503452D01*
X13674167Y-13484405D01*
X13674167Y-13312976D01*
X13807500Y-13512976D02*
X13788452Y-13503452D01*
X13778928Y-13484405D01*
X13778928Y-13312976D01*
X14036071Y-13512976D02*
X14036071Y-13312976D01*
X14102738Y-13455833D01*
X14169405Y-13312976D01*
X14169405Y-13512976D01*
X14350357Y-13512976D02*
X14350357Y-13408214D01*
X14340833Y-13389167D01*
X14321786Y-13379643D01*
X14283690Y-13379643D01*
X14264643Y-13389167D01*
X14350357Y-13503452D02*
X14331309Y-13512976D01*
X14283690Y-13512976D01*
X14264643Y-13503452D01*
X14255119Y-13484405D01*
X14255119Y-13465357D01*
X14264643Y-13446309D01*
X14283690Y-13436786D01*
X14331309Y-13436786D01*
X14350357Y-13427262D01*
X14445595Y-13379643D02*
X14445595Y-13579643D01*
X14445595Y-13389167D02*
X14464643Y-13379643D01*
X14502738Y-13379643D01*
X14521786Y-13389167D01*
X14531309Y-13398690D01*
X14540833Y-13417738D01*
X14540833Y-13474881D01*
X14531309Y-13493928D01*
X14521786Y-13503452D01*
X14502738Y-13512976D01*
X14464643Y-13512976D01*
X14445595Y-13503452D01*
X14626548Y-13493928D02*
X14636071Y-13503452D01*
X14626548Y-13512976D01*
X14617024Y-13503452D01*
X14626548Y-13493928D01*
X14626548Y-13512976D01*
X14626548Y-13389167D02*
X14636071Y-13398690D01*
X14626548Y-13408214D01*
X14617024Y-13398690D01*
X14626548Y-13389167D01*
X14626548Y-13408214D01*
D12*
X12967500Y-13827500D02*
X12997500Y-13857500D01*
X12997500Y-13827500D02*
X12967500Y-13857500D01*
D11*
X13293214Y-13732976D02*
X13312262Y-13732976D01*
X13331309Y-13742500D01*
X13340833Y-13752024D01*
X13350357Y-13771071D01*
X13359881Y-13809167D01*
X13359881Y-13856786D01*
X13350357Y-13894881D01*
X13340833Y-13913928D01*
X13331309Y-13923452D01*
X13312262Y-13932976D01*
X13293214Y-13932976D01*
X13274167Y-13923452D01*
X13264643Y-13913928D01*
X13255119Y-13894881D01*
X13245595Y-13856786D01*
X13245595Y-13809167D01*
X13255119Y-13771071D01*
X13264643Y-13752024D01*
X13274167Y-13742500D01*
X13293214Y-13732976D01*
X13445595Y-13913928D02*
X13455119Y-13923452D01*
X13445595Y-13932976D01*
X13436071Y-13923452D01*
X13445595Y-13913928D01*
X13445595Y-13932976D01*
X13521786Y-13732976D02*
X13645595Y-13732976D01*
X13578928Y-13809167D01*
X13607500Y-13809167D01*
X13626548Y-13818690D01*
X13636071Y-13828214D01*
X13645595Y-13847262D01*
X13645595Y-13894881D01*
X13636071Y-13913928D01*
X13626548Y-13923452D01*
X13607500Y-13932976D01*
X13550357Y-13932976D01*
X13531309Y-13923452D01*
X13521786Y-13913928D01*
X13769405Y-13732976D02*
X13788452Y-13732976D01*
X13807500Y-13742500D01*
X13817024Y-13752024D01*
X13826548Y-13771071D01*
X13836071Y-13809167D01*
X13836071Y-13856786D01*
X13826548Y-13894881D01*
X13817024Y-13913928D01*
X13807500Y-13923452D01*
X13788452Y-13932976D01*
X13769405Y-13932976D01*
X13750357Y-13923452D01*
X13740833Y-13913928D01*
X13731309Y-13894881D01*
X13721786Y-13856786D01*
X13721786Y-13809167D01*
X13731309Y-13771071D01*
X13740833Y-13752024D01*
X13750357Y-13742500D01*
X13769405Y-13732976D01*
X13959881Y-13732976D02*
X13978928Y-13732976D01*
X13997976Y-13742500D01*
X14007500Y-13752024D01*
X14017024Y-13771071D01*
X14026548Y-13809167D01*
X14026548Y-13856786D01*
X14017024Y-13894881D01*
X14007500Y-13913928D01*
X13997976Y-13923452D01*
X13978928Y-13932976D01*
X13959881Y-13932976D01*
X13940833Y-13923452D01*
X13931309Y-13913928D01*
X13921786Y-13894881D01*
X13912262Y-13856786D01*
X13912262Y-13809167D01*
X13921786Y-13771071D01*
X13931309Y-13752024D01*
X13940833Y-13742500D01*
X13959881Y-13732976D01*
X14112262Y-13932976D02*
X14112262Y-13799643D01*
X14112262Y-13818690D02*
X14121786Y-13809167D01*
X14140833Y-13799643D01*
X14169405Y-13799643D01*
X14188452Y-13809167D01*
X14197976Y-13828214D01*
X14197976Y-13932976D01*
X14197976Y-13828214D02*
X14207500Y-13809167D01*
X14226548Y-13799643D01*
X14255119Y-13799643D01*
X14274167Y-13809167D01*
X14283690Y-13828214D01*
X14283690Y-13932976D01*
X14378928Y-13932976D02*
X14378928Y-13799643D01*
X14378928Y-13818690D02*
X14388452Y-13809167D01*
X14407500Y-13799643D01*
X14436071Y-13799643D01*
X14455119Y-13809167D01*
X14464643Y-13828214D01*
X14464643Y-13932976D01*
X14464643Y-13828214D02*
X14474167Y-13809167D01*
X14493214Y-13799643D01*
X14521786Y-13799643D01*
X14540833Y-13809167D01*
X14550357Y-13828214D01*
X14550357Y-13932976D01*
X14940833Y-13723452D02*
X14769405Y-13980595D01*
X15197976Y-13732976D02*
X15217024Y-13732976D01*
X15236071Y-13742500D01*
X15245595Y-13752024D01*
X15255119Y-13771071D01*
X15264643Y-13809167D01*
X15264643Y-13856786D01*
X15255119Y-13894881D01*
X15245595Y-13913928D01*
X15236071Y-13923452D01*
X15217024Y-13932976D01*
X15197976Y-13932976D01*
X15178928Y-13923452D01*
X15169405Y-13913928D01*
X15159881Y-13894881D01*
X15150357Y-13856786D01*
X15150357Y-13809167D01*
X15159881Y-13771071D01*
X15169405Y-13752024D01*
X15178928Y-13742500D01*
X15197976Y-13732976D01*
X15350357Y-13913928D02*
X15359881Y-13923452D01*
X15350357Y-13932976D01*
X15340833Y-13923452D01*
X15350357Y-13913928D01*
X15350357Y-13932976D01*
X15483690Y-13732976D02*
X15502738Y-13732976D01*
X15521786Y-13742500D01*
X15531309Y-13752024D01*
X15540833Y-13771071D01*
X15550357Y-13809167D01*
X15550357Y-13856786D01*
X15540833Y-13894881D01*
X15531309Y-13913928D01*
X15521786Y-13923452D01*
X15502738Y-13932976D01*
X15483690Y-13932976D01*
X15464643Y-13923452D01*
X15455119Y-13913928D01*
X15445595Y-13894881D01*
X15436071Y-13856786D01*
X15436071Y-13809167D01*
X15445595Y-13771071D01*
X15455119Y-13752024D01*
X15464643Y-13742500D01*
X15483690Y-13732976D01*
X15740833Y-13932976D02*
X15626548Y-13932976D01*
X15683690Y-13932976D02*
X15683690Y-13732976D01*
X15664643Y-13761548D01*
X15645595Y-13780595D01*
X15626548Y-13790119D01*
X15931309Y-13932976D02*
X15817024Y-13932976D01*
X15874167Y-13932976D02*
X15874167Y-13732976D01*
X15855119Y-13761548D01*
X15836071Y-13780595D01*
X15817024Y-13790119D01*
X16045595Y-13818690D02*
X16026548Y-13809167D01*
X16017024Y-13799643D01*
X16007500Y-13780595D01*
X16007500Y-13771071D01*
X16017024Y-13752024D01*
X16026548Y-13742500D01*
X16045595Y-13732976D01*
X16083690Y-13732976D01*
X16102738Y-13742500D01*
X16112262Y-13752024D01*
X16121786Y-13771071D01*
X16121786Y-13780595D01*
X16112262Y-13799643D01*
X16102738Y-13809167D01*
X16083690Y-13818690D01*
X16045595Y-13818690D01*
X16026548Y-13828214D01*
X16017024Y-13837738D01*
X16007500Y-13856786D01*
X16007500Y-13894881D01*
X16017024Y-13913928D01*
X16026548Y-13923452D01*
X16045595Y-13932976D01*
X16083690Y-13932976D01*
X16102738Y-13923452D01*
X16112262Y-13913928D01*
X16121786Y-13894881D01*
X16121786Y-13856786D01*
X16112262Y-13837738D01*
X16102738Y-13828214D01*
X16083690Y-13818690D01*
X16197976Y-13732976D02*
X16197976Y-13771071D01*
X16274167Y-13732976D02*
X16274167Y-13771071D01*
X16569405Y-14009167D02*
X16559881Y-13999643D01*
X16540833Y-13971071D01*
X16531309Y-13952024D01*
X16521786Y-13923452D01*
X16512262Y-13875833D01*
X16512262Y-13837738D01*
X16521786Y-13790119D01*
X16531309Y-13761548D01*
X16540833Y-13742500D01*
X16559881Y-13713928D01*
X16569405Y-13704405D01*
X16750357Y-13932976D02*
X16636071Y-13932976D01*
X16693214Y-13932976D02*
X16693214Y-13732976D01*
X16674167Y-13761548D01*
X16655119Y-13780595D01*
X16636071Y-13790119D01*
X16940833Y-13932976D02*
X16826548Y-13932976D01*
X16883690Y-13932976D02*
X16883690Y-13732976D01*
X16864643Y-13761548D01*
X16845595Y-13780595D01*
X16826548Y-13790119D01*
X17007500Y-13732976D02*
X17131310Y-13732976D01*
X17064643Y-13809167D01*
X17093214Y-13809167D01*
X17112262Y-13818690D01*
X17121786Y-13828214D01*
X17131310Y-13847262D01*
X17131310Y-13894881D01*
X17121786Y-13913928D01*
X17112262Y-13923452D01*
X17093214Y-13932976D01*
X17036071Y-13932976D01*
X17017024Y-13923452D01*
X17007500Y-13913928D01*
X17369405Y-13932976D02*
X17369405Y-13732976D01*
X17455119Y-13932976D02*
X17455119Y-13828214D01*
X17445595Y-13809167D01*
X17426548Y-13799643D01*
X17397976Y-13799643D01*
X17378929Y-13809167D01*
X17369405Y-13818690D01*
X17578929Y-13932976D02*
X17559881Y-13923452D01*
X17550357Y-13913928D01*
X17540833Y-13894881D01*
X17540833Y-13837738D01*
X17550357Y-13818690D01*
X17559881Y-13809167D01*
X17578929Y-13799643D01*
X17607500Y-13799643D01*
X17626548Y-13809167D01*
X17636071Y-13818690D01*
X17645595Y-13837738D01*
X17645595Y-13894881D01*
X17636071Y-13913928D01*
X17626548Y-13923452D01*
X17607500Y-13932976D01*
X17578929Y-13932976D01*
X17759881Y-13932976D02*
X17740833Y-13923452D01*
X17731310Y-13904405D01*
X17731310Y-13732976D01*
X17912262Y-13923452D02*
X17893214Y-13932976D01*
X17855119Y-13932976D01*
X17836071Y-13923452D01*
X17826548Y-13904405D01*
X17826548Y-13828214D01*
X17836071Y-13809167D01*
X17855119Y-13799643D01*
X17893214Y-13799643D01*
X17912262Y-13809167D01*
X17921786Y-13828214D01*
X17921786Y-13847262D01*
X17826548Y-13866309D01*
X17997976Y-13923452D02*
X18017024Y-13932976D01*
X18055119Y-13932976D01*
X18074167Y-13923452D01*
X18083690Y-13904405D01*
X18083690Y-13894881D01*
X18074167Y-13875833D01*
X18055119Y-13866309D01*
X18026548Y-13866309D01*
X18007500Y-13856786D01*
X17997976Y-13837738D01*
X17997976Y-13828214D01*
X18007500Y-13809167D01*
X18026548Y-13799643D01*
X18055119Y-13799643D01*
X18074167Y-13809167D01*
X18150357Y-14009167D02*
X18159881Y-13999643D01*
X18178929Y-13971071D01*
X18188452Y-13952024D01*
X18197976Y-13923452D01*
X18207500Y-13875833D01*
X18207500Y-13837738D01*
X18197976Y-13790119D01*
X18188452Y-13761548D01*
X18178929Y-13742500D01*
X18159881Y-13713928D01*
X18150357Y-13704405D01*
D13*
X12997500Y-14106500D02*
G75*
G03*
X12997500Y-14106500I-20000J0D01*
G01*
D11*
X13293214Y-13996976D02*
X13312262Y-13996976D01*
X13331309Y-14006500D01*
X13340833Y-14016024D01*
X13350357Y-14035071D01*
X13359881Y-14073167D01*
X13359881Y-14120786D01*
X13350357Y-14158881D01*
X13340833Y-14177928D01*
X13331309Y-14187452D01*
X13312262Y-14196976D01*
X13293214Y-14196976D01*
X13274167Y-14187452D01*
X13264643Y-14177928D01*
X13255119Y-14158881D01*
X13245595Y-14120786D01*
X13245595Y-14073167D01*
X13255119Y-14035071D01*
X13264643Y-14016024D01*
X13274167Y-14006500D01*
X13293214Y-13996976D01*
X13445595Y-14177928D02*
X13455119Y-14187452D01*
X13445595Y-14196976D01*
X13436071Y-14187452D01*
X13445595Y-14177928D01*
X13445595Y-14196976D01*
X13626548Y-14063643D02*
X13626548Y-14196976D01*
X13578928Y-13987452D02*
X13531309Y-14130309D01*
X13655119Y-14130309D01*
X13769405Y-13996976D02*
X13788452Y-13996976D01*
X13807500Y-14006500D01*
X13817024Y-14016024D01*
X13826548Y-14035071D01*
X13836071Y-14073167D01*
X13836071Y-14120786D01*
X13826548Y-14158881D01*
X13817024Y-14177928D01*
X13807500Y-14187452D01*
X13788452Y-14196976D01*
X13769405Y-14196976D01*
X13750357Y-14187452D01*
X13740833Y-14177928D01*
X13731309Y-14158881D01*
X13721786Y-14120786D01*
X13721786Y-14073167D01*
X13731309Y-14035071D01*
X13740833Y-14016024D01*
X13750357Y-14006500D01*
X13769405Y-13996976D01*
X13959881Y-13996976D02*
X13978928Y-13996976D01*
X13997976Y-14006500D01*
X14007500Y-14016024D01*
X14017024Y-14035071D01*
X14026548Y-14073167D01*
X14026548Y-14120786D01*
X14017024Y-14158881D01*
X14007500Y-14177928D01*
X13997976Y-14187452D01*
X13978928Y-14196976D01*
X13959881Y-14196976D01*
X13940833Y-14187452D01*
X13931309Y-14177928D01*
X13921786Y-14158881D01*
X13912262Y-14120786D01*
X13912262Y-14073167D01*
X13921786Y-14035071D01*
X13931309Y-14016024D01*
X13940833Y-14006500D01*
X13959881Y-13996976D01*
X14112262Y-14196976D02*
X14112262Y-14063643D01*
X14112262Y-14082690D02*
X14121786Y-14073167D01*
X14140833Y-14063643D01*
X14169405Y-14063643D01*
X14188452Y-14073167D01*
X14197976Y-14092214D01*
X14197976Y-14196976D01*
X14197976Y-14092214D02*
X14207500Y-14073167D01*
X14226548Y-14063643D01*
X14255119Y-14063643D01*
X14274167Y-14073167D01*
X14283690Y-14092214D01*
X14283690Y-14196976D01*
X14378928Y-14196976D02*
X14378928Y-14063643D01*
X14378928Y-14082690D02*
X14388452Y-14073167D01*
X14407500Y-14063643D01*
X14436071Y-14063643D01*
X14455119Y-14073167D01*
X14464643Y-14092214D01*
X14464643Y-14196976D01*
X14464643Y-14092214D02*
X14474167Y-14073167D01*
X14493214Y-14063643D01*
X14521786Y-14063643D01*
X14540833Y-14073167D01*
X14550357Y-14092214D01*
X14550357Y-14196976D01*
X14940833Y-13987452D02*
X14769405Y-14244595D01*
X15197976Y-13996976D02*
X15217024Y-13996976D01*
X15236071Y-14006500D01*
X15245595Y-14016024D01*
X15255119Y-14035071D01*
X15264643Y-14073167D01*
X15264643Y-14120786D01*
X15255119Y-14158881D01*
X15245595Y-14177928D01*
X15236071Y-14187452D01*
X15217024Y-14196976D01*
X15197976Y-14196976D01*
X15178928Y-14187452D01*
X15169405Y-14177928D01*
X15159881Y-14158881D01*
X15150357Y-14120786D01*
X15150357Y-14073167D01*
X15159881Y-14035071D01*
X15169405Y-14016024D01*
X15178928Y-14006500D01*
X15197976Y-13996976D01*
X15350357Y-14177928D02*
X15359881Y-14187452D01*
X15350357Y-14196976D01*
X15340833Y-14187452D01*
X15350357Y-14177928D01*
X15350357Y-14196976D01*
X15483690Y-13996976D02*
X15502738Y-13996976D01*
X15521786Y-14006500D01*
X15531309Y-14016024D01*
X15540833Y-14035071D01*
X15550357Y-14073167D01*
X15550357Y-14120786D01*
X15540833Y-14158881D01*
X15531309Y-14177928D01*
X15521786Y-14187452D01*
X15502738Y-14196976D01*
X15483690Y-14196976D01*
X15464643Y-14187452D01*
X15455119Y-14177928D01*
X15445595Y-14158881D01*
X15436071Y-14120786D01*
X15436071Y-14073167D01*
X15445595Y-14035071D01*
X15455119Y-14016024D01*
X15464643Y-14006500D01*
X15483690Y-13996976D01*
X15740833Y-14196976D02*
X15626548Y-14196976D01*
X15683690Y-14196976D02*
X15683690Y-13996976D01*
X15664643Y-14025548D01*
X15645595Y-14044595D01*
X15626548Y-14054119D01*
X15921786Y-13996976D02*
X15826548Y-13996976D01*
X15817024Y-14092214D01*
X15826548Y-14082690D01*
X15845595Y-14073167D01*
X15893214Y-14073167D01*
X15912262Y-14082690D01*
X15921786Y-14092214D01*
X15931309Y-14111262D01*
X15931309Y-14158881D01*
X15921786Y-14177928D01*
X15912262Y-14187452D01*
X15893214Y-14196976D01*
X15845595Y-14196976D01*
X15826548Y-14187452D01*
X15817024Y-14177928D01*
X15997976Y-13996976D02*
X16131309Y-13996976D01*
X16045595Y-14196976D01*
X16197976Y-13996976D02*
X16197976Y-14035071D01*
X16274167Y-13996976D02*
X16274167Y-14035071D01*
X16569405Y-14273167D02*
X16559881Y-14263643D01*
X16540833Y-14235071D01*
X16531309Y-14216024D01*
X16521786Y-14187452D01*
X16512262Y-14139833D01*
X16512262Y-14101738D01*
X16521786Y-14054119D01*
X16531309Y-14025548D01*
X16540833Y-14006500D01*
X16559881Y-13977928D01*
X16569405Y-13968405D01*
X16655119Y-14196976D02*
X16693214Y-14196976D01*
X16712262Y-14187452D01*
X16721786Y-14177928D01*
X16740833Y-14149357D01*
X16750357Y-14111262D01*
X16750357Y-14035071D01*
X16740833Y-14016024D01*
X16731309Y-14006500D01*
X16712262Y-13996976D01*
X16674167Y-13996976D01*
X16655119Y-14006500D01*
X16645595Y-14016024D01*
X16636071Y-14035071D01*
X16636071Y-14082690D01*
X16645595Y-14101738D01*
X16655119Y-14111262D01*
X16674167Y-14120786D01*
X16712262Y-14120786D01*
X16731309Y-14111262D01*
X16740833Y-14101738D01*
X16750357Y-14082690D01*
X16817024Y-13996976D02*
X16940833Y-13996976D01*
X16874167Y-14073167D01*
X16902738Y-14073167D01*
X16921786Y-14082690D01*
X16931310Y-14092214D01*
X16940833Y-14111262D01*
X16940833Y-14158881D01*
X16931310Y-14177928D01*
X16921786Y-14187452D01*
X16902738Y-14196976D01*
X16845595Y-14196976D01*
X16826548Y-14187452D01*
X16817024Y-14177928D01*
X17178929Y-14196976D02*
X17178929Y-13996976D01*
X17264643Y-14196976D02*
X17264643Y-14092214D01*
X17255119Y-14073167D01*
X17236071Y-14063643D01*
X17207500Y-14063643D01*
X17188452Y-14073167D01*
X17178929Y-14082690D01*
X17388452Y-14196976D02*
X17369405Y-14187452D01*
X17359881Y-14177928D01*
X17350357Y-14158881D01*
X17350357Y-14101738D01*
X17359881Y-14082690D01*
X17369405Y-14073167D01*
X17388452Y-14063643D01*
X17417024Y-14063643D01*
X17436071Y-14073167D01*
X17445595Y-14082690D01*
X17455119Y-14101738D01*
X17455119Y-14158881D01*
X17445595Y-14177928D01*
X17436071Y-14187452D01*
X17417024Y-14196976D01*
X17388452Y-14196976D01*
X17569405Y-14196976D02*
X17550357Y-14187452D01*
X17540833Y-14168405D01*
X17540833Y-13996976D01*
X17721786Y-14187452D02*
X17702738Y-14196976D01*
X17664643Y-14196976D01*
X17645595Y-14187452D01*
X17636071Y-14168405D01*
X17636071Y-14092214D01*
X17645595Y-14073167D01*
X17664643Y-14063643D01*
X17702738Y-14063643D01*
X17721786Y-14073167D01*
X17731310Y-14092214D01*
X17731310Y-14111262D01*
X17636071Y-14130309D01*
X17807500Y-14187452D02*
X17826548Y-14196976D01*
X17864643Y-14196976D01*
X17883690Y-14187452D01*
X17893214Y-14168405D01*
X17893214Y-14158881D01*
X17883690Y-14139833D01*
X17864643Y-14130309D01*
X17836071Y-14130309D01*
X17817024Y-14120786D01*
X17807500Y-14101738D01*
X17807500Y-14092214D01*
X17817024Y-14073167D01*
X17836071Y-14063643D01*
X17864643Y-14063643D01*
X17883690Y-14073167D01*
X17959881Y-14273167D02*
X17969405Y-14263643D01*
X17988452Y-14235071D01*
X17997976Y-14216024D01*
X18007500Y-14187452D01*
X18017024Y-14139833D01*
X18017024Y-14101738D01*
X18007500Y-14054119D01*
X17997976Y-14025548D01*
X17988452Y-14006500D01*
X17969405Y-13977928D01*
X17959881Y-13968405D01*
D13*
X12977500Y-14350500D02*
X12977500Y-14390500D01*
X12957500Y-14370500D02*
X12997500Y-14370500D01*
D11*
X13293214Y-14260976D02*
X13312262Y-14260976D01*
X13331309Y-14270500D01*
X13340833Y-14280024D01*
X13350357Y-14299071D01*
X13359881Y-14337167D01*
X13359881Y-14384786D01*
X13350357Y-14422881D01*
X13340833Y-14441928D01*
X13331309Y-14451452D01*
X13312262Y-14460976D01*
X13293214Y-14460976D01*
X13274167Y-14451452D01*
X13264643Y-14441928D01*
X13255119Y-14422881D01*
X13245595Y-14384786D01*
X13245595Y-14337167D01*
X13255119Y-14299071D01*
X13264643Y-14280024D01*
X13274167Y-14270500D01*
X13293214Y-14260976D01*
X13445595Y-14441928D02*
X13455119Y-14451452D01*
X13445595Y-14460976D01*
X13436071Y-14451452D01*
X13445595Y-14441928D01*
X13445595Y-14460976D01*
X13626548Y-14327643D02*
X13626548Y-14460976D01*
X13578928Y-14251452D02*
X13531309Y-14394309D01*
X13655119Y-14394309D01*
X13769405Y-14260976D02*
X13788452Y-14260976D01*
X13807500Y-14270500D01*
X13817024Y-14280024D01*
X13826548Y-14299071D01*
X13836071Y-14337167D01*
X13836071Y-14384786D01*
X13826548Y-14422881D01*
X13817024Y-14441928D01*
X13807500Y-14451452D01*
X13788452Y-14460976D01*
X13769405Y-14460976D01*
X13750357Y-14451452D01*
X13740833Y-14441928D01*
X13731309Y-14422881D01*
X13721786Y-14384786D01*
X13721786Y-14337167D01*
X13731309Y-14299071D01*
X13740833Y-14280024D01*
X13750357Y-14270500D01*
X13769405Y-14260976D01*
X13959881Y-14260976D02*
X13978928Y-14260976D01*
X13997976Y-14270500D01*
X14007500Y-14280024D01*
X14017024Y-14299071D01*
X14026548Y-14337167D01*
X14026548Y-14384786D01*
X14017024Y-14422881D01*
X14007500Y-14441928D01*
X13997976Y-14451452D01*
X13978928Y-14460976D01*
X13959881Y-14460976D01*
X13940833Y-14451452D01*
X13931309Y-14441928D01*
X13921786Y-14422881D01*
X13912262Y-14384786D01*
X13912262Y-14337167D01*
X13921786Y-14299071D01*
X13931309Y-14280024D01*
X13940833Y-14270500D01*
X13959881Y-14260976D01*
X14112262Y-14460976D02*
X14112262Y-14327643D01*
X14112262Y-14346690D02*
X14121786Y-14337167D01*
X14140833Y-14327643D01*
X14169405Y-14327643D01*
X14188452Y-14337167D01*
X14197976Y-14356214D01*
X14197976Y-14460976D01*
X14197976Y-14356214D02*
X14207500Y-14337167D01*
X14226548Y-14327643D01*
X14255119Y-14327643D01*
X14274167Y-14337167D01*
X14283690Y-14356214D01*
X14283690Y-14460976D01*
X14378928Y-14460976D02*
X14378928Y-14327643D01*
X14378928Y-14346690D02*
X14388452Y-14337167D01*
X14407500Y-14327643D01*
X14436071Y-14327643D01*
X14455119Y-14337167D01*
X14464643Y-14356214D01*
X14464643Y-14460976D01*
X14464643Y-14356214D02*
X14474167Y-14337167D01*
X14493214Y-14327643D01*
X14521786Y-14327643D01*
X14540833Y-14337167D01*
X14550357Y-14356214D01*
X14550357Y-14460976D01*
X14940833Y-14251452D02*
X14769405Y-14508595D01*
X15197976Y-14260976D02*
X15217024Y-14260976D01*
X15236071Y-14270500D01*
X15245595Y-14280024D01*
X15255119Y-14299071D01*
X15264643Y-14337167D01*
X15264643Y-14384786D01*
X15255119Y-14422881D01*
X15245595Y-14441928D01*
X15236071Y-14451452D01*
X15217024Y-14460976D01*
X15197976Y-14460976D01*
X15178928Y-14451452D01*
X15169405Y-14441928D01*
X15159881Y-14422881D01*
X15150357Y-14384786D01*
X15150357Y-14337167D01*
X15159881Y-14299071D01*
X15169405Y-14280024D01*
X15178928Y-14270500D01*
X15197976Y-14260976D01*
X15350357Y-14441928D02*
X15359881Y-14451452D01*
X15350357Y-14460976D01*
X15340833Y-14451452D01*
X15350357Y-14441928D01*
X15350357Y-14460976D01*
X15483690Y-14260976D02*
X15502738Y-14260976D01*
X15521786Y-14270500D01*
X15531309Y-14280024D01*
X15540833Y-14299071D01*
X15550357Y-14337167D01*
X15550357Y-14384786D01*
X15540833Y-14422881D01*
X15531309Y-14441928D01*
X15521786Y-14451452D01*
X15502738Y-14460976D01*
X15483690Y-14460976D01*
X15464643Y-14451452D01*
X15455119Y-14441928D01*
X15445595Y-14422881D01*
X15436071Y-14384786D01*
X15436071Y-14337167D01*
X15445595Y-14299071D01*
X15455119Y-14280024D01*
X15464643Y-14270500D01*
X15483690Y-14260976D01*
X15740833Y-14460976D02*
X15626548Y-14460976D01*
X15683690Y-14460976D02*
X15683690Y-14260976D01*
X15664643Y-14289548D01*
X15645595Y-14308595D01*
X15626548Y-14318119D01*
X15921786Y-14260976D02*
X15826548Y-14260976D01*
X15817024Y-14356214D01*
X15826548Y-14346690D01*
X15845595Y-14337167D01*
X15893214Y-14337167D01*
X15912262Y-14346690D01*
X15921786Y-14356214D01*
X15931309Y-14375262D01*
X15931309Y-14422881D01*
X15921786Y-14441928D01*
X15912262Y-14451452D01*
X15893214Y-14460976D01*
X15845595Y-14460976D01*
X15826548Y-14451452D01*
X15817024Y-14441928D01*
X15997976Y-14260976D02*
X16131309Y-14260976D01*
X16045595Y-14460976D01*
X16197976Y-14260976D02*
X16197976Y-14299071D01*
X16274167Y-14260976D02*
X16274167Y-14299071D01*
X16569405Y-14537167D02*
X16559881Y-14527643D01*
X16540833Y-14499071D01*
X16531309Y-14480024D01*
X16521786Y-14451452D01*
X16512262Y-14403833D01*
X16512262Y-14365738D01*
X16521786Y-14318119D01*
X16531309Y-14289548D01*
X16540833Y-14270500D01*
X16559881Y-14241928D01*
X16569405Y-14232405D01*
X16626548Y-14260976D02*
X16750357Y-14260976D01*
X16683690Y-14337167D01*
X16712262Y-14337167D01*
X16731309Y-14346690D01*
X16740833Y-14356214D01*
X16750357Y-14375262D01*
X16750357Y-14422881D01*
X16740833Y-14441928D01*
X16731309Y-14451452D01*
X16712262Y-14460976D01*
X16655119Y-14460976D01*
X16636071Y-14451452D01*
X16626548Y-14441928D01*
X16826548Y-14280024D02*
X16836071Y-14270500D01*
X16855119Y-14260976D01*
X16902738Y-14260976D01*
X16921786Y-14270500D01*
X16931310Y-14280024D01*
X16940833Y-14299071D01*
X16940833Y-14318119D01*
X16931310Y-14346690D01*
X16817024Y-14460976D01*
X16940833Y-14460976D01*
X17178929Y-14460976D02*
X17178929Y-14260976D01*
X17264643Y-14460976D02*
X17264643Y-14356214D01*
X17255119Y-14337167D01*
X17236071Y-14327643D01*
X17207500Y-14327643D01*
X17188452Y-14337167D01*
X17178929Y-14346690D01*
X17388452Y-14460976D02*
X17369405Y-14451452D01*
X17359881Y-14441928D01*
X17350357Y-14422881D01*
X17350357Y-14365738D01*
X17359881Y-14346690D01*
X17369405Y-14337167D01*
X17388452Y-14327643D01*
X17417024Y-14327643D01*
X17436071Y-14337167D01*
X17445595Y-14346690D01*
X17455119Y-14365738D01*
X17455119Y-14422881D01*
X17445595Y-14441928D01*
X17436071Y-14451452D01*
X17417024Y-14460976D01*
X17388452Y-14460976D01*
X17569405Y-14460976D02*
X17550357Y-14451452D01*
X17540833Y-14432405D01*
X17540833Y-14260976D01*
X17721786Y-14451452D02*
X17702738Y-14460976D01*
X17664643Y-14460976D01*
X17645595Y-14451452D01*
X17636071Y-14432405D01*
X17636071Y-14356214D01*
X17645595Y-14337167D01*
X17664643Y-14327643D01*
X17702738Y-14327643D01*
X17721786Y-14337167D01*
X17731310Y-14356214D01*
X17731310Y-14375262D01*
X17636071Y-14394309D01*
X17807500Y-14451452D02*
X17826548Y-14460976D01*
X17864643Y-14460976D01*
X17883690Y-14451452D01*
X17893214Y-14432405D01*
X17893214Y-14422881D01*
X17883690Y-14403833D01*
X17864643Y-14394309D01*
X17836071Y-14394309D01*
X17817024Y-14384786D01*
X17807500Y-14365738D01*
X17807500Y-14356214D01*
X17817024Y-14337167D01*
X17836071Y-14327643D01*
X17864643Y-14327643D01*
X17883690Y-14337167D01*
X17959881Y-14537167D02*
X17969405Y-14527643D01*
X17988452Y-14499071D01*
X17997976Y-14480024D01*
X18007500Y-14451452D01*
X18017024Y-14403833D01*
X18017024Y-14365738D01*
X18007500Y-14318119D01*
X17997976Y-14289548D01*
X17988452Y-14270500D01*
X17969405Y-14241928D01*
X17959881Y-14232405D01*
D14*
X12990178Y-14652178D02*
X12990178Y-14616822D01*
X12954822Y-14616822D01*
X12954822Y-14652178D01*
X12990178Y-14652178D01*
D11*
X13293214Y-14524976D02*
X13312262Y-14524976D01*
X13331309Y-14534500D01*
X13340833Y-14544024D01*
X13350357Y-14563071D01*
X13359881Y-14601167D01*
X13359881Y-14648786D01*
X13350357Y-14686881D01*
X13340833Y-14705928D01*
X13331309Y-14715452D01*
X13312262Y-14724976D01*
X13293214Y-14724976D01*
X13274167Y-14715452D01*
X13264643Y-14705928D01*
X13255119Y-14686881D01*
X13245595Y-14648786D01*
X13245595Y-14601167D01*
X13255119Y-14563071D01*
X13264643Y-14544024D01*
X13274167Y-14534500D01*
X13293214Y-14524976D01*
X13445595Y-14705928D02*
X13455119Y-14715452D01*
X13445595Y-14724976D01*
X13436071Y-14715452D01*
X13445595Y-14705928D01*
X13445595Y-14724976D01*
X13636071Y-14524976D02*
X13540833Y-14524976D01*
X13531309Y-14620214D01*
X13540833Y-14610690D01*
X13559881Y-14601167D01*
X13607500Y-14601167D01*
X13626548Y-14610690D01*
X13636071Y-14620214D01*
X13645595Y-14639262D01*
X13645595Y-14686881D01*
X13636071Y-14705928D01*
X13626548Y-14715452D01*
X13607500Y-14724976D01*
X13559881Y-14724976D01*
X13540833Y-14715452D01*
X13531309Y-14705928D01*
X13769405Y-14524976D02*
X13788452Y-14524976D01*
X13807500Y-14534500D01*
X13817024Y-14544024D01*
X13826548Y-14563071D01*
X13836071Y-14601167D01*
X13836071Y-14648786D01*
X13826548Y-14686881D01*
X13817024Y-14705928D01*
X13807500Y-14715452D01*
X13788452Y-14724976D01*
X13769405Y-14724976D01*
X13750357Y-14715452D01*
X13740833Y-14705928D01*
X13731309Y-14686881D01*
X13721786Y-14648786D01*
X13721786Y-14601167D01*
X13731309Y-14563071D01*
X13740833Y-14544024D01*
X13750357Y-14534500D01*
X13769405Y-14524976D01*
X13959881Y-14524976D02*
X13978928Y-14524976D01*
X13997976Y-14534500D01*
X14007500Y-14544024D01*
X14017024Y-14563071D01*
X14026548Y-14601167D01*
X14026548Y-14648786D01*
X14017024Y-14686881D01*
X14007500Y-14705928D01*
X13997976Y-14715452D01*
X13978928Y-14724976D01*
X13959881Y-14724976D01*
X13940833Y-14715452D01*
X13931309Y-14705928D01*
X13921786Y-14686881D01*
X13912262Y-14648786D01*
X13912262Y-14601167D01*
X13921786Y-14563071D01*
X13931309Y-14544024D01*
X13940833Y-14534500D01*
X13959881Y-14524976D01*
X14112262Y-14724976D02*
X14112262Y-14591643D01*
X14112262Y-14610690D02*
X14121786Y-14601167D01*
X14140833Y-14591643D01*
X14169405Y-14591643D01*
X14188452Y-14601167D01*
X14197976Y-14620214D01*
X14197976Y-14724976D01*
X14197976Y-14620214D02*
X14207500Y-14601167D01*
X14226548Y-14591643D01*
X14255119Y-14591643D01*
X14274167Y-14601167D01*
X14283690Y-14620214D01*
X14283690Y-14724976D01*
X14378928Y-14724976D02*
X14378928Y-14591643D01*
X14378928Y-14610690D02*
X14388452Y-14601167D01*
X14407500Y-14591643D01*
X14436071Y-14591643D01*
X14455119Y-14601167D01*
X14464643Y-14620214D01*
X14464643Y-14724976D01*
X14464643Y-14620214D02*
X14474167Y-14601167D01*
X14493214Y-14591643D01*
X14521786Y-14591643D01*
X14540833Y-14601167D01*
X14550357Y-14620214D01*
X14550357Y-14724976D01*
X14940833Y-14515452D02*
X14769405Y-14772595D01*
X15197976Y-14524976D02*
X15217024Y-14524976D01*
X15236071Y-14534500D01*
X15245595Y-14544024D01*
X15255119Y-14563071D01*
X15264643Y-14601167D01*
X15264643Y-14648786D01*
X15255119Y-14686881D01*
X15245595Y-14705928D01*
X15236071Y-14715452D01*
X15217024Y-14724976D01*
X15197976Y-14724976D01*
X15178928Y-14715452D01*
X15169405Y-14705928D01*
X15159881Y-14686881D01*
X15150357Y-14648786D01*
X15150357Y-14601167D01*
X15159881Y-14563071D01*
X15169405Y-14544024D01*
X15178928Y-14534500D01*
X15197976Y-14524976D01*
X15350357Y-14705928D02*
X15359881Y-14715452D01*
X15350357Y-14724976D01*
X15340833Y-14715452D01*
X15350357Y-14705928D01*
X15350357Y-14724976D01*
X15483690Y-14524976D02*
X15502738Y-14524976D01*
X15521786Y-14534500D01*
X15531309Y-14544024D01*
X15540833Y-14563071D01*
X15550357Y-14601167D01*
X15550357Y-14648786D01*
X15540833Y-14686881D01*
X15531309Y-14705928D01*
X15521786Y-14715452D01*
X15502738Y-14724976D01*
X15483690Y-14724976D01*
X15464643Y-14715452D01*
X15455119Y-14705928D01*
X15445595Y-14686881D01*
X15436071Y-14648786D01*
X15436071Y-14601167D01*
X15445595Y-14563071D01*
X15455119Y-14544024D01*
X15464643Y-14534500D01*
X15483690Y-14524976D01*
X15740833Y-14724976D02*
X15626548Y-14724976D01*
X15683690Y-14724976D02*
X15683690Y-14524976D01*
X15664643Y-14553548D01*
X15645595Y-14572595D01*
X15626548Y-14582119D01*
X15836071Y-14724976D02*
X15874167Y-14724976D01*
X15893214Y-14715452D01*
X15902738Y-14705928D01*
X15921786Y-14677357D01*
X15931309Y-14639262D01*
X15931309Y-14563071D01*
X15921786Y-14544024D01*
X15912262Y-14534500D01*
X15893214Y-14524976D01*
X15855119Y-14524976D01*
X15836071Y-14534500D01*
X15826548Y-14544024D01*
X15817024Y-14563071D01*
X15817024Y-14610690D01*
X15826548Y-14629738D01*
X15836071Y-14639262D01*
X15855119Y-14648786D01*
X15893214Y-14648786D01*
X15912262Y-14639262D01*
X15921786Y-14629738D01*
X15931309Y-14610690D01*
X15997976Y-14524976D02*
X16131309Y-14524976D01*
X16045595Y-14724976D01*
X16197976Y-14524976D02*
X16197976Y-14563071D01*
X16274167Y-14524976D02*
X16274167Y-14563071D01*
X16569405Y-14801167D02*
X16559881Y-14791643D01*
X16540833Y-14763071D01*
X16531309Y-14744024D01*
X16521786Y-14715452D01*
X16512262Y-14667833D01*
X16512262Y-14629738D01*
X16521786Y-14582119D01*
X16531309Y-14553548D01*
X16540833Y-14534500D01*
X16559881Y-14505928D01*
X16569405Y-14496405D01*
X16683690Y-14524976D02*
X16702738Y-14524976D01*
X16721786Y-14534500D01*
X16731309Y-14544024D01*
X16740833Y-14563071D01*
X16750357Y-14601167D01*
X16750357Y-14648786D01*
X16740833Y-14686881D01*
X16731309Y-14705928D01*
X16721786Y-14715452D01*
X16702738Y-14724976D01*
X16683690Y-14724976D01*
X16664643Y-14715452D01*
X16655119Y-14705928D01*
X16645595Y-14686881D01*
X16636071Y-14648786D01*
X16636071Y-14601167D01*
X16645595Y-14563071D01*
X16655119Y-14544024D01*
X16664643Y-14534500D01*
X16683690Y-14524976D01*
X16988452Y-14724976D02*
X16988452Y-14524976D01*
X17074167Y-14724976D02*
X17074167Y-14620214D01*
X17064643Y-14601167D01*
X17045595Y-14591643D01*
X17017024Y-14591643D01*
X16997976Y-14601167D01*
X16988452Y-14610690D01*
X17197976Y-14724976D02*
X17178929Y-14715452D01*
X17169405Y-14705928D01*
X17159881Y-14686881D01*
X17159881Y-14629738D01*
X17169405Y-14610690D01*
X17178929Y-14601167D01*
X17197976Y-14591643D01*
X17226548Y-14591643D01*
X17245595Y-14601167D01*
X17255119Y-14610690D01*
X17264643Y-14629738D01*
X17264643Y-14686881D01*
X17255119Y-14705928D01*
X17245595Y-14715452D01*
X17226548Y-14724976D01*
X17197976Y-14724976D01*
X17378929Y-14724976D02*
X17359881Y-14715452D01*
X17350357Y-14696405D01*
X17350357Y-14524976D01*
X17531310Y-14715452D02*
X17512262Y-14724976D01*
X17474167Y-14724976D01*
X17455119Y-14715452D01*
X17445595Y-14696405D01*
X17445595Y-14620214D01*
X17455119Y-14601167D01*
X17474167Y-14591643D01*
X17512262Y-14591643D01*
X17531310Y-14601167D01*
X17540833Y-14620214D01*
X17540833Y-14639262D01*
X17445595Y-14658309D01*
X17617024Y-14715452D02*
X17636071Y-14724976D01*
X17674167Y-14724976D01*
X17693214Y-14715452D01*
X17702738Y-14696405D01*
X17702738Y-14686881D01*
X17693214Y-14667833D01*
X17674167Y-14658309D01*
X17645595Y-14658309D01*
X17626548Y-14648786D01*
X17617024Y-14629738D01*
X17617024Y-14620214D01*
X17626548Y-14601167D01*
X17645595Y-14591643D01*
X17674167Y-14591643D01*
X17693214Y-14601167D01*
X17940833Y-14648786D02*
X18093214Y-14648786D01*
X18017024Y-14724976D02*
X18017024Y-14572595D01*
X18331310Y-14544024D02*
X18340833Y-14534500D01*
X18359881Y-14524976D01*
X18407500Y-14524976D01*
X18426548Y-14534500D01*
X18436071Y-14544024D01*
X18445595Y-14563071D01*
X18445595Y-14582119D01*
X18436071Y-14610690D01*
X18321786Y-14724976D01*
X18445595Y-14724976D01*
X18674167Y-14715452D02*
X18693214Y-14724976D01*
X18731310Y-14724976D01*
X18750357Y-14715452D01*
X18759881Y-14696405D01*
X18759881Y-14686881D01*
X18750357Y-14667833D01*
X18731310Y-14658309D01*
X18702738Y-14658309D01*
X18683690Y-14648786D01*
X18674167Y-14629738D01*
X18674167Y-14620214D01*
X18683690Y-14601167D01*
X18702738Y-14591643D01*
X18731310Y-14591643D01*
X18750357Y-14601167D01*
X18874167Y-14724976D02*
X18855119Y-14715452D01*
X18845595Y-14696405D01*
X18845595Y-14524976D01*
X18978929Y-14724976D02*
X18959881Y-14715452D01*
X18950357Y-14705928D01*
X18940833Y-14686881D01*
X18940833Y-14629738D01*
X18950357Y-14610690D01*
X18959881Y-14601167D01*
X18978929Y-14591643D01*
X19007500Y-14591643D01*
X19026548Y-14601167D01*
X19036071Y-14610690D01*
X19045595Y-14629738D01*
X19045595Y-14686881D01*
X19036071Y-14705928D01*
X19026548Y-14715452D01*
X19007500Y-14724976D01*
X18978929Y-14724976D01*
X19102738Y-14591643D02*
X19178929Y-14591643D01*
X19131310Y-14524976D02*
X19131310Y-14696405D01*
X19140833Y-14715452D01*
X19159881Y-14724976D01*
X19178929Y-14724976D01*
X19236071Y-14715452D02*
X19255119Y-14724976D01*
X19293214Y-14724976D01*
X19312262Y-14715452D01*
X19321786Y-14696405D01*
X19321786Y-14686881D01*
X19312262Y-14667833D01*
X19293214Y-14658309D01*
X19264643Y-14658309D01*
X19245595Y-14648786D01*
X19236071Y-14629738D01*
X19236071Y-14620214D01*
X19245595Y-14601167D01*
X19264643Y-14591643D01*
X19293214Y-14591643D01*
X19312262Y-14601167D01*
X19388452Y-14801167D02*
X19397976Y-14791643D01*
X19417024Y-14763071D01*
X19426548Y-14744024D01*
X19436071Y-14715452D01*
X19445595Y-14667833D01*
X19445595Y-14629738D01*
X19436071Y-14582119D01*
X19426548Y-14553548D01*
X19417024Y-14534500D01*
X19397976Y-14505928D01*
X19388452Y-14496405D01*
D15*
X12970000Y-14926000D02*
X12997500Y-14898500D01*
X12970000Y-14871000D01*
X12942500Y-14898500D01*
X12970000Y-14926000D01*
D11*
X13293214Y-14788976D02*
X13312262Y-14788976D01*
X13331309Y-14798500D01*
X13340833Y-14808024D01*
X13350357Y-14827071D01*
X13359881Y-14865167D01*
X13359881Y-14912786D01*
X13350357Y-14950881D01*
X13340833Y-14969928D01*
X13331309Y-14979452D01*
X13312262Y-14988976D01*
X13293214Y-14988976D01*
X13274167Y-14979452D01*
X13264643Y-14969928D01*
X13255119Y-14950881D01*
X13245595Y-14912786D01*
X13245595Y-14865167D01*
X13255119Y-14827071D01*
X13264643Y-14808024D01*
X13274167Y-14798500D01*
X13293214Y-14788976D01*
X13445595Y-14969928D02*
X13455119Y-14979452D01*
X13445595Y-14988976D01*
X13436071Y-14979452D01*
X13445595Y-14969928D01*
X13445595Y-14988976D01*
X13636071Y-14788976D02*
X13540833Y-14788976D01*
X13531309Y-14884214D01*
X13540833Y-14874690D01*
X13559881Y-14865167D01*
X13607500Y-14865167D01*
X13626548Y-14874690D01*
X13636071Y-14884214D01*
X13645595Y-14903262D01*
X13645595Y-14950881D01*
X13636071Y-14969928D01*
X13626548Y-14979452D01*
X13607500Y-14988976D01*
X13559881Y-14988976D01*
X13540833Y-14979452D01*
X13531309Y-14969928D01*
X13826548Y-14788976D02*
X13731309Y-14788976D01*
X13721786Y-14884214D01*
X13731309Y-14874690D01*
X13750357Y-14865167D01*
X13797976Y-14865167D01*
X13817024Y-14874690D01*
X13826548Y-14884214D01*
X13836071Y-14903262D01*
X13836071Y-14950881D01*
X13826548Y-14969928D01*
X13817024Y-14979452D01*
X13797976Y-14988976D01*
X13750357Y-14988976D01*
X13731309Y-14979452D01*
X13721786Y-14969928D01*
X13959881Y-14788976D02*
X13978928Y-14788976D01*
X13997976Y-14798500D01*
X14007500Y-14808024D01*
X14017024Y-14827071D01*
X14026548Y-14865167D01*
X14026548Y-14912786D01*
X14017024Y-14950881D01*
X14007500Y-14969928D01*
X13997976Y-14979452D01*
X13978928Y-14988976D01*
X13959881Y-14988976D01*
X13940833Y-14979452D01*
X13931309Y-14969928D01*
X13921786Y-14950881D01*
X13912262Y-14912786D01*
X13912262Y-14865167D01*
X13921786Y-14827071D01*
X13931309Y-14808024D01*
X13940833Y-14798500D01*
X13959881Y-14788976D01*
X14112262Y-14988976D02*
X14112262Y-14855643D01*
X14112262Y-14874690D02*
X14121786Y-14865167D01*
X14140833Y-14855643D01*
X14169405Y-14855643D01*
X14188452Y-14865167D01*
X14197976Y-14884214D01*
X14197976Y-14988976D01*
X14197976Y-14884214D02*
X14207500Y-14865167D01*
X14226548Y-14855643D01*
X14255119Y-14855643D01*
X14274167Y-14865167D01*
X14283690Y-14884214D01*
X14283690Y-14988976D01*
X14378928Y-14988976D02*
X14378928Y-14855643D01*
X14378928Y-14874690D02*
X14388452Y-14865167D01*
X14407500Y-14855643D01*
X14436071Y-14855643D01*
X14455119Y-14865167D01*
X14464643Y-14884214D01*
X14464643Y-14988976D01*
X14464643Y-14884214D02*
X14474167Y-14865167D01*
X14493214Y-14855643D01*
X14521786Y-14855643D01*
X14540833Y-14865167D01*
X14550357Y-14884214D01*
X14550357Y-14988976D01*
X14940833Y-14779452D02*
X14769405Y-15036595D01*
X15197976Y-14788976D02*
X15217024Y-14788976D01*
X15236071Y-14798500D01*
X15245595Y-14808024D01*
X15255119Y-14827071D01*
X15264643Y-14865167D01*
X15264643Y-14912786D01*
X15255119Y-14950881D01*
X15245595Y-14969928D01*
X15236071Y-14979452D01*
X15217024Y-14988976D01*
X15197976Y-14988976D01*
X15178928Y-14979452D01*
X15169405Y-14969928D01*
X15159881Y-14950881D01*
X15150357Y-14912786D01*
X15150357Y-14865167D01*
X15159881Y-14827071D01*
X15169405Y-14808024D01*
X15178928Y-14798500D01*
X15197976Y-14788976D01*
X15350357Y-14969928D02*
X15359881Y-14979452D01*
X15350357Y-14988976D01*
X15340833Y-14979452D01*
X15350357Y-14969928D01*
X15350357Y-14988976D01*
X15483690Y-14788976D02*
X15502738Y-14788976D01*
X15521786Y-14798500D01*
X15531309Y-14808024D01*
X15540833Y-14827071D01*
X15550357Y-14865167D01*
X15550357Y-14912786D01*
X15540833Y-14950881D01*
X15531309Y-14969928D01*
X15521786Y-14979452D01*
X15502738Y-14988976D01*
X15483690Y-14988976D01*
X15464643Y-14979452D01*
X15455119Y-14969928D01*
X15445595Y-14950881D01*
X15436071Y-14912786D01*
X15436071Y-14865167D01*
X15445595Y-14827071D01*
X15455119Y-14808024D01*
X15464643Y-14798500D01*
X15483690Y-14788976D01*
X15626548Y-14808024D02*
X15636071Y-14798500D01*
X15655119Y-14788976D01*
X15702738Y-14788976D01*
X15721786Y-14798500D01*
X15731309Y-14808024D01*
X15740833Y-14827071D01*
X15740833Y-14846119D01*
X15731309Y-14874690D01*
X15617024Y-14988976D01*
X15740833Y-14988976D01*
X15931309Y-14988976D02*
X15817024Y-14988976D01*
X15874167Y-14988976D02*
X15874167Y-14788976D01*
X15855119Y-14817548D01*
X15836071Y-14836595D01*
X15817024Y-14846119D01*
X15997976Y-14788976D02*
X16131309Y-14788976D01*
X16045595Y-14988976D01*
X16197976Y-14788976D02*
X16197976Y-14827071D01*
X16274167Y-14788976D02*
X16274167Y-14827071D01*
X16569405Y-15065167D02*
X16559881Y-15055643D01*
X16540833Y-15027071D01*
X16531309Y-15008024D01*
X16521786Y-14979452D01*
X16512262Y-14931833D01*
X16512262Y-14893738D01*
X16521786Y-14846119D01*
X16531309Y-14817548D01*
X16540833Y-14798500D01*
X16559881Y-14769928D01*
X16569405Y-14760405D01*
X16683690Y-14788976D02*
X16702738Y-14788976D01*
X16721786Y-14798500D01*
X16731309Y-14808024D01*
X16740833Y-14827071D01*
X16750357Y-14865167D01*
X16750357Y-14912786D01*
X16740833Y-14950881D01*
X16731309Y-14969928D01*
X16721786Y-14979452D01*
X16702738Y-14988976D01*
X16683690Y-14988976D01*
X16664643Y-14979452D01*
X16655119Y-14969928D01*
X16645595Y-14950881D01*
X16636071Y-14912786D01*
X16636071Y-14865167D01*
X16645595Y-14827071D01*
X16655119Y-14808024D01*
X16664643Y-14798500D01*
X16683690Y-14788976D01*
X16988452Y-14988976D02*
X16988452Y-14788976D01*
X17074167Y-14988976D02*
X17074167Y-14884214D01*
X17064643Y-14865167D01*
X17045595Y-14855643D01*
X17017024Y-14855643D01*
X16997976Y-14865167D01*
X16988452Y-14874690D01*
X17197976Y-14988976D02*
X17178929Y-14979452D01*
X17169405Y-14969928D01*
X17159881Y-14950881D01*
X17159881Y-14893738D01*
X17169405Y-14874690D01*
X17178929Y-14865167D01*
X17197976Y-14855643D01*
X17226548Y-14855643D01*
X17245595Y-14865167D01*
X17255119Y-14874690D01*
X17264643Y-14893738D01*
X17264643Y-14950881D01*
X17255119Y-14969928D01*
X17245595Y-14979452D01*
X17226548Y-14988976D01*
X17197976Y-14988976D01*
X17378929Y-14988976D02*
X17359881Y-14979452D01*
X17350357Y-14960405D01*
X17350357Y-14788976D01*
X17531310Y-14979452D02*
X17512262Y-14988976D01*
X17474167Y-14988976D01*
X17455119Y-14979452D01*
X17445595Y-14960405D01*
X17445595Y-14884214D01*
X17455119Y-14865167D01*
X17474167Y-14855643D01*
X17512262Y-14855643D01*
X17531310Y-14865167D01*
X17540833Y-14884214D01*
X17540833Y-14903262D01*
X17445595Y-14922309D01*
X17617024Y-14979452D02*
X17636071Y-14988976D01*
X17674167Y-14988976D01*
X17693214Y-14979452D01*
X17702738Y-14960405D01*
X17702738Y-14950881D01*
X17693214Y-14931833D01*
X17674167Y-14922309D01*
X17645595Y-14922309D01*
X17626548Y-14912786D01*
X17617024Y-14893738D01*
X17617024Y-14884214D01*
X17626548Y-14865167D01*
X17645595Y-14855643D01*
X17674167Y-14855643D01*
X17693214Y-14865167D01*
X17940833Y-14912786D02*
X18093214Y-14912786D01*
X18017024Y-14988976D02*
X18017024Y-14836595D01*
X18331310Y-14808024D02*
X18340833Y-14798500D01*
X18359881Y-14788976D01*
X18407500Y-14788976D01*
X18426548Y-14798500D01*
X18436071Y-14808024D01*
X18445595Y-14827071D01*
X18445595Y-14846119D01*
X18436071Y-14874690D01*
X18321786Y-14988976D01*
X18445595Y-14988976D01*
X18674167Y-14979452D02*
X18693214Y-14988976D01*
X18731310Y-14988976D01*
X18750357Y-14979452D01*
X18759881Y-14960405D01*
X18759881Y-14950881D01*
X18750357Y-14931833D01*
X18731310Y-14922309D01*
X18702738Y-14922309D01*
X18683690Y-14912786D01*
X18674167Y-14893738D01*
X18674167Y-14884214D01*
X18683690Y-14865167D01*
X18702738Y-14855643D01*
X18731310Y-14855643D01*
X18750357Y-14865167D01*
X18874167Y-14988976D02*
X18855119Y-14979452D01*
X18845595Y-14960405D01*
X18845595Y-14788976D01*
X18978929Y-14988976D02*
X18959881Y-14979452D01*
X18950357Y-14969928D01*
X18940833Y-14950881D01*
X18940833Y-14893738D01*
X18950357Y-14874690D01*
X18959881Y-14865167D01*
X18978929Y-14855643D01*
X19007500Y-14855643D01*
X19026548Y-14865167D01*
X19036071Y-14874690D01*
X19045595Y-14893738D01*
X19045595Y-14950881D01*
X19036071Y-14969928D01*
X19026548Y-14979452D01*
X19007500Y-14988976D01*
X18978929Y-14988976D01*
X19102738Y-14855643D02*
X19178929Y-14855643D01*
X19131310Y-14788976D02*
X19131310Y-14960405D01*
X19140833Y-14979452D01*
X19159881Y-14988976D01*
X19178929Y-14988976D01*
X19236071Y-14979452D02*
X19255119Y-14988976D01*
X19293214Y-14988976D01*
X19312262Y-14979452D01*
X19321786Y-14960405D01*
X19321786Y-14950881D01*
X19312262Y-14931833D01*
X19293214Y-14922309D01*
X19264643Y-14922309D01*
X19245595Y-14912786D01*
X19236071Y-14893738D01*
X19236071Y-14884214D01*
X19245595Y-14865167D01*
X19264643Y-14855643D01*
X19293214Y-14855643D01*
X19312262Y-14865167D01*
X19388452Y-15065167D02*
X19397976Y-15055643D01*
X19417024Y-15027071D01*
X19426548Y-15008024D01*
X19436071Y-14979452D01*
X19445595Y-14931833D01*
X19445595Y-14893738D01*
X19436071Y-14846119D01*
X19426548Y-14817548D01*
X19417024Y-14798500D01*
X19397976Y-14769928D01*
X19388452Y-14760405D01*
D16*
X12917500Y-15122500D02*
X12997500Y-15202500D01*
X12997500Y-15122500D02*
X12917500Y-15202500D01*
X12997500Y-15162500D02*
G75*
G03*
X12997500Y-15162500I-40000J0D01*
G01*
D11*
X13293214Y-15052976D02*
X13312262Y-15052976D01*
X13331309Y-15062500D01*
X13340833Y-15072024D01*
X13350357Y-15091071D01*
X13359881Y-15129167D01*
X13359881Y-15176786D01*
X13350357Y-15214881D01*
X13340833Y-15233928D01*
X13331309Y-15243452D01*
X13312262Y-15252976D01*
X13293214Y-15252976D01*
X13274167Y-15243452D01*
X13264643Y-15233928D01*
X13255119Y-15214881D01*
X13245595Y-15176786D01*
X13245595Y-15129167D01*
X13255119Y-15091071D01*
X13264643Y-15072024D01*
X13274167Y-15062500D01*
X13293214Y-15052976D01*
X13445595Y-15233928D02*
X13455119Y-15243452D01*
X13445595Y-15252976D01*
X13436071Y-15243452D01*
X13445595Y-15233928D01*
X13445595Y-15252976D01*
X13569405Y-15138690D02*
X13550357Y-15129167D01*
X13540833Y-15119643D01*
X13531309Y-15100595D01*
X13531309Y-15091071D01*
X13540833Y-15072024D01*
X13550357Y-15062500D01*
X13569405Y-15052976D01*
X13607500Y-15052976D01*
X13626548Y-15062500D01*
X13636071Y-15072024D01*
X13645595Y-15091071D01*
X13645595Y-15100595D01*
X13636071Y-15119643D01*
X13626548Y-15129167D01*
X13607500Y-15138690D01*
X13569405Y-15138690D01*
X13550357Y-15148214D01*
X13540833Y-15157738D01*
X13531309Y-15176786D01*
X13531309Y-15214881D01*
X13540833Y-15233928D01*
X13550357Y-15243452D01*
X13569405Y-15252976D01*
X13607500Y-15252976D01*
X13626548Y-15243452D01*
X13636071Y-15233928D01*
X13645595Y-15214881D01*
X13645595Y-15176786D01*
X13636071Y-15157738D01*
X13626548Y-15148214D01*
X13607500Y-15138690D01*
X13769405Y-15052976D02*
X13788452Y-15052976D01*
X13807500Y-15062500D01*
X13817024Y-15072024D01*
X13826548Y-15091071D01*
X13836071Y-15129167D01*
X13836071Y-15176786D01*
X13826548Y-15214881D01*
X13817024Y-15233928D01*
X13807500Y-15243452D01*
X13788452Y-15252976D01*
X13769405Y-15252976D01*
X13750357Y-15243452D01*
X13740833Y-15233928D01*
X13731309Y-15214881D01*
X13721786Y-15176786D01*
X13721786Y-15129167D01*
X13731309Y-15091071D01*
X13740833Y-15072024D01*
X13750357Y-15062500D01*
X13769405Y-15052976D01*
X13959881Y-15052976D02*
X13978928Y-15052976D01*
X13997976Y-15062500D01*
X14007500Y-15072024D01*
X14017024Y-15091071D01*
X14026548Y-15129167D01*
X14026548Y-15176786D01*
X14017024Y-15214881D01*
X14007500Y-15233928D01*
X13997976Y-15243452D01*
X13978928Y-15252976D01*
X13959881Y-15252976D01*
X13940833Y-15243452D01*
X13931309Y-15233928D01*
X13921786Y-15214881D01*
X13912262Y-15176786D01*
X13912262Y-15129167D01*
X13921786Y-15091071D01*
X13931309Y-15072024D01*
X13940833Y-15062500D01*
X13959881Y-15052976D01*
X14112262Y-15252976D02*
X14112262Y-15119643D01*
X14112262Y-15138690D02*
X14121786Y-15129167D01*
X14140833Y-15119643D01*
X14169405Y-15119643D01*
X14188452Y-15129167D01*
X14197976Y-15148214D01*
X14197976Y-15252976D01*
X14197976Y-15148214D02*
X14207500Y-15129167D01*
X14226548Y-15119643D01*
X14255119Y-15119643D01*
X14274167Y-15129167D01*
X14283690Y-15148214D01*
X14283690Y-15252976D01*
X14378928Y-15252976D02*
X14378928Y-15119643D01*
X14378928Y-15138690D02*
X14388452Y-15129167D01*
X14407500Y-15119643D01*
X14436071Y-15119643D01*
X14455119Y-15129167D01*
X14464643Y-15148214D01*
X14464643Y-15252976D01*
X14464643Y-15148214D02*
X14474167Y-15129167D01*
X14493214Y-15119643D01*
X14521786Y-15119643D01*
X14540833Y-15129167D01*
X14550357Y-15148214D01*
X14550357Y-15252976D01*
X14940833Y-15043452D02*
X14769405Y-15300595D01*
X15197976Y-15052976D02*
X15217024Y-15052976D01*
X15236071Y-15062500D01*
X15245595Y-15072024D01*
X15255119Y-15091071D01*
X15264643Y-15129167D01*
X15264643Y-15176786D01*
X15255119Y-15214881D01*
X15245595Y-15233928D01*
X15236071Y-15243452D01*
X15217024Y-15252976D01*
X15197976Y-15252976D01*
X15178928Y-15243452D01*
X15169405Y-15233928D01*
X15159881Y-15214881D01*
X15150357Y-15176786D01*
X15150357Y-15129167D01*
X15159881Y-15091071D01*
X15169405Y-15072024D01*
X15178928Y-15062500D01*
X15197976Y-15052976D01*
X15350357Y-15233928D02*
X15359881Y-15243452D01*
X15350357Y-15252976D01*
X15340833Y-15243452D01*
X15350357Y-15233928D01*
X15350357Y-15252976D01*
X15483690Y-15052976D02*
X15502738Y-15052976D01*
X15521786Y-15062500D01*
X15531309Y-15072024D01*
X15540833Y-15091071D01*
X15550357Y-15129167D01*
X15550357Y-15176786D01*
X15540833Y-15214881D01*
X15531309Y-15233928D01*
X15521786Y-15243452D01*
X15502738Y-15252976D01*
X15483690Y-15252976D01*
X15464643Y-15243452D01*
X15455119Y-15233928D01*
X15445595Y-15214881D01*
X15436071Y-15176786D01*
X15436071Y-15129167D01*
X15445595Y-15091071D01*
X15455119Y-15072024D01*
X15464643Y-15062500D01*
X15483690Y-15052976D01*
X15617024Y-15052976D02*
X15740833Y-15052976D01*
X15674167Y-15129167D01*
X15702738Y-15129167D01*
X15721786Y-15138690D01*
X15731309Y-15148214D01*
X15740833Y-15167262D01*
X15740833Y-15214881D01*
X15731309Y-15233928D01*
X15721786Y-15243452D01*
X15702738Y-15252976D01*
X15645595Y-15252976D01*
X15626548Y-15243452D01*
X15617024Y-15233928D01*
X15931309Y-15252976D02*
X15817024Y-15252976D01*
X15874167Y-15252976D02*
X15874167Y-15052976D01*
X15855119Y-15081548D01*
X15836071Y-15100595D01*
X15817024Y-15110119D01*
X16112262Y-15052976D02*
X16017024Y-15052976D01*
X16007500Y-15148214D01*
X16017024Y-15138690D01*
X16036071Y-15129167D01*
X16083690Y-15129167D01*
X16102738Y-15138690D01*
X16112262Y-15148214D01*
X16121786Y-15167262D01*
X16121786Y-15214881D01*
X16112262Y-15233928D01*
X16102738Y-15243452D01*
X16083690Y-15252976D01*
X16036071Y-15252976D01*
X16017024Y-15243452D01*
X16007500Y-15233928D01*
X16197976Y-15052976D02*
X16197976Y-15091071D01*
X16274167Y-15052976D02*
X16274167Y-15091071D01*
X16569405Y-15329167D02*
X16559881Y-15319643D01*
X16540833Y-15291071D01*
X16531309Y-15272024D01*
X16521786Y-15243452D01*
X16512262Y-15195833D01*
X16512262Y-15157738D01*
X16521786Y-15110119D01*
X16531309Y-15081548D01*
X16540833Y-15062500D01*
X16559881Y-15033928D01*
X16569405Y-15024405D01*
X16626548Y-15052976D02*
X16750357Y-15052976D01*
X16683690Y-15129167D01*
X16712262Y-15129167D01*
X16731309Y-15138690D01*
X16740833Y-15148214D01*
X16750357Y-15167262D01*
X16750357Y-15214881D01*
X16740833Y-15233928D01*
X16731309Y-15243452D01*
X16712262Y-15252976D01*
X16655119Y-15252976D01*
X16636071Y-15243452D01*
X16626548Y-15233928D01*
X16921786Y-15119643D02*
X16921786Y-15252976D01*
X16874167Y-15043452D02*
X16826548Y-15186309D01*
X16950357Y-15186309D01*
X17178929Y-15252976D02*
X17178929Y-15052976D01*
X17264643Y-15252976D02*
X17264643Y-15148214D01*
X17255119Y-15129167D01*
X17236071Y-15119643D01*
X17207500Y-15119643D01*
X17188452Y-15129167D01*
X17178929Y-15138690D01*
X17388452Y-15252976D02*
X17369405Y-15243452D01*
X17359881Y-15233928D01*
X17350357Y-15214881D01*
X17350357Y-15157738D01*
X17359881Y-15138690D01*
X17369405Y-15129167D01*
X17388452Y-15119643D01*
X17417024Y-15119643D01*
X17436071Y-15129167D01*
X17445595Y-15138690D01*
X17455119Y-15157738D01*
X17455119Y-15214881D01*
X17445595Y-15233928D01*
X17436071Y-15243452D01*
X17417024Y-15252976D01*
X17388452Y-15252976D01*
X17569405Y-15252976D02*
X17550357Y-15243452D01*
X17540833Y-15224405D01*
X17540833Y-15052976D01*
X17721786Y-15243452D02*
X17702738Y-15252976D01*
X17664643Y-15252976D01*
X17645595Y-15243452D01*
X17636071Y-15224405D01*
X17636071Y-15148214D01*
X17645595Y-15129167D01*
X17664643Y-15119643D01*
X17702738Y-15119643D01*
X17721786Y-15129167D01*
X17731310Y-15148214D01*
X17731310Y-15167262D01*
X17636071Y-15186309D01*
X17807500Y-15243452D02*
X17826548Y-15252976D01*
X17864643Y-15252976D01*
X17883690Y-15243452D01*
X17893214Y-15224405D01*
X17893214Y-15214881D01*
X17883690Y-15195833D01*
X17864643Y-15186309D01*
X17836071Y-15186309D01*
X17817024Y-15176786D01*
X17807500Y-15157738D01*
X17807500Y-15148214D01*
X17817024Y-15129167D01*
X17836071Y-15119643D01*
X17864643Y-15119643D01*
X17883690Y-15129167D01*
X17959881Y-15329167D02*
X17969405Y-15319643D01*
X17988452Y-15291071D01*
X17997976Y-15272024D01*
X18007500Y-15243452D01*
X18017024Y-15195833D01*
X18017024Y-15157738D01*
X18007500Y-15110119D01*
X17997976Y-15081548D01*
X17988452Y-15062500D01*
X17969405Y-15033928D01*
X17959881Y-15024405D01*
D17*
X12897500Y-15376500D02*
X12997500Y-15476500D01*
X12997500Y-15376500D02*
X12897500Y-15476500D01*
X12947500Y-15376500D02*
X12947500Y-15476500D01*
X12897500Y-15426500D02*
X12997500Y-15426500D01*
D11*
X13359881Y-15516976D02*
X13245595Y-15516976D01*
X13302738Y-15516976D02*
X13302738Y-15316976D01*
X13283690Y-15345548D01*
X13264643Y-15364595D01*
X13245595Y-15374119D01*
X13445595Y-15497928D02*
X13455119Y-15507452D01*
X13445595Y-15516976D01*
X13436071Y-15507452D01*
X13445595Y-15497928D01*
X13445595Y-15516976D01*
X13578928Y-15316976D02*
X13597976Y-15316976D01*
X13617024Y-15326500D01*
X13626548Y-15336024D01*
X13636071Y-15355071D01*
X13645595Y-15393167D01*
X13645595Y-15440786D01*
X13636071Y-15478881D01*
X13626548Y-15497928D01*
X13617024Y-15507452D01*
X13597976Y-15516976D01*
X13578928Y-15516976D01*
X13559881Y-15507452D01*
X13550357Y-15497928D01*
X13540833Y-15478881D01*
X13531309Y-15440786D01*
X13531309Y-15393167D01*
X13540833Y-15355071D01*
X13550357Y-15336024D01*
X13559881Y-15326500D01*
X13578928Y-15316976D01*
X13769405Y-15316976D02*
X13788452Y-15316976D01*
X13807500Y-15326500D01*
X13817024Y-15336024D01*
X13826548Y-15355071D01*
X13836071Y-15393167D01*
X13836071Y-15440786D01*
X13826548Y-15478881D01*
X13817024Y-15497928D01*
X13807500Y-15507452D01*
X13788452Y-15516976D01*
X13769405Y-15516976D01*
X13750357Y-15507452D01*
X13740833Y-15497928D01*
X13731309Y-15478881D01*
X13721786Y-15440786D01*
X13721786Y-15393167D01*
X13731309Y-15355071D01*
X13740833Y-15336024D01*
X13750357Y-15326500D01*
X13769405Y-15316976D01*
X13959881Y-15316976D02*
X13978928Y-15316976D01*
X13997976Y-15326500D01*
X14007500Y-15336024D01*
X14017024Y-15355071D01*
X14026548Y-15393167D01*
X14026548Y-15440786D01*
X14017024Y-15478881D01*
X14007500Y-15497928D01*
X13997976Y-15507452D01*
X13978928Y-15516976D01*
X13959881Y-15516976D01*
X13940833Y-15507452D01*
X13931309Y-15497928D01*
X13921786Y-15478881D01*
X13912262Y-15440786D01*
X13912262Y-15393167D01*
X13921786Y-15355071D01*
X13931309Y-15336024D01*
X13940833Y-15326500D01*
X13959881Y-15316976D01*
X14112262Y-15516976D02*
X14112262Y-15383643D01*
X14112262Y-15402690D02*
X14121786Y-15393167D01*
X14140833Y-15383643D01*
X14169405Y-15383643D01*
X14188452Y-15393167D01*
X14197976Y-15412214D01*
X14197976Y-15516976D01*
X14197976Y-15412214D02*
X14207500Y-15393167D01*
X14226548Y-15383643D01*
X14255119Y-15383643D01*
X14274167Y-15393167D01*
X14283690Y-15412214D01*
X14283690Y-15516976D01*
X14378928Y-15516976D02*
X14378928Y-15383643D01*
X14378928Y-15402690D02*
X14388452Y-15393167D01*
X14407500Y-15383643D01*
X14436071Y-15383643D01*
X14455119Y-15393167D01*
X14464643Y-15412214D01*
X14464643Y-15516976D01*
X14464643Y-15412214D02*
X14474167Y-15393167D01*
X14493214Y-15383643D01*
X14521786Y-15383643D01*
X14540833Y-15393167D01*
X14550357Y-15412214D01*
X14550357Y-15516976D01*
X14940833Y-15307452D02*
X14769405Y-15564595D01*
X15197976Y-15316976D02*
X15217024Y-15316976D01*
X15236071Y-15326500D01*
X15245595Y-15336024D01*
X15255119Y-15355071D01*
X15264643Y-15393167D01*
X15264643Y-15440786D01*
X15255119Y-15478881D01*
X15245595Y-15497928D01*
X15236071Y-15507452D01*
X15217024Y-15516976D01*
X15197976Y-15516976D01*
X15178928Y-15507452D01*
X15169405Y-15497928D01*
X15159881Y-15478881D01*
X15150357Y-15440786D01*
X15150357Y-15393167D01*
X15159881Y-15355071D01*
X15169405Y-15336024D01*
X15178928Y-15326500D01*
X15197976Y-15316976D01*
X15350357Y-15497928D02*
X15359881Y-15507452D01*
X15350357Y-15516976D01*
X15340833Y-15507452D01*
X15350357Y-15497928D01*
X15350357Y-15516976D01*
X15483690Y-15316976D02*
X15502738Y-15316976D01*
X15521786Y-15326500D01*
X15531309Y-15336024D01*
X15540833Y-15355071D01*
X15550357Y-15393167D01*
X15550357Y-15440786D01*
X15540833Y-15478881D01*
X15531309Y-15497928D01*
X15521786Y-15507452D01*
X15502738Y-15516976D01*
X15483690Y-15516976D01*
X15464643Y-15507452D01*
X15455119Y-15497928D01*
X15445595Y-15478881D01*
X15436071Y-15440786D01*
X15436071Y-15393167D01*
X15445595Y-15355071D01*
X15455119Y-15336024D01*
X15464643Y-15326500D01*
X15483690Y-15316976D01*
X15617024Y-15316976D02*
X15740833Y-15316976D01*
X15674167Y-15393167D01*
X15702738Y-15393167D01*
X15721786Y-15402690D01*
X15731309Y-15412214D01*
X15740833Y-15431262D01*
X15740833Y-15478881D01*
X15731309Y-15497928D01*
X15721786Y-15507452D01*
X15702738Y-15516976D01*
X15645595Y-15516976D01*
X15626548Y-15507452D01*
X15617024Y-15497928D01*
X15836071Y-15516976D02*
X15874167Y-15516976D01*
X15893214Y-15507452D01*
X15902738Y-15497928D01*
X15921786Y-15469357D01*
X15931309Y-15431262D01*
X15931309Y-15355071D01*
X15921786Y-15336024D01*
X15912262Y-15326500D01*
X15893214Y-15316976D01*
X15855119Y-15316976D01*
X15836071Y-15326500D01*
X15826548Y-15336024D01*
X15817024Y-15355071D01*
X15817024Y-15402690D01*
X15826548Y-15421738D01*
X15836071Y-15431262D01*
X15855119Y-15440786D01*
X15893214Y-15440786D01*
X15912262Y-15431262D01*
X15921786Y-15421738D01*
X15931309Y-15402690D01*
X16102738Y-15383643D02*
X16102738Y-15516976D01*
X16055119Y-15307452D02*
X16007500Y-15450309D01*
X16131309Y-15450309D01*
X16197976Y-15316976D02*
X16197976Y-15355071D01*
X16274167Y-15316976D02*
X16274167Y-15355071D01*
X16569405Y-15593167D02*
X16559881Y-15583643D01*
X16540833Y-15555071D01*
X16531309Y-15536024D01*
X16521786Y-15507452D01*
X16512262Y-15459833D01*
X16512262Y-15421738D01*
X16521786Y-15374119D01*
X16531309Y-15345548D01*
X16540833Y-15326500D01*
X16559881Y-15297928D01*
X16569405Y-15288405D01*
X16626548Y-15316976D02*
X16759881Y-15316976D01*
X16674167Y-15516976D01*
X16988452Y-15516976D02*
X16988452Y-15316976D01*
X17074167Y-15516976D02*
X17074167Y-15412214D01*
X17064643Y-15393167D01*
X17045595Y-15383643D01*
X17017024Y-15383643D01*
X16997976Y-15393167D01*
X16988452Y-15402690D01*
X17197976Y-15516976D02*
X17178929Y-15507452D01*
X17169405Y-15497928D01*
X17159881Y-15478881D01*
X17159881Y-15421738D01*
X17169405Y-15402690D01*
X17178929Y-15393167D01*
X17197976Y-15383643D01*
X17226548Y-15383643D01*
X17245595Y-15393167D01*
X17255119Y-15402690D01*
X17264643Y-15421738D01*
X17264643Y-15478881D01*
X17255119Y-15497928D01*
X17245595Y-15507452D01*
X17226548Y-15516976D01*
X17197976Y-15516976D01*
X17378929Y-15516976D02*
X17359881Y-15507452D01*
X17350357Y-15488405D01*
X17350357Y-15316976D01*
X17531310Y-15507452D02*
X17512262Y-15516976D01*
X17474167Y-15516976D01*
X17455119Y-15507452D01*
X17445595Y-15488405D01*
X17445595Y-15412214D01*
X17455119Y-15393167D01*
X17474167Y-15383643D01*
X17512262Y-15383643D01*
X17531310Y-15393167D01*
X17540833Y-15412214D01*
X17540833Y-15431262D01*
X17445595Y-15450309D01*
X17617024Y-15507452D02*
X17636071Y-15516976D01*
X17674167Y-15516976D01*
X17693214Y-15507452D01*
X17702738Y-15488405D01*
X17702738Y-15478881D01*
X17693214Y-15459833D01*
X17674167Y-15450309D01*
X17645595Y-15450309D01*
X17626548Y-15440786D01*
X17617024Y-15421738D01*
X17617024Y-15412214D01*
X17626548Y-15393167D01*
X17645595Y-15383643D01*
X17674167Y-15383643D01*
X17693214Y-15393167D01*
X17769405Y-15593167D02*
X17778929Y-15583643D01*
X17797976Y-15555071D01*
X17807500Y-15536024D01*
X17817024Y-15507452D01*
X17826548Y-15459833D01*
X17826548Y-15421738D01*
X17817024Y-15374119D01*
X17807500Y-15345548D01*
X17797976Y-15326500D01*
X17778929Y-15297928D01*
X17769405Y-15288405D01*
X12797500Y-15590500D02*
X12997500Y-15790500D01*
X12997500Y-15590500D02*
X12797500Y-15790500D01*
X12968211Y-15761211D02*
X12968211Y-15619789D01*
X12826789Y-15619789D01*
X12826789Y-15761211D01*
X12968211Y-15761211D01*
X13245595Y-15600024D02*
X13255119Y-15590500D01*
X13274167Y-15580976D01*
X13321786Y-15580976D01*
X13340833Y-15590500D01*
X13350357Y-15600024D01*
X13359881Y-15619071D01*
X13359881Y-15638119D01*
X13350357Y-15666690D01*
X13236071Y-15780976D01*
X13359881Y-15780976D01*
X13445595Y-15761928D02*
X13455119Y-15771452D01*
X13445595Y-15780976D01*
X13436071Y-15771452D01*
X13445595Y-15761928D01*
X13445595Y-15780976D01*
X13531309Y-15600024D02*
X13540833Y-15590500D01*
X13559881Y-15580976D01*
X13607500Y-15580976D01*
X13626548Y-15590500D01*
X13636071Y-15600024D01*
X13645595Y-15619071D01*
X13645595Y-15638119D01*
X13636071Y-15666690D01*
X13521786Y-15780976D01*
X13645595Y-15780976D01*
X13769405Y-15580976D02*
X13788452Y-15580976D01*
X13807500Y-15590500D01*
X13817024Y-15600024D01*
X13826548Y-15619071D01*
X13836071Y-15657167D01*
X13836071Y-15704786D01*
X13826548Y-15742881D01*
X13817024Y-15761928D01*
X13807500Y-15771452D01*
X13788452Y-15780976D01*
X13769405Y-15780976D01*
X13750357Y-15771452D01*
X13740833Y-15761928D01*
X13731309Y-15742881D01*
X13721786Y-15704786D01*
X13721786Y-15657167D01*
X13731309Y-15619071D01*
X13740833Y-15600024D01*
X13750357Y-15590500D01*
X13769405Y-15580976D01*
X13959881Y-15580976D02*
X13978928Y-15580976D01*
X13997976Y-15590500D01*
X14007500Y-15600024D01*
X14017024Y-15619071D01*
X14026548Y-15657167D01*
X14026548Y-15704786D01*
X14017024Y-15742881D01*
X14007500Y-15761928D01*
X13997976Y-15771452D01*
X13978928Y-15780976D01*
X13959881Y-15780976D01*
X13940833Y-15771452D01*
X13931309Y-15761928D01*
X13921786Y-15742881D01*
X13912262Y-15704786D01*
X13912262Y-15657167D01*
X13921786Y-15619071D01*
X13931309Y-15600024D01*
X13940833Y-15590500D01*
X13959881Y-15580976D01*
X14112262Y-15780976D02*
X14112262Y-15647643D01*
X14112262Y-15666690D02*
X14121786Y-15657167D01*
X14140833Y-15647643D01*
X14169405Y-15647643D01*
X14188452Y-15657167D01*
X14197976Y-15676214D01*
X14197976Y-15780976D01*
X14197976Y-15676214D02*
X14207500Y-15657167D01*
X14226548Y-15647643D01*
X14255119Y-15647643D01*
X14274167Y-15657167D01*
X14283690Y-15676214D01*
X14283690Y-15780976D01*
X14378928Y-15780976D02*
X14378928Y-15647643D01*
X14378928Y-15666690D02*
X14388452Y-15657167D01*
X14407500Y-15647643D01*
X14436071Y-15647643D01*
X14455119Y-15657167D01*
X14464643Y-15676214D01*
X14464643Y-15780976D01*
X14464643Y-15676214D02*
X14474167Y-15657167D01*
X14493214Y-15647643D01*
X14521786Y-15647643D01*
X14540833Y-15657167D01*
X14550357Y-15676214D01*
X14550357Y-15780976D01*
X14940833Y-15571452D02*
X14769405Y-15828595D01*
X15197976Y-15580976D02*
X15217024Y-15580976D01*
X15236071Y-15590500D01*
X15245595Y-15600024D01*
X15255119Y-15619071D01*
X15264643Y-15657167D01*
X15264643Y-15704786D01*
X15255119Y-15742881D01*
X15245595Y-15761928D01*
X15236071Y-15771452D01*
X15217024Y-15780976D01*
X15197976Y-15780976D01*
X15178928Y-15771452D01*
X15169405Y-15761928D01*
X15159881Y-15742881D01*
X15150357Y-15704786D01*
X15150357Y-15657167D01*
X15159881Y-15619071D01*
X15169405Y-15600024D01*
X15178928Y-15590500D01*
X15197976Y-15580976D01*
X15350357Y-15761928D02*
X15359881Y-15771452D01*
X15350357Y-15780976D01*
X15340833Y-15771452D01*
X15350357Y-15761928D01*
X15350357Y-15780976D01*
X15483690Y-15580976D02*
X15502738Y-15580976D01*
X15521786Y-15590500D01*
X15531309Y-15600024D01*
X15540833Y-15619071D01*
X15550357Y-15657167D01*
X15550357Y-15704786D01*
X15540833Y-15742881D01*
X15531309Y-15761928D01*
X15521786Y-15771452D01*
X15502738Y-15780976D01*
X15483690Y-15780976D01*
X15464643Y-15771452D01*
X15455119Y-15761928D01*
X15445595Y-15742881D01*
X15436071Y-15704786D01*
X15436071Y-15657167D01*
X15445595Y-15619071D01*
X15455119Y-15600024D01*
X15464643Y-15590500D01*
X15483690Y-15580976D01*
X15664643Y-15666690D02*
X15645595Y-15657167D01*
X15636071Y-15647643D01*
X15626548Y-15628595D01*
X15626548Y-15619071D01*
X15636071Y-15600024D01*
X15645595Y-15590500D01*
X15664643Y-15580976D01*
X15702738Y-15580976D01*
X15721786Y-15590500D01*
X15731309Y-15600024D01*
X15740833Y-15619071D01*
X15740833Y-15628595D01*
X15731309Y-15647643D01*
X15721786Y-15657167D01*
X15702738Y-15666690D01*
X15664643Y-15666690D01*
X15645595Y-15676214D01*
X15636071Y-15685738D01*
X15626548Y-15704786D01*
X15626548Y-15742881D01*
X15636071Y-15761928D01*
X15645595Y-15771452D01*
X15664643Y-15780976D01*
X15702738Y-15780976D01*
X15721786Y-15771452D01*
X15731309Y-15761928D01*
X15740833Y-15742881D01*
X15740833Y-15704786D01*
X15731309Y-15685738D01*
X15721786Y-15676214D01*
X15702738Y-15666690D01*
X15912262Y-15580976D02*
X15874167Y-15580976D01*
X15855119Y-15590500D01*
X15845595Y-15600024D01*
X15826548Y-15628595D01*
X15817024Y-15666690D01*
X15817024Y-15742881D01*
X15826548Y-15761928D01*
X15836071Y-15771452D01*
X15855119Y-15780976D01*
X15893214Y-15780976D01*
X15912262Y-15771452D01*
X15921786Y-15761928D01*
X15931309Y-15742881D01*
X15931309Y-15695262D01*
X15921786Y-15676214D01*
X15912262Y-15666690D01*
X15893214Y-15657167D01*
X15855119Y-15657167D01*
X15836071Y-15666690D01*
X15826548Y-15676214D01*
X15817024Y-15695262D01*
X16102738Y-15580976D02*
X16064643Y-15580976D01*
X16045595Y-15590500D01*
X16036071Y-15600024D01*
X16017024Y-15628595D01*
X16007500Y-15666690D01*
X16007500Y-15742881D01*
X16017024Y-15761928D01*
X16026548Y-15771452D01*
X16045595Y-15780976D01*
X16083690Y-15780976D01*
X16102738Y-15771452D01*
X16112262Y-15761928D01*
X16121786Y-15742881D01*
X16121786Y-15695262D01*
X16112262Y-15676214D01*
X16102738Y-15666690D01*
X16083690Y-15657167D01*
X16045595Y-15657167D01*
X16026548Y-15666690D01*
X16017024Y-15676214D01*
X16007500Y-15695262D01*
X16197976Y-15580976D02*
X16197976Y-15619071D01*
X16274167Y-15580976D02*
X16274167Y-15619071D01*
X16569405Y-15857167D02*
X16559881Y-15847643D01*
X16540833Y-15819071D01*
X16531309Y-15800024D01*
X16521786Y-15771452D01*
X16512262Y-15723833D01*
X16512262Y-15685738D01*
X16521786Y-15638119D01*
X16531309Y-15609548D01*
X16540833Y-15590500D01*
X16559881Y-15561928D01*
X16569405Y-15552405D01*
X16731309Y-15647643D02*
X16731309Y-15780976D01*
X16683690Y-15571452D02*
X16636071Y-15714309D01*
X16759881Y-15714309D01*
X16988452Y-15780976D02*
X16988452Y-15580976D01*
X17074167Y-15780976D02*
X17074167Y-15676214D01*
X17064643Y-15657167D01*
X17045595Y-15647643D01*
X17017024Y-15647643D01*
X16997976Y-15657167D01*
X16988452Y-15666690D01*
X17197976Y-15780976D02*
X17178929Y-15771452D01*
X17169405Y-15761928D01*
X17159881Y-15742881D01*
X17159881Y-15685738D01*
X17169405Y-15666690D01*
X17178929Y-15657167D01*
X17197976Y-15647643D01*
X17226548Y-15647643D01*
X17245595Y-15657167D01*
X17255119Y-15666690D01*
X17264643Y-15685738D01*
X17264643Y-15742881D01*
X17255119Y-15761928D01*
X17245595Y-15771452D01*
X17226548Y-15780976D01*
X17197976Y-15780976D01*
X17378929Y-15780976D02*
X17359881Y-15771452D01*
X17350357Y-15752405D01*
X17350357Y-15580976D01*
X17531310Y-15771452D02*
X17512262Y-15780976D01*
X17474167Y-15780976D01*
X17455119Y-15771452D01*
X17445595Y-15752405D01*
X17445595Y-15676214D01*
X17455119Y-15657167D01*
X17474167Y-15647643D01*
X17512262Y-15647643D01*
X17531310Y-15657167D01*
X17540833Y-15676214D01*
X17540833Y-15695262D01*
X17445595Y-15714309D01*
X17617024Y-15771452D02*
X17636071Y-15780976D01*
X17674167Y-15780976D01*
X17693214Y-15771452D01*
X17702738Y-15752405D01*
X17702738Y-15742881D01*
X17693214Y-15723833D01*
X17674167Y-15714309D01*
X17645595Y-15714309D01*
X17626548Y-15704786D01*
X17617024Y-15685738D01*
X17617024Y-15676214D01*
X17626548Y-15657167D01*
X17645595Y-15647643D01*
X17674167Y-15647643D01*
X17693214Y-15657167D01*
X17769405Y-15857167D02*
X17778929Y-15847643D01*
X17797976Y-15819071D01*
X17807500Y-15800024D01*
X17817024Y-15771452D01*
X17826548Y-15723833D01*
X17826548Y-15685738D01*
X17817024Y-15638119D01*
X17807500Y-15609548D01*
X17797976Y-15590500D01*
X17778929Y-15561928D01*
X17769405Y-15552405D01*
M02*
