%TF.GenerationSoftware,KiCad,Pcbnew,(6.0.6)*%
%TF.CreationDate,2022-07-17T20:24:10+03:00*%
%TF.ProjectId,EnkooderR,456e6b6f-6f64-4657-9252-2e6b69636164,rev?*%
%TF.SameCoordinates,Original*%
%TF.FileFunction,Copper,L2,Bot*%
%TF.FilePolarity,Positive*%
%FSLAX46Y46*%
G04 Gerber Fmt 4.6, Leading zero omitted, Abs format (unit mm)*
G04 Created by KiCad (PCBNEW (6.0.6)) date 2022-07-17 20:24:10*
%MOMM*%
%LPD*%
G01*
G04 APERTURE LIST*
%TA.AperFunction,ComponentPad*%
%ADD10O,1.000000X1.000000*%
%TD*%
%TA.AperFunction,ComponentPad*%
%ADD11R,1.000000X1.000000*%
%TD*%
%TA.AperFunction,ViaPad*%
%ADD12C,0.800000*%
%TD*%
G04 APERTURE END LIST*
D10*
X159220000Y-81670000D03*
X157950000Y-81670000D03*
X156680000Y-81670000D03*
D11*
X155410000Y-81670000D03*
D12*
X159660000Y-92580000D03*
X143000000Y-91500000D03*
X143000000Y-89000000D03*
X143000000Y-86500000D03*
X143000000Y-84000000D03*
X145540000Y-84000000D03*
X143000000Y-81500000D03*
X145540000Y-81500000D03*
X148420000Y-81000000D03*
X143000000Y-94000000D03*
X159000000Y-88670000D03*
%TA.AperFunction,Conductor*%
G36*
X160141621Y-80320502D02*
G01*
X160188114Y-80374158D01*
X160199500Y-80426500D01*
X160199500Y-81303532D01*
X160179498Y-81371653D01*
X160125842Y-81418146D01*
X160055568Y-81428250D01*
X159990988Y-81398756D01*
X159954510Y-81344972D01*
X159946485Y-81321927D01*
X159851316Y-81169625D01*
X159767075Y-81084794D01*
X159729733Y-81047190D01*
X159729729Y-81047187D01*
X159724770Y-81042193D01*
X159713761Y-81035206D01*
X159654173Y-80997391D01*
X159573136Y-80945963D01*
X159517902Y-80926295D01*
X159410586Y-80888081D01*
X159410581Y-80888080D01*
X159403951Y-80885719D01*
X159396965Y-80884886D01*
X159396961Y-80884885D01*
X159267933Y-80869500D01*
X159225624Y-80864455D01*
X159218621Y-80865191D01*
X159218620Y-80865191D01*
X159054025Y-80882490D01*
X159054021Y-80882491D01*
X159047017Y-80883227D01*
X159040346Y-80885498D01*
X158883677Y-80938832D01*
X158883674Y-80938833D01*
X158877007Y-80941103D01*
X158871009Y-80944793D01*
X158871007Y-80944794D01*
X158849496Y-80958028D01*
X158724045Y-81035206D01*
X158719014Y-81040132D01*
X158719011Y-81040135D01*
X158673407Y-81084794D01*
X158610742Y-81118164D01*
X158539983Y-81112358D01*
X158495845Y-81083555D01*
X158459733Y-81047191D01*
X158459732Y-81047190D01*
X158454770Y-81042193D01*
X158443761Y-81035206D01*
X158384173Y-80997391D01*
X158303136Y-80945963D01*
X158247902Y-80926295D01*
X158140586Y-80888081D01*
X158140581Y-80888080D01*
X158133951Y-80885719D01*
X158126965Y-80884886D01*
X158126961Y-80884885D01*
X157997933Y-80869500D01*
X157955624Y-80864455D01*
X157948621Y-80865191D01*
X157948620Y-80865191D01*
X157784025Y-80882490D01*
X157784021Y-80882491D01*
X157777017Y-80883227D01*
X157770346Y-80885498D01*
X157613677Y-80938832D01*
X157613674Y-80938833D01*
X157607007Y-80941103D01*
X157601009Y-80944793D01*
X157601007Y-80944794D01*
X157545840Y-80978733D01*
X157477339Y-80997391D01*
X157409625Y-80976052D01*
X157390416Y-80960203D01*
X157388256Y-80958028D01*
X157246649Y-80840880D01*
X157236478Y-80834020D01*
X157095935Y-80758028D01*
X157082144Y-80755088D01*
X157080606Y-80757160D01*
X157080000Y-80760559D01*
X157080000Y-82570219D01*
X157083973Y-82583750D01*
X157087443Y-82584249D01*
X157089158Y-82583708D01*
X157212919Y-82521193D01*
X157223276Y-82514620D01*
X157368100Y-82401470D01*
X157376982Y-82393012D01*
X157382834Y-82386233D01*
X157442488Y-82347737D01*
X157513484Y-82347603D01*
X157547207Y-82363134D01*
X157580891Y-82385177D01*
X157580895Y-82385179D01*
X157586789Y-82389036D01*
X157755116Y-82451636D01*
X157762097Y-82452567D01*
X157762099Y-82452568D01*
X157926149Y-82474457D01*
X157926153Y-82474457D01*
X157933130Y-82475388D01*
X157940142Y-82474750D01*
X157940146Y-82474750D01*
X158104960Y-82459751D01*
X158104961Y-82459751D01*
X158111981Y-82459112D01*
X158282782Y-82403615D01*
X158350690Y-82363134D01*
X158430992Y-82315265D01*
X158430994Y-82315264D01*
X158437044Y-82311657D01*
X158464374Y-82285631D01*
X158497354Y-82254225D01*
X158560479Y-82221733D01*
X158631150Y-82228527D01*
X158674882Y-82257944D01*
X158706514Y-82290699D01*
X158856789Y-82389036D01*
X159025116Y-82451636D01*
X159032097Y-82452567D01*
X159032099Y-82452568D01*
X159196149Y-82474457D01*
X159196153Y-82474457D01*
X159203130Y-82475388D01*
X159210142Y-82474750D01*
X159210146Y-82474750D01*
X159374960Y-82459751D01*
X159374961Y-82459751D01*
X159381981Y-82459112D01*
X159552782Y-82403615D01*
X159620690Y-82363134D01*
X159700992Y-82315265D01*
X159700994Y-82315264D01*
X159707044Y-82311657D01*
X159837099Y-82187807D01*
X159854570Y-82161512D01*
X159932582Y-82044093D01*
X159936483Y-82038222D01*
X159938984Y-82031637D01*
X159938987Y-82031632D01*
X159955712Y-81987602D01*
X159998600Y-81931024D01*
X160065269Y-81906614D01*
X160134551Y-81922123D01*
X160184450Y-81972627D01*
X160199500Y-82032345D01*
X160199500Y-92953500D01*
X160179498Y-93021621D01*
X160125842Y-93068114D01*
X160073500Y-93079500D01*
X156426500Y-93079500D01*
X156358379Y-93059498D01*
X156311886Y-93005842D01*
X156300500Y-92953500D01*
X156300500Y-85052374D01*
X156301065Y-85040817D01*
X156304246Y-85029832D01*
X156300970Y-84992006D01*
X156300500Y-84981134D01*
X156300500Y-84972052D01*
X156299276Y-84965479D01*
X156297616Y-84953280D01*
X156295591Y-84929895D01*
X156295591Y-84929894D01*
X156294587Y-84918304D01*
X156289480Y-84907855D01*
X156288568Y-84904567D01*
X156287339Y-84901383D01*
X156285209Y-84889947D01*
X156266779Y-84860048D01*
X156260840Y-84849266D01*
X156250533Y-84828181D01*
X156245425Y-84817731D01*
X156236899Y-84809822D01*
X156234866Y-84807084D01*
X156232572Y-84804554D01*
X156226468Y-84794652D01*
X156217212Y-84787613D01*
X156217207Y-84787608D01*
X156198513Y-84773393D01*
X156189092Y-84765474D01*
X156171882Y-84749510D01*
X156171883Y-84749510D01*
X156163354Y-84741599D01*
X156152553Y-84737290D01*
X156149676Y-84735471D01*
X156146619Y-84733934D01*
X156137359Y-84726892D01*
X156103632Y-84717126D01*
X156091992Y-84713129D01*
X156059378Y-84700117D01*
X156053085Y-84699500D01*
X156050003Y-84699500D01*
X156046933Y-84699350D01*
X156046939Y-84699234D01*
X156040817Y-84698935D01*
X156029832Y-84695754D01*
X155992006Y-84699030D01*
X155981134Y-84699500D01*
X144052374Y-84699500D01*
X144040817Y-84698935D01*
X144029832Y-84695754D01*
X143992006Y-84699030D01*
X143981134Y-84699500D01*
X143972052Y-84699500D01*
X143966351Y-84700562D01*
X143966349Y-84700562D01*
X143965479Y-84700724D01*
X143953280Y-84702384D01*
X143929895Y-84704409D01*
X143929894Y-84704409D01*
X143918304Y-84705413D01*
X143907855Y-84710520D01*
X143904567Y-84711432D01*
X143901383Y-84712661D01*
X143889947Y-84714791D01*
X143870316Y-84726892D01*
X143860048Y-84733221D01*
X143849265Y-84739160D01*
X143817731Y-84754575D01*
X143809822Y-84763101D01*
X143807084Y-84765134D01*
X143804554Y-84767428D01*
X143794652Y-84773532D01*
X143787613Y-84782788D01*
X143787608Y-84782793D01*
X143773393Y-84801487D01*
X143765474Y-84810908D01*
X143741599Y-84836646D01*
X143737290Y-84847447D01*
X143735471Y-84850324D01*
X143733934Y-84853381D01*
X143726892Y-84862641D01*
X143723656Y-84873817D01*
X143717126Y-84896367D01*
X143713129Y-84908008D01*
X143700117Y-84940622D01*
X143699500Y-84946915D01*
X143699500Y-84949997D01*
X143699350Y-84953067D01*
X143699234Y-84953061D01*
X143698935Y-84959183D01*
X143695754Y-84970168D01*
X143696758Y-84981759D01*
X143699030Y-85007994D01*
X143699500Y-85018866D01*
X143699500Y-94573500D01*
X143679498Y-94641621D01*
X143625842Y-94688114D01*
X143573500Y-94699500D01*
X142426500Y-94699500D01*
X142358379Y-94679498D01*
X142311886Y-94625842D01*
X142300500Y-94573500D01*
X142300500Y-82214646D01*
X154609500Y-82214646D01*
X154612618Y-82240846D01*
X154616456Y-82249486D01*
X154616456Y-82249487D01*
X154632511Y-82285631D01*
X154658061Y-82343153D01*
X154737287Y-82422241D01*
X154747924Y-82426944D01*
X154747926Y-82426945D01*
X154798223Y-82449181D01*
X154839673Y-82467506D01*
X154865354Y-82470500D01*
X155954646Y-82470500D01*
X155958350Y-82470059D01*
X155958353Y-82470059D01*
X155962387Y-82469579D01*
X155980846Y-82467382D01*
X155987040Y-82464631D01*
X156056609Y-82465840D01*
X156096579Y-82487886D01*
X156096770Y-82487611D01*
X156099423Y-82489455D01*
X156100676Y-82490146D01*
X156101827Y-82491126D01*
X156111905Y-82498130D01*
X156269363Y-82586130D01*
X156276868Y-82586345D01*
X156280000Y-82579976D01*
X156280000Y-80768773D01*
X156276027Y-80755242D01*
X156273015Y-80754809D01*
X156270516Y-80755616D01*
X156135247Y-80826333D01*
X156124985Y-80833048D01*
X156100441Y-80852782D01*
X156034819Y-80879879D01*
X155988650Y-80876173D01*
X155980327Y-80872494D01*
X155954646Y-80869500D01*
X154865354Y-80869500D01*
X154861650Y-80869941D01*
X154861647Y-80869941D01*
X154854254Y-80870821D01*
X154839154Y-80872618D01*
X154830514Y-80876456D01*
X154830513Y-80876456D01*
X154747482Y-80913337D01*
X154736847Y-80918061D01*
X154728628Y-80926294D01*
X154728627Y-80926295D01*
X154705221Y-80949742D01*
X154657759Y-80997287D01*
X154653056Y-81007924D01*
X154653055Y-81007926D01*
X154640995Y-81035206D01*
X154612494Y-81099673D01*
X154609500Y-81125354D01*
X154609500Y-82214646D01*
X142300500Y-82214646D01*
X142300500Y-80426500D01*
X142320502Y-80358379D01*
X142374158Y-80311886D01*
X142426500Y-80300500D01*
X160073500Y-80300500D01*
X160141621Y-80320502D01*
G37*
%TD.AperFunction*%
M02*
