%FSLAX45Y45*%
G04 Gerber Fmt 4.5, Leading zero omitted, Abs format (unit mm)*
G04 Created by KiCad (PCBNEW (6.0.6)) date 2022-07-17 20:24:15*
%MOMM*%
%LPD*%
G01*
G04 APERTURE LIST*
%TA.AperFunction,Profile*%
%ADD10C,0.050000*%
%TD*%
%ADD11C,0.200000*%
G04 APERTURE END LIST*
D10*
X16050000Y-9338000D02*
X15600000Y-9338000D01*
X14400000Y-8500000D02*
X15600000Y-8500000D01*
X14200000Y-9500000D02*
X14200000Y-8000000D01*
X14400000Y-9500000D02*
X14400000Y-8500000D01*
X15600000Y-8500000D02*
X15600000Y-9338000D01*
X14400000Y-9500000D02*
X14200000Y-9500000D01*
X16050000Y-8000000D02*
X16050000Y-9338000D01*
X14200000Y-8000000D02*
X16050000Y-8000000D01*
D11*
X14455119Y-9812976D02*
X14455119Y-9612976D01*
X14502738Y-9612976D01*
X14531309Y-9622500D01*
X14550357Y-9641548D01*
X14559881Y-9660595D01*
X14569405Y-9698690D01*
X14569405Y-9727262D01*
X14559881Y-9765357D01*
X14550357Y-9784405D01*
X14531309Y-9803452D01*
X14502738Y-9812976D01*
X14455119Y-9812976D01*
X14655119Y-9812976D02*
X14655119Y-9679643D01*
X14655119Y-9717738D02*
X14664643Y-9698690D01*
X14674167Y-9689167D01*
X14693214Y-9679643D01*
X14712262Y-9679643D01*
X14778928Y-9812976D02*
X14778928Y-9679643D01*
X14778928Y-9612976D02*
X14769405Y-9622500D01*
X14778928Y-9632024D01*
X14788452Y-9622500D01*
X14778928Y-9612976D01*
X14778928Y-9632024D01*
X14902738Y-9812976D02*
X14883690Y-9803452D01*
X14874167Y-9784405D01*
X14874167Y-9612976D01*
X15007500Y-9812976D02*
X14988452Y-9803452D01*
X14978928Y-9784405D01*
X14978928Y-9612976D01*
X15236071Y-9812976D02*
X15236071Y-9612976D01*
X15302738Y-9755833D01*
X15369405Y-9612976D01*
X15369405Y-9812976D01*
X15550357Y-9812976D02*
X15550357Y-9708214D01*
X15540833Y-9689167D01*
X15521786Y-9679643D01*
X15483690Y-9679643D01*
X15464643Y-9689167D01*
X15550357Y-9803452D02*
X15531309Y-9812976D01*
X15483690Y-9812976D01*
X15464643Y-9803452D01*
X15455119Y-9784405D01*
X15455119Y-9765357D01*
X15464643Y-9746310D01*
X15483690Y-9736786D01*
X15531309Y-9736786D01*
X15550357Y-9727262D01*
X15645595Y-9679643D02*
X15645595Y-9879643D01*
X15645595Y-9689167D02*
X15664643Y-9679643D01*
X15702738Y-9679643D01*
X15721786Y-9689167D01*
X15731309Y-9698690D01*
X15740833Y-9717738D01*
X15740833Y-9774881D01*
X15731309Y-9793929D01*
X15721786Y-9803452D01*
X15702738Y-9812976D01*
X15664643Y-9812976D01*
X15645595Y-9803452D01*
X15826548Y-9793929D02*
X15836071Y-9803452D01*
X15826548Y-9812976D01*
X15817024Y-9803452D01*
X15826548Y-9793929D01*
X15826548Y-9812976D01*
X15826548Y-9689167D02*
X15836071Y-9698690D01*
X15826548Y-9708214D01*
X15817024Y-9698690D01*
X15826548Y-9689167D01*
X15826548Y-9708214D01*
M02*
