%FSLAX45Y45*%
G04 Gerber Fmt 4.5, Leading zero omitted, Abs format (unit mm)*
G04 Created by KiCad (PCBNEW (6.0.6)) date 2022-07-17 20:24:15*
%MOMM*%
%LPD*%
G01*
G04 APERTURE LIST*
%TA.AperFunction,Profile*%
%ADD10C,0.050000*%
%TD*%
%ADD11C,0.200000*%
%ADD12C,0.040000*%
%ADD13C,0.065000*%
G04 APERTURE END LIST*
D10*
X16050000Y-9338000D02*
X15600000Y-9338000D01*
X14400000Y-8500000D02*
X15600000Y-8500000D01*
X14200000Y-9500000D02*
X14200000Y-8000000D01*
X14400000Y-9500000D02*
X14400000Y-8500000D01*
X15600000Y-8500000D02*
X15600000Y-9338000D01*
X14400000Y-9500000D02*
X14200000Y-9500000D01*
X16050000Y-8000000D02*
X16050000Y-9338000D01*
X14200000Y-8000000D02*
X16050000Y-8000000D01*
D11*
D12*
X14280000Y-8130000D02*
X14320000Y-8170000D01*
X14320000Y-8130000D02*
X14280000Y-8170000D01*
X14280000Y-8380000D02*
X14320000Y-8420000D01*
X14320000Y-8380000D02*
X14280000Y-8420000D01*
X14280000Y-8630000D02*
X14320000Y-8670000D01*
X14320000Y-8630000D02*
X14280000Y-8670000D01*
X14280000Y-8880000D02*
X14320000Y-8920000D01*
X14320000Y-8880000D02*
X14280000Y-8920000D01*
X14280000Y-9130000D02*
X14320000Y-9170000D01*
X14320000Y-9130000D02*
X14280000Y-9170000D01*
X14280000Y-9380000D02*
X14320000Y-9420000D01*
X14320000Y-9380000D02*
X14280000Y-9420000D01*
X14534000Y-8130000D02*
X14574000Y-8170000D01*
X14574000Y-8130000D02*
X14534000Y-8170000D01*
X14534000Y-8380000D02*
X14574000Y-8420000D01*
X14574000Y-8380000D02*
X14534000Y-8420000D01*
X14822000Y-8080000D02*
X14862000Y-8120000D01*
X14862000Y-8080000D02*
X14822000Y-8120000D01*
X15880000Y-8847000D02*
X15920000Y-8887000D01*
X15920000Y-8847000D02*
X15880000Y-8887000D01*
X15946000Y-9238000D02*
X15986000Y-9278000D01*
X15986000Y-9238000D02*
X15946000Y-9278000D01*
D13*
X15573500Y-8167000D02*
G75*
G03*
X15573500Y-8167000I-32500J0D01*
G01*
X15700500Y-8167000D02*
G75*
G03*
X15700500Y-8167000I-32500J0D01*
G01*
X15827500Y-8167000D02*
G75*
G03*
X15827500Y-8167000I-32500J0D01*
G01*
X15954500Y-8167000D02*
G75*
G03*
X15954500Y-8167000I-32500J0D01*
G01*
D11*
X14455119Y-9812976D02*
X14455119Y-9612976D01*
X14502738Y-9612976D01*
X14531309Y-9622500D01*
X14550357Y-9641548D01*
X14559881Y-9660595D01*
X14569405Y-9698690D01*
X14569405Y-9727262D01*
X14559881Y-9765357D01*
X14550357Y-9784405D01*
X14531309Y-9803452D01*
X14502738Y-9812976D01*
X14455119Y-9812976D01*
X14655119Y-9812976D02*
X14655119Y-9679643D01*
X14655119Y-9717738D02*
X14664643Y-9698690D01*
X14674167Y-9689167D01*
X14693214Y-9679643D01*
X14712262Y-9679643D01*
X14778928Y-9812976D02*
X14778928Y-9679643D01*
X14778928Y-9612976D02*
X14769405Y-9622500D01*
X14778928Y-9632024D01*
X14788452Y-9622500D01*
X14778928Y-9612976D01*
X14778928Y-9632024D01*
X14902738Y-9812976D02*
X14883690Y-9803452D01*
X14874167Y-9784405D01*
X14874167Y-9612976D01*
X15007500Y-9812976D02*
X14988452Y-9803452D01*
X14978928Y-9784405D01*
X14978928Y-9612976D01*
X15236071Y-9812976D02*
X15236071Y-9612976D01*
X15302738Y-9755833D01*
X15369405Y-9612976D01*
X15369405Y-9812976D01*
X15550357Y-9812976D02*
X15550357Y-9708214D01*
X15540833Y-9689167D01*
X15521786Y-9679643D01*
X15483690Y-9679643D01*
X15464643Y-9689167D01*
X15550357Y-9803452D02*
X15531309Y-9812976D01*
X15483690Y-9812976D01*
X15464643Y-9803452D01*
X15455119Y-9784405D01*
X15455119Y-9765357D01*
X15464643Y-9746310D01*
X15483690Y-9736786D01*
X15531309Y-9736786D01*
X15550357Y-9727262D01*
X15645595Y-9679643D02*
X15645595Y-9879643D01*
X15645595Y-9689167D02*
X15664643Y-9679643D01*
X15702738Y-9679643D01*
X15721786Y-9689167D01*
X15731309Y-9698690D01*
X15740833Y-9717738D01*
X15740833Y-9774881D01*
X15731309Y-9793929D01*
X15721786Y-9803452D01*
X15702738Y-9812976D01*
X15664643Y-9812976D01*
X15645595Y-9803452D01*
X15826548Y-9793929D02*
X15836071Y-9803452D01*
X15826548Y-9812976D01*
X15817024Y-9803452D01*
X15826548Y-9793929D01*
X15826548Y-9812976D01*
X15826548Y-9689167D02*
X15836071Y-9698690D01*
X15826548Y-9708214D01*
X15817024Y-9698690D01*
X15826548Y-9689167D01*
X15826548Y-9708214D01*
D12*
X14157500Y-10122500D02*
X14197500Y-10162500D01*
X14197500Y-10122500D02*
X14157500Y-10162500D01*
D11*
X14493214Y-10032976D02*
X14512262Y-10032976D01*
X14531309Y-10042500D01*
X14540833Y-10052024D01*
X14550357Y-10071071D01*
X14559881Y-10109167D01*
X14559881Y-10156786D01*
X14550357Y-10194881D01*
X14540833Y-10213929D01*
X14531309Y-10223452D01*
X14512262Y-10232976D01*
X14493214Y-10232976D01*
X14474167Y-10223452D01*
X14464643Y-10213929D01*
X14455119Y-10194881D01*
X14445595Y-10156786D01*
X14445595Y-10109167D01*
X14455119Y-10071071D01*
X14464643Y-10052024D01*
X14474167Y-10042500D01*
X14493214Y-10032976D01*
X14645595Y-10213929D02*
X14655119Y-10223452D01*
X14645595Y-10232976D01*
X14636071Y-10223452D01*
X14645595Y-10213929D01*
X14645595Y-10232976D01*
X14826548Y-10099643D02*
X14826548Y-10232976D01*
X14778928Y-10023452D02*
X14731309Y-10166310D01*
X14855119Y-10166310D01*
X14969405Y-10032976D02*
X14988452Y-10032976D01*
X15007500Y-10042500D01*
X15017024Y-10052024D01*
X15026548Y-10071071D01*
X15036071Y-10109167D01*
X15036071Y-10156786D01*
X15026548Y-10194881D01*
X15017024Y-10213929D01*
X15007500Y-10223452D01*
X14988452Y-10232976D01*
X14969405Y-10232976D01*
X14950357Y-10223452D01*
X14940833Y-10213929D01*
X14931309Y-10194881D01*
X14921786Y-10156786D01*
X14921786Y-10109167D01*
X14931309Y-10071071D01*
X14940833Y-10052024D01*
X14950357Y-10042500D01*
X14969405Y-10032976D01*
X15159881Y-10032976D02*
X15178928Y-10032976D01*
X15197976Y-10042500D01*
X15207500Y-10052024D01*
X15217024Y-10071071D01*
X15226548Y-10109167D01*
X15226548Y-10156786D01*
X15217024Y-10194881D01*
X15207500Y-10213929D01*
X15197976Y-10223452D01*
X15178928Y-10232976D01*
X15159881Y-10232976D01*
X15140833Y-10223452D01*
X15131309Y-10213929D01*
X15121786Y-10194881D01*
X15112262Y-10156786D01*
X15112262Y-10109167D01*
X15121786Y-10071071D01*
X15131309Y-10052024D01*
X15140833Y-10042500D01*
X15159881Y-10032976D01*
X15312262Y-10232976D02*
X15312262Y-10099643D01*
X15312262Y-10118690D02*
X15321786Y-10109167D01*
X15340833Y-10099643D01*
X15369405Y-10099643D01*
X15388452Y-10109167D01*
X15397976Y-10128214D01*
X15397976Y-10232976D01*
X15397976Y-10128214D02*
X15407500Y-10109167D01*
X15426548Y-10099643D01*
X15455119Y-10099643D01*
X15474167Y-10109167D01*
X15483690Y-10128214D01*
X15483690Y-10232976D01*
X15578928Y-10232976D02*
X15578928Y-10099643D01*
X15578928Y-10118690D02*
X15588452Y-10109167D01*
X15607500Y-10099643D01*
X15636071Y-10099643D01*
X15655119Y-10109167D01*
X15664643Y-10128214D01*
X15664643Y-10232976D01*
X15664643Y-10128214D02*
X15674167Y-10109167D01*
X15693214Y-10099643D01*
X15721786Y-10099643D01*
X15740833Y-10109167D01*
X15750357Y-10128214D01*
X15750357Y-10232976D01*
X16140833Y-10023452D02*
X15969405Y-10280595D01*
X16397976Y-10032976D02*
X16417024Y-10032976D01*
X16436071Y-10042500D01*
X16445595Y-10052024D01*
X16455119Y-10071071D01*
X16464643Y-10109167D01*
X16464643Y-10156786D01*
X16455119Y-10194881D01*
X16445595Y-10213929D01*
X16436071Y-10223452D01*
X16417024Y-10232976D01*
X16397976Y-10232976D01*
X16378928Y-10223452D01*
X16369405Y-10213929D01*
X16359881Y-10194881D01*
X16350357Y-10156786D01*
X16350357Y-10109167D01*
X16359881Y-10071071D01*
X16369405Y-10052024D01*
X16378928Y-10042500D01*
X16397976Y-10032976D01*
X16550357Y-10213929D02*
X16559881Y-10223452D01*
X16550357Y-10232976D01*
X16540833Y-10223452D01*
X16550357Y-10213929D01*
X16550357Y-10232976D01*
X16683690Y-10032976D02*
X16702738Y-10032976D01*
X16721786Y-10042500D01*
X16731309Y-10052024D01*
X16740833Y-10071071D01*
X16750357Y-10109167D01*
X16750357Y-10156786D01*
X16740833Y-10194881D01*
X16731309Y-10213929D01*
X16721786Y-10223452D01*
X16702738Y-10232976D01*
X16683690Y-10232976D01*
X16664643Y-10223452D01*
X16655119Y-10213929D01*
X16645595Y-10194881D01*
X16636071Y-10156786D01*
X16636071Y-10109167D01*
X16645595Y-10071071D01*
X16655119Y-10052024D01*
X16664643Y-10042500D01*
X16683690Y-10032976D01*
X16940833Y-10232976D02*
X16826548Y-10232976D01*
X16883690Y-10232976D02*
X16883690Y-10032976D01*
X16864643Y-10061548D01*
X16845595Y-10080595D01*
X16826548Y-10090119D01*
X17121786Y-10032976D02*
X17026548Y-10032976D01*
X17017024Y-10128214D01*
X17026548Y-10118690D01*
X17045595Y-10109167D01*
X17093214Y-10109167D01*
X17112262Y-10118690D01*
X17121786Y-10128214D01*
X17131310Y-10147262D01*
X17131310Y-10194881D01*
X17121786Y-10213929D01*
X17112262Y-10223452D01*
X17093214Y-10232976D01*
X17045595Y-10232976D01*
X17026548Y-10223452D01*
X17017024Y-10213929D01*
X17197976Y-10032976D02*
X17331310Y-10032976D01*
X17245595Y-10232976D01*
X17397976Y-10032976D02*
X17397976Y-10071071D01*
X17474167Y-10032976D02*
X17474167Y-10071071D01*
X17769405Y-10309167D02*
X17759881Y-10299643D01*
X17740833Y-10271071D01*
X17731310Y-10252024D01*
X17721786Y-10223452D01*
X17712262Y-10175833D01*
X17712262Y-10137738D01*
X17721786Y-10090119D01*
X17731310Y-10061548D01*
X17740833Y-10042500D01*
X17759881Y-10013929D01*
X17769405Y-10004405D01*
X17950357Y-10232976D02*
X17836071Y-10232976D01*
X17893214Y-10232976D02*
X17893214Y-10032976D01*
X17874167Y-10061548D01*
X17855119Y-10080595D01*
X17836071Y-10090119D01*
X18140833Y-10232976D02*
X18026548Y-10232976D01*
X18083690Y-10232976D02*
X18083690Y-10032976D01*
X18064643Y-10061548D01*
X18045595Y-10080595D01*
X18026548Y-10090119D01*
X18378929Y-10232976D02*
X18378929Y-10032976D01*
X18464643Y-10232976D02*
X18464643Y-10128214D01*
X18455119Y-10109167D01*
X18436071Y-10099643D01*
X18407500Y-10099643D01*
X18388452Y-10109167D01*
X18378929Y-10118690D01*
X18588452Y-10232976D02*
X18569405Y-10223452D01*
X18559881Y-10213929D01*
X18550357Y-10194881D01*
X18550357Y-10137738D01*
X18559881Y-10118690D01*
X18569405Y-10109167D01*
X18588452Y-10099643D01*
X18617024Y-10099643D01*
X18636071Y-10109167D01*
X18645595Y-10118690D01*
X18655119Y-10137738D01*
X18655119Y-10194881D01*
X18645595Y-10213929D01*
X18636071Y-10223452D01*
X18617024Y-10232976D01*
X18588452Y-10232976D01*
X18769405Y-10232976D02*
X18750357Y-10223452D01*
X18740833Y-10204405D01*
X18740833Y-10032976D01*
X18921786Y-10223452D02*
X18902738Y-10232976D01*
X18864643Y-10232976D01*
X18845595Y-10223452D01*
X18836071Y-10204405D01*
X18836071Y-10128214D01*
X18845595Y-10109167D01*
X18864643Y-10099643D01*
X18902738Y-10099643D01*
X18921786Y-10109167D01*
X18931310Y-10128214D01*
X18931310Y-10147262D01*
X18836071Y-10166310D01*
X19007500Y-10223452D02*
X19026548Y-10232976D01*
X19064643Y-10232976D01*
X19083690Y-10223452D01*
X19093214Y-10204405D01*
X19093214Y-10194881D01*
X19083690Y-10175833D01*
X19064643Y-10166310D01*
X19036071Y-10166310D01*
X19017024Y-10156786D01*
X19007500Y-10137738D01*
X19007500Y-10128214D01*
X19017024Y-10109167D01*
X19036071Y-10099643D01*
X19064643Y-10099643D01*
X19083690Y-10109167D01*
X19159881Y-10309167D02*
X19169405Y-10299643D01*
X19188452Y-10271071D01*
X19197976Y-10252024D01*
X19207500Y-10223452D01*
X19217024Y-10175833D01*
X19217024Y-10137738D01*
X19207500Y-10090119D01*
X19197976Y-10061548D01*
X19188452Y-10042500D01*
X19169405Y-10013929D01*
X19159881Y-10004405D01*
D13*
X14197500Y-10406500D02*
G75*
G03*
X14197500Y-10406500I-32500J0D01*
G01*
D11*
X14493214Y-10296976D02*
X14512262Y-10296976D01*
X14531309Y-10306500D01*
X14540833Y-10316024D01*
X14550357Y-10335071D01*
X14559881Y-10373167D01*
X14559881Y-10420786D01*
X14550357Y-10458881D01*
X14540833Y-10477929D01*
X14531309Y-10487452D01*
X14512262Y-10496976D01*
X14493214Y-10496976D01*
X14474167Y-10487452D01*
X14464643Y-10477929D01*
X14455119Y-10458881D01*
X14445595Y-10420786D01*
X14445595Y-10373167D01*
X14455119Y-10335071D01*
X14464643Y-10316024D01*
X14474167Y-10306500D01*
X14493214Y-10296976D01*
X14645595Y-10477929D02*
X14655119Y-10487452D01*
X14645595Y-10496976D01*
X14636071Y-10487452D01*
X14645595Y-10477929D01*
X14645595Y-10496976D01*
X14826548Y-10296976D02*
X14788452Y-10296976D01*
X14769405Y-10306500D01*
X14759881Y-10316024D01*
X14740833Y-10344595D01*
X14731309Y-10382690D01*
X14731309Y-10458881D01*
X14740833Y-10477929D01*
X14750357Y-10487452D01*
X14769405Y-10496976D01*
X14807500Y-10496976D01*
X14826548Y-10487452D01*
X14836071Y-10477929D01*
X14845595Y-10458881D01*
X14845595Y-10411262D01*
X14836071Y-10392214D01*
X14826548Y-10382690D01*
X14807500Y-10373167D01*
X14769405Y-10373167D01*
X14750357Y-10382690D01*
X14740833Y-10392214D01*
X14731309Y-10411262D01*
X15026548Y-10296976D02*
X14931309Y-10296976D01*
X14921786Y-10392214D01*
X14931309Y-10382690D01*
X14950357Y-10373167D01*
X14997976Y-10373167D01*
X15017024Y-10382690D01*
X15026548Y-10392214D01*
X15036071Y-10411262D01*
X15036071Y-10458881D01*
X15026548Y-10477929D01*
X15017024Y-10487452D01*
X14997976Y-10496976D01*
X14950357Y-10496976D01*
X14931309Y-10487452D01*
X14921786Y-10477929D01*
X15159881Y-10296976D02*
X15178928Y-10296976D01*
X15197976Y-10306500D01*
X15207500Y-10316024D01*
X15217024Y-10335071D01*
X15226548Y-10373167D01*
X15226548Y-10420786D01*
X15217024Y-10458881D01*
X15207500Y-10477929D01*
X15197976Y-10487452D01*
X15178928Y-10496976D01*
X15159881Y-10496976D01*
X15140833Y-10487452D01*
X15131309Y-10477929D01*
X15121786Y-10458881D01*
X15112262Y-10420786D01*
X15112262Y-10373167D01*
X15121786Y-10335071D01*
X15131309Y-10316024D01*
X15140833Y-10306500D01*
X15159881Y-10296976D01*
X15312262Y-10496976D02*
X15312262Y-10363643D01*
X15312262Y-10382690D02*
X15321786Y-10373167D01*
X15340833Y-10363643D01*
X15369405Y-10363643D01*
X15388452Y-10373167D01*
X15397976Y-10392214D01*
X15397976Y-10496976D01*
X15397976Y-10392214D02*
X15407500Y-10373167D01*
X15426548Y-10363643D01*
X15455119Y-10363643D01*
X15474167Y-10373167D01*
X15483690Y-10392214D01*
X15483690Y-10496976D01*
X15578928Y-10496976D02*
X15578928Y-10363643D01*
X15578928Y-10382690D02*
X15588452Y-10373167D01*
X15607500Y-10363643D01*
X15636071Y-10363643D01*
X15655119Y-10373167D01*
X15664643Y-10392214D01*
X15664643Y-10496976D01*
X15664643Y-10392214D02*
X15674167Y-10373167D01*
X15693214Y-10363643D01*
X15721786Y-10363643D01*
X15740833Y-10373167D01*
X15750357Y-10392214D01*
X15750357Y-10496976D01*
X16140833Y-10287452D02*
X15969405Y-10544595D01*
X16397976Y-10296976D02*
X16417024Y-10296976D01*
X16436071Y-10306500D01*
X16445595Y-10316024D01*
X16455119Y-10335071D01*
X16464643Y-10373167D01*
X16464643Y-10420786D01*
X16455119Y-10458881D01*
X16445595Y-10477929D01*
X16436071Y-10487452D01*
X16417024Y-10496976D01*
X16397976Y-10496976D01*
X16378928Y-10487452D01*
X16369405Y-10477929D01*
X16359881Y-10458881D01*
X16350357Y-10420786D01*
X16350357Y-10373167D01*
X16359881Y-10335071D01*
X16369405Y-10316024D01*
X16378928Y-10306500D01*
X16397976Y-10296976D01*
X16550357Y-10477929D02*
X16559881Y-10487452D01*
X16550357Y-10496976D01*
X16540833Y-10487452D01*
X16550357Y-10477929D01*
X16550357Y-10496976D01*
X16683690Y-10296976D02*
X16702738Y-10296976D01*
X16721786Y-10306500D01*
X16731309Y-10316024D01*
X16740833Y-10335071D01*
X16750357Y-10373167D01*
X16750357Y-10420786D01*
X16740833Y-10458881D01*
X16731309Y-10477929D01*
X16721786Y-10487452D01*
X16702738Y-10496976D01*
X16683690Y-10496976D01*
X16664643Y-10487452D01*
X16655119Y-10477929D01*
X16645595Y-10458881D01*
X16636071Y-10420786D01*
X16636071Y-10373167D01*
X16645595Y-10335071D01*
X16655119Y-10316024D01*
X16664643Y-10306500D01*
X16683690Y-10296976D01*
X16826548Y-10316024D02*
X16836071Y-10306500D01*
X16855119Y-10296976D01*
X16902738Y-10296976D01*
X16921786Y-10306500D01*
X16931310Y-10316024D01*
X16940833Y-10335071D01*
X16940833Y-10354119D01*
X16931310Y-10382690D01*
X16817024Y-10496976D01*
X16940833Y-10496976D01*
X17121786Y-10296976D02*
X17026548Y-10296976D01*
X17017024Y-10392214D01*
X17026548Y-10382690D01*
X17045595Y-10373167D01*
X17093214Y-10373167D01*
X17112262Y-10382690D01*
X17121786Y-10392214D01*
X17131310Y-10411262D01*
X17131310Y-10458881D01*
X17121786Y-10477929D01*
X17112262Y-10487452D01*
X17093214Y-10496976D01*
X17045595Y-10496976D01*
X17026548Y-10487452D01*
X17017024Y-10477929D01*
X17302738Y-10296976D02*
X17264643Y-10296976D01*
X17245595Y-10306500D01*
X17236071Y-10316024D01*
X17217024Y-10344595D01*
X17207500Y-10382690D01*
X17207500Y-10458881D01*
X17217024Y-10477929D01*
X17226548Y-10487452D01*
X17245595Y-10496976D01*
X17283690Y-10496976D01*
X17302738Y-10487452D01*
X17312262Y-10477929D01*
X17321786Y-10458881D01*
X17321786Y-10411262D01*
X17312262Y-10392214D01*
X17302738Y-10382690D01*
X17283690Y-10373167D01*
X17245595Y-10373167D01*
X17226548Y-10382690D01*
X17217024Y-10392214D01*
X17207500Y-10411262D01*
X17397976Y-10296976D02*
X17397976Y-10335071D01*
X17474167Y-10296976D02*
X17474167Y-10335071D01*
X17769405Y-10573167D02*
X17759881Y-10563643D01*
X17740833Y-10535071D01*
X17731310Y-10516024D01*
X17721786Y-10487452D01*
X17712262Y-10439833D01*
X17712262Y-10401738D01*
X17721786Y-10354119D01*
X17731310Y-10325548D01*
X17740833Y-10306500D01*
X17759881Y-10277929D01*
X17769405Y-10268405D01*
X17931310Y-10363643D02*
X17931310Y-10496976D01*
X17883690Y-10287452D02*
X17836071Y-10430310D01*
X17959881Y-10430310D01*
X18188452Y-10496976D02*
X18188452Y-10296976D01*
X18274167Y-10496976D02*
X18274167Y-10392214D01*
X18264643Y-10373167D01*
X18245595Y-10363643D01*
X18217024Y-10363643D01*
X18197976Y-10373167D01*
X18188452Y-10382690D01*
X18397976Y-10496976D02*
X18378929Y-10487452D01*
X18369405Y-10477929D01*
X18359881Y-10458881D01*
X18359881Y-10401738D01*
X18369405Y-10382690D01*
X18378929Y-10373167D01*
X18397976Y-10363643D01*
X18426548Y-10363643D01*
X18445595Y-10373167D01*
X18455119Y-10382690D01*
X18464643Y-10401738D01*
X18464643Y-10458881D01*
X18455119Y-10477929D01*
X18445595Y-10487452D01*
X18426548Y-10496976D01*
X18397976Y-10496976D01*
X18578929Y-10496976D02*
X18559881Y-10487452D01*
X18550357Y-10468405D01*
X18550357Y-10296976D01*
X18731310Y-10487452D02*
X18712262Y-10496976D01*
X18674167Y-10496976D01*
X18655119Y-10487452D01*
X18645595Y-10468405D01*
X18645595Y-10392214D01*
X18655119Y-10373167D01*
X18674167Y-10363643D01*
X18712262Y-10363643D01*
X18731310Y-10373167D01*
X18740833Y-10392214D01*
X18740833Y-10411262D01*
X18645595Y-10430310D01*
X18817024Y-10487452D02*
X18836071Y-10496976D01*
X18874167Y-10496976D01*
X18893214Y-10487452D01*
X18902738Y-10468405D01*
X18902738Y-10458881D01*
X18893214Y-10439833D01*
X18874167Y-10430310D01*
X18845595Y-10430310D01*
X18826548Y-10420786D01*
X18817024Y-10401738D01*
X18817024Y-10392214D01*
X18826548Y-10373167D01*
X18845595Y-10363643D01*
X18874167Y-10363643D01*
X18893214Y-10373167D01*
X18969405Y-10573167D02*
X18978929Y-10563643D01*
X18997976Y-10535071D01*
X19007500Y-10516024D01*
X19017024Y-10487452D01*
X19026548Y-10439833D01*
X19026548Y-10401738D01*
X19017024Y-10354119D01*
X19007500Y-10325548D01*
X18997976Y-10306500D01*
X18978929Y-10277929D01*
X18969405Y-10268405D01*
M02*
