%TF.GenerationSoftware,KiCad,Pcbnew,(6.0.6)*%
%TF.CreationDate,2022-07-17T20:24:10+03:00*%
%TF.ProjectId,EnkooderR,456e6b6f-6f64-4657-9252-2e6b69636164,rev?*%
%TF.SameCoordinates,Original*%
%TF.FileFunction,Legend,Bot*%
%TF.FilePolarity,Positive*%
%FSLAX46Y46*%
G04 Gerber Fmt 4.6, Leading zero omitted, Abs format (unit mm)*
G04 Created by KiCad (PCBNEW (6.0.6)) date 2022-07-17 20:24:10*
%MOMM*%
%LPD*%
G01*
G04 APERTURE LIST*
%ADD10C,0.150000*%
%ADD11O,1.000000X1.000000*%
%ADD12R,1.000000X1.000000*%
G04 APERTURE END LIST*
D10*
X154847619Y-82908095D02*
X154847619Y-82289047D01*
X154466666Y-82622380D01*
X154466666Y-82479523D01*
X154419047Y-82384285D01*
X154371428Y-82336666D01*
X154276190Y-82289047D01*
X154038095Y-82289047D01*
X153942857Y-82336666D01*
X153895238Y-82384285D01*
X153847619Y-82479523D01*
X153847619Y-82765238D01*
X153895238Y-82860476D01*
X153942857Y-82908095D01*
X154847619Y-82003333D02*
X153847619Y-81670000D01*
X154847619Y-81336666D01*
X154847619Y-81098571D02*
X154847619Y-80479523D01*
X154466666Y-80812857D01*
X154466666Y-80670000D01*
X154419047Y-80574761D01*
X154371428Y-80527142D01*
X154276190Y-80479523D01*
X154038095Y-80479523D01*
X153942857Y-80527142D01*
X153895238Y-80574761D01*
X153847619Y-80670000D01*
X153847619Y-80955714D01*
X153895238Y-81050952D01*
X153942857Y-81098571D01*
X156418095Y-80120000D02*
X156513333Y-80072380D01*
X156656190Y-80072380D01*
X156799047Y-80120000D01*
X156894285Y-80215238D01*
X156941904Y-80310476D01*
X156989523Y-80500952D01*
X156989523Y-80643809D01*
X156941904Y-80834285D01*
X156894285Y-80929523D01*
X156799047Y-81024761D01*
X156656190Y-81072380D01*
X156560952Y-81072380D01*
X156418095Y-81024761D01*
X156370476Y-80977142D01*
X156370476Y-80643809D01*
X156560952Y-80643809D01*
X157878571Y-80558571D02*
X157735714Y-80606190D01*
X157688095Y-80653809D01*
X157640476Y-80749047D01*
X157640476Y-80891904D01*
X157688095Y-80987142D01*
X157735714Y-81034761D01*
X157830952Y-81082380D01*
X158211904Y-81082380D01*
X158211904Y-80082380D01*
X157878571Y-80082380D01*
X157783333Y-80130000D01*
X157735714Y-80177619D01*
X157688095Y-80272857D01*
X157688095Y-80368095D01*
X157735714Y-80463333D01*
X157783333Y-80510952D01*
X157878571Y-80558571D01*
X158211904Y-80558571D01*
X159458095Y-80796666D02*
X158981904Y-80796666D01*
X159553333Y-81082380D02*
X159220000Y-80082380D01*
X158886666Y-81082380D01*
%LPC*%
D11*
X159220000Y-81670000D03*
X157950000Y-81670000D03*
X156680000Y-81670000D03*
D12*
X155410000Y-81670000D03*
M02*
