%TF.GenerationSoftware,KiCad,Pcbnew,(6.0.6)*%
%TF.CreationDate,2022-07-17T20:24:10+03:00*%
%TF.ProjectId,EnkooderR,456e6b6f-6f64-4657-9252-2e6b69636164,rev?*%
%TF.SameCoordinates,Original*%
%TF.FileFunction,Legend,Top*%
%TF.FilePolarity,Positive*%
%FSLAX46Y46*%
G04 Gerber Fmt 4.6, Leading zero omitted, Abs format (unit mm)*
G04 Created by KiCad (PCBNEW (6.0.6)) date 2022-07-17 20:24:10*
%MOMM*%
%LPD*%
G01*
G04 APERTURE LIST*
G04 Aperture macros list*
%AMRoundRect*
0 Rectangle with rounded corners*
0 $1 Rounding radius*
0 $2 $3 $4 $5 $6 $7 $8 $9 X,Y pos of 4 corners*
0 Add a 4 corners polygon primitive as box body*
4,1,4,$2,$3,$4,$5,$6,$7,$8,$9,$2,$3,0*
0 Add four circle primitives for the rounded corners*
1,1,$1+$1,$2,$3*
1,1,$1+$1,$4,$5*
1,1,$1+$1,$6,$7*
1,1,$1+$1,$8,$9*
0 Add four rect primitives between the rounded corners*
20,1,$1+$1,$2,$3,$4,$5,0*
20,1,$1+$1,$4,$5,$6,$7,0*
20,1,$1+$1,$6,$7,$8,$9,0*
20,1,$1+$1,$8,$9,$2,$3,0*%
G04 Aperture macros list end*
%ADD10C,0.150000*%
%ADD11C,0.120000*%
%ADD12RoundRect,0.225000X0.250000X-0.225000X0.250000X0.225000X-0.250000X0.225000X-0.250000X-0.225000X0*%
%ADD13RoundRect,0.200000X-0.200000X-0.275000X0.200000X-0.275000X0.200000X0.275000X-0.200000X0.275000X0*%
%ADD14RoundRect,0.200000X0.275000X-0.200000X0.275000X0.200000X-0.275000X0.200000X-0.275000X-0.200000X0*%
%ADD15R,0.900000X0.800000*%
%ADD16R,0.800000X0.900000*%
%ADD17RoundRect,0.225000X-0.225000X-0.250000X0.225000X-0.250000X0.225000X0.250000X-0.225000X0.250000X0*%
%ADD18RoundRect,0.225000X0.225000X0.250000X-0.225000X0.250000X-0.225000X-0.250000X0.225000X-0.250000X0*%
%ADD19O,1.000000X1.000000*%
%ADD20R,1.000000X1.000000*%
G04 APERTURE END LIST*
D10*
X146057142Y-82776666D02*
X146104761Y-82824285D01*
X146152380Y-82967142D01*
X146152380Y-83062380D01*
X146104761Y-83205238D01*
X146009523Y-83300476D01*
X145914285Y-83348095D01*
X145723809Y-83395714D01*
X145580952Y-83395714D01*
X145390476Y-83348095D01*
X145295238Y-83300476D01*
X145200000Y-83205238D01*
X145152380Y-83062380D01*
X145152380Y-82967142D01*
X145200000Y-82824285D01*
X145247619Y-82776666D01*
X146152380Y-81824285D02*
X146152380Y-82395714D01*
X146152380Y-82110000D02*
X145152380Y-82110000D01*
X145295238Y-82205238D01*
X145390476Y-82300476D01*
X145438095Y-82395714D01*
X160362380Y-85476666D02*
X159886190Y-85810000D01*
X160362380Y-86048095D02*
X159362380Y-86048095D01*
X159362380Y-85667142D01*
X159410000Y-85571904D01*
X159457619Y-85524285D01*
X159552857Y-85476666D01*
X159695714Y-85476666D01*
X159790952Y-85524285D01*
X159838571Y-85571904D01*
X159886190Y-85667142D01*
X159886190Y-86048095D01*
X160362380Y-84524285D02*
X160362380Y-85095714D01*
X160362380Y-84810000D02*
X159362380Y-84810000D01*
X159505238Y-84905238D01*
X159600476Y-85000476D01*
X159648095Y-85095714D01*
X154642380Y-82336666D02*
X154166190Y-82670000D01*
X154642380Y-82908095D02*
X153642380Y-82908095D01*
X153642380Y-82527142D01*
X153690000Y-82431904D01*
X153737619Y-82384285D01*
X153832857Y-82336666D01*
X153975714Y-82336666D01*
X154070952Y-82384285D01*
X154118571Y-82431904D01*
X154166190Y-82527142D01*
X154166190Y-82908095D01*
X153737619Y-81955714D02*
X153690000Y-81908095D01*
X153642380Y-81812857D01*
X153642380Y-81574761D01*
X153690000Y-81479523D01*
X153737619Y-81431904D01*
X153832857Y-81384285D01*
X153928095Y-81384285D01*
X154070952Y-81431904D01*
X154642380Y-82003333D01*
X154642380Y-81384285D01*
X159402380Y-90671904D02*
X160211904Y-90671904D01*
X160307142Y-90624285D01*
X160354761Y-90576666D01*
X160402380Y-90481428D01*
X160402380Y-90290952D01*
X160354761Y-90195714D01*
X160307142Y-90148095D01*
X160211904Y-90100476D01*
X159402380Y-90100476D01*
X160402380Y-89100476D02*
X160402380Y-89671904D01*
X160402380Y-89386190D02*
X159402380Y-89386190D01*
X159545238Y-89481428D01*
X159640476Y-89576666D01*
X159688095Y-89671904D01*
X149228095Y-83842380D02*
X149228095Y-84651904D01*
X149275714Y-84747142D01*
X149323333Y-84794761D01*
X149418571Y-84842380D01*
X149609047Y-84842380D01*
X149704285Y-84794761D01*
X149751904Y-84747142D01*
X149799523Y-84651904D01*
X149799523Y-83842380D01*
X150228095Y-83937619D02*
X150275714Y-83890000D01*
X150370952Y-83842380D01*
X150609047Y-83842380D01*
X150704285Y-83890000D01*
X150751904Y-83937619D01*
X150799523Y-84032857D01*
X150799523Y-84128095D01*
X150751904Y-84270952D01*
X150180476Y-84842380D01*
X150799523Y-84842380D01*
X160287142Y-87346666D02*
X160334761Y-87394285D01*
X160382380Y-87537142D01*
X160382380Y-87632380D01*
X160334761Y-87775238D01*
X160239523Y-87870476D01*
X160144285Y-87918095D01*
X159953809Y-87965714D01*
X159810952Y-87965714D01*
X159620476Y-87918095D01*
X159525238Y-87870476D01*
X159430000Y-87775238D01*
X159382380Y-87632380D01*
X159382380Y-87537142D01*
X159430000Y-87394285D01*
X159477619Y-87346666D01*
X159477619Y-86965714D02*
X159430000Y-86918095D01*
X159382380Y-86822857D01*
X159382380Y-86584761D01*
X159430000Y-86489523D01*
X159477619Y-86441904D01*
X159572857Y-86394285D01*
X159668095Y-86394285D01*
X159810952Y-86441904D01*
X160382380Y-87013333D01*
X160382380Y-86394285D01*
X160307142Y-83796666D02*
X160354761Y-83844285D01*
X160402380Y-83987142D01*
X160402380Y-84082380D01*
X160354761Y-84225238D01*
X160259523Y-84320476D01*
X160164285Y-84368095D01*
X159973809Y-84415714D01*
X159830952Y-84415714D01*
X159640476Y-84368095D01*
X159545238Y-84320476D01*
X159450000Y-84225238D01*
X159402380Y-84082380D01*
X159402380Y-83987142D01*
X159450000Y-83844285D01*
X159497619Y-83796666D01*
X159735714Y-82939523D02*
X160402380Y-82939523D01*
X159354761Y-83177619D02*
X160069047Y-83415714D01*
X160069047Y-82796666D01*
X160067142Y-92586666D02*
X160114761Y-92634285D01*
X160162380Y-92777142D01*
X160162380Y-92872380D01*
X160114761Y-93015238D01*
X160019523Y-93110476D01*
X159924285Y-93158095D01*
X159733809Y-93205714D01*
X159590952Y-93205714D01*
X159400476Y-93158095D01*
X159305238Y-93110476D01*
X159210000Y-93015238D01*
X159162380Y-92872380D01*
X159162380Y-92777142D01*
X159210000Y-92634285D01*
X159257619Y-92586666D01*
X159162380Y-92253333D02*
X159162380Y-91634285D01*
X159543333Y-91967619D01*
X159543333Y-91824761D01*
X159590952Y-91729523D01*
X159638571Y-91681904D01*
X159733809Y-91634285D01*
X159971904Y-91634285D01*
X160067142Y-91681904D01*
X160114761Y-91729523D01*
X160162380Y-91824761D01*
X160162380Y-92110476D01*
X160114761Y-92205714D01*
X160067142Y-92253333D01*
X155096666Y-80082380D02*
X155096666Y-80796666D01*
X155049047Y-80939523D01*
X154953809Y-81034761D01*
X154810952Y-81082380D01*
X154715714Y-81082380D01*
X156096666Y-81082380D02*
X155525238Y-81082380D01*
X155810952Y-81082380D02*
X155810952Y-80082380D01*
X155715714Y-80225238D01*
X155620476Y-80320476D01*
X155525238Y-80368095D01*
D11*
X146530000Y-82130580D02*
X146530000Y-81849420D01*
X147550000Y-82130580D02*
X147550000Y-81849420D01*
X157582742Y-85922500D02*
X158057258Y-85922500D01*
X157582742Y-84877500D02*
X158057258Y-84877500D01*
X153332500Y-82417258D02*
X153332500Y-81942742D01*
X152287500Y-82417258D02*
X152287500Y-81942742D01*
X158760000Y-91580000D02*
X158760000Y-90650000D01*
X158760000Y-88420000D02*
X156600000Y-88420000D01*
X158760000Y-88420000D02*
X158760000Y-89350000D01*
X158760000Y-91580000D02*
X157300000Y-91580000D01*
X148420000Y-81240000D02*
X148420000Y-83400000D01*
X151580000Y-81240000D02*
X151580000Y-82700000D01*
X148420000Y-81240000D02*
X149350000Y-81240000D01*
X151580000Y-81240000D02*
X150650000Y-81240000D01*
X157639420Y-87690000D02*
X157920580Y-87690000D01*
X157639420Y-86670000D02*
X157920580Y-86670000D01*
X158200580Y-82850000D02*
X157919420Y-82850000D01*
X158200580Y-83870000D02*
X157919420Y-83870000D01*
X157649420Y-93090000D02*
X157930580Y-93090000D01*
X157649420Y-92070000D02*
X157930580Y-92070000D01*
X156170000Y-82780000D02*
X159915000Y-82780000D01*
X156170000Y-82780000D02*
X156170000Y-82233471D01*
X159915000Y-81362470D02*
X159915000Y-80560000D01*
X156170000Y-80560000D02*
X159915000Y-80560000D01*
X155410000Y-82780000D02*
X154650000Y-82780000D01*
X159915000Y-82780000D02*
X159915000Y-81977530D01*
X156170000Y-81106529D02*
X156170000Y-80560000D01*
X154650000Y-82780000D02*
X154650000Y-81670000D01*
%LPC*%
D12*
X147040000Y-82765000D03*
X147040000Y-81215000D03*
D13*
X156995000Y-85400000D03*
X158645000Y-85400000D03*
D14*
X152810000Y-81355000D03*
X152810000Y-83005000D03*
D15*
X157000000Y-89050000D03*
X157000000Y-90950000D03*
X159000000Y-90000000D03*
D16*
X149050000Y-83000000D03*
X150950000Y-83000000D03*
X150000000Y-81000000D03*
D17*
X157005000Y-87180000D03*
X158555000Y-87180000D03*
D18*
X157285000Y-83360000D03*
X158835000Y-83360000D03*
D17*
X157015000Y-92580000D03*
X158565000Y-92580000D03*
D19*
X159220000Y-81670000D03*
X157950000Y-81670000D03*
X156680000Y-81670000D03*
D20*
X155410000Y-81670000D03*
M02*
